<svg width="18" height="18" viewBox="0 0 18 18" fill="none" xmlns="http://www.w3.org/2000/svg">
<path d="M3.79452 0.00857908C3.50211 -0.0295622 3.24788 0.0594862 3.03181 0.275354L0.514954 2.80972C0.387835 2.92405 0.27969 3.07328 0.1908 3.25748C0.101786 3.44169 0.0445825 3.62268 0.0191919 3.80047C0.0191919 3.81317 0.0159189 3.85138 0.00956361 3.91493C0.00323885 3.97835 1.66222e-07 4.06092 1.6501e-07 4.16255C1.62131e-07 4.40398 0.0413133 4.79465 0.12397 5.33455C0.206629 5.87445 0.41005 6.535 0.734139 7.31621C1.05829 8.0976 1.54458 8.98365 2.19282 9.97449C2.84103 10.9653 3.73092 12.0198 4.86231 13.1377C5.73943 14.0269 6.57841 14.7637 7.37922 15.3481C8.1801 15.9325 8.92057 16.4025 9.60065 16.7582C10.2807 17.1139 10.8973 17.3807 11.4502 17.5586C12.0032 17.7364 12.4799 17.8571 12.8803 17.9206C13.2807 17.9841 13.5953 18.0095 13.8242 17.9968C14.053 17.9841 14.1801 17.9778 14.2055 17.9778C14.3835 17.9524 14.5646 17.8952 14.7489 17.8063C14.9333 17.7173 15.0826 17.6094 15.197 17.4823L17.7331 14.948C17.911 14.7701 18 14.5669 18 14.3382C18 14.1731 17.9523 14.027 17.857 13.8999C17.7617 13.7729 17.6441 13.6649 17.5042 13.576L13.6335 11.5371C13.4301 11.4227 13.2076 11.391 12.9661 11.4418C12.7246 11.4926 12.5212 11.6006 12.3559 11.7657L11.4216 12.6994C11.3962 12.7248 11.3549 12.7471 11.2977 12.7661C11.2405 12.7852 11.1928 12.7947 11.1547 12.7947C10.8877 12.7439 10.5826 12.6296 10.2394 12.4517C9.93434 12.2993 9.56251 12.0643 9.12395 11.7467C8.6854 11.4291 8.18013 10.9781 7.6081 10.3937C7.02329 9.82208 6.56891 9.31394 6.24469 8.86932C5.92066 8.42478 5.68222 8.05308 5.52968 7.75455C5.37714 7.45601 5.28498 7.22735 5.25329 7.06858L5.20559 6.83045C5.20559 6.80505 5.21516 6.76367 5.23419 6.70656C5.25329 6.6494 5.27551 6.60811 5.30096 6.58267L6.40689 5.49655C6.61025 5.26776 6.71195 5.00111 6.71195 4.69619C6.71195 4.48017 6.67384 4.30877 6.59754 4.18173L6.59754 4.16271L4.42381 0.485058C4.25844 0.218189 4.04875 0.0594252 3.79452 0.00857908Z" fill="#C8D1D6"/>
</svg>
