<?xml version="1.0" standalone="no"?>
<!DOCTYPE svg PUBLIC "-//W3C//DTD SVG 1.1//EN" "http://www.w3.org/Graphics/SVG/1.1/DTD/svg11.dtd" >
<svg>
<metadata>
Created by FontForge 20120731 at Sun Oct  9 12:18:47 2016
 By ,,,
Copyright (c) 2015-2016 Belleve Invis.
</metadata>
<defs>
<font id="Iosevka-Slab-Light" horiz-adv-x="500" >
  <font-face 
    font-family="Iosevka Slab Light"
    font-weight="300"
    font-stretch="normal"
    units-per-em="1000"
    panose-1="2 0 4 9 0 0 0 0 0 0"
    ascent="800"
    descent="-200"
    x-height="530"
    cap-height="735"
    bbox="-465 -419 573 1182"
    underline-thickness="0"
    underline-position="50"
    unicode-range="U+0020-FB02"
  />
<missing-glyph 
d="M70 0v735h360v-735h-360zM126 56h248v623h-248v-623z" />
    <glyph glyph-name=".notdef" 
d="M70 0v735h360v-735h-360zM126 56h248v623h-248v-623z" />
    <glyph glyph-name=".notdef" 
d="M70 0v735h360v-735h-360zM126 56h248v623h-248v-623z" />
    <glyph glyph-name="glyph1" horiz-adv-x="0" 
 />
    <glyph glyph-name="glyph2" horiz-adv-x="333" 
 />
    <glyph glyph-name="space" unicode=" " 
 />
    <glyph glyph-name="uni0307" unicode="&#x307;" horiz-adv-x="0" 
d="M-300 685q0 23 13.5 36.5t36.5 13.5t36.5 -13.5t13.5 -36.5t-13.5 -36.5t-36.5 -13.5t-36.5 13.5t-13.5 36.5z" />
    <glyph glyph-name="uni0308" unicode="&#x308;" horiz-adv-x="0" 
d="M-200 685q0 23 13.5 36.5t36.5 13.5t36.5 -13.5t13.5 -36.5t-13.5 -36.5t-36.5 -13.5t-36.5 13.5t-13.5 36.5zM-400 685q0 23 13.5 36.5t36.5 13.5t36.5 -13.5t13.5 -36.5t-13.5 -36.5t-36.5 -13.5t-36.5 13.5t-13.5 36.5z" />
    <glyph glyph-name="uni030A" unicode="&#x30a;" horiz-adv-x="0" 
d="M-334 666q0 27 11 46q10 17 27 27q19 11 46 11t46 -11q17 -10 27 -27q11 -19 11 -46t-11 -46q-10 -17 -27 -27q-19 -11 -46 -11t-46 11q-17 10 -27 27q-11 19 -11 46zM-287 666q0 -17 10 -27t27 -10t27 10t10 27t-10 27t-27 10t-27 -10t-10 -27z" />
    <glyph glyph-name="uni1AB2" unicode="&#x1ab2;" horiz-adv-x="0" 
d="M-406 666q0 27 11 46q10 17 27 27q19 11 46 11t46 -11q17 -10 27 -27q11 -19 11 -46t-11 -46q-10 -17 -27 -27q-19 -11 -46 -11t-46 11q-17 10 -27 27q-11 19 -11 46zM-359 666q0 -17 10 -27t27 -10t27 10t10 27t-10 27t-27 10t-27 -10t-10 -27zM-262 666q0 27 11 46
q10 17 27 27q19 11 46 11t46 -11q17 -10 27 -27q11 -19 11 -46t-11 -46q-10 -17 -27 -27q-19 -11 -46 -11t-46 11q-17 10 -27 27q-11 19 -11 46zM-215 666q0 -17 10 -27t27 -10t27 10t10 27t-10 27t-27 10t-27 -10t-10 -27z" />
    <glyph glyph-name="gravecomb" unicode="&#x300;" horiz-adv-x="0" 
d="M-376 724l52 39l126 -163l-43 -32z" />
    <glyph glyph-name="grave" unicode="`" 
d="M104 736l53 39l152 -195l-44 -32z" />
    <glyph glyph-name="acutecomb" unicode="&#x301;" horiz-adv-x="0" 
d="M-302 600l126 163l52 -39l-135 -156z" />
    <glyph glyph-name="acute" unicode="&#xb4;" 
d="M191 580l152 195l53 -39l-161 -188z" />
    <glyph glyph-name="uni0302" unicode="&#x302;" horiz-adv-x="0" 
d="M-408 609l124 153h68l124 -153l-54 -38l-104 143l-104 -143z" />
    <glyph glyph-name="asciicircum" unicode="^" 
d="M76 585l141 185h66l141 -185l-53 -35l-121 173l-121 -173z" />
    <glyph glyph-name="uni030C" unicode="&#x30c;" horiz-adv-x="0" 
d="M-408 725l54 38l104 -144l104 144l54 -38l-124 -153h-68z" />
    <glyph glyph-name="tildecomb" unicode="&#x303;" horiz-adv-x="0" 
d="M-426 606q21 55 40 88q23 40 47 54q15 8 30 8t30 -8q22 -13 54 -66q20 -33 29 -43q2 -2 5 -4q12 7 27 35q18 31 38 83l52 -18q-21 -55 -40 -88q-23 -40 -47 -54q-15 -8 -30 -9q-15 0 -30 9q-22 13 -54 66q-20 33 -29 42q-2 2 -5 4q-12 -7 -27 -34q-18 -31 -38 -83z" />
    <glyph glyph-name="asciitilde.ss09" 
d="M44 588q26 69 50 110q26 45 53 61q16 9 33 9t31 -9q26 -15 64 -80q25 -43 37 -55q7 -7 8 -7t3 1q14 8 33 42q22 38 47 104l53 -17q-26 -69 -50 -110q-26 -45 -53 -61q-16 -9 -33 -9t-31 9q-26 15 -64 80q-25 43 -37 55q-7 7 -8 7t-3 -1q-14 -8 -33 -42q-22 -38 -47 -104z
" />
    <glyph glyph-name="uni034A" unicode="&#x34a;" horiz-adv-x="0" 
d="M-424 625q41 70 78 91q19 11 38 11q18 0 37 -10l11 55l60 -11l-18 -93q18 -18 26 -18q3 0 8 3q25 14 60 75l48 -25q-41 -70 -78 -92q-19 -11 -38 -11q-18 0 -37 11l-11 -56l-60 11l18 93q-18 18 -26 18q-3 0 -8 -3q-25 -14 -60 -74z" />
    <glyph glyph-name="uni034B" unicode="&#x34b;" horiz-adv-x="0" 
d="M-424 625q41 70 78 91q19 11 38 11q32 0 65 -32q5 -5 14 -15q27 -29 37 -30q3 0 8 3q25 14 60 75l48 -25q-41 -70 -78 -92q-19 -11 -38 -11q-32 0 -65 33q-5 5 -14 15q-27 29 -37 29q-3 0 -8 -3q-25 -14 -60 -74zM-287 561q0 17 10 27t27 10t27 -10t10 -27t-10 -27
t-27 -10t-27 10t-10 27zM-287 767q0 17 10 27t27 10t27 -10t10 -27t-10 -27.5t-27 -10.5t-27 10.5t-10 27.5z" />
    <glyph glyph-name="uni034C" unicode="&#x34c;" horiz-adv-x="0" 
d="M-424 544q41 70 78 91q19 11 38 11q32 0 65 -32q5 -5 14 -15q27 -29 37 -30q3 0 8 3q25 14 60 75l48 -25q-41 -70 -78 -92q-19 -11 -38 -11q-32 0 -65 33q-5 5 -14 15q-27 29 -37 29q-3 0 -8 -3q-25 -14 -60 -74zM-424 667q41 70 78 92q19 11 38 11q32 0 65 -33
q5 -5 14 -15q27 -29 37 -29q3 0 8 3q25 14 60 74l48 -25q-41 -70 -78 -91q-19 -11 -38 -11q-32 0 -65 32q-5 5 -14 15q-27 29 -37 30q-3 0 -8 -3q-25 -14 -60 -75z" />
    <glyph glyph-name="uni0304" unicode="&#x304;" horiz-adv-x="0" 
d="M-400 657v56h300v-56h-300z" />
    <glyph glyph-name="uni0305" unicode="&#x305;" horiz-adv-x="0" 
d="M-430 657v56h360v-56h-360z" />
    <glyph glyph-name="uni033F" unicode="&#x33f;" horiz-adv-x="0" 
d="M-430 584v51h360v-51h-360zM-430 694v50h360v-50h-360z" />
    <glyph glyph-name="uni0306" unicode="&#x306;" horiz-adv-x="0" 
d="M-401 744h62q0 -37 15 -62q11 -20 29.5 -31t44.5 -11t44.5 11t29.5 31q15 25 15 62h62q0 -53 -21 -91q-18 -32 -50 -49q-34 -19 -80.5 -19.5t-79.5 19.5q-31 18 -50 49q-22 37 -21 91z" />
    <glyph glyph-name="uni0311" unicode="&#x311;" horiz-adv-x="0" 
d="M-401 584q0 53 21 91q18 32 50 50q34 19 80.5 19t79.5 -19q31 -18 50 -50q22 -37 21 -91h-62q0 37 -15 63q-11 20 -29.5 30.5t-44.5 10.5t-44.5 -11t-29.5 -30q-15 -25 -15 -63h-62z" />
    <glyph glyph-name="hookabovecomb" unicode="&#x309;" horiz-adv-x="0" 
d="M-325 690v51h85q35 0 59 -14q19 -11 29 -29t10 -42t-10.5 -42t-28.5 -29q-24 -14 -59 -13h-38v50h38q22 0 33 11q9 9 9 23t-9 23q-11 11 -33 11h-85z" />
    <glyph glyph-name="uni030F" unicode="&#x30f;" horiz-adv-x="0" 
d="M-291 724l52 39l126 -163l-43 -32zM-461 724l52 39l126 -163l-43 -32z" />
    <glyph glyph-name="uni030B" unicode="&#x30b;" horiz-adv-x="0" 
d="M-217 600l126 163l52 -39l-135 -156zM-387 600l126 163l52 -39l-135 -156z" />
    <glyph glyph-name="uni0313" unicode="&#x313;" horiz-adv-x="0" 
d="M-296 582q30 41 38 97q-14 2 -23 11q-11 11 -11 30.5t11 31t31 11.5t31 -11t11 -31q0 -99 -50 -165z" />
    <glyph glyph-name="uni0312" unicode="&#x312;" horiz-adv-x="0" 
d="M-292 599q0 99 50 165l38 -26q-30 -41 -38 -97q14 -2 23 -11q11 -11 11 -30.5t-11 -31t-31 -11.5t-31 11t-11 31z" />
    <glyph glyph-name="uni0314" unicode="&#x314;" horiz-adv-x="0" 
d="M-292 721q0 20 11 31t31 11t31 -11.5t11 -31t-11 -30.5q-9 -9 -23 -11q8 -56 38 -97l-38 -26q-50 66 -50 165z" />
    <glyph glyph-name="uni030D" unicode="&#x30d;" horiz-adv-x="0" 
d="M-281 584v160h62v-160h-62z" />
    <glyph glyph-name="uni030E" unicode="&#x30e;" horiz-adv-x="0" 
d="M-206 584v160h62v-160h-62zM-356 584v160h62v-160h-62z" />
    <glyph glyph-name="uni0346" unicode="&#x346;" horiz-adv-x="0" 
d="M-378 584v160h256v-160h-56v110h-144v-110h-56z" />
    <glyph glyph-name="uni033E" unicode="&#x33e;" horiz-adv-x="0" 
d="M-291 584q5 3 10 8q15 15 15 36q0 14 -12 36t-12 36q0 21 15 37q4 4 10 7h56q-5 -3 -10 -7q-15 -15 -15 -37q0 -14 12 -35.5t12 -36.5q0 -21 -15 -36q-4 -4 -10 -8h-56z" />
    <glyph glyph-name="uni0310" unicode="&#x310;" horiz-adv-x="0" 
d="M-355 704h53q0 -24 14 -38t38 -14t38 14t14 38h53q0 -31 -13 -53q-12 -21 -32 -32q-25 -14 -60 -14.5t-60 14.5q-21 12 -32 32q-13 22 -13 53zM-288 704.5q0 17.5 10 28t28 10.5t28 -10.5t10 -28t-10 -28t-28 -10.5t-28 10.5t-10 28z" />
    <glyph glyph-name="uni0340" unicode="&#x340;" horiz-adv-x="0" 
d="M-331 739l62 25l75 -182l-51 -21z" />
    <glyph glyph-name="uni0341" unicode="&#x341;" horiz-adv-x="0" 
d="M-306 582l75 182l62 -25l-86 -178z" />
    <glyph glyph-name="uni0342" unicode="&#x342;" horiz-adv-x="0" 
d="M-401 584q0 53 21 91q18 32 50 50q34 19 80.5 19t79.5 -19q31 -18 50 -50q22 -37 21 -91h-62q0 37 -15 63q-11 20 -29.5 30.5t-44.5 10.5t-44.5 -11t-29.5 -30q-15 -25 -15 -63h-62z" />
    <glyph glyph-name="uni0343" unicode="&#x343;" horiz-adv-x="0" 
d="M-296 582q30 41 38 97q-14 2 -23 11q-11 11 -11 30.5t11 31t31 11.5t31 -11t11 -31q0 -99 -50 -165z" />
    <glyph glyph-name="uni033D" unicode="&#x33d;" horiz-adv-x="0" 
d="M-367 604l75 60l-75 60l34 40l83 -66l83 66l34 -40l-75 -60l75 -60l-34 -39l-83 65l-83 -65z" />
    <glyph glyph-name="uni1DFE" unicode="&#x1dfe;" horiz-adv-x="0" 
d="M-350 640v48l190 79l20 -47l-148 -56l148 -56l-20 -47z" />
    <glyph glyph-name="uni0350" unicode="&#x350;" horiz-adv-x="0" 
d="M-360 608l148 56l-148 56l20 47l190 -79v-48l-190 -79z" />
    <glyph glyph-name="uni0327" unicode="&#x327;" horiz-adv-x="0" 
d="M-350 -158h100q24 0 37 13q9 9 9 23t-9 23q-12 12 -37 13h-31v86h62v-33q46 -9 66 -44q11 -19 11 -45t-11 -45.5t-32 -31.5q-26 -15 -65 -15h-100v56z" />
    <glyph glyph-name="uni0328" unicode="&#x328;" horiz-adv-x="0" 
d="M-368 -76.5q0 24.5 12 45.5q14 24 40 39q30 17 66 17v-33q-25 0 -41 -17q-15 -15 -15 -34q0 -20 14 -34q19 -19 67 -19h60v-62h-60q-64 0 -96 18q-23 13 -35 35q-12 20 -12 44.5z" />
    <glyph glyph-name="glyph45" horiz-adv-x="0" 
d="M-368 -76.5q0 24.5 12 45.5q14 24 40 39q30 17 66 17v-33q-25 0 -41 -17q-15 -15 -15 -34q0 -20 14 -34q19 -19 67 -19h60v-62h-60q-64 0 -96 18q-23 13 -35 35q-12 20 -12 44.5z" />
    <glyph glyph-name="uni0345" unicode="&#x345;" horiz-adv-x="0" 
d="M-281 -214v160h62v-160h-62z" />
    <glyph glyph-name="glyph47" horiz-adv-x="0" 
d="M-281 -214v160h62v-160h-62z" />
    <glyph glyph-name="uni031D" unicode="&#x31d;" horiz-adv-x="0" 
d="M-350 -164h72v110h56v-110h72v-50h-200v50z" />
    <glyph glyph-name="uni031E" unicode="&#x31e;" horiz-adv-x="0" 
d="M-350 -54h200v-51h-72v-109h-56v109h-72v51z" />
    <glyph glyph-name="uni0318" unicode="&#x318;" horiz-adv-x="0" 
d="M-350 -109h172v55h56v-160h-56v55h-172v50z" />
    <glyph glyph-name="uni0319" unicode="&#x319;" horiz-adv-x="0" 
d="M-378 -54h56v-55h172v-50h-172v-55h-56v160z" />
    <glyph glyph-name="uni0349" unicode="&#x349;" horiz-adv-x="0" 
d="M-350 -54h228v-160h-56v109h-172v51z" />
    <glyph glyph-name="uni031F" unicode="&#x31f;" horiz-adv-x="0" 
d="M-350 -109h72v55h56v-55h72v-50h-72v-55h-56v55h-72v50z" />
    <glyph glyph-name="uni0320" unicode="&#x320;" horiz-adv-x="0" 
d="M-378 -54h56v-55h144v55h56v-160h-56v55h-144v-55h-56v160z" />
    <glyph glyph-name="uni032A" unicode="&#x32a;" horiz-adv-x="0" 
d="M-378 -214v160h256v-160h-56v110h-144v-110h-56z" />
    <glyph glyph-name="uni033B" unicode="&#x33b;" horiz-adv-x="0" 
d="M-378 -54h256v-160h-256v160zM-322 -105v-59h144v59h-144z" />
    <glyph glyph-name="uni0347" unicode="&#x347;" horiz-adv-x="0" 
d="M-350 -54h200v-51h-200v51zM-350 -164h200v-50h-200v50z" />
    <glyph glyph-name="uni032B" unicode="&#x32b;" horiz-adv-x="0" 
d="M-446 -54h63q0 -67 25 -93q11 -11 25.5 -11t25.5 11q26 26 26 93h62q0 -67 26 -93q11 -11 25.5 -11t25.5 11q26 26 25 93h63q0 -65 -24 -106q-16 -27 -40 -42q-21 -12 -49.5 -12t-49.5 12q-19 11 -33 31q-14 -19 -33 -31q-21 -12 -49.5 -12t-49.5 12q-24 14 -40 42
q-24 41 -24 106z" />
    <glyph glyph-name="uni033C" unicode="&#x33c;" horiz-adv-x="0" 
d="M-446 -214q0 65 24 106q16 27 40 41q21 12 49.5 12.5t49.5 -12.5q19 -11 33 -30q14 19 33 30q21 12 49.5 12.5t49.5 -12.5q24 -14 40 -41q24 -41 24 -106h-63q0 67 -25 93q-11 11 -25.5 11t-25.5 -11q-26 -26 -26 -93h-62q0 67 -26 93q-11 11 -25.5 11t-25.5 -11
q-26 -26 -25 -93h-63z" />
    <glyph glyph-name="uni031C" unicode="&#x31c;" horiz-adv-x="0" 
d="M-318 -134q0 33 14 57q12 21 34 34q25 14 60 14v-50q-23 0 -37 -14q-15 -15 -15 -41t15 -41q14 -14 37 -14v-50q-35 0 -60 14q-22 13 -34 34q-14 24 -14 57z" />
    <glyph glyph-name="uni0339" unicode="&#x339;" horiz-adv-x="0" 
d="M-290 -29q35 0 60 -14q22 -13 34 -34q14 -24 14 -57t-14 -57q-12 -21 -34 -34q-25 -14 -60 -14v50q23 0 37 14q15 15 15 41t-15 41q-14 14 -37 14v50z" />
    <glyph glyph-name="uni0351" unicode="&#x351;" horiz-adv-x="0" 
d="M-318 664q0 33 14 57q12 21 34 34q25 14 60 14v-50q-23 0 -37 -14q-15 -15 -15 -41t15 -41q14 -14 37 -14v-50q-35 0 -60 14q-22 13 -34 34q-14 24 -14 57z" />
    <glyph glyph-name="uni0357" unicode="&#x357;" horiz-adv-x="0" 
d="M-290 769q35 0 60 -14q22 -13 34 -34q14 -24 14 -57t-14 -57q-12 -21 -34 -34q-25 -14 -60 -14v50q23 0 37 14q15 15 15 41t-15 41q-14 14 -37 14v50z" />
    <glyph glyph-name="uni0316" unicode="&#x316;" horiz-adv-x="0" 
d="M-302 -70l43 32l135 -156l-52 -39z" />
    <glyph glyph-name="uni0317" unicode="&#x317;" horiz-adv-x="0" 
d="M-376 -194l135 156l43 -32l-126 -163z" />
    <glyph glyph-name="dotbelowcomb" unicode="&#x323;" horiz-adv-x="0" 
d="M-300 -155q0 23 13.5 36.5t36.5 13.5t36.5 -13.5t13.5 -36.5t-13.5 -36.5t-36.5 -13.5t-36.5 13.5t-13.5 36.5z" />
    <glyph glyph-name="uni0324" unicode="&#x324;" horiz-adv-x="0" 
d="M-400 -155q0 23 13.5 36.5t36.5 13.5t36.5 -13.5t13.5 -36.5t-13.5 -36.5t-36.5 -13.5t-36.5 13.5t-13.5 36.5zM-200 -155q0 23 13.5 36.5t36.5 13.5t36.5 -13.5t13.5 -36.5t-13.5 -36.5t-36.5 -13.5t-36.5 13.5t-13.5 36.5z" />
    <glyph glyph-name="uni0330" unicode="&#x330;" horiz-adv-x="0" 
d="M-426 -205q21 55 40 88q23 40 47 54q15 8 30 9q15 0 30 -9q22 -13 54 -66q20 -33 29 -42q2 -2 5 -4q12 7 27 34q18 31 38 83l52 -18q-21 -55 -40 -88q-23 -40 -47 -54q-15 -8 -30 -8t-30 8q-22 13 -54 66q-20 33 -29 43q-2 2 -5 4q-12 -7 -27 -35q-18 -31 -38 -83z" />
    <glyph glyph-name="uni0325" unicode="&#x325;" horiz-adv-x="0" 
d="M-334 -136q0 27 11 46q10 17 27 27q19 11 46 11t46 -11q17 -10 27 -27q11 -19 11 -46t-11 -46q-10 -17 -27 -27q-19 -11 -46 -11t-46 11q-17 10 -27 27q-11 19 -11 46zM-287 -136q0 -17 10 -27t27 -10t27 10t10 27t-10 27t-27 10t-27 -10t-10 -27z" />
    <glyph glyph-name="uni0331" unicode="&#x331;" horiz-adv-x="0" 
d="M-400 -183v56h300v-56h-300z" />
    <glyph glyph-name="uni033A" unicode="&#x33a;" horiz-adv-x="0" 
d="M-378 -54h56v-110h144v110h56v-160h-256v160z" />
    <glyph glyph-name="uni0332" unicode="&#x332;" horiz-adv-x="0" 
d="M-430 -183v56h360v-56h-360z" />
    <glyph glyph-name="uni0333" unicode="&#x333;" horiz-adv-x="0" 
d="M-430 -214v51h360v-51h-360zM-430 -104v50h360v-50h-360z" />
    <glyph glyph-name="uni032D" unicode="&#x32d;" horiz-adv-x="0" 
d="M-408 -195l124 153h68l124 -153l-54 -38l-104 143l-104 -143z" />
    <glyph glyph-name="uni032C" unicode="&#x32c;" horiz-adv-x="0" 
d="M-408 -79l54 38l104 -144l104 144l54 -38l-124 -153h-68z" />
    <glyph glyph-name="uni032E" unicode="&#x32e;" horiz-adv-x="0" 
d="M-401 -54h62q0 -37 15 -62q11 -20 29.5 -31t44.5 -11t44.5 11t29.5 31q15 25 15 62h62q0 -53 -21 -91q-18 -32 -50 -49q-34 -19 -80.5 -19.5t-79.5 19.5q-31 18 -50 49q-22 37 -21 91z" />
    <glyph glyph-name="uni032F" unicode="&#x32f;" horiz-adv-x="0" 
d="M-401 -214q0 53 21 91q18 32 50 50q34 19 80.5 19t79.5 -19q31 -18 50 -50q22 -37 21 -91h-62q0 37 -15 63q-11 20 -29.5 30.5t-44.5 10.5t-44.5 -11t-29.5 -30q-15 -25 -15 -63h-62z" />
    <glyph glyph-name="uni0326" unicode="&#x326;" horiz-adv-x="0" 
d="M-296 -208q30 41 38 97q-14 2 -23 11q-11 11 -11 30.5t11 31t31 11.5t31 -11t11 -31q0 -99 -50 -165z" />
    <glyph glyph-name="uni0329" unicode="&#x329;" horiz-adv-x="0" 
d="M-281 -214v160h62v-160h-62z" />
    <glyph glyph-name="uni0348" unicode="&#x348;" horiz-adv-x="0" 
d="M-356 -214v160h62v-160h-62zM-206 -214v160h62v-160h-62z" />
    <glyph glyph-name="uni0353" unicode="&#x353;" horiz-adv-x="0" 
d="M-367 -194l75 60l-75 60l34 40l83 -66l83 66l34 -40l-75 -60l75 -60l-34 -39l-83 65l-83 -65z" />
    <glyph glyph-name="uni0354" unicode="&#x354;" horiz-adv-x="0" 
d="M-350 -158v48l190 79l20 -47l-148 -56l148 -56l-20 -47z" />
    <glyph glyph-name="uni0355" unicode="&#x355;" horiz-adv-x="0" 
d="M-360 -190l148 56l-148 56l20 47l190 -79v-48l-190 -79z" />
    <glyph glyph-name="uni035A" unicode="&#x35a;" horiz-adv-x="0" 
d="M-262 -136q0 27 11 46q10 17 27 27q19 11 46 11t46 -11q17 -10 27 -27q11 -19 11 -46t-11 -46q-10 -17 -27 -27q-19 -11 -46 -11t-46 11q-17 10 -27 27q-11 19 -11 46zM-215 -136q0 -17 10 -27t27 -10t27 10t10 27t-10 27t-27 10t-27 -10t-10 -27zM-406 -136q0 27 11 46
q10 17 27 27q19 11 46 11t46 -11q17 -10 27 -27q11 -19 11 -46t-11 -46q-10 -17 -27 -27q-19 -11 -46 -11t-46 11q-17 10 -27 27q-11 19 -11 46zM-359 -136q0 -17 10 -27t27 -10t27 10t10 27t-10 27t-27 10t-27 -10t-10 -27z" />
    <glyph glyph-name="uni034D" unicode="&#x34d;" horiz-adv-x="0" 
d="M-431 -134l116 97l30 -34l-55 -41h180l-55 41l30 34l116 -97l-116 -97l-30 34l55 41h-180l55 -41l-30 -34z" />
    <glyph glyph-name="uni034E" unicode="&#x34e;" horiz-adv-x="0" 
d="M-342 -120l92 96l92 -96l-34 -28l-35 38v-104h-46v104l-35 -38z" />
    <glyph glyph-name="uni031B" unicode="&#x31b;" horiz-adv-x="0" 
d="M-69 585q16 5 29 12q23 14 35 33q4 7 7 15q-10 3 -18 9q-11 11 -11 30.5t11 31t30.5 11.5t31 -11.5t11.5 -30.5v-3q0 -40 -19 -72q-17 -30 -51 -50q-20 -11 -42 -18z" />
    <glyph glyph-name="uni031A" unicode="&#x31a;" horiz-adv-x="0" 
d="M-150 694v50h206v-160h-56v110h-150z" />
    <glyph glyph-name="uni0358" unicode="&#x358;" horiz-adv-x="0" 
d="M-50 685q0 23 13.5 36.5t36.5 13.5t36.5 -13.5t13.5 -36.5t-13.5 -36.5t-36.5 -13.5t-36.5 13.5t-13.5 36.5z" />
    <glyph glyph-name="uni0315" unicode="&#x315;" horiz-adv-x="0" 
d="M-100 364q30 41 38 97q-14 2 -23 11q-11 11 -11 30.5t11 31t31 11.5t31 -11t11 -31q0 -99 -50 -165z" />
    <glyph glyph-name="uni0322" unicode="&#x322;" horiz-adv-x="0" 
d="M-62 0v8h62v-8q0 -50 15 -76q13 -22 34 -34q29 -17 90 -17v-56q-88 0 -130 24q-31 18 -50 50q-21 37 -21 109z" />
    <glyph glyph-name="uni0321" unicode="&#x321;" horiz-adv-x="0" 
d="M-201 -127q61 0 90 17q22 13 34 34q15 26 15 76v8h62v-8q0 -72 -21 -109q-18 -31 -50 -50q-42 -24 -130 -24v56z" />
    <glyph glyph-name="uni0334" unicode="&#x334;" horiz-adv-x="0" 
d="M-426 207q21 55 40 88q23 40 47 54q15 8 30 8t30 -8q22 -13 54 -66q20 -33 29 -43q2 -2 5 -4q12 7 27 35q18 31 38 83l52 -18q-21 -55 -40 -88q-23 -40 -47 -54q-15 -8 -30 -9q-15 0 -30 9q-22 13 -54 66q-20 33 -29 42q-2 2 -5 4q-12 -7 -27 -34q-18 -31 -38 -83z" />
    <glyph glyph-name="uni0335" unicode="&#x335;" horiz-adv-x="0" 
d="M-381 237v56h262v-56h-262z" />
    <glyph glyph-name="uni0336" unicode="&#x336;" horiz-adv-x="0" 
d="M-465 237v56h430v-56h-430z" />
    <glyph glyph-name="uniE090" unicode="&#xe090;" horiz-adv-x="0" 
d="M-404 220l280 140l28 -50l-280 -140z" />
    <glyph glyph-name="uni0337" unicode="&#x337;" horiz-adv-x="0" 
d="M-406 -45l269 636l43 -16l-269 -636z" />
    <glyph glyph-name="uni0338" unicode="&#x338;" horiz-adv-x="0" 
d="M-407 -170l269 882l45 -12l-269 -882z" />
    <glyph glyph-name="uni0361" unicode="&#x361;" horiz-adv-x="0" 
d="M-312 789q61 65 135 109q89 51 177 51t177 -51q75 -43 135 -109l-45 -38q-55 61 -122 100q-73 42 -145 42t-145 -42q-67 -39 -122 -100z" />
    <glyph glyph-name="uni035D" unicode="&#x35d;" horiz-adv-x="0" 
d="M-312 949l45 38q55 -61 122 -100q73 -42 145 -42t145 42q67 39 122 100l45 -38q-61 -65 -135 -109q-89 -51 -177 -51t-177 51q-75 43 -135 109z" />
    <glyph glyph-name="uni035C" unicode="&#x35c;" 
d="M-312 -259l45 38q55 -61 122 -100q73 -42 145 -42t145 42q67 39 122 100l45 -38q-61 -65 -135 -109q-89 -51 -177 -51t-177 51q-75 43 -135 109z" />
    <glyph glyph-name="uni035E" unicode="&#x35e;" horiz-adv-x="0" 
d="M-312 862v56h624v-56h-624z" />
    <glyph glyph-name="uni035F" unicode="&#x35f;" 
d="M-312 -388v56h624v-56h-624z" />
    <glyph glyph-name="uni0313_gravecomb.ccmp" horiz-adv-x="0" 
d="M-256 739l62 25l75 -182l-51 -21zM-371 582q30 41 38 97q-14 2 -23 11q-11 11 -11 30.5t11 31t31 11.5t31 -11t11 -31q0 -99 -50 -165z" />
    <glyph glyph-name="uni1FCD" unicode="&#x1fcd;" 
d="M244 739l62 25l75 -182l-51 -21zM129 582q30 41 38 97q-14 2 -23 11q-11 11 -11 30.5t11 31t31 11.5t31 -11t11 -31q0 -99 -50 -165z" />
    <glyph glyph-name="uni0313_acutecomb.ccmp" horiz-adv-x="0" 
d="M-231 582l75 182l62 -25l-86 -178zM-371 582q30 41 38 97q-14 2 -23 11q-11 11 -11 30.5t11 31t31 11.5t31 -11t11 -31q0 -99 -50 -165z" />
    <glyph glyph-name="uni1FCE" unicode="&#x1fce;" 
d="M269 582l75 182l62 -25l-86 -178zM129 582q30 41 38 97q-14 2 -23 11q-11 11 -11 30.5t11 31t31 11.5t31 -11t11 -31q0 -99 -50 -165z" />
    <glyph glyph-name="uni0314_gravecomb.ccmp" horiz-adv-x="0" 
d="M-256 739l62 25l75 -182l-51 -21zM-367 721q0 20 11 31t31 11t31 -11.5t11 -31t-11 -30.5q-9 -9 -23 -11q8 -56 38 -97l-38 -26q-50 66 -50 165z" />
    <glyph glyph-name="uni1FDD" unicode="&#x1fdd;" 
d="M244 739l62 25l75 -182l-51 -21zM133 721q0 20 11 31t31 11t31 -11.5t11 -31t-11 -30.5q-9 -9 -23 -11q8 -56 38 -97l-38 -26q-50 66 -50 165z" />
    <glyph glyph-name="uni0314_acutecomb.ccmp" horiz-adv-x="0" 
d="M-231 582l75 182l62 -25l-86 -178zM-367 721q0 20 11 31t31 11t31 -11.5t11 -31t-11 -30.5q-9 -9 -23 -11q8 -56 38 -97l-38 -26q-50 66 -50 165z" />
    <glyph glyph-name="uni1FDE" unicode="&#x1fde;" 
d="M269 582l75 182l62 -25l-86 -178zM133 721q0 20 11 31t31 11t31 -11.5t11 -31t-11 -30.5q-9 -9 -23 -11q8 -56 38 -97l-38 -26q-50 66 -50 165z" />
    <glyph glyph-name="uni0313_uni0342.ccmp" horiz-adv-x="0" 
d="M-361 721q0 33 14 56q13 22 34 34q26 15 63 15t63 -15q22 -13 34 -34q14 -23 14 -56h-53q0 26 -16 41.5t-42 15.5t-42 -16q-16 -15 -16 -41h-53zM-296 582q30 41 38 97q-14 2 -23 11q-11 11 -11 30.5t11 31t31 11.5t31 -11t11 -31q0 -99 -50 -165z" />
    <glyph glyph-name="uni1FCF" unicode="&#x1fcf;" 
d="M139 721q0 33 14 56q13 22 34 34q26 15 63 15t63 -15q22 -13 34 -34q14 -23 14 -56h-53q0 26 -16 41.5t-42 15.5t-42 -16q-16 -15 -16 -41h-53zM204 582q30 41 38 97q-14 2 -23 11q-11 11 -11 30.5t11 31t31 11.5t31 -11t11 -31q0 -99 -50 -165z" />
    <glyph glyph-name="uni0314_uni0342.ccmp" horiz-adv-x="0" 
d="M-361 721q0 33 14 56q13 22 34 34q26 15 63 15t63 -15q22 -13 34 -34q14 -23 14 -56h-53q0 26 -16 41.5t-42 15.5t-42 -16q-16 -15 -16 -41h-53zM-292 721q0 20 11 31t31 11t31 -11.5t11 -31t-11 -30.5q-9 -9 -23 -11q8 -56 38 -97l-38 -26q-50 66 -50 165z" />
    <glyph glyph-name="uni1FDF" unicode="&#x1fdf;" 
d="M139 721q0 33 14 56q13 22 34 34q26 15 63 15t63 -15q22 -13 34 -34q14 -23 14 -56h-53q0 26 -16 41.5t-42 15.5t-42 -16q-16 -15 -16 -41h-53zM208 721q0 20 11 31t31 11t31 -11.5t11 -31t-11 -30.5q-9 -9 -23 -11q8 -56 38 -97l-38 -26q-50 66 -50 165z" />
    <glyph glyph-name="glyph116" 
d="M219 0v735h62v-735h-62z" />
    <glyph glyph-name="glyph117" 
d="M110 0v56h109v623h-109v56h280v-56h-109v-623h109v-56h-280z" />
    <glyph glyph-name="I" unicode="I" 
d="M110 0v56h109v623h-109v56h280v-56h-109v-623h109v-56h-280z" />
    <glyph glyph-name="Iota" unicode="&#x399;" 
d="M110 0v56h109v623h-109v56h280v-56h-109v-623h109v-56h-280z" />
    <glyph glyph-name="afii10055" unicode="&#x406;" 
d="M110 0v56h109v623h-109v56h280v-56h-109v-623h109v-56h-280z" />
    <glyph glyph-name="uni04C0" unicode="&#x4c0;" 
d="M110 0v56h109v623h-109v56h280v-56h-109v-623h109v-56h-280z" />
    <glyph glyph-name="uni026A" unicode="&#x26a;" 
d="M110 0v56h109v418h-109v56h280v-56h-109v-418h109v-56h-280z" />
    <glyph glyph-name="glyph123" 
d="M219 0v530h62v-530h-62z" />
    <glyph glyph-name="dotlessi.ss01" 
d="M82 474v56h206v-530h-62v474h-144z" />
    <glyph glyph-name="dotlessi.ss02" 
d="M75 474v56h206v-474h144v-56h-206v474h-144z" />
    <glyph glyph-name="dotlessi.cv03" 
d="M75 0v56h151v418h-137v56h199v-474h137v-56h-350z" />
    <glyph glyph-name="dotlessi.ss03" 
d="M51 474v56h206v-354q0 -58 20 -92q11 -19 27 -29q13 -7 29.5 -7t29.5 8q16 9 28 28q16 28 19 70l61 -14q-5 -47 -26 -83q-19 -33 -48 -49q-27 -16 -63 -16t-64 16q-29 17 -48 49q-27 47 -27 119v298h-144z" />
    <glyph glyph-name="dotlessi" unicode="&#x131;" 
d="M75 0v56h151v418h-137v56h199v-474h137v-56h-350z" />
    <glyph glyph-name="glyph129" 
d="M75 0v56h151v418h-137v56h199v-474h137v-56h-350zM132 -76.5q0 24.5 12 45.5q14 24 40 39q30 17 66 17v-33q-25 0 -41 -17q-15 -15 -15 -34q0 -20 14 -34q19 -19 67 -19h60v-62h-60q-64 0 -96 18q-23 13 -35 35q-12 20 -12 44.5z" />
    <glyph glyph-name="i" unicode="i" 
d="M75 0v56h151v418h-137v56h199v-474h137v-56h-350zM200 685q0 23 13.5 36.5t36.5 13.5t36.5 -13.5t13.5 -36.5t-13.5 -36.5t-36.5 -13.5t-36.5 13.5t-13.5 36.5z" />
    <glyph glyph-name="i.cv03" 
d="M75 0v56h151v418h-137v56h199v-474h137v-56h-350zM200 685q0 23 13.5 36.5t36.5 13.5t36.5 -13.5t13.5 -36.5t-13.5 -36.5t-36.5 -13.5t-36.5 13.5t-13.5 36.5z" />
    <glyph glyph-name="i.ss03" 
d="M51 474v56h206v-354q0 -58 20 -92q11 -19 27 -29q13 -7 29.5 -7t29.5 8q16 9 28 28q16 28 19 70l61 -14q-5 -47 -26 -83q-19 -33 -48 -49q-27 -16 -63 -16t-64 16q-29 17 -48 49q-27 47 -27 119v298h-144zM176 685q0 23 13.5 36.5t36.5 13.5t36.5 -13.5t13.5 -36.5
t-13.5 -36.5t-36.5 -13.5t-36.5 13.5t-13.5 36.5z" />
    <glyph glyph-name="i.ss01" 
d="M82 474v56h206v-530h-62v474h-144zM200 685q0 23 13.5 36.5t36.5 13.5t36.5 -13.5t13.5 -36.5t-13.5 -36.5t-36.5 -13.5t-36.5 13.5t-13.5 36.5z" />
    <glyph glyph-name="i.ss02" 
d="M75 474v56h206v-474h144v-56h-206v474h-144zM200 685q0 23 13.5 36.5t36.5 13.5t36.5 -13.5t13.5 -36.5t-13.5 -36.5t-36.5 -13.5t-36.5 13.5t-13.5 36.5z" />
    <glyph glyph-name="afii10103" unicode="&#x456;" 
d="M75 0v56h151v418h-137v56h199v-474h137v-56h-350zM200 685q0 23 13.5 36.5t36.5 13.5t36.5 -13.5t13.5 -36.5t-13.5 -36.5t-36.5 -13.5t-36.5 13.5t-13.5 36.5z" />
    <glyph glyph-name="uni1D09" unicode="&#x1d09;" 
d="M75 474v56h350v-56h-151v-418h137v-56h-199v474h-137zM200 -155q0 23 13.5 36.5t36.5 13.5t36.5 -13.5t13.5 -36.5t-13.5 -36.5t-36.5 -13.5t-36.5 13.5t-13.5 36.5z" />
    <glyph glyph-name="iota" unicode="&#x3b9;" 
d="M75 474v56h206v-375q0 -32 13 -56q11 -20 31 -30q22 -13 52 -13h57v-56h-57q-51 0 -88 21q-32 18 -50 50q-20 35 -20 84v319h-144z" />
    <glyph glyph-name="uni0269" unicode="&#x269;" 
d="M75 474v56h206v-375q0 -32 13 -56q11 -20 31 -30q22 -13 52 -13h57v-56h-57q-51 0 -88 21q-32 18 -50 50q-20 35 -20 84v319h-144z" />
    <glyph glyph-name="uni0196" unicode="&#x196;" 
d="M75 679v56h206v-580q0 -32 13 -56q11 -20 31 -30q22 -13 52 -13h57v-56h-57q-51 0 -88 21q-32 18 -50 50q-20 35 -20 84v524h-144z" />
    <glyph glyph-name="glyph140" 
d="M48 155l61 12q4 -35 19 -63q16 -27 41 -42q25 -14 58 -14t57 14q25 14 41 42q21 37 21 91v540h63v-540q0 -70 -29 -119q-23 -39 -60 -61q-39 -23 -93 -23t-93 23q-38 22 -60 61q-21 36 -26 79z" />
    <glyph glyph-name="glyph141" 
d="M178 -8v56q75 0 111 20q26 15 40 41q17 30 17 88v538h63v-538q0 -80 -24 -121q-20 -35 -56 -56q-48 -28 -151 -28z" />
    <glyph glyph-name="glyph142" 
d="M48 155l61 12q4 -35 19 -63q16 -27 41 -42q25 -14 58 -14t57 14q25 14 41 42q21 37 21 91v484h-144v56h207v-540q0 -70 -29 -119q-23 -39 -60 -61q-39 -23 -93 -23t-93 23q-38 22 -60 61q-21 36 -26 79z" />
    <glyph glyph-name="J" unicode="J" 
d="M48 155l61 12q4 -35 19 -63q16 -27 41 -42q25 -14 58 -14t57 14q25 14 41 42q21 37 21 91v484h-144v56h207v-540q0 -70 -29 -119q-23 -39 -60 -61q-39 -23 -93 -23t-93 23q-38 22 -60 61q-21 36 -26 79z" />
    <glyph glyph-name="afii10057" unicode="&#x408;" 
d="M48 155l61 12q4 -35 19 -63q16 -27 41 -42q25 -14 58 -14t57 14q25 14 41 42q21 37 21 91v484h-144v56h207v-540q0 -70 -29 -119q-23 -39 -60 -61q-39 -23 -93 -23t-93 23q-38 22 -60 61q-21 36 -26 79z" />
    <glyph glyph-name="glyph145" 
d="M22 -70l58 19q5 -32 20 -57t36 -38q19 -11 44 -11t44 11q21 12 36 37q22 38 22 99v540h62v-540q0 -76 -29 -126q-22 -37 -56 -58q-33 -19 -78 -19t-79 19q-34 20 -56 58q-17 30 -24 66z" />
    <glyph glyph-name="glyph146" 
d="M22 -70l58 19q5 -32 20 -57t36 -38q19 -11 44 -11t44 11q21 12 36 37q22 38 22 99v484h-144v56h206v-540q0 -76 -29 -126q-22 -37 -56 -58q-33 -19 -78 -19t-79 19q-34 20 -56 58q-17 30 -24 66z" />
    <glyph glyph-name="uni0237" unicode="&#x237;" 
d="M22 -70l58 19q5 -32 20 -57t36 -38q19 -11 44 -11t44 11q21 12 36 37q22 38 22 99v484h-144v56h206v-540q0 -76 -29 -126q-22 -37 -56 -58q-33 -19 -78 -19t-79 19q-34 20 -56 58q-17 30 -24 66z" />
    <glyph glyph-name="j" unicode="j" 
d="M22 -70l58 19q5 -32 20 -57t36 -38q19 -11 44 -11t44 11q21 12 36 37q22 38 22 99v484h-144v56h206v-540q0 -76 -29 -126q-22 -37 -56 -58q-33 -19 -78 -19t-79 19q-34 20 -56 58q-17 30 -24 66zM253 685q0 23 13.5 36.5t36.5 13.5t36.5 -13.5t13.5 -36.5t-13.5 -36.5
t-36.5 -13.5t-36.5 13.5t-13.5 36.5z" />
    <glyph glyph-name="afii10105" unicode="&#x458;" 
d="M22 -70l58 19q5 -32 20 -57t36 -38q19 -11 44 -11t44 11q21 12 36 37q22 38 22 99v484h-144v56h206v-540q0 -76 -29 -126q-22 -37 -56 -58q-33 -19 -78 -19t-79 19q-34 20 -56 58q-17 30 -24 66zM253 685q0 23 13.5 36.5t36.5 13.5t36.5 -13.5t13.5 -36.5t-13.5 -36.5
t-36.5 -13.5t-36.5 13.5t-13.5 36.5z" />
    <glyph glyph-name="uni029D" unicode="&#x29d;" 
d="M101 -90q0 40 17 70q14 24 38 38q28 16 64 16q32 0 62 -12v452h-144v56h206v-549q39 -35 71 -90q24 -42 38 -89l-60 -15q-11 41 -33 78q-10 17 -21 33q-6 -33 -17 -54q-16 -28 -42 -42.5t-58 -14.5q-56 0 -88 33q-33 32 -33 90zM163 -89.5q0 -33.5 18 -50.5
q17 -17 41 -17q23 0 39 16q21 21 21 78v19q-6 4 -13 8q-24 14 -46 14q-26 0 -42 -16q-18 -18 -18 -51.5zM263 685q0 23 13.5 36.5t36.5 13.5t36.5 -13.5t13.5 -36.5t-13.5 -36.5t-36.5 -13.5t-36.5 13.5t-13.5 36.5z" />
    <glyph glyph-name="L" unicode="L" 
d="M52 0v56h54v623h-54v56h170v-56h-54v-623h215v89h63v-145h-394z" />
    <glyph glyph-name="uniA780" unicode="&#xa780;" 
d="M54 590v145h394v-56h-54v-623h54v-56h-170v56h54v623h-215v-89h-63z" />
    <glyph glyph-name="Lcaron" unicode="&#x13d;" 
d="M52 0v56h54v623h-54v56h170v-56h-54v-623h215v89h63v-145h-394zM339 582q30 41 38 97q-14 2 -23 11q-11 11 -11 30.5t11 31t31 11.5t31 -11t11 -31q0 -99 -50 -165z" />
    <glyph glyph-name="Lslash" unicode="&#x141;" 
d="M52 0v56h54v623h-54v56h170v-56h-54v-623h215v89h63v-145h-394zM21 350l280 140l28 -50l-280 -140z" />
    <glyph glyph-name="Ldot" unicode="&#x13f;" 
d="M52 0v56h54v623h-54v56h170v-56h-54v-623h215v89h63v-145h-394zM254 395q0 23 13.5 36.5t36.5 13.5t36.5 -13.5t13.5 -36.5t-13.5 -36.5t-36.5 -13.5t-36.5 13.5t-13.5 36.5z" />
    <glyph glyph-name="uni023D" unicode="&#x23d;" 
d="M21 354v56h85v269h-54v56h170v-56h-54v-269h94v-56h-94v-298h215v89h63v-145h-394v56h54v298h-85z" />
    <glyph glyph-name="uni029F" unicode="&#x29f;" 
d="M52 0v56h54v418h-54v56h170v-56h-54v-418h215v89h63v-145h-394z" />
    <glyph glyph-name="glyph158" 
d="M219 0v735h62v-735h-62z" />
    <glyph glyph-name="l.ss01" 
d="M82 679v56h206v-735h-62v679h-144z" />
    <glyph glyph-name="l.ss02" 
d="M75 679v56h206v-679h144v-56h-206v679h-144z" />
    <glyph glyph-name="l.cv07" 
d="M75 0v56h151v623h-137v56h199v-679h137v-56h-350z" />
    <glyph glyph-name="l.ss03" 
d="M70 679v56h170v-548q0 -62 22 -99q12 -21 30 -32q15 -8 33.5 -8t32.5 8q18 10 30 32q18 32 22 79l61 -12q-4 -53 -28 -94q-20 -35 -51 -52q-29 -17 -67 -17t-67 17q-31 18 -51 52q-29 50 -29 126v492h-108z" />
    <glyph glyph-name="l" unicode="l" 
d="M75 0v56h151v623h-137v56h199v-679h137v-56h-350z" />
    <glyph glyph-name="uni04CF" unicode="&#x4cf;" 
d="M75 0v56h151v623h-137v56h199v-679h137v-56h-350z" />
    <glyph glyph-name="uniA781" unicode="&#xa781;" 
d="M75 474v56h350v-56h-151v-623h137v-56h-199v679h-137z" />
    <glyph glyph-name="ldot" unicode="&#x140;" 
d="M50 0v56h151v623h-137v56h199v-679h137v-56h-350zM330 395q0 23 13.5 36.5t36.5 13.5t36.5 -13.5t13.5 -36.5t-13.5 -36.5t-36.5 -13.5t-36.5 13.5t-13.5 36.5z" />
    <glyph glyph-name="uni026D" unicode="&#x26d;" 
d="M82 679v56h206v-735q0 -50 15 -76q13 -22 34 -34q29 -17 90 -17v-56q-88 0 -130 24q-31 18 -50 50q-21 37 -21 109v679h-144z" />
    <glyph glyph-name="uni0234" unicode="&#x234;" 
d="M63 -41q16 55 45 106q49 83 111 129v485h-144v56h206v-507q30 11 61 11q38 0 66 -17q23 -13 37 -36q17 -30 17 -70t-17 -70q-13 -23 -36 -36q-30 -18 -68 -18q-32 0 -58 15t-42 42q-14 25 -19 70q-31 -33 -59 -80q-26 -45 -40 -95zM281 142q0 -57 21 -78q16 -16 39 -16
q25 0 41 17q18 19 18 51q0 24 -9 40q-7 12 -19 19q-14 8 -34 8q-27 0 -57 -17v-24z" />
    <glyph glyph-name="uni026B" unicode="&#x26b;" 
d="M75 0v56h151v623h-137v56h199v-679h137v-56h-350zM74 328q21 55 40 88q23 40 47 54q15 8 30 8t30 -8q22 -13 54 -66q20 -33 29 -43q2 -2 5 -4q12 7 27 35q18 31 38 83l52 -18q-21 -55 -40 -88q-23 -40 -47 -54q-15 -8 -30 -9q-15 0 -30 9q-22 13 -54 66q-20 33 -29 42
q-2 2 -5 4q-12 -7 -27 -34q-18 -31 -38 -83z" />
    <glyph glyph-name="uni026C" unicode="&#x26c;" 
d="M75 0v56h151v230h-44q-30 0 -50 12q-17 10 -27 27q-10 18 -10.5 42.5t10.5 42.5q10 17 27 27q21 12 50 12h44v230h-137v56h199v-394h85v-55h-85v-230h137v-56h-350zM156 367.5q0 -12.5 7 -19.5t19 -7h44v53h-44q-12 0 -19 -7t-7 -19.5z" />
    <glyph glyph-name="uniA78E" unicode="&#xa78e;" 
d="M82 679v56h206v-394h85v-55h-85v-286q0 -50 15 -76q13 -22 34 -34q29 -17 90 -17v-56q-88 0 -130 24q-31 18 -50 50q-21 37 -21 109v286h-44q-30 0 -50 12q-17 10 -27 27q-10 18 -10.5 42.5t10.5 42.5q10 17 27 27q21 12 50 12h44v230h-144zM156 367.5q0 -12.5 7 -19.5
t19 -7h44v53h-44q-12 0 -19 -7t-7 -19.5z" />
    <glyph glyph-name="uni01AA" unicode="&#x1aa;" 
d="M107 651q0 26 11 45q10 17 27 27q20 12 49 12t49 -12q38 -22 38 -72v-651q0 -38 16 -66q15 -26 43 -42q33 -19 80 -19v-56q-69 0 -117 28q-39 23 -61 60q-23 40 -23 95v570q-12 -3 -25 -3q-29 0 -49 12q-17 10 -27 27q-11 19 -11 45zM169 650.5q0 -13.5 8 -20.5
q7 -7 17.5 -7t16.5 7q8 7 8 21t-8 21q-7 7 -17.5 7t-16.5 -7q-8 -8 -8 -21.5z" />
    <glyph glyph-name="V" unicode="V" 
d="M17 679v56h170v-56h-54v-17q0 -92 117 -580q117 488 117 580v17h-54v56h170v-56h-53v-17q0 -100 -143 -662h-74q-142 562 -143 662v17h-53z" />
    <glyph glyph-name="v" unicode="v" 
d="M17 474v56h170v-56h-54q3 -70 117 -411q115 341 117 411h-54v56h170v-56h-53q-3 -77 -143 -474h-74q-139 397 -143 474h-53z" />
    <glyph glyph-name="uni2C71" unicode="&#x2c71;" 
d="M17 474v56h170v-56h-54q3 -71 119 -418q34 91 59 297q9 75 29 109q18 31 47 48q34 20 99 20v-56q-40 0 -61 -12q-19 -11 -31 -32q-13 -23 -21 -79q-35 -264 -86 -351h-74q-139 397 -143 474h-53z" />
    <glyph glyph-name="afii10196" unicode="&#x475;" 
d="M17 474v56h170v-56h-54q3 -71 119 -418q34 91 59 297q9 75 29 109q18 31 47 48q34 20 99 20v-56q-40 0 -61 -12q-19 -11 -31 -32q-13 -23 -21 -79q-35 -264 -86 -351h-74q-139 397 -143 474h-53z" />
    <glyph glyph-name="afii10148" unicode="&#x474;" 
d="M17 679v56h170v-56h-54v-17q0 -92 118 -585q35 149 59 472q6 81 28 118q18 31 48 48q35 20 100 20v-56q-41 0 -62 -12q-20 -11 -32 -32q-15 -26 -20 -91q-34 -406 -85 -544h-74q-142 562 -143 662v17h-53z" />
    <glyph glyph-name="uni028C" unicode="&#x28c;" 
d="M17 0v56h53q3 77 143 474h74q139 -397 143 -474h53v-56h-170v56h54q-3 70 -117 411q-115 -341 -117 -411h54v-56h-170z" />
    <glyph glyph-name="nu" unicode="&#x3bd;" 
d="M40 512l55 26q128 -248 163 -421q109 243 109 360v53h63v-53q0 -145 -159 -477h-62q0 184 -169 512z" />
    <glyph glyph-name="A" unicode="A" 
d="M17 0v56h53v18q0 100 143 661h74q142 -561 143 -661v-18h53v-56h-170v56h54v18q0 36 -18 135h-198q-19 -99 -18 -135v-18h54v-56h-170zM162 265h176q-29 145 -88 388q-59 -243 -88 -388z" />
    <glyph glyph-name="Alpha" unicode="&#x391;" 
d="M17 0v56h53v18q0 100 143 661h74q142 -561 143 -661v-18h53v-56h-170v56h54v18q0 36 -18 135h-198q-19 -99 -18 -135v-18h54v-56h-170zM162 265h176q-29 145 -88 388q-59 -243 -88 -388z" />
    <glyph glyph-name="afii10017" unicode="&#x410;" 
d="M17 0v56h53v18q0 100 143 661h74q142 -561 143 -661v-18h53v-56h-170v56h54v18q0 36 -18 135h-198q-19 -99 -18 -135v-18h54v-56h-170zM162 265h176q-29 145 -88 388q-59 -243 -88 -388z" />
    <glyph glyph-name="uni2C6F" unicode="&#x2c6f;" 
d="M17 679v56h170v-56h-54v-17q0 -36 18 -136h198q19 100 18 136v17h-54v56h170v-56h-53v-17q0 -100 -143 -662h-74q-142 562 -143 662v17h-53zM162 470q29 -145 88 -388q59 243 88 388h-176z" />
    <glyph glyph-name="a.cv01" 
d="M54 145q0 44 19 76q20 34 58 57q54 31 137 31h99v52q0 39 -16 67q-14 24 -38 38q-27 16 -66 16q-41 0 -70 -17q-23 -13 -36 -36q-11 -20 -13 -42l-60 13q3 31 19 58q20 35 54 55q43 25 106 25q60 0 102 -24q36 -21 57 -57q23 -40 24 -96v-305h53v-56h-116v79
q-23 -40 -63 -63q-42 -24 -97 -24q-49 0 -83 20q-31 18 -49 49q-21 36 -21 84zM117 145q0 -57 45 -83q25 -14 62 -14q44 0 76 19q30 17 47 47q20 35 20 84v55h-99q-62 0 -101 -23q-26 -15 -39 -37q-12 -20 -11 -48z" />
    <glyph glyph-name="a.cv02" 
d="M54 220v90q0 87 34 144q24 42 61 63q36 21 82 21q42 0 73 -18q34 -20 57 -59l6 -12v81h63v-474h53v-56h-116v81l-6 -12q-23 -39 -57 -59q-31 -18 -73 -18q-46 0 -82 21q-38 22 -61 63q-33 57 -34 144zM117 220q0 -66 25 -109q18 -31 46 -48q27 -15 61 -15q30 0 51 12
q25 14 41 44q26 45 26 116v90q0 71 -26 116q-17 29 -41 44q-22 12 -51 12q-34 0 -61 -15q-28 -16 -46 -48q-25 -43 -25 -109v-90z" />
    <glyph glyph-name="a" unicode="a" 
d="M54 145q0 44 19 76q20 34 58 57q54 31 137 31h99v52q0 39 -16 67q-14 24 -38 38q-27 16 -66 16q-41 0 -70 -17q-23 -13 -36 -36q-11 -20 -13 -42l-60 13q3 31 19 58q20 35 54 55q43 25 106 25q60 0 102 -24q36 -21 57 -57q23 -40 24 -96v-305h53v-56h-116v79
q-23 -40 -63 -63q-42 -24 -97 -24q-49 0 -83 20q-31 18 -49 49q-21 36 -21 84zM117 145q0 -57 45 -83q25 -14 62 -14q44 0 76 19q30 17 47 47q20 35 20 84v55h-99q-62 0 -101 -23q-26 -15 -39 -37q-12 -20 -11 -48z" />
    <glyph glyph-name="afii10065" unicode="&#x430;" 
d="M54 145q0 44 19 76q20 34 58 57q54 31 137 31h99v52q0 39 -16 67q-14 24 -38 38q-27 16 -66 16q-41 0 -70 -17q-23 -13 -36 -36q-11 -20 -13 -42l-60 13q3 31 19 58q20 35 54 55q43 25 106 25q60 0 102 -24q36 -21 57 -57q23 -40 24 -96v-305h53v-56h-116v79
q-23 -40 -63 -63q-42 -24 -97 -24q-49 0 -83 20q-31 18 -49 49q-21 36 -21 84zM117 145q0 -57 45 -83q25 -14 62 -14q44 0 76 19q30 17 47 47q20 35 20 84v55h-99q-62 0 -101 -23q-26 -15 -39 -37q-12 -20 -11 -48z" />
    <glyph glyph-name="uni2C6D" unicode="&#x2c6d;" 
d="M54 220v295q0 87 34 144q24 42 61 63q36 21 82 21q42 0 73 -18q34 -20 57 -59l6 -12v53l63 36v-743h-63v81l-6 -12q-23 -39 -57 -59q-31 -18 -73 -18q-46 0 -82 21q-38 22 -61 63q-33 57 -34 144zM117 220q0 -66 25 -109q18 -31 46 -48q27 -15 61 -15q30 0 51 12
q25 14 41 44q26 45 26 116v295q0 71 -26 116q-17 29 -41 44q-22 12 -51 12q-34 0 -61 -15q-28 -16 -46 -48q-25 -43 -25 -109v-295z" />
    <glyph glyph-name="uni2C70" unicode="&#x2c70;" 
d="M70 -8v743h63v-81l6 12q23 39 57 59q31 18 73 18q46 0 82 -21q38 -22 61 -63q33 -57 34 -144v-295q0 -87 -34 -144q-24 -42 -61 -63q-36 -21 -82 -21q-42 0 -73 18q-34 20 -57 59l-6 12v-53zM133 220q0 -71 26 -116q17 -29 41 -44q22 -12 51 -12q34 0 61 15q28 16 46 48
q25 43 25 109v295q0 66 -25 109q-18 31 -46 48q-27 15 -61 15q-30 0 -51 -12q-25 -14 -41 -44q-26 -45 -26 -116v-295z" />
    <glyph glyph-name="uni0251" unicode="&#x251;" 
d="M54 220v90q0 87 34 144q24 42 61 63q36 21 82 21q42 0 73 -18q34 -20 57 -59l6 -12v53l63 36v-482h53v-56h-116v81l-6 -12q-23 -39 -57 -59q-31 -18 -73 -18q-46 0 -82 21q-38 22 -61 63q-33 57 -34 144zM117 220q0 -66 25 -109q18 -31 46 -48q27 -15 61 -15q30 0 51 12
q25 14 41 44q26 45 26 116v90q0 71 -26 116q-17 29 -41 44q-22 12 -51 12q-34 0 -61 -15q-28 -16 -46 -48q-25 -43 -25 -109v-90z" />
    <glyph glyph-name="uni0250" unicode="&#x250;" 
d="M17 474v56h116v-79q23 40 63 63q42 24 97 24q49 0 83 -20q31 -18 49 -49q21 -36 21 -84q0 -44 -19 -76q-20 -34 -58 -57q-54 -31 -137 -31h-99v-52q0 -39 16 -67q14 -24 38 -38q27 -16 66 -16q41 0 70 17q23 13 36 36q11 20 13 42l60 -13q-3 -31 -19 -58q-20 -35 -54 -55
q-43 -25 -106 -25q-60 0 -102 24q-36 21 -57 57q-23 40 -24 96v305h-53zM133 277h99q62 0 101 23q26 15 39 37q12 20 11 48q0 57 -45 83q-25 14 -62 14q-44 0 -76 -19q-30 -17 -47 -47q-20 -35 -20 -84v-55z" />
    <glyph glyph-name="uni0252" unicode="&#x252;" 
d="M17 474v56h116v-81l6 12q23 39 57 59q31 18 73 18q46 0 82 -21q38 -22 61 -63q33 -57 34 -144v-90q0 -87 -34 -144q-24 -42 -61 -63q-36 -21 -82 -21q-42 0 -73 18q-34 20 -57 59l-6 12v-53l-63 -36v482h-53zM133 220q0 -71 26 -116q17 -29 41 -44q22 -12 51 -12
q34 0 61 15q28 16 46 48q25 43 25 109v90q0 66 -25 109q-18 31 -46 48q-27 15 -61 15q-30 0 -51 -12q-25 -14 -41 -44q-26 -45 -26 -116v-90z" />
    <glyph glyph-name="W" unicode="W" 
d="M17 679v56h170v-56h-54v-128q0 -139 30 -429l64 319h46l64 -319q30 290 30 429v128h-54v56h170v-56h-53v-128q0 -167 -69 -551h-47l-64 324l-64 -324h-47q-69 384 -69 551v128h-53z" />
    <glyph glyph-name="uni051C" unicode="&#x51c;" 
d="M17 679v56h170v-56h-54v-128q0 -139 30 -429l64 319h46l64 -319q30 290 30 429v128h-54v56h170v-56h-53v-128q0 -167 -69 -551h-47l-64 324l-64 -324h-47q-69 384 -69 551v128h-53z" />
    <glyph glyph-name="w" unicode="w" 
d="M17 474v56h170v-56h-54v-76q0 -100 30 -309l64 229h46l64 -229q30 209 30 309v76h-54v56h170v-56h-53v-76q0 -121 -69 -398h-47l-64 234l-64 -234h-47q-69 278 -69 398v76h-53z" />
    <glyph glyph-name="uni051D" unicode="&#x51d;" 
d="M17 474v56h170v-56h-54v-76q0 -100 30 -309l64 229h46l64 -229q30 209 30 309v76h-54v56h170v-56h-53v-76q0 -121 -69 -398h-47l-64 234l-64 -234h-47q-69 278 -69 398v76h-53z" />
    <glyph glyph-name="uni028D" unicode="&#x28d;" 
d="M17 0v56h53v76q0 121 69 398h47l64 -234l64 234h47q69 -278 69 -398v-76h53v-56h-170v56h54v76q0 100 -30 309l-64 -229h-46l-64 229q-30 -209 -30 -309v-76h54v-56h-170z" />
    <glyph glyph-name="uni2C72" unicode="&#x2c72;" 
d="M17 679v56h170v-56h-54v-128q0 -139 30 -429l64 319h46l64 -317q31 309 30 456q0 53 22 90q38 65 120 65v-56q-22 0 -38.5 -9.5t-26.5 -27.5q-14 -25 -14 -62q0 -176 -69 -580h-47l-64 324l-64 -324h-47q-69 384 -69 551v128h-53z" />
    <glyph glyph-name="uni2C73" unicode="&#x2c73;" 
d="M17 474v56h170v-56h-54v-76q0 -100 30 -309l64 229h46l65 -230q30 194 29 287q0 53 22 90q38 65 120 65v-56q-22 0 -38.5 -9.5t-26.5 -27.5q-14 -25 -14 -62q0 -114 -69 -375h-47l-64 234l-64 -234h-47q-69 278 -69 398v76h-53z" />
    <glyph glyph-name="uni02AC" unicode="&#x2ac;" 
d="M17 312v56h122q-69 192 -69 275v36h-53v56h170v-56h-54v-36q0 -68 30 -211l64 156h46l64 -156q30 143 30 211v36h-54v56h170v-56h-53v-36q0 -83 -69 -275h122v-56h-53v-36q0 -84 -69 -276h-47l-64 162l-64 -162h-47q-69 192 -69 276v36h-53zM133 276q0 -68 30 -212
l64 156h46l64 -156q30 143 30 212v36h-54v56h1l-64 162l-64 -162h1v-56h-54v-36z" />
    <glyph glyph-name="X" unicode="X" 
d="M17 0v56h54q6 91 64 183l79 129l-79 128q-58 93 -64 183h-54v56h170v-56h-54q5 -76 54 -154l63 -100l63 100q49 78 54 154h-54v56h170v-56h-54q-6 -91 -64 -183l-79 -128l79 -129q58 -93 64 -183h54v-56h-170v56h54q-5 76 -54 154l-63 100l-63 -100q-49 -78 -54 -154h54
v-56h-170z" />
    <glyph glyph-name="Chi" unicode="&#x3a7;" 
d="M17 0v56h54q6 91 64 183l79 129l-79 128q-58 93 -64 183h-54v56h170v-56h-54q5 -76 54 -154l63 -100l63 100q49 78 54 154h-54v56h170v-56h-54q-6 -91 -64 -183l-79 -128l79 -129q58 -93 64 -183h54v-56h-170v56h54q-5 76 -54 154l-63 100l-63 -100q-49 -78 -54 -154h54
v-56h-170z" />
    <glyph glyph-name="afii10039" unicode="&#x425;" 
d="M17 0v56h54q6 91 64 183l79 129l-79 128q-58 93 -64 183h-54v56h170v-56h-54q5 -76 54 -154l63 -100l63 100q49 78 54 154h-54v56h170v-56h-54q-6 -91 -64 -183l-79 -128l79 -129q58 -93 64 -183h54v-56h-170v56h54q-5 76 -54 154l-63 100l-63 -100q-49 -78 -54 -154h54
v-56h-170z" />
    <glyph glyph-name="x" unicode="x" 
d="M17 0v56h67q9 22 26 49q14 25 25 41l79 119l-79 119q-11 17 -25 41q-16 28 -26 49h-67v56h170v-56h-36q13 -25 36 -59l63 -96l63 96q23 34 36 59h-36v56h170v-56h-67q-9 -22 -26 -49q-14 -25 -25 -41l-79 -119l79 -119q11 -17 25 -41q16 -28 26 -49h67v-56h-170v56h36
q-13 25 -36 59l-63 96l-63 -96q-23 -34 -36 -59h36v-56h-170z" />
    <glyph glyph-name="afii10087" unicode="&#x445;" 
d="M17 0v56h67q9 22 26 49q14 25 25 41l79 119l-79 119q-11 17 -25 41q-16 28 -26 49h-67v56h170v-56h-36q13 -25 36 -59l63 -96l63 96q23 34 36 59h-36v56h170v-56h-67q-9 -22 -26 -49q-14 -25 -25 -41l-79 -119l79 -119q11 -17 25 -41q16 -28 26 -49h67v-56h-170v56h36
q-13 25 -36 59l-63 96l-63 -96q-23 -34 -36 -59h36v-56h-170z" />
    <glyph glyph-name="chi" unicode="&#x3c7;" 
d="M70 -187q0 44 63 175l83 174l-83 175q-62 131 -63 175v18h63v-18q0 -33 56 -151l61 -128l61 128q56 118 56 151v18h63v-18q0 -44 -63 -175l-83 -175l83 -174q62 -131 63 -175v-18h-63v18q0 33 -56 151l-61 128l-61 -128q-56 -118 -56 -151v-18h-63v18z" />
    <glyph glyph-name="uniAB53" unicode="&#xab53;" 
d="M70 -187q0 44 63 175l83 174l-83 175q-62 131 -63 175v18h63v-18q0 -33 56 -151l61 -128l61 128q56 118 56 151v18h63v-18q0 -44 -63 -175l-83 -175l83 -174q62 -131 63 -175v-18h-63v18q0 33 -56 151l-61 128l-61 -128q-56 -118 -56 -151v-18h-63v18z" />
    <glyph glyph-name="uni04B2" unicode="&#x4b2;" 
d="M17 0v56h54q6 91 64 183l79 129l-79 128q-58 93 -64 183h-54v56h170v-56h-54q5 -76 54 -154l63 -100l63 100q49 78 54 154h-54v56h170v-56h-54q-6 -91 -64 -183l-79 -128l79 -129q58 -93 64 -183h68v-203h-62v147h-122v56h54q-5 76 -54 154l-63 100l-63 -100
q-49 -78 -54 -154h54v-56h-170z" />
    <glyph glyph-name="uni04B3" unicode="&#x4b3;" 
d="M17 0v56h67q9 22 26 49q14 25 25 41l79 119l-79 119q-11 17 -25 41q-16 28 -26 49h-67v56h170v-56h-36q13 -25 36 -59l63 -96l63 96q23 34 36 59h-36v56h170v-56h-67q-9 -22 -26 -49q-14 -25 -25 -41l-79 -119l79 -119q11 -17 25 -41q16 -28 26 -49h81v-203h-62v147h-122
v56h36q-13 25 -36 59l-63 96l-63 -96q-23 -34 -36 -59h36v-56h-170z" />
    <glyph glyph-name="Y" unicode="Y" 
d="M17 679v56h170v-56h-54q3 -99 56 -201l61 -118l61 118q53 101 56 201h-54v56h170v-56h-54q-3 -112 -62 -226l-86 -165v-232h54v-56h-170v56h54v232l-86 165q-60 115 -62 226h-54z" />
    <glyph glyph-name="Upsilon" unicode="&#x3a5;" 
d="M17 679v56h170v-56h-54q3 -99 56 -201l61 -118l61 118q53 101 56 201h-54v56h170v-56h-54q-3 -112 -62 -226l-86 -165v-232h54v-56h-170v56h54v232l-86 165q-60 115 -62 226h-54z" />
    <glyph glyph-name="uni04AE" unicode="&#x4ae;" 
d="M17 679v56h170v-56h-54q3 -99 56 -201l61 -118l61 118q53 101 56 201h-54v56h170v-56h-54q-3 -112 -62 -226l-86 -165v-232h54v-56h-170v56h54v232l-86 165q-60 115 -62 226h-54z" />
    <glyph glyph-name="uni01B3" unicode="&#x1b3;" 
d="M17 679v56h170v-56h-54q3 -99 56 -201l57 -110q30 81 65 219q13 53 28 78q19 33 49 50q34 20 98 20v-56q-40 0 -61 -12q-20 -11 -33 -34q-10 -18 -21 -61q-49 -193 -90 -278v-238h54v-56h-170v56h54v232l-86 165q-60 115 -62 226h-54z" />
    <glyph glyph-name="uni04AF" unicode="&#x4af;" 
d="M17 474v56h170v-56h-54q3 -99 56 -201l61 -118l61 118q53 101 56 201h-54v56h170v-56h-54q-3 -112 -62 -226l-86 -165v-232h54v-56h-170v56h54v232l-86 165q-60 115 -62 226h-54z" />
    <glyph glyph-name="uni028F" unicode="&#x28f;" 
d="M17 474v56h170v-56h-53q7 -60 52 -122l64 -89l64 89q45 62 52 122h-53v56h170v-56h-55q-6 -59 -40 -118q-11 -18 -24 -37l-83 -115v-148h54v-56h-170v56h54v148l-83 115q-13 18 -24 37q-34 60 -40 118h-55z" />
    <glyph glyph-name="glyph216" 
d="M17 474v56h170v-56h-53q5 -39 28 -109l88 -264l88 264q23 70 28 109h-53v56h170v-56h-54q-5 -48 -32 -127l-156 -458q-11 -32 -19 -46q-14 -23 -34 -36q-22 -12 -62 -12h-36v56h36q25 0 38 13q10 10 21 42l34 102l-116 339q-27 79 -32 127h-54z" />
    <glyph glyph-name="glyph217" 
d="M17 474v56h116v-310q0 -71 26 -116q17 -29 41 -44q22 -12 50 -12t50 12q25 14 41 44q26 45 26 116v310h63v-515q0 -83 -33 -139q-25 -43 -65 -66t-94 -23t-94 23t-65 66q-8 14 -14 29l56 25q5 -14 12 -26q18 -30 45 -46q26 -15 60 -15t59 15q27 16 45 46q25 44 25 111v66
l-6 -12q-23 -39 -57 -59q-31 -18 -71.5 -18t-71.5 18q-34 20 -57 59q-34 59 -34 151v254h-53z" />
    <glyph glyph-name="y" unicode="y" 
d="M17 474v56h170v-56h-53q5 -39 28 -109l88 -264l88 264q23 70 28 109h-53v56h170v-56h-54q-5 -48 -32 -127l-156 -458q-11 -32 -19 -46q-14 -23 -34 -36q-22 -12 -62 -12h-36v56h36q25 0 38 13q10 10 21 42l34 102l-116 339q-27 79 -32 127h-54z" />
    <glyph glyph-name="afii10085" unicode="&#x443;" 
d="M17 474v56h170v-56h-53q5 -39 28 -109l88 -264l88 264q23 70 28 109h-53v56h170v-56h-54q-5 -48 -32 -127l-156 -458q-11 -32 -19 -46q-14 -23 -34 -36q-22 -12 -62 -12h-36v56h36q25 0 38 13q10 10 21 42l34 102l-116 339q-27 79 -32 127h-54z" />
    <glyph glyph-name="uni028E" unicode="&#x28e;" 
d="M17 0v56h54q5 48 32 127l156 458q11 32 19 46q14 23 34 36q22 12 62 12h36v-56h-36q-25 0 -38 -13q-10 -10 -21 -42l-34 -102l116 -339q27 -79 32 -127h54v-56h-170v56h53q-5 39 -28 109l-88 264l-88 -264q-23 -70 -28 -109h53v-56h-170z" />
    <glyph glyph-name="uni01B4" unicode="&#x1b4;" 
d="M17 474v56h170v-56h-53q5 -39 28 -109l88 -264l88 264q19 57 33 82q23 41 59 61q38 22 107 22v-56q-46 0 -71 -14t-41 -43q-11 -19 -28 -70l-156 -458q-11 -32 -19 -46q-14 -23 -34 -36q-22 -12 -62 -12h-36v56h36q25 0 38 13q10 10 21 42l34 102l-116 339
q-27 79 -32 127h-54z" />
    <glyph glyph-name="afii10037" unicode="&#x423;" 
d="M17 679v56h170v-56h-53q5 -39 28 -109l88 -264l88 264q23 70 28 109h-53v56h170v-56h-54q-5 -48 -32 -127l-156 -458q-11 -32 -19 -46q-14 -23 -34 -36q-22 -12 -62 -12h-36v56h36q25 0 38 13q10 10 21 42l34 102l-116 339q-27 79 -32 127h-54z" />
    <glyph glyph-name="lambda" unicode="&#x3bb;" 
d="M70 0v37q0 47 27 136q6 19 7 21l113 333l-37 109q-12 34 -11 92v7h62v-7q0 -50 8 -74l157 -460q33 -98 34 -157v-37h-63v37q0 51 -30 139l-87 256l-87 -256q-30 -88 -30 -139v-37h-63z" />
    <glyph glyph-name="uni019B" unicode="&#x19b;" 
d="M70 0v37q0 47 27 136q6 19 7 21l113 333l-37 109q-12 34 -11 92v7h62v-7q0 -50 8 -74l157 -460q33 -98 34 -157v-37h-63v37q0 51 -30 139l-87 256l-87 -256q-30 -88 -30 -139v-37h-63zM96 469l280 140l28 -50l-280 -140z" />
    <glyph glyph-name="K" unicode="K" 
d="M17 0v56h53v623h-53v56h170v-56h-54v-323q137 205 184 285q42 72 41 94h125v-56h-74q-10 -19 -23 -43q-34 -58 -113 -179q121 -291 153 -401h57v-56h-108q0 52 -143 395q-44 -66 -99 -147v-192h54v-56h-170z" />
    <glyph glyph-name="Kappa" unicode="&#x39a;" 
d="M17 0v56h53v623h-53v56h170v-56h-54v-323q137 205 184 285q42 72 41 94h125v-56h-74q-10 -19 -23 -43q-34 -58 -113 -179q121 -291 153 -401h57v-56h-108q0 52 -143 395q-44 -66 -99 -147v-192h54v-56h-170z" />
    <glyph glyph-name="afii10028" unicode="&#x41a;" 
d="M17 0v56h53v623h-53v56h170v-56h-54v-323q137 205 184 285q42 72 41 94h125v-56h-74q-10 -19 -23 -43q-34 -58 -113 -179q121 -291 153 -401h57v-56h-108q0 52 -143 395q-44 -66 -99 -147v-192h54v-56h-170z" />
    <glyph glyph-name="uni049A" unicode="&#x49a;" 
d="M17 0v56h53v623h-53v56h170v-56h-54v-323q137 205 184 285q42 72 41 94h125v-56h-74q-10 -19 -23 -43q-34 -58 -113 -179q121 -291 153 -401h79v-203h-62v147h-68q0 52 -143 395q-44 -66 -99 -147v-192h54v-56h-170z" />
    <glyph glyph-name="k" unicode="k" 
d="M17 0v56h53v623h-53v56h116v-471q192 201 221 252q4 8 4 14h125v-56h-87q-39 -50 -123 -143q109 -192 146 -275h64v-56h-108q0 34 -122 245q-11 20 -22 39q-44 -48 -98 -105v-123h54v-56h-170z" />
    <glyph glyph-name="kappa" unicode="&#x3ba;" 
d="M17 474v56h116v-266q192 201 221 252q4 8 4 14h125v-56h-87q-39 -50 -123 -143q109 -192 146 -275h64v-56h-108q0 34 -122 245q-11 20 -22 39q-44 -48 -98 -105v-179h-63v474h-53z" />
    <glyph glyph-name="afii10076" unicode="&#x43a;" 
d="M17 0v56h53v418h-53v56h170v-56h-54v-210q192 201 221 252q4 8 4 14h125v-56h-87q-39 -50 -123 -143q109 -192 146 -275h64v-56h-108q0 34 -122 245q-11 20 -22 39q-44 -48 -98 -105v-123h54v-56h-170z" />
    <glyph glyph-name="kgreenlandic" unicode="&#x138;" 
d="M17 0v56h53v418h-53v56h170v-56h-54v-210q192 201 221 252q4 8 4 14h125v-56h-87q-39 -50 -123 -143q109 -192 146 -275h64v-56h-108q0 34 -122 245q-11 20 -22 39q-44 -48 -98 -105v-123h54v-56h-170z" />
    <glyph glyph-name="uni049B" unicode="&#x49b;" 
d="M17 0v56h53v418h-53v56h170v-56h-54v-210q192 201 221 252q4 8 4 14h125v-56h-87q-39 -50 -123 -143q109 -192 146 -275h86v-203h-62v147h-68q0 34 -122 245q-11 20 -22 39q-44 -48 -98 -105v-123h54v-56h-170z" />
    <glyph glyph-name="uni0198" unicode="&#x198;" 
d="M70 0v552q0 55 24 95q22 37 61 60q48 28 117 28v-56q-47 0 -81 -19q-58 -34 -58 -108v-196q137 205 184 285q42 72 41 94h125v-56h-74q-10 -19 -23 -43q-34 -58 -113 -179q121 -291 153 -401h57v-56h-108q0 52 -143 395q-44 -66 -99 -147v-248h-63z" />
    <glyph glyph-name="uni0199" unicode="&#x199;" 
d="M70 0v552q0 55 24 95q22 37 61 60q48 28 117 28v-56q-47 0 -81 -19q-58 -34 -58 -108v-288q192 201 221 252q4 8 4 14h125v-56h-87q-39 -50 -123 -143q109 -192 146 -275h64v-56h-108q0 34 -122 245q-11 20 -22 39q-44 -48 -98 -105v-179h-63z" />
    <glyph glyph-name="uniA7B0" unicode="&#xa7b0;" 
d="M17 0v56h74q10 19 23 43q34 58 113 179q-121 291 -153 401h-57v56h108q0 -52 143 -395q44 66 99 147v192h-54v56h170v-56h-53v-623h53v-56h-170v56h54v323q-137 -205 -184 -285q-42 -72 -41 -94h-125z" />
    <glyph glyph-name="uni029E" unicode="&#x29e;" 
d="M17 0v56h87q39 50 123 143q-109 192 -146 275h-64v56h108q0 -34 122 -245q11 -20 22 -39q44 48 98 105v123h-54v56h170v-56h-53v-623h53v-56h-116v471q-192 -201 -221 -252q-4 -8 -4 -14h-125z" />
    <glyph glyph-name="B" unicode="B" 
d="M17 0v56h53v623h-53v56h206q59 0 102 -25q38 -22 60 -60q25 -44 25 -104q0 -55 -22 -95q-21 -36 -58 -57q-9 -5 -19 -10q25 -7 46 -19q42 -25 65 -65t24 -96q0 -61 -26 -106q-25 -42 -68 -67q-53 -31 -129 -31h-206zM133 56h90q54 0 92 22q32 18 49 49q19 33 19 78
t-19 78q-18 31 -49 49q-38 22 -92 22h-90v-298zM133 410h90q38 0 66 16q25 15 41 42q18 32 18 77t-18 77q-33 57 -107 57h-90v-269z" />
    <glyph glyph-name="Beta" unicode="&#x392;" 
d="M17 0v56h53v623h-53v56h206q59 0 102 -25q38 -22 60 -60q25 -44 25 -104q0 -55 -22 -95q-21 -36 -58 -57q-9 -5 -19 -10q25 -7 46 -19q42 -25 65 -65t24 -96q0 -61 -26 -106q-25 -42 -68 -67q-53 -31 -129 -31h-206zM133 56h90q54 0 92 22q32 18 49 49q19 33 19 78
t-19 78q-18 31 -49 49q-38 22 -92 22h-90v-298zM133 410h90q38 0 66 16q25 15 41 42q18 32 18 77t-18 77q-33 57 -107 57h-90v-269z" />
    <glyph glyph-name="afii10019" unicode="&#x412;" 
d="M17 0v56h53v623h-53v56h206q59 0 102 -25q38 -22 60 -60q25 -44 25 -104q0 -55 -22 -95q-21 -36 -58 -57q-9 -5 -19 -10q25 -7 46 -19q42 -25 65 -65t24 -96q0 -61 -26 -106q-25 -42 -68 -67q-53 -31 -129 -31h-206zM133 56h90q54 0 92 22q32 18 49 49q19 33 19 78
t-19 78q-18 31 -49 49q-38 22 -92 22h-90v-298zM133 410h90q38 0 66 16q25 15 41 42q18 32 18 77t-18 77q-33 57 -107 57h-90v-269z" />
    <glyph glyph-name="uni0181" unicode="&#x181;" 
d="M-14 565q0 85 27 132q12 21 29 31q12 7 28 7h153q59 0 102 -25q38 -22 60 -60q25 -44 25 -104q0 -55 -22 -95q-21 -36 -58 -57q-9 -5 -19 -10q25 -7 46 -19q42 -25 65 -65t24 -96q0 -61 -26 -106q-25 -42 -68 -67q-53 -31 -129 -31h-206v56h53v623q-3 0 -5 -2
q-17 -17 -16 -112h-63zM133 56h90q54 0 92 22q32 18 49 49q19 33 19 78t-19 78q-18 31 -49 49q-38 22 -92 22h-90v-298zM133 410h90q38 0 66 16q25 15 41 42q18 32 18 77t-18 77q-33 57 -107 57h-90v-269z" />
    <glyph glyph-name="glyph242" 
d="M62 220v90q0 84 33 140q25 43 64 66q39 22 93 22q60 0 102 -24q32 -19 50 -49t18 -70.5t-18 -70.5q-15 -27 -41 -44q36 -21 56 -54q19 -33 19 -77t-19 -77t-55 -53q-46 -27 -111 -27q-55 0 -94 22q-40 23 -64 66q-33 56 -33 140zM125 220q0 -68 25 -112q17 -30 44 -46
q24 -14 59 -14q43 0 75 18q23 13 35 35q12 21 12 48.5t-12 47.5q-12 21 -35 35q-31 18 -78 18h-54v56h54q41 0 68 16q20 12 31 30q10 18 10 42t-10 42q-11 19 -31 30q-27 16 -65 16q-34 0 -59 -14q-27 -15 -44 -46q-26 -44 -25 -112v-90z" />
    <glyph glyph-name="uni025E" unicode="&#x25e;" 
d="M62 220v90q0 84 33 140q25 43 64 66q39 22 93 22q60 0 102 -24q32 -19 50 -49t18 -70.5t-18 -70.5q-15 -27 -41 -44q36 -21 56 -54q19 -33 19 -77t-19 -77t-55 -53q-46 -27 -111 -27q-55 0 -94 22q-40 23 -64 66q-33 56 -33 140zM125 220q0 -68 25 -112q17 -30 44 -46
q24 -14 59 -14q43 0 75 18q23 13 35 35q12 21 12 48.5t-12 47.5q-12 21 -35 35q-31 18 -78 18h-54v56h54q41 0 68 16q20 12 31 30q10 18 10 42t-10 42q-11 19 -31 30q-27 16 -65 16q-34 0 -59 -14q-27 -15 -44 -46q-26 -44 -25 -112v-90z" />
    <glyph glyph-name="glyph244" 
d="M17 0v56h53v418h-53v56h250q46 0 80 -19q29 -17 45 -45q18 -32 18 -76q0 -39 -15 -66q-17 -29 -49 -45q19 -6 35 -15q32 -19 49 -48q16 -27 16 -65q0 -42 -18.5 -74t-52.5 -52q-44 -25 -108 -25h-250zM133 56h134q43 0 72 17q22 13 33 32q11 20 11 47t-11 46
q-12 20 -34 33q-29 17 -71 17h-134v-192zM133 304h134q48 0 70 37q12 20 11 48q0 28 -11 48q-21 37 -70 37h-134v-170z" />
    <glyph glyph-name="uni0299" unicode="&#x299;" 
d="M17 0v56h53v418h-53v56h250q46 0 80 -19q29 -17 45 -45q18 -32 18 -76q0 -39 -15 -66q-17 -29 -49 -45q19 -6 35 -15q32 -19 49 -48q16 -27 16 -65q0 -42 -18.5 -74t-52.5 -52q-44 -25 -108 -25h-250zM133 56h134q43 0 72 17q22 13 33 32q11 20 11 47t-11 46
q-12 20 -34 33q-29 17 -71 17h-134v-192zM133 304h134q48 0 70 37q12 20 11 48q0 28 -11 48q-21 37 -70 37h-134v-170z" />
    <glyph glyph-name="afii10067" unicode="&#x432;" 
d="M17 0v56h53v418h-53v56h250q46 0 80 -19q29 -17 45 -45q18 -32 18 -76q0 -39 -15 -66q-17 -29 -49 -45q19 -6 35 -15q32 -19 49 -48q16 -27 16 -65q0 -42 -18.5 -74t-52.5 -52q-44 -25 -108 -25h-250zM133 56h134q43 0 72 17q22 13 33 32q11 20 11 47t-11 46
q-12 20 -34 33q-29 17 -71 17h-134v-192zM133 304h134q48 0 70 37q12 20 11 48q0 28 -11 48q-21 37 -70 37h-134v-170z" />
    <glyph glyph-name="uni0243" unicode="&#x243;" 
d="M17 0v56h53v136h-49v56h49v431h-53v56h206q59 0 102 -25q38 -22 60 -60q25 -44 25 -104q0 -55 -22 -95q-21 -36 -58 -57q-9 -5 -19 -10q25 -7 46 -19q42 -25 65 -65t24 -96q0 -61 -26 -106q-25 -42 -68 -67q-53 -31 -129 -31h-206zM133 56h90q54 0 92 22q32 18 49 49
q19 33 19 78t-19 78q-18 31 -49 49q-38 22 -92 22h-90v-106h117v-56h-117v-136zM133 410h90q38 0 66 16q25 15 41 42q18 32 18 77t-18 77q-33 57 -107 57h-90v-269z" />
    <glyph glyph-name="beta" unicode="&#x3b2;" 
d="M70 -205v720q0 88 34 145q24 41 61 63q35 20 83 20q52 0 91 -22q36 -21 57 -58q25 -44 26 -106q0 -52 -22 -89q-20 -34 -54 -54q-13 -8 -28 -13q18 -7 34 -15q45 -26 69 -68q25 -43 25 -103q0 -65 -28 -112q-26 -45 -71 -71q-55 -32 -134 -32h-80v-205h-63zM133 56h80
q57 0 97 23q34 19 53 52q20 35 20 84.5t-20 85.5q-19 33 -53 52q-40 23 -97 23h-35v56h68q66 0 96 52q17 29 17 73q0 46 -18 77q-14 25 -38 39t-55 14q-28 0 -49 -12q-24 -14 -40 -42q-26 -45 -26 -118v-459z" />
    <glyph glyph-name="b" unicode="b" 
d="M17 0v56h53v623h-53v56h116v-286l6 12q23 39 57 59q31 18 73 18q46 0 82 -21q38 -22 61 -63q33 -57 34 -144v-90q0 -87 -34 -144q-24 -42 -61 -63q-36 -21 -82 -21q-42 0 -73 18q-34 20 -57 59l-6 12v-81h-116zM133 220q0 -71 26 -116q17 -29 41 -44q22 -12 51 -12
q34 0 61 15q28 16 46 48q25 43 25 109v90q0 66 -25 109q-18 31 -46 48q-27 15 -61 15q-30 0 -51 -12q-25 -14 -41 -44q-26 -45 -26 -116v-90z" />
    <glyph glyph-name="uni0253" unicode="&#x253;" 
d="M17 0v56h53v459q0 85 33 141q24 42 63 65q38 22 89 22t89 -22q39 -22 63 -65q20 -34 28 -76l-59 -19q-6 38 -23 67q-17 30 -43 45q-24 14 -55 14t-54 -13q-26 -15 -43 -45q-26 -45 -25 -114v-66l6 12q23 39 57 59q31 18 73 18q46 0 82 -21q38 -22 61 -63q33 -57 34 -144
v-90q0 -87 -34 -144q-24 -42 -61 -63q-36 -21 -82 -21q-42 0 -73 18q-34 20 -57 59l-6 12v-81h-116zM133 220q0 -71 26 -116q17 -29 41 -44q22 -12 51 -12q34 0 61 15q28 16 46 48q25 43 25 109v90q0 66 -25 109q-18 31 -46 48q-27 15 -61 15q-30 0 -51 -12q-25 -14 -41 -44
q-26 -45 -26 -116v-90z" />
    <glyph glyph-name="uni0180" unicode="&#x180;" 
d="M17 0v56h53v538h-49v56h49v29h-53v56h116v-85h117v-56h-117v-145l6 12q23 39 57 59q31 18 73 18q46 0 82 -21q38 -22 61 -63q33 -57 34 -144v-90q0 -87 -34 -144q-24 -42 -61 -63q-36 -21 -82 -21q-42 0 -73 18q-34 20 -57 59l-6 12v-81h-116zM133 220q0 -71 26 -116
q17 -29 41 -44q22 -12 51 -12q34 0 61 15q28 16 46 48q25 43 25 109v90q0 66 -25 109q-18 31 -46 48q-27 15 -61 15q-30 0 -51 -12q-25 -14 -41 -44q-26 -45 -26 -116v-90z" />
    <glyph glyph-name="uni1E03" unicode="&#x1e03;" 
d="M17 0v56h53v623h-53v56h116v-286l6 12q23 39 57 59q31 18 73 18q46 0 82 -21q38 -22 61 -63q33 -57 34 -144v-90q0 -87 -34 -144q-24 -42 -61 -63q-36 -21 -82 -21q-42 0 -73 18q-34 20 -57 59l-6 12v-81h-116zM133 220q0 -71 26 -116q17 -29 41 -44q22 -12 51 -12
q34 0 61 15q28 16 46 48q25 43 25 109v90q0 66 -25 109q-18 31 -46 48q-27 15 -61 15q-30 0 -51 -12q-25 -14 -41 -44q-26 -45 -26 -116v-90zM228 685q0 23 13.5 36.5t36.5 13.5t36.5 -13.5t13.5 -36.5t-13.5 -36.5t-36.5 -13.5t-36.5 13.5t-13.5 36.5z" />
    <glyph glyph-name="uni0183" unicode="&#x183;" 
d="M17 0v56h53v623h-53v56h377v-145h-63v89h-198v-230l6 12q23 39 57 59q31 18 73 18q46 0 82 -21q38 -22 61 -63q33 -57 34 -144v-90q0 -87 -34 -144q-24 -42 -61 -63q-36 -21 -82 -21q-42 0 -73 18q-34 20 -57 59l-6 12v-81h-116zM133 220q0 -71 26 -116q17 -29 41 -44
q22 -12 51 -12q34 0 61 15q28 16 46 48q25 43 25 109v90q0 66 -25 109q-18 31 -46 48q-27 15 -61 15q-30 0 -51 -12q-25 -14 -41 -44q-26 -45 -26 -116v-90z" />
    <glyph glyph-name="uni0185" unicode="&#x185;" 
d="M14 679l56 56h63v-286l6 12q23 39 57 59q31 18 73 18q46 0 82 -21q38 -22 61 -63q33 -57 34 -144v-90q0 -87 -34 -144q-24 -42 -61 -63q-36 -21 -82 -21q-42 0 -73 18q-34 20 -57 59l-6 12v-81h-116v56h53v567zM133 220q0 -71 26 -116q17 -29 41 -44q22 -12 51 -12
q34 0 61 15q28 16 46 48q25 43 25 109v90q0 66 -25 109q-18 31 -46 48q-27 15 -61 15q-30 0 -51 -12q-25 -14 -41 -44q-26 -45 -26 -116v-90z" />
    <glyph glyph-name="D" unicode="D" 
d="M17 0v56h53v623h-53v56h198q132 0 194 -107q37 -64 37 -156v-209q0 -93 -37 -156q-62 -107 -194 -107h-198zM133 56h82q46 0 82 20q35 20 57 59q30 52 29 128v209q0 77 -29 128q-22 38 -57 59q-35 20 -82 20h-82v-623z" />
    <glyph glyph-name="Eth" unicode="&#xd0;" 
d="M17 0v56h53v298h-49v56h49v269h-53v56h198q132 0 194 -107q37 -64 37 -156v-209q0 -93 -37 -156q-62 -107 -194 -107h-198zM133 56h82q46 0 82 20q35 20 57 59q30 52 29 128v209q0 77 -29 128q-22 38 -57 59q-35 20 -82 20h-82v-269h129v-56h-129v-298z" />
    <glyph glyph-name="Dcroat" unicode="&#x110;" 
d="M17 0v56h53v298h-49v56h49v269h-53v56h198q132 0 194 -107q37 -64 37 -156v-209q0 -93 -37 -156q-62 -107 -194 -107h-198zM133 56h82q46 0 82 20q35 20 57 59q30 52 29 128v209q0 77 -29 128q-22 38 -57 59q-35 20 -82 20h-82v-269h129v-56h-129v-298z" />
    <glyph glyph-name="uni0189" unicode="&#x189;" 
d="M17 0v56h53v298h-49v56h49v269h-53v56h198q132 0 194 -107q37 -64 37 -156v-209q0 -93 -37 -156q-62 -107 -194 -107h-198zM133 56h82q46 0 82 20q35 20 57 59q30 52 29 128v209q0 77 -29 128q-22 38 -57 59q-35 20 -82 20h-82v-269h129v-56h-129v-298z" />
    <glyph glyph-name="uni018A" unicode="&#x18a;" 
d="M-14 565q0 85 27 132q12 21 29 31q13 7 28 7h145q132 0 194 -107q37 -64 37 -156v-209q0 -93 -37 -156q-62 -107 -194 -107h-198v56h53v623q-3 0 -5 -2q-17 -17 -16 -112h-63zM133 56h82q46 0 82 20q35 20 57 59q30 52 29 128v209q0 77 -29 128q-22 38 -57 59
q-35 20 -82 20h-82v-623z" />
    <glyph glyph-name="d" unicode="d" 
d="M54 220v90q0 87 34 144q24 42 61 63q36 21 82 21q42 0 73 -18q34 -20 57 -59l6 -12v230h-54v56h117v-679h53v-56h-116v81l-6 -12q-23 -39 -57 -59q-31 -18 -73 -18q-46 0 -82 21q-38 22 -61 63q-33 57 -34 144zM117 220q0 -66 25 -109q18 -31 46 -48q27 -15 61 -15
q30 0 51 12q25 14 41 44q26 45 26 116v90q0 71 -26 116q-17 29 -41 44q-22 12 -51 12q-34 0 -61 -15q-28 -16 -46 -48q-25 -43 -25 -109v-90z" />
    <glyph glyph-name="dcroat" unicode="&#x111;" 
d="M54 220v90q0 87 34 144q24 42 61 63q36 21 82 21q42 0 73 -18q34 -20 57 -59l6 -12v145h-117v56h117v29h-54v56h117v-85h49v-56h-49v-538h53v-56h-116v81l-6 -12q-23 -39 -57 -59q-31 -18 -73 -18q-46 0 -82 21q-38 22 -61 63q-33 57 -34 144zM117 220q0 -66 25 -109
q18 -31 46 -48q27 -15 61 -15q30 0 51 12q25 14 41 44q26 45 26 116v90q0 71 -26 116q-17 29 -41 44q-22 12 -51 12q-34 0 -61 -15q-28 -16 -46 -48q-25 -43 -25 -109v-90z" />
    <glyph glyph-name="dcaron" unicode="&#x10f;" 
d="M54 220v90q0 91 34 150q23 40 58 60q32 18 72 18q36 0 63 -15q31 -18 52 -56q5 -8 9 -17v229h-49v56h112v-679h49v-56h-112v80q-4 -9 -9 -17q-21 -37 -52 -56q-27 -15 -63 -15q-40 0 -72 18q-35 20 -58 60q-34 59 -34 150zM117 220q0 -70 25 -115q17 -29 43 -44
q23 -13 51 -13q25 0 43 10q22 13 37 40q26 45 26 122v90q0 77 -26 122q-15 27 -37 40q-18 10 -43 10q-29 0 -51 -13q-25 -15 -43 -44q-26 -45 -25 -115v-90zM434 582q30 41 38 97q-14 2 -23 11q-11 11 -11.5 30.5t11 31t31 11.5t31 -11t11.5 -31q0 -99 -51 -165z" />
    <glyph glyph-name="uni0221" unicode="&#x221;" 
d="M54 220v90q0 93 35 152q23 39 56 58q30 18 69 18q35 0 60 -15q30 -18 52 -54q4 -7 7 -13v223h-54v56h116v-554q16 3 33 4q31 0 53 -13q17 -10 28 -27q14 -25 13 -57q0 -31 -13 -54q-10 -18 -29 -28q-23 -14 -53 -14q-26 0 -46 12t-32 33q-9 16 -14 43q-4 -10 -9 -19
q-20 -35 -49 -53q-2 -4 -5 -8q-26 -46 -39 -97l-61 14q10 39 28 76q-30 3 -55 17q-34 20 -56 58q-34 59 -35 152zM117 220q0 -72 26 -117q17 -29 41 -43q21 -12 47 -12q43 67 95 103q6 31 7 69v90q0 79 -27 125q-15 26 -35 37q-17 10 -40 10q-26 0 -47 -12q-24 -14 -41 -43
q-26 -45 -26 -117v-90zM395 99q0 -30 12 -42q9 -9 20 -9q13 0 22 9q11 11 11 31.5t-10 30.5t-27 10q-13 0 -28 -6v-24z" />
    <glyph glyph-name="uni0257" unicode="&#x257;" 
d="M54 220v90q0 87 34 144q24 42 61 63q36 21 82 21q42 0 73 -18q34 -20 57 -59l6 -12v81q1 55 24 95q22 37 61 60q48 28 116 28v-56q-47 0 -80 -19q-58 -34 -58 -108v-474h53v-56h-116v81l-6 -12q-23 -39 -57 -59q-31 -18 -73 -18q-46 0 -82 21q-38 22 -61 63
q-33 57 -34 144zM117 220q0 -66 25 -109q18 -31 46 -48q27 -15 61 -15q30 0 51 12q25 14 41 44q26 45 26 116v90q0 71 -26 116q-17 29 -41 44q-22 12 -51 12q-34 0 -61 -15q-28 -16 -46 -48q-25 -43 -25 -109v-90z" />
    <glyph glyph-name="uni1E0B" unicode="&#x1e0b;" 
d="M54 220v90q0 87 34 144q24 42 61 63q36 21 82 21q42 0 73 -18q34 -20 57 -59l6 -12v230h-54v56h117v-679h53v-56h-116v81l-6 -12q-23 -39 -57 -59q-31 -18 -73 -18q-46 0 -82 21q-38 22 -61 63q-33 57 -34 144zM117 220q0 -66 25 -109q18 -31 46 -48q27 -15 61 -15
q30 0 51 12q25 14 41 44q26 45 26 116v90q0 71 -26 116q-17 29 -41 44q-22 12 -51 12q-34 0 -61 -15q-28 -16 -46 -48q-25 -43 -25 -109v-90zM172 685q0 23 13.5 36.5t36.5 13.5t36.5 -13.5t13.5 -36.5t-13.5 -36.5t-36.5 -13.5t-36.5 13.5t-13.5 36.5z" />
    <glyph glyph-name="uni018C" unicode="&#x18c;" 
d="M54 220v90q0 87 34 144q24 42 61 63q36 21 82 21q42 0 73 -18q34 -20 57 -59l6 -12v230h-198v-89h-63v145h324v-679h53v-56h-116v81l-6 -12q-23 -39 -57 -59q-31 -18 -73 -18q-46 0 -82 21q-38 22 -61 63q-33 57 -34 144zM117 220q0 -66 25 -109q18 -31 46 -48
q27 -15 61 -15q30 0 51 12q25 14 41 44q26 45 26 116v90q0 71 -26 116q-17 29 -41 44q-22 12 -51 12q-34 0 -61 -15q-28 -16 -46 -48q-25 -43 -25 -109v-90z" />
    <glyph glyph-name="P" unicode="P" 
d="M34 0v56h54v623h-54v56h208q64 0 111 -27q41 -24 65 -65q28 -48 28 -116t-28 -116q-24 -42 -65 -66q-46 -27 -111 -27h-92v-262h54v-56h-170zM150 374h92q43 0 75 18q29 17 46 47q21 36 20.5 87.5t-20.5 87.5q-37 65 -121 65h-92v-305z" />
    <glyph glyph-name="Rho" unicode="&#x3a1;" 
d="M34 0v56h54v623h-54v56h208q64 0 111 -27q41 -24 65 -65q28 -48 28 -116t-28 -116q-24 -42 -65 -66q-46 -27 -111 -27h-92v-262h54v-56h-170zM150 374h92q43 0 75 18q29 17 46 47q21 36 20.5 87.5t-20.5 87.5q-37 65 -121 65h-92v-305z" />
    <glyph glyph-name="afii10034" unicode="&#x420;" 
d="M34 0v56h54v623h-54v56h208q64 0 111 -27q41 -24 65 -65q28 -48 28 -116t-28 -116q-24 -42 -65 -66q-46 -27 -111 -27h-92v-262h54v-56h-170zM150 374h92q43 0 75 18q29 17 46 47q21 36 20.5 87.5t-20.5 87.5q-37 65 -121 65h-92v-305z" />
    <glyph glyph-name="uni01A4" unicode="&#x1a4;" 
d="M4 565q0 85 27 132q12 21 29 31q13 7 28 7h154q64 0 111 -27q41 -24 65 -65q28 -48 28 -116t-28 -116q-24 -42 -65 -66q-46 -27 -111 -27h-92v-262h54v-56h-170v56h54v623q-3 0 -5 -2q-17 -17 -17 -112h-62zM150 374h92q43 0 75 18q29 17 46 47q21 36 20.5 87.5
t-20.5 87.5q-37 65 -121 65h-92v-305z" />
    <glyph glyph-name="p" unicode="p" 
d="M17 -149h53v623h-53v56h116v-81l6 12q23 39 57 59q31 18 73 18q46 0 82 -21q38 -22 61 -63q33 -57 34 -144v-90q0 -87 -34 -144q-24 -42 -61 -63q-36 -21 -82 -21q-42 0 -73 18q-34 20 -57 59l-6 12v-230h54v-56h-170v56zM133 220q0 -71 26 -116q17 -29 41 -44
q22 -12 51 -12q34 0 61 15q28 16 46 48q25 43 25 109v90q0 66 -25 109q-18 31 -46 48q-27 15 -61 15q-30 0 -51 -12q-25 -14 -41 -44q-26 -45 -26 -116v-90z" />
    <glyph glyph-name="afii10082" unicode="&#x440;" 
d="M17 -149h53v623h-53v56h116v-81l6 12q23 39 57 59q31 18 73 18q46 0 82 -21q38 -22 61 -63q33 -57 34 -144v-90q0 -87 -34 -144q-24 -42 -61 -63q-36 -21 -82 -21q-42 0 -73 18q-34 20 -57 59l-6 12v-230h54v-56h-170v56zM133 220q0 -71 26 -116q17 -29 41 -44
q22 -12 51 -12q34 0 61 15q28 16 46 48q25 43 25 109v90q0 66 -25 109q-18 31 -46 48q-27 15 -61 15q-30 0 -51 -12q-25 -14 -41 -44q-26 -45 -26 -116v-90z" />
    <glyph glyph-name="uni01A5" unicode="&#x1a5;" 
d="M17 -149h53v664q0 85 33 141q24 42 63 65q38 22 89 22t89 -22q39 -22 63 -65q20 -34 28 -76l-59 -19q-6 38 -23 67q-17 30 -43 45q-24 14 -55 14t-54 -13q-26 -15 -43 -45q-26 -45 -25 -114v-66l6 12q23 39 57 59q31 18 73 18q46 0 82 -21q38 -22 61 -63q33 -57 34 -144
v-90q0 -87 -34 -144q-24 -42 -61 -63q-36 -21 -82 -21q-42 0 -73 18q-34 20 -57 59l-6 12v-230h54v-56h-170v56zM133 220q0 -71 26 -116q17 -29 41 -44q22 -12 51 -12q34 0 61 15q28 16 46 48q25 43 25 109v90q0 66 -25 109q-18 31 -46 48q-27 15 -61 15q-30 0 -51 -12
q-25 -14 -41 -44q-26 -45 -26 -116v-90z" />
    <glyph glyph-name="rho" unicode="&#x3c1;" 
d="M62 -205v515q0 83 33 139q25 43 65 66t94 23t94 -23t65 -66q32 -56 33 -139v-90q0 -83 -33 -139q-25 -43 -65 -66t-94 -23t-94 23q-19 11 -35 27v-247h-63zM125 220q0 -67 25 -111q18 -31 45 -46q25 -15 59 -15t59 15q27 16 45 46q25 44 25 111v90q0 67 -25 111
q-18 31 -45 46q-25 15 -59 15t-59 -15q-27 -16 -45 -46q-25 -44 -25 -111v-90z" />
    <glyph glyph-name="R" unicode="R" 
d="M17 0v56h53v623h-53v56h234q62 0 106 -26q39 -23 62 -62q26 -46 26.5 -110.5t-26.5 -110.5q-23 -40 -62 -63q-26 -15 -59 -21q99 -181 122 -286h63v-56h-118q0 103 -134 337h-98v-281h54v-56h-170zM133 393h118q40 0 70 17q27 16 43 44q19 34 19 82t-19 82q-25 43 -74 57
q-17 4 -39 4h-118v-286z" />
    <glyph glyph-name="uni0280" unicode="&#x280;" 
d="M17 0v56h53v418h-53v56h276q49 0 84 -20q31 -18 49 -49q20 -34 20 -82.5t-20 -82.5q-36 -62 -117 -68q47 -62 76 -112q19 -33 29 -60h69v-56h-118q0 35 -33.5 92.5t-97.5 134.5h-101v-171h54v-56h-170zM133 283h160q53 0 77 41q13 22 13 55q0 45 -26 71q-7 7 -16 12
q-20 12 -48 12h-160v-191z" />
    <glyph glyph-name="uni01A6" unicode="&#x1a6;" 
d="M17 0v56h53v513h-53v56h53v110h63v-110h118q62 0 106 -26q39 -23 62 -63q26 -46 26.5 -110t-26.5 -110q-23 -40 -62 -62q-26 -15 -59 -22q142 -259 143 -437h-63q0 175 -147 433h-98v-172h54v-56h-170zM133 284h118q40 0 70 17q27 16 43 44q19 34 19 81.5t-19 81.5
q-25 43 -74 56q-16 4 -39 5h-118v-285z" />
    <glyph glyph-name="afii10049" unicode="&#x42f;" 
d="M17 0v56h63q23 105 122 286q-29 6 -52 20q-38 22 -61 61q-27 47 -27 113.5t27 112.5q23 40 61 62q42 24 99 24h217v-56h-54v-623h54v-56h-170v56h54v281h-81q-134 -234 -134 -337h-118zM125 536q0 -50 20 -85q33 -58 104 -58h101v286h-101q-71 0 -104 -58
q-20 -35 -20 -85z" />
    <glyph glyph-name="afii10097" unicode="&#x44f;" 
d="M17 0v56h69q10 27 29 60q29 50 76 112q-35 3 -62 18q-29 17 -46 47q-20 35 -20.5 85.5t20.5 85.5q17 30 46 47q33 19 78 19h259v-56h-54v-418h54v-56h-170v56h54v171h-84q-64 -77 -97.5 -134.5t-33.5 -92.5h-118zM125 379q0 -34 13 -58q22 -38 69 -38h143v191h-143
q-47 0 -69 -38q-13 -23 -13 -57z" />
    <glyph glyph-name="uni0281" unicode="&#x281;" 
d="M34 0v56h54v418h-54v56h170v-56h-54v-171h84q64 77 97.5 134.5t33.5 92.5h118v-56h-69q-10 -27 -29 -60q-29 -50 -76 -112q35 -3 62 -18q29 -17 46 -47q20 -35 20.5 -85.5t-20.5 -85.5q-17 -30 -46 -47q-33 -19 -78 -19h-259zM150 56h143q47 0 69 38q13 23 13 57t-13 58
q-22 38 -69 38h-143v-191z" />
    <glyph glyph-name="r" unicode="r" 
d="M59 0v56h71v418h-71v56h134v-106q8 23 19 42q22 39 54 57q26 15 58 15q36 0 67 -18t48 -49q9 -15 14 -31l-59 -26q-4 15 -11 28q-12 21 -30 31q-15 9 -34 9q-29 0 -51 -13q-26 -15 -45 -47q-31 -53 -30 -141v-225h114v-56h-248z" />
    <glyph glyph-name="uni0279" unicode="&#x279;" 
d="M47 90l59 26q4 -15 11 -28q12 -21 30 -31q15 -9 34 -9q29 0 51 13q26 15 45 47q31 53 30 141v225h-114v56h248v-56h-71v-418h71v-56h-134v106q-8 -23 -19 -42q-22 -39 -54 -57q-26 -15 -58 -15q-36 0 -67 18t-48 49q-9 15 -14 31z" />
    <glyph glyph-name="uni027C" unicode="&#x27c;" 
d="M59 -149h71v623h-71v56h134v-106q8 23 19 42q22 39 54 57q26 15 58 15q36 0 67 -18t48 -49q9 -15 14 -31l-59 -26q-4 15 -11 28q-12 21 -30 31q-15 9 -34 9q-29 0 -51 -13q-26 -15 -45 -47q-31 -53 -30 -141v-430h114v-56h-248v56z" />
    <glyph glyph-name="uni027A" unicode="&#x27a;" 
d="M47 90l59 26q4 -15 11 -28q12 -21 30 -31q15 -9 34 -9q29 0 51 13q26 15 45 47q31 53 30 141v430h-114v56h248v-56h-71v-623h71v-56h-134v106q-8 -23 -19 -42q-22 -39 -54 -57q-26 -15 -58 -15q-36 0 -67 18t-48 49q-9 15 -14 31z" />
    <glyph glyph-name="uni027D" unicode="&#x27d;" 
d="M59 474v56h134v-106q8 23 19 42q22 39 54 57q26 15 58 15q36 0 67 -18t48 -49q9 -15 14 -31l-59 -26q-4 15 -11 28q-12 21 -30 31q-15 9 -34 9q-29 0 -51 -13q-26 -15 -45 -47q-31 -53 -30 -141v-281q0 -50 14 -76q13 -22 35 -34q29 -17 90 -17v-56q-88 0 -131 24
q-31 18 -49 50q-21 37 -22 109v474h-71z" />
    <glyph glyph-name="uni027B" unicode="&#x27b;" 
d="M47 90l59 26q4 -15 11 -28q12 -21 30 -31q15 -9 34 -9q29 0 51 13q26 15 45 47q31 53 30 141v225h-114v56h248v-56h-71v-474q0 -50 14 -76q13 -22 35 -34q29 -17 89 -17v-56q-88 0 -130 24q-31 18 -49 50q-21 37 -22 109v106q-8 -23 -19 -42q-22 -39 -54 -57
q-26 -15 -58 -15q-36 0 -67 18t-48 49q-9 15 -14 31z" />
    <glyph glyph-name="uni027E" unicode="&#x27e;" 
d="M59 0v56h71v254q0 87 34 145q24 41 61 63q35 20 82 20t82 -20q44 -26 69 -78l-56 -25q-16 38 -46 55q-21 12 -49 12q-27 0 -48 -12q-24 -14 -40 -42q-26 -45 -26 -118v-254h114v-56h-248z" />
    <glyph glyph-name="uni2C79" unicode="&#x2c79;" 
d="M47 90l59 26q4 -15 11 -28q12 -21 30 -31q15 -9 34 -9q29 0 51 13q26 15 45 47q31 53 30 141v281q0 50 -14 76q-13 22 -35 34q-29 17 -90 17v56q88 0 131 -24q31 -18 49 -50q21 -37 22 -109v-474h71v-56h-134v106q-8 -23 -19 -42q-22 -39 -54 -57q-26 -15 -58 -15
q-36 0 -67 18t-48 49q-9 15 -14 31z" />
    <glyph glyph-name="C" unicode="C" 
d="M54 195v345q0 68 28 116q23 40 62 62q42 25 101.5 25t101.5 -25q39 -23 63 -62q20 -34 25 -76l-61 -11q-4 32 -19 58q-16 28 -44 44t-65.5 16t-65.5 -16q-27 -16 -43 -44q-21 -36 -20 -87v-345q0 -52 20 -87q16 -28 43 -44q28 -16 66 -16t65 16t44 44q15 26 19 58l61 -11
q-5 -41 -25 -76q-23 -40 -63 -62q-43 -25 -101.5 -25t-101.5 25q-39 23 -62 62q-28 48 -28 116z" />
    <glyph glyph-name="afii10035" unicode="&#x421;" 
d="M54 195v345q0 68 28 116q23 40 62 62q42 25 101.5 25t101.5 -25q39 -23 63 -62q20 -34 25 -76l-61 -11q-4 32 -19 58q-16 28 -44 44t-65.5 16t-65.5 -16q-27 -16 -43 -44q-21 -36 -20 -87v-345q0 -52 20 -87q16 -28 43 -44q28 -16 66 -16t65 16t44 44q15 26 19 58l61 -11
q-5 -41 -25 -76q-23 -40 -63 -62q-43 -25 -101.5 -25t-101.5 25q-39 23 -62 62q-28 48 -28 116z" />
    <glyph glyph-name="uni03F9" unicode="&#x3f9;" 
d="M54 195v345q0 68 28 116q23 40 62 62q42 25 101.5 25t101.5 -25q39 -23 63 -62q20 -34 25 -76l-61 -11q-4 32 -19 58q-16 28 -44 44t-65.5 16t-65.5 -16q-27 -16 -43 -44q-21 -36 -20 -87v-345q0 -52 20 -87q16 -28 43 -44q28 -16 66 -16t65 16t44 44q15 26 19 58l61 -11
q-5 -41 -25 -76q-23 -40 -63 -62q-43 -25 -101.5 -25t-101.5 25q-39 23 -62 62q-28 48 -28 116z" />
    <glyph glyph-name="c" unicode="c" 
d="M54 220v90q0 82 33 138q25 43 65.5 66.5t95 23.5t95 -23.5t65.5 -66.5q19 -33 27 -73l-59 -18q-6 35 -22 63q-18 31 -46 47q-26 15 -61 15q-34 0 -60 -15q-28 -16 -45 -47q-25 -44 -25 -110v-90q0 -67 25 -110q18 -31 45 -47q26 -15 60 -15q35 0 61 15q28 16 46 47
q16 28 22 63l59 -18q-8 -40 -27 -73q-25 -43 -65.5 -66.5t-95 -23.5t-95 23.5t-65.5 66.5q-32 56 -33 138z" />
    <glyph glyph-name="afii10083" unicode="&#x441;" 
d="M54 220v90q0 82 33 138q25 43 65.5 66.5t95 23.5t95 -23.5t65.5 -66.5q19 -33 27 -73l-59 -18q-6 35 -22 63q-18 31 -46 47q-26 15 -61 15q-34 0 -60 -15q-28 -16 -45 -47q-25 -44 -25 -110v-90q0 -67 25 -110q18 -31 45 -47q26 -15 60 -15q35 0 61 15q28 16 46 47
q16 28 22 63l59 -18q-8 -40 -27 -73q-25 -43 -65.5 -66.5t-95 -23.5t-95 23.5t-65.5 66.5q-32 56 -33 138z" />
    <glyph glyph-name="uni03F2" unicode="&#x3f2;" 
d="M54 220v90q0 82 33 138q25 43 65.5 66.5t95 23.5t95 -23.5t65.5 -66.5q19 -33 27 -73l-59 -18q-6 35 -22 63q-18 31 -46 47q-26 15 -61 15q-34 0 -60 -15q-28 -16 -45 -47q-25 -44 -25 -110v-90q0 -67 25 -110q18 -31 45 -47q26 -15 60 -15q35 0 61 15q28 16 46 47
q16 28 22 63l59 -18q-8 -40 -27 -73q-25 -43 -65.5 -66.5t-95 -23.5t-95 23.5t-65.5 66.5q-32 56 -33 138z" />
    <glyph glyph-name="uni0186" unicode="&#x186;" 
d="M65 155l61 11q4 -32 19 -58q16 -28 44 -44t65.5 -16t65.5 16q27 16 43 44q21 36 20 87v345q0 52 -20 87q-16 28 -43 44q-28 16 -66 16t-65 -16t-44 -44q-15 -26 -19 -58l-61 11q5 41 25 76q23 40 63 62q43 25 101.5 25t101.5 -25q39 -23 62 -62q28 -48 28 -116v-345
q0 -68 -28 -116q-23 -40 -62 -62q-42 -25 -101.5 -25t-101.5 25q-39 23 -63 62q-20 34 -25 76z" />
    <glyph glyph-name="uni0254" unicode="&#x254;" 
d="M65 155l59 18q6 -35 22 -63q18 -31 46 -47q26 -15 61 -15q34 0 60 15q28 16 45 47q25 44 25 110v90q0 67 -25 110q-18 31 -45 47q-26 15 -60 15q-35 0 -61 -15q-28 -16 -46 -47q-16 -28 -22 -63l-59 18q8 40 27 73q25 43 65.5 66.5t95 23.5t95 -23.5t65.5 -66.5
q32 -56 33 -138v-90q0 -82 -33 -138q-25 -43 -65.5 -66.5t-95 -23.5t-95 23.5t-65.5 66.5q-19 33 -27 73z" />
    <glyph glyph-name="uni0297" unicode="&#x297;" 
d="M54 -10v345q0 68 28 116q23 40 62 62q42 25 101.5 25t101.5 -25q39 -23 63 -62q20 -34 25 -76l-61 -11q-4 32 -19 58q-16 28 -44 44t-65.5 16t-65.5 -16q-27 -16 -43 -44q-21 -36 -20 -87v-345q0 -52 20 -87q16 -28 43 -44q28 -16 66 -16t65 16t44 44q15 26 19 58l61 -11
q-5 -41 -25 -76q-23 -40 -63 -62q-43 -25 -101.5 -25t-101.5 25q-39 23 -62 62q-28 48 -28 116z" />
    <glyph glyph-name="uni0187" unicode="&#x187;" 
d="M54 195v345q0 68 28 116q23 40 62 62q42 25 101.5 25t101.5 -25q14 -8 25 -17v34q0 55 24 95q22 37 61 60q48 28 116 28v-56q-47 0 -80 -19q-58 -34 -58 -108v-155l-61 -11q-4 32 -19 58q-16 28 -44 44t-65.5 16t-65.5 -16q-27 -16 -43 -44q-21 -36 -20 -87v-345
q0 -52 20 -87q16 -28 43 -44q28 -16 66 -16t65 16t44 44q15 26 19 58l61 -11q-5 -41 -25 -76q-23 -40 -63 -62q-43 -25 -101.5 -25t-101.5 25q-39 23 -62 62q-28 48 -28 116z" />
    <glyph glyph-name="uni0188" unicode="&#x188;" 
d="M54 220v90q0 82 33 138q25 43 65.5 66.5t95 23.5t95.5 -23q16 -9 29 -22v37q0 55 24 95q22 37 61 60q48 28 116 28v-56q-47 0 -80 -19q-58 -34 -58 -108v-155l-59 -18q-6 35 -22 63q-18 31 -46 47q-26 15 -61 15q-34 0 -60 -15q-28 -16 -45 -47q-25 -44 -25 -110v-90
q0 -67 25 -110q18 -31 45 -47q26 -15 60 -15q35 0 61 15q28 16 46 47q16 28 22 63l59 -18q-8 -40 -27 -73q-25 -43 -65.5 -66.5t-95 -23.5t-95 23.5t-65.5 66.5q-32 56 -33 138z" />
    <glyph glyph-name="uniA792" unicode="&#xa792;" 
d="M21 354v56h33v130q0 68 28 116q23 40 62 62q42 25 101.5 25t101.5 -25q39 -23 63 -62q20 -34 25 -76l-61 -11q-4 32 -19 58q-16 28 -44 44t-65.5 16t-65.5 -16q-27 -16 -43 -44q-21 -36 -20 -87v-130h145v-56h-145v-159q0 -52 20 -87q16 -28 43 -44q28 -16 66 -16t65 16
t44 44q15 26 19 58l61 -11q-5 -41 -25 -76q-23 -40 -63 -62q-43 -25 -101.5 -25t-101.5 25q-39 23 -62 62q-28 48 -28 116v159h-33z" />
    <glyph glyph-name="uniA793" unicode="&#xa793;" 
d="M21 248v56h33v6q0 82 33 138q25 43 65.5 66.5t95 23.5t95 -23.5t65.5 -66.5q19 -33 27 -73l-59 -18q-6 35 -22 63q-18 31 -46 47q-26 15 -61 15q-34 0 -60 -15q-28 -16 -45 -47q-25 -44 -25 -110v-6h145v-56h-145v-28q0 -67 25 -110q18 -31 45 -47q26 -15 60 -15
q35 0 61 15q28 16 46 47q16 28 22 63l59 -18q-8 -40 -27 -73q-25 -43 -65.5 -66.5t-95 -23.5t-95 23.5t-65.5 66.5q-32 56 -33 138v28h-33z" />
    <glyph glyph-name="uni0255" unicode="&#x255;" 
d="M27 -14q15 67 47 127q-20 46 -20 107v90q0 77 31 131q24 42 65 65q41 24 97.5 24t97.5 -24q40 -23 65 -65q17 -30 25 -66l-59 -18q-6 30 -20 55q-18 30 -46 46q-27 16 -62 16q-36 0 -63 -15q-28 -16 -45 -46q-24 -41 -23 -103v-90q0 -20 2 -37q36 46 75 69q41 23 89 23
q46 0 83 -22q33 -19 51.5 -50.5t18.5 -69.5q0 -39 -19 -72q-17 -30 -47 -46q-39 -23 -97 -23q-68 0 -117 28q-24 14 -42 33q-17 -39 -27 -79zM145 113q19 -28 47 -45q34 -20 81 -20q37 0 61 14q18 10 28 29q11 20 12 42q0 23 -12 43q-11 19 -30 30q-22 13 -50 13
q-30 0 -56 -15q-40 -23 -81 -91z" />
    <glyph glyph-name="afii10047" unicode="&#x42d;" 
d="M65 155l61 11q4 -32 19 -58q16 -28 44 -44t65.5 -16t65.5 16q27 16 43 44q21 36 20 87v145h-223v56h223v144q0 52 -20 87q-16 28 -43 44q-28 16 -66 16t-65 -16t-44 -44q-15 -26 -19 -58l-61 11q5 41 25 76q23 40 63 62q43 25 101.5 25t101.5 -25q39 -23 62 -62
q28 -48 28 -116v-345q0 -68 -28 -116q-23 -40 -62 -62q-42 -25 -101.5 -25t-101.5 25q-39 23 -63 62q-20 34 -25 76z" />
    <glyph glyph-name="afii10095" unicode="&#x44d;" 
d="M65 155l59 18q6 -35 22 -63q18 -31 46 -47q26 -15 61 -15q34 0 60 15q28 16 45 47q25 44 25 110v17h-223v56h223v17q0 67 -25 110q-18 31 -45 47q-26 15 -60 15q-35 0 -61 -15q-28 -16 -46 -47q-16 -28 -22 -63l-59 18q8 40 27 73q25 43 65.5 66.5t95 23.5t95 -23.5
t65.5 -66.5q32 -56 33 -138v-90q0 -82 -33 -138q-25 -43 -65.5 -66.5t-95 -23.5t-95 23.5t-65.5 66.5q-19 33 -27 73z" />
    <glyph glyph-name="afii10053" unicode="&#x404;" 
d="M54 195v345q0 68 28 116q23 40 62 62q42 25 101.5 25t101.5 -25q39 -23 63 -62q20 -34 25 -76l-61 -11q-4 32 -19 58q-16 28 -44 44t-65.5 16t-65.5 -16q-27 -16 -43 -44q-21 -36 -20 -87v-144h223v-56h-223v-145q0 -52 20 -87q16 -28 43 -44q28 -16 66 -16t65 16t44 44
q15 26 19 58l61 -11q-5 -41 -25 -76q-23 -40 -63 -62q-43 -25 -101.5 -25t-101.5 25q-39 23 -62 62q-28 48 -28 116z" />
    <glyph glyph-name="afii10101" unicode="&#x454;" 
d="M54 220v90q0 82 33 138q25 43 65.5 66.5t95 23.5t95 -23.5t65.5 -66.5q19 -33 27 -73l-59 -18q-6 35 -22 63q-18 31 -46 47q-26 15 -61 15q-34 0 -60 -15q-28 -16 -45 -47q-25 -44 -25 -110v-17h223v-56h-223v-17q0 -67 25 -110q18 -31 45 -47q26 -15 60 -15q35 0 61 15
q28 16 46 47q16 28 22 63l59 -18q-8 -40 -27 -73q-25 -43 -65.5 -66.5t-95 -23.5t-95 23.5t-65.5 66.5q-32 56 -33 138z" />
    <glyph glyph-name="sigma" unicode="&#x3c3;" 
d="M54 220v90q0 81 32 137q25 43 66 67q42 24 98 24q29 0 62 -1.5t73 -3.5t62 -3v-56l-87 5q31 -21 50 -55q27 -47 28 -114v-90q0 -84 -33 -140q-25 -43 -64 -66q-39 -22 -92 -22q-55 0 -96 24t-66 67q-32 56 -33 137zM117 220q0 -66 25 -109q18 -31 46 -48q27 -15 61 -15
q33 0 57 14q27 15 44 45q26 44 25 113v90q0 68 -25 113q-17 30 -44 45q-24 14 -56 14q-35 0 -63 -16t-45 -47q-25 -43 -25 -109v-90z" />
    <glyph glyph-name="sigma1" unicode="&#x3c2;" 
d="M54 220v90q0 77 31 131q24 42 65 65q41 24 97.5 24t97.5 -24q40 -23 65 -65q17 -30 25 -66l-59 -18q-6 30 -20 55q-18 30 -46 46q-27 16 -62 16q-36 0 -63 -15q-28 -16 -45 -46q-24 -41 -23 -103v-90q0 -59 23 -99q18 -31 48 -49q23 -13 64 -16q61 -4 97 -25
q33 -19 49 -47q16 -27 16 -59q0 -34 -15 -60q-16 -27 -47 -45q-43 -25 -108 -25h-1v56h1q45 0 72 16q18 10 28 26q8 14 7 32q0 17 -8 32q-9 15 -27 26q-25 14 -80 18q-53 4 -84 23q-42 24 -67 66q-31 53 -31 130z" />
    <glyph glyph-name="G" unicode="G" 
d="M54 195v345q0 68 28 116q23 40 62 62q42 25 101.5 25t101.5 -25q39 -23 63 -62q20 -34 25 -76l-61 -11q-4 32 -19 58q-16 28 -44 44t-65.5 16t-65.5 -16q-27 -16 -43 -44q-21 -36 -20 -87v-345q0 -51 20 -86q17 -29 44 -44q29 -17 68 -17q33 0 57 14q25 14 40 41
q21 37 21 92v145h-117v56h180v-201q0 -71 -29 -120q-23 -39 -60 -61q-38 -22 -92 -22q-60 0 -104 25q-40 23 -63 64q-27 47 -28 114z" />
    <glyph glyph-name="uni0262" unicode="&#x262;" 
d="M54 195v140q0 68 28 116q23 40 62 62q42 25 101.5 25t101.5 -25q39 -23 63 -62q20 -34 25 -76l-61 -11q-4 32 -19 58q-16 28 -44 44t-65.5 16t-65.5 -16q-27 -16 -43 -44q-21 -36 -20 -87v-140q0 -51 20 -86q17 -29 44 -44q29 -17 68 -17q33 0 57 14q25 14 40 41
q21 37 21 92v39h-117v56h180v-95q0 -71 -29 -120q-23 -39 -60 -61q-38 -22 -92 -22q-60 0 -104 25q-40 23 -63 64q-27 47 -28 114z" />
    <glyph glyph-name="uni0193" unicode="&#x193;" 
d="M54 195v345q0 68 28 116q23 40 62 62q42 25 101.5 25t101.5 -25q14 -8 25 -17v34q0 55 24 95q22 37 61 60q48 28 116 28v-56q-47 0 -80 -19q-58 -34 -58 -108v-155l-61 -11q-4 32 -19 58q-16 28 -44 44t-65.5 16t-65.5 -16q-27 -16 -43 -44q-21 -36 -20 -87v-345
q0 -51 20 -86q17 -29 44 -44q29 -17 68 -17q33 0 57 14q25 14 40 41q21 37 21 92v145h-117v56h180v-201q0 -71 -29 -120q-23 -39 -60 -61q-38 -22 -92 -22q-60 0 -104 25q-40 23 -63 64q-27 47 -28 114z" />
    <glyph glyph-name="uni029B" unicode="&#x29b;" 
d="M54 195v140q0 68 28 116q23 40 62 62q42 25 101.5 25t101.5 -25q14 -8 25 -17v34q0 55 24 95q22 37 61 60q48 28 116 28v-56q-47 0 -80 -19q-58 -34 -58 -108v-155l-61 -11q-4 32 -19 58q-16 28 -44 44t-65.5 16t-65.5 -16q-27 -16 -43 -44q-21 -36 -20 -87v-140
q0 -51 20 -86q17 -29 44 -44q29 -17 68 -17q33 0 57 14q25 14 40 41q21 37 21 92v39h-117v56h180v-95q0 -71 -29 -120q-23 -39 -60 -61q-38 -22 -92 -22q-60 0 -104 25q-40 23 -63 64q-27 47 -28 114z" />
    <glyph glyph-name="uni01E4" unicode="&#x1e4;" 
d="M54 195v345q0 68 28 116q23 40 62 62q42 25 101.5 25t101.5 -25q39 -23 63 -62q20 -34 25 -76l-61 -11q-4 32 -19 58q-16 28 -44 44t-65.5 16t-65.5 -16q-27 -16 -43 -44q-21 -36 -20 -87v-345q0 -51 20 -86q17 -29 44 -44q29 -17 68 -17q33 0 57 14q25 14 40 41
q17 30 21 71h-117v56h117v110h-117v56h180v-166h49v-56h-50q-4 -57 -28 -99q-23 -39 -60 -61q-38 -22 -92 -22q-60 0 -104 25q-40 23 -63 64q-27 47 -28 114z" />
    <glyph glyph-name="g.ss04" 
d="M44 -49q0 40 17 69q18 32 53 52q-11 10 -18 23q-12 21 -13 46q0 25 14 49q12 20 30 34q-32 20 -51 52q-22 38 -22 90t22 90q20 35 57 57q44 25 106 25q35 0 65 -8h159v-56l-74 3q8 -10 14 -21q22 -38 21.5 -90t-21.5 -90q-20 -35 -57 -56q-44 -25 -107 -25q-35 0 -63 7
q-12 -5 -22 -14q-16 -16 -15 -36q0 -20 14 -35q19 -19 68 -20h52q69 0 117 -27q33 -19 50.5 -49t17.5 -72t-19 -75q-20 -35 -58 -57q-52 -30 -131 -30q-77 0 -129 30q-38 22 -58 56q-19 33 -19 78zM106 -50q0 -27 12 -48q13 -23 39 -38q37 -21 93 -21q57 0 95 22
q26 15 39 37q12 21 12 47q0 25 -11 43t-32 31q-32 18 -80 18h-52q-42 0 -72 -18q-21 -12 -33 -31q-10 -17 -10 -42zM116.5 366q0.5 -35 14.5 -61q14 -24 39 -38q29 -17 70 -16.5t69 16.5q24 14 38 38q15 26 15 61.5t-15 60.5q-14 24 -38 38q-24 15 -56 17h-14q-41 0 -69 -17
q-24 -14 -39 -38q-15 -26 -14.5 -61z" />
    <glyph glyph-name="g.ss05" 
d="M54 220v90q0 87 34 144q24 42 61 63q36 21 82 21q42 0 73 -18q34 -20 57 -59l6 -12v81h116v-56h-53v-459q0 -83 -33 -139q-25 -43 -65 -66t-94 -23t-94 23t-65 66q-8 14 -14 29l56 25q5 -14 12 -26q18 -30 45 -46q26 -15 60 -15t59 15q27 16 45 46q25 44 25 111v66
l-6 -12q-23 -39 -57 -59q-31 -18 -73 -18q-46 0 -82 21q-38 22 -61 63q-33 57 -34 144zM117 220q0 -66 25 -109q18 -31 46 -48q27 -15 61 -15q30 0 51 12q25 14 41 44q26 45 26 116v90q0 71 -26 116q-17 29 -41 44q-22 12 -51 12q-34 0 -61 -15q-28 -16 -46 -48
q-25 -43 -25 -109v-90z" />
    <glyph glyph-name="uni0261" unicode="&#x261;" 
d="M54 220v90q0 87 34 144q24 42 61 63q36 21 82 21q42 0 73 -18q34 -20 57 -59l6 -12v81h116v-56h-53v-459q0 -83 -33 -139q-25 -43 -65 -66t-94 -23t-94 23t-65 66q-8 14 -14 29l56 25q5 -14 12 -26q18 -30 45 -46q26 -15 60 -15t59 15q27 16 45 46q25 44 25 111v66
l-6 -12q-23 -39 -57 -59q-31 -18 -73 -18q-46 0 -82 21q-38 22 -61 63q-33 57 -34 144zM117 220q0 -66 25 -109q18 -31 46 -48q27 -15 61 -15q30 0 51 12q25 14 41 44q26 45 26 116v90q0 71 -26 116q-17 29 -41 44q-22 12 -51 12q-34 0 -61 -15q-28 -16 -46 -48
q-25 -43 -25 -109v-90z" />
    <glyph glyph-name="glyph317" 
d="M54 220v90q0 87 34 144q24 42 61 63q36 21 82 21q42 0 73 -18q34 -20 57 -59l6 -12v81h116v-56h-53v-459q0 -83 -33 -139q-25 -43 -65 -66t-94 -23t-94 23t-65 66q-8 14 -14 29l56 25q5 -14 12 -26q18 -30 45 -46q26 -15 60 -15t59 15q27 16 45 46q25 44 25 111v66
l-6 -12q-23 -39 -57 -59q-31 -18 -73 -18q-46 0 -82 21q-38 22 -61 63q-33 57 -34 144zM117 220q0 -66 25 -109q18 -31 46 -48q27 -15 61 -15q30 0 51 12q25 14 41 44q26 45 26 116v90q0 71 -26 116q-17 29 -41 44q-22 12 -51 12q-34 0 -61 -15q-28 -16 -46 -48
q-25 -43 -25 -109v-90z" />
    <glyph glyph-name="g" unicode="g" 
d="M44 -49q0 40 17 69q18 32 53 52q-11 10 -18 23q-12 21 -13 46q0 25 14 49q12 20 30 34q-32 20 -51 52q-22 38 -22 90t22 90q20 35 57 57q44 25 106 25q35 0 65 -8h159v-56l-74 3q8 -10 14 -21q22 -38 21.5 -90t-21.5 -90q-20 -35 -57 -56q-44 -25 -107 -25q-35 0 -63 7
q-12 -5 -22 -14q-16 -16 -15 -36q0 -20 14 -35q19 -19 68 -20h52q69 0 117 -27q33 -19 50.5 -49t17.5 -72t-19 -75q-20 -35 -58 -57q-52 -30 -131 -30q-77 0 -129 30q-38 22 -58 56q-19 33 -19 78zM106 -50q0 -27 12 -48q13 -23 39 -38q37 -21 93 -21q57 0 95 22
q26 15 39 37q12 21 12 47q0 25 -11 43t-32 31q-32 18 -80 18h-52q-42 0 -72 -18q-21 -12 -33 -31q-10 -17 -10 -42zM116.5 366q0.5 -35 14.5 -61q14 -24 39 -38q29 -17 70 -16.5t69 16.5q24 14 38 38q15 26 15 61.5t-15 60.5q-14 24 -38 38q-24 15 -56 17h-14q-41 0 -69 -17
q-24 -14 -39 -38q-15 -26 -14.5 -61z" />
    <glyph glyph-name="uni1D77" unicode="&#x1d77;" 
d="M37 -149l74 -3q-8 10 -14 21q-22 38 -21.5 90t21.5 90q20 35 57 56q44 25 107 25q35 0 63 -7q12 5 22 14q16 16 15 36q0 20 -14 35q-19 19 -68 20h-52q-69 0 -117 27q-33 19 -50.5 49t-17.5 72t19 75q20 35 58 57q52 30 131 30q77 0 129 -30q38 -22 58 -56q19 -33 19 -78
q0 -40 -17 -69q-18 -32 -53 -52q11 -10 18 -23q12 -21 13 -46q0 -25 -14 -49q-12 -20 -30 -34q32 -20 51 -52q22 -38 22 -90t-22 -90q-20 -35 -57 -57q-44 -25 -106 -25q-35 0 -65 8h-159v56zM104 376q0 -25 11 -43t32 -31q32 -18 80 -18h52q42 0 72 18q21 12 33 31
q10 17 10 42q0 27 -12 48q-13 23 -39 38q-37 21 -93 21q-57 0 -95 -22q-26 -15 -39 -37q-12 -21 -12 -47zM138 -41.5q0 -35.5 15 -60.5q14 -24 38 -38q24 -15 56 -17h14q41 0 69 17q24 14 39 38q15 26 14.5 61t-14.5 61q-14 24 -39 38q-29 17 -70 16.5t-69 -16.5
q-24 -14 -38 -38q-15 -26 -15 -61.5z" />
    <glyph glyph-name="uni0260" unicode="&#x260;" 
d="M54 220v90q0 87 34 144q24 42 61 63q36 21 82 21q42 0 73 -18q34 -20 57 -59l6 -12v81q0 55 24 95q22 37 61 60q48 28 116 28v-56q-47 0 -80 -19q-58 -34 -58 -108v-515q0 -83 -33 -139q-25 -43 -65 -66t-94 -23t-94 23t-65 66q-8 14 -14 29l56 25q5 -14 12 -26
q18 -30 45 -46q26 -15 60 -15t59 15q27 16 45 46q25 44 25 111v66l-6 -12q-23 -39 -57 -59q-31 -18 -73 -18q-46 0 -82 21q-38 22 -61 63q-33 57 -34 144zM117 220q0 -66 25 -109q18 -31 46 -48q27 -15 61 -15q30 0 51 12q25 14 41 44q26 45 26 116v90q0 71 -26 116
q-17 29 -41 44q-22 12 -51 12q-34 0 -61 -15q-28 -16 -46 -48q-25 -43 -25 -109v-90z" />
    <glyph glyph-name="uni01E5" unicode="&#x1e5;" 
d="M21 -33h24q3 30 16 53q18 32 53 52q-11 10 -18 23q-12 21 -13 46q0 25 14 49q12 20 30 34q-32 20 -51 52q-22 38 -22 90t22 90q20 35 57 57q44 25 106 25q35 0 65 -8h159v-56l-74 3q8 -10 14 -21q22 -38 21.5 -90t-21.5 -90q-20 -35 -57 -56q-44 -25 -107 -25
q-35 0 -63 7q-12 -5 -22 -14q-16 -16 -15 -36q0 -20 14 -35q19 -19 68 -20h52q69 0 117 -27q33 -19 51 -49q13 -23 16 -54h22v-50h-24q-5 -23 -16 -43q-20 -35 -58 -57q-52 -30 -131 -30q-77 0 -129 30q-38 22 -58 56q-12 20 -16 44h-26v50zM107 -33h287q-2 14 -9 25
q-11 18 -32 31q-32 18 -80 18h-52q-42 0 -72 -18q-21 -12 -33 -31q-6 -11 -9 -25zM111 -83q3 -8 7 -15q13 -23 39 -38q37 -21 93 -21q57 0 95 22q26 15 39 37q3 7 6 15h-279zM116.5 366q0.5 -35 14.5 -61q14 -24 39 -38q29 -17 70 -16.5t69 16.5q24 14 38 38q15 26 15 61.5
t-15 60.5q-14 24 -38 38q-24 15 -56 17h-14q-41 0 -69 -17q-24 -14 -39 -38q-15 -26 -14.5 -61z" />
    <glyph glyph-name="O" unicode="O" 
d="M54 195v345q0 67 28 114q23 40 63 64q44 25 105 25t105 -25q40 -23 63 -64q27 -47 28 -114v-345q0 -67 -28 -114q-23 -40 -63 -64q-44 -25 -105 -25t-105 25q-40 23 -63 64q-27 47 -28 114zM117 195q0 -50 20 -86q17 -29 44 -44q29 -17 69 -17t69 17q28 16 44 44
q20 35 20 86v345q0 50 -20 86q-17 29 -44 44q-29 17 -69 17t-69 -17q-28 -16 -44 -44q-20 -35 -20 -86v-345z" />
    <glyph glyph-name="Omicron" unicode="&#x39f;" 
d="M54 195v345q0 67 28 114q23 40 63 64q44 25 105 25t105 -25q40 -23 63 -64q27 -47 28 -114v-345q0 -67 -28 -114q-23 -40 -63 -64q-44 -25 -105 -25t-105 25q-40 23 -63 64q-27 47 -28 114zM117 195q0 -50 20 -86q17 -29 44 -44q29 -17 69 -17t69 17q28 16 44 44
q20 35 20 86v345q0 50 -20 86q-17 29 -44 44q-29 17 -69 17t-69 -17q-28 -16 -44 -44q-20 -35 -20 -86v-345z" />
    <glyph glyph-name="afii10032" unicode="&#x41e;" 
d="M54 195v345q0 67 28 114q23 40 63 64q44 25 105 25t105 -25q40 -23 63 -64q27 -47 28 -114v-345q0 -67 -28 -114q-23 -40 -63 -64q-44 -25 -105 -25t-105 25q-40 23 -63 64q-27 47 -28 114zM117 195q0 -50 20 -86q17 -29 44 -44q29 -17 69 -17t69 17q28 16 44 44
q20 35 20 86v345q0 50 -20 86q-17 29 -44 44q-29 17 -69 17t-69 -17q-28 -16 -44 -44q-20 -35 -20 -86v-345z" />
    <glyph glyph-name="o" unicode="o" 
d="M54 220v90q0 81 33 137q25 43 66 67t97 24t97 -24t66 -67q32 -56 33 -137v-90q0 -81 -33 -137q-25 -43 -66 -67t-97 -24t-97 24t-66 67q-32 56 -33 137zM117 220q0 -66 25 -109q18 -31 46 -48q27 -15 62.5 -15t61.5 15q28 16 46 48q25 43 25 109v90q0 66 -25 109
q-18 31 -46 48q-26 15 -62 15t-62 -15q-28 -16 -46 -48q-25 -43 -25 -109v-90z" />
    <glyph glyph-name="omicron" unicode="&#x3bf;" 
d="M54 220v90q0 81 33 137q25 43 66 67t97 24t97 -24t66 -67q32 -56 33 -137v-90q0 -81 -33 -137q-25 -43 -66 -67t-97 -24t-97 24t-66 67q-32 56 -33 137zM117 220q0 -66 25 -109q18 -31 46 -48q27 -15 62.5 -15t61.5 15q28 16 46 48q25 43 25 109v90q0 66 -25 109
q-18 31 -46 48q-26 15 -62 15t-62 -15q-28 -16 -46 -48q-25 -43 -25 -109v-90z" />
    <glyph glyph-name="afii10080" unicode="&#x43e;" 
d="M54 220v90q0 81 33 137q25 43 66 67t97 24t97 -24t66 -67q32 -56 33 -137v-90q0 -81 -33 -137q-25 -43 -66 -67t-97 -24t-97 24t-66 67q-32 56 -33 137zM117 220q0 -66 25 -109q18 -31 46 -48q27 -15 62.5 -15t61.5 15q28 16 46 48q25 43 25 109v90q0 66 -25 109
q-18 31 -46 48q-26 15 -62 15t-62 -15q-28 -16 -46 -48q-25 -43 -25 -109v-90z" />
    <glyph glyph-name="Oslash" unicode="&#xd8;" 
d="M54 195v345q0 67 28 114q23 40 63 64q44 25 105 25t105 -25l26 64l58 -21l-35 -86q8 -10 14 -21q27 -47 28 -114v-345q0 -67 -28 -114q-23 -40 -63 -64q-44 -25 -105 -25t-105 25l-26 -64l-58 21l35 86q-8 10 -14 21q-27 47 -28 114zM117 195q0 -33 8 -60l208 526
q-7 5 -14 9q-29 17 -69 17t-69 -17q-28 -16 -44 -44q-20 -35 -20 -86v-345zM167 74q7 -5 14 -9q29 -17 69 -17t69 17q28 16 44 44q20 35 20 86v345q1 33 -8 60z" />
    <glyph glyph-name="oslash" unicode="&#xf8;" 
d="M54 220v90q0 81 33 137q25 43 66 67t97 24t97 -24l4 -2l31 58l55 -27l-40 -72q9 -11 16 -24q32 -56 33 -137v-90q0 -81 -33 -137q-25 -43 -66 -67t-97 -24t-97 24l-4 2l-31 -58l-55 27l40 72q-9 11 -16 24q-32 56 -33 137zM117 220q0 -58 19 -99l186 339q-5 4 -10 7
q-26 15 -62 15t-62 -15q-28 -16 -46 -48q-25 -43 -25 -109v-90zM178 70q5 -4 10 -7q27 -15 62.5 -15t61.5 15q28 16 46 48q25 43 25 109v90q1 58 -19 99z" />
    <glyph glyph-name="uni019F" unicode="&#x19f;" 
d="M54 195v345q0 67 28 114q23 40 63 64q44 25 105 25t105 -25q40 -23 63 -64q27 -47 28 -114v-345q0 -67 -28 -114q-23 -40 -63 -64q-44 -25 -105 -25t-105 25q-40 23 -63 64q-27 47 -28 114zM117 195q0 -50 20 -86q17 -29 44 -44q29 -17 69 -17t69 17q28 16 44 44
q20 35 20 86v145h-266v-145zM117 396h266v144q0 50 -20 86q-17 29 -44 44q-29 17 -69 17t-69 -17q-28 -16 -44 -44q-20 -35 -20 -86v-144z" />
    <glyph glyph-name="uni04E8" unicode="&#x4e8;" 
d="M54 195v345q0 67 28 114q23 40 63 64q44 25 105 25t105 -25q40 -23 63 -64q27 -47 28 -114v-345q0 -67 -28 -114q-23 -40 -63 -64q-44 -25 -105 -25t-105 25q-40 23 -63 64q-27 47 -28 114zM117 195q0 -50 20 -86q17 -29 44 -44q29 -17 69 -17t69 17q28 16 44 44
q20 35 20 86v145h-266v-145zM117 396h266v144q0 50 -20 86q-17 29 -44 44q-29 17 -69 17t-69 -17q-28 -16 -44 -44q-20 -35 -20 -86v-144z" />
    <glyph glyph-name="uni03F4" unicode="&#x3f4;" 
d="M54 195v345q0 67 28 114q23 40 63 64q44 25 105 25t105 -25q40 -23 63 -64q27 -47 28 -114v-345q0 -67 -28 -114q-23 -40 -63 -64q-44 -25 -105 -25t-105 25q-40 23 -63 64q-27 47 -28 114zM117 195q0 -50 20 -86q17 -29 44 -44q29 -17 69 -17t69 17q28 16 44 44
q20 35 20 86v145h-266v-145zM117 396h266v144q0 50 -20 86q-17 29 -44 44q-29 17 -69 17t-69 -17q-28 -16 -44 -44q-20 -35 -20 -86v-144z" />
    <glyph glyph-name="uni0275" unicode="&#x275;" 
d="M54 220v90q0 81 33 137q25 43 66 67t97 24t97 -24t66 -67q32 -56 33 -137v-90q0 -81 -33 -137q-25 -43 -66 -67t-97 -24t-97 24t-66 67q-32 56 -33 137zM117 220q0 -66 25 -109q18 -31 46 -48q27 -15 62.5 -15t61.5 15q28 16 46 48q25 43 25 109v17h-266v-17zM117 293
h266v17q0 66 -25 109q-18 31 -46 48q-26 15 -62 15t-62 -15q-28 -16 -46 -48q-25 -43 -25 -109v-17z" />
    <glyph glyph-name="uni04E9" unicode="&#x4e9;" 
d="M54 220v90q0 81 33 137q25 43 66 67t97 24t97 -24t66 -67q32 -56 33 -137v-90q0 -81 -33 -137q-25 -43 -66 -67t-97 -24t-97 24t-66 67q-32 56 -33 137zM117 220q0 -66 25 -109q18 -31 46 -48q27 -15 62.5 -15t61.5 15q28 16 46 48q25 43 25 109v17h-266v-17zM117 293
h266v17q0 66 -25 109q-18 31 -46 48q-26 15 -62 15t-62 -15q-28 -16 -46 -48q-25 -43 -25 -109v-17z" />
    <glyph glyph-name="uni0298" unicode="&#x298;" 
d="M54 195v345q0 67 28 114q23 40 63 64q44 25 105 25t105 -25q40 -23 63 -64q27 -47 28 -114v-345q0 -67 -28 -114q-23 -40 -63 -64q-44 -25 -105 -25t-105 25q-40 23 -63 64q-27 47 -28 114zM117 195q0 -50 20 -86q17 -29 44 -44q29 -17 69 -17t69 17q28 16 44 44
q20 35 20 86v345q0 50 -20 86q-17 29 -44 44q-29 17 -69 17t-69 -17q-28 -16 -44 -44q-20 -35 -20 -86v-345zM200 367.5q0 -22.5 13.5 -36t36.5 -13.5t36.5 13.5t13.5 36t-13.5 36.5t-36.5 14t-36.5 -14t-13.5 -36.5z" />
    <glyph glyph-name="uni1D16" unicode="&#x1d16;" 
d="M54 265v45q0 81 33 137q25 43 66 67t97 24t97 -24t66 -67q32 -56 33 -137v-45h-63v45q0 66 -25 109q-18 31 -46 48q-27 15 -62.5 15t-61.5 -15q-28 -16 -46 -48q-25 -43 -25 -109v-45h-63z" />
    <glyph glyph-name="uni1D17" unicode="&#x1d17;" 
d="M54 220v45h63v-45q0 -66 25 -109q18 -31 46 -48q27 -15 62.5 -15t61.5 15q28 16 46 48q25 43 25 109v45h63v-45q0 -81 -33 -137q-25 -43 -66 -67t-97 -24t-97 24t-66 67q-32 56 -33 137z" />
    <glyph glyph-name="Q" unicode="Q" 
d="M54 195v345q0 67 28 114q23 40 63 64q44 25 105 25t105 -25q40 -23 63 -64q27 -47 28 -114v-345q0 -67 -28 -114q-23 -40 -63 -64q-21 -12 -46 -18l35 -146h-62l-35 139q-59 1 -102 25q-40 23 -63 64q-27 47 -28 114zM117 195q0 -50 20 -86q17 -29 44 -44q29 -17 69 -17
t69 17q28 16 44 44q20 35 20 86v345q0 50 -20 86q-17 29 -44 44q-29 17 -69 17t-69 -17q-28 -16 -44 -44q-20 -35 -20 -86v-345z" />
    <glyph glyph-name="uni051A" unicode="&#x51a;" 
d="M54 195v345q0 67 28 114q23 40 63 64q44 25 105 25t105 -25q40 -23 63 -64q27 -47 28 -114v-345q0 -67 -28 -114q-23 -40 -63 -64q-21 -12 -46 -18l35 -146h-62l-35 139q-59 1 -102 25q-40 23 -63 64q-27 47 -28 114zM117 195q0 -50 20 -86q17 -29 44 -44q29 -17 69 -17
t69 17q28 16 44 44q20 35 20 86v345q0 50 -20 86q-17 29 -44 44q-29 17 -69 17t-69 -17q-28 -16 -44 -44q-20 -35 -20 -86v-345z" />
    <glyph glyph-name="q" unicode="q" 
d="M54 220v90q0 87 34 144q24 42 61 63q36 21 82 21q42 0 73 -18q34 -20 57 -59l6 -12v81h116v-56h-53v-623h53v-56h-170v56h54v230l-6 -12q-23 -39 -57 -59q-31 -18 -73 -18q-46 0 -82 21q-38 22 -61 63q-33 57 -34 144zM117 220q0 -66 25 -109q18 -31 46 -48
q27 -15 61 -15q30 0 51 12q25 14 41 44q26 45 26 116v90q0 71 -26 116q-17 29 -41 44q-22 12 -51 12q-34 0 -61 -15q-28 -16 -46 -48q-25 -43 -25 -109v-90z" />
    <glyph glyph-name="uni051B" unicode="&#x51b;" 
d="M54 220v90q0 87 34 144q24 42 61 63q36 21 82 21q42 0 73 -18q34 -20 57 -59l6 -12v81h116v-56h-53v-623h53v-56h-170v56h54v230l-6 -12q-23 -39 -57 -59q-31 -18 -73 -18q-46 0 -82 21q-38 22 -61 63q-33 57 -34 144zM117 220q0 -66 25 -109q18 -31 46 -48
q27 -15 61 -15q30 0 51 12q25 14 41 44q26 45 26 116v90q0 71 -26 116q-17 29 -41 44q-22 12 -51 12q-34 0 -61 -15q-28 -16 -46 -48q-25 -43 -25 -109v-90z" />
    <glyph glyph-name="uni024A" unicode="&#x24a;" 
d="M54 220v295q0 87 34 144q24 42 61 63q36 21 82 21q42 0 73 -18q34 -20 57 -59l6 -12v81h116v-56h-53v-679q0 -50 14 -76q13 -22 35 -34q29 -17 89 -17v-56q-88 0 -130 24q-31 18 -49 50q-21 37 -22 109v81l-6 -12q-23 -39 -57 -59q-31 -18 -73 -18q-46 0 -82 21
q-38 22 -61 63q-33 57 -34 144zM117 220q0 -66 25 -109q18 -31 46 -48q27 -15 61 -15q30 0 51 12q25 14 41 44q26 45 26 116v295q0 71 -26 116q-17 29 -41 44q-22 12 -51 12q-34 0 -61 -15q-28 -16 -46 -48q-25 -43 -25 -109v-295z" />
    <glyph glyph-name="uni024B" unicode="&#x24b;" 
d="M54 220v90q0 87 34 144q24 42 61 63q36 21 82 21q42 0 73 -18q34 -20 57 -59l6 -12v81h116v-56h-53v-474q0 -50 14 -76q13 -22 35 -34q29 -17 89 -17v-56q-88 0 -130 24q-31 18 -49 50q-21 37 -22 109v81l-6 -12q-23 -39 -57 -59q-31 -18 -73 -18q-46 0 -82 21
q-38 22 -61 63q-33 57 -34 144zM117 220q0 -66 25 -109q18 -31 46 -48q27 -15 61 -15q30 0 51 12q25 14 41 44q26 45 26 116v90q0 71 -26 116q-17 29 -41 44q-22 12 -51 12q-34 0 -61 -15q-28 -16 -46 -48q-25 -43 -25 -109v-90z" />
    <glyph glyph-name="uni02A0" unicode="&#x2a0;" 
d="M54 220v90q0 87 34 144q24 42 61 63q36 21 82 21q42 0 73 -18q34 -20 57 -59l6 -12v81q0 55 24 95q22 37 61 60q48 28 116 28v-56q-47 0 -80 -19q-58 -34 -58 -108v-679h53v-56h-170v56h54v230l-6 -12q-23 -39 -57 -59q-31 -18 -73 -18q-46 0 -82 21q-38 22 -61 63
q-33 57 -34 144zM117 220q0 -66 25 -109q18 -31 46 -48q27 -15 61 -15q30 0 51 12q25 14 41 44q26 45 26 116v90q0 71 -26 116q-17 29 -41 44q-22 12 -51 12q-34 0 -61 -15q-28 -16 -46 -48q-25 -43 -25 -109v-90z" />
    <glyph glyph-name="N" unicode="N" 
d="M17 0v56h53v623h-53v56h144l206 -631v575h-54v56h170v-56h-53v-679h-91l-206 631v-575h54v-56h-170z" />
    <glyph glyph-name="Nu" unicode="&#x39d;" 
d="M17 0v56h53v623h-53v56h144l206 -631v575h-54v56h170v-56h-53v-679h-91l-206 631v-575h54v-56h-170z" />
    <glyph glyph-name="uni0274" unicode="&#x274;" 
d="M17 0v56h53v418h-53v56h144l206 -455v399h-54v56h170v-56h-53v-474h-91l-206 455v-399h54v-56h-170z" />
    <glyph glyph-name="uni019D" unicode="&#x19d;" 
d="M-68 -127q47 0 80 19q58 34 58 108v679h-53v56h144l206 -631v575h-54v56h170v-56h-53v-679h-91l-206 631v-631q0 -55 -24 -95q-22 -37 -61 -60q-48 -28 -116 -28v56z" />
    <glyph glyph-name="n" unicode="n" 
d="M17 0v56h53v418h-53v56h116v-81l6 12q23 39 57 59q31 18 71.5 18t71.5 -18q34 -20 57 -59q34 -59 34 -151v-254h53v-56h-170v56h54v254q0 71 -26 116q-17 29 -41 44q-22 12 -50 12t-50 -12q-25 -14 -41 -44q-26 -45 -26 -116v-254h54v-56h-170z" />
    <glyph glyph-name="glyph350" 
d="M17 0v56h53v418h-53v56h116v-81l6 12q23 39 57 59q31 18 71.5 18t71.5 -18q34 -20 57 -59q34 -59 34 -151v-254h53v-56h-170v56h54v254q0 71 -26 116q-17 29 -41 44q-22 12 -50 12t-50 -12q-25 -14 -41 -44q-26 -45 -26 -116v-254h54v-56h-170z" />
    <glyph glyph-name="napostrophe" unicode="&#x149;" 
d="M17 0v56h53v418h-53v56h116v-81l6 12q23 39 57 59q31 18 71.5 18t71.5 -18q34 -20 57 -59q34 -59 34 -151v-254h53v-56h-170v56h54v254q0 71 -26 116q-17 29 -41 44q-22 12 -50 12t-50 -12q-25 -14 -41 -44q-26 -45 -26 -116v-254h54v-56h-170zM24 582q30 41 38 97
q-14 2 -23 11q-11 11 -11 30.5t11 31t31 11.5t31 -11t11 -31q0 -99 -50 -165z" />
    <glyph glyph-name="eng" unicode="&#x14b;" 
d="M17 0v56h53v418h-53v56h116v-81l6 12q23 39 57 59q31 18 71.5 18t71.5 -18q34 -20 57 -59q34 -59 34 -151v-310q0 -55 -24 -95q-22 -37 -61 -60q-48 -28 -117 -28v56q47 0 81 19q58 34 58 108v310q0 71 -26 116q-17 29 -41 44q-22 12 -50 12t-50 -12q-25 -14 -41 -44
q-26 -45 -26 -116v-254h54v-56h-170z" />
    <glyph glyph-name="Eng" unicode="&#x14a;" 
d="M70 0v735h63v-62q21 32 51 50q34 20 80 20t80 -20q35 -20 56 -58q29 -50 30 -125v-365q0 -59 -25 -101q-21 -37 -58 -58q-42 -24 -100 -24v56q37 0 64 16q24 14 39 39q17 30 17 72v365q0 54 -21 91q-16 27 -41 42q-25 14 -58.5 14t-57.5 -14q-25 -15 -42 -42
q-10 -17 -14 -37v-594h-63z" />
    <glyph glyph-name="uni0272" unicode="&#x272;" 
d="M-68 -127q47 0 80 19q58 34 58 108v474h-53v56h116v-81l6 12q23 39 57 59q31 18 71.5 18t71.5 -18q34 -20 57 -59q34 -59 34 -151v-254h53v-56h-170v56h54v254q0 71 -26 116q-17 29 -41 44q-22 12 -50 12t-50 -12q-25 -14 -41 -44q-26 -45 -26 -116v-310q0 -55 -24 -95
q-22 -37 -61 -60q-48 -28 -116 -28v56z" />
    <glyph glyph-name="uni0235" unicode="&#x235;" 
d="M17 0v56h53v418h-53v56h116v-74q3 7 7 13q21 36 51 54q26 15 59 15t59 -15q30 -18 51 -54q35 -60 35 -159v-128q16 3 31 3q32 0 56 -13q17 -10 27 -27q14 -25 13 -57q0 -31 -13 -54q-10 -18 -29 -28q-23 -14 -53 -14q-26 0 -46 12t-32 33q-11 19 -15 53q-44 -34 -76 -89
q-16 -27 -25 -57l-59 18q12 33 29 64q50 87 127 131q2 1 3 2v151q0 79 -27 125q-15 25 -35 37q-17 10 -38.5 10t-37.5 -10q-21 -12 -36 -37q-27 -46 -26 -125v-254h54v-56h-170zM395 99q0 -30 12 -42q9 -9 20 -9q13 0 22 9q11 11 11 31.5t-10 30.5t-28 10q-13 0 -27 -5v-25z
" />
    <glyph glyph-name="eta" unicode="&#x3b7;" 
d="M17 474v56h116v-81l6 12q23 39 57 59q31 18 71.5 18t71.5 -18q34 -20 57 -59q34 -59 34 -151v-515h-63v515q0 71 -26 116q-17 29 -41 44q-22 12 -50 12t-50 -12q-25 -14 -41 -44q-26 -45 -26 -116v-310h-63v474h-53z" />
    <glyph glyph-name="uni0220" unicode="&#x220;" 
d="M17 0v56h53v623h-53v56h116v-81l6 12q23 39 57 59q31 18 71.5 18t71.5 -18q34 -20 57 -59q34 -59 34 -151v-664h53v-56h-170v56h54v664q0 71 -26 116q-17 29 -41 44q-22 12 -50 12t-50 -12q-25 -14 -41 -44q-26 -45 -26 -116v-459h54v-56h-170z" />
    <glyph glyph-name="uni019E" unicode="&#x19e;" 
d="M17 0v56h53v418h-53v56h116v-81l6 12q23 39 57 59q31 18 71.5 18t71.5 -18q34 -20 57 -59q34 -59 34 -151v-459h53v-56h-170v56h54v459q0 71 -26 116q-17 29 -41 44q-22 12 -50 12t-50 -12q-25 -14 -41 -44q-26 -45 -26 -116v-254h54v-56h-170z" />
    <glyph glyph-name="U" unicode="U" 
d="M17 679v56h170v-56h-54v-484q0 -55 21 -92q16 -27 40 -41t56 -14t56 14q25 14 40 41q21 37 21 92v484h-54v56h170v-56h-53v-484q0 -71 -29 -120q-23 -39 -60 -61q-39 -22 -91.5 -22t-90.5 22q-37 22 -60 61q-28 49 -29 120v484h-53z" />
    <glyph glyph-name="uni1D1C" unicode="&#x1d1c;" 
d="M17 474v56h170v-56h-54v-279q0 -55 21 -92q16 -27 40 -41t56 -14t56 14q25 14 40 41q21 37 21 92v279h-54v56h170v-56h-53v-279q0 -71 -29 -120q-23 -39 -60 -61q-39 -22 -91.5 -22t-90.5 22q-37 22 -60 61q-28 49 -29 120v279h-53z" />
    <glyph glyph-name="u" unicode="u" 
d="M17 474v56h116v-310q0 -71 26 -116q17 -29 41 -44q22 -12 50 -12t50 12q25 14 41 44q26 45 26 116v254h-54v56h117v-474h53v-56h-116v81l-6 -12q-23 -39 -57 -59q-31 -18 -71.5 -18t-71.5 18q-34 20 -57 59q-34 59 -34 151v254h-53z" />
    <glyph glyph-name="upsilon" unicode="&#x3c5;" 
d="M62 220v310h63v-310q0 -68 25 -113q17 -30 44 -45q24 -14 56 -14t56 14q27 15 44 45q26 44 25 113v310h63v-310q0 -84 -33 -140q-25 -43 -64 -66q-39 -22 -91 -22t-91 22q-39 23 -64 66q-33 56 -33 140z" />
    <glyph glyph-name="uni01B2" unicode="&#x1b2;" 
d="M70 195v540h63v-540q0 -55 21 -92q16 -27 40 -41t56 -14t56 14q25 14 40 41q21 37 21 92v357q0 43 -17 73q-31 54 -100 54v56q57 0 98 -24q36 -21 57 -57q24 -42 25 -102v-357q0 -71 -29 -120q-23 -39 -60 -61q-39 -22 -91.5 -22t-90.5 22q-37 22 -60 61q-28 49 -29 120z
" />
    <glyph glyph-name="uni028B" unicode="&#x28b;" 
d="M70 220v310h63v-310q0 -71 26 -116q17 -29 41 -44q22 -12 50 -12t50 12q25 14 41 44q26 45 26 116v127q0 43 -17 73q-31 54 -100 54v56q57 0 98 -24q36 -21 57 -57q24 -42 25 -102v-127q0 -86 -33 -144q-24 -42 -62 -63q-36 -21 -84.5 -21t-85.5 21q-38 22 -62 63
q-33 57 -33 144z" />
    <glyph glyph-name="M" unicode="M" 
d="M17 0v56h53v623h-53v56h134l99 -402l99 402h134v-56h-53v-623h53v-56h-170v56h54v91q0 90 5 349q1 65 1 112l-95 -388h-56l-95 387q1 -88 3 -220q2 -147 3 -240v-91h54v-56h-170z" />
    <glyph glyph-name="Mu" unicode="&#x39c;" 
d="M17 0v56h53v623h-53v56h134l99 -402l99 402h134v-56h-53v-623h53v-56h-170v56h54v91q0 90 5 349q1 65 1 112l-95 -388h-56l-95 387q1 -88 3 -220q2 -147 3 -240v-91h54v-56h-170z" />
    <glyph glyph-name="afii10030" unicode="&#x41c;" 
d="M17 0v56h53v623h-53v56h134l99 -402l99 402h134v-56h-53v-623h53v-56h-170v56h54v91q0 90 5 349q1 65 1 112l-95 -388h-56l-95 387q1 -88 3 -220q2 -147 3 -240v-91h54v-56h-170z" />
    <glyph glyph-name="afii10078" unicode="&#x43c;" 
d="M17 0v56h53v418h-53v56h134l99 -290l99 290h134v-56h-53v-418h53v-56h-170v56h54v50q0 65 3 188t3 144l-95 -279h-56l-95 279q0 -21 3 -144t3 -188v-50h54v-56h-170z" />
    <glyph glyph-name="m" unicode="m" 
d="M17 0v56h45v418h-45v56h108v-37l2 4q13 23 31 33q14 8 31 8q18 0 33 -8q19 -11 32 -35q9 -15 14 -33q6 20 15 35q13 23 31 33q14 8 32 8t32 -8q19 -11 32 -35q27 -47 28 -130v-309h45v-56h-108v365q0 81 -26 108q-9 9 -20.5 9t-20.5 -9q-27 -27 -27 -108v-365h-62v365
q0 81 -27 108q-9 9 -20.5 9t-20.5 -9q-27 -27 -26 -108v-365h-108z" />
    <glyph glyph-name="glyph370" 
d="M17 0v56h45v418h-45v56h108v-37l2 4q13 23 31 33q14 8 31 8q18 0 33 -8q19 -11 32 -35q9 -15 14 -33q6 20 15 35q13 23 31 33q14 8 32 8t32 -8q19 -11 32 -35q27 -47 28 -130v-309h45v-56h-108v365q0 81 -26 108q-9 9 -20.5 9t-20.5 -9q-27 -27 -27 -108v-365h-62v365
q0 81 -27 108q-9 9 -20.5 9t-20.5 -9q-27 -27 -26 -108v-365h-108z" />
    <glyph glyph-name="glyph371" 
d="M17 0v56h45v418h-45v56h108v-37l2 4q13 23 31 33q14 8 31 8q18 0 33 -8q19 -11 32 -35q9 -15 14 -33q6 20 15 35q13 23 31 33q14 8 32 8t32 -8q19 -11 32 -35q27 -47 28 -130v-309h59v-203h-62v147h-60v365q0 81 -26 108q-9 9 -20.5 9t-20.5 -9q-27 -27 -27 -108v-365
h-62v365q0 81 -27 108q-9 9 -20.5 9t-20.5 -9q-27 -27 -26 -108v-365h-108z" />
    <glyph glyph-name="uni0271" unicode="&#x271;" 
d="M17 0v56h45v418h-45v56h108v-37l2 4q13 23 31 33q14 8 31 8q18 0 33 -8q19 -11 32 -35q9 -15 14 -33q6 20 15 35q13 23 31 33q14 8 32 8t32 -8q19 -11 32 -35q27 -47 28 -130v-365q0 -55 -24 -95q-22 -37 -61 -60q-48 -28 -117 -28v56q47 0 81 19q58 34 58 108v365
q0 81 -26 108q-9 9 -20.5 9t-20.5 -9q-27 -27 -27 -108v-365h-62v365q0 81 -27 108q-9 9 -20.5 9t-20.5 -9q-27 -27 -26 -108v-365h-108z" />
    <glyph glyph-name="uni026F" unicode="&#x26f;" 
d="M17 474v56h108v-365q0 -81 26 -108q9 -9 20.5 -9t20.5 9q27 27 27 108v365h62v-365q0 -81 27 -108q9 -9 20.5 -9t20.5 9q27 27 26 108v365h108v-56h-45v-418h45v-56h-108v37l-2 -4q-13 -23 -31 -33q-14 -8 -31 -8q-18 0 -33 8q-19 11 -32 35q-9 15 -14 33q-6 -20 -15 -35
q-13 -23 -31 -33q-14 -8 -32 -8t-32 8q-19 11 -32 35q-27 47 -28 130v309h-45z" />
    <glyph glyph-name="uni019C" unicode="&#x19c;" 
d="M17 679v56h108v-570q0 -81 26 -108q9 -9 20.5 -9t20.5 9q27 27 27 108v570h62v-570q0 -81 27 -108q9 -9 20.5 -9t20.5 9q27 27 26 108v570h108v-56h-45v-623h45v-56h-108v37l-2 -4q-13 -23 -31 -33q-14 -8 -31 -8q-18 0 -33 8q-19 11 -32 35q-9 15 -14 33q-6 -20 -15 -35
q-13 -23 -31 -33q-14 -8 -32 -8t-32 8q-19 11 -32 35q-27 47 -28 130v514h-45z" />
    <glyph glyph-name="uni0270" unicode="&#x270;" 
d="M17 474v56h108v-365q0 -81 26 -108q9 -9 20.5 -9t20.5 9q27 27 27 108v365h62v-365q0 -81 27 -108q9 -9 20.5 -9t20.5 9q27 27 26 108v365h108v-56h-45v-679h-63v242l-2 -4q-13 -23 -31 -33q-14 -8 -31 -8q-18 0 -33 8q-19 11 -32 35q-9 15 -14 33q-6 -20 -15 -35
q-13 -23 -31 -33q-14 -8 -32 -8t-32 8q-19 11 -32 35q-27 47 -28 130v309h-45z" />
    <glyph glyph-name="H" unicode="H" 
d="M17 0v56h53v623h-53v56h170v-56h-54v-265h234v265h-54v56h170v-56h-53v-623h53v-56h-170v56h54v302h-234v-302h54v-56h-170z" />
    <glyph glyph-name="Eta" unicode="&#x397;" 
d="M17 0v56h53v623h-53v56h170v-56h-54v-265h234v265h-54v56h170v-56h-53v-623h53v-56h-170v56h54v302h-234v-302h54v-56h-170z" />
    <glyph glyph-name="afii10031" unicode="&#x41d;" 
d="M17 0v56h53v623h-53v56h170v-56h-54v-265h234v265h-54v56h170v-56h-53v-623h53v-56h-170v56h54v302h-234v-302h54v-56h-170z" />
    <glyph glyph-name="uni04A2" unicode="&#x4a2;" 
d="M17 0v56h53v623h-53v56h170v-56h-54v-265h234v265h-54v56h170v-56h-53v-623h67v-203h-62v147h-122v56h54v302h-234v-302h54v-56h-170z" />
    <glyph glyph-name="afii10079" unicode="&#x43d;" 
d="M17 0v56h53v418h-53v56h170v-56h-54v-168h234v168h-54v56h170v-56h-53v-418h53v-56h-170v56h54v194h-234v-194h54v-56h-170z" />
    <glyph glyph-name="uni029C" unicode="&#x29c;" 
d="M17 0v56h53v418h-53v56h170v-56h-54v-168h234v168h-54v56h170v-56h-53v-418h53v-56h-170v56h54v194h-234v-194h54v-56h-170z" />
    <glyph glyph-name="uni04A3" unicode="&#x4a3;" 
d="M17 0v56h53v418h-53v56h170v-56h-54v-168h234v168h-54v56h170v-56h-53v-418h67v-203h-62v147h-122v56h54v194h-234v-194h54v-56h-170z" />
    <glyph glyph-name="Hbar" unicode="&#x126;" 
d="M17 0v56h53v449h-49v56h49v118h-53v56h170v-56h-54v-118h234v118h-54v56h170v-56h-53v-118h49v-56h-49v-449h53v-56h-170v56h54v302h-234v-302h54v-56h-170zM133 414h234v91h-234v-91z" />
    <glyph glyph-name="h" unicode="h" 
d="M17 0v56h53v623h-53v56h116v-286l6 12q23 39 57 59q31 18 71.5 18t71.5 -18q34 -20 57 -59q34 -59 34 -151v-254h53v-56h-170v56h54v254q0 71 -26 116q-17 29 -41 44q-22 12 -50 12t-50 -12q-25 -14 -41 -44q-26 -45 -26 -116v-254h54v-56h-170z" />
    <glyph glyph-name="uni04BB" unicode="&#x4bb;" 
d="M17 0v56h53v623h-53v56h116v-286l6 12q23 39 57 59q31 18 71.5 18t71.5 -18q34 -20 57 -59q34 -59 34 -151v-254h53v-56h-170v56h54v254q0 71 -26 116q-17 29 -41 44q-22 12 -50 12t-50 -12q-25 -14 -41 -44q-26 -45 -26 -116v-254h54v-56h-170z" />
    <glyph glyph-name="uni0266" unicode="&#x266;" 
d="M17 0v56h53v459q0 85 33 141q24 42 63 65q38 22 89 22t89 -22q39 -22 63 -65q20 -34 28 -76l-59 -19q-6 38 -23 67q-17 30 -43 45q-24 14 -55 14t-54 -13q-26 -15 -43 -45q-26 -45 -25 -114v-66l6 12q23 39 57 59q31 18 71.5 18t71.5 -18q34 -20 57 -59q34 -59 34 -151
v-254h53v-56h-170v56h54v254q0 71 -26 116q-17 29 -41 44q-22 12 -50 12t-50 -12q-25 -14 -41 -44q-26 -45 -26 -116v-254h54v-56h-170z" />
    <glyph glyph-name="uni0267" unicode="&#x267;" 
d="M17 0v56h53v459q0 85 33 141q24 42 63 65q38 22 89 22t89 -22q39 -22 63 -65q20 -34 28 -76l-59 -19q-6 38 -23 67q-17 30 -43 45q-24 14 -55 14t-54 -13q-26 -15 -43 -45q-26 -45 -25 -114v-66l6 12q23 39 57 59q31 18 71.5 18t71.5 -18q34 -20 57 -59q34 -59 34 -151
v-310q0 -55 -24 -95q-22 -37 -61 -60q-48 -28 -117 -28v56q47 0 81 19q58 34 58 108v310q0 71 -26 116q-17 29 -41 44q-22 12 -50 12t-50 -12q-25 -14 -41 -44q-26 -45 -26 -116v-254h54v-56h-170z" />
    <glyph glyph-name="uniA727" unicode="&#xa727;" 
d="M17 0v56h53v623h-53v56h116v-286l6 12q23 39 57 59q31 18 71.5 18t71.5 -18q34 -20 57 -59q34 -59 34 -151v-310q0 -55 -24 -95q-22 -37 -61 -60q-48 -28 -117 -28v56q47 0 81 19q58 34 58 108v310q0 71 -26 116q-17 29 -41 44q-22 12 -50 12t-50 -12q-25 -14 -41 -44
q-26 -45 -26 -116v-254h54v-56h-170z" />
    <glyph glyph-name="uni0265" unicode="&#x265;" 
d="M17 474v56h170v-56h-54v-254q0 -71 26 -116q17 -29 41 -44q22 -12 50 -12t50 12q25 14 41 44q26 45 26 116v254h-54v56h170v-56h-53v-623h53v-56h-116v286l-6 -12q-23 -39 -57 -59q-31 -18 -71.5 -18t-71.5 18q-34 20 -57 59q-34 59 -34 151v254h-53z" />
    <glyph glyph-name="uni02AE" unicode="&#x2ae;" 
d="M-68 474v56q88 0 130 -24q31 -18 49 -50q21 -37 22 -109v-127q0 -71 26 -116q17 -29 41 -44q22 -12 50 -12t50 12q25 14 41 44q26 45 26 116v254h-54v56h117v-679h53v-56h-170v56h54v230l-6 -12q-23 -39 -57 -59q-31 -18 -71.5 -18t-71.5 18q-34 20 -57 59
q-34 59 -34 151v127q0 50 -14 76q-13 22 -35 34q-29 17 -89 17z" />
    <glyph glyph-name="uni02AF" unicode="&#x2af;" 
d="M-68 474v56q88 0 130 -24q31 -18 49 -50q21 -37 22 -109v-127q0 -71 26 -116q17 -29 41 -44q22 -12 50 -12t50 12q25 14 41 44q26 45 26 116v254h-54v56h117v-530q0 -50 14 -76q13 -22 35 -34q29 -17 89 -17v-56q-88 0 -130 24q-31 18 -49 50q-21 37 -22 109v81l-6 -12
q-23 -39 -57 -59q-31 -18 -71.5 -18t-71.5 18q-34 20 -57 59q-34 59 -34 151v127q0 50 -14 76q-13 22 -35 34q-29 17 -89 17z" />
    <glyph glyph-name="hbar" unicode="&#x127;" 
d="M17 0v56h53v538h-49v56h49v29h-53v56h116v-85h117v-56h-117v-145l6 12q23 39 57 59q31 18 71.5 18t71.5 -18q34 -20 57 -59q34 -59 34 -151v-254h53v-56h-170v56h54v254q0 71 -26 116q-17 29 -41 44q-22 12 -50 12t-50 -12q-25 -14 -41 -44q-26 -45 -26 -116v-254h54v-56
h-170z" />
    <glyph glyph-name="afii10108" unicode="&#x45b;" 
d="M17 0v56h53v538h-49v56h49v29h-53v56h116v-85h117v-56h-117v-145l6 12q23 39 57 59q31 18 71.5 18t71.5 -18q34 -20 57 -59q34 -59 34 -151v-254h53v-56h-170v56h54v254q0 71 -26 116q-17 29 -41 44q-22 12 -50 12t-50 -12q-25 -14 -41 -44q-26 -45 -26 -116v-254h54v-56
h-170z" />
    <glyph glyph-name="F" unicode="F" 
d="M52 0v56h54v623h-54v56h378v-145h-63v89h-199v-269h194v-56h-194v-298h54v-56h-170z" />
    <glyph glyph-name="uni0191" unicode="&#x191;" 
d="M-33 -127q47 0 80 19q58 34 59 108v679h-54v56h378v-145h-63v89h-199v-269h194v-56h-194v-354q0 -55 -24 -95q-22 -37 -60 -60q-48 -28 -117 -28v56z" />
    <glyph glyph-name="glyph396" 
d="M159 0v56h54v559q0 43 19 76.5t56 54.5q50 29 126 29v-56q-54 0 -90 -20q-25 -14 -37 -36q-12 -21 -12 -48v-559h54v-56h-170z" />
    <glyph glyph-name="glyph397" 
d="M84 0v56h72v484q0 76 29 127q22 37 56 57q33 19 77 19q65 0 107 -42q45 -45 53 -121l-60 -13q-4 42 -22 72q-14 25 -35 37q-19 11 -43 11t-42 -11q-21 -12 -36 -36q-22 -39 -22 -100v-484h114v-56h-248z" />
    <glyph glyph-name="glyph398" 
d="M80 -139q57 0 86 17q23 13 36 36q17 29 17 86v580q0 79 23 119q19 33 51 52q42 24 127 24v-56q-57 0 -86 -17q-23 -13 -36 -36q-17 -29 -17 -86v-580q0 -79 -23 -119q-19 -33 -51 -52q-42 -24 -127 -24v56z" />
    <glyph glyph-name="uni0283" unicode="&#x283;" 
d="M80 -139q57 0 86 17q23 13 36 36q17 29 17 86v580q0 79 23 119q19 33 51 52q42 24 127 24v-56q-57 0 -86 -17q-23 -13 -36 -36q-17 -29 -17 -86v-580q0 -79 -23 -119q-19 -33 -51 -52q-42 -24 -127 -24v56z" />
    <glyph glyph-name="uni0284" unicode="&#x284;" 
d="M80 -139q57 0 86 17q23 13 36 36q17 29 17 86v104h-74v56h74v420q0 79 23 119q19 33 51 52q42 24 127 24v-56q-57 0 -86 -17q-23 -13 -36 -36q-17 -29 -17 -86v-420h74v-56h-74v-104q0 -79 -23 -119q-19 -33 -51 -52q-42 -24 -127 -24v56z" />
    <glyph glyph-name="longs" unicode="&#x17f;" 
d="M84 0v56h72v484q0 76 29 127q22 37 56 57q33 19 77 19q65 0 107 -42q45 -45 53 -121l-60 -13q-4 42 -22 72q-14 25 -35 37q-19 11 -43 11t-42 -11q-21 -12 -36 -36q-22 -39 -22 -100v-484h114v-56h-248z" />
    <glyph glyph-name="uni0286" unicode="&#x286;" 
d="M32 -90q0 40 17 71q13 23 36 36q29 17 69 17q29 0 59 -9v590q0 43 19 76.5t56 54.5q50 29 126 29v-56q-54 0 -90 -20q-25 -14 -37 -36q-12 -21 -12 -48v-618q82 -50 134 -140q14 -24 24 -49l-58 -21q-9 23 -21 45q-33 57 -80 95q-4 -54 -21 -83q-16 -28 -42 -42.5
t-58 -14.5q-38 0 -68 18q-23 13 -36 36q-17 29 -17 69zM94 -90q0 -33 18 -50q17 -17 41 -17q23 0 39 16q21 21 21 78v28q-30 13 -55 13q-21 0 -36 -9q-12 -7 -19 -18q-10 -17 -9 -41z" />
    <glyph glyph-name="uni027F" unicode="&#x27f;" 
d="M89 474v56q76 0 126 -29q36 -21 55 -53q18 -32 18 -73v-524h47v-56h-170v56h61v524q0 25 -11 44q-12 21 -36 35q-35 20 -90 20z" />
    <glyph glyph-name="uni0285" unicode="&#x285;" 
d="M75 474v56q72 0 121 -29q85 -49 85 -154v-347q0 -73 59 -107q35 -20 85 -20v-56q-72 0 -121 29q-85 49 -85 154v347q0 73 -59 107q-35 20 -85 20z" />
    <glyph glyph-name="glyph405" 
d="M70 440v56h111v83q0 59 23 99q18 31 47 48q30 17 69.5 17t69.5 -17q29 -17 47 -48q15 -27 21 -59l-60 -16q-3 26 -15 47q-11 19 -28 28q-15 9 -34.5 9t-34.5 -9q-16 -9 -27 -28q-16 -28 -16 -71v-83h169v-56h-169v-384h142v-56h-307v56h103v384h-111z" />
    <glyph glyph-name="uniAB35" unicode="&#xab35;" 
d="M70 440v56h111v83q0 59 23 99q18 31 47 48q30 17 69.5 17t69.5 -17q29 -17 47 -48q15 -27 21 -59l-60 -16q-3 26 -15 47q-11 19 -28 28q-15 9 -34.5 9t-34.5 -9q-16 -9 -27 -28q-16 -28 -16 -71v-83h169v-56h-169v-384h142v-56h-307v56h103v384h-111z" />
    <glyph glyph-name="glyph407" 
d="M75 440v56h144v84q0 79 23 119q19 33 51 52q42 24 127 24v-56q-57 0 -86 -17q-23 -13 -36 -36q-17 -29 -17 -86v-84h144v-56h-144v-440q0 -79 -23 -119q-19 -33 -51 -52q-42 -24 -127 -24v56q57 0 86 17q23 13 36 36q17 29 17 86v440h-144z" />
    <glyph glyph-name="florin" unicode="&#x192;" 
d="M75 440v56h144v84q0 79 23 119q19 33 51 52q42 24 127 24v-56q-57 0 -86 -17q-23 -13 -36 -36q-17 -29 -17 -86v-84h144v-56h-144v-440q0 -79 -23 -119q-19 -33 -51 -52q-42 -24 -127 -24v56q57 0 86 17q23 13 36 36q17 29 17 86v440h-144z" />
    <glyph glyph-name="f" unicode="f" 
d="M70 440v56h111v83q0 59 23 99q18 31 47 48q30 17 69.5 17t69.5 -17q29 -17 47 -48q15 -27 21 -59l-60 -16q-3 26 -15 47q-11 19 -28 28q-15 9 -34.5 9t-34.5 -9q-16 -9 -27 -28q-16 -28 -16 -71v-83h169v-56h-169v-384h142v-56h-307v56h103v384h-111z" />
    <glyph glyph-name="uni025F" unicode="&#x25f;" 
d="M42 -89l60 16q3 -26 15 -47q11 -19 28 -28q15 -9 34.5 -9t34.5 9q16 9 27 28q16 28 16 71v83h-169v56h169v384h-142v56h307v-56h-103v-384h111v-56h-111v-83q0 -59 -23 -99q-18 -31 -47 -48q-30 -17 -69.5 -17t-69.5 17q-29 17 -47 48q-15 27 -21 59z" />
    <glyph glyph-name="uniFB01" unicode="&#xfb01;" 
d="M21 0v56h72v384h-71v56h71v44q0 76 30 127q22 37 55 57q33 19 77 19q65 0 107 -42q45 -45 53 -121l-60 -13q-4 42 -21 72q-14 25 -36 37q-19 11 -43 11t-42 -11q-21 -12 -35 -36q-22 -39 -23 -100v-44h275v-440h53v-56h-170v56h54v384h-212v-384h114v-56h-248z" />
    <glyph glyph-name="glyph412" 
d="M21 0v56h72v384h-71v56h71v44q0 74 29 124q22 38 58 59q35 20 82.5 20t82.5 -20t58 -59q22 -37 27 -84v-524h53v-56h-170v56h54v524q-5 31 -19 56q-15 26 -38 39q-21 12 -48 12t-47 -12q-23 -13 -38 -39q-22 -38 -22 -96v-44h131v-56h-131v-384h114v-56h-248z" />
    <glyph glyph-name="glyph413" 
d="M17 -139q57 0 86 17q23 13 37 36q17 29 16 86v440h-134v56h134v84q0 79 23 119q19 33 52 52q42 24 126 24v-56q-57 0 -86 -17q-23 -13 -36 -36q-17 -29 -17 -86v-84h86v-56h-86v-440q0 -79 -23 -119q-19 -33 -51 -52q-42 -24 -127 -24v56zM367 0v735h63v-679h53v-56h-116
z" />
    <glyph glyph-name="uniFB02" unicode="&#xfb02;" 
d="M21 0v56h72v384h-71v56h71v44q0 74 29 124q22 38 58 59q35 20 82.5 20t82.5 -20t58 -59q22 -37 27 -84v-524h53v-56h-170v56h54v524q-5 31 -19 56q-15 26 -38 39q-21 12 -48 12t-47 -12q-23 -13 -38 -39q-22 -38 -22 -96v-44h131v-56h-131v-384h114v-56h-248z" />
    <glyph glyph-name="E" unicode="E" 
d="M52 0v56h54v623h-54v56h378v-145h-63v89h-199v-269h194v-56h-194v-298h199v89h63v-145h-378z" />
    <glyph glyph-name="Epsilon" unicode="&#x395;" 
d="M52 0v56h54v623h-54v56h378v-145h-63v89h-199v-269h194v-56h-194v-298h199v89h63v-145h-378z" />
    <glyph glyph-name="afii10022" unicode="&#x415;" 
d="M52 0v56h54v623h-54v56h378v-145h-63v89h-199v-269h194v-56h-194v-298h199v89h63v-145h-378z" />
    <glyph glyph-name="uni018E" unicode="&#x18e;" 
d="M70 0v145h63v-89h199v269h-194v56h194v298h-199v-89h-63v145h378v-56h-54v-623h54v-56h-378z" />
    <glyph glyph-name="uni2C7B" unicode="&#x2c7b;" 
d="M70 0v145h63v-89h199v170h-194v56h194v192h-199v-89h-63v145h378v-56h-54v-418h54v-56h-378z" />
    <glyph glyph-name="e" unicode="e" 
d="M54 220v90q0 81 33 137q25 43 66 67t97 24t97 -24t66 -67q32 -56 33 -137v-73h-329v-17q0 -64 24 -107q18 -32 48 -49q28 -16 66 -16t66 16q29 17 48 50q11 18 17 39l57 -23q-7 -24 -20 -45q-25 -44 -67 -68q-43 -25 -101.5 -25t-101.5 25q-42 24 -67 67q-32 55 -32 136z
M117 293h266v17q0 66 -25 109q-18 31 -46 48q-27 15 -62.5 15t-61.5 -15q-28 -16 -46 -48q-25 -43 -25 -109v-17z" />
    <glyph glyph-name="afii10070" unicode="&#x435;" 
d="M54 220v90q0 81 33 137q25 43 66 67t97 24t97 -24t66 -67q32 -56 33 -137v-73h-329v-17q0 -64 24 -107q18 -32 48 -49q28 -16 66 -16t66 16q29 17 48 50q11 18 17 39l57 -23q-7 -24 -20 -45q-25 -44 -67 -68q-43 -25 -101.5 -25t-101.5 25q-42 24 -67 67q-32 55 -32 136z
M117 293h266v17q0 66 -25 109q-18 31 -46 48q-27 15 -62.5 15t-61.5 -15q-28 -16 -46 -48q-25 -43 -25 -109v-17z" />
    <glyph glyph-name="uni01DD" unicode="&#x1dd;" 
d="M54 220v73h329v17q0 64 -24 107q-18 32 -48 49q-28 16 -66 16t-66 -16q-29 -17 -48 -50q-11 -18 -17 -39l-57 23q7 24 20 45q25 44 67 68q43 25 101.5 25t101.5 -25q42 -24 67 -67q32 -55 32 -136v-90q0 -81 -33 -137q-25 -43 -66 -67t-97 -24t-97 24t-66 67
q-32 56 -33 137zM117 220q0 -66 25 -109q18 -31 46 -48q27 -15 62.5 -15t61.5 15q28 16 46 48q25 43 25 109v17h-266v-17z" />
    <glyph glyph-name="uni0259" unicode="&#x259;" 
d="M54 220v73h329v17q0 64 -24 107q-18 32 -48 49q-28 16 -66 16t-66 -16q-29 -17 -48 -50q-11 -18 -17 -39l-57 23q7 24 20 45q25 44 67 68q43 25 101.5 25t101.5 -25q42 -24 67 -67q32 -55 32 -136v-90q0 -81 -33 -137q-25 -43 -66 -67t-97 -24t-97 24t-66 67
q-32 56 -33 137zM117 220q0 -66 25 -109q18 -31 46 -48q27 -15 62.5 -15t61.5 15q28 16 46 48q25 43 25 109v17h-266v-17z" />
    <glyph glyph-name="afii10846" unicode="&#x4d9;" 
d="M54 220v73h329v17q0 64 -24 107q-18 32 -48 49q-28 16 -66 16t-66 -16q-29 -17 -48 -50q-11 -18 -17 -39l-57 23q7 24 20 45q25 44 67 68q43 25 101.5 25t101.5 -25q42 -24 67 -67q32 -55 32 -136v-90q0 -81 -33 -137q-25 -43 -66 -67t-97 -24t-97 24t-66 67
q-32 56 -33 137zM117 220q0 -66 25 -109q18 -31 46 -48q27 -15 62.5 -15t61.5 15q28 16 46 48q25 43 25 109v17h-266v-17z" />
    <glyph glyph-name="uni018F" unicode="&#x18f;" 
d="M54 220v176h329v119q0 64 -24 107q-18 32 -48 49q-28 16 -66 16t-66 -16q-29 -17 -48 -50q-11 -18 -17 -39l-57 23q7 24 20 45q25 44 67 68q43 25 101.5 25t101.5 -25q42 -24 67 -67q32 -55 32 -136v-295q0 -81 -33 -137q-25 -43 -66 -67t-97 -24t-97 24t-66 67
q-32 56 -33 137zM117 220q0 -66 25 -109q18 -31 46 -48q27 -15 62.5 -15t61.5 15q28 16 46 48q25 43 25 109v120h-266v-120z" />
    <glyph glyph-name="uni04D8" unicode="&#x4d8;" 
d="M54 220v176h329v119q0 64 -24 107q-18 32 -48 49q-28 16 -66 16t-66 -16q-29 -17 -48 -50q-11 -18 -17 -39l-57 23q7 24 20 45q25 44 67 68q43 25 101.5 25t101.5 -25q42 -24 67 -67q32 -55 32 -136v-295q0 -81 -33 -137q-25 -43 -66 -67t-97 -24t-97 24t-66 67
q-32 56 -33 137zM117 220q0 -66 25 -109q18 -31 46 -48q27 -15 62.5 -15t61.5 15q28 16 46 48q25 43 25 109v120h-266v-120z" />
    <glyph glyph-name="uni0258" unicode="&#x258;" 
d="M54 237v73q0 81 33 137q25 43 66 67t97 24t97 -24t66 -67q32 -56 33 -137v-90q0 -80 -32 -136q-25 -44 -67 -67q-43 -25 -101.5 -25t-101.5 25q-42 24 -67 68q-12 21 -20 45l57 23q6 -21 17 -39q19 -32 48 -50q29 -16 66 -16q38 0 66 16q29 17 48 49q25 43 24 107v17
h-329zM117 293h266v17q0 66 -25 109q-18 31 -46 48q-27 15 -62.5 15t-61.5 -15q-28 -16 -46 -48q-25 -43 -25 -109v-17z" />
    <glyph glyph-name="T" unicode="T" 
d="M62 590v145h376v-145h-63v89h-94v-623h74v-56h-210v56h74v623h-94v-89h-63z" />
    <glyph glyph-name="Tau" unicode="&#x3a4;" 
d="M62 590v145h376v-145h-63v89h-94v-623h74v-56h-210v56h74v623h-94v-89h-63z" />
    <glyph glyph-name="afii10036" unicode="&#x422;" 
d="M62 590v145h376v-145h-63v89h-94v-623h74v-56h-210v56h74v623h-94v-89h-63z" />
    <glyph glyph-name="uni04AC" unicode="&#x4ac;" 
d="M62 590v145h376v-145h-63v89h-94v-623h74v-56h-6v-147h-62v147h-142v56h74v623h-94v-89h-63z" />
    <glyph glyph-name="uniA7B1" unicode="&#xa7b1;" 
d="M62 0v145h63v-89h94v623h-74v56h210v-56h-74v-623h94v89h63v-145h-376z" />
    <glyph glyph-name="Tbar" unicode="&#x166;" 
d="M62 590v145h376v-145h-63v89h-94v-320h113v-56h-113v-247h74v-56h-210v56h74v247h-113v56h113v320h-94v-89h-63z" />
    <glyph glyph-name="uni01AC" unicode="&#x1ac;" 
d="M70 565q0 85 27 132q12 21 29 31q13 7 28 7h284v-145h-63v89h-94v-623h74v-56h-210v56h74v623h-65q-3 0 -5 -2q-17 -17 -16 -112h-63z" />
    <glyph glyph-name="glyph435" 
d="M62 385v145h376v-145h-63v89h-94v-418h74v-56h-210v56h74v418h-94v-89h-63z" />
    <glyph glyph-name="glyph436" 
d="M62 385v145h376v-145h-63v89h-94v-418h74v-56h-6v-147h-62v147h-142v56h74v418h-94v-89h-63z" />
    <glyph glyph-name="uni04AD" unicode="&#x4ad;" 
d="M62 385v145h376v-145h-63v89h-94v-418h74v-56h-6v-147h-62v147h-142v56h74v418h-94v-89h-63z" />
    <glyph glyph-name="tau" unicode="&#x3c4;" 
d="M70 474v56h360v-56h-149v-474h-62v474h-149z" />
    <glyph glyph-name="t" unicode="t" 
d="M52 474v56h117v205h62v-205h171v-56h-171v-292q0 -55 20 -90q13 -23 33 -34q17 -10 39.5 -10t39.5 10q19 11 33 34q18 31 19 73l62 -10q-3 -51 -27 -91q-20 -35 -52 -54q-32 -18 -74.5 -18t-74.5 18q-32 19 -53 54q-27 47 -27 118v292h-117z" />
    <glyph glyph-name="uni0287" unicode="&#x287;" 
d="M23 375q3 51 27 91q20 35 52 54q32 18 74.5 18t74.5 -18q32 -19 53 -54q27 -47 27 -118v-292h117v-56h-117v-205h-62v205h-171v56h171v292q0 55 -20 90q-13 23 -33 34q-17 10 -39.5 10t-39.5 -10q-19 -11 -33 -34q-18 -31 -19 -73z" />
    <glyph glyph-name="uni01AB" unicode="&#x1ab;" 
d="M52 474v56h117v205h62v-205h171v-56h-171v-292q0 -55 20 -90q13 -23 33 -34q17 -10 39.5 -10t39.5 10q19 11 33 34q15 26 19 61v2q1 5 0 10l62 -10v-155q0 -55 -24 -95q-22 -37 -60 -60q-48 -28 -117 -28v56q47 0 80 19q58 34 59 108v22q-8 -6 -17 -12q-32 -18 -74.5 -18
t-74.5 18q-32 19 -53 54q-27 47 -27 118v292h-117z" />
    <glyph glyph-name="uni01AD" unicode="&#x1ad;" 
d="M52 474v56h117q0 55 23 95q22 37 61 60q48 28 117 28v-56q-47 0 -80 -19q-58 -34 -59 -108h171v-56h-171v-292q0 -55 20 -90q13 -23 33 -34q17 -10 39.5 -10t39.5 10q19 11 33 34q18 31 19 73l62 -10q-3 -51 -27 -91q-20 -35 -52 -54q-32 -18 -74.5 -18t-74.5 18
q-32 19 -53 54q-27 47 -27 118v292h-117z" />
    <glyph glyph-name="uni0288" unicode="&#x288;" 
d="M52 474v56h117v205h62v-205h171v-56h-171v-497q0 -55 20 -90q13 -23 33 -34q17 -10 39.5 -10t39.5 10q19 11 33 34q18 31 19 73l62 -10q-3 -51 -27 -91q-20 -35 -52 -54q-32 -18 -74.5 -18t-74.5 18q-32 19 -53 54q-27 47 -27 118v497h-117z" />
    <glyph glyph-name="uni0236" unicode="&#x236;" 
d="M49 -44q16 72 53 136q32 56 67 90v292h-117v56h117v205h62v-205h171v-56h-171v-248q30 13 63 13q35 0 63 -16q24 -14 38 -38q17 -29 17 -69t-17 -70q-13 -23 -36 -36q-30 -18 -68 -18q-32 0 -58 15t-42 42q-10 18 -16 46q-9 -13 -17 -28q-33 -58 -48 -123zM231 142
q0 -57 21 -78q16 -16 39 -16q25 0 41 17q18 18 18 51t-18 51q-16 16 -41 16q-21 0 -43 -13q-8 -4 -17 -11v-17z" />
    <glyph glyph-name="tbar" unicode="&#x167;" 
d="M52 474v56h117v205h62v-205h171v-56h-171v-128h104v-56h-104v-108q0 -55 20 -90q13 -23 33 -34q17 -10 39.5 -10t39.5 10q19 11 33 34q18 31 19 73l62 -10q-3 -51 -27 -91q-20 -35 -52 -54q-32 -18 -74.5 -18t-74.5 18q-32 19 -53 54q-27 47 -27 118v108h-85v56h85v128
h-117z" />
    <glyph glyph-name="S" unicode="S" 
d="M65 155l62 7q2 -33 18 -59q15 -26 39 -40q26 -15 63 -15t64 15q25 14 39 40q18 30 18 68q0 37 -20 72q-26 45 -111 96q-104 63 -138 121q-29 49 -29 103q0 53 25 97q22 37 59 59q41 24 98.5 24t99.5 -24q37 -21 58 -59q21 -36 25 -80l-62 -7q-2 33 -18 59q-15 26 -39 40
q-26 15 -63 15t-64 -15q-25 -14 -39 -40q-18 -30 -18 -68q0 -37 20 -72q26 -45 111 -96q104 -63 138 -121q29 -49 29 -103q0 -53 -25 -97q-22 -37 -59 -59q-41 -24 -98.5 -24t-99.5 24q-37 21 -58 59q-21 36 -25 80z" />
    <glyph glyph-name="afii10054" unicode="&#x405;" 
d="M65 155l62 7q2 -33 18 -59q15 -26 39 -40q26 -15 63 -15t64 15q25 14 39 40q18 30 18 68q0 37 -20 72q-26 45 -111 96q-104 63 -138 121q-29 49 -29 103q0 53 25 97q22 37 59 59q41 24 98.5 24t99.5 -24q37 -21 58 -59q21 -36 25 -80l-62 -7q-2 33 -18 59q-15 26 -39 40
q-26 15 -63 15t-64 -15q-25 -14 -39 -40q-18 -30 -18 -68q0 -37 20 -72q26 -45 111 -96q104 -63 138 -121q29 -49 29 -103q0 -53 -25 -97q-22 -37 -59 -59q-41 -24 -98.5 -24t-99.5 24q-37 21 -58 59q-21 36 -25 80z" />
    <glyph glyph-name="s" unicode="s" 
d="M68 394q0 39 17 68q17 30 51 50q46 26 114 26q66 0 110 -25q35 -20 56 -56q10 -18 15 -37l-60 -17q-3 13 -10 25q-14 24 -37 37q-29 17 -74 17q-47 0 -78 -18q-21 -12 -31 -30q-10 -17 -10 -40t11 -42q12 -21 34 -34q24 -14 80 -22q68 -10 101 -30q35 -20 55 -54.5
t20 -75.5q0 -39 -17 -68q-17 -30 -51 -50q-46 -26 -114 -26q-66 0 -110 25q-35 20 -56 56q-10 18 -15 37l60 17q3 -13 10 -25q14 -24 37 -37q29 -17 74 -17q47 0 78 18q21 12 31 30q10 17 10 40t-11 42q-12 21 -34 34q-24 14 -80 22q-68 10 -101 30q-35 20 -55 54.5
t-20 75.5z" />
    <glyph glyph-name="afii10102" unicode="&#x455;" 
d="M68 394q0 39 17 68q17 30 51 50q46 26 114 26q66 0 110 -25q35 -20 56 -56q10 -18 15 -37l-60 -17q-3 13 -10 25q-14 24 -37 37q-29 17 -74 17q-47 0 -78 -18q-21 -12 -31 -30q-10 -17 -10 -40t11 -42q12 -21 34 -34q24 -14 80 -22q68 -10 101 -30q35 -20 55 -54.5
t20 -75.5q0 -39 -17 -68q-17 -30 -51 -50q-46 -26 -114 -26q-66 0 -110 25q-35 20 -56 56q-10 18 -15 37l60 17q3 -13 10 -25q14 -24 37 -37q29 -17 74 -17q47 0 78 18q21 12 31 30q10 17 10 40t-11 42q-12 21 -34 34q-24 14 -80 22q-68 10 -101 30q-35 20 -55 54.5
t-20 75.5z" />
    <glyph glyph-name="uni01A7" unicode="&#x1a7;" 
d="M65 580q3 44 25 80q22 37 58 59q41 24 99 24t99 -24q37 -21 59 -59q25 -44 25 -97q0 -54 -29 -103q-34 -59 -138 -121q-85 -51 -111 -96q-20 -35 -20 -72t18 -68q15 -25 39 -40q27 -15 64 -15q36 0 63 15q25 14 39 40q15 26 18 59l62 -7q-3 -44 -25 -80q-22 -37 -58 -59
q-41 -24 -99 -24t-99 24q-37 21 -59 59q-25 44 -25 97q0 54 29 103q34 59 138 121q85 51 111 96q20 35 20 72t-18 68q-15 25 -39 40q-27 15 -64 15q-36 0 -63 -15q-25 -14 -39 -40q-15 -26 -18 -59z" />
    <glyph glyph-name="uni01A8" unicode="&#x1a8;" 
d="M65 420q5 19 15 36q21 36 57 57q44 25 110 25q69 0 115 -27q33 -19 51 -49q17 -29 17 -64q0 -37 -19 -69q-21 -37 -61 -60q-31 -18 -96 -35q-48 -13 -71 -26q-27 -16 -40 -38q-11 -19 -11 -39q0 -19 10 -35q10 -18 31 -30q31 -18 80 -18q45 0 75 17q24 14 37 37
q7 12 10 25l60 -17q-5 -19 -15 -36q-21 -36 -57 -57q-44 -25 -110 -25q-69 0 -115 27q-33 19 -51 49q-17 29 -17 64q0 37 19 69q21 37 61 60q31 18 96 35q48 13 71 26q27 16 40 38q11 19 11 39q0 29 -22 50q-8 8 -19 15q-31 18 -80 18q-45 0 -75 -17q-24 -14 -37 -37
q-7 -12 -10 -25z" />
    <glyph glyph-name="glyph452" 
d="M65 420q5 19 15 36q21 36 57 57q44 25 110 25q69 0 115 -27q33 -19 51 -49q17 -29 17 -64q0 -37 -19 -69q-21 -37 -61 -60q-31 -18 -96 -35q-48 -13 -71 -26q-27 -16 -40 -38q-11 -19 -11 -39q0 -19 10 -35q10 -18 31 -30q31 -18 80 -18q45 0 75 17q24 14 37 37
q7 12 10 25l60 -17q-5 -19 -15 -36q-21 -36 -57 -57q-44 -25 -110 -25q-69 0 -115 27q-33 19 -51 49q-17 29 -17 64q0 37 19 69q21 37 61 60q31 18 96 35q48 13 71 26q27 16 40 38q11 19 11 39q0 29 -22 50q-8 8 -19 15q-31 18 -80 18q-45 0 -75 -17q-24 -14 -37 -37
q-7 -12 -10 -25z" />
    <glyph glyph-name="uni0282" unicode="&#x282;" 
d="M65 0v110h4l60 17q3 -13 10 -25q14 -24 37 -37q29 -17 74 -17q47 0 78 18q21 12 31 30q10 17 10 40t-11 42q-12 21 -34 34q-24 14 -80 22q-68 10 -101 30q-35 20 -55 54.5t-20 75.5q0 39 17 68q17 30 51 50q46 26 114 26q66 0 110 -25q35 -20 56 -56q10 -18 15 -37
l-60 -17q-3 13 -10 25q-14 24 -37 37q-29 17 -74 17q-47 0 -78 -18q-21 -12 -31 -30q-10 -17 -10 -40t11 -42q12 -21 34 -34q24 -14 80 -22q68 -10 101 -30q35 -20 55 -54.5t20 -75.5q0 -39 -17 -68q-17 -30 -51 -50q-46 -26 -114 -26q-66 0 -110 25q-7 4 -12 8v-25
q0 -50 14 -76q13 -22 35 -34q29 -17 90 -17v-56q-88 0 -131 24q-31 18 -49 50q-22 37 -22 109z" />
    <glyph glyph-name="uni2C7E" unicode="&#x2c7e;" 
d="M65 134v21l62 7q2 -33 18 -59q15 -26 39 -40q26 -15 63 -15t64 15q25 14 39 40q18 30 18 68q0 37 -20 72q-26 45 -111 96q-104 63 -138 121q-29 49 -29 103q0 53 25 97q22 37 59 59q41 24 98.5 24t99.5 -24q37 -21 58 -59q21 -36 25 -80l-62 -7q-2 33 -18 59
q-15 26 -39 40q-26 15 -63 15t-64 -15q-25 -14 -39 -40q-18 -30 -18 -68q0 -37 20 -72q26 -45 111 -96q104 -63 138 -121q29 -49 29 -103q0 -53 -25 -97q-22 -37 -59 -59q-41 -24 -99 -24t-100 24q8 -19 19 -37q35 -60 92 -93q60 -35 171 -35h1v-56h-1q-132 0 -204 41
q-70 40 -112 114q-49 84 -48 184z" />
    <glyph glyph-name="uni023F" unicode="&#x23f;" 
d="M65 110l7 1l57 16q3 -13 10 -25q14 -24 37 -37q29 -17 74 -17q47 0 78 18q21 12 31 30q10 17 10 40t-11 42q-12 21 -34 34q-24 14 -80 22q-68 10 -101 30q-35 20 -55 54.5t-20 75.5q0 39 17 68q17 30 51 50q46 26 114 26q66 0 110 -25q35 -20 56 -56q10 -18 15 -37
l-60 -17q-3 13 -10 25q-14 24 -37 37q-29 17 -74 17q-47 0 -78 -18q-21 -12 -31 -30q-10 -17 -10 -40t11 -42q12 -21 34 -34q24 -14 80 -22q68 -10 101 -30q35 -20 55 -54.5t20 -75.5q0 -39 -17 -68q-17 -30 -51 -50q-46 -26 -114 -26q-55 0 -95 18q6 -13 13 -27
q37 -64 97 -98q58 -34 164 -34h1v-56h-1q-126 0 -196 40q-72 41 -117 120q-41 71 -51 155z" />
    <glyph glyph-name="Z" unicode="Z" 
d="M70 0v56l288 623h-225v-89h-63v145h360v-56l-288 -623h225v89h63v-145h-360z" />
    <glyph glyph-name="Zeta" unicode="&#x396;" 
d="M70 0v56l288 623h-225v-89h-63v145h360v-56l-288 -623h225v89h63v-145h-360z" />
    <glyph glyph-name="z" unicode="z" 
d="M70 0v56l285 418h-222v-89h-63v145h360v-56l-285 -418h222v89h63v-145h-360z" />
    <glyph glyph-name="uni0224" unicode="&#x224;" 
d="M70 0v56l288 623h-225v-89h-63v145h360v-56l-288 -623h118q46 0 82 -21q35 -20 57 -59q30 -53 31 -131h-63q0 64 -23 104q-15 26 -38 39q-21 12 -46 12h-190z" />
    <glyph glyph-name="uni0225" unicode="&#x225;" 
d="M70 0v56l285 418h-222v-89h-63v145h360v-56l-285 -418h115q46 0 82 -21q35 -20 57 -59q30 -53 31 -131h-63q0 64 -23 104q-15 26 -38 39q-21 12 -46 12h-190z" />
    <glyph glyph-name="uni2C7F" unicode="&#x2c7f;" 
d="M70 0l295 679h-232v-89h-63v145h360v-56l-289 -666q104 -105 151 -131q53 -31 137 -31h1v-56h-1q-102 0 -168 38q-65 38 -191 167z" />
    <glyph glyph-name="uni0240" unicode="&#x240;" 
d="M70 0l292 474h-229v-89h-63v145h360v-56l-284 -461l4 -4q101 -102 146 -128q51 -30 133 -30h1v-56h-1q-99 0 -163 37t-191 168h-5z" />
    <glyph glyph-name="uni2C6B" unicode="&#x2c6b;" 
d="M70 0v56l288 623h-225v-89h-63v145h360v-56l-288 -623h306v-203h-63v147h-315z" />
    <glyph glyph-name="uni2C6C" unicode="&#x2c6c;" 
d="M70 0v56l285 418h-222v-89h-63v145h360v-56l-285 -418h303v-203h-63v147h-315z" />
    <glyph glyph-name="uni0291" unicode="&#x291;" 
d="M70 0v56l285 418h-222v-89h-63v145h360v-56l-285 -418h75q37 61 81 87q33 19 71 19q32 0 54 -12q38 -22 38 -69q0 -22 -10 -38q-10 -17 -28 -28q-26 -15 -64 -15h-108q-20 -45 -37 -106l-60 14q15 51 34 92h-121zM286 56h76q23 0 34 11q6 6 6 14q0 10 -7 17q-8 8 -23 8
q-24 0 -45 -12q-22 -12 -41 -38z" />
    <glyph glyph-name="alpha" unicode="&#x3b1;" 
d="M38 220v90q0 85 33 142q24 42 63 65q37 21 87 21q32 0 59 -15q34 -20 60 -66q15 -26 31 -72l2 10q12 71 22 135h63q-15 -71 -31 -150q-12 -59 -24 -109q13 -54 27 -121q16 -79 32 -150h-63q-11 64 -23 135l-4 22q-18 -56 -35 -86q-26 -45 -59 -64q-25 -15 -57 -15
q-50 0 -86 21q-39 22 -64 65q-33 57 -33 142zM101 220q0 -70 25 -115q17 -29 43 -44q22 -13 52 -13q20 0 36 9q23 13 41 44q26 46 52 171q-25 113 -50 155q-18 31 -42 45q-17 10 -37 10q-30 0 -52 -13q-26 -15 -43 -44q-26 -45 -25 -115v-90z" />
    <glyph glyph-name="uniAB64" unicode="&#xab64;" 
d="M38 220v90q0 85 33 142q24 42 63 65q37 21 87 21q32 0 59 -15q34 -20 60 -66q15 -26 31 -72l2 10q12 71 22 135h63q-15 -71 -31 -150q-12 -59 -24 -109q13 -54 27 -121q16 -79 32 -150h-63q-11 64 -23 135l-4 22q-18 -56 -35 -86q-26 -45 -59 -64q-25 -15 -57 -15
q-50 0 -86 21q-39 22 -64 65q-33 57 -33 142zM101 220q0 -70 25 -115q17 -29 43 -44q22 -13 52 -13q20 0 36 9q23 13 41 44q26 46 52 171q-25 113 -50 155q-18 31 -42 45q-17 10 -37 10q-30 0 -52 -13q-26 -15 -43 -44q-26 -45 -25 -115v-90z" />
    <glyph glyph-name="Gamma" unicode="&#x393;" 
d="M52 0v56h54v623h-54v56h394v-145h-63v89h-215v-623h54v-56h-170z" />
    <glyph glyph-name="afii10020" unicode="&#x413;" 
d="M52 0v56h54v623h-54v56h394v-145h-63v89h-215v-623h54v-56h-170z" />
    <glyph glyph-name="glyph470" 
d="M52 0v56h54v418h-54v56h394v-145h-63v89h-215v-418h54v-56h-170z" />
    <glyph glyph-name="glyph471" 
d="M75 0v56h151v418h-137v56h199v-474h137v-56h-350zM100 657v56h300v-56h-300z" />
    <glyph glyph-name="afii10068" unicode="&#x433;" 
d="M52 0v56h54v418h-54v56h394v-145h-63v89h-215v-418h54v-56h-170z" />
    <glyph glyph-name="afii10050" unicode="&#x490;" 
d="M52 0v56h54v623h-54v56h331v155h63v-211h-278v-623h54v-56h-170z" />
    <glyph glyph-name="afii10098" unicode="&#x491;" 
d="M52 0v56h54v418h-54v56h331v155h63v-211h-278v-418h54v-56h-170z" />
    <glyph glyph-name="uni0492" unicode="&#x492;" 
d="M21 325v56h85v298h-54v56h394v-145h-63v89h-215v-298h94v-56h-94v-269h54v-56h-170v56h54v269h-85z" />
    <glyph glyph-name="glyph476" 
d="M21 226v56h85v192h-54v56h394v-145h-63v89h-215v-192h94v-56h-94v-170h54v-56h-170v56h54v170h-85z" />
    <glyph glyph-name="glyph477" 
d="M65 420q5 19 15 36q21 36 57 57q44 25 110 25q69 0 115 -27q33 -19 51 -49q17 -29 17 -64q0 -37 -19 -69q-21 -37 -61 -60q-22 -13 -62 -25l27 -103l-60 -14l-27 99q-29 -9 -45 -18q-27 -16 -40 -38q-11 -19 -11 -39q0 -19 10 -35q10 -18 31 -30q31 -18 80 -18
q45 0 75 17q24 14 37 37q7 12 10 25l60 -17q-5 -19 -15 -36q-21 -36 -57 -57q-44 -25 -110 -25q-69 0 -115 27q-33 19 -51 49q-17 29 -17 64q0 37 19 69q21 37 61 60q22 13 62 25l-27 103l60 14l27 -99q29 9 45 18q27 16 40 38q11 19 11 39q0 29 -22 50q-8 8 -19 15
q-31 18 -80 18q-45 0 -75 -17q-24 -14 -37 -37q-7 -12 -10 -25z" />
    <glyph glyph-name="uni1D24" unicode="&#x1d24;" 
d="M65 420q5 19 15 36q21 36 57 57q44 25 110 25q69 0 115 -27q33 -19 51 -49q17 -29 17 -64q0 -37 -19 -69q-21 -37 -61 -60q-22 -13 -62 -25l27 -103l-60 -14l-27 99q-29 -9 -45 -18q-27 -16 -40 -38q-11 -19 -11 -39q0 -19 10 -35q10 -18 31 -30q31 -18 80 -18
q45 0 75 17q24 14 37 37q7 12 10 25l60 -17q-5 -19 -15 -36q-21 -36 -57 -57q-44 -25 -110 -25q-69 0 -115 27q-33 19 -51 49q-17 29 -17 64q0 37 19 69q21 37 61 60q22 13 62 25l-27 103l60 14l27 -99q29 9 45 18q27 16 40 38q11 19 11 39q0 29 -22 50q-8 8 -19 15
q-31 18 -80 18q-45 0 -75 -17q-24 -14 -37 -37q-7 -12 -10 -25z" />
    <glyph glyph-name="uni0493" unicode="&#x493;" 
d="M21 226v56h85v192h-54v56h394v-145h-63v89h-215v-192h94v-56h-94v-170h54v-56h-170v56h54v170h-85z" />
    <glyph glyph-name="gamma" unicode="&#x3b3;" 
d="M42 509l53 29q132 -222 161 -426q112 247 111 365v53h63v-53q0 -145 -166 -477v-205h-63v205q0 238 -159 509z" />
    <glyph glyph-name="Lambda" unicode="&#x39b;" 
d="M17 0v56h53v18q0 61 17 132q9 36 25 108q54 239 110 421h56q56 -182 110 -421q16 -72 25 -108q17 -70 17 -132v-18h53v-56h-170v56h54v18q0 60 -15 129q-8 35 -22 105q-39 190 -80 343q-41 -153 -80 -343q-14 -70 -22 -105q-15 -69 -15 -129v-18h54v-56h-170z" />
    <glyph glyph-name="uni0245" unicode="&#x245;" 
d="M17 0v56h53v18q0 61 17 132q9 36 25 108q54 239 110 421h56q56 -182 110 -421q16 -72 25 -108q17 -70 17 -132v-18h53v-56h-170v56h54v18q0 60 -15 129q-8 35 -22 105q-39 190 -80 343q-41 -153 -80 -343q-14 -70 -22 -105q-15 -69 -15 -129v-18h54v-56h-170z" />
    <glyph glyph-name="Delta" unicode="&#x394;" 
d="M70 0v74q0 61 17 132q9 36 25 108q54 239 110 421h56q56 -182 110 -421q16 -72 25 -108q17 -70 17 -132v-74h-360zM133 56h234v18q0 60 -15 129q-8 35 -22 105q-39 190 -80 343q-41 -153 -80 -343q-14 -70 -22 -105q-15 -69 -15 -129v-18z" />
    <glyph glyph-name="delta" unicode="&#x3b4;" 
d="M54 211v87q0 64 27 109q27 47 77 70q-5 2 -10 5q-25 15 -40 40q-18 32 -19 73q0 44 21 80q18 30 48 47q36 21 83 21q76 0 162 -49v-56q-87 49 -154 49q-33 0 -56 -13q-18 -10 -29 -29q-13 -22 -12 -49q0 -25 11 -45q9 -16 25 -25q16 -10 56 -16q80 -14 118 -36
q39 -23 60 -60q23 -40 24 -116v-87q0 -76 -31 -129q-25 -42 -65 -66q-42 -24 -100 -24t-100 24q-41 24 -65 66q-30 53 -31 129zM117 211q0 -60 23 -101q18 -30 46 -46q27 -16 64 -16t64 16q28 16 46 46q23 41 23 101v87q0 58 -17 88q-16 27 -44 44q-25 15 -89 26
q-13 2 -24 5q-11 -4 -22 -10q-28 -16 -46 -47q-25 -43 -24 -106v-87z" />
    <glyph glyph-name="afii10066.locl" 
d="M54 211v87q0 64 27 109q27 47 77 70q-5 2 -10 5q-25 15 -40 40q-18 32 -19 73q0 44 21 80q18 30 48 47q36 21 83 21q76 0 162 -49v-56q-87 49 -154 49q-33 0 -56 -13q-18 -10 -29 -29q-13 -22 -12 -49q0 -25 11 -45q9 -16 25 -25q16 -10 56 -16q80 -14 118 -36
q39 -23 60 -60q23 -40 24 -116v-87q0 -76 -31 -129q-25 -42 -65 -66q-42 -24 -100 -24t-100 24q-41 24 -65 66q-30 53 -31 129zM117 211q0 -60 23 -101q18 -30 46 -46q27 -16 64 -16t64 16q28 16 46 46q23 41 23 101v87q0 58 -17 88q-16 27 -44 44q-25 15 -89 26
q-13 2 -24 5q-11 -4 -22 -10q-28 -16 -46 -47q-25 -43 -24 -106v-87z" />
    <glyph glyph-name="uni1E9F" unicode="&#x1e9f;" 
d="M54 211v87q0 64 27 109q27 47 77 70q-5 2 -10 5q-25 15 -40 40q-18 32 -19 73q0 44 21 80q18 30 48 47q36 21 83 21q76 0 162 -49v-56q-87 49 -154 49q-33 0 -56 -13q-18 -10 -29 -29q-13 -22 -12 -49q0 -25 11 -45q9 -16 25 -25q16 -10 56 -16q80 -14 118 -36
q39 -23 60 -60q23 -40 24 -116v-87q0 -76 -31 -129q-25 -42 -65 -66q-42 -24 -100 -24t-100 24q-41 24 -65 66q-30 53 -31 129zM117 211q0 -60 23 -101q18 -30 46 -46q27 -16 64 -16t64 16q28 16 46 46q23 41 23 101v87q0 58 -17 88q-16 27 -44 44q-25 15 -89 26
q-13 2 -24 5q-11 -4 -22 -10q-28 -16 -46 -47q-25 -43 -24 -106v-87z" />
    <glyph glyph-name="uni018D" unicode="&#x18d;" 
d="M54 232v87q0 76 31 129q25 42 65 66q42 24 100 24t100 -24q41 -24 65 -66q30 -53 31 -129v-87q0 -64 -27 -109q-27 -47 -77 -70q5 -2 10 -5q25 -15 40 -40q18 -32 19 -73q0 -44 -21 -80q-18 -30 -48 -47q-36 -21 -83 -21q-76 0 -162 49v56q87 -49 154 -49q33 0 56 13
q18 10 29 29q13 22 12 49q0 25 -11 45q-9 16 -25 25q-16 10 -56 16q-80 14 -118 36q-39 23 -60 60q-23 40 -24 116zM117 232q0 -58 17 -88q16 -27 44 -44q25 -15 89 -26q13 -2 24 -5q11 4 22 10q28 16 46 47q25 43 24 106v87q0 60 -23 101q-18 30 -46 46q-27 16 -64 16
t-64 -16q-28 -16 -46 -46q-23 -41 -23 -101v-87z" />
    <glyph glyph-name="afii10066" unicode="&#x431;" 
d="M54 220v152q0 155 38 220q23 39 58 59q23 13 72 27q90 25 176 57l22 -53q-88 -33 -180 -57q-39 -10 -57 -21q-25 -15 -41 -42q-21 -37 -25 -117q22 39 57 59q33 19 78 19q57 0 100 -25q40 -23 64 -65q29 -50 30 -123v-90q0 -81 -33 -137q-25 -43 -66 -67t-97 -24t-97 24
t-66 67q-32 56 -33 137zM117 220q0 -66 25 -109q18 -31 46 -48q27 -15 62.5 -15t61.5 15q28 16 46 48q25 43 25 109v90q0 56 -22 95q-17 30 -45 46t-65 16q-38 0 -66.5 -16.5t-45.5 -46.5q-22 -38 -22 -94v-90z" />
    <glyph glyph-name="epsilon" unicode="&#x3b5;" 
d="M62 147q0 38 16 66q17 30 51 49q13 8 28 13q-18 6 -32 15q-32 18 -48 46q-14 25 -15 57q0 38 17 68q18 30 52 50q47 27 119 27q68 0 112 -26q37 -21 58 -58q9 -16 15 -34l-59 -18q-3 12 -10 23q-14 25 -39 39q-30 18 -77 18q-50 0 -83 -19q-21 -12 -32 -31
q-10 -17 -10 -39t9 -39q11 -19 33 -32q32 -19 83 -18h54v-56h-54q-47 0 -78 -19q-23 -13 -36 -34q-12 -20 -11 -47q0 -27 11 -48q12 -21 35 -34q32 -18 79 -18q46 0 77 18q25 14 39 39q6 11 10 23l59 -18q-5 -18 -15 -34q-21 -37 -58 -58q-45 -26 -112 -26q-69 0 -115 27
q-35 20 -54 52.5t-19 75.5z" />
    <glyph glyph-name="uni025B" unicode="&#x25b;" 
d="M62 147q0 38 16 66q17 30 51 49q13 8 28 13q-18 6 -32 15q-32 18 -48 46q-14 25 -15 57q0 38 17 68q18 30 52 50q47 27 119 27q68 0 112 -26q37 -21 58 -58q9 -16 15 -34l-59 -18q-3 12 -10 23q-14 25 -39 39q-30 18 -77 18q-50 0 -83 -19q-21 -12 -32 -31
q-10 -17 -10 -39t9 -39q11 -19 33 -32q32 -19 83 -18h54v-56h-54q-47 0 -78 -19q-23 -13 -36 -34q-12 -20 -11 -47q0 -27 11 -48q12 -21 35 -34q32 -18 79 -18q46 0 77 18q25 14 39 39q6 11 10 23l59 -18q-5 -18 -15 -34q-21 -37 -58 -58q-45 -26 -112 -26q-69 0 -115 27
q-35 20 -54 52.5t-19 75.5z" />
    <glyph glyph-name="uni0190" unicode="&#x190;" 
d="M62 201q0 64 27 110q23 39 60 61q10 6 20 10q-13 5 -25 11q-37 22 -58 59q-23 40 -24 97q0 63 26 107q23 39 62 62q44 25 104.5 25t104.5 -25q39 -22 61 -62q9 -15 15 -31l-58 -21q-4 12 -11 24q-16 27 -42 42q-29 17 -70 17q-40 0 -68 -17q-27 -15 -43 -42
q-19 -32 -18 -80q0 -47 19 -80q33 -58 106 -58h54v-56h-54q-35 0 -61 -15t-42 -44q-22 -38 -22 -93.5t21 -92.5q17 -29 44 -45q28 -16 66 -16t67 16q28 16 44 46q7 12 11 24l57 -24q-6 -15 -14 -29q-24 -41 -64 -64q-43 -25 -101.5 -25t-100.5 25q-40 23 -64 64
q-29 49 -29 120z" />
    <glyph glyph-name="afii10025" unicode="&#x417;" 
d="M65 155l61 13q4 -34 20 -61q17 -29 43 -44t61 -15q51 0 84 33q42 42 41 121q0 56 -22 93q-16 29 -42 44t-61 15h-54v56h54q73 0 106 58q19 33 19 80q0 48 -19 81q-16 27 -41 42q-27 16 -64 16t-65 -16q-26 -15 -41 -42q-15 -26 -18 -58l-62 9q4 43 25 78q22 39 61 61
q42 24 100 24t100 -24q38 -22 61 -61q26 -45 26 -109q0 -57 -24 -97q-21 -37 -58 -59q-12 -7 -25 -11q11 -4 20 -10q38 -22 60 -61q26 -45 27 -110q0 -72 -29 -122q-24 -41 -63 -64q-41 -23 -96.5 -23t-95.5 23q-39 22 -63 64q-20 35 -26 76z" />
    <glyph glyph-name="afii10073" unicode="&#x437;" 
d="M65 110l59 18q3 -12 10 -23q14 -25 39 -39q30 -18 77 -18t79 18q23 13 35 34q12 20 11 48q0 27 -11 47q-12 21 -36 34q-31 18 -78 19h-54v56h54q51 0 83 18q22 13 33 32q10 17 9 39q0 23 -10 39q-11 18 -32 31q-32 19 -83 19q-47 0 -77 -18q-25 -14 -39 -39
q-6 -11 -10 -23l-59 18q5 18 15 34q21 37 58 58q45 26 112 26q71 0 119 -27q34 -20 52 -50q17 -29 17 -68q0 -33 -15 -57q-16 -28 -48 -46q-15 -9 -32 -15q15 -5 28 -13q34 -19 51 -49q16 -28 16 -66q0 -43 -19 -75.5t-54 -52.5q-46 -27 -115 -27q-67 0 -112 26
q-37 21 -58 58q-9 16 -15 34z" />
    <glyph glyph-name="uni025C" unicode="&#x25c;" 
d="M65 110l59 18q3 -12 10 -23q14 -25 39 -39q30 -18 77 -18t79 18q23 13 35 34q12 20 11 48q0 27 -11 47q-12 21 -36 34q-31 18 -78 19h-54v56h54q51 0 83 18q22 13 33 32q10 17 9 39q0 23 -10 39q-11 18 -32 31q-32 19 -83 19q-47 0 -77 -18q-25 -14 -39 -39
q-6 -11 -10 -23l-59 18q5 18 15 34q21 37 58 58q45 26 112 26q71 0 119 -27q34 -20 52 -50q17 -29 17 -68q0 -33 -15 -57q-16 -28 -48 -46q-15 -9 -32 -15q15 -5 28 -13q34 -19 51 -49q16 -28 16 -66q0 -43 -19 -75.5t-54 -52.5q-46 -27 -115 -27q-67 0 -112 26
q-37 21 -58 58q-9 16 -15 34z" />
    <glyph glyph-name="uni029A" unicode="&#x29a;" 
d="M62 381q0 44 19 77t55 53q46 27 111 27q55 0 94 -22q40 -23 64 -66q33 -56 33 -140v-90q0 -84 -33 -140q-25 -43 -64 -66q-39 -22 -93 -22q-60 0 -102 24q-32 19 -50 49t-18 70.5t18 70.5q15 27 41 44q-36 21 -56 54q-19 33 -19 77zM125 380.5q0 -27.5 12 -47.5
q12 -21 35 -35q31 -18 78 -18h54v-56h-54q-41 0 -68 -16q-20 -12 -31 -30q-10 -18 -10 -42t10 -42q11 -19 31 -30q27 -16 65 -16q34 0 59 14q27 15 44 46q26 44 25 112v90q0 68 -25 112q-17 30 -44 46q-24 14 -59 14q-43 0 -75 -18q-23 -13 -35 -35q-12 -21 -12 -48.5z" />
    <glyph glyph-name="Theta" unicode="&#x398;" 
d="M54 195v345q0 67 28 114q23 40 63 64q44 25 105 25t105 -25q40 -23 63 -64q27 -47 28 -114v-345q0 -67 -28 -114q-23 -40 -63 -64q-44 -25 -105 -25t-105 25q-40 23 -63 64q-27 47 -28 114zM117 195q0 -50 20 -86q17 -29 44 -44q29 -17 69 -17t69 17q28 16 44 44
q20 35 20 86v345q0 50 -20 86q-17 29 -44 44q-29 17 -69 17t-69 -17q-28 -16 -44 -44q-20 -35 -20 -86v-345zM157 340v56h186v-56h-186z" />
    <glyph glyph-name="theta" unicode="&#x3b8;" 
d="M62.5 368q-0.5 187 59.5 289q28 48 64 70q28 16 64 16t64 -16q37 -21 64 -70q59 -103 59.5 -290t-59.5 -289q-28 -48 -64 -70q-28 -16 -64 -16t-64 16q-37 21 -64 70q-59 103 -59.5 290zM125 340q4 -159 49 -239q18 -31 40 -43q17 -10 36.5 -10t35.5 10q22 12 40 43
q45 80 49 239h-250zM125 396h250q-4 159 -49 238q-18 31 -40 43q-17 10 -36 10q-30 0 -53 -23q-12 -12 -23 -30q-46 -78 -49 -238z" />
    <glyph glyph-name="zeta" unicode="&#x3b6;" 
d="M70 198q0 136 69 256q62 107 193 225h-262v56h352v-56q-159 -131 -227 -249q-63 -109 -62 -232q0 -47 19 -80q16 -28 44 -44.5t78 -17.5q57 -1 94 -23q30 -17 46 -45q15 -27 16 -62q0 -39 -17 -68q-16 -27 -44 -43q-34 -20 -83 -20h-36v56h36q28 0 47 11q34 20 34 63
q0 29 -18 48q-26 26 -81 27q-65 1 -108 26q-40 23 -63 63q-26 45 -27 109z" />
    <glyph glyph-name="xi" unicode="&#x3be;" 
d="M70 176q0 47 25 89q30 52 88 86q21 12 45 22q-39 11 -69 28q-40 23 -58 54q-15 25 -15 63q0 53 26 98q21 37 58 63h-100v56h352v-56h-46q-91 0 -149 -34q-40 -23 -60 -57q-19 -32 -18 -69q0 -25 9 -42q12 -21 41 -37q62 -36 177 -36v-56q-91 0 -155 -37q-46 -27 -70 -67
q-18 -32 -18 -67q0 -37 17 -67q14 -25 39 -39q23 -13 67 -15q71 -3 112 -27q31 -18 47 -45q14 -25 15 -58q0 -39 -17 -68q-16 -27 -43 -43q-34 -20 -84 -20h-36v56h36q28 0 47 11q16 9 25 25t9 38q0 17 -7 30q-9 16 -28 26q-29 17 -81 19q-62 2 -98 23q-37 21 -58 57
q-25 43 -25 96z" />
    <glyph glyph-name="mu" unicode="&#x3bc;" 
d="M17 474v56h116v-310q0 -71 26 -116q17 -29 41 -44q22 -12 50 -12t50 12q25 14 41 44q26 45 26 116v254h-54v56h117v-474h53v-56h-116v81l-6 -12q-23 -39 -57 -59q-31 -18 -71.5 -18t-71.5 18q-16 9 -28 22v-237h-63v679h-53z" />
    <glyph glyph-name="Xi" unicode="&#x39e;" 
d="M54 0v145h63v-89h266v89h63v-145h-392zM54 590v145h392v-145h-63v89h-266v-89h-63zM115 369v56h270v-56h-270z" />
    <glyph glyph-name="Pi" unicode="&#x3a0;" 
d="M17 0v56h53v623h-53v56h466v-56h-53v-623h53v-56h-170v56h54v623h-234v-623h54v-56h-170z" />
    <glyph glyph-name="afii10033" unicode="&#x41f;" 
d="M17 0v56h53v623h-53v56h466v-56h-53v-623h53v-56h-170v56h54v623h-234v-623h54v-56h-170z" />
    <glyph glyph-name="glyph504" 
d="M17 0v56h53v418h-53v56h466v-56h-53v-418h53v-56h-170v56h54v418h-234v-418h54v-56h-170z" />
    <glyph glyph-name="glyph505" 
d="M17 474v56h116v-310q0 -71 26 -116q17 -29 41 -44q22 -12 50 -12t50 12q25 14 41 44q26 45 26 116v254h-54v56h117v-474h53v-56h-116v81l-6 -12q-23 -39 -57 -59q-31 -18 -71.5 -18t-71.5 18q-34 20 -57 59q-34 59 -34 151v254h-53zM100 657v56h300v-56h-300z" />
    <glyph glyph-name="afii10081" unicode="&#x43f;" 
d="M17 0v56h53v418h-53v56h466v-56h-53v-418h53v-56h-170v56h54v418h-234v-418h54v-56h-170z" />
    <glyph glyph-name="pi" unicode="&#x3c0;" 
d="M56 25q10 14 18 29q63 108 63 326q0 21 -1 94h-66v56h360v-56h-66v-350q0 -36 19 -55q13 -13 33 -13h14v-56h-14q-66 0 -97 52q-17 29 -17 72v350h-104q0 -57 1 -78q0 -249 -69 -368q-11 -19 -24 -36z" />
    <glyph glyph-name="Sigma" unicode="&#x3a3;" 
d="M70 0v56l144 312l-144 311v56h360v-145h-63v89h-232l143 -311l-143 -312h232v89h63v-145h-360z" />
    <glyph glyph-name="uni01A9" unicode="&#x1a9;" 
d="M70 0v56l144 312l-144 311v56h360v-145h-63v89h-232l143 -311l-143 -312h232v89h63v-145h-360z" />
    <glyph glyph-name="Phi" unicode="&#x3a6;" 
d="M54 324v87q0 67 28 115q23 40 63 63q32 19 74 24v66h-54v56h170v-56h-54v-66q42 -5 74 -24q40 -23 63 -63q27 -47 28 -115v-87q0 -67 -28 -115q-23 -40 -63 -63q-32 -19 -74 -24v-66h54v-56h-170v56h54v66q-42 5 -74 24q-40 23 -63 63q-27 47 -28 115zM117 324
q0 -50 20 -86q17 -29 44 -45q17 -10 38 -14v377q-21 -4 -38 -14q-28 -16 -44 -45q-20 -35 -20 -86v-87zM281 179q21 4 38 14q28 16 44 45q20 35 20 86v87q0 50 -20 86q-17 29 -44 45q-17 10 -38 14v-377z" />
    <glyph glyph-name="afii10038" unicode="&#x424;" 
d="M54 324v87q0 67 28 115q23 40 63 63q32 19 74 24v66h-54v56h170v-56h-54v-66q42 -5 74 -24q40 -23 63 -63q27 -47 28 -115v-87q0 -67 -28 -115q-23 -40 -63 -63q-32 -19 -74 -24v-66h54v-56h-170v56h54v66q-42 5 -74 24q-40 23 -63 63q-27 47 -28 115zM117 324
q0 -50 20 -86q17 -29 44 -45q17 -10 38 -14v377q-21 -4 -38 -14q-28 -16 -44 -45q-20 -35 -20 -86v-87zM281 179q21 4 38 14q28 16 44 45q20 35 20 86v87q0 50 -20 86q-17 29 -44 45q-17 10 -38 14v-377z" />
    <glyph glyph-name="uni2C77" unicode="&#x2c77;" 
d="M38 283q0 132 68 247l54 -28q-59 -102 -59 -219q0 -99 37 -164q22 -38 53 -56q13 -8 28 -11v298q0 78 27 125q17 29 41 43q20 12 47 12q25 0 46 -12q26 -15 44 -47q38 -65 38 -178q0 -123 -45 -201q-30 -51 -75 -77q-40 -23 -92 -23t-92 23q-45 26 -75 77q-45 78 -45 191
zM281 52q15 4 28 11q31 18 53 55q38 65 37 176q0 105 -27 153q-9 16 -21 23q-8 4 -17 4q-14 0 -24 -10q-29 -29 -29 -114v-298z" />
    <glyph glyph-name="phi" unicode="&#x3c6;" 
d="M38 283q0 132 68 247l54 -28q-59 -102 -59 -219q0 -99 37 -164q22 -38 53 -56q13 -8 28 -11v298q0 78 27 125q17 29 41 43q20 12 47 12q25 0 46 -12q26 -15 44 -47q38 -65 38 -178q0 -123 -45 -201q-30 -51 -75 -77q-28 -16 -61 -21v-199h-62v199q-34 5 -61 21
q-45 26 -75 77q-45 78 -45 191zM281 52q15 4 28 11q31 18 53 55q38 65 37 176q0 105 -27 153q-9 16 -21 23q-8 4 -17 4q-14 0 -24 -10q-29 -29 -29 -114v-298z" />
    <glyph glyph-name="phi1" unicode="&#x3d5;" 
d="M54 220v90q0 81 33 137q25 43 66 67q29 17 66 22v199h62v-199q37 -5 66 -22q41 -24 66 -67q32 -56 33 -137v-90q0 -81 -33 -137q-25 -43 -66 -67q-29 -17 -66 -22v-199h-62v199q-37 5 -66 22q-41 24 -66 67q-32 56 -33 137zM117 220q0 -66 25 -109q18 -31 46 -48
q14 -8 31 -12v428q-17 -4 -31 -12q-28 -16 -46 -48q-25 -43 -25 -109v-90zM281 51q17 4 31 12q28 16 46 48q25 43 25 109v90q0 66 -25 109q-18 31 -46 48q-14 8 -31 12v-428z" />
    <glyph glyph-name="afii10086" unicode="&#x444;" 
d="M54 220v90q0 81 33 137q25 43 66 67q29 17 66 22v143h-54v56h170v-56h-54v-143q37 -5 66 -22q41 -24 66 -67q32 -56 33 -137v-90q0 -81 -33 -137q-25 -43 -66 -67q-29 -17 -66 -22v-143h54v-56h-170v56h54v143q-37 5 -66 22q-41 24 -66 67q-32 56 -33 137zM117 220
q0 -66 25 -109q18 -31 46 -48q14 -8 31 -12v428q-17 -4 -31 -12q-28 -16 -46 -48q-25 -43 -25 -109v-90zM281 51q17 4 31 12q28 16 46 48q25 43 25 109v90q0 66 -25 109q-18 31 -46 48q-14 8 -31 12v-428z" />
    <glyph glyph-name="uni0278" unicode="&#x278;" 
d="M54 220v90q0 81 33 137q25 43 66 67q29 17 66 22v143h-54v56h170v-56h-54v-143q37 -5 66 -22q41 -24 66 -67q32 -56 33 -137v-90q0 -81 -33 -137q-25 -43 -66 -67q-29 -17 -66 -22v-143h54v-56h-170v56h54v143q-37 5 -66 22q-41 24 -66 67q-32 56 -33 137zM117 220
q0 -66 25 -109q18 -31 46 -48q14 -8 31 -12v428q-17 -4 -31 -12q-28 -16 -46 -48q-25 -43 -25 -109v-90zM281 51q17 4 31 12q28 16 46 48q25 43 25 109v90q0 66 -25 109q-18 31 -46 48q-14 8 -31 12v-428z" />
    <glyph glyph-name="Psi" unicode="&#x3a8;" 
d="M17 532v56h116v-246q0 -50 19 -84q15 -26 40 -41q12 -7 27 -10v472h-54v56h170v-56h-54v-472q14 4 27 10q25 14 40 41q20 34 19 84v246h116v-56h-53v-190q0 -66 -27 -113q-22 -38 -59 -59q-28 -16 -63 -21v-93h54v-56h-170v56h54v93q-35 5 -63 21q-37 21 -59 59
q-27 46 -27 113v190h-53z" />
    <glyph glyph-name="uni1D2A" unicode="&#x1d2a;" 
d="M17 474v56h116v-176q0 -50 19 -84q15 -26 40 -41q12 -7 27 -10v311h62v-311q14 4 27 10q25 14 40 41q20 34 19 84v176h116v-56h-53v-120q0 -66 -27 -113q-22 -38 -59 -59q-28 -16 -63 -21v-105h54v-56h-170v56h54v105q-35 5 -63 21q-37 21 -59 59q-27 46 -27 113v120h-53
z" />
    <glyph glyph-name="psi" unicode="&#x3c8;" 
d="M17 474v56h116v-310q0 -71 26 -116q17 -29 41 -44q9 -5 19 -8v683h62v-683q10 3 19 8q25 14 41 44q26 45 26 116v310h116v-56h-53v-254q0 -86 -33 -144q-24 -42 -62 -63q-24 -14 -54 -19v-199h-62v199q-29 5 -54 19q-38 22 -62 63q-33 57 -33 144v254h-53z" />
    <glyph glyph-name="Omega" unicode="&#x3a9;" 
d="M70 0v56h97v24q-11 4 -21 10q-30 17 -49 50q-26 45 -27 114v286q0 71 29 120q23 39 60 61q39 22 91.5 22t90.5 -22q37 -22 60 -61q28 -49 29 -120v-286q0 -68 -27 -114q-19 -33 -49 -50q-10 -6 -21 -10v-24h97v-56h-144v115h4q15 0 27 8q17 10 29 30q22 37 21 101v286
q0 55 -21 92q-16 27 -40 41t-56 14t-56 -14q-25 -14 -40 -41q-21 -37 -21 -92v-286q0 -63 21 -101q12 -21 29 -30q13 -7 27 -8h4v-115h-144z" />
    <glyph glyph-name="uni01B1" unicode="&#x1b1;" 
d="M70 195v286q0 68 27 114q19 33 49 50q10 6 21 10v24h-97v56h144v-115h-4q-15 0 -27 -8q-17 -10 -29 -30q-22 -37 -21 -101v-286q0 -55 21 -92q16 -27 40 -41t56 -14t56 14q25 14 40 41q21 37 21 92v286q0 63 -21 101q-12 21 -29 30q-13 7 -27 8h-4v115h144v-56h-97v-24
q11 -4 21 -10q30 -17 49 -50q26 -45 27 -114v-286q0 -71 -29 -120q-23 -39 -60 -61q-39 -22 -91.5 -22t-90.5 22q-37 22 -60 61q-28 49 -29 120z" />
    <glyph glyph-name="uniAB65" unicode="&#xab65;" 
d="M70 0v56h97v8q-8 3 -15 8q-30 17 -51 52q-31 54 -31 138v48q0 86 33 144q24 42 62 63q36 21 84.5 21t85.5 -21q38 -22 62 -63q33 -57 33 -144v-48q0 -84 -31 -138q-20 -35 -51 -52q-8 -4 -15 -8v-8h97v-56h-144v98h3q13 0 24 7q16 9 28 30q26 45 26 127v48q0 71 -26 116
q-17 29 -41 44q-22 12 -50 12t-50 -12q-25 -14 -41 -44q-26 -45 -26 -116v-48q0 -82 26 -127q12 -21 28 -30q12 -7 24 -7h3v-98h-144z" />
    <glyph glyph-name="uni028A" unicode="&#x28a;" 
d="M70 220v48q0 84 31 138q20 35 51 52q8 4 15 8v8h-97v56h144v-98h-3q-13 0 -24 -7q-16 -9 -28 -30q-26 -45 -26 -127v-48q0 -71 26 -116q17 -29 41 -44q22 -12 50 -12t50 12q25 14 41 44q26 45 26 116v48q0 82 -26 127q-12 21 -28 30q-12 7 -24 7h-3v98h144v-56h-97v-8
q8 -3 15 -8q30 -17 51 -52q31 -54 31 -138v-48q0 -86 -33 -144q-24 -42 -62 -63q-36 -21 -84.5 -21t-85.5 21q-38 22 -62 63q-33 57 -33 144z" />
    <glyph glyph-name="omega" unicode="&#x3c9;" 
d="M38 257q0 145 68 262l54 -28q-60 -101 -59 -235q0 -160 39 -200q8 -8 19.5 -8t19.5 8q40 40 40 209v79h62v-79q0 -169 40 -209q8 -8 19 -8t20 8q40 40 39 200q0 133 -59 235l54 28q68 -117 68 -262q0 -137 -43 -211q-18 -31 -41 -44q-17 -10 -37 -10q-17 0 -30 8
q-19 11 -34 37q-17 29 -27 70q-10 -41 -27 -70q-15 -26 -34 -37q-13 -8 -30 -8q-20 0 -37 10q-23 13 -41 44q-43 74 -43 211z" />
    <glyph glyph-name="omega1" unicode="&#x3d6;" 
d="M38 257q0 145 68 262l54 -28q-60 -101 -59 -235q0 -160 39 -200q8 -8 19.5 -8t19.5 8q40 40 40 209v79h62v-79q0 -169 40 -209q8 -8 19 -8t20 8q40 40 39 200q0 133 -59 235l54 28q68 -117 68 -262q0 -137 -43 -211q-18 -31 -41 -44q-17 -10 -37 -10q-17 0 -30 8
q-19 11 -34 37q-17 29 -27 70q-10 -41 -27 -70q-15 -26 -34 -37q-13 -8 -30 -8q-20 0 -37 10q-23 13 -41 44q-43 74 -43 211zM70 474v56h360v-56h-360z" />
    <glyph glyph-name="uni0277" unicode="&#x277;" 
d="M38 236q0 124 45 202q30 51 75 77q40 23 92 23t92 -23q45 -26 75 -77q45 -78 45 -202q0 -121 -39 -189q-18 -31 -42 -45q-18 -10 -39 -10q-18 0 -31 8q-19 11 -34 37q-17 29 -27 70q-10 -41 -27 -70q-15 -26 -34 -37q-13 -8 -31 -8q-21 0 -39 10q-24 14 -42 45
q-39 67 -39 189zM101 234q0 -139 38 -177q9 -9 20 -9t20 8q40 40 40 209v79h62v-79q0 -169 40 -209q8 -8 20 -8t20 9q38 38 38 177q0 112 -37 178q-22 38 -53 55q-26 15 -59 15t-59 -15q-31 -18 -53 -55q-38 -65 -37 -178z" />
    <glyph glyph-name="afii10046" unicode="&#x42c;" 
d="M17 0v56h53v623h-53v56h170v-56h-54v-247h59q91 0 153 -36q48 -28 74 -73q26 -46 26.5 -107.5t-26.5 -106.5q-26 -45 -74 -73q-62 -36 -153 -36h-175zM133 56h59q70 0 117 27q36 21 55 54.5t19 78.5t-19 78.5t-55 54.5q-47 27 -117 27h-59v-320z" />
    <glyph glyph-name="afii10094" unicode="&#x44c;" 
d="M17 0v56h53v418h-53v56h170v-56h-54v-154h121q70 0 117 -28q36 -21 55 -54t19.5 -78t-19.5 -78q-19 -34 -55 -55q-47 -27 -117 -27h-237zM133 56h121q48 0 81 19q24 14 36 35t12 49.5t-12 49.5q-13 22 -36 36q-32 19 -81 19h-121v-208z" />
    <glyph glyph-name="afii10018" unicode="&#x411;" 
d="M17 0v56h53v623h-53v56h377v-145h-63v89h-198v-247h59q91 0 153 -36q48 -28 74 -73q26 -46 26.5 -107.5t-26.5 -106.5q-26 -45 -74 -73q-62 -36 -153 -36h-175zM133 56h59q70 0 117 27q36 21 55 54.5t19 78.5t-19 78.5t-55 54.5q-47 27 -117 27h-59v-320z" />
    <glyph glyph-name="uni0182" unicode="&#x182;" 
d="M17 0v56h53v623h-53v56h377v-145h-63v89h-198v-247h59q91 0 153 -36q48 -28 74 -73q26 -46 26.5 -107.5t-26.5 -106.5q-26 -45 -74 -73q-62 -36 -153 -36h-175zM133 56h59q70 0 117 27q36 21 55 54.5t19 78.5t-19 78.5t-55 54.5q-47 27 -117 27h-59v-320z" />
    <glyph glyph-name="uni0184" unicode="&#x184;" 
d="M14 679l56 56h63v-303h59q91 0 153 -36q48 -28 74 -73q26 -46 26.5 -107.5t-26.5 -106.5q-26 -45 -74 -73q-62 -36 -153 -36h-175v56h53v567zM133 56h59q70 0 117 27q36 21 55 54.5t19 78.5t-19 78.5t-55 54.5q-47 27 -117 27h-59v-320z" />
    <glyph glyph-name="uni018B" unicode="&#x18b;" 
d="M62 216q0 63 27 109q26 45 73 73q59 34 146 34h59v247h-198v-89h-63v145h377v-56h-53v-623h53v-56h-175q-86 0 -146 34q-47 27 -73 73q-27 46 -27 109zM124.5 216.5q0.5 -46.5 19.5 -80.5q19 -33 55 -54q45 -26 109 -26h59v320h-59q-65 0 -109 -25q-35 -20 -55 -54
t-19.5 -80.5z" />
    <glyph glyph-name="afii10044" unicode="&#x42a;" 
d="M18 590v145h263v-56h-54v-247q71 0 121 -29q44 -25 69 -69q28 -49 28.5 -118t-28.5 -118q-25 -44 -69 -69q-50 -29 -121 -29h-116v56h54v623h-91v-89h-56zM227 56q49 0 85 20q32 18 50 51q21 37 21 89t-21 89q-19 32 -50 51q-36 20 -85 20v-320z" />
    <glyph glyph-name="afii10092" unicode="&#x44a;" 
d="M18 385v145h263v-56h-54v-154h52q55 0 94 -23q33 -19 52 -52q21 -36 21 -85.5t-21 -85.5q-19 -33 -52 -52q-39 -22 -94 -22h-168v56h54v418h-91v-89h-56zM227 56h52q34 0 57 14q21 12 34 33q14 24 13.5 57t-13.5 56q-12 21 -34 34q-24 14 -57 14h-52v-208z" />
    <glyph glyph-name="afii10045" unicode="&#x42b;" 
d="M30 0v56h32v623h-32v56h127v-56h-32v-247q69 0 118 -28q44 -25 69 -69q29 -50 28.5 -119t-28.5 -119q-25 -44 -69 -69q-49 -28 -118 -28h-95zM125 56q48 0 82 20q31 18 49 50q22 37 22 90t-22 90q-18 32 -49 50q-34 20 -82 20v-320zM343 0v56h32v623h-32v56h127v-56h-32
v-623h32v-56h-127z" />
    <glyph glyph-name="afii10093" unicode="&#x44b;" 
d="M30 0v56h32v418h-32v56h127v-56h-32v-154h49q55 0 93 -23q33 -19 53 -52q21 -36 20.5 -85.5t-20.5 -85.5q-19 -33 -53 -52q-39 -22 -93 -22h-144zM125 56h49q33 0 57 14q21 12 33 33q14 24 14 57t-14 57q-12 21 -33 33q-24 14 -57 14h-49v-208zM343 0v56h32v418h-32v56
h127v-56h-32v-418h32v-56h-127z" />
    <glyph glyph-name="afii10026" unicode="&#x418;" 
d="M17 0v56h53v623h-53v56h170v-56h-54v-575l206 631h144v-56h-53v-623h53v-56h-170v56h54v575l-206 -631h-144z" />
    <glyph glyph-name="glyph538" 
d="M17 0v56h53v418h-53v56h170v-56h-54v-399l206 455h144v-56h-53v-418h53v-56h-170v56h54v399l-206 -455h-144z" />
    <glyph glyph-name="glyph539" 
d="M17 474v56h116v-310q0 -71 26 -116q17 -29 41 -44q22 -12 50 -12t50 12q25 14 41 44q26 45 26 116v254h-54v56h117v-474h53v-56h-116v81l-6 -12q-23 -39 -57 -59q-31 -18 -71.5 -18t-71.5 18q-34 20 -57 59q-34 59 -34 151v254h-53z" />
    <glyph glyph-name="afii10074" unicode="&#x438;" 
d="M17 0v56h53v418h-53v56h170v-56h-54v-399l206 455h144v-56h-53v-418h53v-56h-170v56h54v399l-206 -455h-144z" />
    <glyph glyph-name="afii10040" unicode="&#x426;" 
d="M17 0v56h53v623h-53v56h170v-56h-54v-623h234v623h-54v56h170v-56h-53v-623h67v-203h-62v147h-418z" />
    <glyph glyph-name="glyph542" 
d="M17 0v56h53v418h-53v56h170v-56h-54v-418h234v418h-54v56h170v-56h-53v-418h67v-203h-62v147h-418z" />
    <glyph glyph-name="glyph543" 
d="M17 474v56h116v-310q0 -71 26 -116q17 -29 41 -44q22 -12 50 -12t50 12q25 14 41 44q26 45 26 116v254h-54v56h117v-474h67v-203h-62v147h-68v81l-6 -12q-23 -39 -57 -59q-31 -18 -71.5 -18t-71.5 18q-34 20 -57 59q-34 59 -34 151v254h-53z" />
    <glyph glyph-name="afii10088" unicode="&#x446;" 
d="M17 0v56h53v418h-53v56h170v-56h-54v-418h234v418h-54v56h170v-56h-53v-418h67v-203h-62v147h-418z" />
    <glyph glyph-name="afii10145" unicode="&#x40f;" 
d="M17 0v56h53v623h-53v56h170v-56h-54v-623h234v623h-54v56h170v-56h-53v-623h53v-56h-202v-205h-62v205h-202z" />
    <glyph glyph-name="glyph546" 
d="M17 0v56h53v418h-53v56h170v-56h-54v-418h234v418h-54v56h170v-56h-53v-418h53v-56h-202v-205h-62v205h-202z" />
    <glyph glyph-name="glyph547" 
d="M17 474v56h116v-310q0 -71 26 -116q17 -29 41 -44q22 -12 50 -12t50 12q25 14 41 44q26 45 26 116v254h-54v56h117v-474h53v-56h-116v81l-6 -12q-23 -39 -57 -59q-31 -18 -71.5 -18t-71.5 18q-34 20 -57 59q-34 59 -34 151v254h-53zM219 -214v160h62v-160h-62z" />
    <glyph glyph-name="afii10193" unicode="&#x45f;" 
d="M17 0v56h53v418h-53v56h170v-56h-54v-418h234v418h-54v56h170v-56h-53v-418h53v-56h-202v-205h-62v205h-202z" />
    <glyph glyph-name="afii10021" unicode="&#x414;" 
d="M17 56h58l9 56q40 236 40 552v15h-54v56h413v-56h-53v-623h53v-203h-62v147h-342v-147h-62v203zM138 56h229v623h-180v-15q0 -320 -41 -561z" />
    <glyph glyph-name="glyph550" 
d="M17 56h59l9 35q39 164 39 383h-54v56h413v-56h-53v-418h53v-203h-62v147h-342v-147h-62v203zM140 56h227v418h-181q-1 -225 -41 -396z" />
    <glyph glyph-name="glyph551" 
d="M54 220v90q0 72 30 123q24 42 64 65q43 25 100 25q46 0 78 -19q15 -8 27 -20q-8 20 -18 38q-45 79 -122 122q-44 25 -93 36l12 55q62 -12 116 -44q90 -52 143 -144q55 -95 55 -237v-90q0 -81 -33 -137q-25 -43 -66 -67t-97 -24t-97 24t-66 67q-32 56 -33 137zM117 220
q0 -66 25 -109q18 -31 46 -48q27 -15 62.5 -15t61.5 15q28 16 46 48q25 43 25 109v90q0 56 -22 94q-17 30 -45 46.5t-67 16.5q-38 0 -65.5 -16.5t-44.5 -45.5q-22 -38 -22 -95v-90z" />
    <glyph glyph-name="afii10069" unicode="&#x434;" 
d="M17 56h59l9 35q39 164 39 383h-54v56h413v-56h-53v-418h53v-203h-62v147h-342v-147h-62v203zM140 56h227v418h-181q-1 -225 -41 -396z" />
    <glyph glyph-name="afii10029" unicode="&#x41b;" 
d="M35 0v56q34 0 49 26q11 19 13 93l17 504h-53v56h405v-56h-54v-623h54v-56h-170v56h53v623h-173l-16 -506q-3 -90 -24 -125q-13 -23 -33 -35q-23 -13 -68 -13z" />
    <glyph glyph-name="afii10077" unicode="&#x43b;" 
d="M35 0v56q34 0 48 25q10 17 14 94l15 299h-51v56h405v-56h-54v-418h54v-56h-170v56h53v418h-174l-16 -302q-5 -91 -24 -125q-13 -23 -33 -34q-22 -13 -67 -13z" />
    <glyph glyph-name="afii10024" unicode="&#x416;" 
d="M38 0l86 368l-86 367h63l79 -339h39v339h62v-339h39l79 339h63l-86 -367l86 -368h-63l-79 340h-39v-340h-62v340h-39l-79 -340h-63z" />
    <glyph glyph-name="uni0496" unicode="&#x496;" 
d="M38 0l86 368l-86 367h63l79 -339h39v339h62v-339h39l79 339h63l-86 -367l86 -368h-63l-79 340h-39v-340h-62v340h-39l-79 -340h-63zM467 56h62v-203h-62v203z" />
    <glyph glyph-name="afii10072" unicode="&#x436;" 
d="M38 0l86 265l-86 265h63l76 -237h42v237h62v-237h42l76 237h63l-86 -265l86 -265h-63l-76 237h-42v-237h-62v237h-42l-76 -237h-63z" />
    <glyph glyph-name="uni0497" unicode="&#x497;" 
d="M38 0l86 265l-86 265h63l76 -237h42v237h62v-237h42l76 237h63l-86 -265l86 -265h-63l-76 237h-42v-237h-62v237h-42l-76 -237h-63zM467 56h62v-203h-62v203z" />
    <glyph glyph-name="afii10042" unicode="&#x428;" 
d="M17 0v56h53v623h-53v56h116v-679h86v679h62v-679h86v679h116v-56h-53v-623h53v-56h-466z" />
    <glyph glyph-name="glyph560" 
d="M17 0v56h53v418h-53v56h116v-474h86v474h62v-474h86v474h116v-56h-53v-418h53v-56h-466z" />
    <glyph glyph-name="glyph561" 
d="M17 474v56h108v-365q0 -81 26 -108q9 -9 20.5 -9t20.5 9q27 27 27 108v365h62v-365q0 -81 27 -108q9 -9 20.5 -9t20.5 9q27 27 26 108v365h108v-56h-45v-418h45v-56h-108v37l-2 -4q-13 -23 -31 -33q-14 -8 -31 -8q-18 0 -33 8q-19 11 -32 35q-9 15 -14 33q-6 -20 -15 -35
q-13 -23 -31 -33q-14 -8 -32 -8t-32 8q-19 11 -32 35q-27 47 -28 130v309h-45z" />
    <glyph glyph-name="afii10090" unicode="&#x448;" 
d="M17 0v56h53v418h-53v56h116v-474h86v474h62v-474h86v474h116v-56h-53v-418h53v-56h-466z" />
    <glyph glyph-name="afii10043" unicode="&#x429;" 
d="M17 0v56h53v623h-53v56h116v-679h86v679h62v-679h86v679h116v-56h-53v-623h67v-203h-62v147h-418z" />
    <glyph glyph-name="glyph564" 
d="M17 0v56h53v418h-53v56h116v-474h86v474h62v-474h86v474h116v-56h-53v-418h67v-203h-62v147h-418z" />
    <glyph glyph-name="glyph565" 
d="M17 474v56h108v-365q0 -81 26 -108q9 -9 20.5 -9t20.5 9q27 27 27 108v365h62v-365q0 -81 27 -108q9 -9 20.5 -9t20.5 9q27 27 26 108v365h108v-56h-45v-418h59v-203h-62v147h-60v37l-2 -4q-13 -23 -31 -33q-14 -8 -31 -8q-18 0 -33 8q-19 11 -32 35q-9 15 -14 33
q-6 -20 -15 -35q-13 -23 -31 -33q-14 -8 -32 -8t-32 8q-19 11 -32 35q-27 47 -28 130v309h-45z" />
    <glyph glyph-name="afii10091" unicode="&#x449;" 
d="M17 0v56h53v418h-53v56h116v-474h86v474h62v-474h86v474h116v-56h-53v-418h67v-203h-62v147h-418z" />
    <glyph glyph-name="glyph567" 
d="M17 474v56h108v-365q0 -81 26 -108q9 -9 20.5 -9t20.5 9q27 27 27 108v365h62v-365q0 -81 27 -108q9 -9 20.5 -9t20.5 9q27 27 26 108v365h108v-56h-45v-418h45v-56h-108v37l-2 -4q-13 -23 -31 -33q-14 -8 -31 -8q-18 0 -33 8q-19 11 -32 35q-9 15 -14 33q-6 -20 -15 -35
q-13 -23 -31 -33q-14 -8 -32 -8t-32 8q-19 11 -32 35q-27 47 -28 130v309h-45zM100 657v56h300v-56h-300z" />
    <glyph glyph-name="afii10084" unicode="&#x442;" 
d="M62 385v145h376v-145h-63v89h-94v-418h74v-56h-210v56h74v418h-94v-89h-63z" />
    <glyph glyph-name="afii10041" unicode="&#x427;" 
d="M17 679v56h170v-56h-54v-181q0 -50 19 -84q15 -26 40 -41t58 -14h117v320h-54v56h170v-56h-53v-623h53v-56h-170v56h54v247h-117q-54 0 -94 23q-37 21 -59 59q-27 46 -27 113v181h-53z" />
    <glyph glyph-name="uni04B6" unicode="&#x4b6;" 
d="M17 679v56h170v-56h-54v-181q0 -50 19 -84q15 -26 40 -41t58 -14h117v320h-54v56h170v-56h-53v-623h67v-203h-62v147h-122v56h54v247h-117q-54 0 -94 23q-37 21 -59 59q-27 46 -27 113v181h-53z" />
    <glyph glyph-name="afii10089" unicode="&#x447;" 
d="M17 474v56h170v-56h-54v-68q0 -50 19 -85q15 -26 40 -40q25 -15 58 -15h117v208h-54v56h170v-56h-53v-418h53v-56h-170v56h54v154h-117q-54 0 -94 24q-37 21 -59 59q-27 47 -27 113v68h-53z" />
    <glyph glyph-name="uni04B7" unicode="&#x4b7;" 
d="M17 474v56h170v-56h-54v-68q0 -50 19 -85q15 -26 40 -40q25 -15 58 -15h117v208h-54v56h170v-56h-53v-418h67v-203h-62v147h-122v56h54v154h-117q-54 0 -94 24q-37 21 -59 59q-27 47 -27 113v68h-53z" />
    <glyph glyph-name="uni04BA" unicode="&#x4ba;" 
d="M17 0v56h53v623h-53v56h170v-56h-54v-247h117q54 0 94 -23q37 -21 59 -59q27 -46 27 -113v-181h53v-56h-170v56h54v181q0 50 -19 84q-15 26 -40 41t-58 14h-117v-320h54v-56h-170z" />
    <glyph glyph-name="uni04B8" unicode="&#x4b8;" 
d="M17 679v56h170v-56h-54v-181q0 -50 19 -84q15 -26 40 -41q13 -7 27 -11v114h62v-117h86v320h-54v56h170v-56h-53v-623h53v-56h-170v56h54v247h-86v-107h-62v109q-35 5 -63 21q-37 21 -59 59q-27 46 -27 113v181h-53z" />
    <glyph glyph-name="uni04B9" unicode="&#x4b9;" 
d="M17 474v56h170v-56h-54v-68q0 -50 19 -85q15 -26 40 -40q13 -7 27 -11v114h62v-118h86v208h-54v56h170v-56h-53v-418h53v-56h-170v56h54v154h-86v-106h-62v109q-35 5 -63 21q-37 21 -59 59q-27 47 -27 113v68h-53z" />
    <glyph glyph-name="afii10048" unicode="&#x42e;" 
d="M30 0v56h32v623h-32v56h127v-56h-32v-283h40v183q0 56 22 96q18 32 50 49q32 19 76 19t77 -19q31 -18 49 -49q23 -39 23 -96v-423q0 -56 -23 -96q-18 -32 -49 -49q-32 -19 -76.5 -19t-76.5 19q-31 18 -50 49q-23 39 -22 96v184h-40v-284h32v-56h-127zM227 156
q0 -40 16 -68q11 -20 29 -30q17 -10 41 -10t41 10q18 10 30 30q16 27 15 68v423q0 40 -15 68q-11 20 -30 30q-17 10 -40.5 10t-41.5 -10t-29 -30q-16 -27 -16 -68v-423z" />
    <glyph glyph-name="afii10096" unicode="&#x44e;" 
d="M30 0v56h32v418h-32v56h127v-56h-32v-181h40v61q0 68 26 114q20 34 51 53q30 17 71 17t71 -17q31 -18 51 -53q26 -46 27 -114v-178q0 -68 -27 -114q-20 -34 -51 -53q-30 -17 -70.5 -17t-71.5 17q-31 18 -51 53q-26 46 -26 114v61h-40v-181h32v-56h-127zM227 176
q0 -54 19 -87q12 -21 31 -32q16 -9 36.5 -9t36.5 9q18 10 30 32q19 34 19 87v178q0 54 -19 87q-12 21 -30 32q-16 9 -36.5 9t-36.5 -9q-18 -10 -31 -32q-19 -34 -19 -87v-178z" />
    <glyph glyph-name="afii10058" unicode="&#x409;" 
d="M18 0v56q34 0 48 25q11 19 13 94l17 504h-29v56h244v-56h-30v-247q47 0 82 -20q36 -21 59 -61q31 -54 31.5 -135t-31.5 -135q-23 -40 -59 -61q-35 -20 -82 -20h-92v56h30v623h-61l-16 -506q-3 -90 -24 -125q-13 -23 -33 -35q-23 -13 -67 -13zM281 56q27 0 48 12
q23 13 38 40q24 42 24 108t-24 108q-16 27 -38 40q-21 12 -48 12v-320z" />
    <glyph glyph-name="afii10106" unicode="&#x459;" 
d="M18 0v56q33 0 47 25q10 17 14 94l16 299h-28v56h244v-56h-30v-154h19q48 0 82 -20q31 -18 50 -50q22 -37 22 -90t-22 -90q-18 -32 -50 -50q-34 -20 -82 -20h-111v56h30v418h-62l-15 -302q-5 -91 -25 -125q-13 -23 -33 -34q-22 -13 -66 -13zM281 56h19q26 0 46 11
q19 11 31 31q15 25 14.5 61.5t-14.5 61.5q-12 20 -31 31q-19 12 -46 12h-19v-208z" />
    <glyph glyph-name="afii10059" unicode="&#x40a;" 
d="M40 0v56h30v623h-30v56h123v-56h-30v-283h86v283h-30v56h122v-56h-30v-247q47 0 82 -20q36 -21 59 -61q31 -54 31.5 -135t-31.5 -135q-23 -40 -59 -61q-35 -20 -82 -20h-92v56h30v284h-86v-284h30v-56h-123zM281 56q27 0 48 12q23 13 38 40q24 42 24 108t-24 108
q-16 27 -38 40q-21 12 -48 12v-320z" />
    <glyph glyph-name="afii10107" unicode="&#x45a;" 
d="M40 0v56h30v418h-30v56h123v-56h-30v-181h86v181h-30v56h122v-56h-30v-154h19q48 0 82 -20q31 -18 50 -50q22 -37 22 -90t-22 -90q-18 -32 -50 -50q-34 -20 -82 -20h-111v56h30v181h-86v-181h30v-56h-123zM281 56h19q26 0 46 11q19 11 31 31q15 25 14.5 61.5t-14.5 61.5
q-12 20 -31 31q-19 12 -46 12h-19v-208z" />
    <glyph glyph-name="afii10060" unicode="&#x40b;" 
d="M54 0v56h54v623h-54v56h207v-56h-90v-226q3 7 6 13q22 38 54 56q27 16 63 16t63 -16q32 -18 54 -56q35 -60 35 -156v-254h53v-56h-170v56h54v254q0 76 -26 122q-16 27 -38 39q-18 11 -42 11t-42 -11q-22 -13 -38 -39q-26 -46 -26 -122v-254h53v-56h-170z" />
    <glyph glyph-name="afii10051" unicode="&#x402;" 
d="M54 0v56h54v623h-54v56h207v-56h-90v-218q21 39 55 59q31 18 72 18t72 -18q33 -19 54 -55q30 -51 30 -130v-160q0 -60 -25 -103q-21 -36 -57 -57q-40 -23 -94 -23v56q66 0 96 52q18 30 17 75v160q0 57 -21 95q-15 26 -39 40q-22 12 -50.5 12t-49.5 -12q-23 -13 -39 -40
q-22 -37 -21 -95v-335h-117z" />
    <glyph glyph-name="afii10099" unicode="&#x452;" 
d="M17 0v56h53v538h-49v56h49v29h-53v56h116v-85h117v-56h-117v-145l6 12q23 39 57 59q31 18 71.5 18t71.5 -18q34 -20 57 -59q34 -59 34 -151v-310q0 -52 -23 -91q-22 -38 -63 -61q-53 -31 -132 -31v56q57 0 96 22q29 17 44 43q15 27 15 62v310q0 71 -26 116q-17 29 -41 44
q-22 12 -50 12t-50 -12q-25 -14 -41 -44q-26 -45 -26 -116v-254h54v-56h-170z" />
    <glyph glyph-name="germandbls" unicode="&#xdf;" 
d="M70 0v530q0 85 32 140q21 37 54 56q30 17 69 17t68 -17q33 -19 54 -56q23 -39 29 -90l-59 -17q-5 48 -24 80q-14 24 -33 35q-16 9 -35.5 9t-35.5 -9q-19 -11 -32 -34q-24 -42 -24 -114v-16h313l-34 -55v-1h-1l-117 -189q54 -7 85 -25q37 -21 57 -55q18 -31 18 -66
q0 -72 -42 -144q-55 -95 -162 -157q-26 -15 -54 -27l-24 52q25 10 47 23q91 53 138 133q35 60 35 120q0 20 -11 38q-12 21 -36 35q-36 21 -117 21h-35l34 55v1h1l115 185h-210v-458h-63z" />
    <glyph glyph-name="uni1E9E" unicode="&#x1e9e;" 
d="M70 0v530q0 79 31 132q23 40 59 60q36 21 84.5 21t84.5 -21q37 -21 59 -61q30 -53 31 -121h-6l-126 -151q32 -8 59 -24q43 -25 67 -66q25 -43 25 -102q0 -61 -26 -105q-23 -41 -64 -64q-48 -28 -116 -28h-82v56h82q46 0 79 19q29 17 46 46q19 32 18 76q0 43 -17 74
q-17 29 -48 47q-37 22 -86 22h-5l-1 56l137 164q-4 42 -22 74q-16 27 -39 41q-21 12 -49 12t-50 -12q-24 -14 -39 -41q-23 -41 -23 -104v-530h-63z" />
    <glyph glyph-name="AE" unicode="&#xc6;" 
d="M17 0v56h53v18q0 201 138 661h222v-145h-63v89h-69v-254h118v-56h-118v-313h69v89h63v-145h-194v209h-93q-10 -77 -10 -135v-18h54v-56h-170zM151 265h85v384q-60 -227 -85 -384z" />
    <glyph glyph-name="uni04D4" unicode="&#x4d4;" 
d="M17 0v56h53v18q0 201 138 661h222v-145h-63v89h-69v-254h118v-56h-118v-313h69v89h63v-145h-194v209h-93q-10 -77 -10 -135v-18h54v-56h-170zM151 265h85v384q-60 -227 -85 -384z" />
    <glyph glyph-name="OE" unicode="&#x152;" 
d="M70 195v345q0 66 27 113q22 38 59 59q40 23 94 23h180v-145h-63v89h-55v-254h104v-56h-104v-313h55v89h63v-145h-180q-54 0 -94 23q-37 21 -59 59q-27 46 -27 113zM133 195q0 -50 19 -84q15 -26 40 -41q25 -14 58 -14v623q-66 0 -98 -55q-20 -34 -19 -84v-345z" />
    <glyph glyph-name="uni0276" unicode="&#x276;" 
d="M70 195v140q0 66 27 113q22 38 59 59q40 23 94 23h180v-145h-63v89h-55v-160h104v-56h-104v-202h55v89h63v-145h-180q-54 0 -94 23q-37 21 -59 59q-27 46 -27 113zM133 195q0 -50 19 -84q15 -26 40 -41q25 -14 58 -14v418q-66 0 -98 -55q-20 -34 -19 -84v-140z" />
    <glyph glyph-name="ae" unicode="&#xe6;" 
d="M38 138q0 53 22 91q20 35 56 56q42 24 102 24h1v89q0 49 -23 71q-13 13 -31 13t-31 -13q-22 -22 -22 -68v-2l-63 1v4q0 46 20 80q15 26 40 40q24 14 56.5 14t56.5 -14q17 -10 29 -25q12 15 28 24q26 15 61 15t61 -15q25 -15 41 -41q20 -34 20 -84v-161h-181v-105
q0 -33 13 -55q9 -15 21 -22t27.5 -7t27.5 7q13 7 22 22q13 22 12 52v2l63 -1v-4q0 -43 -20 -77q-16 -27 -41 -42q-27 -15 -63.5 -15t-62.5 15q-17 10 -30 25q-13 -15 -29 -25q-26 -15 -61 -15q-34 0 -59 14q-26 15 -42 43q-21 36 -21 89zM101 138q0 -51 24 -76
q14 -14 35 -14q22 0 36 15q23 23 23 69v121h-1q-38 0 -66 -16q-23 -13 -37 -36q-15 -26 -14 -63zM281 293h118v105q0 47 -22 69q-15 15 -36.5 15t-36.5 -15q-23 -23 -23 -69v-105z" />
    <glyph glyph-name="uni04D5" unicode="&#x4d5;" 
d="M38 138q0 53 22 91q20 35 56 56q42 24 102 24h1v89q0 49 -23 71q-13 13 -31 13t-31 -13q-22 -22 -22 -68v-2l-63 1v4q0 46 20 80q15 26 40 40q24 14 56.5 14t56.5 -14q17 -10 29 -25q12 15 28 24q26 15 61 15t61 -15q25 -15 41 -41q20 -34 20 -84v-161h-181v-105
q0 -33 13 -55q9 -15 21 -22t27.5 -7t27.5 7q13 7 22 22q13 22 12 52v2l63 -1v-4q0 -43 -20 -77q-16 -27 -41 -42q-27 -15 -63.5 -15t-62.5 15q-17 10 -30 25q-13 -15 -29 -25q-26 -15 -61 -15q-34 0 -59 14q-26 15 -42 43q-21 36 -21 89zM101 138q0 -51 24 -76
q14 -14 35 -14q22 0 36 15q23 23 23 69v121h-1q-38 0 -66 -16q-23 -13 -37 -36q-15 -26 -14 -63zM281 293h118v105q0 47 -22 69q-15 15 -36.5 15t-36.5 -15q-23 -23 -23 -69v-105z" />
    <glyph glyph-name="uni1D02" unicode="&#x1d02;" 
d="M33 400v4q0 43 20 77q16 27 41 42q27 15 63.5 15t62.5 -15q17 -10 30 -25q13 15 29 25q26 15 61 15q34 0 59 -14q26 -15 42 -43q21 -36 21 -89t-22 -91q-20 -35 -56 -56q-42 -24 -102 -24h-1v-89q0 -49 23 -71q13 -13 31 -13t31 13q22 22 22 68v2l63 -1v-4q0 -46 -20 -80
q-15 -26 -40 -40q-24 -14 -56.5 -14t-56.5 14q-17 10 -29 25q-12 -15 -28 -24q-26 -15 -61 -15t-61 15q-25 15 -41 41q-20 34 -20 84v161h181v105q0 33 -13 55q-9 15 -21 22t-27.5 7t-27.5 -7q-13 -7 -22 -22q-13 -22 -12 -52v-2zM101 132q0 -47 22 -69q15 -15 36.5 -15
t36.5 15q23 23 23 69v105h-118v-105zM281 277h1q38 0 66 16q23 13 37 36q15 26 14 63q0 51 -24 76q-14 14 -35 14q-22 0 -36 -15q-23 -23 -23 -69v-121z" />
    <glyph glyph-name="oe" unicode="&#x153;" 
d="M38 132v266q0 50 20 84q15 27 41 41q26 15 61 15t61 -15q17 -10 29 -25q13 15 29 25q26 15 61 15t61 -15q25 -15 41 -41q20 -34 20 -84v-161h-181v-105q0 -33 13 -55q9 -15 21 -22t27.5 -7t27.5 7q13 7 22 22q13 22 12 52v2l63 -1v-4q0 -43 -20 -77q-16 -27 -41 -42
q-27 -15 -63.5 -15t-62.5 15q-17 10 -30 25q-13 -15 -29 -25q-26 -15 -61 -15t-61 15q-25 15 -41 41q-20 34 -20 84zM101 132q0 -47 22 -69q15 -15 37 -15t36 15q23 23 23 69v266q0 47 -23 69q-14 15 -36 15t-37 -15q-23 -23 -22 -69v-266zM281 293h118v105q0 47 -22 69
q-15 15 -36.5 15t-36.5 -15q-23 -23 -23 -69v-105z" />
    <glyph glyph-name="uni1D14" unicode="&#x1d14;" 
d="M33 400v4q0 43 20 77q16 27 41 42q27 15 63.5 15t62.5 -15q17 -10 30 -25q13 15 29 25q26 15 61 15t61 -15q25 -15 41 -41q20 -34 20 -84v-266q0 -50 -20 -84q-15 -27 -41 -41q-26 -15 -61 -15t-61 15q-17 10 -29 25q-13 -15 -29 -25q-26 -15 -61 -15t-61 15
q-25 15 -41 41q-20 34 -20 84v161h181v105q0 33 -13 55q-9 15 -21 22t-27.5 7t-27.5 -7q-13 -7 -22 -22q-13 -22 -12 -52v-2zM101 132q0 -47 22 -69q15 -15 36.5 -15t36.5 15q23 23 23 69v105h-118v-105zM281 132q0 -47 23 -69q14 -15 36 -15t37 15q23 23 22 69v266
q0 47 -22 69q-15 15 -37 15t-36 -15q-23 -23 -23 -69v-266z" />
    <glyph glyph-name="uni0238" unicode="&#x238;" 
d="M38 132v266q0 50 20 84q15 27 41 41q26 15 61 15q34 0 59 -14v155h-54v56h116v-211q25 14 59 14q35 0 61 -15q25 -15 41 -41q20 -34 20 -84v-266q0 -50 -20 -84q-15 -27 -41 -41q-26 -15 -61 -15t-61 15q-17 10 -29 25q-13 -15 -29 -25q-26 -15 -61 -15t-61 15
q-25 15 -41 41q-20 34 -20 84zM101 132q0 -47 22 -69q15 -15 37 -15t36 15q23 23 23 69v266q0 47 -23 69q-14 15 -36 15t-37 -15q-23 -23 -22 -69v-266zM281 132q0 -47 23 -69q15 -15 36.5 -15t36.5 15q23 23 22 69v266q0 47 -22 69q-15 15 -37 15t-36 -15q-23 -23 -23 -69
v-266z" />
    <glyph glyph-name="uni0239" unicode="&#x239;" 
d="M38 132v266q0 50 20 84q15 27 41 41q26 15 61 15t61 -15q17 -10 29 -25q13 15 29 25q26 15 61 15t61 -15q25 -15 41 -41q20 -34 20 -84v-266q0 -50 -20 -84q-15 -27 -41 -41q-26 -15 -61 -15q-34 0 -59 14v-155h54v-56h-170v56h54v155q-25 -14 -59 -14q-35 0 -61 15
q-25 15 -41 41q-20 34 -20 84zM101 132q0 -47 22 -69q15 -15 37 -15t36 15q23 23 23 69v266q0 47 -23 69q-14 15 -36 15t-37 -15q-23 -23 -22 -69v-266zM281 132q0 -47 23 -69q15 -15 36.5 -15t36.5 15q23 23 22 69v266q0 47 -22 69q-15 15 -37 15t-36 -15q-23 -23 -23 -69
v-266z" />
    <glyph glyph-name="uni0222" unicode="&#x222;" 
d="M54 195v24q0 67 28 114q23 40 63 64q5 3 10 5q-39 21 -60 59q-24 42 -25 100v174h63v-174q0 -50 19 -84q15 -26 40 -40.5t58 -14.5t57.5 14t40.5 41q20 34 19 84v174h63v-174q0 -58 -25 -100q-22 -38 -60 -59q5 -2 10 -5q40 -23 63 -64q27 -47 28 -114v-24
q0 -67 -28 -114q-23 -40 -63 -64q-44 -25 -105 -25t-105 25q-40 23 -63 64q-27 47 -28 114zM117 195q0 -50 20 -86q17 -29 44 -44q29 -17 69 -17t69 17q28 16 44 44q20 35 20 86v24q0 50 -20 85q-17 29 -44 45q-29 17 -69 17t-69 -17q-28 -16 -44 -45q-20 -35 -20 -85v-24z
" />
    <glyph glyph-name="uni0223" unicode="&#x223;" 
d="M54 220v59q0 81 33 137q25 43 66 68l4 2q-40 21 -62 60q-24 42 -25 100v89h63v-89q0 -50 19 -84q15 -26 40 -40.5t58 -14.5t57.5 14.5t40.5 40.5q20 34 19 84v89h63v-89q0 -58 -25 -100q-23 -39 -62 -60l4 -2q41 -24 66 -68q32 -56 33 -137v-59q0 -81 -33 -137
q-25 -43 -66 -67t-97 -24t-97 24t-66 67q-32 56 -33 137zM117 220q0 -66 25 -109q18 -31 46 -48q27 -15 62.5 -15t61.5 15q28 16 46 48q25 43 25 109v59q0 66 -25 110q-18 31 -46 47q-26 15 -62 15t-62 -15q-28 -16 -46 -47q-25 -43 -25 -110v-59z" />
    <glyph glyph-name="IJ" unicode="&#x132;" 
d="M70 0v735h63v-735h-63zM199 -8v56q75 0 111 20q26 15 40 41q17 30 17 88v538h63v-538q0 -80 -24 -121q-20 -35 -56 -56q-48 -28 -151 -28z" />
    <glyph glyph-name="ij" unicode="&#x133;" 
d="M72 -70l59 19q5 -32 19 -57q15 -25 36 -38q19 -11 45 -11q25 0 43 11q21 12 36 37q22 38 22 99v540h62v-540q0 -76 -29 -126q-22 -37 -56 -58q-33 -19 -78 -19t-79 19q-34 20 -56 58q-17 30 -24 66zM87 685q0 23 13.5 36.5t36.5 13.5t36.5 -13.5t13.5 -36.5t-13.5 -36.5
t-36.5 -13.5t-36.5 13.5t-13.5 36.5zM106 0v530h62v-530h-62zM313 685q0 23 13.5 36.5t36.5 13.5t36.5 -13.5t13.5 -36.5t-13.5 -36.5t-36.5 -13.5t-36.5 13.5t-13.5 36.5z" />
    <glyph glyph-name="uni01B7" unicode="&#x1b7;" 
d="M65 155l59 19q6 -33 21 -59q17 -30 43 -45q24 -14 57 -14q32 0 55 14q26 15 43 44q24 42 24 108q0 65 -24 107q-16 28 -41 43q-23 13 -52 13h-108v56l186 238h-195v-89h-63v145h333v-56l-186 -238h33q49 0 87 -22q37 -21 61 -62q32 -55 32 -135q0 -81 -32 -136
q-24 -42 -62.5 -64t-91 -22t-91 22.5t-62.5 63.5q-18 31 -26 69z" />
    <glyph glyph-name="uni04E0" unicode="&#x4e0;" 
d="M65 155l59 19q6 -33 21 -59q17 -30 43 -45q24 -14 57 -14q32 0 55 14q26 15 43 44q24 42 24 108q0 65 -24 107q-16 28 -41 43q-23 13 -52 13h-108v56l186 238h-195v-89h-63v145h333v-56l-186 -238h33q49 0 87 -22q37 -21 61 -62q32 -55 32 -135q0 -81 -32 -136
q-24 -42 -62.5 -64t-91 -22t-91 22.5t-62.5 63.5q-18 31 -26 69z" />
    <glyph glyph-name="uni0292" unicode="&#x292;" 
d="M65 -50l59 19q6 -33 21 -59q17 -30 43 -45q24 -14 57 -14q32 0 55 14q26 15 43 44q24 42 24 108q0 65 -24 107q-16 28 -41 43q-23 13 -52 13h-108v56l186 238h-195v-89h-63v145h333v-56l-186 -238h33q49 0 87 -22q37 -21 61 -62q32 -55 32 -135q0 -81 -32 -136
q-24 -42 -62.5 -64t-91 -22t-91 22.5t-62.5 63.5q-18 31 -26 69z" />
    <glyph glyph-name="uni04E1" unicode="&#x4e1;" 
d="M65 -50l59 19q6 -33 21 -59q17 -30 43 -45q24 -14 57 -14q32 0 55 14q26 15 43 44q24 42 24 108q0 65 -24 107q-16 28 -41 43q-23 13 -52 13h-108v56l186 238h-195v-89h-63v145h333v-56l-186 -238h33q49 0 87 -22q37 -21 61 -62q32 -55 32 -135q0 -81 -32 -136
q-24 -42 -62.5 -64t-91 -22t-91 22.5t-62.5 63.5q-18 31 -26 69z" />
    <glyph glyph-name="uni01B8" unicode="&#x1b8;" 
d="M70 222q0 80 32 135q24 41 61 62q38 22 87 22h33l-186 238v56h333v-145h-63v89h-195l186 -238v-56h-108q-29 0 -52 -13q-24 -14 -41 -43q-25 -43 -24 -107q0 -65 24 -108q17 -29 43 -44q24 -14 55 -14q32 0 57 14q26 15 43 45q15 26 21 59l59 -19q-7 -37 -26 -69
q-24 -42 -62.5 -64t-91 -22t-91 22.5t-62.5 63.5q-31 54 -32 136z" />
    <glyph glyph-name="uni01B9" unicode="&#x1b9;" 
d="M70 17q0 80 32 135q24 41 61 62q38 22 87 22h33l-186 238v56h333v-145h-63v89h-195l186 -238v-56h-108q-29 0 -52 -13q-24 -14 -41 -43q-25 -43 -24 -107q0 -65 24 -108q17 -29 43 -44q24 -14 55 -14q32 0 57 14q26 15 43 45q15 26 21 59l59 -19q-7 -37 -26 -69
q-24 -42 -62.5 -64t-91 -22t-91 22.5t-62.5 63.5q-31 54 -32 136z" />
    <glyph glyph-name="uni026E" unicode="&#x26e;" 
d="M65 -50l59 19q6 -33 21 -59q17 -30 43 -45q24 -14 57 -14q32 0 55 14q26 15 43 44q24 42 24 108q0 65 -24 107q-16 28 -41 43q-23 13 -52 13h-36v56l114 238h-195v-421h-63v682h63v-205h270v-56l-114 -238v-4q26 -5 48 -18q37 -21 61 -62q32 -55 32 -135q0 -81 -32 -136
q-24 -42 -62.5 -64t-91 -22t-91 22.5t-62.5 63.5q-18 31 -26 69z" />
    <glyph glyph-name="uni01BA" unicode="&#x1ba;" 
d="M70 385v145h333v-56l-186 -164h33q61 0 104 -25q35 -20 55 -54q21 -37 21 -82v-5q0 -47 -20 -81q-20 -35 -58 -56q-49 -28 -120 -28h-18q-31 0 -51 -12q-15 -9 -23 -22q-7 -13 -7 -30t7 -30q8 -13 23 -22q20 -12 51 -12h216v-56h-216q-52 0 -88 20q-27 16 -41 41
t-14.5 59t14.5 58q15 25 41 41q35 20 88 21h18q50 0 84 19q25 14 38 38q13 22 13 52v3q0 30 -14 55q-13 22 -36 35q-28 17 -67 17h-108v56l186 164h-195v-89h-63z" />
    <glyph glyph-name="uni0293" unicode="&#x293;" 
d="M64 -85q0 32 16 60q17 29 48 46q38 22 87 22q52 0 94 -24q30 -17 56 -44q2 19 2 40v6q0 61 -24 103q-16 28 -41 43q-23 13 -52 13h-108v56l186 238h-195v-89h-63v145h333v-56l-186 -238h33q49 0 87 -22q37 -21 61 -62q32 -55 32 -130v-6q0 -63 -14 -106q5 -7 9 -15
q23 -40 36 -84l-59 -16q-8 28 -22 54q-18 -20 -42 -34q-49 -28 -114 -28q-60 0 -100 23q-28 16 -43 43q-16 29 -17 62zM126 -85q0 -17 9 -33t26 -25q25 -14 63 -14q42 0 75 19q29 17 46 45q-32 44 -68 64q-28 16 -62 16q-30 0 -52 -13q-18 -10 -28 -27q-9 -15 -9 -32z" />
    <glyph glyph-name="uni0294" unicode="&#x294;" 
d="M65 580q6 43 26 78q23 40 61 62q40 23 94 23t94 -23q38 -22 61 -62q29 -50 29 -115q0 -75 -40 -143q-14 -25 -42 -62q-27 -36 -38 -55q-28 -49 -29 -124v-103h54v-56h-170v56h54v103q0 88 33 146q12 20 40 58t40 59q35 61 35 121q0 50 -21 87q-16 28 -41 43
q-25 14 -59 14q-49 0 -80 -32q-11 -11 -20 -25q-16 -28 -20 -63z" />
    <glyph glyph-name="uni0241" unicode="&#x241;" 
d="M65 580q6 43 26 78q23 40 61 62q40 23 94 23t94 -23q38 -22 61 -62q29 -50 29 -115q0 -75 -40 -143q-14 -25 -42 -62q-27 -36 -38 -55q-28 -49 -29 -124v-103h54v-56h-170v56h54v103q0 88 33 146q12 20 40 58t40 59q35 61 35 121q0 50 -21 87q-16 28 -41 43
q-25 14 -59 14q-49 0 -80 -32q-11 -11 -20 -25q-16 -28 -20 -63z" />
    <glyph glyph-name="uni0295" unicode="&#x295;" 
d="M70 543q0 65 29 115q23 40 61 62q40 23 94 23t94 -23q38 -22 61 -62q20 -35 26 -78l-61 -13q-4 35 -20 63q-8 14 -20 25q-32 32 -80 32q-33 0 -59 -14q-25 -15 -41 -43q-21 -37 -21 -87q0 -60 35 -121q13 -22 40 -59q28 -38 40 -58q33 -58 33 -146v-103h54v-56h-170v56
h54v103q0 75 -29 124q-11 19 -38 55q-28 37 -42 62q-40 69 -40 143z" />
    <glyph glyph-name="uni0242" unicode="&#x242;" 
d="M65 375q-1 7 0 13q0 38 19 70q20 34 55 55q44 25 108 25q65 0 110 -26q35 -20 53 -52q19 -33 20 -75q0 -49 -26 -94q-17 -29 -56 -68q-35 -35 -48 -57q-19 -32 -19 -86v-24h54v-56h-170v56h54v24q0 68 23 108q14 24 53 65q38 40 53 65q20 34 19 67q0 26 -12 46.5
t-34 33.5q-30 17 -73.5 17t-72.5 -17q-23 -13 -36 -36q-12 -21 -13 -45q0 -7 1 -14z" />
    <glyph glyph-name="uni01BE" unicode="&#x1be;" 
d="M65 142v13l62 5q-1 -6 0 -13q0 -25 12 -46q13 -22 36 -36q29 -17 72.5 -17t72.5 17q23 13 35 34t12 50q0 33 -17 63q-13 23 -51 60q-42 42 -57 67q-8 13 -13 31h-84v56h75q-1 12 -1 24v80h62v-80q0 -12 1 -24h73v-56h-58q2 -3 3 -7q13 -22 50 -58q40 -38 56 -67
q24 -41 24 -89q0 -45 -20 -79q-19 -33 -53 -52q-44 -26 -109 -26t-109 25q-35 20 -55 55q-19 33 -19 70z" />
    <glyph glyph-name="glyph616" 
d="M65 580q6 43 26 78q23 40 61 62q40 23 94 23t94 -23q38 -22 61 -62q29 -50 29 -115q0 -75 -40 -143q-14 -25 -42 -62q-27 -36 -38 -55q-28 -49 -29 -124v-103h54v-56h-170v56h54v103q0 88 33 146q12 20 40 58t40 59q35 61 35 121q0 50 -21 87q-16 28 -41 43
q-25 14 -59 14q-49 0 -80 -32q-11 -11 -20 -25q-16 -28 -20 -63z" />
    <glyph glyph-name="glyph617" 
d="M70 543q0 65 29 115q23 40 61 62q40 23 94 23t94 -23q38 -22 61 -62q20 -35 26 -78l-61 -13q-4 35 -20 63q-8 14 -20 25q-32 32 -80 32q-33 0 -59 -14q-25 -15 -41 -43q-21 -37 -21 -87q0 -60 35 -121q13 -22 40 -59q28 -38 40 -58q33 -58 33 -146v-103h54v-56h-170v56
h54v103q0 75 -29 124q-11 19 -38 55q-28 37 -42 62q-40 69 -40 143z" />
    <glyph glyph-name="uni0296" unicode="&#x296;" 
d="M65 155l61 13q4 -35 20 -63q8 -14 20 -25q32 -32 80 -32q33 0 59 14q25 15 41 43q21 37 21 87q0 60 -35 121q-13 22 -40 59q-28 38 -40 58q-33 58 -33 146v103h-54v56h170v-56h-54v-103q0 -75 29 -124q11 -19 38 -55q28 -37 42 -62q40 -69 40 -143q0 -65 -29 -115
q-23 -40 -61 -62q-40 -23 -94 -23t-94 23q-38 22 -61 62q-20 35 -26 78z" />
    <glyph glyph-name="uni02A1" unicode="&#x2a1;" 
d="M65 580q6 43 26 78q23 40 61 62q40 23 94 23t94 -23q38 -22 61 -62q29 -50 29 -115q0 -75 -40 -143q-14 -25 -42 -62q-27 -36 -38 -55q-18 -31 -25 -71h70v-56h-74v-100h54v-56h-170v56h54v100h-74v56h77q7 53 30 93q12 20 40 58t40 59q35 61 35 121q0 50 -21 87
q-16 28 -41 43q-25 14 -59 14q-49 0 -80 -32q-11 -11 -20 -25q-16 -28 -20 -63z" />
    <glyph glyph-name="uni02A2" unicode="&#x2a2;" 
d="M70 543q0 65 29 115q23 40 61 62q40 23 94 23t94 -23q38 -22 61 -62q20 -35 26 -78l-61 -13q-4 35 -20 63q-8 14 -20 25q-32 32 -80 32q-33 0 -59 -14q-25 -15 -41 -43q-21 -37 -21 -87q0 -60 35 -121q13 -22 40 -59q28 -38 40 -58q23 -40 30 -93h77v-56h-74v-100h54v-56
h-170v56h54v100h-74v56h70q-7 40 -25 71q-11 19 -38 55q-28 37 -42 62q-40 69 -40 143z" />
    <glyph glyph-name="eth" unicode="&#xf0;" 
d="M54 220v1q0 81 33 137q25 43 66 67t97 24t97 -24q7 -3 12 -7q-19 65 -52 116l-193 -52l-16 55l172 46q-36 40 -83 67q-34 20 -72 31l17 54q47 -14 90 -38q65 -38 113 -97l69 19l16 -55l-51 -13q76 -128 77 -329v-2q0 -81 -33 -137q-25 -43 -66 -67t-97 -24t-97 24t-66 67
q-32 56 -33 137zM117 220q0 -66 25 -109q18 -31 46 -48q27 -15 62.5 -15t61.5 15q28 16 46 48q25 43 25 109v2q0 65 -25 108q-18 31 -46 48q-27 15 -62.5 15t-61.5 -15q-28 -16 -46 -48q-25 -43 -25 -109v-1z" />
    <glyph glyph-name="Thorn" unicode="&#xde;" 
d="M34 0v56h54v623h-54v56h170v-56h-54v-84h52q78 0 132 -31q47 -27 74 -74q29 -51 29.5 -122.5t-29.5 -122.5q-27 -47 -74 -74q-55 -32 -132 -31h-52v-84h54v-56h-170zM150 196h52q56 0 96 23q35 20 55 55q22 39 22 93.5t-22 93.5q-20 35 -55 55q-40 23 -96 23h-52v-343z
" />
    <glyph glyph-name="uni03F7" unicode="&#x3f7;" 
d="M34 0v56h54v623h-54v56h170v-56h-54v-84h52q78 0 132 -31q47 -27 74 -74q29 -51 29.5 -122.5t-29.5 -122.5q-27 -47 -74 -74q-55 -32 -132 -31h-52v-84h54v-56h-170zM150 196h52q56 0 96 23q35 20 55 55q22 39 22 93.5t-22 93.5q-20 35 -55 55q-40 23 -96 23h-52v-343z
" />
    <glyph glyph-name="thorn" unicode="&#xfe;" 
d="M17 -149h53v828h-53v56h116v-286l6 12q23 39 57 59q31 18 73 18q46 0 82 -21q38 -22 61 -63q33 -57 34 -144v-90q0 -87 -34 -144q-24 -42 -61 -63q-36 -21 -82 -21q-42 0 -73 18q-34 20 -57 59l-6 12v-230h54v-56h-170v56zM133 220q0 -71 26 -116q17 -29 41 -44
q22 -12 51 -12q34 0 61 15q28 16 46 48q25 43 25 109v90q0 66 -25 109q-18 31 -46 48q-27 15 -61 15q-30 0 -51 -12q-25 -14 -41 -44q-26 -45 -26 -116v-90z" />
    <glyph glyph-name="uni03F8" unicode="&#x3f8;" 
d="M17 -149h53v828h-53v56h116v-286l6 12q23 39 57 59q31 18 73 18q46 0 82 -21q38 -22 61 -63q33 -57 34 -144v-90q0 -87 -34 -144q-24 -42 -61 -63q-36 -21 -82 -21q-42 0 -73 18q-34 20 -57 59l-6 12v-230h54v-56h-170v56zM133 220q0 -71 26 -116q17 -29 41 -44
q22 -12 51 -12q34 0 61 15q28 16 46 48q25 43 25 109v90q0 66 -25 109q-18 31 -46 48q-27 15 -61 15q-30 0 -51 -12q-25 -14 -41 -44q-26 -45 -26 -116v-90z" />
    <glyph glyph-name="uni01F6" unicode="&#x1f6;" 
d="M30 0v56h32v623h-32v56h127v-56h-32v-283h94v283h-33v56h128v-56h-33v-547q0 -52 22 -73q11 -11 25.5 -11t25.5 11q22 22 21 73v398h63v-398q0 -53 -21 -89q-15 -26 -38 -38q-22 -13 -51 -13t-51 13q-23 13 -38 38q-20 35 -20 89v208h-94v-284h32v-56h-127z" />
    <glyph glyph-name="uni0195" unicode="&#x195;" 
d="M30 0v56h32v623h-32v56h95v-234q12 18 28 28q16 9 37 9t38 -9q19 -11 32 -34q21 -37 21 -97v-266q0 -52 22 -73q11 -11 25.5 -11t25.5 11q22 22 21 73v398h63v-398q0 -53 -21 -89q-15 -26 -38 -38q-22 -13 -51 -13t-51 13q-23 13 -38 38q-20 35 -20 89v266q0 52 -22 73
q-11 11 -25.5 11t-25.5 -11q-22 -22 -21 -73v-342h32v-56h-127z" />
    <glyph glyph-name="uni01A2" unicode="&#x1a2;" 
d="M46 132v471q0 49 20 82q16 27 42 42q27 16 64 16t64 -16q37 -21 52 -65q24 4 41 15q36 20 54 58h63v-940h-63v848q-11 -8 -22 -15q-27 -16 -64 -22v-474q0 -49 -19 -82q-16 -27 -42 -42q-27 -16 -64 -16t-64 16q-26 15 -42 42q-19 34 -20 82zM109 132q0 -33 12 -54
q9 -15 22 -23q12 -7 28.5 -7t29.5 7q13 8 22 23q12 21 12 54v471q0 33 -12 54q-9 15 -22 23q-13 7 -29.5 7t-28.5 -7q-13 -8 -22 -23q-12 -21 -12 -54v-471z" />
    <glyph glyph-name="uni01A3" unicode="&#x1a3;" 
d="M46 132v266q0 49 20 82q16 27 42 42q27 16 64 16t64 -16q37 -21 52 -65q24 4 41 15q36 20 54 58h63v-735h-63v643q-11 -8 -22 -15q-27 -16 -64 -22v-269q0 -49 -19 -82q-16 -27 -42 -42q-27 -16 -64 -16t-64 16q-26 15 -42 42q-19 34 -20 82zM109 132q0 -33 12 -54
q9 -15 22 -23q12 -7 28.5 -7t29.5 7q13 8 22 23q12 21 12 54v266q0 33 -12 54q-9 15 -22 23q-13 7 -29.5 7t-28.5 -7q-13 -8 -22 -23q-12 -21 -12 -54v-266z" />
    <glyph glyph-name="uni01F7" unicode="&#x1f7;" 
d="M70 0v735h63v-52q20 23 47 39q37 21 77 21q45 0 84 -23q39 -22 64 -65q33 -57 33 -132q0 -80 -47 -161q-62 -106 -258 -288v-74h-63zM133 154q155 146 202 228q41 70 40 140q0 62 -25 106q-17 30 -43 45q-25 14 -53 14q-29 0 -56 -15q-31 -18 -50 -51q-10 -18 -15 -38
v-429z" />
    <glyph glyph-name="uni01BF" unicode="&#x1bf;" 
d="M70 -205v735h63v-52q20 23 47 39q37 21 77 21q45 0 84 -23q39 -22 64 -65q33 -57 33 -132q0 -80 -47 -161q-62 -106 -258 -288v-74h-63zM133 -51q155 146 202 228q41 70 40 140q0 62 -25 106q-17 30 -43 45q-25 14 -53 14q-29 0 -56 -15q-31 -18 -50 -51q-10 -18 -15 -38
v-429z" />
    <glyph glyph-name="uni021C" unicode="&#x21c;" 
d="M64 48q104 11 189 60q63 37 93 87q22 38 22 79q0 38 -18 70q-10 18 -26 32q-9 -6 -19 -12q-80 -46 -185 -80l-19 54q111 36 175 72q49 28 72 67q20 35 20 74q0 44 -21 80q-16 27 -41 41.5t-60 14.5q-34 0 -59 -15q-26 -15 -41.5 -42t-19.5 -62l-61 12q5 43 26 79
q23 40 61 61q40 23 94.5 23t94.5 -23q38 -22 60 -61q28 -49 29 -108q0 -50 -26 -95q-13 -22 -33 -42q20 -19 34 -43q25 -43 26 -96q0 -55 -30 -105q-37 -63 -113 -108q-99 -57 -218 -70z" />
    <glyph glyph-name="uni021D" unicode="&#x21d;" 
d="M64 -157q104 11 189 60q63 37 93 87q22 38 22 79q0 38 -18 70q-10 18 -26 32q-9 -6 -19 -12q-80 -46 -185 -80l-19 54q111 36 175 72q49 28 72 67q20 35 20 74q0 44 -21 80q-16 27 -41 41.5t-60 14.5q-34 0 -59 -15q-26 -15 -41.5 -42t-19.5 -62l-61 12q5 43 26 79
q23 40 61 61q40 23 94.5 23t94.5 -23q38 -22 60 -61q28 -49 29 -108q0 -50 -26 -95q-13 -22 -33 -42q20 -19 34 -43q25 -43 26 -96q0 -55 -30 -105q-37 -63 -113 -108q-99 -57 -218 -70z" />
    <glyph glyph-name="uni0263" unicode="&#x263;" 
d="M62 530h63q77 -168 125 -300q49 132 125 300h63q-104 -228 -157 -389q53 -165 53 -262q0 -28 -10 -46q-10 -17 -27 -27q-20 -11 -47.5 -11t-46.5 11q-17 10 -27 27q-10 18 -10 46q0 97 53 261q-52 162 -157 390zM228 -121q0 -15 7 -22q6 -6 15 -6t15 6q7 7 7 22
q0 63 -22 154q-18 -75 -21 -131q-1 -18 -1 -23z" />
    <glyph glyph-name="uni0194" unicode="&#x194;" 
d="M62 735h63q77 -220 125 -394q49 173 125 394h63q-105 -300 -157 -510q53 -217 53 -344q0 -31 -10 -48t-27 -27q-20 -11 -47.5 -11t-46.5 11q-17 10 -27 27q-10 18 -10 48q0 127 53 342q-52 213 -157 512zM228 -122q0 -14 7 -21q6 -6 15 -6t15 6q7 7 7 21q0 84 -23 205
q-20 -107 -20 -180q0 -2 -0.5 -13t-0.5 -12z" />
    <glyph glyph-name="uni0264" unicode="&#x264;" 
d="M62 530h63q55 -82 96 -153q16 -27 29 -53q14 25 29 53q41 71 96 153h63q-55 -83 -97 -154q-36 -62 -60 -114q53 -113 53 -181q0 -26 -10 -43t-27 -27q-20 -11 -47.5 -11t-46.5 11q-17 10 -27 27q-10 18 -10 43q0 67 53 181q-24 52 -60 114q-41 71 -97 154zM228 83
q0 -14 7 -21q6 -6 15 -6t15 6q7 7 7 21q0 43 -22 105q-22 -62 -22 -105z" />
    <glyph glyph-name="uni02DE" unicode="&#x2de;" 
d="M-81 287l238 147h62v-169q0 -67 25 -110q17 -30 43 -45q24 -14 56 -14t56 14q26 15 44 45q7 12 12 26l55 -25q-6 -14 -13 -28q-25 -43 -64 -66q-38 -22 -90 -22t-91 23t-63 64q-32 56 -32 138v101l-200 -123z" />
    <glyph glyph-name="uni025A" unicode="&#x25a;" 
d="M54 220v73h254v17q0 79 -26 126q-15 25 -35 36q-16 10 -38 10t-39 -10q-43 -25 -57 -97l-56 25q8 34 25 62q23 39 56 58q31 18 71 18t71 -18q34 -20 56 -58q32 -56 35 -143h39v-1q0 -39 15 -65q12 -20 30 -31q19 -11 42 -11h3v-51h-4q-40 0 -73 19q-34 20 -52 57v-16
q0 -94 -35 -153q-22 -39 -55 -58q-29 -17 -68 -17t-69 17q-33 19 -55 58q-34 59 -35 153zM117 220q0 -81 27 -127q14 -25 33 -36q16 -9 35.5 -9t35.5 9q19 11 33 36q27 47 27 127v17h-191v-17z" />
    <glyph glyph-name="uni025D" unicode="&#x25d;" 
d="M65 110l61 14q3 -19 12 -35q24 -41 74 -41q51 0 75 41q14 24 13 59q0 35 -14 59q-24 41 -74 41h-42v56h42q28 0 48 11q18 10 29 28q12 21 11 50q0 29 -11 49q-10 18 -29 29q-20 11 -47 11q-30 0 -50 -12q-17 -10 -27 -27q-9 -16 -10 -34l-61 11q1 28 16 53q16 28 45 44
q36 21 87 21q49 0 84 -20q30 -17 47 -47q19 -33 19 -78q0 -39 -17 -66q-10 -18 -25 -31l33 23h56v-1q0 -39 15 -65q12 -20 30 -31q19 -11 42 -11h3v-51h-4q-40 0 -73 19q-47 27 -63 85l-17 -12l-47 26l6 5q-7 -4 -15 -8q38 -17 57 -52q18 -31 19 -76q0 -51 -21 -87
q-18 -31 -49 -49q-34 -19 -80.5 -19t-80.5 19q-31 18 -49 49q-13 23 -18 50z" />
    <glyph glyph-name="uni02AD" unicode="&#x2ad;" 
d="M70 74v220h360v-220h-63v164h-234v-164h-63zM70 441v221h360v-221h-63v165h-234v-165h-63z" />
    <glyph glyph-name="zero.ss08" 
d="M54 220v295q0 81 33 137q25 43 66 67t97 24t97 -24t66 -67q32 -56 33 -137v-295q0 -81 -33 -137q-25 -43 -66 -67t-97 -24t-97 24t-66 67q-32 56 -33 137zM117 220q0 -66 25 -109q18 -31 46 -48q27 -15 62.5 -15t61.5 15q28 16 46 48q25 43 25 109v295q0 66 -25 109
q-18 31 -46 48q-26 15 -62 15t-62 -15q-28 -16 -46 -48q-25 -43 -25 -109v-295z" />
    <glyph glyph-name="zero.ss06" 
d="M54 220v295q0 81 33 137q25 43 66 67t97 24t97 -24t66 -67q32 -56 33 -137v-295q0 -81 -33 -137q-25 -43 -66 -67t-97 -24t-97 24t-66 67q-32 56 -33 137zM117 242l259 339q-6 24 -18 43q-18 31 -46 48q-26 15 -62 15t-62 -15q-28 -16 -46 -48q-25 -43 -25 -109v-273z
M124 154q6 -24 18 -43q18 -31 46 -48q27 -15 62.5 -15t61.5 15q28 16 46 48q25 43 25 109v273z" />
    <glyph glyph-name="zero.ss07" 
d="M54 220v295q0 81 33 137q25 43 66 67t97 24t97 -24t66 -67q32 -56 33 -137v-295q0 -81 -33 -137q-25 -43 -66 -67t-97 -24t-97 24t-66 67q-32 56 -33 137zM117 220q0 -66 25 -109q18 -31 46 -48q27 -15 62.5 -15t61.5 15q28 16 46 48q25 43 25 109v295q0 66 -25 109
q-18 31 -46 48q-26 15 -62 15t-62 -15q-28 -16 -46 -48q-25 -43 -25 -109v-295zM200 367.5q0 -22.5 13.5 -36t36.5 -13.5t36.5 13.5t13.5 36t-13.5 36.5t-36.5 14t-36.5 -14t-13.5 -36.5z" />
    <glyph glyph-name="zero" unicode="0" 
d="M54 220v295q0 81 33 137q25 43 66 67t97 24t97 -24t66 -67q32 -56 33 -137v-295q0 -81 -33 -137q-25 -43 -66 -67t-97 -24t-97 24t-66 67q-32 56 -33 137zM117 242l259 339q-6 24 -18 43q-18 31 -46 48q-26 15 -62 15t-62 -15q-28 -16 -46 -48q-25 -43 -25 -109v-273z
M124 154q6 -24 18 -43q18 -31 46 -48q27 -15 62.5 -15t61.5 15q28 16 46 48q25 43 25 109v273z" />
    <glyph glyph-name="one" unicode="1" 
d="M48 619l181 116h62v-679h144v-56h-350v56h144v610l-148 -94z" />
    <glyph glyph-name="two" unicode="2" 
d="M65 580q4 42 25 78q23 39 61 61q42 24 100 24t99 -24q38 -22 61 -61q27 -46 27 -103q0 -60 -34 -118q-29 -51 -117 -126q-86 -74 -116 -127q-29 -50 -36 -128h232v89h63v-145h-360v1q0 134 43 209q34 60 126 135q82 68 109 115t28 94q0 42 -20 76q-15 27 -41 41
q-27 16 -64 16t-64 -16q-26 -15 -42 -42q-15 -26 -18 -59z" />
    <glyph glyph-name="three" unicode="3" 
d="M65 155l61 13q4 -35 20 -63t42 -43q25 -14 58 -14q34 0 59 14q25 15 41 43q21 37 22 85q0 45 -21 82q-19 33 -52 52q-40 23 -116 23v56q78 0 118 23q32 19 51 51q20 34 20 76q0 44 -20 78q-15 27 -41 41q-26 15 -60 15t-60 -14.5t-41.5 -42t-19.5 -61.5l-61 11
q5 43 26 79q23 39 60 61q40 23 95.5 23t95.5 -23q38 -22 60 -61q28 -48 28 -106q0 -52 -25 -95q-24 -42 -66 -66q-18 -10 -42 -17q22 -7 39 -17q43 -25 68 -68q26 -45 26 -101q0 -62 -29 -112q-23 -40 -61 -62q-40 -23 -94 -23t-93 23q-38 22 -62 62q-20 35 -26 78z" />
    <glyph glyph-name="four" unicode="4" 
d="M54 238v56l237 441h76v-441h63v-56h-63v-182h54v-56h-170v56h54v182h-251zM117 294h188v349z" />
    <glyph glyph-name="five" unicode="5" 
d="M65 155l58 21q7 -36 23 -65q19 -32 47 -48q25 -15 59 -15q33 0 58 14q28 16 46 48q27 48 27 122q0 75 -27 123q-18 31 -45 46q-24 14 -55 14q-32 0 -57 -14q-27 -16 -45 -47q-12 -21 -19 -46l-56 25v402h341v-145h-63v89h-215v-247q11 10 24 17q38 22 89.5 22t90.5 -22
q40 -23 65 -67q35 -60 35 -150q0 -89 -35 -149q-26 -44 -66 -68q-40 -23 -93 -23t-93 23q-41 24 -66 68q-19 33 -28 72z" />
    <glyph glyph-name="uni01BC" unicode="&#x1bc;" 
d="M65 155l58 21q7 -36 23 -65q19 -32 47 -48q25 -15 59 -15q33 0 58 14q28 16 46 48q27 48 27 122q0 75 -27 123q-18 31 -45 46q-24 14 -55 14q-32 0 -57 -14q-27 -16 -45 -47q-12 -21 -19 -46l-56 25v402h341v-145h-63v89h-215v-247q11 10 24 17q38 22 89.5 22t90.5 -22
q40 -23 65 -67q35 -60 35 -150q0 -89 -35 -149q-26 -44 -66 -68q-40 -23 -93 -23t-93 23q-41 24 -66 68q-19 33 -28 72z" />
    <glyph glyph-name="uni01BD" unicode="&#x1bd;" 
d="M65 150v5l62 6v-6q0 -27 13 -50q14 -24 40 -39q31 -18 75 -18q43 0 74 17q25 15 39 40q15 26 15 62t-15 62q-14 24 -39 40q-30 17 -73 17q-44 0 -74 -17q-26 -15 -40 -41q-3 -6 -6 -11l-57 23v290h341v-145h-63v89h-215v-161q3 2 5 4q44 25 109 25q64 0 109 -26
q37 -22 58 -58q22 -38 22.5 -91t-22.5 -91q-21 -36 -58 -58q-45 -26 -110 -26q-67 0 -112 26q-37 21 -58 58q-20 34 -20 74z" />
    <glyph glyph-name="six" unicode="6" 
d="M54 220v2q0 197 73 323q56 98 151 152q43 25 90 38l17 -54q-38 -12 -72 -31q-81 -47 -130 -132q-26 -45 -42 -100q5 4 12 7q41 24 97 24t97 -24t66 -67q32 -56 33 -137v-1q0 -81 -33 -137q-25 -43 -66 -67t-97 -24t-97 24t-66 67q-33 56 -33 137zM117 220q0 -66 25 -109
q18 -31 46 -48q27 -15 62.5 -15t61.5 15q28 16 46 48q25 43 25 109v1q0 66 -25 109q-18 31 -46 48q-27 15 -62.5 15t-61.5 -15q-28 -16 -46 -48q-25 -43 -25 -108v-2z" />
    <glyph glyph-name="seven" unicode="7" 
d="M62 590v145h368v-56l-226 -679h-66l226 679h-239v-89h-63z" />
    <glyph glyph-name="eight" unicode="8" 
d="M54 169q0 51 28 100q30 50 116 107q-73 51 -100 97q-28 48 -28 100q0 50 23 90q21 36 57 56q41 24 100 24t100 -24q36 -21 57 -56q23 -40 23 -90q0 -51 -28 -100q-27 -46 -100 -97q86 -57 116 -107q28 -48 28 -100q0 -50 -24 -91q-22 -37 -60 -59q-46 -27 -112 -27
t-112 27q-39 22 -60 59q-24 41 -24 91zM117 169q0 -34 16 -62q15 -25 41 -41q31 -18 76 -18t76 18q26 15 41 41q16 28 16 62q0 37 -20 74q-28 47 -113 100q-85 -53 -113 -100q-21 -36 -20 -74zM132 573q0 -37 21 -74q25 -43 97 -90q72 47 97 90q21 36 21 74q0 34 -16 61
q-14 24 -37 38q-27 15 -65 15t-65 -15q-24 -14 -37 -38q-16 -27 -16 -61z" />
    <glyph glyph-name="glyph655" 
d="M54 0q0 155 47 236q32 55 105 118q-79 67 -106 114q-30 52 -30 105q0 50 23 90q21 36 57 56q41 24 100 24t100 -24q36 -21 57 -56q23 -40 23 -90q0 -53 -30 -105q-27 -47 -106 -114q72 -63 105 -118q47 -81 47 -236h-63q0 135 -43 210q-28 48 -90 106q-63 -58 -90 -106
q-43 -75 -43 -210h-63zM132 572q0 -41 24 -82t94 -99q70 58 94 99t24 82q0 35 -16 62q-14 24 -38 38q-27 15 -64.5 15t-63.5 -15q-24 -14 -38 -38q-16 -27 -16 -62z" />
    <glyph glyph-name="nine" unicode="9" 
d="M54 504v11q0 81 33 137q25 43 66 67t97 24q55 0 96 -24t66 -67q33 -57 34 -142v-253q0 -105 -40 -172q-27 -47 -68 -71q-38 -22 -88 -22t-88 22q-41 24 -69 70q-18 32 -28 71l56 25q8 -38 25 -67q20 -34 48 -51q24 -14 56 -14q31 0 54 14q28 16 47 49q32 56 32 146v102
q-1 -3 -2 -5q-23 -40 -58 -60q-31 -18 -75 -18q-54 0 -96 24q-41 24 -65 67q-32 56 -33 137zM117 504q0 -66 25 -109q18 -31 46 -47q26 -15 61 -16q36 0 63 16q28 16 46 47q25 43 25 109v6q0 69 -26 114q-18 32 -46 48q-26 15 -61 15t-62 -15q-28 -16 -46 -48
q-25 -43 -25 -109v-11z" />
    <glyph glyph-name="uni2000" unicode="&#x2000;" 
 />
    <glyph glyph-name="uni2002" unicode="&#x2002;" 
 />
    <glyph glyph-name="uni2004" unicode="&#x2004;" 
 />
    <glyph glyph-name="uni2005" unicode="&#x2005;" 
 />
    <glyph glyph-name="uni2006" unicode="&#x2006;" 
 />
    <glyph glyph-name="uni2007" unicode="&#x2007;" 
 />
    <glyph glyph-name="uni200B" unicode="&#x200b;" horiz-adv-x="0" 
 />
    <glyph glyph-name="uni00A0" unicode="&#xa0;" 
 />
    <glyph glyph-name="uni2001" unicode="&#x2001;" 
 />
    <glyph glyph-name="uni2003" unicode="&#x2003;" 
 />
    <glyph glyph-name="parenleft" unicode="(" 
d="M124.5 331q-0.5 229 99.5 401q35 60 80 112l47 -37q-40 -46 -72 -100q-93 -161 -92.5 -375.5t92.5 -375.5q31 -53 72 -100l-47 -37q-46 52 -80 111q-99 172 -99.5 401z" />
    <glyph glyph-name="parenright" unicode=")" 
d="M149 -144q40 46 72 100q93 161 92.5 375.5t-92.5 375.5q-31 53 -72 100l47 37q46 -52 80 -112q99 -172 99.5 -400.5t-99.5 -401.5q-35 -60 -80 -111z" />
    <glyph glyph-name="bracketleft" unicode="[" 
d="M124 -181v1025h270v-56h-207v-913h207v-56h-270z" />
    <glyph glyph-name="bracketright" unicode="]" 
d="M106 -125h207v913h-207v56h270v-1025h-270v56z" />
    </font>
</defs>
</svg>
