<svg width="18" height="20" viewBox="0 0 18 20" fill="none" xmlns="http://www.w3.org/2000/svg">
<path d="M16.334 2C12.0447 2 7.83929 2 1.62367 2C0.667318 2 0.333984 2.33333 0.333984 3.33333V18.6667C0.333984 19.4555 0.955052 20 1.66732 20H16.334C17.0463 20 17.6673 19.4555 17.6673 18.6667V3.33333C17.6673 2.33333 17.334 2 16.334 2ZM16.334 18.6667H1.66732V3.33333H16.334V18.6667Z" fill="#FDFDFD"/>
<path d="M3.15596 16H4.84526C4.93105 16 5.00061 15.9536 5.00061 15.8964V14.7702C5.00061 14.713 4.93105 14.6667 4.84526 14.6667H3.15596C3.07017 14.6667 3.00061 14.713 3.00061 14.7702V15.8964C3.00061 15.9536 3.07017 16 3.15596 16Z" fill="#FDFDFD"/>
<path d="M6.48933 16H8.17864C8.26443 16 8.33398 15.9536 8.33398 15.8964V14.7702C8.33398 14.713 8.26443 14.6667 8.17864 14.6667H6.48933C6.40354 14.6667 6.33398 14.713 6.33398 14.7702V15.8964C6.33398 15.9536 6.40354 16 6.48933 16Z" fill="#FDFDFD"/>
<path d="M9.8227 16H11.512C11.5978 16 11.6674 15.9536 11.6674 15.8964V14.7702C11.6674 14.713 11.5978 14.6667 11.512 14.6667H9.8227C9.73691 14.6667 9.66736 14.713 9.66736 14.7702V15.8964C9.66736 15.9536 9.73691 16 9.8227 16Z" fill="#FDFDFD"/>
<path d="M13.156 16H14.8453C14.9311 16 15.0006 15.9536 15.0006 15.8964V14.7702C15.0006 14.713 14.9311 14.6667 14.8453 14.6667H13.156C13.0702 14.6667 13.0006 14.713 13.0006 14.7702V15.8964C13.0006 15.9536 13.0702 16 13.156 16Z" fill="#FDFDFD"/>
<path d="M3.15596 13.3333H4.84526C4.93105 13.3333 5.00061 13.287 5.00061 13.2298V12.1036C5.00061 12.0464 4.93105 12 4.84526 12H3.15596C3.07017 12 3.00061 12.0464 3.00061 12.1036V13.2298C3.00061 13.287 3.07017 13.3333 3.15596 13.3333Z" fill="#FDFDFD"/>
<path d="M6.48933 13.3333H8.17864C8.26443 13.3333 8.33398 13.287 8.33398 13.2298V12.1036C8.33398 12.0464 8.26443 12 8.17864 12H6.48933C6.40354 12 6.33398 12.0464 6.33398 12.1036V13.2298C6.33398 13.287 6.40354 13.3333 6.48933 13.3333Z" fill="#FDFDFD"/>
<path d="M9.8227 13.3333H11.512C11.5978 13.3333 11.6674 13.287 11.6674 13.2298V12.1036C11.6674 12.0464 11.5978 12 11.512 12H9.8227C9.73691 12 9.66736 12.0464 9.66736 12.1036V13.2298C9.66736 13.287 9.73691 13.3333 9.8227 13.3333Z" fill="#FDFDFD"/>
<path d="M13.156 13.3333H14.8453C14.9311 13.3333 15.0006 13.287 15.0006 13.2298V12.1036C15.0006 12.0464 14.9311 12 14.8453 12H13.156C13.0702 12 13.0006 12.0464 13.0006 12.1036V13.2298C13.0006 13.287 13.0702 13.3333 13.156 13.3333Z" fill="#FDFDFD"/>
<path d="M3.15596 10.6667H4.84526C4.93105 10.6667 5.00061 10.6203 5.00061 10.5631V9.4369C5.00061 9.3797 4.93105 9.33333 4.84526 9.33333H3.15596C3.07017 9.33333 3.00061 9.3797 3.00061 9.4369V10.5631C3.00061 10.6203 3.07017 10.6667 3.15596 10.6667Z" fill="#FDFDFD"/>
<path d="M6.48933 10.6667H8.17864C8.26443 10.6667 8.33398 10.6203 8.33398 10.5631V9.4369C8.33398 9.3797 8.26443 9.33333 8.17864 9.33333H6.48933C6.40354 9.33333 6.33398 9.3797 6.33398 9.4369V10.5631C6.33398 10.6203 6.40354 10.6667 6.48933 10.6667Z" fill="#FDFDFD"/>
<path d="M9.8227 10.6667H11.512C11.5978 10.6667 11.6674 10.6203 11.6674 10.5631V9.4369C11.6674 9.3797 11.5978 9.33333 11.512 9.33333H9.8227C9.73691 9.33333 9.66736 9.3797 9.66736 9.4369V10.5631C9.66736 10.6203 9.73691 10.6667 9.8227 10.6667Z" fill="#FDFDFD"/>
<path d="M13.156 10.6667H14.8453C14.9311 10.6667 15.0006 10.6203 15.0006 10.5631V9.4369C15.0006 9.3797 14.9311 9.33333 14.8453 9.33333H13.156C13.0702 9.33333 13.0006 9.3797 13.0006 9.4369V10.5631C13.0006 10.6203 13.0702 10.6667 13.156 10.6667Z" fill="#FDFDFD"/>
<path d="M3.15596 8H4.84526C4.93105 8 5.00061 7.95363 5.00061 7.89644V6.77023C5.00061 6.71304 4.93105 6.66667 4.84526 6.66667H3.15596C3.07017 6.66667 3.00061 6.71304 3.00061 6.77023V7.89644C3.00061 7.95363 3.07017 8 3.15596 8Z" fill="#FDFDFD"/>
<path d="M3.77092 4H4.89713C4.95432 4 5.00069 3.86089 5.00069 3.68931V0.310692C5.00069 0.139112 4.95432 0 4.89713 0H3.77092C3.71373 0 3.66736 0.139112 3.66736 0.310692V3.68931C3.66736 3.86089 3.71373 4 3.77092 4Z" fill="#FDFDFD"/>
<path d="M13.1042 4H14.2304C14.2876 4 14.3339 3.86089 14.3339 3.68931V0.310692C14.3339 0.139112 14.2876 0 14.2304 0H13.1042C13.047 0 13.0006 0.139112 13.0006 0.310692V3.68931C13.0006 3.86089 13.047 4 13.1042 4Z" fill="#FDFDFD"/>
<path d="M6.48933 8H8.17864C8.26443 8 8.33398 7.95363 8.33398 7.89644V6.77023C8.33398 6.71304 8.26443 6.66667 8.17864 6.66667H6.48933C6.40354 6.66667 6.33398 6.71304 6.33398 6.77023V7.89644C6.33398 7.95363 6.40354 8 6.48933 8Z" fill="#FDFDFD"/>
<path d="M9.8227 8H11.512C11.5978 8 11.6674 7.95363 11.6674 7.89644V6.77023C11.6674 6.71304 11.5978 6.66667 11.512 6.66667H9.8227C9.73691 6.66667 9.66736 6.71304 9.66736 6.77023V7.89644C9.66736 7.95363 9.73691 8 9.8227 8Z" fill="#FDFDFD"/>
<path d="M13.156 8H14.8453C14.9311 8 15.0006 7.95363 15.0006 7.89644V6.77023C15.0006 6.71304 14.9311 6.66667 14.8453 6.66667H13.156C13.0702 6.66667 13.0006 6.71304 13.0006 6.77023V7.89644C13.0006 7.95363 13.0702 8 13.156 8Z" fill="#FDFDFD"/>
</svg>
