<svg width="20" height="24" viewBox="0 0 20 24" fill="none" xmlns="http://www.w3.org/2000/svg">
<g opacity="0.2">
<path fill-rule="evenodd" clip-rule="evenodd" d="M7.79998 0C7.51524 0 7.15994 0.105463 6.87095 0.38289C6.6983 0.54864 6.57162 0.753728 6.49341 0.989089C4.64364 1.67658 1.1501 3.89589 0.824317 9.54164C0.820439 9.55119 0.799861 9.60078 0.714673 9.71116C0.673005 9.76515 0.63296 9.81306 0.583451 9.87229L0.583406 9.87234L0.583393 9.87236C0.559811 9.90057 0.534082 9.93135 0.505007 9.96658C0.425748 10.0626 0.326429 10.1865 0.238914 10.3254C0.0798135 10.5779 8.34481e-05 10.8749 5.34074e-05 11.1999L1.63563e-09 12C-3.95282e-05 12.8838 0.71644 13.6 1.59998 13.6H9.59998H17.6C18.4835 13.6 19.2 12.8838 19.2 12L19.1999 11.1999C19.1999 10.8749 19.1201 10.5779 18.961 10.3254C18.8735 10.1865 18.7742 10.0626 18.695 9.96658C18.6659 9.93135 18.6402 9.90057 18.6166 9.87236C18.567 9.8131 18.527 9.76517 18.4853 9.71116C18.4001 9.60078 18.3795 9.55119 18.3756 9.54164C18.0499 3.89589 14.5563 1.67657 12.7066 0.989089C12.6283 0.753727 12.5017 0.54864 12.329 0.38289C12.04 0.105463 11.6847 0 11.4 0H9.59998H7.79998ZM12.8 2.77464V2.77802V2.78736V2.79672V2.80609V2.81548V2.82488V2.8343V2.84373V2.85318V2.86265V2.87213V2.88162V2.89113V2.90065V2.91018V2.91973V2.92929V2.93887V2.94846V2.95806V2.96767V2.9773V2.98694V2.99659V3.00625V3.01592V3.02561V3.03531V3.04501V3.05473V3.06446V3.0742V3.08395V3.09371V3.10348V3.11325V3.12304V3.13284V3.14265V3.15246V3.16229V3.17212V3.18196V3.19181V3.20166V3.21153V3.2214V3.23127V3.24116V3.25105V3.26095V3.27085V3.28077V3.29068V3.30061V3.31053V3.32047V3.33041V3.34035V3.3503V3.36025V3.37021V3.38017V3.39014V3.40011V3.41008V3.42006V3.43004V3.44002V3.45001V3.46V3.46999V3.47998V3.48998V3.49997V3.50997V3.51997V3.52997V3.53997V3.54997V3.55998V3.56998V3.57999V3.58999V3.59999V3.61V3.62V3.63V3.64V3.65V3.66V3.66999V3.67999V3.68998V3.69997V3.70996V3.71994V3.72993V3.73991V3.74988V3.75985V3.76982V3.77979V3.78975V3.79971V3.80966V3.81961V3.82955V3.83949V3.84942V3.85935V3.86927V3.87919V3.8891V3.899V3.9089V3.91879V3.92867V3.93855V3.94842V3.95828V3.96814V3.97798V3.98782V3.99765V4.00747V4.01729V4.02709V4.03689V4.04667V4.05645V4.06622V4.07597V4.08572V4.09546V4.10519V4.1149V4.12461V4.1343V4.14398V4.15366V4.16332V4.17296V4.1826V4.19222V4.20184V4.21143V4.22102V4.23059V4.24015V4.2497V4.25923V4.26875V4.27825V4.28774V4.29722V4.30668V4.31613V4.32556V4.33498V4.34438V4.35376V4.36313V4.37249V4.38182V4.39114V4.40045V4.40973V4.419V4.42826V4.43749V4.44671V4.45591V4.46509V4.47426V4.4834V4.49253V4.50163V4.51072V4.51979V4.52884V4.53787V4.54688V4.55587V4.56484V4.57379V4.58272V4.59163V4.60052V4.60938V4.61823V4.62705V4.63585V4.64463V4.65339V4.66212V4.67083V4.67952V4.68819V4.69683V4.70545V4.71404V4.72262V4.73116V4.73969V4.74819V4.75666V4.76511V4.77353V4.78193V4.79031V4.79865V4.80697V4.81527V4.82354V4.83178V4.84V4.84819V4.85635V4.86449V4.8726V4.88068V4.88873V4.89675V4.90475V4.91272V4.92066V4.92857V4.93645V4.9443V4.95212V4.95991V4.96768V4.97541V4.98311V4.99078V4.99842V5.00603V5.01361V5.02116V5.02868V5.03616V5.04362V5.05104V5.05843V5.06578V5.07311V5.0804V5.08766V5.09488V5.10207V5.10923V5.11635V5.12344V5.1305V5.13752V5.1445V5.15146V5.15837V5.16525V5.1721V5.17891V5.18568V5.19242V5.19912V5.20579V5.21241V5.21901V5.22556V5.23208V5.23856V5.245V5.2514V5.25777V5.2641V5.27039V5.27664V5.28285V5.28902V5.29516V5.30125V5.3073V5.31332V5.31929V5.32523V5.33112V5.33697V5.34279V5.34856V5.35429V5.35998V5.36562V5.37123V5.37679V5.38231V5.38779V5.39322V5.39861V5.40396V5.40927V5.41453V5.41975V5.42493V5.43006V5.43514V5.44019V5.44518V5.45014V5.45504V5.45991V5.46472V5.46949V5.47422V5.4789V5.48353V5.48812V5.49266V5.49715V5.5016V5.50599V5.51034V5.51465V5.5189V5.52311V5.52727V5.53138V5.53544V5.53945V5.54342V5.54733V5.5512V5.55501V5.55878V5.56249V5.56616V5.56977V5.57334V5.57685V5.58031V5.58372V5.58708V5.59039V5.59365V5.59685V5.6C12.8 6.04183 12.4418 6.4 12 6.4C11.5582 6.4 11.2 6.04183 11.2 5.6V5.59685V5.59365V5.59039V5.58708V5.58372V5.58031V5.57685V5.57334V5.56977V5.56616V5.56249V5.55878V5.55501V5.5512V5.54733V5.54342V5.53945V5.53544V5.53138V5.52727V5.52311V5.5189V5.51465V5.51034V5.50599V5.5016V5.49715V5.49266V5.48812V5.48353V5.4789V5.47422V5.46949V5.46472V5.45991V5.45504V5.45014V5.44518V5.44019V5.43514V5.43006V5.42493V5.41975V5.41453V5.40927V5.40396V5.39861V5.39322V5.38779V5.38231V5.37679V5.37123V5.36562V5.35998V5.35429V5.34856V5.34279V5.33697V5.33112V5.32523V5.31929V5.31332V5.3073V5.30125V5.29516V5.28902V5.28285V5.27664V5.27039V5.2641V5.25777V5.2514V5.245V5.23856V5.23208V5.22556V5.21901V5.21241V5.20579V5.19912V5.19242V5.18568V5.17891V5.1721V5.16525V5.15837V5.15146V5.1445V5.13752V5.1305V5.12344V5.11635V5.10923V5.10207V5.09488V5.08766V5.0804V5.07311V5.06578V5.05843V5.05104V5.04362V5.03616V5.02868V5.02116V5.01361V5.00603V4.99842V4.99078V4.98311V4.97541V4.96768V4.95991V4.95212V4.9443V4.93645V4.92857V4.92066V4.91272V4.90475V4.89675V4.88873V4.88068V4.8726V4.86449V4.85635V4.84819V4.84V4.83178V4.82354V4.81527V4.80697V4.79865V4.79031V4.78193V4.77353V4.76511V4.75666V4.74819V4.73969V4.73116V4.72262V4.71404V4.70545V4.69683V4.68819V4.67952V4.67083V4.66212V4.65339V4.64463V4.63585V4.62705V4.61823V4.60938V4.60052V4.59163V4.58272V4.57379V4.56484V4.55587V4.54688V4.53787V4.52884V4.51979V4.51072V4.50163V4.49253V4.4834V4.47426V4.46509V4.45591V4.44671V4.43749V4.42826V4.419V4.40973V4.40045V4.39114V4.38182V4.37249V4.36313V4.35376V4.34438V4.33498V4.32556V4.31613V4.30668V4.29722V4.28774V4.27825V4.26875V4.25923V4.2497V4.24015V4.23059V4.22102V4.21143V4.20184V4.19222V4.1826V4.17296V4.16332V4.15366V4.14398V4.1343V4.12461V4.1149V4.10519V4.09546V4.08572V4.07597V4.06622V4.05645V4.04667V4.03689V4.02709V4.01729V4.00747V3.99765V3.98782V3.97798V3.96814V3.95828V3.94842V3.93855V3.92867V3.91879V3.9089V3.899V3.8891V3.87919V3.86927V3.85935V3.84942V3.83949V3.82955V3.81961V3.80966V3.79971V3.78975V3.77979V3.76982V3.75985V3.74988V3.73991V3.72993V3.71994V3.70996V3.69997V3.68998V3.67999V3.66999V3.66V3.65V3.64V3.63V3.62V3.61V3.59999V3.58999V3.57999V3.56998V3.55998V3.54997V3.53997V3.52997V3.51997V3.50997V3.49997V3.48998V3.47998V3.46999V3.46V3.45001V3.44002V3.43004V3.42006V3.41008V3.40011V3.39014V3.38017V3.37021V3.36025V3.3503V3.34035V3.33041V3.32047V3.31053V3.30061V3.29068V3.28077V3.27085V3.26095V3.25105V3.24116V3.23127V3.2214V3.21153V3.20166V3.19181V3.18196V3.17212V3.16229V3.15246V3.14265V3.13284V3.12304V3.11325V3.10348V3.09371V3.08395V3.0742V3.06446V3.05473V3.04501V3.03531V3.02561V3.01592V3.00625V2.99659V2.98694V2.9773V2.96767V2.95806V2.94846V2.93887V2.92929V2.91973V2.91018V2.90065V2.89113V2.88162V2.87213V2.86265V2.85318V2.84373V2.8343V2.82488V2.81548V2.80609V2.79672V2.78736V2.77802V2.7687V2.75939V2.7501V2.74083V2.73157V2.72233V2.71311V2.70391V2.69472V2.68555V2.67641V2.66728V2.65816V2.64907V2.64V2.63094V2.62191V2.6129V2.6039V2.59493V2.58597V2.57704V2.56813V2.55924V2.55037V2.54152V2.53269V2.52389V2.5151V2.50634V2.49761V2.48889V2.4802V2.47153V2.46288V2.45426V2.44566V2.43708V2.42853V2.42V2.4115V2.40302V2.39456V2.38613V2.37773V2.36935V2.361V2.35267V2.34437V2.3361V2.32785V2.31963V2.31143V2.30327V2.29512V2.28701V2.27893V2.27087V2.26284V2.25484V2.24686V2.23892V2.231V2.22312V2.21526V2.20743V2.19963V2.19187V2.18413V2.17642V2.16874V2.16109V2.15348V2.14589V2.13834V2.13082V2.12332V2.11586V2.10844V2.10104V2.09368V2.08635V2.07905V2.07179V2.06456V2.05736V2.0502V2.04307V2.03597V2.02891V2.02188V2.01489V2.00793V2.00101V1.99412V1.98727V1.98045V1.97367V1.96693V1.96022V1.95355V1.94691V1.94031V1.93375V1.92723V1.92074V1.91429V1.90788V1.9015V1.89517V1.88887V1.88261V1.8764V1.87022V1.86407V1.85797V1.85191V1.84589V1.83991V1.83396V1.82806V1.8222V1.81638V1.8106V1.80487V1.79917V1.79352V1.7879V1.78233V1.7768V1.77132V1.76587V1.76047V1.75512V1.7498V1.74453V1.7393V1.73412V1.72898V1.72389V1.71884V1.71383V1.70887V1.70395V1.69908V1.69426V1.68948V1.68474V1.68005V1.67541V1.67082V1.66627V1.66177V1.65731V1.65291V1.64855V1.64423V1.63997V1.63575V1.63158V1.62746V1.62339V1.61937V1.6154V1.61147V1.6076V1.60378V1.6H9.59998H7.99998V1.60378V1.6076V1.61147V1.6154V1.61937V1.62339V1.62746V1.63158V1.63575V1.63997V1.64423V1.64855V1.65291V1.65731V1.66177V1.66627V1.67082V1.67541V1.68005V1.68474V1.68948V1.69426V1.69908V1.70395V1.70887V1.71383V1.71884V1.72389V1.72898V1.73412V1.7393V1.74453V1.7498V1.75512V1.76047V1.76587V1.77132V1.7768V1.78233V1.7879V1.79352V1.79917V1.80487V1.8106V1.81638V1.8222V1.82806V1.83396V1.83991V1.84589V1.85191V1.85797V1.86407V1.87022V1.8764V1.88261V1.88887V1.89517V1.9015V1.90788V1.91429V1.92074V1.92723V1.93375V1.94031V1.94691V1.95355V1.96022V1.96693V1.97367V1.98045V1.98727V1.99412V2.00101V2.00793V2.01489V2.02188V2.02891V2.03597V2.04307V2.0502V2.05736V2.06456V2.07179V2.07905V2.08635V2.09368V2.10104V2.10844V2.11586V2.12332V2.13082V2.13834V2.14589V2.15348V2.16109V2.16874V2.17642V2.18413V2.19187V2.19963V2.20743V2.21526V2.22312V2.231V2.23892V2.24686V2.25484V2.26284V2.27087V2.27893V2.28701V2.29512V2.30327V2.31143V2.31963V2.32785V2.3361V2.34437V2.35267V2.361V2.36935V2.37773V2.38613V2.39456V2.40302V2.4115V2.42V2.42853V2.43708V2.44566V2.45426V2.46288V2.47153V2.4802V2.48889V2.49761V2.50634V2.5151V2.52389V2.53269V2.54152V2.55037V2.55924V2.56813V2.57704V2.58597V2.59493V2.6039V2.6129V2.62191V2.63094V2.64V2.64907V2.65816V2.66728V2.67641V2.68555V2.69472V2.70391V2.71311V2.72233V2.73157V2.74083V2.7501V2.75939V2.7687V2.77802V2.78736V2.79672V2.80609V2.81548V2.82488V2.8343V2.84373V2.85318V2.86265V2.87213V2.88162V2.89113V2.90065V2.91018V2.91973V2.92929V2.93887V2.94846V2.95806V2.96767V2.9773V2.98694V2.99659V3.00625V3.01592V3.02561V3.03531V3.04501V3.05473V3.06446V3.0742V3.08395V3.09371V3.10348V3.11325V3.12304V3.13284V3.14265V3.15246V3.16229V3.17212V3.18196V3.19181V3.20166V3.21153V3.2214V3.23127V3.24116V3.25105V3.26095V3.27085V3.28077V3.29068V3.30061V3.31053V3.32047V3.33041V3.34035V3.3503V3.36025V3.37021V3.38017V3.39014V3.40011V3.41008V3.42006V3.43004V3.44002V3.45001V3.46V3.46999V3.47998V3.48998V3.49997V3.50997V3.51997V3.52997V3.53997V3.54997V3.55998V3.56998V3.57999V3.58999V3.59999V3.61V3.62V3.63V3.64V3.65V3.66V3.66999V3.67999V3.68998V3.69997V3.70996V3.71994V3.72993V3.73991V3.74988V3.75985V3.76982V3.77979V3.78975V3.79971V3.80966V3.81961V3.82955V3.83949V3.84942V3.85935V3.86927V3.87919V3.8891V3.899V3.9089V3.91879V3.92867V3.93855V3.94842V3.95828V3.96814V3.97798V3.98782V3.99765V4.00747V4.01729V4.02709V4.03689V4.04667V4.05645V4.06622V4.07597V4.08572V4.09546V4.10519V4.1149V4.12461V4.1343V4.14398V4.15366V4.16332V4.17296V4.1826V4.19222V4.20184V4.21143V4.22102V4.23059V4.24015V4.2497V4.25923V4.26875V4.27825V4.28774V4.29722V4.30668V4.31613V4.32556V4.33498V4.34438V4.35376V4.36313V4.37249V4.38182V4.39114V4.40045V4.40973V4.419V4.42826V4.43749V4.44671V4.45591V4.46509V4.47426V4.4834V4.49253V4.50163V4.51072V4.51979V4.52884V4.53787V4.54688V4.55587V4.56484V4.57379V4.58272V4.59163V4.60052V4.60938V4.61823V4.62705V4.63585V4.64463V4.65339V4.66212V4.67083V4.67952V4.68819V4.69683V4.70545V4.71404V4.72262V4.73116V4.73969V4.74819V4.75666V4.76511V4.77353V4.78193V4.79031V4.79865V4.80697V4.81527V4.82354V4.83178V4.84V4.84819V4.85635V4.86449V4.8726V4.88068V4.88873V4.89675V4.90475V4.91272V4.92066V4.92857V4.93645V4.9443V4.95212V4.95991V4.96768V4.97541V4.98311V4.99078V4.99842V5.00603V5.01361V5.02116V5.02868V5.03616V5.04362V5.05104V5.05843V5.06578V5.07311V5.0804V5.08766V5.09488V5.10207V5.10923V5.11635V5.12344V5.1305V5.13752V5.1445V5.15146V5.15837V5.16525V5.1721V5.17891V5.18568V5.19242V5.19912V5.20579V5.21241V5.21901V5.22556V5.23208V5.23856V5.245V5.2514V5.25777V5.2641V5.27039V5.27664V5.28285V5.28902V5.29516V5.30125V5.3073V5.31332V5.31929V5.32523V5.33112V5.33697V5.34279V5.34856V5.35429V5.35998V5.36562V5.37123V5.37679V5.38231V5.38779V5.39322V5.39861V5.40396V5.40927V5.41453V5.41975V5.42493V5.43006V5.43514V5.44019V5.44518V5.45014V5.45504V5.45991V5.46472V5.46949V5.47422V5.4789V5.48353V5.48812V5.49266V5.49715V5.5016V5.50599V5.51034V5.51465V5.5189V5.52311V5.52727V5.53138V5.53544V5.53945V5.54342V5.54733V5.5512V5.55501V5.55878V5.56249V5.56616V5.56977V5.57334V5.57685V5.58031V5.58372V5.58708V5.59039V5.59365V5.59685V5.6C7.99998 6.04183 7.64181 6.4 7.19998 6.4C6.75815 6.4 6.39998 6.04183 6.39998 5.6V5.59685V5.59365V5.59039V5.58708V5.58372V5.58031V5.57685V5.57334V5.56977V5.56616V5.56249V5.55878V5.55501V5.5512V5.54733V5.54342V5.53945V5.53544V5.53138V5.52727V5.52311V5.5189V5.51465V5.51034V5.50599V5.5016V5.49715V5.49266V5.48812V5.48353V5.4789V5.47422V5.46949V5.46472V5.45991V5.45504V5.45014V5.44518V5.44019V5.43514V5.43006V5.42493V5.41975V5.41453V5.40927V5.40396V5.39861V5.39322V5.38779V5.38231V5.37679V5.37123V5.36562V5.35998V5.35429V5.34856V5.34279V5.33697V5.33112V5.32523V5.31929V5.31332V5.3073V5.30125V5.29516V5.28902V5.28285V5.27664V5.27039V5.2641V5.25777V5.2514V5.245V5.23856V5.23208V5.22556V5.21901V5.21241V5.20579V5.19912V5.19242V5.18568V5.17891V5.1721V5.16525V5.15837V5.15146V5.1445V5.13752V5.1305V5.12344V5.11635V5.10923V5.10207V5.09488V5.08766V5.0804V5.07311V5.06578V5.05843V5.05104V5.04362V5.03616V5.02868V5.02116V5.01361V5.00603V4.99842V4.99078V4.98311V4.97541V4.96768V4.95991V4.95212V4.9443V4.93645V4.92857V4.92066V4.91272V4.90475V4.89675V4.88873V4.88068V4.8726V4.86449V4.85635V4.84819V4.84V4.83178V4.82354V4.81527V4.80697V4.79865V4.79031V4.78193V4.77353V4.76511V4.75666V4.74819V4.73969V4.73116V4.72262V4.71404V4.70545V4.69683V4.68819V4.67952V4.67083V4.66212V4.65339V4.64463V4.63585V4.62705V4.61823V4.60938V4.60052V4.59163V4.58272V4.57379V4.56484V4.55587V4.54688V4.53787V4.52884V4.51979V4.51072V4.50163V4.49253V4.4834V4.47426V4.46509V4.45591V4.44671V4.43749V4.42826V4.419V4.40973V4.40045V4.39114V4.38182V4.37249V4.36313V4.35376V4.34438V4.33498V4.32556V4.31613V4.30668V4.29722V4.28774V4.27825V4.26875V4.25923V4.2497V4.24015V4.23059V4.22102V4.21143V4.20184V4.19222V4.1826V4.17296V4.16332V4.15366V4.14398V4.1343V4.12461V4.1149V4.10519V4.09546V4.08572V4.07597V4.06622V4.05645V4.04667V4.03689V4.02709V4.01729V4.00747V3.99765V3.98782V3.97798V3.96814V3.95828V3.94842V3.93855V3.92867V3.91879V3.9089V3.899V3.8891V3.87919V3.86927V3.85935V3.84942V3.83949V3.82955V3.81961V3.80966V3.79971V3.78975V3.77979V3.76982V3.75985V3.74988V3.73991V3.72993V3.71994V3.70996V3.69997V3.68998V3.67999V3.66999V3.66V3.65V3.64V3.63V3.62V3.61V3.59999V3.58999V3.57999V3.56998V3.55998V3.54997V3.53997V3.52997V3.51997V3.50997V3.49997V3.48998V3.47998V3.46999V3.46V3.45001V3.44002V3.43004V3.42006V3.41008V3.40011V3.39014V3.38017V3.37021V3.36025V3.3503V3.34035V3.33041V3.32047V3.31053V3.30061V3.29068V3.28077V3.27085V3.26095V3.25105V3.24116V3.23127V3.2214V3.21153V3.20166V3.19181V3.18196V3.17212V3.16229V3.15246V3.14265V3.13284V3.12304V3.11325V3.10348V3.09371V3.08395V3.0742V3.06446V3.05473V3.04501V3.03531V3.02561V3.01592V3.00625V2.99659V2.98694V2.9773V2.96767V2.95806V2.94846V2.93887V2.92929V2.91973V2.91018V2.90065V2.89113V2.88162V2.87213V2.86265V2.85318V2.84373V2.8343V2.82488V2.81548V2.80609V2.79672V2.78736V2.77802V2.77464C4.88815 3.54876 2.66011 5.44813 2.42113 9.64309C2.39407 10.118 2.14485 10.4768 1.98133 10.6887C1.91946 10.7689 1.84822 10.8541 1.79094 10.9227L1.79091 10.9227L1.79089 10.9227L1.79086 10.9228L1.79069 10.923C1.77164 10.9458 1.75414 10.9667 1.73904 10.985C1.67483 11.0628 1.63217 11.1182 1.60224 11.1634L1.60191 11.1659C1.60101 11.1729 1.60005 11.1841 1.60005 11.2001L1.6 12H9.59998H17.6L17.5999 11.2001C17.5999 11.1841 17.599 11.1729 17.5981 11.1659L17.5977 11.1634C17.5678 11.1182 17.5251 11.0628 17.4609 10.985C17.4458 10.9667 17.4282 10.9457 17.4091 10.9228L17.4091 10.9227C17.3518 10.8542 17.2805 10.7689 17.2186 10.6887C17.0551 10.4768 16.8059 10.118 16.7788 9.64309C16.5398 5.44813 14.3118 3.54876 12.8 2.77464Z" fill="#5A5863"/>
<path fill-rule="evenodd" clip-rule="evenodd" d="M17.543 15.2C17.5682 14.9363 17.5852 14.6695 17.5937 14.4C17.5979 14.2673 17.6 14.1339 17.6 14C17.6 13.866 17.5979 13.7327 17.5937 13.6H15.9931C15.9937 13.6167 15.9942 13.6335 15.9947 13.6503C15.9982 13.766 16 13.8825 16 14C16 14.1345 15.9977 14.2678 15.9931 14.4C15.8286 19.1721 12.7331 22.4 9.59998 22.4C6.46684 22.4 3.3714 19.1721 3.20684 14.4C3.20229 14.2678 3.19998 14.1345 3.19998 14C3.19998 13.8825 3.20174 13.766 3.20522 13.6503C3.20572 13.6335 3.20626 13.6167 3.20684 13.6H1.60626C1.60208 13.7327 1.59998 13.866 1.59998 14C1.59998 14.1339 1.60208 14.2673 1.60626 14.4C1.61474 14.6695 1.63176 14.9363 1.65698 15.2C1.87249 17.4525 2.68706 19.475 3.89583 21.0114C5.34713 22.8561 7.36668 24 9.59998 24C13.6934 24 17.0687 20.157 17.543 15.2Z" fill="#5A5863"/>
</g>
</svg>
