<svg width="40" height="40" viewBox="0 0 40 40" fill="none" xmlns="http://www.w3.org/2000/svg">
<rect x="14.5" y="9.5" width="1" height="5" rx="0.5" stroke="#5A5863" stroke-linecap="round"/>
<rect x="25.5" y="17.5" width="1" height="5" rx="0.5" stroke="#5A5863"/>
<rect x="14.5" y="25.5" width="1" height="5" rx="0.5" stroke="#5A5863"/>
<mask id="path-4-inside-1" fill="white">
<path fill-rule="evenodd" clip-rule="evenodd" d="M13 11H8.90566C8.40574 11 8 11.448 8 12C8 12.552 8.40574 13 8.90566 13H13V11ZM17 13H31.0943C31.5943 13 32 12.552 32 12C32 11.448 31.5943 11 31.0943 11H17V13Z"/>
</mask>
<path d="M13 11H15V9H13V11ZM13 13V15H15V13H13ZM17 13H15V15H17V13ZM17 11V9H15V11H17ZM13 9H8.90566V13H13V9ZM8.90566 9C7.11931 9 6 10.5345 6 12H10C10 12.3615 9.69216 13 8.90566 13V9ZM6 12C6 13.4655 7.11931 15 8.90566 15V11C9.69216 11 10 11.6385 10 12H6ZM8.90566 15H13V11H8.90566V15ZM15 13V11H11V13H15ZM17 15H31.0943V11H17V15ZM31.0943 15C32.8807 15 34 13.4655 34 12H30C30 11.6385 30.3078 11 31.0943 11V15ZM34 12C34 10.5345 32.8807 9 31.0943 9V13C30.3078 13 30 12.3615 30 12H34ZM31.0943 9H17V13H31.0943V9ZM15 11V13H19V11H15Z" fill="#5A5863" mask="url(#path-4-inside-1)"/>
<mask id="path-6-inside-2" fill="white">
<path fill-rule="evenodd" clip-rule="evenodd" d="M24 19H8.90566C8.40574 19 8 19.448 8 20C8 20.552 8.40574 21 8.90566 21H24V19ZM28 21H31.0943C31.5943 21 32 20.552 32 20C32 19.448 31.5943 19 31.0943 19H28V21Z"/>
</mask>
<path d="M24 19H26V17H24V19ZM24 21V23H26V21H24ZM28 21H26V23H28V21ZM28 19V17H26V19H28ZM24 17H8.90566V21H24V17ZM8.90566 17C7.11931 17 6 18.5345 6 20H10C10 20.3615 9.69216 21 8.90566 21V17ZM6 20C6 21.4655 7.11931 23 8.90566 23V19C9.69216 19 10 19.6385 10 20H6ZM8.90566 23H24V19H8.90566V23ZM26 21V19H22V21H26ZM28 23H31.0943V19H28V23ZM31.0943 23C32.8807 23 34 21.4655 34 20H30C30 19.6385 30.3078 19 31.0943 19V23ZM34 20C34 18.5345 32.8807 17 31.0943 17V21C30.3078 21 30 20.3615 30 20H34ZM31.0943 17H28V21H31.0943V17ZM26 19V21H30V19H26Z" fill="#5A5863" mask="url(#path-6-inside-2)"/>
<mask id="path-8-inside-3" fill="white">
<path fill-rule="evenodd" clip-rule="evenodd" d="M13 27H8.90566C8.40574 27 8 27.448 8 28C8 28.552 8.40574 29 8.90566 29H13V27ZM17 29H31.0943C31.5943 29 32 28.552 32 28C32 27.448 31.5943 27 31.0943 27H17V29Z"/>
</mask>
<path d="M13 27H15V25H13V27ZM13 29V31H15V29H13ZM17 29H15V31H17V29ZM17 27V25H15V27H17ZM13 25H8.90566V29H13V25ZM8.90566 25C7.11931 25 6 26.5345 6 28H10C10 28.3615 9.69216 29 8.90566 29V25ZM6 28C6 29.4655 7.11931 31 8.90566 31V27C9.69216 27 10 27.6385 10 28H6ZM8.90566 31H13V27H8.90566V31ZM15 29V27H11V29H15ZM17 31H31.0943V27H17V31ZM31.0943 31C32.8807 31 34 29.4655 34 28H30C30 27.6385 30.3078 27 31.0943 27V31ZM34 28C34 26.5345 32.8807 25 31.0943 25V29C30.3078 29 30 28.3615 30 28H34ZM31.0943 25H17V29H31.0943V25ZM15 27V29H19V27H15Z" fill="#5A5863" mask="url(#path-8-inside-3)"/>
</svg>
