<svg width="21" height="25" viewBox="0 0 21 25" fill="none" xmlns="http://www.w3.org/2000/svg">
<path fill-rule="evenodd" clip-rule="evenodd" d="M5.11124 8.27035V8.27037C5.11123 9.07778 5.45155 10.2376 6.11658 11.6491C6.7633 13.0217 7.64041 14.475 8.54038 15.8203C9.42385 17.1409 10.3103 18.3292 10.9837 19.1963C11.6546 18.3507 12.5269 17.1859 13.3933 15.8842C14.2815 14.5496 15.1438 13.1004 15.7787 11.7221C16.4294 10.3096 16.7689 9.12353 16.7689 8.27035C16.7689 4.86595 14.1114 2.19425 10.9401 2.19425C7.76877 2.19425 5.11124 4.86595 5.11124 8.27035ZM11.9781 20.4412C14.013 17.921 18.3233 11.9512 18.3233 8.27035C18.3233 4.05616 15.0177 0.639893 10.9401 0.639893C6.86245 0.639893 3.55688 4.05616 3.55688 8.27035C3.55684 11.8473 7.95661 17.8592 9.96331 20.4151C9.96417 20.4162 9.96502 20.4173 9.96588 20.4184C10.5572 21.1715 10.9401 21.6237 10.9401 21.6237C10.9739 21.6298 11.3766 21.1862 11.9781 20.4412Z" fill="#FDFDFD"/>
<path fill-rule="evenodd" clip-rule="evenodd" d="M10.9385 9.96613C12.0115 9.96613 12.8814 9.09624 12.8814 8.02318C12.8814 6.95012 12.0115 6.08024 10.9385 6.08024C9.86541 6.08024 8.99552 6.95012 8.99552 8.02318C8.99552 9.09624 9.86541 9.96613 10.9385 9.96613ZM10.9385 11.5205C12.87 11.5205 14.4358 9.95469 14.4358 8.02318C14.4358 6.09167 12.87 4.52588 10.9385 4.52588C9.00696 4.52588 7.44116 6.09167 7.44116 8.02318C7.44116 9.95469 9.00696 11.5205 10.9385 11.5205Z" fill="#FDFDFD"/>
<path fill-rule="evenodd" clip-rule="evenodd" d="M6.85952 17.7378H5.7455L2.43569 23.1781L19.4437 23.1781L16.1339 17.7378H15.0199L16.185 16.1843C16.708 16.2015 17.1887 16.481 17.4618 16.93L20.7716 22.3702C21.4015 23.4056 20.6568 24.7313 19.4453 24.7325C19.4448 24.7325 19.4442 24.7325 19.4437 24.7325L2.43569 24.7325C1.22323 24.7325 0.477597 23.406 1.10778 22.3702L4.41759 16.93C4.69072 16.481 5.17144 16.2015 5.69438 16.1843L6.85952 17.7378Z" fill="#FDFDFD"/>
</svg>
