<svg width="23" height="23" viewBox="0 0 23 23" fill="none" xmlns="http://www.w3.org/2000/svg">
<mask id="path-1-inside-1" fill="white">
<path d="M21.7287 14.1167C22.2327 14.2456 22.5404 14.7604 22.3707 15.2521C21.6256 17.4108 20.2517 19.3063 18.4158 20.6882C16.3281 22.2595 13.7677 23.073 11.1559 22.9949C8.54424 22.9167 6.03701 21.9515 4.04711 20.2581C2.05721 18.5647 0.703283 16.2442 0.208275 13.6787C-0.286732 11.1131 0.106691 8.45546 1.32376 6.14334C2.54083 3.83123 4.50899 2.0025 6.90414 0.958282C9.2993 -0.0859329 11.9786 -0.283375 14.501 0.398467C16.7192 0.998107 18.6998 2.24636 20.1945 3.97292C20.5349 4.36622 20.4408 4.95853 20.021 5.2657C19.6011 5.57287 19.015 5.47787 18.6683 5.09009C17.431 3.70634 15.8143 2.70492 14.0094 2.21702C11.9002 1.64687 9.6598 1.81197 7.657 2.68513C5.65419 3.55829 4.00844 5.08745 2.99074 7.02082C1.97304 8.95419 1.64406 11.1765 2.05798 13.3218C2.4719 15.4671 3.60404 17.4075 5.26797 18.8234C6.93191 20.2394 9.02843 21.0465 11.2123 21.1119C13.3962 21.1772 15.5372 20.497 17.2829 19.1831C18.7767 18.0587 19.9048 16.5277 20.5385 14.783C20.716 14.294 21.2247 13.9878 21.7287 14.1167Z"/>
</mask>
<path d="M20.5385 14.783L18.6586 14.1002L20.5385 14.783ZM18.6683 5.09009L17.1774 6.42322L18.6683 5.09009ZM20.1945 3.97292L21.7066 2.66389L20.1945 3.97292ZM22.3707 15.2521L20.4801 14.5996L22.3707 15.2521ZM20.4801 14.5996C19.8647 16.3829 18.7296 17.9487 17.213 19.0902L19.6185 22.2861C21.7737 20.6639 23.3866 18.4388 24.2613 15.9046L20.4801 14.5996ZM17.213 19.0902C15.4885 20.3883 13.3733 21.0603 11.2158 20.9958L11.0961 24.994C14.162 25.0857 17.1678 24.1307 19.6185 22.2861L17.213 19.0902ZM11.2158 20.9958C9.05829 20.9312 6.9871 20.1338 5.34327 18.735L2.75095 21.7812C5.08692 23.7691 8.03019 24.9022 11.0961 24.994L11.2158 20.9958ZM5.34327 18.735C3.69944 17.3361 2.58098 15.4191 2.17206 13.2998L-1.75551 14.0576C-1.17441 17.0693 0.414981 19.7934 2.75095 21.7812L5.34327 18.735ZM2.17206 13.2998C1.76314 11.1804 2.08814 8.98494 3.09355 7.07493L-0.446021 5.21175C-1.87476 7.92597 -2.3366 11.0458 -1.75551 14.0576L2.17206 13.2998ZM3.09355 7.07493C4.09895 5.16493 5.72482 3.65424 7.70343 2.79163L6.10486 -0.875062C3.29316 0.350756 0.982716 2.49752 -0.446021 5.21175L3.09355 7.07493ZM7.70343 2.79163C9.68203 1.92901 11.8954 1.76591 13.9791 2.32917L15.0229 -1.53224C12.0619 -2.33266 8.91656 -2.10088 6.10486 -0.875062L7.70343 2.79163ZM13.9791 2.32917C15.8115 2.82452 17.4476 3.85568 18.6824 5.28195L21.7066 2.66389C19.9519 0.637033 17.627 -0.828304 15.0229 -1.53224L13.9791 2.32917ZM20.1592 3.75695C18.6645 2.0854 16.7116 0.875697 14.5313 0.286315L13.4875 4.14772C14.917 4.53414 16.1974 5.32727 17.1774 6.42322L20.1592 3.75695ZM14.5313 0.286315C11.9835 -0.402415 9.27706 -0.202978 6.85771 0.851785L8.45628 4.51847C10.0425 3.82691 11.817 3.69615 13.4875 4.14772L14.5313 0.286315ZM6.85771 0.851785C4.43836 1.90655 2.45033 3.75375 1.22096 6.08923L4.76052 7.95241C5.56656 6.42115 6.87003 5.21003 8.45628 4.51847L6.85771 0.851785ZM1.22096 6.08923C-0.00840877 8.4247 -0.405807 11.1092 0.0942016 13.7007L4.02176 12.9429C3.69393 11.2438 3.95449 9.48367 4.76052 7.95241L1.22096 6.08923ZM0.0942016 13.7007C0.59421 16.2922 1.96181 18.6361 3.97182 20.3466L6.56413 17.3003C5.24627 16.1788 4.3496 14.642 4.02176 12.9429L0.0942016 13.7007ZM3.97182 20.3466C5.98182 22.057 8.51438 23.032 11.1525 23.111L11.2721 19.1128C9.54247 19.061 7.88199 18.4217 6.56413 17.3003L3.97182 20.3466ZM11.1525 23.111C13.7906 23.1899 16.3769 22.3682 18.4856 20.781L16.0801 17.5851C14.6976 18.6258 13.0018 19.1645 11.2721 19.1128L11.1525 23.111ZM18.4856 20.781C20.2901 19.4228 21.6528 17.5734 22.4183 15.4657L18.6586 14.1002C18.1567 15.482 17.2632 16.6946 16.0801 17.5851L18.4856 20.781ZM22.4183 15.4657C22.2871 15.827 21.8418 16.21 21.233 16.0543L22.2244 12.1791C20.6077 11.7655 19.145 12.761 18.6586 14.1002L22.4183 15.4657ZM18.84 3.65159C19.3471 3.28057 19.903 3.47045 20.1592 3.75695L17.1774 6.42322C18.1271 7.48529 19.8552 7.86516 21.2019 6.87981L18.84 3.65159ZM18.6824 5.28195C18.1859 4.70848 18.4071 3.9683 18.84 3.65159L21.2019 6.87981C22.4745 5.94876 22.884 4.02396 21.7066 2.66389L18.6824 5.28195ZM24.2613 15.9046C24.8482 14.2042 23.752 12.5699 22.2244 12.1791L21.233 16.0543C20.7134 15.9214 20.2327 15.3166 20.4801 14.5996L24.2613 15.9046Z" fill="#FAFBFB" mask="url(#path-1-inside-1)"/>
</svg>
