<svg width="83" height="24" viewBox="0 0 83 24" fill="none" xmlns="http://www.w3.org/2000/svg">
<path d="M14.0994 16.9848C14.0994 18.3355 13.7884 19.5511 13.1663 20.6317C12.5443 21.6954 11.689 22.5227 10.6004 23.1136C9.52917 23.7046 8.34558 24 7.04969 24C5.73651 24 4.54428 23.7046 3.47301 23.1136C2.40173 22.5227 1.55508 21.6954 0.933046 20.6317C0.311015 19.5511 0 18.3355 0 16.9848C0 15.634 0.311015 14.4268 0.933046 13.3632C1.55508 12.2826 2.40173 11.4468 3.47301 10.8559C4.54428 10.2481 5.73651 9.94416 7.04969 9.94416C8.34558 9.94416 9.52917 10.2481 10.6004 10.8559C11.689 11.4468 12.5443 12.2826 13.1663 13.3632C13.7884 14.4268 14.0994 15.634 14.0994 16.9848ZM10.9892 16.9848C10.9892 16.1574 10.8078 15.423 10.4449 14.7814C10.0994 14.1229 9.6242 13.6164 9.01945 13.2619C8.43198 12.9073 7.77539 12.73 7.04969 12.73C6.32398 12.73 5.65875 12.9073 5.054 13.2619C4.46653 13.6164 3.99137 14.1229 3.62851 14.7814C3.28294 15.423 3.11015 16.1574 3.11015 16.9848C3.11015 17.8121 3.28294 18.5465 3.62851 19.1881C3.99137 19.8297 4.46653 20.3278 5.054 20.6823C5.65875 21.0369 6.32398 21.2142 7.04969 21.2142C7.77539 21.2142 8.43198 21.0369 9.01945 20.6823C9.6242 20.3278 10.0994 19.8297 10.4449 19.1881C10.8078 18.5465 10.9892 17.8121 10.9892 16.9848Z" fill="#5A5863"/>
<path d="M28.2832 21.0876C28.6115 21.4252 28.7756 21.8051 28.7756 22.2272C28.7756 22.6493 28.6028 23.0039 28.2573 23.2909C27.929 23.5779 27.5748 23.7214 27.1946 23.7214C26.7454 23.7214 26.3652 23.5526 26.0542 23.2149L21.389 18.403L20.119 19.5427V22.2019C20.119 22.6409 19.9721 23.0123 19.6784 23.3162C19.3847 23.6033 19.0132 23.7468 18.5639 23.7468C18.1147 23.7468 17.7432 23.6033 17.4495 23.3162C17.1557 23.0123 17.0089 22.6409 17.0089 22.2019V6.55049C17.0089 6.11151 17.1557 5.74851 17.4495 5.46148C17.7432 5.15757 18.1147 5.00562 18.5639 5.00562C19.0132 5.00562 19.3847 5.15757 19.6784 5.46148C19.9721 5.74851 20.119 6.11151 20.119 6.55049V15.9211L25.6655 10.6786C25.9938 10.3578 26.3739 10.1974 26.8059 10.1974C27.186 10.1974 27.5229 10.3578 27.8167 10.6786C28.1277 10.9825 28.2832 11.2949 28.2832 11.6157C28.2832 12.0209 28.0758 12.4008 27.6611 12.7553L23.7475 16.2756L28.2832 21.0876Z" fill="#5A5863"/>
<path d="M38.9701 9.94416C40.7325 9.94416 41.9506 10.4591 42.6245 11.489C43.2984 12.5021 43.6353 13.9119 43.6353 15.7185V22.2019C43.6353 22.6409 43.4884 23.0123 43.1947 23.3162C42.901 23.6033 42.5295 23.7468 42.0802 23.7468C41.631 23.7468 41.2595 23.6033 40.9658 23.3162C40.672 23.0123 40.5252 22.6409 40.5252 22.2019V15.7185C40.5252 14.7898 40.3265 14.0638 39.929 13.5404C39.5316 13.0002 38.8491 12.73 37.8815 12.73C36.8794 12.73 36.0932 13.017 35.523 13.5911C34.9528 14.1483 34.6677 14.8574 34.6677 15.7185V22.2019C34.6677 22.6409 34.5208 23.0123 34.2271 23.3162C33.9334 23.6033 33.5619 23.7468 33.1126 23.7468C32.6634 23.7468 32.2919 23.6033 31.9981 23.3162C31.7044 23.0123 31.5575 22.6409 31.5575 22.2019V11.7423C31.5575 11.3033 31.7044 10.9403 31.9981 10.6533C32.2919 10.3494 32.6634 10.1974 33.1126 10.1974C33.5619 10.1974 33.9334 10.3494 34.2271 10.6533C34.5208 10.9403 34.6677 11.3033 34.6677 11.7423V12.1728C35.1342 11.565 35.739 11.0416 36.482 10.6026C37.2422 10.1637 38.0716 9.94416 38.9701 9.94416Z" fill="#5A5863"/>
<path d="M58.2713 9.94416C58.7205 9.94416 59.092 10.0877 59.3857 10.3747C59.6795 10.6617 59.8263 11.0332 59.8263 11.489V22.2019C59.8263 22.6409 59.6795 23.0123 59.3857 23.3162C59.092 23.6033 58.7205 23.7468 58.2713 23.7468C57.822 23.7468 57.4505 23.6033 57.1568 23.3162C56.8803 23.0292 56.7335 22.6662 56.7162 22.2272C56.2842 22.7168 55.6967 23.1389 54.9538 23.4935C54.2281 23.8312 53.4592 24 52.6471 24C51.4548 24 50.3749 23.7046 49.4073 23.1136C48.4397 22.5058 47.6708 21.67 47.1006 20.6064C46.5477 19.5427 46.2713 18.3355 46.2713 16.9848C46.2713 15.634 46.5477 14.4268 47.1006 13.3632C47.6535 12.2826 48.4052 11.4468 49.3555 10.8559C50.3231 10.2481 51.3857 9.94416 52.5434 9.94416C53.3728 9.94416 54.1503 10.0961 54.876 10.4C55.6017 10.6871 56.2151 11.0585 56.7162 11.5144V11.489C56.7162 11.0501 56.8631 10.6871 57.1568 10.4C57.4505 10.0961 57.822 9.94416 58.2713 9.94416ZM53.0358 21.2142C54.159 21.2142 55.0747 20.8174 55.7831 20.0239C56.4916 19.2134 56.8458 18.2004 56.8458 16.9848C56.8458 15.7691 56.4916 14.7561 55.7831 13.9457C55.0747 13.1352 54.159 12.73 53.0358 12.73C51.93 12.73 51.0229 13.1352 50.3145 13.9457C49.606 14.7561 49.2518 15.7691 49.2518 16.9848C49.2518 18.2004 49.5974 19.2134 50.2885 20.0239C50.997 20.8174 51.9127 21.2142 53.0358 21.2142Z" fill="#5A5863"/>
<path d="M65.0108 11.9026C64.6955 11.9026 64.451 11.8249 64.277 11.6695C64.114 11.5038 64.0325 11.2707 64.0325 10.9702V10.7061C64.0325 10.4056 64.114 10.1777 64.277 10.0223C64.451 9.85655 64.6955 9.77367 65.0108 9.77367H65.2227C65.5379 9.77367 65.7771 9.85655 65.9401 10.0223C66.114 10.1777 66.201 10.4056 66.201 10.7061V10.9702C66.201 11.2707 66.114 11.5038 65.9401 11.6695C65.7771 11.8249 65.5379 11.9026 65.2227 11.9026H65.0108Z" fill="#5DBF16"/>
<path d="M70.0819 10.9702C70.0819 11.2396 69.9895 11.4675 69.8047 11.654C69.6199 11.8301 69.3862 11.9182 69.1036 11.9182C68.821 11.9182 68.5873 11.8301 68.4025 11.654C68.2177 11.4675 68.1253 11.2396 68.1253 10.9702V4.55227C68.1253 4.28291 68.2177 4.06017 68.4025 3.88405C68.5873 3.69758 68.821 3.60434 69.1036 3.60434C69.3862 3.60434 69.6199 3.69758 69.8047 3.88405C69.9895 4.06017 70.0819 4.28291 70.0819 4.55227V10.9702ZM69.0873 2.59424C68.7177 2.59424 68.4569 2.53726 68.3047 2.4233C68.1525 2.30934 68.0764 2.10733 68.0764 1.81725V1.52199C68.0764 1.23191 68.1579 1.02989 68.321 0.915935C68.484 0.801975 68.7449 0.744995 69.1036 0.744995C69.4841 0.744995 69.7504 0.801975 69.9025 0.915935C70.0547 1.02989 70.1308 1.23191 70.1308 1.52199V1.81725C70.1308 2.11769 70.0493 2.32488 69.8862 2.43884C69.7341 2.54244 69.4678 2.59424 69.0873 2.59424Z" fill="#5DBF16"/>
<path opacity="0.3" fill-rule="evenodd" clip-rule="evenodd" d="M78.1477 9.61397C78.4625 9.3063 79.0223 9.35444 79.3979 9.72148L82.3441 12.6004C82.7197 12.9674 82.769 13.5144 82.4541 13.8221C82.1392 14.1297 81.5795 14.0816 81.2039 13.7145L78.2577 10.8357C77.8821 10.4686 77.8328 9.92164 78.1477 9.61397Z" fill="#5DBF16"/>
<path fill-rule="evenodd" clip-rule="evenodd" d="M75.8481 10.3874C77.2985 10.3874 78.4742 9.23852 78.4742 7.82132C78.4742 6.40412 77.2985 5.25525 75.8481 5.25525C74.3978 5.25525 73.2221 6.40412 73.2221 7.82132C73.2221 9.23852 74.3978 10.3874 75.8481 10.3874ZM75.8481 11.9182C78.1636 11.9182 80.0407 10.0839 80.0407 7.82132C80.0407 5.5587 78.1636 3.72449 75.8481 3.72449C73.5326 3.72449 71.6555 5.5587 71.6555 7.82132C71.6555 10.0839 73.5326 11.9182 75.8481 11.9182Z" fill="#5DBF16"/>
</svg>
