<svg width="16" height="24" viewBox="0 0 16 24" fill="none" xmlns="http://www.w3.org/2000/svg">
<path d="M15.959 5.01272L14.359 0.512719C14.25 0.206531 13.9446 0 13.6 0H2.40002C2.05547 0 1.75002 0.206531 1.64102 0.512719L0.041025 5.01272C-0.013675 5.16689 -0.013675 5.33316 0.041025 5.48733L1.64102 9.98733C1.75002 10.2935 2.05547 10.5 2.40002 10.5H3.19762C3.19842 10.5 3.19922 10.5 3.20002 10.5C3.20087 10.5 3.20167 10.5 3.20252 10.5H4.80002V12.75C4.80002 13.1642 5.15822 13.5 5.60002 13.5H7.20002V13.9424C7.20002 15.1586 7.99417 16.2704 9.17657 16.7088C10.4059 17.1647 11.2 18.2604 11.2 19.4996C11.2 20.28 10.861 21.0275 10.2453 21.6046C9.62972 22.1821 8.83207 22.5 7.99962 22.5C6.23517 22.5 4.80002 21.1542 4.80002 19.5C4.80002 19.0858 4.44182 18.75 4.00002 18.75C3.55822 18.75 3.20002 19.0858 3.20002 19.5C3.20002 21.9815 5.35317 24 7.99962 24C9.25937 24 10.4586 23.5261 11.3766 22.6655C12.2949 21.8046 12.8004 20.6803 12.8 19.4996C12.8 17.6408 11.6086 15.9979 9.76487 15.3142C9.18792 15.1 8.80002 14.5488 8.80002 13.9424V13.5H10.4C10.8418 13.5 11.2 13.1642 11.2 12.75V10.5H13.6C13.9446 10.5 14.25 10.2935 14.359 9.98728L15.959 5.48728C16.0137 5.33311 16.0137 5.16689 15.959 5.01272ZM9.02332 9H7.51002L10.1767 1.5H11.69L9.02332 9ZM4.31002 9L6.97672 1.5H8.49002L5.82332 9H4.31002ZM1.64337 5.25L2.97657 1.5H5.29002L2.79997 8.50322L1.64337 5.25ZM9.60002 12H6.40002V10.5C6.40002 10.5 6.40167 10.5 6.40252 10.5H9.59762C9.59842 10.5 9.60002 10.5004 9.60002 10.5004V12ZM13.0235 9H10.71L13.2001 1.99678L14.3567 5.25L13.0235 9Z" fill="#FDFDFD"/>
</svg>
