<svg width="21" height="21" viewBox="0 0 21 21" fill="none" xmlns="http://www.w3.org/2000/svg">
<path fill-rule="evenodd" clip-rule="evenodd" d="M19.6313 18.3883L18.1901 19.8298C17.9328 20.0868 17.1793 20.2471 17.1551 20.2471C12.5957 20.2869 8.20569 18.496 4.98015 15.2702C1.74578 12.0339 -0.0472069 7.62828 0.000945412 3.05353C0.000945412 3.05353 0.165955 2.3196 0.423039 2.06497L1.8642 0.623594C2.39157 0.0937722 3.40463 -0.145653 4.1143 0.0917691L4.41746 0.192896C5.12505 0.430095 5.86796 1.21247 6.06347 1.93327L6.78842 4.59403C6.98393 5.31691 6.72024 6.34532 6.19301 6.87269L5.23071 7.83514C6.1755 11.3328 8.91989 14.0777 12.4182 15.0248L13.3801 14.0621C13.9099 13.5323 14.938 13.2688 15.6593 13.464L18.3197 14.1916C19.0406 14.3897 19.8229 15.1279 20.06 15.8353L20.1611 16.1428C20.3962 16.8505 20.1586 17.8633 19.6313 18.3883Z" fill="#5DBF16"/>
</svg>
