<svg width="22" height="22" viewBox="0 0 22 22" fill="none" xmlns="http://www.w3.org/2000/svg">
<g opacity="0.2">
<path fill-rule="evenodd" clip-rule="evenodd" d="M4.25806 6.3871H2.83871V7.80645H4.25806V6.3871ZM9.93548 6.3871H8.51613V7.80645H9.93548V6.3871ZM12.7742 6.3871H11.3548V7.80645H12.7742V6.3871ZM15.6129 6.3871H14.1935V7.80645H15.6129V6.3871ZM9.93548 2.83871H8.51613V4.96774H9.93548V2.83871ZM12.7742 2.83871H11.3548V4.96774H12.7742V2.83871ZM15.6129 2.83871H14.1935V4.96774H15.6129V2.83871ZM9.93548 12.0645H8.51613V13.4839H9.93548V12.0645ZM12.7742 12.0645H11.3548V13.4839H12.7742V12.0645ZM15.6129 12.0645H14.1935V13.4839H15.6129V12.0645ZM9.93548 14.9032H8.51613V16.3226H9.93548V14.9032ZM15.6129 14.9032H14.1935V16.3226H15.6129V14.9032ZM9.93548 17.7419H8.51613V19.1613H9.93548V17.7419ZM15.6129 17.7419H14.1935V19.1613H15.6129V17.7419ZM9.93548 9.22581H8.51613V10.6452H9.93548V9.22581ZM12.7742 9.22581H11.3548V10.6452H12.7742V9.22581ZM15.6129 9.22581H14.1935V10.6452H15.6129V9.22581ZM4.25806 9.22581H2.83871V10.6452H4.25806V9.22581ZM4.25806 12.0645H2.83871V13.4839H4.25806V12.0645ZM4.25806 14.9032H2.83871V16.3226H4.25806V14.9032ZM4.25806 17.7419H2.83871V19.1613H4.25806V17.7419ZM12.7742 14.9032H11.3548V16.3226H12.7742V14.9032ZM19.871 9.22581H18.4516V1.375C18.4516 0.614969 17.8168 0 17.0323 0H7.09677C6.31223 0 5.67742 0.614969 5.67742 1.375V3.54839H1.41935C0.634807 3.54839 0 4.20771 0 4.96774V20.625C0 21.385 0.634807 22 1.41935 22H19.871C20.6555 22 21.2903 21.3407 21.2903 20.5806V10.6452C21.2903 9.88513 20.6555 9.22581 19.871 9.22581ZM5.67742 20.5806H1.41935V4.96774H5.67742V20.5806ZM17.0323 20.5806H12.7742V17.7419H11.3548V20.5806H7.09677V1.41935H17.0323V20.5806ZM19.871 20.5806H18.4516V19.1613H19.871V20.5806ZM19.871 17.7419H18.4516V16.3226H19.871V17.7419ZM19.871 14.9032H18.4516V13.4839H19.871V14.9032ZM19.871 12.0645H18.4516V10.6452H19.871V12.0645Z" fill="#5A5863"/>
</g>
</svg>
