<svg width="11" height="11" viewBox="0 0 11 11" fill="none" xmlns="http://www.w3.org/2000/svg">
<path opacity="0.3" d="M3.662 6.863V7.689H6.77V8.487H3.662V10.125H2.248V8.487H0.82V7.689H2.248V0.324999H6.098C7.37667 0.324999 8.37533 0.609666 9.094 1.179C9.81267 1.739 10.172 2.54167 10.172 3.587C10.172 4.64167 9.81267 5.45367 9.094 6.023C8.37533 6.583 7.37667 6.863 6.098 6.863H3.662ZM8.758 3.601C8.758 2.93833 8.52933 2.42967 8.072 2.075C7.61467 1.72033 6.95667 1.543 6.098 1.543H3.662V5.701H6.098C6.94733 5.701 7.60067 5.519 8.058 5.155C8.52467 4.78167 8.758 4.26367 8.758 3.601Z" fill="#42484D"/>
</svg>
