<svg width="22" height="21" viewBox="0 0 22 21" fill="none" xmlns="http://www.w3.org/2000/svg">
<path fill-rule="evenodd" clip-rule="evenodd" d="M9 16C12.866 16 16 12.866 16 9C16 5.13401 12.866 2 9 2C5.13401 2 2 5.13401 2 9C2 12.866 5.13401 16 9 16ZM9 18C13.9706 18 18 13.9706 18 9C18 4.02944 13.9706 0 9 0C4.02944 0 0 4.02944 0 9C0 13.9706 4.02944 18 9 18Z" fill="#5A5863"/>
<path fill-rule="evenodd" clip-rule="evenodd" d="M14.4379 13.8314C14.8284 13.4408 15.4616 13.4408 15.8521 13.8314L20.8995 18.8787C21.29 19.2692 21.29 19.9024 20.8995 20.2929C20.5089 20.6834 19.8758 20.6834 19.4852 20.2929L14.4379 15.2456C14.0474 14.8551 14.0474 14.2219 14.4379 13.8314Z" fill="#5A5863"/>
</svg>
