<svg width="22" height="20" viewBox="0 0 22 20" fill="none" xmlns="http://www.w3.org/2000/svg">
<path fill-rule="evenodd" clip-rule="evenodd" d="M3 2C2.44772 2 2 2.44772 2 3V17C2 17.5523 2.44772 18 3 18H8V16.5C8 15.9477 8.44772 15.5 9 15.5C9.55229 15.5 10 15.9477 10 16.5V18H11.5C12.0523 18 12.5 18.4477 12.5 19C12.5 19.5523 12.0523 20 11.5 20H3C1.34315 20 0 18.6569 0 17V3C0 1.34315 1.34315 0 3 0H19C20.6569 0 22 1.34315 22 3V17C22 18.6569 20.6569 20 19 20H18.5C17.9477 20 17.5 19.5523 17.5 19C17.5 18.4477 17.9477 18 18.5 18H19C19.5523 18 20 17.5523 20 17V12H19C18.4477 12 18 11.5523 18 11C18 10.4477 18.4477 10 19 10H20V3C20 2.44772 19.5523 2 19 2H10V10H11.5C12.0523 10 12.5 10.4477 12.5 11C12.5 11.5523 12.0523 12 11.5 12H9.5C8.67157 12 8 11.3284 8 10.5V2H3Z" fill="#5DBF16"/>
</svg>
