<svg width="14" height="18" viewBox="0 0 14 18" fill="none" xmlns="http://www.w3.org/2000/svg">
<path d="M6.99972 0C3.34604 0 0.373215 2.97283 0.373215 6.62688C0.373215 7.57999 0.568296 8.49001 0.952748 9.33186C2.60956 12.9574 5.78613 16.7851 6.72046 17.8718C6.79046 17.953 6.89251 17.9998 6.99991 17.9998C7.1073 17.9998 7.20936 17.953 7.27936 17.8718C8.21332 16.7853 11.3899 12.9577 13.0472 9.33186C13.4319 8.49001 13.6268 7.57999 13.6268 6.62688C13.6264 2.97283 10.6536 0 6.99972 0ZM6.99972 10.0689C5.10178 10.0689 3.55752 8.52464 3.55752 6.62669C3.55752 4.72856 5.10178 3.1843 6.99972 3.1843C8.89767 3.1843 10.4419 4.72856 10.4419 6.62669C10.4421 8.52464 8.89785 10.0689 6.99972 10.0689Z" fill="white"/>
</svg>
