<svg width="19" height="19" viewBox="0 0 19 19" fill="none" xmlns="http://www.w3.org/2000/svg">
<g opacity="0.8">
<path fill-rule="evenodd" clip-rule="evenodd" d="M2 0C0.895431 0 0 0.895431 0 2V17C0 18.1046 0.895431 19 2 19H17C18.1046 19 19 18.1046 19 17V2C19 0.895431 18.1046 0 17 0H2ZM4 6C2.89543 6 2 6.89543 2 8V15C2 16.1046 2.89543 17 4 17H15C16.1046 17 17 16.1046 17 15V8C17 6.89543 16.1046 6 15 6H4Z" fill="white"/>
<rect x="4" y="8" width="3" height="3" rx="1" fill="white"/>
<rect x="8" y="8" width="3" height="3" rx="1" fill="white"/>
<rect x="12" y="8" width="3" height="3" rx="1" fill="white"/>
<rect x="4" y="12" width="3" height="3" rx="1" fill="white"/>
<rect x="8" y="12" width="3" height="3" rx="1" fill="white"/>
<rect x="12" y="12" width="3" height="3" rx="1" fill="white"/>
</g>
</svg>
