<svg width="14" height="12" viewBox="0 0 14 12" fill="none" xmlns="http://www.w3.org/2000/svg">
<path d="M13.3886 0.0919153C12.7569 -0.238164 12.0522 0.398417 11.6392 0.77565C10.6916 1.67158 9.88974 2.70897 8.99067 3.65205C7.99445 4.68944 7.07112 5.72684 6.0506 6.74069C5.46744 7.30654 4.83569 7.91954 4.44693 8.62685C3.57219 7.80162 2.81895 6.90569 1.84703 6.17484C1.14238 5.65614 -0.0239244 5.27891 0.000373684 6.52849C0.0489699 8.15535 1.53115 9.90005 2.62457 11.0081C3.08623 11.4797 3.69368 11.9748 4.39833 11.9984C5.24876 12.0455 6.12349 11.0553 6.63375 10.513C7.53282 9.56994 8.26177 8.50893 9.08786 7.54231C10.157 6.26915 11.2504 5.01952 12.2952 3.72278C12.9513 2.92116 15.0166 0.940651 13.3886 0.0919153ZM1.06945 6.43419C1.04515 6.43419 1.02085 6.43419 0.972258 6.45772C0.875066 6.43419 0.802171 6.41057 0.704979 6.36342C0.777873 6.31626 0.899364 6.33984 1.06945 6.43419Z" fill="#5DBF16"/>
</svg>
