<svg width="184" height="76" viewBox="0 0 184 76" fill="none" xmlns="http://www.w3.org/2000/svg">
<g filter="url(#filter0_d)">
<rect x="14" y="7" width="155" height="46" rx="23" fill="url(#paint0_linear)"/>
</g>
<path d="M86.3279 33.408H80.7279L79.6239 36H77.4799L82.5199 24.8H84.5679L89.6239 36H87.4479L86.3279 33.408ZM85.6399 31.776L83.5279 26.88L81.4319 31.776H85.6399ZM95.5694 31.28H93.4894V36H91.4414V24.8H93.4894V29.488H95.6334L98.8494 24.8H101.057L97.2334 30.224L101.201 36H98.8494L95.5694 31.28ZM114.153 34.24V38.464H112.233V36H102.729V24.8H104.777V34.24H110.425V24.8H112.489V34.24H114.153ZM116.173 24.8H118.221V32.752L124.237 24.8H126.173V36H124.125V28.064L118.109 36H116.173V24.8ZM137.973 24.8V36H135.925V32.88H133.157H132.933L130.853 36H128.661L131.061 32.544C130.283 32.256 129.68 31.8027 129.253 31.184C128.837 30.5547 128.629 29.7973 128.629 28.912C128.629 28.0587 128.821 27.3227 129.205 26.704C129.589 26.0853 130.133 25.616 130.837 25.296C131.541 24.9653 132.368 24.8 133.317 24.8H137.973ZM133.381 26.56C132.528 26.56 131.872 26.7573 131.413 27.152C130.965 27.5467 130.741 28.1227 130.741 28.88C130.741 29.616 130.96 30.1867 131.397 30.592C131.835 30.9867 132.469 31.184 133.301 31.184H135.925V26.56H133.381Z" fill="#FDFCFE"/>
<g opacity="0.5">
<path d="M52.959 27.318C53.8848 26.3139 54.3949 24.9669 54.3949 23.5249C54.3949 20.7794 52.4338 18 48.685 18C46.9404 18 45.4686 18.5992 44.4285 19.7329C43.5072 20.7372 43 22.0838 43 23.5249C43 26.2708 44.9528 29.05 48.685 29.05C50.4361 29.0501 51.9144 28.4513 52.959 27.318ZM48.685 20.5689C50.7391 20.5689 51.6745 22.1022 51.6745 23.5269C51.6745 24.3018 51.4137 25.0192 50.9398 25.5467C50.4111 26.1358 49.6427 26.4473 48.7183 26.4473C46.6124 26.4473 45.653 24.9142 45.653 23.4897C45.653 22.0361 46.5906 20.5689 48.685 20.5689Z" fill="#FDFDFD"/>
<path d="M62.3191 20.1316C61.9794 20.1377 61.5156 20.3496 61.2883 20.6022L44.4241 39.3523C44.1969 39.605 44.3578 39.9594 44.6976 39.9594H46.9048C47.2445 39.9594 47.7079 39.7522 47.9347 39.4992L64.6947 20.7529C64.9214 20.4997 64.9064 20.0877 64.345 20.0879L62.3191 20.1316Z" fill="#FDFDFD"/>
<path d="M60.4757 31.1602C58.7648 31.1602 57.3209 31.7483 56.3005 32.8603C55.3968 33.8452 54.8989 35.1664 54.8989 36.5801C54.8989 39.2734 56.8146 42 60.4758 42C62.1941 42 63.6438 41.4124 64.6687 40.3009C65.577 39.3157 66.0772 37.9944 66.0772 36.5801C66.0771 33.8868 64.1532 31.1602 60.4757 31.1602ZM60.5088 39.5128C58.4599 39.5128 57.5263 37.9742 57.5263 36.5453C57.5263 35.7671 57.7869 35.047 58.2605 34.5175C58.7884 33.9267 59.5543 33.6144 60.4758 33.6144C62.5249 33.6144 63.458 35.1527 63.458 36.5821C63.458 37.3601 63.1973 38.0804 62.7241 38.6099C62.1961 39.2005 61.43 39.5128 60.5088 39.5128Z" fill="#FDFDFD"/>
</g>
<defs>
<filter id="filter0_d" x="-1" y="0" width="185" height="76" filterUnits="userSpaceOnUse" color-interpolation-filters="sRGB">
<feFlood flood-opacity="0" result="BackgroundImageFix"/>
<feColorMatrix in="SourceAlpha" type="matrix" values="0 0 0 0 0 0 0 0 0 0 0 0 0 0 0 0 0 0 127 0"/>
<feOffset dy="8"/>
<feGaussianBlur stdDeviation="7.5"/>
<feColorMatrix type="matrix" values="0 0 0 0 0.258824 0 0 0 0 0.282353 0 0 0 0 0.301961 0 0 0 0.1 0"/>
<feBlend mode="normal" in2="BackgroundImageFix" result="effect1_dropShadow"/>
<feBlend mode="normal" in="SourceGraphic" in2="effect1_dropShadow" result="shape"/>
</filter>
<linearGradient id="paint0_linear" x1="91.5" y1="7" x2="91.5" y2="53" gradientUnits="userSpaceOnUse">
<stop stop-color="#68A500"/>
<stop offset="1" stop-color="#68C22B"/>
</linearGradient>
</defs>
</svg>
