<svg width="24" height="24" viewBox="0 0 24 24" fill="none" xmlns="http://www.w3.org/2000/svg">
<path d="M23.5969 10.7289L12.8289 0.917185C12.3563 0.486452 11.6435 0.486498 11.1711 0.917138L0.403033 10.729C0.0244239 11.074 -0.100638 11.6056 0.08433 12.0832C0.269345 12.5608 0.719813 12.8694 1.23202 12.8694H2.95186V22.7C2.95186 23.0898 3.26789 23.4058 3.65765 23.4058H9.55986C9.94963 23.4058 10.2657 23.0898 10.2657 22.7V16.7311H13.7345V22.7001C13.7345 23.0898 14.0505 23.4058 14.4403 23.4058H20.3422C20.732 23.4058 21.048 23.0899 21.048 22.7001V12.8694H22.7682C23.2803 12.8694 23.7308 12.5607 23.9159 12.0832C24.1006 11.6055 23.9755 11.074 23.5969 10.7289Z" fill="#42484D"/>
</svg>
