<svg width="40" height="41" viewBox="0 0 40 41" fill="none" xmlns="http://www.w3.org/2000/svg">

<circle cx="25.0569" cy="14.9579" r="1" fill="#5DBF16" stroke="#5DBF16" stroke-width="2"/>
<path d="M16.0569 19.9579L9.64267 26.3721C9.2676 26.7472 9.05688 27.2559 9.05688 27.7863V30.0701C9.05688 31.2138 10.212 31.9958 11.2739 31.5711V31.5711C11.4609 31.4963 11.6323 31.3872 11.7792 31.2495L19.5569 23.9579" stroke="#5DBF16" stroke-width="2" stroke-linecap="round"/>
<path d="M16.5732 20.8255C16.0844 21.1098 15.575 20.597 15.3542 20.0764C14.7206 18.5823 14.5447 16.9248 14.8622 15.3174C15.2462 13.3735 16.3256 11.6362 17.8983 10.4307C19.4709 9.2253 21.4291 8.63442 23.406 8.76873C25.383 8.90303 27.2432 9.75331 28.6384 11.1604C30.0335 12.5674 30.868 14.4348 30.9856 16.4128C31.1032 18.3908 30.4957 20.3438 29.277 21.9062C28.0583 23.4686 26.3119 24.5333 24.3648 24.9008C22.7548 25.2047 21.0989 25.0148 19.6102 24.3686C19.0915 24.1434 18.0711 24.1929 18.3596 23.7065C18.5648 23.5142 18.6799 23.4064 18.8852 23.2141C19.3776 22.7617 20.1361 22.3845 20.6638 22.5875C21.7152 22.9921 22.8649 23.0999 23.985 22.8885C25.4426 22.6134 26.75 21.8164 27.6623 20.6467C28.5747 19.4771 29.0294 18.015 28.9414 16.5343C28.8534 15.0535 28.2287 13.6556 27.1842 12.6023C26.1398 11.5489 24.7472 10.9124 23.2672 10.8118C21.7872 10.7113 20.3214 11.1536 19.144 12.056C17.9667 12.9584 17.1587 14.259 16.8712 15.7143C16.6503 16.8325 16.7484 17.9831 17.1441 19.0379C17.3427 19.5673 17.062 20.5412 16.5732 20.8255Z" fill="#5DBF16"/>

</svg>
