<svg width="87" height="26" viewBox="0 0 87 26" fill="none" xmlns="http://www.w3.org/2000/svg">
<path d="M14.8043 18.4C14.8043 19.8633 14.4778 21.1802 13.8246 22.3509C13.1715 23.5032 12.2735 24.3994 11.1305 25.0396C10.0056 25.6798 8.76286 25.9999 7.40217 25.9999C6.02333 25.9999 4.7715 25.6798 3.64666 25.0396C2.52182 24.3994 1.63283 23.5032 0.979699 22.3509C0.326566 21.1802 0 19.8633 0 18.4C0 16.9367 0.326566 15.6289 0.979699 14.4766C1.63283 13.306 2.52182 12.4006 3.64666 11.7604C4.7715 11.1019 6.02333 10.7727 7.40217 10.7727C8.76286 10.7727 10.0056 11.1019 11.1305 11.7604C12.2735 12.4006 13.1715 13.306 13.8246 14.4766C14.4778 15.6289 14.8043 16.9367 14.8043 18.4ZM11.5387 18.4C11.5387 17.5038 11.3482 16.7081 10.9672 16.013C10.6043 15.2997 10.1054 14.751 9.47042 14.3669C8.85358 13.9828 8.16416 13.7907 7.40217 13.7907C6.64018 13.7907 5.94169 13.9828 5.3067 14.3669C4.68986 14.751 4.19093 15.2997 3.80994 16.013C3.44709 16.7081 3.26566 17.5038 3.26566 18.4C3.26566 19.2963 3.44709 20.0919 3.80994 20.787C4.19093 21.482 4.68986 22.0216 5.3067 22.4057C5.94169 22.7898 6.64018 22.9819 7.40217 22.9819C8.16416 22.9819 8.85358 22.7898 9.47042 22.4057C10.1054 22.0216 10.6043 21.482 10.9672 20.787C11.3482 20.0919 11.5387 19.2963 11.5387 18.4Z" fill="#5A5863"/>
<path d="M29.6973 22.8447C30.042 23.2105 30.2144 23.6221 30.2144 24.0793C30.2144 24.5366 30.033 24.9207 29.6701 25.2317C29.3254 25.5426 28.9535 25.6981 28.5544 25.6981C28.0826 25.6981 27.6835 25.5152 27.3569 25.1494L22.4585 19.9364L21.125 21.1711V24.0519C21.125 24.5275 20.9708 24.9299 20.6623 25.2591C20.3539 25.5701 19.9638 25.7255 19.4921 25.7255C19.0204 25.7255 18.6304 25.5701 18.3219 25.2591C18.0135 24.9299 17.8593 24.5275 17.8593 24.0519V7.09623C17.8593 6.62066 18.0135 6.22741 18.3219 5.91646C18.6304 5.58722 19.0204 5.42261 19.4921 5.42261C19.9638 5.42261 20.3539 5.58722 20.6623 5.91646C20.9708 6.22741 21.125 6.62066 21.125 7.09623V17.2477L26.9487 11.5684C27.2934 11.2208 27.6926 11.0471 28.1461 11.0471C28.5453 11.0471 28.8991 11.2208 29.2075 11.5684C29.5341 11.8976 29.6973 12.236 29.6973 12.5835C29.6973 13.0225 29.4796 13.434 29.0442 13.8181L24.9349 17.6318L29.6973 22.8447Z" fill="#5A5863"/>
<path d="M40.9186 10.7727C42.7691 10.7727 44.0482 11.3306 44.7557 12.4463C45.4633 13.5438 45.8171 15.0711 45.8171 17.0282V24.0519C45.8171 24.5275 45.6629 24.9299 45.3545 25.2591C45.046 25.5701 44.656 25.7255 44.1843 25.7255C43.7125 25.7255 43.3225 25.5701 43.0141 25.2591C42.7056 24.9299 42.5514 24.5275 42.5514 24.0519V17.0282C42.5514 16.0222 42.3428 15.2357 41.9255 14.6687C41.5082 14.0834 40.7916 13.7907 39.7756 13.7907C38.7233 13.7907 37.8979 14.1016 37.2991 14.7235C36.7004 15.3271 36.4011 16.0954 36.4011 17.0282V24.0519C36.4011 24.5275 36.2469 24.9299 35.9385 25.2591C35.63 25.5701 35.24 25.7255 34.7683 25.7255C34.2966 25.7255 33.9065 25.5701 33.5981 25.2591C33.2896 24.9299 33.1354 24.5275 33.1354 24.0519V12.7207C33.1354 12.2451 33.2896 11.8519 33.5981 11.5409C33.9065 11.2117 34.2966 11.0471 34.7683 11.0471C35.24 11.0471 35.63 11.2117 35.9385 11.5409C36.2469 11.8519 36.4011 12.2451 36.4011 12.7207V13.1871C36.8909 12.5286 37.5259 11.9616 38.3061 11.486C39.1043 11.0105 39.9752 10.7727 40.9186 10.7727Z" fill="#5A5863"/>
<path d="M61.1848 10.7727C61.6565 10.7727 62.0466 10.9282 62.355 11.2391C62.6634 11.5501 62.8177 11.9525 62.8177 12.4463V24.0519C62.8177 24.5275 62.6634 24.9299 62.355 25.2591C62.0466 25.5701 61.6565 25.7255 61.1848 25.7255C60.7131 25.7255 60.3231 25.5701 60.0146 25.2591C59.7244 24.9482 59.5701 24.5549 59.552 24.0793C59.0984 24.6098 58.4816 25.0671 57.7015 25.4512C56.9395 25.817 56.1321 25.9999 55.2794 25.9999C54.0276 25.9999 52.8937 25.6798 51.8777 25.0396C50.8617 24.3811 50.0544 23.4757 49.4557 22.3234C48.8751 21.1711 48.5848 19.8633 48.5848 18.4C48.5848 16.9367 48.8751 15.6289 49.4557 14.4766C50.0362 13.306 50.8254 12.4006 51.8233 11.7604C52.8392 11.1019 53.955 10.7727 55.1706 10.7727C56.0414 10.7727 56.8578 10.9373 57.6198 11.2666C58.3818 11.5775 59.0259 11.9799 59.552 12.4738V12.4463C59.552 11.9708 59.7062 11.5775 60.0146 11.2666C60.3231 10.9373 60.7131 10.7727 61.1848 10.7727ZM55.6876 22.9819C56.8669 22.9819 57.8285 22.5521 58.5723 21.6924C59.3161 20.8144 59.6881 19.717 59.6881 18.4C59.6881 17.0831 59.3161 15.9856 58.5723 15.1076C57.8285 14.2297 56.8669 13.7907 55.6876 13.7907C54.5265 13.7907 53.574 14.2297 52.8302 15.1076C52.0863 15.9856 51.7144 17.0831 51.7144 18.4C51.7144 19.717 52.0773 20.8144 52.803 21.6924C53.5468 22.5521 54.5084 22.9819 55.6876 22.9819Z" fill="#5A5863"/>
<path d="M68.2616 12.8943C67.9306 12.8943 67.6738 12.8102 67.4912 12.6418C67.32 12.4622 67.2344 12.2097 67.2344 11.8842V11.598C67.2344 11.2726 67.32 11.0257 67.4912 10.8573C67.6738 10.6777 67.9306 10.588 68.2616 10.588H68.4841C68.8151 10.588 69.0662 10.6777 69.2374 10.8573C69.42 11.0257 69.5113 11.2726 69.5113 11.598V11.8842C69.5113 12.2097 69.42 12.4622 69.2374 12.6418C69.0662 12.8102 68.8151 12.8943 68.4841 12.8943H68.2616Z" fill="#68C22B"/>
<path d="M73.5863 11.8842C73.5863 12.176 73.4893 12.423 73.2952 12.625C73.1012 12.8158 72.8558 12.9112 72.5591 12.9112C72.2623 12.9112 72.0169 12.8158 71.8229 12.625C71.6289 12.423 71.5319 12.176 71.5319 11.8842V4.93143C71.5319 4.63963 71.6289 4.39833 71.8229 4.20753C72.0169 4.00551 72.2623 3.9045 72.5591 3.9045C72.8558 3.9045 73.1012 4.00551 73.2952 4.20753C73.4893 4.39833 73.5863 4.63963 73.5863 4.93143V11.8842ZM72.542 2.81024C72.1539 2.81024 71.88 2.74851 71.7202 2.62505C71.5604 2.5016 71.4805 2.28274 71.4805 1.96849V1.64863C71.4805 1.33438 71.5661 1.11553 71.7373 0.99207C71.9085 0.868613 72.1824 0.806885 72.5591 0.806885C72.9585 0.806885 73.2382 0.868613 73.398 0.99207C73.5577 1.11553 73.6376 1.33438 73.6376 1.64863V1.96849C73.6376 2.29397 73.552 2.51843 73.3808 2.64189C73.221 2.75412 72.9414 2.81024 72.542 2.81024Z" fill="#68C22B"/>
<path opacity="0.3" fill-rule="evenodd" clip-rule="evenodd" d="M82.0557 10.4148C82.3863 10.0815 82.974 10.1336 83.3684 10.5313L86.4619 13.65C86.8563 14.0477 86.9081 14.6402 86.5775 14.9735C86.2469 15.3069 85.6591 15.2547 85.2647 14.8571L82.1712 11.7383C81.7768 11.3407 81.7251 10.7481 82.0557 10.4148Z" fill="#70A14D"/>
<path fill-rule="evenodd" clip-rule="evenodd" d="M79.6405 11.2528C81.1634 11.2528 82.3979 10.0082 82.3979 8.47291C82.3979 6.9376 81.1634 5.69299 79.6405 5.69299C78.1177 5.69299 76.8832 6.9376 76.8832 8.47291C76.8832 10.0082 78.1177 11.2528 79.6405 11.2528ZM79.6405 12.9111C82.0718 12.9111 84.0428 10.9241 84.0428 8.4729C84.0428 6.02173 82.0718 4.03467 79.6405 4.03467C77.2092 4.03467 75.2383 6.02173 75.2383 8.47291C75.2383 10.9241 77.2092 12.9111 79.6405 12.9111Z" fill="#68C22B"/>
</svg>
