<svg width="104" height="30" viewBox="0 0 104 30" fill="none" xmlns="http://www.w3.org/2000/svg">
<path d="M17.6242 21.2309C17.6242 22.9193 17.2354 24.4388 16.4579 25.7895C15.6804 27.1192 14.6113 28.1533 13.2506 28.892C11.9115 29.6306 10.432 30 8.81211 30C7.17064 30 5.68035 29.6306 4.34126 28.892C3.00216 28.1533 1.94385 27.1192 1.16631 25.7895C0.388769 24.4388 0 22.9193 0 21.2309C0 19.5425 0.388769 18.0335 1.16631 16.7039C1.94385 15.3532 3.00216 14.3085 4.34126 13.5698C5.68035 12.81 7.17064 12.4301 8.81211 12.4301C10.432 12.4301 11.9115 12.81 13.2506 13.5698C14.6113 14.3085 15.6804 15.3532 16.4579 16.7039C17.2354 18.0335 17.6242 19.5425 17.6242 21.2309ZM13.7365 21.2309C13.7365 20.1967 13.5097 19.2787 13.0562 18.4767C12.6242 17.6536 12.0303 17.0205 11.2743 16.5773C10.54 16.1341 9.71924 15.9124 8.81211 15.9124C7.90498 15.9124 7.07344 16.1341 6.3175 16.5773C5.58316 17.0205 4.98921 17.6536 4.53564 18.4767C4.10368 19.2787 3.88769 20.1967 3.88769 21.2309C3.88769 22.265 4.10368 23.1831 4.53564 23.9851C4.98921 24.7871 5.58316 25.4097 6.3175 25.8529C7.07344 26.2961 7.90498 26.5177 8.81211 26.5177C9.71924 26.5177 10.54 26.2961 11.2743 25.8529C12.0303 25.4097 12.6242 24.7871 13.0562 23.9851C13.5097 23.1831 13.7365 22.265 13.7365 21.2309Z" fill="#5A5863"/>
<path d="M35.354 26.3594C35.7643 26.7815 35.9695 27.2563 35.9695 27.784C35.9695 28.3116 35.7535 28.7548 35.3216 29.1136C34.9112 29.4724 34.4684 29.6517 33.9933 29.6517C33.4317 29.6517 32.9566 29.4407 32.5678 29.0186L26.7362 23.0037L25.1488 24.4283V27.7523C25.1488 28.301 24.9652 28.7653 24.598 29.1452C24.2308 29.504 23.7665 29.6834 23.2049 29.6834C22.6434 29.6834 22.179 29.504 21.8118 29.1452C21.4447 28.7653 21.2611 28.301 21.2611 27.7523V8.18806C21.2611 7.63933 21.4447 7.18557 21.8118 6.82679C22.179 6.4469 22.6434 6.25696 23.2049 6.25696C23.7665 6.25696 24.2308 6.4469 24.598 6.82679C24.9652 7.18557 25.1488 7.63933 25.1488 8.18806V19.9013L32.0818 13.3482C32.4922 12.9472 32.9674 12.7467 33.5073 12.7467C33.9825 12.7467 34.4036 12.9472 34.7708 13.3482C35.1596 13.7281 35.354 14.1185 35.354 14.5195C35.354 15.026 35.0948 15.5009 34.5764 15.9441L29.6844 20.3445L35.354 26.3594Z" fill="#5A5863"/>
<path d="M48.7126 12.4301C50.9156 12.4301 52.4383 13.0738 53.2806 14.3612C54.123 15.6275 54.5441 17.3898 54.5441 19.648V27.7523C54.5441 28.301 54.3606 28.7653 53.9934 29.1452C53.6262 29.504 53.1619 29.6834 52.6003 29.6834C52.0387 29.6834 51.5744 29.504 51.2072 29.1452C50.84 28.7653 50.6564 28.301 50.6564 27.7523V19.648C50.6564 18.4872 50.4081 17.5797 49.9113 16.9255C49.4146 16.2501 48.5614 15.9124 47.3519 15.9124C46.0992 15.9124 45.1165 16.2712 44.4037 16.9888C43.691 17.6853 43.3346 18.5717 43.3346 19.648V27.7523C43.3346 28.301 43.151 28.7653 42.7839 29.1452C42.4167 29.504 41.9523 29.6834 41.3908 29.6834C40.8292 29.6834 40.3649 29.504 39.9977 29.1452C39.6305 28.7653 39.4469 28.301 39.4469 27.7523V14.6778C39.4469 14.1291 39.6305 13.6753 39.9977 13.3165C40.3649 12.9367 40.8292 12.7467 41.3908 12.7467C41.9523 12.7467 42.4167 12.9367 42.7839 13.3165C43.151 13.6753 43.3346 14.1291 43.3346 14.6778V15.216C43.9178 14.4562 44.6737 13.802 45.6025 13.2532C46.5528 12.7045 47.5895 12.4301 48.7126 12.4301Z" fill="#5A5863"/>
<path d="M72.8391 12.4301C73.4006 12.4301 73.865 12.6095 74.2322 12.9683C74.5993 13.3271 74.7829 13.7914 74.7829 14.3612V27.7523C74.7829 28.301 74.5993 28.7653 74.2322 29.1452C73.865 29.504 73.4006 29.6834 72.8391 29.6834C72.2775 29.6834 71.8132 29.504 71.446 29.1452C71.1004 28.7864 70.9168 28.3327 70.8952 27.784C70.3553 28.396 69.6209 28.9236 68.6922 29.3668C67.7851 29.7889 66.824 30 65.8088 30C64.3186 30 62.9687 29.6306 61.7592 28.892C60.5497 28.1322 59.5885 27.0875 58.8758 25.7579C58.1846 24.4283 57.8391 22.9193 57.8391 21.2309C57.8391 19.5425 58.1846 18.0335 58.8758 16.7039C59.5669 15.3532 60.5065 14.3085 61.6944 13.5698C62.9039 12.81 64.2322 12.4301 65.6792 12.4301C66.716 12.4301 67.6879 12.6201 68.595 13C69.5021 13.3588 70.2689 13.8231 70.8952 14.3929V14.3612C70.8952 13.8125 71.0788 13.3588 71.446 13C71.8132 12.6201 72.2775 12.4301 72.8391 12.4301ZM66.2948 26.5177C67.6987 26.5177 68.8434 26.0217 69.7289 25.0298C70.6145 24.0167 71.0572 22.7504 71.0572 21.2309C71.0572 19.7113 70.6145 18.445 69.7289 17.432C68.8434 16.419 67.6987 15.9124 66.2948 15.9124C64.9125 15.9124 63.7786 16.419 62.8931 17.432C62.0075 18.445 61.5648 19.7113 61.5648 21.2309C61.5648 22.7504 61.9967 24.0167 62.8607 25.0298C63.7462 26.0217 64.8909 26.5177 66.2948 26.5177Z" fill="#5A5863"/>
<path d="M81.2639 14.8781C80.8698 14.8781 80.5641 14.781 80.3467 14.5868C80.1429 14.3796 80.041 14.0882 80.041 13.7127V13.3824C80.041 13.0069 80.1429 12.722 80.3467 12.5277C80.5641 12.3205 80.8698 12.2169 81.2639 12.2169H81.5288C81.9229 12.2169 82.2218 12.3205 82.4256 12.5277C82.643 12.722 82.7517 13.0069 82.7517 13.3824V13.7127C82.7517 14.0882 82.643 14.3796 82.4256 14.5868C82.2218 14.781 81.9229 14.8781 81.5288 14.8781H81.2639Z" fill="#5DBF16"/>
<path d="M87.6028 13.7127C87.6028 14.0494 87.4873 14.3343 87.2563 14.5673C87.0253 14.7875 86.7332 14.8976 86.38 14.8976C86.0267 14.8976 85.7346 14.7875 85.5036 14.5673C85.2726 14.3343 85.1571 14.0494 85.1571 13.7127V5.69018C85.1571 5.35349 85.2726 5.07506 85.5036 4.85492C85.7346 4.62182 86.0267 4.50527 86.38 4.50527C86.7332 4.50527 87.0253 4.62182 87.2563 4.85492C87.4873 5.07506 87.6028 5.35349 87.6028 5.69018V13.7127ZM86.3596 3.24265C85.8976 3.24265 85.5715 3.17143 85.3813 3.02898C85.1911 2.88653 85.096 2.634 85.096 2.27141V1.90234C85.096 1.53974 85.1979 1.28721 85.4017 1.14477C85.6055 1.00232 85.9316 0.931091 86.38 0.931091C86.8555 0.931091 87.1884 1.00232 87.3786 1.14477C87.5688 1.28721 87.6639 1.53974 87.6639 1.90234V2.27141C87.6639 2.64695 87.562 2.90595 87.3582 3.0484C87.168 3.1779 86.8351 3.24265 86.3596 3.24265Z" fill="#5DBF16"/>
<path opacity="0.3" fill-rule="evenodd" clip-rule="evenodd" d="M97.6848 12.0172C98.0784 11.6326 98.7781 11.6928 99.2476 12.1516L102.93 15.7502C103.4 16.209 103.461 16.8927 103.068 17.2773C102.674 17.6619 101.975 17.6017 101.505 17.1429L97.8224 13.5443C97.3528 13.0855 97.2912 12.4018 97.6848 12.0172Z" fill="#5DBF16"/>
<path fill-rule="evenodd" clip-rule="evenodd" d="M94.8106 12.9842C96.6235 12.9842 98.0932 11.5481 98.0932 9.77656C98.0932 8.00506 96.6235 6.56897 94.8106 6.56897C92.9977 6.56897 91.528 8.00506 91.528 9.77656C91.528 11.5481 92.9977 12.9842 94.8106 12.9842ZM94.8106 14.8976C97.705 14.8976 100.051 12.6048 100.051 9.77656C100.051 6.94829 97.705 4.65552 94.8106 4.65552C91.9162 4.65552 89.5698 6.94829 89.5698 9.77656C89.5698 12.6048 91.9162 14.8976 94.8106 14.8976Z" fill="#5DBF16"/>
</svg>
