<svg width="109" height="33" viewBox="0 0 109 33" fill="none" xmlns="http://www.w3.org/2000/svg">
<path d="M18.496 22.8017C18.496 24.6151 18.088 26.2471 17.272 27.6977C16.456 29.1257 15.334 30.2364 13.906 31.0297C12.5007 31.8231 10.948 32.2197 9.248 32.2197C7.52533 32.2197 5.96133 31.8231 4.556 31.0297C3.15067 30.2364 2.04 29.1257 1.224 27.6977C0.408 26.2471 0 24.6151 0 22.8017C0 20.9884 0.408 19.3677 1.224 17.9397C2.04 16.4891 3.15067 15.3671 4.556 14.5737C5.96133 13.7577 7.52533 13.3497 9.248 13.3497C10.948 13.3497 12.5007 13.7577 13.906 14.5737C15.334 15.3671 16.456 16.4891 17.272 17.9397C18.088 19.3677 18.496 20.9884 18.496 22.8017ZM14.416 22.8017C14.416 21.6911 14.178 20.7051 13.702 19.8437C13.2487 18.9597 12.6253 18.2797 11.832 17.8037C11.0613 17.3277 10.2 17.0897 9.248 17.0897C8.296 17.0897 7.42333 17.3277 6.63 17.8037C5.85933 18.2797 5.236 18.9597 4.76 19.8437C4.30667 20.7051 4.08 21.6911 4.08 22.8017C4.08 23.9124 4.30667 24.8984 4.76 25.7597C5.236 26.6211 5.85933 27.2897 6.63 27.7657C7.42333 28.2417 8.296 28.4797 9.248 28.4797C10.2 28.4797 11.0613 28.2417 11.832 27.7657C12.6253 27.2897 13.2487 26.6211 13.702 25.7597C14.178 24.8984 14.416 23.9124 14.416 22.8017Z" fill="#FAFBFB"/>
<path d="M37.1028 28.3097C37.5334 28.7631 37.7488 29.2731 37.7488 29.8397C37.7488 30.4064 37.5221 30.8824 37.0688 31.2677C36.6381 31.6531 36.1734 31.8457 35.6748 31.8457C35.0854 31.8457 34.5868 31.6191 34.1788 31.1657L28.0588 24.7057L26.3928 26.2357V29.8057C26.3928 30.3951 26.2001 30.8937 25.8148 31.3017C25.4294 31.6871 24.9421 31.8797 24.3528 31.8797C23.7634 31.8797 23.2761 31.6871 22.8908 31.3017C22.5054 30.8937 22.3128 30.3951 22.3128 29.8057V8.79373C22.3128 8.20439 22.5054 7.71706 22.8908 7.33172C23.2761 6.92373 23.7634 6.71973 24.3528 6.71973C24.9421 6.71973 25.4294 6.92373 25.8148 7.33172C26.2001 7.71706 26.3928 8.20439 26.3928 8.79373V21.3737L33.6688 14.3357C34.0994 13.9051 34.5981 13.6897 35.1648 13.6897C35.6634 13.6897 36.1054 13.9051 36.4908 14.3357C36.8988 14.7437 37.1028 15.1631 37.1028 15.5937C37.1028 16.1377 36.8308 16.6477 36.2868 17.1237L31.1528 21.8497L37.1028 28.3097Z" fill="#FAFBFB"/>
<path d="M51.1222 13.3497C53.4342 13.3497 55.0322 14.0411 55.9162 15.4237C56.8002 16.7837 57.2422 18.6764 57.2422 21.1017V29.8057C57.2422 30.3951 57.0495 30.8937 56.6642 31.3017C56.2789 31.6871 55.7915 31.8797 55.2022 31.8797C54.6129 31.8797 54.1255 31.6871 53.7402 31.3017C53.3549 30.8937 53.1622 30.3951 53.1622 29.8057V21.1017C53.1622 19.8551 52.9015 18.8804 52.3802 18.1777C51.8589 17.4524 50.9635 17.0897 49.6942 17.0897C48.3795 17.0897 47.3482 17.4751 46.6002 18.2457C45.8522 18.9937 45.4782 19.9457 45.4782 21.1017V29.8057C45.4782 30.3951 45.2855 30.8937 44.9002 31.3017C44.5149 31.6871 44.0275 31.8797 43.4382 31.8797C42.8489 31.8797 42.3615 31.6871 41.9762 31.3017C41.5909 30.8937 41.3982 30.3951 41.3982 29.8057V15.7637C41.3982 15.1744 41.5909 14.6871 41.9762 14.3017C42.3615 13.8937 42.8489 13.6897 43.4382 13.6897C44.0275 13.6897 44.5149 13.8937 44.9002 14.3017C45.2855 14.6871 45.4782 15.1744 45.4782 15.7637V16.3417C46.0902 15.5257 46.8835 14.8231 47.8582 14.2337C48.8555 13.6444 49.9435 13.3497 51.1222 13.3497Z" fill="#FAFBFB"/>
<path d="M76.4421 13.3497C77.0314 13.3497 77.5188 13.5424 77.9041 13.9277C78.2894 14.3131 78.4821 14.8117 78.4821 15.4237V29.8057C78.4821 30.3951 78.2894 30.8937 77.9041 31.3017C77.5188 31.6871 77.0314 31.8797 76.4421 31.8797C75.8528 31.8797 75.3654 31.6871 74.9801 31.3017C74.6174 30.9164 74.4248 30.4291 74.4021 29.8397C73.8354 30.4971 73.0648 31.0637 72.0901 31.5397C71.1381 31.9931 70.1294 32.2197 69.0641 32.2197C67.5001 32.2197 66.0834 31.8231 64.8141 31.0297C63.5448 30.2137 62.5361 29.0917 61.7881 27.6637C61.0628 26.2357 60.7001 24.6151 60.7001 22.8017C60.7001 20.9884 61.0628 19.3677 61.7881 17.9397C62.5134 16.4891 63.4994 15.3671 64.7461 14.5737C66.0154 13.7577 67.4094 13.3497 68.9281 13.3497C70.0161 13.3497 71.0361 13.5537 71.9881 13.9617C72.9401 14.3471 73.7448 14.8457 74.4021 15.4577V15.4237C74.4021 14.8344 74.5948 14.3471 74.9801 13.9617C75.3654 13.5537 75.8528 13.3497 76.4421 13.3497ZM69.5741 28.4797C71.0474 28.4797 72.2488 27.9471 73.1781 26.8817C74.1074 25.7937 74.5721 24.4337 74.5721 22.8017C74.5721 21.1697 74.1074 19.8097 73.1781 18.7217C72.2488 17.6337 71.0474 17.0897 69.5741 17.0897C68.1234 17.0897 66.9334 17.6337 66.0041 18.7217C65.0748 19.8097 64.6101 21.1697 64.6101 22.8017C64.6101 24.4337 65.0634 25.7937 65.9701 26.8817C66.8994 27.9471 68.1008 28.4797 69.5741 28.4797Z" fill="#FAFBFB"/>
<path d="M85.2833 15.9791C84.8698 15.9791 84.549 15.8748 84.3208 15.6662C84.1069 15.4437 84 15.1307 84 14.7274V14.3727C84 13.9694 84.1069 13.6634 84.3208 13.4548C84.549 13.2323 84.8698 13.121 85.2833 13.121H85.5614C85.9749 13.121 86.2886 13.2323 86.5025 13.4548C86.7307 13.6634 86.8447 13.9694 86.8447 14.3727V14.7274C86.8447 15.1307 86.7307 15.4437 86.5025 15.6662C86.2886 15.8748 85.9749 15.9791 85.5614 15.9791H85.2833Z" fill="#68C22B"/>
<path d="M91.9358 14.7274C91.9358 15.089 91.8146 15.395 91.5722 15.6453C91.3298 15.8818 91.0232 16 90.6525 16C90.2817 16 89.9752 15.8818 89.7328 15.6453C89.4904 15.395 89.3691 15.089 89.3691 14.7274V6.11127C89.3691 5.74965 89.4904 5.45063 89.7328 5.21419C89.9752 4.96384 90.2817 4.83866 90.6525 4.83866C91.0232 4.83866 91.3298 4.96384 91.5722 5.21419C91.8146 5.45063 91.9358 5.74965 91.9358 6.11127V14.7274ZM90.6311 3.48261C90.1463 3.48261 89.8041 3.40612 89.6044 3.25313C89.4048 3.10014 89.305 2.82893 89.305 2.4395V2.04312C89.305 1.65369 89.4119 1.38248 89.6258 1.22949C89.8397 1.0765 90.1819 1 90.6525 1C91.1516 1 91.5009 1.0765 91.7006 1.22949C91.9002 1.38248 92 1.65369 92 2.04312V2.4395C92 2.84284 91.8931 3.121 91.6792 3.27399C91.4795 3.41307 91.1302 3.48261 90.6311 3.48261Z" fill="#68C22B"/>
<path opacity="0.3" fill-rule="evenodd" clip-rule="evenodd" d="M102.518 12.9061C102.931 12.493 103.665 12.5577 104.158 13.0504L108.023 16.9153C108.516 17.4081 108.58 18.1424 108.167 18.5554C107.754 18.9685 107.02 18.9039 106.527 18.4111L102.662 14.5462C102.169 14.0534 102.105 13.3191 102.518 12.9061Z" fill="#70A14D"/>
<path fill-rule="evenodd" clip-rule="evenodd" d="M99.5 13.945C101.403 13.945 102.945 12.4026 102.945 10.5C102.945 8.59741 101.403 7.05505 99.5 7.05505C97.5974 7.05505 96.055 8.59741 96.055 10.5C96.055 12.4026 97.5974 13.945 99.5 13.945ZM99.5 16C102.538 16 105 13.5376 105 10.5C105 7.46243 102.538 5 99.5 5C96.4624 5 94 7.46243 94 10.5C94 13.5376 96.4624 16 99.5 16Z" fill="#68C22B"/>
</svg>
