<svg width="109" height="33" viewBox="0 0 109 33" fill="none" xmlns="http://www.w3.org/2000/svg">
<path d="M18.496 22.802C18.496 24.6153 18.088 26.2473 17.272 27.698C16.456 29.126 15.334 30.2367 13.906 31.03C12.5007 31.8233 10.948 32.22 9.248 32.22C7.52533 32.22 5.96133 31.8233 4.556 31.03C3.15067 30.2367 2.04 29.126 1.224 27.698C0.408 26.2473 0 24.6153 0 22.802C0 20.9887 0.408 19.368 1.224 17.94C2.04 16.4893 3.15067 15.3673 4.556 14.574C5.96133 13.758 7.52533 13.35 9.248 13.35C10.948 13.35 12.5007 13.758 13.906 14.574C15.334 15.3673 16.456 16.4893 17.272 17.94C18.088 19.368 18.496 20.9887 18.496 22.802ZM14.416 22.802C14.416 21.6913 14.178 20.7053 13.702 19.844C13.2487 18.96 12.6253 18.28 11.832 17.804C11.0613 17.328 10.2 17.09 9.248 17.09C8.296 17.09 7.42333 17.328 6.63 17.804C5.85933 18.28 5.236 18.96 4.76 19.844C4.30667 20.7053 4.08 21.6913 4.08 22.802C4.08 23.9127 4.30667 24.8987 4.76 25.76C5.236 26.6213 5.85933 27.29 6.63 27.766C7.42333 28.242 8.296 28.48 9.248 28.48C10.2 28.48 11.0613 28.242 11.832 27.766C12.6253 27.29 13.2487 26.6213 13.702 25.76C14.178 24.8987 14.416 23.9127 14.416 22.802Z" fill="#5A5863"/>
<path d="M37.1028 28.31C37.5334 28.7633 37.7488 29.2733 37.7488 29.84C37.7488 30.4067 37.5221 30.8827 37.0688 31.268C36.6381 31.6533 36.1734 31.846 35.6748 31.846C35.0854 31.846 34.5868 31.6193 34.1788 31.166L28.0588 24.706L26.3928 26.236V29.806C26.3928 30.3953 26.2001 30.894 25.8148 31.302C25.4294 31.6873 24.9421 31.88 24.3528 31.88C23.7634 31.88 23.2761 31.6873 22.8908 31.302C22.5054 30.894 22.3128 30.3953 22.3128 29.806V8.794C22.3128 8.20467 22.5054 7.71733 22.8908 7.332C23.2761 6.924 23.7634 6.72 24.3528 6.72C24.9421 6.72 25.4294 6.924 25.8148 7.332C26.2001 7.71733 26.3928 8.20467 26.3928 8.794V21.374L33.6688 14.336C34.0994 13.9053 34.5981 13.69 35.1648 13.69C35.6634 13.69 36.1054 13.9053 36.4908 14.336C36.8988 14.744 37.1028 15.1633 37.1028 15.594C37.1028 16.138 36.8308 16.648 36.2868 17.124L31.1528 21.85L37.1028 28.31Z" fill="#5A5863"/>
<path d="M51.1222 13.35C53.4342 13.35 55.0322 14.0413 55.9162 15.424C56.8002 16.784 57.2422 18.6767 57.2422 21.102V29.806C57.2422 30.3953 57.0495 30.894 56.6642 31.302C56.2789 31.6873 55.7915 31.88 55.2022 31.88C54.6129 31.88 54.1255 31.6873 53.7402 31.302C53.3549 30.894 53.1622 30.3953 53.1622 29.806V21.102C53.1622 19.8553 52.9015 18.8807 52.3802 18.178C51.8589 17.4527 50.9635 17.09 49.6942 17.09C48.3795 17.09 47.3482 17.4753 46.6002 18.246C45.8522 18.994 45.4782 19.946 45.4782 21.102V29.806C45.4782 30.3953 45.2855 30.894 44.9002 31.302C44.5149 31.6873 44.0275 31.88 43.4382 31.88C42.8489 31.88 42.3615 31.6873 41.9762 31.302C41.5909 30.894 41.3982 30.3953 41.3982 29.806V15.764C41.3982 15.1747 41.5909 14.6873 41.9762 14.302C42.3615 13.894 42.8489 13.69 43.4382 13.69C44.0275 13.69 44.5149 13.894 44.9002 14.302C45.2855 14.6873 45.4782 15.1747 45.4782 15.764V16.342C46.0902 15.526 46.8835 14.8233 47.8582 14.234C48.8555 13.6447 49.9435 13.35 51.1222 13.35Z" fill="#5A5863"/>
<path d="M76.4421 13.35C77.0314 13.35 77.5188 13.5427 77.9041 13.928C78.2894 14.3133 78.4821 14.812 78.4821 15.424V29.806C78.4821 30.3953 78.2894 30.894 77.9041 31.302C77.5188 31.6873 77.0314 31.88 76.4421 31.88C75.8528 31.88 75.3654 31.6873 74.9801 31.302C74.6174 30.9167 74.4248 30.4293 74.4021 29.84C73.8354 30.4973 73.0648 31.064 72.0901 31.54C71.1381 31.9933 70.1294 32.22 69.0641 32.22C67.5001 32.22 66.0834 31.8233 64.8141 31.03C63.5448 30.214 62.5361 29.092 61.7881 27.664C61.0628 26.236 60.7001 24.6153 60.7001 22.802C60.7001 20.9887 61.0628 19.368 61.7881 17.94C62.5134 16.4893 63.4994 15.3673 64.7461 14.574C66.0154 13.758 67.4094 13.35 68.9281 13.35C70.0161 13.35 71.0361 13.554 71.9881 13.962C72.9401 14.3473 73.7448 14.846 74.4021 15.458V15.424C74.4021 14.8347 74.5948 14.3473 74.9801 13.962C75.3654 13.554 75.8528 13.35 76.4421 13.35ZM69.5741 28.48C71.0474 28.48 72.2488 27.9473 73.1781 26.882C74.1074 25.794 74.5721 24.434 74.5721 22.802C74.5721 21.17 74.1074 19.81 73.1781 18.722C72.2488 17.634 71.0474 17.09 69.5741 17.09C68.1234 17.09 66.9334 17.634 66.0041 18.722C65.0748 19.81 64.6101 21.17 64.6101 22.802C64.6101 24.434 65.0634 25.794 65.9701 26.882C66.8994 27.9473 68.1008 28.48 69.5741 28.48Z" fill="#5A5863"/>
<path d="M85.2833 15.9791C84.8698 15.9791 84.549 15.8748 84.3208 15.6662C84.1069 15.4437 84 15.1307 84 14.7274V14.3727C84 13.9694 84.1069 13.6634 84.3208 13.4548C84.549 13.2323 84.8698 13.121 85.2833 13.121H85.5614C85.9749 13.121 86.2886 13.2323 86.5025 13.4548C86.7307 13.6634 86.8447 13.9694 86.8447 14.3727V14.7274C86.8447 15.1307 86.7307 15.4437 86.5025 15.6662C86.2886 15.8748 85.9749 15.9791 85.5614 15.9791H85.2833Z" fill="#68C22B"/>
<path d="M91.9358 14.7274C91.9358 15.089 91.8146 15.395 91.5722 15.6453C91.3298 15.8818 91.0232 16 90.6525 16C90.2817 16 89.9752 15.8818 89.7328 15.6453C89.4904 15.395 89.3691 15.089 89.3691 14.7274V6.11127C89.3691 5.74965 89.4904 5.45063 89.7328 5.21419C89.9752 4.96384 90.2817 4.83866 90.6525 4.83866C91.0232 4.83866 91.3298 4.96384 91.5722 5.21419C91.8146 5.45063 91.9358 5.74965 91.9358 6.11127V14.7274ZM90.6311 3.48261C90.1463 3.48261 89.8041 3.40612 89.6044 3.25313C89.4048 3.10014 89.305 2.82893 89.305 2.4395V2.04312C89.305 1.65369 89.4119 1.38248 89.6258 1.22949C89.8397 1.0765 90.1819 1 90.6525 1C91.1516 1 91.5009 1.0765 91.7006 1.22949C91.9002 1.38248 92 1.65369 92 2.04312V2.4395C92 2.84284 91.8931 3.121 91.6792 3.27399C91.4795 3.41307 91.1302 3.48261 90.6311 3.48261Z" fill="#68C22B"/>
<path opacity="0.3" fill-rule="evenodd" clip-rule="evenodd" d="M102.517 12.9065C102.93 12.4935 103.664 12.5581 104.157 13.0509L108.022 16.9157C108.515 17.4085 108.579 18.1428 108.166 18.5559C107.753 18.9689 107.019 18.9043 106.526 18.4115L102.661 14.5466C102.168 14.0539 102.104 13.3196 102.517 12.9065Z" fill="#70A14D"/>
<path fill-rule="evenodd" clip-rule="evenodd" d="M99.5 13.945C101.403 13.945 102.945 12.4026 102.945 10.5C102.945 8.59741 101.403 7.05505 99.5 7.05505C97.5974 7.05505 96.055 8.59741 96.055 10.5C96.055 12.4026 97.5974 13.945 99.5 13.945ZM99.5 16C102.538 16 105 13.5376 105 10.5C105 7.46243 102.538 5 99.5 5C96.4624 5 94 7.46243 94 10.5C94 13.5376 96.4624 16 99.5 16Z" fill="#68C22B"/>
</svg>
