<svg width="103" height="38" viewBox="0 0 103 38" fill="none" xmlns="http://www.w3.org/2000/svg">
<path d="M10.104 29.288C8.36 29.288 6.784 28.912 5.376 28.16C3.984 27.408 2.888 26.376 2.088 25.064C1.304 23.736 0.912 22.248 0.912 20.6C0.912 18.952 1.304 17.472 2.088 16.16C2.888 14.832 3.984 13.792 5.376 13.04C6.784 12.288 8.36 11.912 10.104 11.912C11.848 11.912 13.416 12.288 14.808 13.04C16.2 13.792 17.296 14.832 18.096 16.16C18.896 17.472 19.296 18.952 19.296 20.6C19.296 22.248 18.896 23.736 18.096 25.064C17.296 26.376 16.2 27.408 14.808 28.16C13.416 28.912 11.848 29.288 10.104 29.288ZM10.104 25.976C11.096 25.976 11.992 25.752 12.792 25.304C13.592 24.84 14.216 24.2 14.664 23.384C15.128 22.568 15.36 21.64 15.36 20.6C15.36 19.56 15.128 18.632 14.664 17.816C14.216 17 13.592 16.368 12.792 15.92C11.992 15.456 11.096 15.224 10.104 15.224C9.112 15.224 8.216 15.456 7.416 15.92C6.616 16.368 5.984 17 5.52 17.816C5.072 18.632 4.848 19.56 4.848 20.6C4.848 21.64 5.072 22.568 5.52 23.384C5.984 24.2 6.616 24.84 7.416 25.304C8.216 25.752 9.112 25.976 10.104 25.976ZM28.7951 22.232H26.1071V29H22.2431V12.2H26.1071V18.992H28.8911L33.3071 12.2H37.4111L31.9151 20.312L37.5791 29H33.1631L28.7951 22.232ZM54.8085 12.2V29H50.9205V22.112H43.2885V29H39.4005V12.2H43.2885V18.824H50.9205V12.2H54.8085ZM70.3937 25.4H62.5937L61.1057 29H57.1217L64.6097 12.2H68.4497L75.9617 29H71.8817L70.3937 25.4ZM69.1697 22.448L66.5057 16.016L63.8417 22.448H69.1697Z" fill="#42484D"/>
<path d="M80.62 19.16C80.0733 19.16 79.6133 18.9733 79.24 18.6C78.8667 18.2267 78.68 17.76 78.68 17.2C78.68 16.6267 78.8667 16.1667 79.24 15.82C79.6133 15.46 80.0733 15.28 80.62 15.28C81.1667 15.28 81.6267 15.46 82 15.82C82.3733 16.1667 82.56 16.6267 82.56 17.2C82.56 17.76 82.3733 18.2267 82 18.6C81.6267 18.9733 81.1667 19.16 80.62 19.16ZM84.6744 8.24H87.7944V19H84.6744V8.24ZM86.2344 6.74C85.661 6.74 85.1944 6.57333 84.8344 6.24C84.4744 5.90667 84.2944 5.49333 84.2944 5C84.2944 4.50667 84.4744 4.09333 84.8344 3.76C85.1944 3.42667 85.661 3.26 86.2344 3.26C86.8077 3.26 87.2744 3.42 87.6344 3.74C87.9944 4.06 88.1744 4.46 88.1744 4.94C88.1744 5.46 87.9944 5.89333 87.6344 6.24C87.2744 6.57333 86.8077 6.74 86.2344 6.74ZM95.81 19.16C94.6767 19.16 93.6567 18.9267 92.75 18.46C91.8567 17.98 91.1567 17.32 90.65 16.48C90.1433 15.64 89.89 14.6867 89.89 13.62C89.89 12.5533 90.1433 11.6 90.65 10.76C91.1567 9.92 91.8567 9.26667 92.75 8.8C93.6567 8.32 94.6767 8.08 95.81 8.08C96.9433 8.08 97.9567 8.32 98.85 8.8C99.7433 9.26667 100.443 9.92 100.95 10.76C101.457 11.6 101.71 12.5533 101.71 13.62C101.71 14.6867 101.457 15.64 100.95 16.48C100.443 17.32 99.7433 17.98 98.85 18.46C97.9567 18.9267 96.9433 19.16 95.81 19.16ZM95.81 16.6C96.61 16.6 97.2633 16.3333 97.77 15.8C98.29 15.2533 98.55 14.5267 98.55 13.62C98.55 12.7133 98.29 11.9933 97.77 11.46C97.2633 10.9133 96.61 10.64 95.81 10.64C95.01 10.64 94.35 10.9133 93.83 11.46C93.31 11.9933 93.05 12.7133 93.05 13.62C93.05 14.5267 93.31 15.2533 93.83 15.8C94.35 16.3333 95.01 16.6 95.81 16.6Z" fill="#4EBB00"/>
</svg>
