<svg width="113" height="34" viewBox="0 0 113 34" fill="none" xmlns="http://www.w3.org/2000/svg">
<g opacity="0.5">
<path d="M19.2104 24.0617C19.2104 25.9752 18.7866 27.6974 17.9391 29.2282C17.0916 30.7351 15.9263 31.9071 14.4431 32.7443C12.9835 33.5814 11.3709 34 9.6052 34C7.816 34 6.19159 33.5814 4.73197 32.7443C3.27236 31.9071 2.11879 30.7351 1.27128 29.2282C0.423759 27.6974 0 25.9752 0 24.0617C0 22.1482 0.423759 20.438 1.27128 18.9311C2.11879 17.4003 3.27236 16.2163 4.73197 15.3791C6.19159 14.5181 7.816 14.0875 9.6052 14.0875C11.3709 14.0875 12.9835 14.5181 14.4431 15.3791C15.9263 16.2163 17.0916 17.4003 17.9391 18.9311C18.7866 20.438 19.2104 22.1482 19.2104 24.0617ZM14.9728 24.0617C14.9728 22.8897 14.7256 21.8492 14.2312 20.9403C13.7604 20.0074 13.113 19.2899 12.289 18.7876C11.4886 18.2853 10.594 18.0341 9.6052 18.0341C8.61643 18.0341 7.71005 18.2853 6.88608 18.7876C6.08565 19.2899 5.43824 20.0074 4.94385 20.9403C4.47301 21.8492 4.23759 22.8897 4.23759 24.0617C4.23759 25.2337 4.47301 26.2742 4.94385 27.1831C5.43824 28.092 6.08565 28.7976 6.88608 29.2999C7.71005 29.8022 8.61643 30.0534 9.6052 30.0534C10.594 30.0534 11.4886 29.8022 12.289 29.2999C13.113 28.7976 13.7604 28.092 14.2312 27.1831C14.7256 26.2742 14.9728 25.2337 14.9728 24.0617Z" fill="#5A5863"/>
<path d="M38.5358 29.874C38.9831 30.3524 39.2068 30.8905 39.2068 31.4885C39.2068 32.0865 38.9714 32.5888 38.5005 32.9954C38.0532 33.402 37.5706 33.6053 37.0527 33.6053C36.4406 33.6053 35.9227 33.3661 35.4989 32.8878L29.1425 26.0709L27.4122 27.6854V31.4526C27.4122 32.0745 27.2121 32.6007 26.8118 33.0313C26.4116 33.4379 25.9055 33.6412 25.2934 33.6412C24.6813 33.6412 24.1751 33.4379 23.7749 33.0313C23.3747 32.6007 23.1746 32.0745 23.1746 31.4526V9.27983C23.1746 8.65793 23.3747 8.14368 23.7749 7.73706C24.1751 7.30652 24.6813 7.09125 25.2934 7.09125C25.9055 7.09125 26.4116 7.30652 26.8118 7.73706C27.2121 8.14368 27.4122 8.65793 27.4122 9.27983V22.5548L34.9692 15.128C35.4165 14.6735 35.9344 14.4463 36.523 14.4463C37.0409 14.4463 37.5 14.6735 37.9002 15.128C38.324 15.5585 38.5358 16.001 38.5358 16.4555C38.5358 17.0295 38.2533 17.5677 37.6883 18.07L32.356 23.0571L38.5358 29.874Z" fill="#5A5863"/>
<path d="M53.0968 14.0875C55.4981 14.0875 57.1578 14.817 58.0759 16.2761C58.9941 17.7112 59.4531 19.7085 59.4531 22.2678V31.4526C59.4531 32.0745 59.253 32.6007 58.8528 33.0313C58.4526 33.4379 57.9464 33.6412 57.3343 33.6412C56.7222 33.6412 56.2161 33.4379 55.8159 33.0313C55.4157 32.6007 55.2155 32.0745 55.2155 31.4526V22.2678C55.2155 20.9522 54.9448 19.9237 54.4033 19.1822C53.8619 18.4168 52.932 18.0341 51.6136 18.0341C50.2481 18.0341 49.177 18.4408 48.4001 19.254C47.6232 20.0433 47.2348 21.0479 47.2348 22.2678V31.4526C47.2348 32.0745 47.0346 32.6007 46.6344 33.0313C46.2342 33.4379 45.7281 33.6412 45.116 33.6412C44.5039 33.6412 43.9977 33.4379 43.5975 33.0313C43.1973 32.6007 42.9972 32.0745 42.9972 31.4526V16.6349C42.9972 16.013 43.1973 15.4987 43.5975 15.0921C43.9977 14.6616 44.5039 14.4463 45.116 14.4463C45.7281 14.4463 46.2342 14.6616 46.6344 15.0921C47.0346 15.4987 47.2348 16.013 47.2348 16.6349V17.2448C47.8704 16.3837 48.6944 15.6422 49.7067 15.0204C50.7425 14.3985 51.8726 14.0875 53.0968 14.0875Z" fill="#5A5863"/>
<path d="M79.3946 14.0875C80.0067 14.0875 80.5129 14.2908 80.9131 14.6975C81.3133 15.1041 81.5134 15.6303 81.5134 16.2761V31.4526C81.5134 32.0745 81.3133 32.6007 80.9131 33.0313C80.5129 33.4379 80.0067 33.6412 79.3946 33.6412C78.7825 33.6412 78.2764 33.4379 77.8761 33.0313C77.4995 32.6247 77.2994 32.1104 77.2758 31.4885C76.6873 32.1822 75.8868 32.7801 74.8745 33.2824C73.8858 33.7608 72.8381 34 71.7316 34C70.1072 34 68.6359 33.5814 67.3175 32.7443C65.9991 31.8832 64.9515 30.6992 64.1746 29.1923C63.4213 27.6854 63.0446 25.9752 63.0446 24.0617C63.0446 22.1482 63.4213 20.438 64.1746 18.9311C64.928 17.4003 65.952 16.2163 67.2469 15.3791C68.5652 14.5181 70.0131 14.0875 71.5904 14.0875C72.7204 14.0875 73.7798 14.3028 74.7686 14.7333C75.7573 15.14 76.5931 15.6662 77.2758 16.312V16.2761C77.2758 15.6542 77.4759 15.14 77.8761 14.7333C78.2764 14.3028 78.7825 14.0875 79.3946 14.0875ZM72.2613 30.0534C73.7916 30.0534 75.0393 29.4913 76.0045 28.3671C76.9698 27.219 77.4524 25.7839 77.4524 24.0617C77.4524 22.3395 76.9698 20.9044 76.0045 19.7563C75.0393 18.6082 73.7916 18.0341 72.2613 18.0341C70.7546 18.0341 69.5187 18.6082 68.5535 19.7563C67.5882 20.9044 67.1056 22.3395 67.1056 24.0617C67.1056 25.7839 67.5765 27.219 68.5181 28.3671C69.4834 29.4913 70.7311 30.0534 72.2613 30.0534Z" fill="#5A5863"/>
<path d="M88.5773 16.8619C88.1478 16.8619 87.8146 16.7518 87.5776 16.5317C87.3555 16.2969 87.2444 15.9666 87.2444 15.541V15.1668C87.2444 14.7411 87.3555 14.4183 87.5776 14.1981C87.8146 13.9633 88.1478 13.8459 88.5773 13.8459H88.8661C89.2956 13.8459 89.6214 13.9633 89.8436 14.1981C90.0805 14.4183 90.199 14.7411 90.199 15.1668V15.541C90.199 15.9666 90.0805 16.2969 89.8436 16.5317C89.6214 16.7518 89.2956 16.8619 88.8661 16.8619H88.5773Z" fill="#68C22B"/>
<path d="M95.4867 15.541C95.4867 15.9226 95.3609 16.2455 95.1091 16.5097C94.8573 16.7592 94.5389 16.8839 94.1538 16.8839C93.7688 16.8839 93.4503 16.7592 93.1986 16.5097C92.9468 16.2455 92.8209 15.9226 92.8209 15.541V6.44888C92.8209 6.06729 92.9468 5.75174 93.1986 5.50224C93.4503 5.23806 93.7688 5.10597 94.1538 5.10597C94.5389 5.10597 94.8573 5.23806 95.1091 5.50224C95.3609 5.75174 95.4867 6.06729 95.4867 6.44888V15.541ZM94.1316 3.675C93.6281 3.675 93.2726 3.59428 93.0653 3.43284C92.8579 3.2714 92.7543 2.98521 92.7543 2.57426V2.15598C92.7543 1.74504 92.8653 1.45884 93.0875 1.2974C93.3096 1.13596 93.6651 1.05524 94.1538 1.05524C94.6722 1.05524 95.035 1.13596 95.2424 1.2974C95.4497 1.45884 95.5534 1.74504 95.5534 2.15598V2.57426C95.5534 2.99988 95.4423 3.29341 95.2202 3.45486C95.0128 3.60162 94.65 3.675 94.1316 3.675Z" fill="#68C22B"/>
<path opacity="0.3" fill-rule="evenodd" clip-rule="evenodd" d="M106.476 13.6195C106.905 13.1837 107.668 13.2519 108.18 13.7718L112.194 17.8502C112.706 18.3702 112.773 19.1451 112.344 19.581C111.915 20.0168 111.152 19.9486 110.64 19.4287L106.626 15.3503C106.115 14.8303 106.047 14.0554 106.476 13.6195Z" fill="#70A14D"/>
<path fill-rule="evenodd" clip-rule="evenodd" d="M103.343 14.7153C105.319 14.7153 106.921 13.0878 106.921 11.0801C106.921 9.07236 105.319 7.44479 103.343 7.44479C101.367 7.44479 99.765 9.07236 99.765 11.0801C99.765 13.0878 101.367 14.7153 103.343 14.7153ZM103.343 16.8839C106.498 16.8839 109.055 14.2854 109.055 11.0801C109.055 7.87469 106.498 5.27621 103.343 5.27621C100.188 5.27621 97.6306 7.87469 97.6306 11.0801C97.6306 14.2854 100.188 16.8839 103.343 16.8839Z" fill="#68C22B"/>
</g>
</svg>
