<svg width="24" height="18" viewBox="0 0 24 18" fill="none" xmlns="http://www.w3.org/2000/svg">
<path d="M0.90566 2H23.0943C23.5943 2 24 1.552 24 1C24 0.448 23.5943 0 23.0943 0H0.90566C0.405736 0 0 0.448 0 1C0 1.552 0.405736 2 0.90566 2Z" fill="#5A5863"/>
<path d="M0.90566 10H23.0943C23.5943 10 24 9.552 24 9C24 8.448 23.5943 8 23.0943 8H0.90566C0.405736 8 0 8.448 0 9C0 9.552 0.405736 10 0.90566 10Z" fill="#5A5863"/>
<path d="M0.90566 18H23.0943C23.5943 18 24 17.552 24 17C24 16.448 23.5943 16 23.0943 16H0.90566C0.405736 16 0 16.448 0 17C0 17.552 0.405736 18 0.90566 18Z" fill="#5A5863"/>
</svg>
