<svg width="19" height="19" viewBox="0 0 19 19" fill="none" xmlns="http://www.w3.org/2000/svg">
<path fill-rule="evenodd" clip-rule="evenodd" d="M18.4178 17.2551L17.0657 18.6078C16.8243 18.8489 16.1174 18.9994 16.0947 18.9994C11.8171 19.0367 7.69847 17.3562 4.67231 14.3291C1.63787 11.2924 -0.0442889 7.15819 0.000886973 2.86536C0.000886973 2.86536 0.155697 2.17666 0.39689 1.93771L1.74896 0.585165C2.24374 0.0879935 3.19418 -0.136677 3.85998 0.0861138L4.1444 0.181009C4.80826 0.403591 5.50525 1.13776 5.68866 1.81414L6.36881 4.31093C6.55223 4.98925 6.30484 5.95429 5.8102 6.44916L4.90738 7.3523C5.79377 10.6344 8.36852 13.2102 11.6506 14.0989L12.553 13.1955C13.0501 12.6984 14.0146 12.4511 14.6913 12.6343L17.1873 13.317C17.8637 13.5029 18.5976 14.1957 18.82 14.8594L18.9149 15.148C19.1354 15.8121 18.9125 16.7625 18.4178 17.2551Z" fill="#5DBF16"/>
</svg>
