<svg width="19" height="19" viewBox="0 0 19 19" fill="none" xmlns="http://www.w3.org/2000/svg">
<path d="M4.00532 0.00905782C3.69667 -0.0312025 3.42831 0.0627935 3.20024 0.290653L0.543562 2.96581C0.409382 3.0865 0.295229 3.24402 0.201401 3.43846C0.107441 3.63289 0.0470621 3.82394 0.0202581 4.01161C0.0202581 4.02502 0.0168058 4.06534 0.0100958 4.13242C0.00342005 4.19937 1.75456e-07 4.28653 1.74177e-07 4.39381C1.71138e-07 4.64865 0.0436098 5.06102 0.13086 5.63091C0.218109 6.20081 0.432831 6.89806 0.774925 7.72267C1.11708 8.54747 1.63039 9.48274 2.31465 10.5286C2.99887 11.5745 3.9382 12.6875 5.13244 13.8676C6.05828 14.8062 6.94388 15.5839 7.78918 16.2008C8.63455 16.8176 9.41615 17.3137 10.134 17.6892C10.8519 18.0647 11.5027 18.3463 12.0863 18.534C12.67 18.7218 13.1732 18.8491 13.5959 18.9162C14.0185 18.9832 14.3506 19.0101 14.5922 18.9966C14.8337 18.9832 14.9679 18.9765 14.9947 18.9765C15.1826 18.9497 15.3738 18.8894 15.5683 18.7955C15.7629 18.7016 15.9206 18.5877 16.0413 18.4536L18.7182 15.7784C18.9061 15.5907 19 15.3761 19 15.1348C19 14.9604 18.9497 14.8062 18.849 14.6721C18.7484 14.5381 18.6243 14.4241 18.4767 14.3302L14.3909 12.178C14.1762 12.0573 13.9414 12.0238 13.6865 12.0774C13.4315 12.1311 13.2168 12.2451 13.0424 12.4194L12.0562 13.405C12.0293 13.4318 11.9857 13.4552 11.9253 13.4754C11.8649 13.4955 11.8146 13.5055 11.7744 13.5055C11.4926 13.4519 11.1706 13.3312 10.8083 13.1435C10.4862 12.9826 10.0938 12.7345 9.63084 12.3993C9.16792 12.064 8.63458 11.588 8.03077 10.9712C7.41348 10.3678 6.93385 9.83138 6.59162 9.36205C6.24959 8.89283 5.9979 8.50047 5.83689 8.18535C5.67587 7.87024 5.57859 7.62887 5.54514 7.46128L5.49479 7.20993C5.49479 7.18311 5.50489 7.13943 5.52498 7.07915C5.54514 7.01881 5.56859 6.97523 5.59546 6.94838L6.76283 5.80192C6.97749 5.56042 7.08483 5.27895 7.08483 4.95709C7.08483 4.72907 7.04461 4.54814 6.96407 4.41405L6.96407 4.39397L4.66958 0.512007C4.49502 0.230312 4.27368 0.0627287 4.00532 0.00905782Z" fill="white"/>
</svg>
