<svg width="155" height="91" viewBox="0 0 155 91" fill="none" xmlns="http://www.w3.org/2000/svg">
<g style="mix-blend-mode:luminosity" opacity="0.8">
<g opacity="0.1">
<path opacity="0.1" d="M114.092 88.7757C115.748 88.7757 117.091 87.0184 117.091 84.8507C117.091 82.683 115.748 80.9258 114.092 80.9258C112.436 80.9258 111.093 82.683 111.093 84.8507C111.093 87.0184 112.436 88.7757 114.092 88.7757Z" fill="#3F3D56"/>
<path opacity="0.1" d="M116.465 68.0597C116.885 67.3305 117.103 66.5024 117.096 65.6608C117.096 63.4886 115.754 61.7358 114.097 61.7358C112.441 61.7358 111.1 63.4926 111.1 65.6608C111.091 66.5019 111.307 67.33 111.725 68.0597C111.315 68.7924 111.1 69.6182 111.1 70.458C111.1 71.2978 111.315 72.1236 111.725 72.8563C111.315 73.5892 111.1 74.4152 111.1 75.2552C111.1 76.0952 111.315 76.9212 111.725 77.6542C111.307 78.3839 111.091 79.212 111.1 80.0531C111.1 82.2253 112.442 83.978 114.097 83.978C115.752 83.978 117.096 82.2213 117.096 80.0531C117.105 79.212 116.889 78.3839 116.47 77.6542C116.881 76.9212 117.096 76.0952 117.096 75.2552C117.096 74.4152 116.881 73.5892 116.47 72.8563C116.881 72.1236 117.096 71.2978 117.096 70.458C117.096 69.6182 116.881 68.7924 116.47 68.0597H116.465Z" fill="#3F3D56"/>
<path opacity="0.1" d="M114.092 64.7891C115.748 64.7891 117.091 63.0318 117.091 60.8641C117.091 58.6965 115.748 56.9392 114.092 56.9392C112.436 56.9392 111.093 58.6965 111.093 60.8641C111.093 63.0318 112.436 64.7891 114.092 64.7891Z" fill="#3F3D56"/>
<path opacity="0.1" d="M114.092 59.991C115.748 59.991 117.091 58.2337 117.091 56.066C117.091 53.8984 115.748 52.1411 114.092 52.1411C112.436 52.1411 111.093 53.8984 111.093 56.066C111.093 58.2337 112.436 59.991 114.092 59.991Z" fill="#3F3D56"/>
<path opacity="0.1" d="M125.317 23.2352C125.726 22.7134 126.099 22.1641 126.433 21.5911L118.559 20.2973L127.081 20.3611C127.897 18.5824 128.343 16.6559 128.389 14.6992C128.436 12.7426 128.083 10.797 127.352 8.98136L115.918 14.9088L126.464 7.16213C125.476 5.45651 124.147 3.97258 122.56 2.80271C120.974 1.63283 119.163 0.802054 117.242 0.362086C115.32 -0.0778815 113.329 -0.117622 111.391 0.245341C109.454 0.608303 107.612 1.3662 105.98 2.47185C104.348 3.5775 102.961 5.00724 101.905 6.67207C100.85 8.3369 100.148 10.2012 99.844 12.1489C99.54 14.0966 99.6403 16.086 100.138 17.9933C100.637 19.9006 101.522 21.6849 102.739 23.2352C102.101 24.0469 101.552 24.9249 101.102 25.8541L111.329 31.1679L100.425 27.5023C99.6574 29.7649 99.4666 32.1832 99.8696 34.5382C100.273 36.8931 101.257 39.1103 102.733 40.9891C101.066 43.1076 100.03 45.6523 99.7414 48.3321C99.453 51.012 99.9246 53.719 101.102 56.1434C102.28 58.5679 104.116 60.6121 106.4 62.0423C108.685 63.4725 111.326 64.231 114.021 64.231C116.717 64.231 119.358 63.4725 121.642 62.0423C123.927 60.6121 125.763 58.5679 126.941 56.1434C128.118 53.719 128.59 51.012 128.301 48.3321C128.013 45.6523 126.977 43.1076 125.31 40.9891C127.301 38.4576 128.384 35.3302 128.384 32.1094C128.384 28.8886 127.301 25.7613 125.31 23.2298L125.317 23.2352Z" fill="white"/>
<path opacity="0.1" d="M99.6655 32.1159C99.6606 35.3373 100.744 38.466 102.739 40.9949C101.073 43.1134 100.036 45.658 99.748 48.3379C99.4596 51.0178 99.9312 53.7247 101.109 56.1492C102.286 58.5737 104.122 60.6179 106.407 62.0481C108.692 63.4783 111.333 64.2367 114.028 64.2367C116.723 64.2367 119.364 63.4783 121.649 62.0481C123.934 60.6179 125.77 58.5737 126.947 56.1492C128.125 53.7247 128.596 51.0178 128.308 48.3379C128.02 45.658 126.983 43.1134 125.317 40.9949C127.242 38.5511 99.6655 30.503 99.6655 32.1159Z" fill="black"/>
</g>
<g opacity="0.1">
<path opacity="0.1" d="M29.9782 84.5777C30.986 84.5777 31.8029 83.5079 31.8029 82.1883C31.8029 80.8686 30.986 79.7988 29.9782 79.7988C28.9705 79.7988 28.1536 80.8686 28.1536 82.1883C28.1536 83.5079 28.9705 84.5777 29.9782 84.5777Z" fill="#3F3D56"/>
<path opacity="0.1" d="M31.4295 71.967C31.6842 71.5226 31.8159 71.0183 31.811 70.5061C31.811 69.1865 30.9964 68.1167 29.985 68.1167C28.9736 68.1167 28.1603 69.1865 28.1603 70.5061C28.155 71.0182 28.2862 71.5224 28.5405 71.967C28.2912 72.4133 28.1604 72.9159 28.1604 73.4271C28.1604 73.9383 28.2912 74.4409 28.5405 74.8873C28.2912 75.3336 28.1604 75.8362 28.1604 76.3474C28.1604 76.8586 28.2912 77.3612 28.5405 77.8075C28.286 78.2515 28.1548 78.7553 28.1603 79.267C28.1603 80.588 28.9749 81.6578 29.985 81.6578C30.9951 81.6578 31.811 80.588 31.811 79.267C31.8161 78.7552 31.6844 78.2513 31.4295 77.8075C31.6795 77.3615 31.8108 76.8587 31.8108 76.3474C31.8108 75.8361 31.6795 75.3333 31.4295 74.8873C31.6795 74.4412 31.8108 73.9384 31.8108 73.4271C31.8108 72.9158 31.6795 72.413 31.4295 71.967Z" fill="#3F3D56"/>
<path opacity="0.1" d="M29.9782 69.9749C30.986 69.9749 31.8029 68.9051 31.8029 67.5855C31.8029 66.2658 30.986 65.196 29.9782 65.196C28.9705 65.196 28.1536 66.2658 28.1536 67.5855C28.1536 68.9051 28.9705 69.9749 29.9782 69.9749Z" fill="#3F3D56"/>
<path opacity="0.1" d="M29.9782 67.055C30.986 67.055 31.8029 65.9852 31.8029 64.6656C31.8029 63.3459 30.986 62.2761 29.9782 62.2761C28.9705 62.2761 28.1536 63.3459 28.1536 64.6656C28.1536 65.9852 28.9705 67.055 29.9782 67.055Z" fill="#3F3D56"/>
<path opacity="0.1" d="M23.1479 44.6779C22.8987 44.3605 22.6718 44.0262 22.469 43.6773L27.2656 42.8899L22.078 42.9293C21.5814 41.847 21.3105 40.6749 21.2817 39.4845C21.253 38.294 21.4672 37.1102 21.911 36.0053L28.8662 39.618L22.4487 34.8934C23.0506 33.8558 23.8596 32.9531 24.8253 32.2416C25.7911 31.53 26.8929 31.0248 28.0623 30.7574C29.2317 30.49 30.4436 30.466 31.6226 30.6871C32.8017 30.9081 33.9226 31.3694 34.9157 32.0423C35.9088 32.7152 36.7528 33.5852 37.3952 34.5982C38.0376 35.6113 38.4647 36.7457 38.6499 37.9309C38.8351 39.1161 38.7744 40.3267 38.4716 41.4874C38.1688 42.6482 37.6304 43.7342 36.8899 44.6779C37.2783 45.1714 37.6124 45.7053 37.8864 46.2704L31.6603 49.507L38.2991 47.2791C38.7654 48.657 38.8807 50.1294 38.6346 51.5631C38.3886 52.9968 37.7889 54.3465 36.8899 55.4901C37.9042 56.7798 38.5351 58.3289 38.7106 59.9602C38.886 61.5916 38.5989 63.2394 37.882 64.7152C37.1651 66.1911 36.0474 67.4355 34.6567 68.3061C33.2659 69.1766 31.6583 69.6383 30.0175 69.6383C28.3767 69.6383 26.7691 69.1766 25.3784 68.3061C23.9876 67.4355 22.8699 66.1911 22.153 64.7152C21.4361 63.2394 21.149 61.5916 21.3244 59.9602C21.4999 58.3289 22.1308 56.7798 23.1451 55.4901C21.9331 53.9488 21.2742 52.0448 21.2742 50.084C21.2742 48.1232 21.9331 46.2192 23.1451 44.6779H23.1479Z" fill="white"/>
<path opacity="0.1" d="M38.7611 50.0845C38.764 52.0458 38.1048 53.9507 36.8902 55.4907C37.9045 56.7803 38.5355 58.3294 38.7109 59.9608C38.8864 61.5921 38.5992 63.2399 37.8824 64.7158C37.1655 66.1916 36.0478 67.436 34.657 68.3066C33.2663 69.1772 31.6586 69.6389 30.0179 69.6389C28.3771 69.6389 26.7695 69.1772 25.3787 68.3066C23.988 67.436 22.8703 66.1916 22.1534 64.7158C21.4365 63.2399 21.1493 61.5921 21.3248 59.9608C21.5002 58.3294 22.1312 56.7803 23.1455 55.4907C21.9738 54.0095 38.7611 49.103 38.7611 50.0845Z" fill="black"/>
</g>
<g opacity="0.1">
<path opacity="0.1" d="M71.1145 86.6577C72.4634 86.6577 73.5569 85.2262 73.5569 83.4604C73.5569 81.6946 72.4634 80.2632 71.1145 80.2632C69.7656 80.2632 68.6721 81.6946 68.6721 83.4604C68.6721 85.2262 69.7656 86.6577 71.1145 86.6577Z" fill="#3F3D56"/>
<path opacity="0.1" d="M73.0475 69.7811C73.3879 69.1863 73.5637 68.5115 73.5567 67.8262C73.5567 66.0612 72.4705 64.6289 71.1129 64.6289C69.7553 64.6289 68.6692 66.0612 68.6692 67.8262C68.662 68.5117 68.8382 69.1866 69.1796 69.7811C68.845 70.3781 68.6692 71.0511 68.6692 71.7355C68.6692 72.4199 68.845 73.0928 69.1796 73.6898C68.845 74.2865 68.6692 74.9593 68.6692 75.6434C68.6692 76.3276 68.845 77.0003 69.1796 77.5971C68.8382 78.1916 68.662 78.8666 68.6692 79.5521C68.6692 81.317 69.7634 82.7493 71.1129 82.7493C72.4624 82.7493 73.5567 81.317 73.5567 79.5521C73.5637 78.8668 73.3879 78.1919 73.0475 77.5971C73.3814 77.0001 73.5567 76.3275 73.5567 75.6434C73.5567 74.9594 73.3814 74.2868 73.0475 73.6898C73.3814 73.0925 73.5567 72.4197 73.5567 71.7355C73.5567 71.0512 73.3814 70.3784 73.0475 69.7811Z" fill="#3F3D56"/>
<path opacity="0.1" d="M71.1145 67.1164C72.4634 67.1164 73.5569 65.685 73.5569 63.9192C73.5569 62.1534 72.4634 60.7219 71.1145 60.7219C69.7656 60.7219 68.6721 62.1534 68.6721 63.9192C68.6721 65.685 69.7656 67.1164 71.1145 67.1164Z" fill="#3F3D56"/>
<path opacity="0.1" d="M71.1145 63.2077C72.4634 63.2077 73.5569 61.7763 73.5569 60.0105C73.5569 58.2447 72.4634 56.8132 71.1145 56.8132C69.7656 56.8132 68.6721 58.2447 68.6721 60.0105C68.6721 61.7763 69.7656 63.2077 71.1145 63.2077Z" fill="#3F3D56"/>
<path opacity="0.1" d="M61.9762 33.2645C61.6424 32.8399 61.3384 32.3926 61.0666 31.9258L67.4842 30.8723L60.5439 30.9239C59.878 29.475 59.5146 27.9055 59.4761 26.3113C59.4376 24.7172 59.7247 23.1319 60.3199 21.6526L69.6333 26.4831L61.0435 20.17C61.846 18.7754 62.9275 17.5613 64.2205 16.6035C65.5134 15.6457 66.99 14.9649 68.5579 14.6036C70.1258 14.2422 71.7515 14.2081 73.3332 14.5034C74.9149 14.7987 76.4187 15.417 77.7506 16.3198C79.0826 17.2225 80.2141 18.3902 81.0743 19.75C81.9346 21.1097 82.5052 22.6323 82.7505 24.2225C82.9957 25.8127 82.9104 27.4365 82.4998 28.9922C82.0892 30.548 81.3621 32.0024 80.3641 33.2645C80.8838 33.926 81.3308 34.6415 81.6973 35.3987L73.3668 39.7268L82.2498 36.74C82.8739 38.5838 83.0282 40.5541 82.6989 42.4726C82.3697 44.3911 81.5672 46.1972 80.3641 47.7274C81.7214 49.4532 82.5657 51.5262 82.8005 53.7093C83.0353 55.8923 82.651 58.0974 81.6917 60.0724C80.7323 62.0474 79.2366 63.7126 77.3755 64.8776C75.5144 66.0426 73.3631 66.6604 71.1674 66.6604C68.9718 66.6604 66.8204 66.0426 64.9593 64.8776C63.0983 63.7126 61.6025 62.0474 60.6432 60.0724C59.6839 58.0974 59.2996 55.8923 59.5344 53.7093C59.7691 51.5262 60.6134 49.4532 61.9708 47.7274C60.349 45.6648 59.4674 43.117 59.4674 40.4932C59.4674 37.8694 60.349 35.3217 61.9708 33.259L61.9762 33.2645Z" fill="white"/>
<path opacity="0.1" d="M82.8676 40.4998C82.8716 43.1241 81.9895 45.6729 80.3641 47.7333C81.7214 49.4591 82.5657 51.5321 82.8005 53.7152C83.0353 55.8982 82.651 58.1033 81.6917 60.0783C80.7323 62.0533 79.2366 63.7185 77.3755 64.8835C75.5144 66.0485 73.3631 66.6663 71.1674 66.6663C68.9718 66.6663 66.8204 66.0485 64.9593 64.8835C63.0983 63.7185 61.6025 62.0533 60.6432 60.0783C59.6839 58.1033 59.2996 55.8982 59.5344 53.7152C59.7691 51.5321 60.6134 49.4591 61.9708 47.7333C60.4027 45.743 82.8676 39.1856 82.8676 40.4998Z" fill="black"/>
</g>
<path d="M155 86.5197C155 87.448 148.2 88.2965 136.959 88.9518C134.914 89.0694 132.723 89.1815 130.4 89.2869C128.393 89.377 126.289 89.4621 124.088 89.5423C121.956 89.618 119.742 89.6882 117.447 89.7531C110.198 89.9598 102.184 90.1084 93.67 90.1827C91.6039 90.2017 89.5102 90.2161 87.389 90.226C85.1794 90.2359 82.9445 90.2404 80.6843 90.2395C39.6405 90.2395 6.36987 88.5762 6.36987 86.5238C6.36987 84.4714 39.6405 82.8081 80.6843 82.8081C98.3547 82.8081 114.582 83.1175 127.336 83.631L128.731 83.6877H128.739C144.805 84.3673 155 85.3902 155 86.5197Z" fill="#3F3D56"/>
<path opacity="0.15" d="M155 86.5197C155 87.448 148.2 88.2965 136.959 88.9518C134.914 89.0694 132.723 89.1815 130.4 89.2869C128.393 89.377 126.289 89.4621 124.088 89.5423C121.956 89.618 119.742 89.6882 117.447 89.7531C110.198 89.9598 102.184 90.1084 93.67 90.1827C91.6039 90.2017 89.5102 90.2161 87.389 90.226C85.1794 90.2359 82.9445 90.2404 80.6843 90.2395C39.6405 90.2395 6.36987 88.5762 6.36987 86.5238C6.36987 84.4714 39.6405 82.8081 80.6843 82.8081C98.3547 82.8081 114.582 83.1175 127.336 83.631L128.731 83.6877H128.739C144.805 84.3673 155 85.3902 155 86.5197Z" fill="black"/>
<path d="M149.161 85.7314C149.161 86.46 142.337 87.1277 131.055 87.6355C129.005 87.7281 126.805 87.8157 124.475 87.8982C122.459 87.9693 120.347 88.0362 118.14 88.0988C116 88.158 113.779 88.2134 111.475 88.2651C104.199 88.4275 96.156 88.5443 87.6119 88.6027C85.5402 88.6171 83.4391 88.6281 81.3085 88.6357C79.091 88.6433 76.8485 88.6471 74.5812 88.6471C33.3909 88.6471 0 87.341 0 85.7276C0 84.1143 33.3909 82.8081 74.5812 82.8081C92.3134 82.8081 108.598 83.0506 121.398 83.4542L122.798 83.4986H122.807C138.936 84.0407 149.161 84.8391 149.161 85.7314Z" fill="#3F3D56"/>
<path d="M19.3909 57.3286L17.5171 51.4608L62.3909 50.9587L64.2294 56.7681L19.3909 57.3286Z" fill="#3F3D56"/>
<path opacity="0.15" d="M19.3909 57.3286L17.5171 51.4608L62.3909 50.9587L64.2294 56.7681L19.3909 57.3286Z" fill="black"/>
<path d="M16.2061 57.3286L14.3323 51.4608L59.2061 50.9587L61.0446 56.7681L16.2061 57.3286Z" fill="#3F3D56"/>
<path d="M92.9551 48.7526C88.3326 48.7526 84.6896 46.9161 82.026 43.2429C79.3625 39.5697 78.0308 35.12 78.0308 29.8937C78.0308 24.6321 79.3187 20.1914 81.8946 16.5715C84.4705 12.9517 88.1041 11.1436 92.7953 11.1472C97.7701 11.1472 101.518 13.0543 104.04 16.8685C106.562 20.6827 107.823 25.0972 107.824 30.112C107.824 35.0906 106.519 39.4427 103.909 43.1683C101.298 46.8939 97.6472 48.7554 92.9551 48.7526ZM93.0906 44.6207C96.1317 44.6207 98.4046 43.294 99.9093 40.6406C101.414 37.9872 102.166 34.6422 102.166 30.6056C102.166 26.1125 101.396 22.4334 99.8565 19.5685C98.3165 16.7035 95.9547 15.2706 92.7709 15.2697C86.7195 15.2697 83.6938 20.0811 83.6938 29.7038C83.6938 39.6493 86.8252 44.6216 93.0879 44.6207H93.0906ZM94.6134 84.1897H87.9275L131.698 11.8836H138.258L94.6134 84.1897ZM133.336 84.9315C128.644 84.9315 124.986 83.0782 122.362 79.3715C119.738 75.6649 118.421 71.2147 118.41 66.0209C118.41 60.7946 119.689 56.3715 122.247 52.7517C124.805 49.1319 128.448 47.3238 133.175 47.3274C138.114 47.3274 141.837 49.2345 144.341 53.0487C146.846 56.8629 148.098 61.2769 148.099 66.2908C148.099 71.2369 146.803 75.5808 144.21 79.3227C141.617 83.0646 137.991 84.9342 133.333 84.9315H133.336ZM133.415 80.6937C136.441 80.6937 138.702 79.3896 140.197 76.7814C141.692 74.1732 142.439 70.8418 142.439 66.7871C142.439 62.4477 141.683 58.8084 140.17 55.8693C138.657 52.9303 136.3 51.4585 133.099 51.4539C127.012 51.4539 123.969 56.2653 123.969 65.8881C123.967 75.7594 127.115 80.6946 133.412 80.6937H133.415Z" fill="#3F3D56"/>
<path d="M92.9551 48.7526C88.3326 48.7526 84.6896 46.9161 82.026 43.2429C79.3625 39.5697 78.0308 35.12 78.0308 29.8937C78.0308 24.6321 79.3187 20.1914 81.8946 16.5715C84.4705 12.9517 88.1041 11.1436 92.7953 11.1472C97.7701 11.1472 101.518 13.0543 104.04 16.8685C106.562 20.6827 107.823 25.0972 107.824 30.112C107.824 35.0906 106.519 39.4427 103.909 43.1683C101.298 46.8939 97.6472 48.7554 92.9551 48.7526ZM93.0906 44.6207C96.1317 44.6207 98.4046 43.294 99.9093 40.6406C101.414 37.9872 102.166 34.6422 102.166 30.6056C102.166 26.1125 101.396 22.4334 99.8565 19.5685C98.3165 16.7035 95.9547 15.2706 92.7709 15.2697C86.7195 15.2697 83.6938 20.0811 83.6938 29.7038C83.6938 39.6493 86.8252 44.6216 93.0879 44.6207H93.0906ZM94.6134 84.1897H87.9275L131.698 11.8836H138.258L94.6134 84.1897ZM133.336 84.9315C128.644 84.9315 124.986 83.0782 122.362 79.3715C119.738 75.6649 118.421 71.2147 118.41 66.0209C118.41 60.7946 119.689 56.3715 122.247 52.7517C124.805 49.1319 128.448 47.3238 133.175 47.3274C138.114 47.3274 141.837 49.2345 144.341 53.0487C146.846 56.8629 148.098 61.2769 148.099 66.2908C148.099 71.2369 146.803 75.5808 144.21 79.3227C141.617 83.0646 137.991 84.9342 133.333 84.9315H133.336ZM133.415 80.6937C136.441 80.6937 138.702 79.3896 140.197 76.7814C141.692 74.1732 142.439 70.8418 142.439 66.7871C142.439 62.4477 141.683 58.8084 140.17 55.8693C138.657 52.9303 136.3 51.4585 133.099 51.4539C127.012 51.4539 123.969 56.2653 123.969 65.8881C123.967 75.7594 127.115 80.6946 133.412 80.6937H133.415Z" fill="#3F3D56"/>
<path opacity="0.15" d="M92.9551 48.7526C88.3326 48.7526 84.6896 46.9161 82.026 43.2429C79.3625 39.5697 78.0308 35.12 78.0308 29.8937C78.0308 24.6321 79.3187 20.1914 81.8946 16.5715C84.4705 12.9517 88.1041 11.1436 92.7953 11.1472C97.7701 11.1472 101.518 13.0543 104.04 16.8685C106.562 20.6827 107.823 25.0972 107.824 30.112C107.824 35.0906 106.519 39.4427 103.909 43.1683C101.298 46.8939 97.6472 48.7554 92.9551 48.7526ZM93.0906 44.6207C96.1317 44.6207 98.4046 43.294 99.9093 40.6406C101.414 37.9872 102.166 34.6422 102.166 30.6056C102.166 26.1125 101.396 22.4334 99.8565 19.5685C98.3165 16.7035 95.9547 15.2706 92.7709 15.2697C86.7195 15.2697 83.6938 20.0811 83.6938 29.7038C83.6938 39.6493 86.8252 44.6216 93.0879 44.6207H93.0906ZM94.6134 84.1897H87.9275L131.698 11.8836H138.258L94.6134 84.1897ZM133.336 84.9315C128.644 84.9315 124.986 83.0782 122.362 79.3715C119.738 75.6649 118.421 71.2147 118.41 66.0209C118.41 60.7946 119.689 56.3715 122.247 52.7517C124.805 49.1319 128.448 47.3238 133.175 47.3274C138.114 47.3274 141.837 49.2345 144.341 53.0487C146.846 56.8629 148.098 61.2769 148.099 66.2908C148.099 71.2369 146.803 75.5808 144.21 79.3227C141.617 83.0646 137.991 84.9342 133.333 84.9315H133.336ZM133.415 80.6937C136.441 80.6937 138.702 79.3896 140.197 76.7814C141.692 74.1732 142.439 70.8418 142.439 66.7871C142.439 62.4477 141.683 58.8084 140.17 55.8693C138.657 52.9303 136.3 51.4585 133.099 51.4539C127.012 51.4539 123.969 56.2653 123.969 65.8881C123.967 75.7594 127.115 80.6946 133.412 80.6937H133.415Z" fill="black"/>
<path d="M88.7086 48.7526C84.086 48.7526 80.443 46.9161 77.7795 43.2429C75.1159 39.5697 73.7842 35.12 73.7842 29.8937C73.7842 24.6321 75.0721 20.1914 77.648 16.5715C80.224 12.9517 83.8575 11.1436 88.5487 11.1472C93.5235 11.1472 97.2718 13.0543 99.7935 16.8685C102.315 20.6827 103.577 25.0972 103.577 30.112C103.577 35.0906 102.272 39.4427 99.6621 43.1683C97.0518 46.8939 93.4007 48.7554 88.7086 48.7526ZM88.844 44.6207C91.8851 44.6207 94.158 43.294 95.6627 40.6406C97.1674 37.9872 97.9198 34.6422 97.9198 30.6056C97.9198 26.1125 97.1498 22.4334 95.6099 19.5685C94.0699 16.7035 91.7081 15.2706 88.5243 15.2697C82.4729 15.2697 79.4472 20.0811 79.4472 29.7038C79.4472 39.6493 82.5786 44.6216 88.8413 44.6207H88.844ZM90.3668 84.1897H83.6809L127.452 11.8836H134.011L90.3668 84.1897ZM129.09 84.9315C124.397 84.9315 120.739 83.0782 118.116 79.3715C115.492 75.6649 114.175 71.2147 114.164 66.0209C114.164 60.7946 115.443 56.3715 118.001 52.7517C120.558 49.1319 124.201 47.3238 128.928 47.3274C133.868 47.3274 137.59 49.2345 140.094 53.0487C142.599 56.8629 143.852 61.2769 143.853 66.2908C143.853 71.2369 142.556 75.5808 139.963 79.3227C137.37 83.0646 133.745 84.9342 129.087 84.9315H129.09ZM129.168 80.6937C132.195 80.6937 134.455 79.3896 135.95 76.7814C137.445 74.1732 138.192 70.8418 138.192 66.7871C138.192 62.4477 137.436 58.8084 135.923 55.8693C134.41 52.9303 132.052 51.4585 128.85 51.4539C122.763 51.4539 119.72 56.2653 119.72 65.8881C119.72 75.7594 122.868 80.6946 129.165 80.6937H129.168Z" fill="#3F3D56"/>
<path d="M103.286 85.9931C103.85 84.9564 103.209 83.6864 102.473 82.761C101.736 81.8356 100.837 80.8749 100.857 79.6958C100.884 78.0038 102.697 77.0038 104.144 76.1055C105.219 75.4398 106.211 74.65 107.099 73.7527C107.471 73.407 107.778 72.9992 108.007 72.5478C108.307 71.8856 108.297 71.1326 108.281 70.408C108.218 67.991 108.098 65.5775 107.919 63.1677" stroke="#3F3D56" stroke-width="4" stroke-miterlimit="10"/>
<path d="M110.408 63.0438C110.388 62.5993 110.256 62.1672 110.024 61.7873C109.793 61.4073 109.469 61.0918 109.084 60.8697L108.489 62.0454L108.507 60.6214C108.223 60.5386 107.928 60.5031 107.633 60.5164C107.108 60.541 106.603 60.7205 106.181 61.0323C105.758 61.344 105.438 61.774 105.26 62.2678C105.082 62.7617 105.054 63.2972 105.181 63.8067C105.307 64.3162 105.582 64.7768 105.97 65.1302C106.358 65.4836 106.842 65.714 107.361 65.7922C107.88 65.8705 108.411 65.793 108.886 65.5697C109.361 65.3464 109.759 64.9872 110.03 64.5376C110.301 64.088 110.433 63.5681 110.408 63.0438Z" fill="white"/>
<path d="M105.867 80.8379C105.589 81.3793 105.133 81.8084 104.576 82.0533C104.018 82.2982 103.394 82.344 102.807 82.183C102.22 82.022 101.707 81.664 101.352 81.169C100.998 80.674 100.825 80.0722 100.861 79.4644C100.897 78.8566 101.142 78.2799 101.553 77.8308C101.963 77.3818 102.516 77.0878 103.118 76.9982C103.72 76.9085 104.334 77.0287 104.858 77.3384C105.382 77.6482 105.784 78.1288 105.995 78.6996L104.337 80.0492L106.164 79.6234C106.164 80.0462 106.062 80.4626 105.867 80.8379Z" fill="white"/>
<path d="M104.703 75.3741C104.354 75.3888 104.005 75.3417 103.676 75.2354C103.348 75.1291 103.045 74.9658 102.787 74.7548C102.529 74.5437 102.319 74.2891 102.171 74.0055C102.022 73.7218 101.937 73.4146 101.921 73.1015C101.9 72.7277 101.979 72.3548 102.151 72.0136C102.309 71.6948 102.544 71.4111 102.839 71.1825C103.133 70.9538 103.479 70.7858 103.854 70.6903L103.839 71.6715L104.441 70.602C105.146 70.5724 105.835 70.7952 106.357 71.2214C106.878 71.6476 107.19 72.2423 107.223 72.8746C107.256 73.507 107.008 74.1252 106.533 74.5932C106.058 75.0613 105.395 75.3409 104.69 75.3705L104.703 75.3741Z" fill="white"/>
<path d="M111.089 71.1242C110.741 71.1475 110.391 71.1005 110.061 70.9857C109.73 70.871 109.426 70.6909 109.165 70.4559C108.905 70.221 108.693 69.9359 108.543 69.6174C108.393 69.2989 108.307 68.9534 108.29 68.601C108.274 68.2486 108.328 67.8965 108.448 67.5652C108.568 67.2339 108.752 66.9301 108.99 66.6716C109.228 66.4131 109.514 66.2051 109.832 66.0597C110.151 65.9143 110.494 65.8345 110.844 65.8249C111.334 65.8008 111.822 65.9174 112.25 66.1615L111.786 67.4451L112.741 66.5198C113.254 66.9918 113.56 67.65 113.593 68.3498C113.605 68.5953 113.582 68.8412 113.525 69.0802C113.395 69.6421 113.086 70.1456 112.647 70.5144C112.207 70.8833 111.66 71.0973 111.089 71.1242Z" fill="white"/>
<path opacity="0.1" d="M110.106 63.5413C109.487 63.6149 108.885 63.8254 108.263 63.8674C107.641 63.9095 106.958 63.7472 106.565 63.2196C106.353 62.937 106.248 62.5778 106.068 62.2681C105.899 61.9799 105.667 61.7418 105.392 61.5752C105.22 61.946 105.122 62.3525 105.105 62.7677C105.089 63.1829 105.153 63.5972 105.295 63.9831C105.436 64.3689 105.652 64.7175 105.927 65.0055C106.202 65.2935 106.53 65.5144 106.89 65.6533C107.249 65.7923 107.631 65.8463 108.012 65.8115C108.392 65.7768 108.761 65.6542 109.094 65.452C109.427 65.2497 109.717 64.9724 109.944 64.6386C110.171 64.3047 110.33 63.9219 110.411 63.5157C110.309 63.5217 110.208 63.5292 110.106 63.5413Z" fill="black"/>
<path opacity="0.1" d="M111.1 71.1274C110.637 71.1478 110.176 71.052 109.763 70.8492C109.349 70.6464 108.997 70.3436 108.74 69.97C108.482 69.5964 108.329 69.1648 108.295 68.717C108.261 68.2693 108.346 67.8205 108.544 67.4143C108.757 67.5541 108.94 67.7321 109.084 67.9386C109.276 68.2182 109.392 68.5419 109.617 68.7987C110.031 69.2762 110.751 69.4313 111.399 69.4032C112.046 69.3752 112.673 69.1959 113.32 69.1357C113.409 69.1277 113.501 69.1224 113.596 69.1197C113.462 69.6719 113.146 70.1667 112.696 70.5291C112.245 70.8915 111.685 71.1015 111.1 71.1274Z" fill="black"/>
<path opacity="0.1" d="M104.475 75.3737C104.154 75.39 103.834 75.3379 103.532 75.2205C103.231 75.1031 102.953 74.9226 102.716 74.6894C102.479 74.4563 102.287 74.175 102.15 73.8616C102.014 73.5481 101.936 73.2088 101.921 72.8628C101.902 72.4498 101.974 72.0378 102.132 71.6609C102.333 71.8057 102.508 71.9895 102.647 72.2029C102.837 72.4915 102.956 72.8249 103.178 73.0918C103.59 73.5864 104.283 73.7612 104.907 73.745C105.53 73.7287 106.094 73.5715 106.695 73.5214C106.546 74.039 106.253 74.4945 105.856 74.8259C105.459 75.1573 104.976 75.3486 104.475 75.3737Z" fill="black"/>
<path opacity="0.1" d="M105.634 80.7869C105.34 81.4106 104.835 81.8884 104.224 82.1215C103.613 82.3546 102.942 82.3252 102.35 82.0393C101.759 81.7535 101.292 81.233 101.045 80.5857C100.799 79.9384 100.793 79.2137 101.028 78.5615C101.236 78.7093 101.423 78.8892 101.582 79.0955C101.822 79.4122 101.981 79.7709 102.259 80.0652C102.778 80.6117 103.609 80.8374 104.351 80.8584C104.78 80.8622 105.208 80.8383 105.634 80.7869Z" fill="black"/>
<path d="M144.159 85.4623C144.724 84.4257 144.083 83.1556 143.346 82.2302C142.609 81.3048 141.711 80.3442 141.73 79.165C141.757 77.473 143.571 76.473 145.017 75.5748C146.092 74.909 147.085 74.1193 147.972 73.2219C148.344 72.8763 148.652 72.4684 148.88 72.017C149.18 71.3549 149.171 70.6018 149.154 69.8772C149.091 67.4602 148.971 65.0468 148.793 62.637" stroke="#3F3D56" stroke-width="4" stroke-miterlimit="10"/>
<path d="M151.281 62.513C151.261 62.0686 151.129 61.6365 150.897 61.2565C150.666 60.8766 150.343 60.561 149.957 60.3389L149.362 61.5146L149.38 60.0907C149.096 60.0078 148.801 59.9723 148.506 59.9856C147.982 60.0102 147.476 60.1897 147.054 60.5015C146.632 60.8132 146.311 61.2432 146.133 61.7371C145.955 62.2309 145.928 62.7664 146.054 63.2759C146.181 63.7854 146.455 64.246 146.843 64.5994C147.231 64.9529 147.716 65.1833 148.235 65.2615C148.754 65.3397 149.284 65.2623 149.759 65.0389C150.234 64.8156 150.633 64.4564 150.903 64.0068C151.174 63.5572 151.306 63.0374 151.281 62.513Z" fill="white"/>
<path d="M146.74 80.8379C146.462 81.3793 146.006 81.8084 145.449 82.0533C144.892 82.2982 144.267 82.344 143.681 82.183C143.094 82.022 142.58 81.664 142.226 81.169C141.871 80.674 141.698 80.0722 141.734 79.4644C141.771 78.8566 142.015 78.2799 142.426 77.8308C142.837 77.3818 143.39 77.0878 143.991 76.9982C144.593 76.9085 145.208 77.0287 145.731 77.3384C146.255 77.6482 146.657 78.1288 146.869 78.6996L145.21 80.0492L147.038 79.6234C147.037 80.0462 146.935 80.4626 146.74 80.8379Z" fill="white"/>
<path d="M145.572 75.3737C145.224 75.39 144.875 75.3376 144.547 75.2195C144.219 75.1014 143.917 74.92 143.659 74.6855C143.401 74.451 143.192 74.1681 143.044 73.8529C142.895 73.5377 142.811 73.1964 142.794 72.8485C142.774 72.4331 142.852 72.0188 143.024 71.6398C143.182 71.2855 143.417 70.9703 143.711 70.7162C144.005 70.4622 144.351 70.2755 144.725 70.1694L144.71 71.2596L145.312 70.0713H145.318C145.667 70.055 146.015 70.1074 146.343 70.2255C146.672 70.3435 146.973 70.525 147.231 70.7595C147.489 70.994 147.698 71.2769 147.847 71.5921C147.995 71.9072 148.08 72.2485 148.096 72.5964C148.113 72.9443 148.06 73.292 147.942 73.6196C147.824 73.9473 147.642 74.2485 147.407 74.506C147.172 74.7635 146.889 74.9723 146.573 75.1205C146.257 75.2686 145.915 75.3533 145.567 75.3696L145.572 75.3737Z" fill="white"/>
<path d="M151.963 71.1242C151.614 71.1475 151.264 71.1005 150.934 70.9857C150.603 70.871 150.299 70.6909 150.038 70.4559C149.778 70.221 149.566 69.9359 149.416 69.6174C149.266 69.2989 149.18 68.9534 149.164 68.601C149.147 68.2486 149.201 67.8965 149.321 67.5652C149.441 67.2339 149.625 66.9301 149.863 66.6716C150.101 66.4131 150.387 66.2051 150.706 66.0597C151.024 65.9143 151.368 65.8345 151.717 65.8249C152.208 65.8008 152.695 65.9174 153.123 66.1615L152.659 67.4451L153.614 66.5198C154.127 66.9918 154.434 67.65 154.466 68.3498C154.478 68.5953 154.455 68.8412 154.399 69.0802C154.268 69.6421 153.959 70.1456 153.52 70.5144C153.08 70.8833 152.534 71.0973 151.963 71.1242Z" fill="white"/>
<path opacity="0.1" d="M150.979 63.2955C150.36 63.36 149.759 63.5441 149.136 63.5809C148.514 63.6177 147.831 63.4757 147.438 63.0141C147.226 62.7668 147.121 62.4524 146.942 62.1815C146.772 61.9293 146.54 61.721 146.266 61.5752C146.093 61.8996 145.996 62.2553 145.979 62.6186C145.962 62.9819 146.026 63.3444 146.168 63.6821C146.31 64.0197 146.525 64.3247 146.8 64.5767C147.075 64.8287 147.403 65.022 147.763 65.1436C148.122 65.2652 148.505 65.3124 148.885 65.282C149.265 65.2516 149.634 65.1444 149.967 64.9674C150.3 64.7904 150.59 64.5478 150.817 64.2556C151.044 63.9635 151.204 63.6286 151.284 63.2732C151.182 63.2784 151.082 63.285 150.979 63.2955Z" fill="black"/>
<path opacity="0.1" d="M151.974 71.1274C151.51 71.1478 151.05 71.052 150.636 70.8492C150.223 70.6464 149.87 70.3436 149.613 69.97C149.356 69.5964 149.203 69.1648 149.168 68.717C149.134 68.2693 149.22 67.8205 149.417 67.4143C149.63 67.5541 149.814 67.7321 149.957 67.9386C150.149 68.2182 150.265 68.5419 150.49 68.7987C150.905 69.2762 151.624 69.4313 152.272 69.4032C152.92 69.3752 153.547 69.1959 154.193 69.1357C154.283 69.1277 154.374 69.1224 154.469 69.1197C154.336 69.6719 154.02 70.1667 153.569 70.5291C153.119 70.8915 152.559 71.1015 151.974 71.1274Z" fill="black"/>
<path opacity="0.1" d="M145.348 75.3737C145.028 75.39 144.707 75.3379 144.406 75.2205C144.104 75.1031 143.827 74.9226 143.589 74.6894C143.352 74.4563 143.16 74.175 143.023 73.8616C142.887 73.5481 142.809 73.2088 142.794 72.8628C142.775 72.4498 142.847 72.0378 143.005 71.6609C143.206 71.8057 143.381 71.9895 143.521 72.2029C143.71 72.4915 143.829 72.8249 144.052 73.0918C144.463 73.5864 145.156 73.7612 145.78 73.745C146.385 73.7314 146.967 73.5715 147.568 73.5214C147.419 74.039 147.126 74.4945 146.729 74.8259C146.332 75.1573 145.85 75.3486 145.348 75.3737Z" fill="black"/>
<path opacity="0.1" d="M146.507 80.7869C146.213 81.4106 145.708 81.8884 145.097 82.1215C144.486 82.3546 143.815 82.3252 143.224 82.0393C142.632 81.7535 142.165 81.233 141.919 80.5857C141.673 79.9384 141.666 79.2137 141.901 78.5615C142.109 78.7093 142.296 78.8892 142.456 79.0955C142.696 79.4122 142.854 79.7709 143.132 80.0652C143.651 80.6117 144.482 80.8374 145.224 80.8584C145.653 80.8622 146.081 80.8383 146.507 80.7869Z" fill="black"/>
<path d="M15.0872 83.8698C14.523 82.8331 15.1639 81.5631 15.9008 80.6377C16.6376 79.7123 17.5361 78.7516 17.5169 77.5725C17.4895 75.8805 15.6762 74.8805 14.2299 73.9822C13.1542 73.3165 12.1621 72.5267 11.2743 71.6294C10.9025 71.2838 10.5951 70.8759 10.3663 70.4245C10.0663 69.7624 10.0759 69.0093 10.0923 68.2847C10.1553 65.8677 10.2759 63.4542 10.4539 61.0444" stroke="#3F3D56" stroke-width="4" stroke-miterlimit="10"/>
<path d="M7.43429 60.9205C7.45481 60.476 7.58687 60.0439 7.81832 59.664C8.04976 59.284 8.37313 58.9685 8.75862 58.7464L9.35327 59.9221L9.33554 58.4981C9.61919 58.4153 9.91458 58.3798 10.2098 58.3931C10.7341 58.4177 11.2394 58.5972 11.6617 58.909C12.0841 59.2207 12.4045 59.6507 12.5824 60.1445C12.7604 60.6384 12.7879 61.1739 12.6615 61.6834C12.5352 62.1929 12.2606 62.6535 11.8724 63.0069C11.4843 63.3603 11.0001 63.5907 10.4811 63.669C9.962 63.7472 9.4314 63.6697 8.95635 63.4464C8.48131 63.2231 8.08315 62.8639 7.81223 62.4143C7.5413 61.9647 7.40978 61.4448 7.43429 60.9205Z" fill="white"/>
<path d="M12.5063 78.7146C12.7847 79.256 13.2408 79.6851 13.7979 79.93C14.355 80.1749 14.9793 80.2207 15.5661 80.0597C16.153 79.8987 16.6666 79.5407 17.021 79.0457C17.3754 78.5507 17.5489 77.9489 17.5124 77.3411C17.476 76.7334 17.2318 76.1566 16.8209 75.7076C16.4099 75.2585 15.8572 74.9645 15.2553 74.8749C14.6534 74.7852 14.0391 74.9054 13.5152 75.2151C12.9913 75.5249 12.5899 76.0055 12.3781 76.5763L14.0364 77.9259L12.209 77.5001C12.2097 77.9229 12.3117 78.3394 12.5063 78.7146Z" fill="white"/>
<path d="M13.6706 73.7814C14.0196 73.7977 14.3683 73.7453 14.697 73.6272C15.0256 73.5092 15.3277 73.3277 15.586 73.0932C15.8443 72.8587 16.0538 72.5758 16.2024 72.2606C16.351 71.9454 16.4359 71.6041 16.4522 71.2562C16.4729 70.8409 16.3942 70.4265 16.2226 70.0475C16.0637 69.6932 15.8288 69.378 15.5346 69.124C15.2403 68.8699 14.8938 68.6833 14.5195 68.5771L14.5345 69.6673L13.9317 68.479C13.227 68.4461 12.538 68.6937 12.0164 69.1672C11.4947 69.6408 11.1831 70.3015 11.1501 71.0041C11.1171 71.7067 11.3655 72.3936 11.8404 72.9137C12.3154 73.4338 12.9782 73.7444 13.6829 73.7773L13.6706 73.7814Z" fill="white"/>
<path d="M7.28387 69.5319C7.63248 69.5553 7.98221 69.5082 8.3126 69.3934C8.64298 69.2787 8.94739 69.0986 9.208 68.8636C9.46862 68.6287 9.68021 68.3436 9.8304 68.025C9.98059 67.7065 10.0664 67.3609 10.0827 67.0085C10.099 66.6561 10.0456 66.304 9.92552 65.9727C9.80545 65.6414 9.62115 65.3376 9.3834 65.0791C9.14566 64.8206 8.85925 64.6125 8.54092 64.4671C8.22259 64.3217 7.87874 64.2419 7.52949 64.2323C7.04093 64.2095 6.55589 64.3261 6.13 64.5689L6.59424 65.8526L5.63201 64.9314C5.12016 65.4024 4.81396 66.059 4.78044 66.7574C4.76848 67.0029 4.79121 67.2488 4.84792 67.4878C4.97852 68.0497 5.28701 68.5532 5.7266 68.9221C6.16619 69.291 6.71292 69.5051 7.28387 69.5319Z" fill="white"/>
<path opacity="0.1" d="M7.73627 61.7032C8.35566 61.7677 8.95712 61.9518 9.57928 61.9886C10.2014 62.0255 10.8843 61.8834 11.2774 61.4218C11.4899 61.1745 11.5947 60.8602 11.7741 60.5892C11.9434 60.337 12.1757 60.1287 12.45 59.9829C12.6223 60.3073 12.7202 60.663 12.737 61.0263C12.7538 61.3896 12.6893 61.7522 12.5476 62.0898C12.4059 62.4274 12.1905 62.7324 11.9155 62.9844C11.6405 63.2364 11.3123 63.4297 10.9529 63.5513C10.5934 63.6729 10.2109 63.7201 9.83084 63.6897C9.45075 63.6593 9.08182 63.5521 8.74862 63.3751C8.41542 63.1981 8.1256 62.9555 7.89847 62.6633C7.67134 62.3712 7.51211 62.0363 7.4314 61.6809C7.53348 61.6861 7.63418 61.6927 7.73627 61.7032Z" fill="black"/>
<path opacity="0.1" d="M7.27286 69.5348C7.73597 69.5553 8.19668 69.4595 8.6103 69.2567C9.02393 69.0539 9.37642 68.751 9.63361 68.3775C9.8908 68.0039 10.044 67.5723 10.0782 67.1245C10.1125 66.6767 10.0267 66.228 9.82913 65.8218C9.61621 65.9615 9.43292 66.1395 9.28915 66.3461C9.09719 66.6256 8.98118 66.9493 8.75608 67.2061C8.34177 67.6836 7.62225 67.8388 6.97455 67.8107C6.32685 67.7826 5.69987 67.6034 5.05355 67.5432C4.96378 67.5352 4.87263 67.5298 4.77734 67.5272C4.91087 68.0793 5.22684 68.5742 5.67726 68.9366C6.12768 69.2989 6.68792 69.509 7.27286 69.5348Z" fill="black"/>
<path opacity="0.1" d="M13.6142 73.7812C13.9702 73.7974 14.326 73.7454 14.6613 73.6279C14.9967 73.5105 15.3049 73.3301 15.5684 73.0969C15.8319 72.8638 16.0456 72.5824 16.1972 72.269C16.3489 71.9556 16.4355 71.6162 16.4521 71.2703C16.4732 70.8573 16.3929 70.4453 16.2178 70.0684C15.9941 70.2132 15.7998 70.397 15.6447 70.6104C15.4341 70.899 15.3016 71.2324 15.0548 71.4993C14.5974 71.9939 13.8276 72.1687 13.1345 72.1524C12.4623 72.1389 11.8152 71.979 11.1472 71.9289C11.3128 72.4465 11.6384 72.9019 12.0798 73.2334C12.5212 73.5648 13.057 73.7561 13.6142 73.7812Z" fill="black"/>
<path opacity="0.1" d="M12.209 78.6636C12.5356 79.2873 13.0964 79.7651 13.7754 79.9982C14.4545 80.2313 15.1998 80.2019 15.8571 79.916C16.5144 79.6302 17.0335 79.1097 17.307 78.4624C17.5805 77.8151 17.5874 77.0904 17.3263 76.4382C17.0952 76.586 16.8877 76.7659 16.7104 76.9722C16.4436 77.2889 16.2676 77.6476 15.959 77.9419C15.382 78.4885 14.459 78.7141 13.634 78.7351C13.1579 78.7389 12.6821 78.715 12.209 78.6636Z" fill="black"/>
<path d="M91.3013 71.3561C91.3038 71.0253 91.2296 70.6984 91.0845 70.4016C90.9394 70.1049 90.7275 69.8466 90.4658 69.6474C90.4334 68.3959 89.5493 67.3737 88.4123 67.2154C88.3245 66.7902 88.1273 66.3958 87.8407 66.0719C87.554 65.748 87.1879 65.506 86.7793 65.3702C86.6798 65.3384 86.5781 65.3142 86.4751 65.2978H86.4453L86.3926 65.291H86.348H86.3034H86.2453H86.2101H86.1141C84.9542 65.291 83.989 66.1863 83.7903 67.3669C83.04 67.1922 82.3519 67.4187 82.2288 67.8978C82.1971 68.0247 82.2041 68.1584 82.2491 68.2813C82.3762 68.6525 82.7899 69.0073 83.3509 69.1834L83.4239 69.2052C83.4604 69.2161 83.4969 69.2243 83.5334 69.2325H83.5577C83.3515 69.6765 83.3222 70.1835 83.476 70.6487C83.6297 71.1138 83.9547 71.5015 84.3837 71.7315C84.3668 71.7408 84.3506 71.7513 84.3351 71.7628C84.2658 71.827 84.2105 71.9051 84.1728 71.9921C84.0373 72.2323 83.9319 72.4886 83.8592 72.755C83.8051 72.983 83.7957 73.2218 83.724 73.447C83.601 73.8564 83.2847 74.2154 83.2482 74.6507C83.2319 74.8445 83.263 75.0725 83.1265 75.2048C83.0925 75.2344 83.0563 75.2613 83.0183 75.2854C82.9226 75.3515 82.8416 75.437 82.7804 75.5365C82.7406 75.6188 82.6871 75.6935 82.6222 75.7576C82.4992 75.8517 82.2964 75.8422 82.2356 75.9869C82.1748 76.1315 82.3316 76.3021 82.2951 76.4604C82.2653 76.5887 82.1261 76.6474 82.0247 76.7334C81.9113 76.8576 81.8321 77.0096 81.7949 77.1742C81.5929 77.2136 81.3849 77.2074 81.1855 77.1562C80.9862 77.105 80.8005 77.01 80.6417 76.8781C80.6962 77.0187 80.7361 77.1646 80.7607 77.3134C80.5998 77.1401 80.3349 77.0896 80.1388 76.9995C79.886 76.8826 79.6603 76.7133 79.4764 76.5028L79.8306 76.4536L78.2624 74.0516L77.8001 73.9561L78.2151 74.7599C78.1812 74.7764 78.1513 74.8004 78.1279 74.8302C78.1045 74.86 78.0881 74.8948 78.0799 74.9319C78.0576 75.021 78.0521 75.1136 78.0637 75.2048C78.0857 75.4203 78.1213 75.6341 78.1705 75.8449L78.2908 76.41C78.301 76.463 78.3141 76.5153 78.33 76.5669C78.1732 76.5612 78.0165 76.5791 77.865 76.6201C77.5541 76.5041 77.2305 76.4266 76.9011 76.3895C76.8286 76.3766 76.7543 76.3804 76.6834 76.4004C76.6031 76.4378 76.5333 76.4951 76.4807 76.5669C76.2102 76.8825 75.9703 77.2234 75.7642 77.585C74.9219 79.0645 73.7972 80.3555 72.7441 81.693C72.0168 81.9919 71.284 82.2758 70.55 82.557L68.9723 83.1643C68.6573 83.2858 68.3302 83.4099 67.9949 83.3881C67.8435 83.3786 67.6597 83.3554 67.5745 83.485C67.533 83.5493 67.5007 83.6191 67.4785 83.6925C67.4231 83.6925 67.3677 83.7061 67.3163 83.7088H67.3068C67.2068 83.4577 67.1203 83.1888 66.9283 83.006C66.8897 83.012 66.8531 83.0276 66.822 83.0514C66.7908 83.0752 66.766 83.1065 66.7498 83.1424C66.712 83.2134 66.689 83.2912 66.6457 83.3567C66.5606 83.4823 66.4132 83.5437 66.3078 83.6502C66.2023 83.7566 66.1361 83.9231 66.0225 84.0268C65.8635 84.1435 65.6772 84.2164 65.4818 84.2384C65.1891 84.3079 64.9068 84.4162 64.6423 84.5605C64.5447 84.621 64.4403 84.6696 64.3313 84.7051C64.2115 84.7283 64.0888 84.7325 63.9677 84.7174L63.1322 84.656C63.0579 84.6462 62.9824 84.6494 62.9092 84.6656C62.8231 84.6974 62.7499 84.7571 62.701 84.8354C62.6521 84.9136 62.6302 85.0061 62.6388 85.0982C62.649 85.1896 62.6776 85.278 62.723 85.3578C62.7683 85.4376 62.8294 85.5072 62.9024 85.5622C63.0474 85.6696 63.2079 85.7538 63.3783 85.812C64.1042 86.0958 64.8527 86.3173 65.6156 86.4739V86.6445C66.1444 86.9134 66.7282 87.0536 67.3203 87.0539C67.364 87.0574 67.4077 87.0494 67.4474 87.0307C67.5021 86.9892 67.5401 86.9291 67.5542 86.8615C67.7315 86.3263 67.8436 85.7713 67.8881 85.2087C67.9925 85.2019 68.0948 85.1756 68.1896 85.1309C68.4775 85.0518 68.7628 85.251 69.0588 85.2838C69.4239 85.3234 69.7632 85.1091 70.1079 84.9767C70.1579 84.9576 70.2079 84.9412 70.258 84.9249C70.1596 85.0533 70.0435 85.1668 69.9132 85.262C69.7699 85.3657 69.6091 85.4421 69.4685 85.5499C69.3516 85.6577 69.2264 85.7558 69.094 85.8434C69.0007 85.8873 68.9044 85.9246 68.806 85.9553C68.6634 86.0078 68.5273 86.077 68.4005 86.1614C68.2869 86.2289 68.1906 86.3224 68.1193 86.4343C68.0834 86.4866 68.0613 86.5472 68.0552 86.6105C68.049 86.6738 68.059 86.7376 68.0842 86.7959C68.1094 86.8542 68.149 86.905 68.1991 86.9435C68.2493 86.9819 68.3084 87.0068 68.3707 87.0157C68.4837 87.036 68.5989 87.0392 68.7128 87.0253C69.1643 86.9912 69.6145 86.9488 70.0646 86.9079C70.2552 86.8951 70.4446 86.8677 70.6311 86.826C70.7298 86.8014 70.8271 86.7687 70.9258 86.7428C71.0942 86.6979 71.2669 86.6718 71.4409 86.665C71.4914 86.6609 71.5422 86.666 71.5909 86.68C71.6964 86.7141 71.7707 86.8165 71.8775 86.8438C71.9468 86.8506 72.0168 86.8408 72.0816 86.8151C72.4112 86.7429 72.7475 86.7067 73.0847 86.7073C73.2321 86.6991 73.4051 86.6704 73.4741 86.5326C73.5579 86.362 73.4173 86.1709 73.3619 85.9867C73.3336 85.8695 73.3182 85.7496 73.3159 85.6291C73.2902 85.3317 73.2056 85.0426 73.0672 84.7788C72.9936 84.6557 72.9316 84.526 72.882 84.3912C73.528 84.1432 74.1461 83.8266 74.7259 83.4468C75.0585 83.238 75.4019 83.0128 75.7777 82.9364C76.2157 82.8477 76.6672 82.965 77.0985 83.0906C78.1257 83.3906 79.1361 83.7464 80.1253 84.1565C80.5985 84.3516 81.0716 84.5591 81.5556 84.7024C81.6971 84.8951 81.8682 85.0638 82.0626 85.2019C82.387 85.4135 82.7831 85.4749 83.1643 85.5049C83.6793 85.5524 84.1965 85.572 84.7136 85.5636C85.1083 85.5568 85.5152 85.5295 85.8681 85.3479C85.9543 85.3033 86.0354 85.2493 86.1101 85.1869C86.3804 85.236 86.6576 85.09 86.8698 84.903C87.1507 84.6618 87.3533 84.3408 87.4511 83.9818C87.5755 83.4891 87.4795 82.9145 87.7796 82.5119C87.8594 82.4041 87.9635 82.3168 88.0419 82.2076C88.1385 82.0614 88.1859 81.8877 88.1771 81.7122L88.1906 81.6917C88.2585 81.5333 88.304 81.3661 88.3258 81.1949C88.3614 81.0612 88.4065 80.9303 88.461 80.8032C88.6134 80.4224 88.7461 80.0338 88.8584 79.639C88.9366 79.3771 88.998 79.1105 89.0423 78.8406C89.0747 78.625 89.0937 78.408 89.1112 78.191C89.1329 77.8513 89.1984 77.5159 89.3059 77.1933C89.5727 76.4234 89.7236 75.6174 89.7534 74.8022C89.7534 74.7858 89.7534 74.7708 89.7534 74.7545C90.1459 74.711 90.5082 74.5213 90.7694 74.2225C91.0307 73.9236 91.1722 73.5371 91.1661 73.1385C91.1665 72.8983 91.1167 72.6607 91.0201 72.4411C91.2066 72.1107 91.3036 71.7365 91.3013 71.3561ZM83.6564 80.7336C83.6794 80.8169 83.7064 80.9001 83.7335 80.9833C83.6091 80.8592 83.4861 80.7309 83.3604 80.608C83.4104 80.623 83.4604 80.6394 83.5091 80.6572C83.5609 80.6779 83.6107 80.7035 83.6578 80.7336H83.6564ZM83.0508 80.3242C82.3126 79.6773 81.4583 79.175 80.7026 78.5499C81.1081 78.756 81.5137 78.9949 81.9193 79.2241C82.3915 79.4971 82.8692 79.7582 83.3522 80.0075C83.273 80.1289 83.1722 80.2344 83.0548 80.3187L83.0508 80.3242ZM83.3658 78.6946L83.4009 78.6578C83.4009 78.7492 83.4009 78.8352 83.4009 78.913C83.3347 78.8911 83.2657 78.8693 83.2022 78.8447C83.2606 78.7967 83.3157 78.7447 83.3671 78.6891L83.3658 78.6946ZM76.8673 80.447C77.1712 80.0999 77.4356 79.7195 77.6554 79.3128C77.9474 79.8301 78.4233 80.2027 78.8289 80.6353C78.1773 80.5425 77.5243 80.4702 76.8686 80.4415L76.8673 80.447Z" fill="url(#paint0_linear)"/>
<path d="M78.0308 73.7842L78.5127 73.8832L80.154 76.3393L79.4291 76.4383L78.0308 73.7842Z" fill="#2F2E41"/>
<path d="M66.8835 83.3829C66.983 83.9123 67.1056 84.4297 67.2504 84.9313C67.6668 84.7912 68.0764 84.6032 68.476 84.3688C68.3987 84.1749 68.3136 83.9893 68.2215 83.813C68.1232 83.6374 68.0058 83.4922 67.875 83.3847C67.7477 83.2952 67.5905 83.3623 67.4547 83.3743C67.2643 83.3858 67.0739 83.3887 66.8835 83.3829Z" fill="#FBBEBE"/>
<path d="M67.8632 84.232C67.6018 84.1433 67.4415 83.8586 67.3351 83.584C67.2286 83.3094 67.1424 83.0101 66.9403 82.8081C66.9019 82.8146 66.8655 82.8313 66.8345 82.8566C66.8035 82.882 66.7787 82.9152 66.7625 82.9534C66.7235 83.026 66.7006 83.1089 66.6561 83.1786C66.5726 83.3094 66.4244 83.3733 66.318 83.4852C66.2115 83.597 66.1455 83.767 66.031 83.8789C65.8721 84.0021 65.6866 84.0791 65.4921 84.1027C65.1985 84.1744 64.9149 84.2878 64.6488 84.4397C64.5503 84.5013 64.4454 84.5501 64.3363 84.585C64.2159 84.6097 64.0928 84.6141 63.9712 84.5981L63.1319 84.5327C63.0573 84.5227 62.9816 84.5267 62.9082 84.5444C62.8228 84.5765 62.7497 84.6386 62.7009 84.7208C62.652 84.803 62.6302 84.9005 62.6388 84.9977C62.6499 85.0945 62.6797 85.1878 62.726 85.2716C62.7724 85.3554 62.8345 85.4279 62.9082 85.4844C63.0542 85.5969 63.2149 85.685 63.3852 85.7459C64.1164 86.0425 64.8688 86.2742 65.6349 86.439V86.6177C66.1674 86.9019 66.7531 87.051 67.3472 87.0536C67.3933 87.0579 67.4397 87.0494 67.4819 87.0289C67.5365 86.9857 67.5748 86.9228 67.5897 86.8516C67.7911 86.2168 67.9085 85.5545 67.9386 84.8843C67.9541 84.7149 67.9422 84.5438 67.9036 84.3787C67.8578 84.216 68.0141 84.2843 67.8686 84.2204" fill="#2F2E41"/>
<path d="M84.2235 80.8255C81.6907 80.978 79.1894 80.24 76.6525 80.161C76.3376 80.142 76.0216 80.1621 75.7118 80.2209C75.3888 80.3069 75.0761 80.4274 74.7793 80.5804C73.4203 81.2081 72.0133 81.7282 70.6077 82.2483L68.9951 82.8447C68.6715 82.9632 68.3382 83.0844 67.994 83.0639C67.8404 83.0544 67.6526 83.0313 67.5648 83.1592C67.3029 83.5446 67.4277 84.1124 67.6005 84.5454C67.6567 84.6815 67.7513 84.8381 67.9022 84.8544C68.0089 84.8472 68.1134 84.8209 68.2107 84.7768C68.5042 84.6992 68.7976 84.8953 69.0993 84.9266C69.4737 84.9661 69.8206 84.755 70.173 84.6257C70.7572 84.4119 71.3963 84.4187 72.0106 84.3166C73.0418 84.1464 73.9963 83.6712 74.8904 83.1293C75.2304 82.9237 75.576 82.7031 75.9655 82.6282C76.4139 82.5411 76.876 82.6554 77.3162 82.7794C78.3657 83.0743 79.3988 83.4238 80.4113 83.8264C80.9383 84.0538 81.4786 84.2493 82.0294 84.4119C83.2298 84.7257 84.4996 84.6523 85.6552 84.2022C86.0666 84.0429 86.4999 83.7624 86.5232 83.3281C86.5369 83.0803 86.3436 82.8624 86.2147 82.6473C86.131 82.5111 86.0487 82.375 85.9582 82.2456C85.5221 81.6138 84.9928 80.7792 84.2235 80.8255Z" fill="#2F2E41"/>
<path opacity="0.1" d="M84.2235 80.8255C81.6907 80.978 79.1894 80.24 76.6525 80.161C76.3376 80.142 76.0216 80.1621 75.7118 80.2209C75.3888 80.3069 75.0761 80.4274 74.7793 80.5804C73.4203 81.2081 72.0133 81.7282 70.6077 82.2483L68.9951 82.8447C68.6715 82.9632 68.3382 83.0844 67.994 83.0639C67.8404 83.0544 67.6526 83.0313 67.5648 83.1592C67.3029 83.5446 67.4277 84.1124 67.6005 84.5454C67.6567 84.6815 67.7513 84.8381 67.9022 84.8544C68.0089 84.8472 68.1134 84.8209 68.2107 84.7768C68.5042 84.6992 68.7976 84.8953 69.0993 84.9266C69.4737 84.9661 69.8206 84.755 70.173 84.6257C70.7572 84.4119 71.3963 84.4187 72.0106 84.3166C73.0418 84.1464 73.9963 83.6712 74.8904 83.1293C75.2304 82.9237 75.576 82.7031 75.9655 82.6282C76.4139 82.5411 76.876 82.6554 77.3162 82.7794C78.3657 83.0743 79.3988 83.4238 80.4113 83.8264C80.9383 84.0538 81.4786 84.2493 82.0294 84.4119C83.2298 84.7257 84.4996 84.6523 85.6552 84.2022C86.0666 84.0429 86.4999 83.7624 86.5232 83.3281C86.5369 83.0803 86.3436 82.8624 86.2147 82.6473C86.131 82.5111 86.0487 82.375 85.9582 82.2456C85.5221 81.6138 84.9928 80.7792 84.2235 80.8255Z" fill="black"/>
<path d="M71.6609 83.592C71.9854 83.692 72.3121 83.7846 72.6411 83.8697C72.8261 83.593 73.1715 83.401 73.25 83.0854C73.2545 83.0717 73.2545 83.0572 73.25 83.0435C73.2414 83.0301 73.2285 83.0194 73.213 83.0129C72.9766 82.8941 72.7143 82.8244 72.4448 82.8086C72.2317 82.7964 72.1353 82.9986 72.0388 83.1406C72.0052 83.1977 71.7472 83.6185 71.6609 83.592Z" fill="#FBBEBE"/>
<path d="M72.0584 83.4444C71.934 83.4237 71.8152 83.3772 71.7098 83.3079C71.6043 83.2386 71.5145 83.148 71.446 83.042C71.3869 82.9396 71.3249 82.8012 71.2068 82.8084C71.0886 82.8156 71.0483 82.9454 71.0238 83.0536C70.944 83.4576 70.8287 83.8538 70.6794 84.2376C70.5288 84.6225 70.2737 84.9577 69.943 85.2054C69.7889 85.3121 69.6174 85.3929 69.4661 85.5054C69.34 85.6179 69.2051 85.7202 69.0626 85.8111C68.9623 85.857 68.8587 85.8956 68.7528 85.9265C68.5975 85.9808 68.4491 86.0529 68.3104 86.1414C68.1889 86.2126 68.0857 86.3114 68.0093 86.4298C67.9724 86.4899 67.9507 86.5581 67.9462 86.6285C67.9417 86.6989 67.9544 86.7693 67.9833 86.8336C68.0144 86.8859 68.0561 86.931 68.1058 86.9661C68.1554 87.0011 68.2119 87.0253 68.2715 87.037C68.393 87.0572 68.5167 87.0601 68.639 87.0457C69.1246 87.0096 69.6087 86.9663 70.0929 86.9231C70.2979 86.9104 70.5016 86.8824 70.7024 86.8394C70.8091 86.8135 70.9128 86.7788 71.018 86.7514C71.1996 86.7051 71.3855 86.678 71.5728 86.6707C71.6271 86.6666 71.6817 86.6719 71.7342 86.6865C71.8466 86.7226 71.9258 86.8308 72.0411 86.8567C72.1154 86.8644 72.1904 86.8546 72.2601 86.8279C72.6145 86.7528 72.9758 86.7151 73.338 86.7154C73.4965 86.7067 73.6838 86.6764 73.7559 86.5337C73.8466 86.3563 73.6968 86.1572 73.6363 85.9669C73.6064 85.845 73.5895 85.7202 73.5858 85.5948C73.5585 85.2849 73.4678 84.9839 73.3192 84.7107C73.1953 84.4828 73.031 84.2319 73.1132 83.9896C73.1574 83.9139 73.1853 83.83 73.1953 83.7429C73.1751 83.3521 72.2774 83.4963 72.0584 83.4444Z" fill="#2F2E41"/>
<path d="M80.3871 77.0284C79.8933 76.8344 79.4976 76.4844 79.2763 76.0461C79.231 75.952 79.1918 75.8539 79.148 75.7585C79.0011 75.4431 78.7737 75.1625 78.4839 74.9388C78.4529 74.9084 78.4148 74.8844 78.3723 74.8684C78.3299 74.8524 78.284 74.8448 78.2379 74.8461C78.1933 74.8579 78.153 74.8801 78.1212 74.9103C78.0894 74.9405 78.0671 74.9777 78.0568 75.0181C78.0309 75.1057 78.0243 75.197 78.0372 75.2869C78.0629 75.4954 78.1033 75.7023 78.1579 75.9063L78.2937 76.4546C78.3109 76.5388 78.3392 76.6209 78.3783 76.6992C78.4363 76.7912 78.5131 76.8727 78.6046 76.9397C78.7284 77.0418 78.8537 77.1399 78.9805 77.2354C79.0503 77.2917 79.1267 77.3412 79.2084 77.3832C79.3423 77.4397 79.4854 77.4769 79.6325 77.4934C80.1864 77.5847 80.7493 77.7164 81.2157 78.0309C81.2157 78.0309 81.2157 77.664 81.2051 77.6277C81.1995 77.5214 81.1585 77.419 81.0874 77.3335C80.9123 77.1655 80.6105 77.1158 80.3871 77.0284Z" fill="#FBBEBE"/>
<path opacity="0.1" d="M80.3871 77.0284C79.8933 76.8344 79.4976 76.4844 79.2763 76.0461C79.231 75.952 79.1918 75.8539 79.148 75.7585C79.0011 75.4431 78.7737 75.1625 78.4839 74.9388C78.4529 74.9084 78.4148 74.8844 78.3723 74.8684C78.3299 74.8524 78.284 74.8448 78.2379 74.8461C78.1933 74.8579 78.153 74.8801 78.1212 74.9103C78.0894 74.9405 78.0671 74.9777 78.0568 75.0181C78.0309 75.1057 78.0243 75.197 78.0372 75.2869C78.0629 75.4954 78.1033 75.7023 78.1579 75.9063L78.2937 76.4546C78.3109 76.5388 78.3392 76.6209 78.3783 76.6992C78.4363 76.7912 78.5131 76.8727 78.6046 76.9397C78.7284 77.0418 78.8537 77.1399 78.9805 77.2354C79.0503 77.2917 79.1267 77.3412 79.2084 77.3832C79.3423 77.4397 79.4854 77.4769 79.6325 77.4934C80.1864 77.5847 80.7493 77.7164 81.2157 78.0309C81.2157 78.0309 81.2157 77.664 81.2051 77.6277C81.1995 77.5214 81.1585 77.419 81.0874 77.3335C80.9123 77.1655 80.6105 77.1158 80.3871 77.0284Z" fill="black"/>
<path d="M85.4622 72.7225C85.7554 72.7225 85.993 72.4849 85.993 72.1917C85.993 71.8985 85.7554 71.6609 85.4622 71.6609C85.1691 71.6609 84.9314 71.8985 84.9314 72.1917C84.9314 72.4849 85.1691 72.7225 85.4622 72.7225Z" fill="#2F2E41"/>
<path d="M85.1925 71.6785C85.0179 71.6398 84.8348 71.6654 84.6785 71.7504C84.6033 71.8151 84.5435 71.8949 84.5033 71.9843C84.357 72.2276 84.2431 72.488 84.1644 72.7593C84.1065 72.9918 84.0964 73.2341 84.0196 73.4638C83.8864 73.8865 83.5447 74.2459 83.5056 74.6869C83.4882 74.8842 83.5215 75.1167 83.3738 75.2505C83.3371 75.2805 83.2978 75.3073 83.2565 75.3308C83.1536 75.398 83.0663 75.4854 83.0002 75.5873C82.956 75.6788 82.8946 75.7615 82.8192 75.8311C82.686 75.9269 82.4673 75.917 82.4022 76.065C82.337 76.2129 82.505 76.3848 82.4659 76.5455C82.434 76.6765 82.2834 76.7371 82.1763 76.8273C82.0542 76.9531 81.9688 77.1082 81.9287 77.2768C81.7111 77.3166 81.4873 77.3102 81.2726 77.2579C81.0579 77.2056 80.8574 77.1087 80.6848 76.9738C80.8658 77.4092 80.8702 77.8897 80.8774 78.359C80.8983 78.509 80.8571 78.6611 80.763 78.7817C81.2814 78.793 81.7853 78.9226 82.2907 79.0395C82.5068 79.11 82.7406 79.11 82.9568 79.0395C83.0723 78.979 83.1758 78.8988 83.2623 78.8028C83.5374 78.5309 83.8256 78.2392 83.8922 77.8601C83.9098 77.6469 83.9137 77.4328 83.9038 77.219C83.9304 76.9551 83.9862 76.6948 84.0703 76.4426C84.2157 75.919 84.3126 75.3838 84.3599 74.8433C84.3903 74.5094 84.6857 74.2416 84.8421 73.9429C85.1317 73.3793 85.4358 72.7945 85.4589 72.1632C85.4792 71.9575 85.4068 71.7053 85.1925 71.6785Z" fill="#2F2E41"/>
<path opacity="0.1" d="M85.1925 71.6785C85.0179 71.6398 84.8348 71.6654 84.6785 71.7504C84.6033 71.8151 84.5435 71.8949 84.5033 71.9843C84.357 72.2276 84.2431 72.488 84.1644 72.7593C84.1065 72.9918 84.0964 73.2341 84.0196 73.4638C83.8864 73.8865 83.5447 74.2459 83.5056 74.6869C83.4882 74.8842 83.5215 75.1167 83.3738 75.2505C83.3371 75.2805 83.2978 75.3073 83.2565 75.3308C83.1536 75.398 83.0663 75.4854 83.0002 75.5873C82.956 75.6788 82.8946 75.7615 82.8192 75.8311C82.686 75.9269 82.4673 75.917 82.4022 76.065C82.337 76.2129 82.505 76.3848 82.4659 76.5455C82.434 76.6765 82.2834 76.7371 82.1763 76.8273C82.0542 76.9531 81.9688 77.1082 81.9287 77.2768C81.7111 77.3166 81.4873 77.3102 81.2726 77.2579C81.0579 77.2056 80.8574 77.1087 80.6848 76.9738C80.8658 77.4092 80.8702 77.8897 80.8774 78.359C80.8983 78.509 80.8571 78.6611 80.763 78.7817C81.2814 78.793 81.7853 78.9226 82.2907 79.0395C82.5068 79.11 82.7406 79.11 82.9568 79.0395C83.0723 78.979 83.1758 78.8988 83.2623 78.8028C83.5374 78.5309 83.8256 78.2392 83.8922 77.8601C83.9098 77.6469 83.9137 77.4328 83.9038 77.219C83.9304 76.9551 83.9862 76.6948 84.0703 76.4426C84.2157 75.919 84.3126 75.3838 84.3599 74.8433C84.3903 74.5094 84.6857 74.2416 84.8421 73.9429C85.1317 73.3793 85.4358 72.7945 85.4589 72.1632C85.4792 71.9575 85.4068 71.7053 85.1925 71.6785Z" fill="black"/>
<path d="M84.7742 81.6061C84.2493 81.3573 83.8661 80.8936 83.4421 80.4965C82.6321 79.7378 81.6422 79.202 80.7914 78.4908C80.2282 78.0203 79.7237 77.4723 79.1033 77.078C78.5577 76.7308 77.9388 76.5144 77.2953 76.4457C77.2218 76.4329 77.1463 76.4366 77.0744 76.4566C76.9931 76.4929 76.9223 76.549 76.8685 76.6197C76.5936 76.9287 76.3493 77.2634 76.139 77.6192C75.0605 79.4441 73.5292 80.9793 72.2598 82.6777C72.2191 82.7177 72.1949 82.7715 72.1922 82.8284C72.1894 82.8853 72.2082 82.9412 72.2448 82.985L72.5025 83.4895C72.647 83.7709 72.8788 84.1 73.1843 84.0443C73.3244 84.004 73.4499 83.9242 73.5456 83.8145L74.7046 82.7089L75.9195 81.5504C76.6313 80.8705 77.3553 80.177 77.8203 79.3094C78.183 79.9363 78.8265 80.347 79.2683 80.9222C79.436 81.1397 79.5724 81.3804 79.7224 81.6116C79.9637 81.9828 80.2364 82.3309 80.5091 82.6777L81.904 84.4522C82.08 84.7049 82.2981 84.9257 82.549 85.1049C82.8789 85.3129 83.2812 85.3687 83.6698 85.4027C84.1933 85.4503 84.719 85.4694 85.2447 85.4598C85.6455 85.453 86.0628 85.4272 86.4173 85.249C86.7718 85.0709 87.0731 84.7051 87.054 84.3067C87.0324 84.0979 86.9639 83.8967 86.8536 83.7179C86.3614 82.8068 85.7096 82.0454 84.7742 81.6061Z" fill="#2F2E41"/>
<path d="M85.9932 73.2533C86.2864 73.2533 86.524 73.0156 86.524 72.7225C86.524 72.4293 86.2864 72.1917 85.9932 72.1917C85.7001 72.1917 85.4624 72.4293 85.4624 72.7225C85.4624 73.0156 85.7001 73.2533 85.9932 73.2533Z" fill="#E8E8F0"/>
<path d="M85.6404 72.2379C85.7572 72.4725 85.7777 72.744 85.6973 72.9937C85.6174 73.2393 85.5055 73.4731 85.3646 73.689C85.2433 73.912 85.098 74.1209 84.9314 74.3118C85.7303 74.3511 86.5052 74.0352 87.2097 73.6512C87.7778 73.3489 88.3444 72.9635 88.6471 72.3876C88.557 72.4092 88.4634 72.4117 88.3723 72.3948C88.2812 72.3778 88.1946 72.3419 88.118 72.2893C87.9656 72.1822 87.8289 72.0539 87.7118 71.9084L87.3116 71.4549C87.2171 71.3554 87.1341 71.2454 87.0643 71.1269C86.9767 70.966 86.9396 70.782 86.9579 70.5994C86.7986 70.7676 86.6205 70.9167 86.4273 71.0438C86.141 71.2327 85.8277 71.3688 85.5384 71.5547C85.4365 71.6212 85.2102 71.7285 85.2686 71.857C85.3271 71.9855 85.5594 72.0928 85.6404 72.2379Z" fill="#FBBEBE"/>
<path opacity="0.1" d="M85.6404 72.2379C85.7572 72.4725 85.7777 72.744 85.6973 72.9937C85.6174 73.2393 85.5055 73.4731 85.3646 73.689C85.2433 73.912 85.098 74.1209 84.9314 74.3118C85.7303 74.3511 86.5052 74.0352 87.2097 73.6512C87.7778 73.3489 88.3444 72.9635 88.6471 72.3876C88.557 72.4092 88.4634 72.4117 88.3723 72.3948C88.2812 72.3778 88.1946 72.3419 88.118 72.2893C87.9656 72.1822 87.8289 72.0539 87.7118 71.9084L87.3116 71.4549C87.2171 71.3554 87.1341 71.2454 87.0643 71.1269C86.9767 70.966 86.9396 70.782 86.9579 70.5994C86.7986 70.7676 86.6205 70.9167 86.4273 71.0438C86.141 71.2327 85.8277 71.3688 85.5384 71.5547C85.4365 71.6212 85.2102 71.7285 85.2686 71.857C85.3271 71.9855 85.5594 72.0928 85.6404 72.2379Z" fill="black"/>
<path d="M85.7813 72.2711C85.7054 72.3739 85.6646 72.4966 85.6646 72.6225C85.6646 72.7483 85.7054 72.8711 85.7813 72.9738C85.8025 72.9995 85.8828 73.16 85.9223 73.1613C85.9555 73.1586 85.9863 73.1436 86.0082 73.1195C86.1784 72.9492 86.3375 72.7691 86.4845 72.58C86.633 72.3885 86.8477 72.2537 87.0904 72.1996C87.3849 72.1551 87.6682 72.3048 87.926 72.4478C88.0368 72.5005 88.1333 72.5772 88.2079 72.6717C88.2622 72.7655 88.2944 72.8696 88.3023 72.9765C88.3763 73.6196 88.4045 74.2667 88.3868 74.9134C88.4005 75.3797 88.3684 75.8462 88.291 76.3068C88.2431 76.5441 88.1712 76.7761 88.1374 77.0162C88.1127 77.2276 88.1028 77.4403 88.1078 77.6529V78.5431C88.1016 78.7062 88.1139 78.8694 88.1445 79.03C88.2026 79.2215 88.2708 79.4102 88.3488 79.5952C88.4174 79.8153 88.4645 80.0411 88.4897 80.2696L88.6165 81.1908C88.6574 81.4821 88.687 81.7991 88.5024 82.0325C88.4206 82.139 88.3107 82.2226 88.2205 82.3278C87.9035 82.7136 88.0092 83.2734 87.8683 83.7522C87.764 84.1036 87.5507 84.4163 87.2567 84.6491C87.0326 84.8312 86.7424 84.9755 86.4521 84.9189C86.0618 84.8488 85.8264 84.459 85.7193 84.0907C85.6123 83.7225 85.5784 83.3206 85.3431 83.0117C85.1543 82.7568 84.8626 82.5976 84.5991 82.4155C84.3356 82.2334 84.0763 82.0001 84.0185 81.6926C83.9932 81.5577 84.0087 81.4228 83.9946 81.2879C83.9736 81.116 83.9048 80.9527 83.7952 80.815C83.6856 80.6774 83.5393 80.5705 83.3718 80.5056C83.1717 80.4314 82.9237 80.4044 82.8081 80.2358C83.095 80.0634 83.3041 79.7944 83.3943 79.4819C83.4817 79.1739 83.5291 78.8568 83.5352 78.5377L83.6028 77.4667C83.6324 76.9879 83.6465 76.5131 83.8663 76.0829C83.965 75.8913 84.0876 75.7106 84.189 75.5204C84.325 75.2535 84.4408 74.9776 84.5357 74.6949C84.6949 74.2566 84.8556 73.8169 84.9979 73.3731C85.0548 73.1582 85.1401 72.9511 85.2515 72.7567C85.3826 72.5544 85.5559 72.3116 85.7813 72.2711Z" fill="#E8E8F0"/>
<path d="M83.3667 79.0833L83.6265 79.0923L83.6822 78.6843C83.6896 78.6027 83.7079 78.5225 83.7366 78.4461C83.7797 78.3656 83.8298 78.2894 83.8863 78.2183C84.1424 77.8424 84.1238 77.343 84.1869 76.886C84.271 76.2772 84.516 75.7056 84.7585 75.1444L85.2632 73.9743C85.3082 73.8781 85.3442 73.7777 85.3709 73.6744C85.3929 73.5604 85.4033 73.4443 85.4018 73.3281C85.4018 73.1479 85.4587 72.4901 85.4624 72.3086C85.4624 72.2417 85.3214 72.279 85.2917 72.2198C85.2286 72.0911 85.142 72.4412 85.0232 72.5184C84.9113 72.6075 84.8297 72.7316 84.7906 72.8724C84.6818 73.1672 84.615 73.4774 84.5135 73.7735C84.4245 74.0767 84.2622 74.351 84.0422 74.5703C83.9395 74.6655 83.8195 74.7402 83.7217 74.8406C83.4075 75.1637 83.3778 75.6734 83.3667 76.1278C83.3593 76.4097 83.3085 79.0833 83.3667 79.0833Z" fill="#2F2E41"/>
<path d="M87.5662 71.6928C87.2913 71.8028 87.1318 72.1055 87.0535 72.3999C86.9751 72.6943 86.9421 73.0052 86.7909 73.2666C86.439 73.8801 85.5414 74.059 85.2926 74.722C85.2292 74.9459 85.1955 75.1772 85.1922 75.4099C85.1482 75.8845 84.9915 76.344 84.9448 76.8186C84.9205 77.1878 84.9293 77.5584 84.9709 77.926L85.2857 81.672C85.3467 82.2237 85.3147 82.7817 85.1908 83.3228C85.5137 83.3693 85.843 83.315 86.1338 83.1673C86.4294 83.0298 86.6988 82.8482 86.982 82.6913C87.47 82.4162 88.0088 82.2305 88.435 81.8659C88.5123 81.8056 88.5788 81.7326 88.6315 81.65C88.6999 81.4925 88.7462 81.3263 88.769 81.1561C88.8052 81.0235 88.8511 80.8939 88.9065 80.7681C89.0643 80.3906 89.202 80.0048 89.3188 79.6126C89.3989 79.3524 89.4618 79.0872 89.5072 78.8188C89.5415 78.6056 89.5594 78.3896 89.5787 78.175C89.6007 77.8374 89.6677 77.5043 89.778 77.1845C90.0506 76.4215 90.205 75.6212 90.2357 74.8115C90.2452 74.6945 90.2373 74.5767 90.2124 74.462C90.1649 74.323 90.1012 74.19 90.0227 74.0658C89.8921 73.8196 89.8137 73.5486 89.69 73.2996C89.4151 72.7356 88.9216 72.3077 88.4061 71.9487C88.1422 71.774 87.8521 71.5841 87.5662 71.6928Z" fill="#2F2E41"/>
<path d="M80.9765 77.635C80.7492 77.5238 80.5434 77.3777 80.3677 77.2028C80.288 77.115 80.2278 77.0168 80.141 76.9303C79.9355 76.7252 79.6688 76.5828 79.3756 76.5216C79.0843 76.4616 78.7864 76.4347 78.4883 76.4417C78.2892 76.4289 78.0893 76.4515 77.8992 76.5085C77.8037 76.5378 77.7177 76.5891 77.6492 76.6578C77.5807 76.7265 77.5319 76.8104 77.5073 76.9015C77.464 77.1242 77.6193 77.3403 77.8054 77.4818C77.9785 77.6142 78.1821 77.707 78.4002 77.7529C78.578 77.7818 78.7574 77.8015 78.9375 77.8119C79.9955 77.9154 80.9401 78.4537 81.8665 78.9449C82.681 79.3755 83.5113 79.7785 84.3575 80.154C84.391 79.9169 84.4051 79.6778 84.3995 79.4388C84.3995 79.2606 84.3855 78.9882 84.205 78.8834C83.9951 78.7603 83.6452 78.7327 83.4129 78.6594C82.8675 78.4928 82.3349 78.2915 81.819 78.0568C81.5265 77.9245 81.2466 77.7844 80.9765 77.635Z" fill="#FBBEBE"/>
<path d="M85.4623 72.1918C86.3418 72.1918 87.0548 71.36 87.0548 70.334C87.0548 69.3079 86.3418 68.4761 85.4623 68.4761C84.5828 68.4761 83.8699 69.3079 83.8699 70.334C83.8699 71.36 84.5828 72.1918 85.4623 72.1918Z" fill="#FBBEBE"/>
<path d="M88.0952 74.0064C87.9415 74.2008 87.8157 74.412 87.7209 74.6348C87.4815 75.0774 87.1073 75.4568 86.9209 75.9252C86.723 76.4116 86.7302 76.991 86.3473 77.3742C86.2704 77.4323 86.2124 77.5082 86.1796 77.5936C86.1772 77.6469 86.1705 77.6999 86.1595 77.7523C86.105 77.8917 85.8512 77.8981 85.8039 78.04C85.791 78.0813 85.8039 78.1265 85.781 78.1691C85.7423 78.2607 85.6089 78.2736 85.5186 78.3291C85.3307 78.4439 85.3752 78.7097 85.2318 78.8749C85.1735 78.9362 85.0983 78.9826 85.0137 79.0093C84.9291 79.0361 84.8381 79.0422 84.75 79.0272C84.5743 78.9938 84.4051 78.9369 84.2482 78.8581C84.1931 78.8302 84.132 78.8131 84.069 78.8078C83.9941 78.8092 83.9215 78.8313 83.8611 78.871C83.504 79.0749 83.3363 79.4801 83.3391 79.862C83.3643 80.244 83.4648 80.6189 83.636 80.9691C83.6561 81.0297 83.6898 81.0859 83.7349 81.1343C83.8525 81.2466 84.0589 81.2285 84.2167 81.1653C84.3644 81.0865 84.5217 81.0233 84.6855 80.9769C84.9838 80.9278 85.2763 81.1137 85.5788 81.0982C85.8001 81.0679 86.0085 80.9851 86.1824 80.8582C86.4895 80.6903 86.7645 80.479 86.9969 80.2324C87.1288 80.0762 87.2263 79.8982 87.3424 79.7317C87.4907 79.5272 87.6536 79.3315 87.8299 79.1459L88.944 77.9188C89.0558 77.8026 89.1561 77.6778 89.2437 77.5459C89.3441 77.3674 89.4225 77.1796 89.4774 76.9858C89.5967 76.6625 89.6742 76.3278 89.7082 75.9884C89.7139 75.7074 89.6865 75.4267 89.6265 75.151C89.5891 74.8767 89.5085 74.6086 89.3871 74.3548C89.139 73.9032 88.5497 73.529 88.0952 74.0064Z" fill="#2F2E41"/>
<path d="M91.8321 71.4022C91.8336 71.0679 91.7547 70.738 91.6019 70.4397C91.449 70.1414 91.2266 69.8833 90.953 69.6865C90.9448 69.093 90.7234 68.5217 90.3284 68.0745C89.9333 67.6272 89.3904 67.333 88.7962 67.2444C88.6813 66.6822 88.3693 66.1782 87.915 65.821C87.4608 65.4638 86.8935 65.2764 86.3131 65.2919C85.7327 65.3074 85.1764 65.5247 84.7423 65.9055C84.3082 66.2864 84.0242 66.8063 83.9402 67.3738C83.1512 67.1985 82.4299 67.4267 82.2989 67.9067C82.1581 68.4091 82.7216 68.9963 83.5556 69.2189C83.8169 69.2919 84.0892 69.3187 84.36 69.2982C84.5539 69.5795 84.8052 69.8177 85.0978 69.9974C85.3904 70.1771 85.7178 70.2944 86.059 70.3419C86.1591 70.7958 86.3856 71.213 86.7129 71.5466C87.0402 71.8802 87.4553 72.1169 87.9115 72.2301C88.0377 72.5313 88.2336 72.7992 88.4835 73.0122C88.4835 73.0706 88.4736 73.1304 88.4736 73.1917C88.4645 73.4056 88.4993 73.6191 88.576 73.8193C88.6526 74.0196 88.7694 74.2025 88.9194 74.357C89.0695 74.5116 89.2496 74.6345 89.449 74.7185C89.6483 74.8025 89.8629 74.8458 90.0796 74.8458C90.2964 74.8458 90.5109 74.8025 90.7102 74.7185C90.9096 74.6345 91.0897 74.5116 91.2398 74.357C91.3898 74.2025 91.5066 74.0196 91.5832 73.8193C91.6599 73.6191 91.6947 73.4056 91.6856 73.1917C91.6857 72.9515 91.6333 72.7142 91.5321 72.4959C91.7301 72.1647 91.8338 71.7868 91.8321 71.4022Z" fill="#F86D70"/>
<path opacity="0.1" d="M82.8362 68.1726C82.9664 67.6646 83.676 67.4231 84.4668 67.6087C84.5588 66.9988 84.8527 66.4427 85.2965 66.0386C85.7403 65.6345 86.3055 65.4083 86.8924 65.4C86.947 65.4 87.0016 65.4 87.0547 65.4C86.8279 65.3272 86.5921 65.2905 86.3549 65.291C85.768 65.2994 85.2028 65.5255 84.759 65.9297C84.3152 66.3338 84.0214 66.8898 83.9294 67.4997C83.1456 67.3142 82.429 67.5557 82.2988 68.0637C82.1588 68.5952 82.7187 69.2166 83.5473 69.4522C83.7014 69.4971 83.8594 69.5257 84.0189 69.5376C83.2323 69.2961 82.7033 68.6924 82.8362 68.1726Z" fill="black"/>
<path opacity="0.1" d="M88.7108 73.342C88.7108 73.2823 88.7108 73.2241 88.72 73.1658C88.4852 72.9591 88.3011 72.6987 88.1826 72.4058C87.7543 72.2945 87.3646 72.0635 87.0572 71.7385C86.7498 71.4136 86.5368 71.0076 86.4418 70.5659C86.1212 70.52 85.8135 70.4058 85.5385 70.2308C85.2636 70.0558 85.0275 69.8238 84.8454 69.5498C84.6971 69.5618 84.5481 69.5577 84.4006 69.5376C84.5836 69.7901 84.8139 70.0027 85.0779 70.1632C85.342 70.3237 85.6347 70.4288 85.9388 70.4724C86.033 70.9144 86.2458 71.3206 86.5533 71.6454C86.8609 71.9702 87.2509 72.2007 87.6796 72.3109C87.7981 72.6042 87.9822 72.865 88.217 73.0724C88.217 73.1293 88.2077 73.1875 88.2077 73.2471C88.201 73.6625 88.355 74.0637 88.6363 74.3632C88.9175 74.6627 89.3031 74.8362 89.7089 74.8458C89.4127 74.7289 89.1585 74.5223 88.9801 74.2536C88.8018 73.9848 88.7078 73.6668 88.7108 73.342Z" fill="black"/>
<path d="M86.3163 70.8334C86.4405 70.7391 86.4393 70.5285 86.3137 70.3631C86.1881 70.1977 85.9855 70.1401 85.8613 70.2345C85.7371 70.3288 85.7383 70.5393 85.8639 70.7047C85.9896 70.8701 86.1921 70.9277 86.3163 70.8334Z" fill="#FBBEBE"/>
<path d="M42.6242 79.9681L44.5023 78.9762C44.2485 78.5864 43.924 78.2375 43.5421 77.9438L40.0002 78.9332L42.7751 77.4675C42.088 77.1294 41.3147 76.9579 40.5314 76.9698C39.7481 76.9818 38.9817 77.1767 38.3078 77.5356C37.6338 77.8944 37.0754 78.4047 36.6876 79.0162C36.2998 79.6278 36.0959 80.3195 36.0959 81.0234C36.0959 83.2618 38.1165 83.3391 40.6079 83.3391C43.0994 83.3391 45.1199 83.2618 45.1199 81.0234C45.1214 80.456 44.9892 79.8948 44.7322 79.3765L42.6242 79.9681Z" fill="white"/>
<path opacity="0.1" d="M42.9204 82.1636C42.7256 81.9864 42.5079 81.8311 42.2722 81.7012C41.9412 81.5005 41.5964 81.2961 41.205 81.2287C40.8617 81.1689 40.5073 81.22 40.1571 81.2013C39.549 81.1676 38.9766 80.9294 38.5516 80.5332C38.3016 80.2989 38.1052 80.0109 37.8045 79.8314C37.4683 79.6501 37.0716 79.5842 36.6865 79.6457C36.5749 79.6598 36.4644 79.6802 36.3555 79.7068C36.1834 80.141 36.0955 80.599 36.0959 81.0605C36.0959 83.263 38.064 83.339 40.4909 83.339C41.6692 83.339 42.7377 83.3216 43.5275 83.0511L43.3901 82.828C43.2654 82.5893 43.1075 82.366 42.9204 82.1636Z" fill="black"/>
</g>
<defs>
<linearGradient id="paint0_linear" x1="76.9714" y1="87.0553" x2="76.9714" y2="65.2678" gradientUnits="userSpaceOnUse">
<stop stop-color="#808080" stop-opacity="0.25"/>
<stop offset="0.54" stop-color="#808080" stop-opacity="0.12"/>
<stop offset="1" stop-color="#808080" stop-opacity="0.1"/>
</linearGradient>
</defs>
</svg>
