<svg width="24" height="24" viewBox="0 0 24 24" fill="none" xmlns="http://www.w3.org/2000/svg">
<path d="M9.95902 9.31803C10.8848 8.31388 11.3949 6.96693 11.3949 5.52492C11.3949 2.77938 9.43382 0 5.68502 0C3.94041 0 2.46861 0.599227 1.42853 1.73286C0.50724 2.73716 0 4.08381 0 5.52492C0 8.27077 1.95276 11.05 5.68502 11.05C7.43614 11.0501 8.91438 10.4513 9.95902 9.31803ZM5.68502 2.56891C7.73905 2.56891 8.67449 4.10223 8.67449 5.52687C8.67449 6.30184 8.41372 7.01925 7.93979 7.54669C7.41107 8.13582 6.64269 8.44733 5.71833 8.44733C3.61235 8.44733 2.65296 6.91416 2.65296 5.48967C2.65296 4.03606 3.59064 2.56891 5.68502 2.56891Z" fill="#FDFDFD"/>
<path d="M19.3191 2.1316C18.9794 2.13774 18.5156 2.34956 18.2883 2.60217L1.42407 21.3523C1.19691 21.605 1.35783 21.9594 1.69756 21.9594H3.90481C4.24454 21.9594 4.70792 21.7522 4.93471 21.4992L21.6947 2.75291C21.9214 2.4997 21.9064 2.08774 21.345 2.08789L19.3191 2.1316Z" fill="#FDFDFD"/>
<path d="M17.4757 13.1602C15.7648 13.1602 14.3209 13.7483 13.3005 14.8603C12.3968 15.8452 11.8989 17.1664 11.8989 18.5801C11.8989 21.2734 13.8146 24 17.4758 24C19.1941 24 20.6438 23.4124 21.6687 22.3009C22.577 21.3157 23.0772 19.9944 23.0772 18.5801C23.0771 15.8868 21.1532 13.1602 17.4757 13.1602ZM17.5088 21.5128C15.4599 21.5128 14.5263 19.9742 14.5263 18.5453C14.5263 17.7671 14.7869 17.047 15.2605 16.5175C15.7884 15.9267 16.5543 15.6144 17.4758 15.6144C19.5249 15.6144 20.458 17.1527 20.458 18.5821C20.458 19.3601 20.1973 20.0804 19.7241 20.6099C19.1961 21.2005 18.43 21.5128 17.5088 21.5128Z" fill="#FDFDFD"/>
</svg>
