<svg width="13" height="14" viewBox="0 0 13 14" fill="none" xmlns="http://www.w3.org/2000/svg">
<path opacity="0.3" d="M4.594 8.931V9.993H8.59V11.019H4.594V13.125H2.776V11.019H0.94V9.993H2.776V0.524999H7.726C9.37 0.524999 10.654 0.890999 11.578 1.623C12.502 2.343 12.964 3.375 12.964 4.719C12.964 6.075 12.502 7.119 11.578 7.851C10.654 8.571 9.37 8.931 7.726 8.931H4.594ZM11.146 4.737C11.146 3.885 10.852 3.231 10.264 2.775C9.676 2.319 8.83 2.091 7.726 2.091H4.594V7.437H7.726C8.818 7.437 9.658 7.203 10.246 6.735C10.846 6.255 11.146 5.589 11.146 4.737Z" fill="#42484D"/>
</svg>
