<svg width="98" height="98" viewBox="0 0 98 98" fill="none" xmlns="http://www.w3.org/2000/svg">
<g filter="url(#filter0_d)">
<path d="M46.5667 7.86507C48.0023 6.76471 49.9977 6.76471 51.4333 7.86507L51.7521 8.10938C52.8581 8.95713 54.3257 9.16813 55.6257 8.66633L56.0004 8.52172C57.6879 7.87039 59.6025 8.43256 60.67 9.89281L60.907 10.217C61.7294 11.3421 63.078 11.958 64.4668 11.8428L64.8671 11.8096C66.6697 11.66 68.3483 12.7388 68.9611 14.4407L69.0972 14.8185C69.5694 16.1297 70.6898 17.1006 72.0548 17.3813L72.4482 17.4622C74.2199 17.8266 75.5267 19.3347 75.6352 21.1402L75.6593 21.5411C75.7429 22.9322 76.5445 24.1794 77.7751 24.8334L78.1298 25.0218C79.7271 25.8706 80.556 27.6857 80.1514 29.4487L80.0616 29.8401C79.7499 31.1984 80.1676 32.621 81.1642 33.5951L81.4514 33.8758C82.7448 35.1403 83.0288 37.1154 82.144 38.693L81.9475 39.0433C81.2658 40.2587 81.2658 41.7413 81.9475 42.9567L82.144 43.307C83.0288 44.8846 82.7448 46.8597 81.4514 48.1242L81.1642 48.4049C80.1676 49.379 79.7499 50.8016 80.0616 52.1599L80.1514 52.5513C80.556 54.3143 79.7271 56.1294 78.1298 56.9782L77.7751 57.1666C76.5445 57.8206 75.7429 59.0678 75.6593 60.4589L75.6352 60.8598C75.5267 62.6653 74.2199 64.1734 72.4482 64.5378L72.0548 64.6187C70.6898 64.8994 69.5694 65.8703 69.0972 67.1815L68.9611 67.5593C68.3483 69.2612 66.6697 70.34 64.8671 70.1904L64.4668 70.1572C63.078 70.042 61.7294 70.6579 60.907 71.783L60.67 72.1072C59.6025 73.5674 57.6879 74.1296 56.0004 73.4783L55.6257 73.3337C54.3257 72.8319 52.8581 73.0429 51.7521 73.8906L51.4333 74.1349C49.9977 75.2353 48.0023 75.2353 46.5667 74.1349L46.2479 73.8906C45.1419 73.0429 43.6743 72.8319 42.3743 73.3337L41.9996 73.4783C40.3121 74.1296 38.3975 73.5674 37.33 72.1072L37.093 71.783C36.2706 70.6579 34.922 70.042 33.5332 70.1572L33.133 70.1904C31.3303 70.34 29.6517 69.2612 29.0389 67.5593L28.9028 67.1815C28.4307 65.8703 27.3102 64.8994 25.9452 64.6187L25.5518 64.5378C23.78 64.1734 22.4733 62.6653 22.3648 60.8598L22.3407 60.4589C22.2571 59.0678 21.4555 57.8206 20.2249 57.1666L19.8702 56.9782C18.2729 56.1294 17.444 54.3143 17.8486 52.5513L17.9384 52.1599C18.2501 50.8016 17.8324 49.379 16.8358 48.4049L16.5486 48.1241C15.2552 46.8597 14.9712 44.8846 15.856 43.307L16.0525 42.9567C16.7342 41.7413 16.7342 40.2587 16.0525 39.0433L15.856 38.693C14.9712 37.1154 15.2552 35.1403 16.5486 33.8758L16.8358 33.5951C17.8324 32.621 18.2501 31.1984 17.9384 29.8401L17.8486 29.4487C17.444 27.6857 18.2729 25.8706 19.8702 25.0218L20.2249 24.8334C21.4555 24.1794 22.2571 22.9322 22.3407 21.5411L22.3648 21.1402C22.4733 19.3347 23.7801 17.8266 25.5518 17.4622L25.9452 17.3813C27.3102 17.1006 28.4307 16.1297 28.9028 14.8185L29.0389 14.4407C29.6517 12.7388 31.3303 11.66 33.1329 11.8096L33.5332 11.8428C34.922 11.958 36.2706 11.3421 37.093 10.217L37.33 9.89281C38.3975 8.43256 40.3121 7.87039 41.9996 8.52172L42.3743 8.66633C43.6743 9.16813 45.1419 8.95713 46.2479 8.10938L46.5667 7.86507Z" fill="#5DBF16"/>
</g>
<g opacity="0.1">
<path d="M46.4711 36.6546C47.9712 35.0274 48.7977 32.8449 48.7977 30.5082C48.7977 26.0594 45.62 21.5557 39.5455 21.5557C36.7185 21.5557 34.3336 22.5266 32.6483 24.3636C31.1554 25.991 30.3335 28.1731 30.3335 30.5082C30.3335 34.9576 33.4977 39.461 39.5455 39.461C42.383 39.4612 44.7783 38.4909 46.4711 36.6546ZM39.5455 25.7183C42.8738 25.7183 44.3896 28.2029 44.3896 30.5114C44.3896 31.7671 43.9671 32.9296 43.1991 33.7843C42.3424 34.7389 41.0973 35.2437 39.5995 35.2437C36.1869 35.2437 34.6323 32.7593 34.6323 30.4511C34.6323 28.0957 36.1518 25.7183 39.5455 25.7183Z" fill="#FDFDFD"/>
<path d="M61.6372 25.0093C61.0867 25.0193 60.3351 25.3625 59.9669 25.7718L32.64 56.1544C32.272 56.564 32.5327 57.1382 33.0832 57.1382H36.6598C37.2103 57.1382 37.9612 56.8025 38.3287 56.3925L65.4865 26.0161C65.8539 25.6058 65.8295 24.9382 64.9199 24.9385L61.6372 25.0093Z" fill="#FDFDFD"/>
<path d="M58.6509 42.8794C55.8785 42.8794 53.5388 43.8324 51.8854 45.6343C50.421 47.2302 49.6143 49.3711 49.6143 51.6619C49.6143 56.0261 52.7184 60.4442 58.651 60.4442C61.4353 60.4442 63.7844 59.4922 65.4452 57.691C66.917 56.0947 67.7275 53.9536 67.7275 51.6619C67.7274 47.2977 64.6098 42.8794 58.6509 42.8794ZM58.7045 56.414C55.3844 56.414 53.8716 53.9208 53.8716 51.6054C53.8716 50.3444 54.2939 49.1776 55.0613 48.3196C55.9167 47.3622 57.1579 46.8562 58.651 46.8562C61.9713 46.8562 63.4834 49.349 63.4834 51.6651C63.4834 52.9258 63.0609 54.0929 62.2942 54.9509C61.4385 55.908 60.1972 56.414 58.7045 56.414Z" fill="#FDFDFD"/>
</g>
<path d="M31.7543 43.6507H27.3988L26.5401 45.6667H24.8726L28.7926 36.9556H30.3854L34.3179 45.6667H32.6254L31.7543 43.6507ZM31.2192 42.3813L29.5766 38.5733L27.9463 42.3813H31.2192Z" fill="white"/>
<path d="M38.9422 41.9956H37.3244V45.6667H35.7315V36.9556H37.3244V40.6018H38.9919L41.4933 36.9556H43.2106L40.2364 41.1742L43.3226 45.6667H41.4933L38.9422 41.9956Z" fill="white"/>
<path d="M53.3963 44.2978V47.5831H51.903V45.6667H44.511V36.9556H46.1038V44.2978H50.4967V36.9556H52.1021V44.2978H53.3963Z" fill="white"/>
<path d="M54.9672 36.9556H56.5601V43.1405L61.2392 36.9556H62.745V45.6667H61.1521V39.4942L56.473 45.6667H54.9672V36.9556Z" fill="white"/>
<path d="M71.923 36.9556V45.6667H70.3301V43.24H68.1772H68.003L66.3852 45.6667H64.6803L66.547 42.9787C65.9413 42.7547 65.4726 42.4021 65.1407 41.9209C64.8172 41.4314 64.6554 40.8424 64.6554 40.1538C64.6554 39.4901 64.8047 38.9176 65.1034 38.4365C65.4021 37.9553 65.8252 37.5902 66.3727 37.3413C66.9203 37.0842 67.5633 36.9556 68.3016 36.9556H71.923ZM68.3514 38.3245C67.6877 38.3245 67.1775 38.4779 66.8207 38.7849C66.4723 39.0919 66.2981 39.5399 66.2981 40.1289C66.2981 40.7013 66.4681 41.1452 66.8083 41.4605C67.1484 41.7674 67.6421 41.9209 68.2892 41.9209H70.3301V38.3245H68.3514Z" fill="white"/>
<defs>
<filter id="filter0_d" x="0.344727" y="0.0400391" width="97.3107" height="97.9204" filterUnits="userSpaceOnUse" color-interpolation-filters="sRGB">
<feFlood flood-opacity="0" result="BackgroundImageFix"/>
<feColorMatrix in="SourceAlpha" type="matrix" values="0 0 0 0 0 0 0 0 0 0 0 0 0 0 0 0 0 0 127 0"/>
<feOffset dy="8"/>
<feGaussianBlur stdDeviation="7.5"/>
<feColorMatrix type="matrix" values="0 0 0 0 0.258824 0 0 0 0 0.282353 0 0 0 0 0.301961 0 0 0 0.1 0"/>
<feBlend mode="normal" in2="BackgroundImageFix" result="effect1_dropShadow"/>
<feBlend mode="normal" in="SourceGraphic" in2="effect1_dropShadow" result="shape"/>
</filter>
</defs>
</svg>
