<svg width="24" height="24" viewBox="0 0 24 24" fill="none" xmlns="http://www.w3.org/2000/svg">
<path d="M23.8778 0.983075C23.771 0.889371 23.619 0.867631 23.4901 0.927398L0.207591 11.7451C0.0822456 11.8034 0.00152815 11.9284 2.1427e-05 12.0666C-0.0014853 12.2048 0.0765775 12.3316 0.200703 12.3925L6.78962 15.6261C6.91044 15.6854 7.05451 15.672 7.16242 15.5914L13.5687 10.8033L8.5395 15.9764C8.46775 16.0502 8.43116 16.1513 8.43905 16.2539L8.93979 22.7751C8.95091 22.9196 9.04777 23.0431 9.18546 23.0884C9.22226 23.1005 9.26007 23.1063 9.29746 23.1063C9.39999 23.1063 9.49972 23.0624 9.5691 22.982L13.0663 18.9295L17.3895 20.9951C17.4834 21.04 17.592 21.0418 17.6873 21.0004C17.7827 20.9588 17.8553 20.878 17.8864 20.7789L23.9835 1.36026C24.0261 1.22465 23.9846 1.07678 23.8778 0.983075Z" fill="white"/>
</svg>
