<svg width="24" height="24" viewBox="0 0 24 24" fill="none" xmlns="http://www.w3.org/2000/svg">
<path fill-rule="evenodd" clip-rule="evenodd" d="M11.7155 23.6328H11.7107C9.7663 23.6322 7.85573 23.1466 6.15881 22.2255L0 23.8333L1.6482 17.8419C0.63151 16.0884 0.0965329 14.0994 0.0974048 12.0615C0.0999534 5.68656 5.31174 0.5 11.7154 0.5C14.8233 0.501335 17.7403 1.70545 19.9338 3.89096C22.1272 6.07636 23.3346 8.98129 23.3333 12.0707C23.3308 18.4442 18.121 23.6302 11.7155 23.6328V23.6328ZM6.44432 20.1325L6.79693 20.3408C8.27952 21.2164 9.979 21.6797 11.7118 21.6804H11.7157C17.0379 21.6804 21.3697 17.3692 21.3719 12.0702C21.3729 9.50236 20.3694 7.08791 18.5463 5.2714C16.7232 3.45488 14.2987 2.45401 11.7195 2.45312C6.39308 2.45312 2.06123 6.76385 2.05911 12.0624C2.05836 13.8783 2.56888 15.6467 3.5355 17.1768L3.76509 17.5404L2.78959 21.0867L6.44432 20.1325ZM17.5685 14.82C17.496 14.6995 17.3025 14.6272 17.0122 14.4826C16.7219 14.338 15.2947 13.6391 15.0285 13.5426C14.7625 13.4463 14.5689 13.3981 14.3754 13.6872C14.1819 13.9764 13.6256 14.6272 13.4563 14.82C13.2869 15.0128 13.1176 15.037 12.8274 14.8923C12.5371 14.7477 11.6017 14.4427 10.4929 13.4584C9.62992 12.6923 9.04732 11.7463 8.87799 11.4571C8.70865 11.1678 8.85993 11.0115 9.00526 10.8675C9.13586 10.738 9.29557 10.5299 9.44071 10.3613C9.58584 10.1926 9.63422 10.0721 9.73099 9.87938C9.82774 9.68648 9.77938 9.51783 9.70679 9.37322C9.63422 9.2286 9.05367 7.80656 8.81177 7.22809C8.57611 6.66474 8.3368 6.74106 8.15863 6.73216C7.98949 6.7237 7.79576 6.72192 7.60226 6.72192C7.40874 6.72192 7.09423 6.79423 6.82815 7.08347C6.56207 7.3727 5.81215 8.07165 5.81215 9.49358C5.81215 10.9156 6.85233 12.2894 6.99748 12.4822C7.14262 12.6751 9.04444 15.5931 11.9565 16.8445C12.6491 17.1422 13.1898 17.3199 13.6114 17.453C14.3068 17.673 14.9397 17.6419 15.4398 17.5675C15.9976 17.4846 17.1573 16.8687 17.3993 16.1939C17.6411 15.5189 17.6411 14.9405 17.5685 14.82V14.82Z" fill="#FDFDFD"/>
</svg>
