<?xml version="1.0" standalone="no"?>
<!DOCTYPE svg PUBLIC "-//W3C//DTD SVG 1.1//EN" "http://www.w3.org/Graphics/SVG/1.1/DTD/svg11.dtd" >
<svg>
<metadata>
Created by FontForge 20120731 at Sun Oct  9 12:28:49 2016
 By ,,,
Copyright (c) 2015-2016 Belleve Invis.
</metadata>
<defs>
<font id="Iosevka-Heavy" horiz-adv-x="500" >
  <font-face 
    font-family="Iosevka Heavy"
    font-weight="900"
    font-stretch="normal"
    units-per-em="1000"
    panose-1="2 0 10 9 0 0 0 0 0 0"
    ascent="800"
    descent="-200"
    x-height="530"
    cap-height="735"
    bbox="-479 -450 573 1201"
    underline-thickness="0"
    underline-position="50"
    unicode-range="U+0020-FB02"
  />
<missing-glyph 
d="M42 0v735h416v-735h-416zM168 126h164v483h-164v-483z" />
    <glyph glyph-name=".notdef" 
d="M42 0v735h416v-735h-416zM168 126h164v483h-164v-483z" />
    <glyph glyph-name=".notdef" 
d="M42 0v735h416v-735h-416zM168 126h164v483h-164v-483z" />
    <glyph glyph-name="glyph1" horiz-adv-x="0" 
 />
    <glyph glyph-name="glyph2" horiz-adv-x="333" 
 />
    <glyph glyph-name="space" unicode=" " 
 />
    <glyph glyph-name="uni0307" unicode="&#x307;" horiz-adv-x="0" 
d="M-340 685.5q0 28.5 12 48.5q11 18 29 29q21 12 49.5 12t48.5 -12q18 -11 29 -29q12 -21 12 -49.5t-12 -48.5q-11 -18 -29 -29q-20 -12 -49 -12t-49 12q-18 11 -29 29q-12 21 -12 49.5z" />
    <glyph glyph-name="uni0308" unicode="&#x308;" horiz-adv-x="0" 
d="M-428.5 685q-0.5 25 10.5 43q9 16 25 25q18 10 43 10.5t43 -10.5q16 -9 25 -25q10 -18 10.5 -43t-10.5 -43q-9 -16 -25 -25q-18 -11 -43 -11t-43 11q-16 9 -25 25q-10 18 -10.5 43zM-228.5 685q-0.5 25 10.5 43q9 16 25 25q18 10 43 10.5t43 -10.5q16 -9 25 -25
q10 -18 10.5 -43t-10.5 -43q-9 -16 -25 -25q-18 -11 -43 -11t-43 11q-16 9 -25 25q-10 18 -10.5 43z" />
    <glyph glyph-name="uni030A" unicode="&#x30a;" horiz-adv-x="0" 
d="M-365 651q0 37 15 63q13 23 37 37q26 15 63 15t63 -15q23 -13 37 -37q15 -26 15 -63t-15 -63q-13 -23 -37 -36q-26 -15 -63 -15t-63 15q-23 13 -37 36q-15 26 -15 63zM-287 651q0 -17 10 -27t27 -10t27 10t10 27t-10 27t-27 10t-27 -10t-10 -27z" />
    <glyph glyph-name="uni1AB2" unicode="&#x1ab2;" horiz-adv-x="0" 
d="M-460 651q0 37 15 63q13 23 37 37q26 15 63 15t63 -15q23 -13 37 -37q15 -26 15 -63t-15 -63q-13 -23 -37 -36q-26 -15 -63 -15t-63 15q-23 13 -37 36q-15 26 -15 63zM-382 651q0 -17 10 -27t27 -10t27 10t10 27t-10 27t-27 10t-27 -10t-10 -27zM-270 651q0 37 15 63
q13 23 37 37q26 15 63 15t63 -15q23 -13 37 -37q15 -26 15 -63t-15 -63q-13 -23 -37 -36q-26 -15 -63 -15t-63 15q-23 13 -37 36q-15 26 -15 63zM-192 651q0 -17 10 -27t27 -10t27 10t10 27t-10 27t-27 10t-27 -10t-10 -27z" />
    <glyph glyph-name="gravecomb" unicode="&#x300;" horiz-adv-x="0" 
d="M-394 705l88 77l147 -166l-72 -63z" />
    <glyph glyph-name="grave" unicode="`" 
d="M59 716l105 101l225 -230l-86 -83z" />
    <glyph glyph-name="acutecomb" unicode="&#x301;" horiz-adv-x="0" 
d="M-341 616l147 166l88 -77l-163 -152z" />
    <glyph glyph-name="acute" unicode="&#xb4;" 
d="M111 587l225 230l105 -101l-244 -212z" />
    <glyph glyph-name="uni0302" unicode="&#x302;" horiz-adv-x="0" 
d="M-452 630l141 146h122l141 -146l-93 -72l-109 139l-109 -139z" />
    <glyph glyph-name="asciicircum" unicode="^" 
d="M-9 593l185 205h148l185 -205l-114 -83l-145 191l-145 -191z" />
    <glyph glyph-name="uni030C" unicode="&#x30c;" horiz-adv-x="0" 
d="M-452 708l93 72l109 -139l109 139l93 -72l-141 -145h-122z" />
    <glyph glyph-name="tildecomb" unicode="&#x303;" horiz-adv-x="0" 
d="M-445 626q13 28 25 49q33 57 68 77q22 13 46 13t45 -12q22 -13 52 -52q9 -12 16 -19q21 23 48 81l90 -38q-13 -28 -25 -50q-33 -57 -68 -77q-22 -13 -46 -12q-24 0 -45 12q-22 13 -52 52q-9 12 -16 19q-21 -23 -48 -81z" />
    <glyph glyph-name="asciitilde.ss09" 
d="M-6 596q22 50 43 86q40 69 80 93q25 15 53 14q27 0 52 -14q30 -18 73 -78q24 -34 35 -45q17 15 39 53q19 33 41 81l96 -39q-22 -50 -43 -86q-40 -69 -80 -92q-25 -15 -53 -15q-27 0 -52 14q-30 18 -73 78q-22 32 -33 43l-2 2q-17 -15 -39 -53q-19 -33 -41 -81z" />
    <glyph glyph-name="uni034A" unicode="&#x34a;" horiz-adv-x="0" 
d="M-431 638q40 58 76 79q24 14 49 14q12 0 26 -5l9 45l82 -16l-16 -78q8 -6 11 -6t8 3q22 13 55 60l62 -38q-40 -58 -76 -79q-24 -14 -49 -14q-12 0 -26 5l-9 -44l-82 15l16 79q-8 6 -11 5q-3 0 -8 -3q-22 -13 -55 -60z" />
    <glyph glyph-name="uni034B" unicode="&#x34b;" horiz-adv-x="0" 
d="M-431 638q40 58 76 79q24 14 49 14q37 0 82 -39q24 -20 30 -21q3 0 8 3q22 13 55 60l62 -38q-40 -58 -76 -79q-24 -14 -49 -14q-37 0 -82 40q-24 20 -30 20q-3 0 -8 -3q-22 -13 -55 -60zM-290 571.5q0 18.5 10.5 29.5t29.5 11t29.5 -11t10.5 -29.5t-10.5 -29.5t-29.5 -11
t-29.5 11t-10.5 29.5zM-290 763.5q0 18.5 10.5 29t29.5 10.5t29.5 -10.5t10.5 -29t-10.5 -29.5t-29.5 -11t-29.5 11t-10.5 29.5z" />
    <glyph glyph-name="uni034C" unicode="&#x34c;" horiz-adv-x="0" 
d="M-431 562q40 58 76 78q24 14 49 14q37 0 82 -39q24 -20 30 -21q3 0 8 3q22 13 55 61l62 -39q-40 -58 -76 -79q-24 -14 -49 -13q-37 0 -82 39q-24 20 -30 21q-3 0 -8 -3q-22 -13 -55 -61zM-431 677q40 58 76 79q24 14 49 13q37 0 82 -39q24 -20 30 -21q3 0 8 4
q22 13 55 60l62 -39q-40 -58 -76 -78q-24 -14 -49 -14q-37 0 -82 39q-24 20 -30 21q-3 0 -8 -3q-22 -13 -55 -61z" />
    <glyph glyph-name="uni0304" unicode="&#x304;" horiz-adv-x="0" 
d="M-400 635v100h300v-100h-300z" />
    <glyph glyph-name="uni0305" unicode="&#x305;" horiz-adv-x="0" 
d="M-458 635v100h416v-100h-416z" />
    <glyph glyph-name="uni033F" unicode="&#x33f;" horiz-adv-x="0" 
d="M-458 584v53h416v-53h-416zM-458 691v53h416v-53h-416z" />
    <glyph glyph-name="uni0306" unicode="&#x306;" horiz-adv-x="0" 
d="M-426 744h112q0 -26 16 -42q17 -17 48 -17t48 17q16 16 16 42h112q0 -48 -20 -83q-19 -33 -54 -53q-42 -24 -102 -24t-102 24q-34 20 -54 53q-20 35 -20 83z" />
    <glyph glyph-name="uni0311" unicode="&#x311;" horiz-adv-x="0" 
d="M-426 584q0 48 20 83q19 33 54 53q42 24 102 24t102 -24q34 -20 54 -53q20 -35 20 -83h-112q0 26 -16 42q-17 17 -48 17.5t-48 -17.5q-16 -16 -16 -42h-112z" />
    <glyph glyph-name="hookabovecomb" unicode="&#x309;" horiz-adv-x="0" 
d="M-318 680v64h81q32 0 55 -13q19 -11 29 -29q11 -19 11 -45.5t-11 -46.5q-10 -18 -29 -29q-23 -13 -55 -13h-48v64h48q11 0 17.5 6.5t6.5 17.5t-6.5 17.5t-17.5 6.5h-81z" />
    <glyph glyph-name="uni030F" unicode="&#x30f;" horiz-adv-x="0" 
d="M-309 705l88 77l147 -166l-72 -63zM-479 705l88 77l147 -166l-72 -63z" />
    <glyph glyph-name="uni030B" unicode="&#x30b;" horiz-adv-x="0" 
d="M-256 616l147 166l88 -77l-163 -152zM-426 616l147 166l88 -77l-163 -152z" />
    <glyph glyph-name="uni0313" unicode="&#x313;" horiz-adv-x="0" 
d="M-311 719.5q0 19.5 8 33.5q7 12 20 19q14 8 33.5 8t32.5 -8q12 -7 20 -19q8 -14 8 -34q0 -71 -33 -128q-16 -28 -40 -51l-47 44q32 32 44 75q-26 5 -38 27q-8 14 -8 33.5z" />
    <glyph glyph-name="uni0312" unicode="&#x312;" horiz-adv-x="0" 
d="M-311 611q0 71 33 128q16 28 40 51l47 -44q-32 -32 -44 -75q26 -5 38 -26q8 -14 8 -33.5t-8 -33.5q-7 -12 -20 -20q-14 -8 -33.5 -8t-32.5 8q-12 7 -20 20t-8 33z" />
    <glyph glyph-name="uni0314" unicode="&#x314;" horiz-adv-x="0" 
d="M-311 719q0 20 8 34q7 12 20 19q14 8 33.5 8t32.5 -8q12 -7 20 -19q8 -14 8 -33.5t-8 -33.5q-12 -22 -38 -27q12 -43 44 -75l-47 -44q-24 23 -40 51q-33 57 -33 128z" />
    <glyph glyph-name="uni030D" unicode="&#x30d;" horiz-adv-x="0" 
d="M-306 584v160h112v-160h-112z" />
    <glyph glyph-name="uni030E" unicode="&#x30e;" horiz-adv-x="0" 
d="M-231 584v160h112v-160h-112zM-381 584v160h112v-160h-112z" />
    <glyph glyph-name="uni0346" unicode="&#x346;" horiz-adv-x="0" 
d="M-400 584v160h300v-160h-100v70h-100v-70h-100z" />
    <glyph glyph-name="uni033E" unicode="&#x33e;" horiz-adv-x="0" 
d="M-322 704q0 17 12 28.5t28 11.5h96q-14 -1 -24 -12q-12 -12 -12 -28q0 -18 22 -39.5t22 -40.5q0 -17 -12 -28.5t-28 -11.5h-96q14 1 24 12q12 12 12 28q0 18 -22 39.5t-22 40.5z" />
    <glyph glyph-name="uni0310" unicode="&#x310;" horiz-adv-x="0" 
d="M-393 711h73q0 -23 9 -39q8 -14 22 -22q16 -9 39 -9t39 9q14 8 22 22q9 16 9 39h73q0 -42 -18 -72q-16 -28 -44 -44q-33 -19 -80.5 -19t-81.5 19q-28 16 -44 44q-17 30 -18 72zM-302 711q0 24 14 38t38 14t38 -14t14 -38t-14 -38t-38 -14t-38 14t-14 38z" />
    <glyph glyph-name="uni0340" unicode="&#x340;" horiz-adv-x="0" 
d="M-354 732l108 52l95 -201l-88 -43z" />
    <glyph glyph-name="uni0341" unicode="&#x341;" horiz-adv-x="0" 
d="M-349 583l95 201l108 -52l-115 -192z" />
    <glyph glyph-name="uni0342" unicode="&#x342;" horiz-adv-x="0" 
d="M-426 584q0 48 20 83q19 33 54 53q42 24 102 24t102 -24q34 -20 54 -53q20 -35 20 -83h-112q0 26 -16 42q-17 17 -48 17.5t-48 -17.5q-16 -16 -16 -42h-112z" />
    <glyph glyph-name="uni0343" unicode="&#x343;" horiz-adv-x="0" 
d="M-311 719.5q0 19.5 8 33.5q7 12 20 19q14 8 33.5 8t32.5 -8q12 -7 20 -19q8 -14 8 -34q0 -71 -33 -128q-16 -28 -40 -51l-47 44q32 32 44 75q-26 5 -38 27q-8 14 -8 33.5z" />
    <glyph glyph-name="uni033D" unicode="&#x33d;" horiz-adv-x="0" 
d="M-381 620l56 44l-56 45l62 70l69 -55l69 55l62 -70l-56 -45l56 -44l-62 -71l-69 55l-69 -55z" />
    <glyph glyph-name="uni1DFE" unicode="&#x1dfe;" horiz-adv-x="0" 
d="M-350 622v85l181 79l38 -84l-103 -38l103 -38l-38 -84z" />
    <glyph glyph-name="uni0350" unicode="&#x350;" horiz-adv-x="0" 
d="M-369 626l103 38l-103 38l38 84l181 -79v-85l-181 -80z" />
    <glyph glyph-name="uni0327" unicode="&#x327;" horiz-adv-x="0" 
d="M-350 -134h100q19 0 19 17t-19 17h-44v100h88v-27q35 -11 52 -41q12 -21 12 -49.5t-12 -49.5q-12 -20 -33 -32q-26 -15 -63 -15h-100v80z" />
    <glyph glyph-name="uni0328" unicode="&#x328;" horiz-adv-x="0" 
d="M-391 -82q0 21 10 38q11 19 32 31q34 20 99 20v-15q-15 0 -24 -9q-8 -8 -8 -18t8 -17q11 -11 40 -12h69v-110h-66q-80 0 -115 20q-22 13 -35 34q-10 18 -10 38z" />
    <glyph glyph-name="glyph45" horiz-adv-x="0" 
d="M-391 -82q0 21 10 38q11 19 32 31q34 20 99 20v-15q-15 0 -24 -9q-8 -8 -8 -18t8 -17q11 -11 40 -12h69v-110h-66q-80 0 -115 20q-22 13 -35 34q-10 18 -10 38z" />
    <glyph glyph-name="uni0345" unicode="&#x345;" horiz-adv-x="0" 
d="M-306 -214v160h112v-160h-112z" />
    <glyph glyph-name="glyph47" horiz-adv-x="0" 
d="M-306 -214v160h112v-160h-112z" />
    <glyph glyph-name="uni031D" unicode="&#x31d;" horiz-adv-x="0" 
d="M-350 -124h50v70h100v-70h50v-90h-200v90z" />
    <glyph glyph-name="uni031E" unicode="&#x31e;" horiz-adv-x="0" 
d="M-350 -54h200v-91h-50v-69h-100v69h-50v91z" />
    <glyph glyph-name="uni0318" unicode="&#x318;" horiz-adv-x="0" 
d="M-350 -89h150v35h100v-160h-100v35h-150v90z" />
    <glyph glyph-name="uni0319" unicode="&#x319;" horiz-adv-x="0" 
d="M-400 -54h100v-35h150v-90h-150v-35h-100v160z" />
    <glyph glyph-name="uni0349" unicode="&#x349;" horiz-adv-x="0" 
d="M-350 -54h250v-160h-100v69h-150v91z" />
    <glyph glyph-name="uni031F" unicode="&#x31f;" horiz-adv-x="0" 
d="M-350 -89h50v35h100v-35h50v-90h-50v-35h-100v35h-50v90z" />
    <glyph glyph-name="uni0320" unicode="&#x320;" horiz-adv-x="0" 
d="M-400 -54h100v-35h100v35h100v-160h-100v35h-100v-35h-100v160z" />
    <glyph glyph-name="uni032A" unicode="&#x32a;" horiz-adv-x="0" 
d="M-400 -214v160h300v-160h-100v70h-100v-70h-100z" />
    <glyph glyph-name="uni033B" unicode="&#x33b;" horiz-adv-x="0" 
d="M-400 -54h300v-160h-300v160zM-300 -107v-54h100v54h-100z" />
    <glyph glyph-name="uni0347" unicode="&#x347;" horiz-adv-x="0" 
d="M-350 -54h200v-53h-200v53zM-350 -161h200v-53h-200v53z" />
    <glyph glyph-name="uni032B" unicode="&#x32b;" horiz-adv-x="0" 
d="M-443 -54h112q0 -59 12.5 -59.5t12.5 59.5h112q0 -59 12.5 -59.5t12.5 59.5h112q0 -61 -24 -101q-17 -29 -43 -45q-25 -14 -58 -14t-58 14q-5 3 -10 7q-5 -4 -10 -7q-25 -14 -58.5 -14t-57.5 14q-26 15 -43 45q-23 40 -24 101z" />
    <glyph glyph-name="uni033C" unicode="&#x33c;" horiz-adv-x="0" 
d="M-443 -214q0 61 24 101q17 29 43 44q25 14 58 14.5t58 -14.5l10 -6q5 4 10 6q25 14 58.5 14.5t57.5 -14.5q26 -15 43 -44q23 -40 24 -101h-112q0 59 -12.5 59t-12.5 -59h-112q0 59 -12.5 59t-12.5 -59h-112z" />
    <glyph glyph-name="uni031C" unicode="&#x31c;" horiz-adv-x="0" 
d="M-340 -134q0 39 16 67q15 26 41 40q30 17 73 18v-90q-12 0 -20 -8q-9 -9 -9.5 -26.5t9.5 -27.5q8 -8 20 -8v-90q-43 0 -73 17q-26 15 -41 41q-16 28 -16 67z" />
    <glyph glyph-name="uni0339" unicode="&#x339;" horiz-adv-x="0" 
d="M-290 -9q43 0 73 -18q26 -15 41 -40q16 -28 16 -67t-16 -67q-15 -26 -41 -41q-30 -17 -73 -17v90q12 0 20 8q9 9 9.5 26.5t-9.5 27.5q-8 8 -20 8v90z" />
    <glyph glyph-name="uni0351" unicode="&#x351;" horiz-adv-x="0" 
d="M-340 664q0 39 16 67q15 26 41 40q30 17 73 18v-90q-12 0 -20 -8q-9 -9 -9.5 -26.5t9.5 -27.5q8 -8 20 -8v-90q-43 0 -73 17q-26 15 -41 41q-16 28 -16 67z" />
    <glyph glyph-name="uni0357" unicode="&#x357;" horiz-adv-x="0" 
d="M-290 789q43 0 73 -18q26 -15 41 -40q16 -28 16 -67t-16 -67q-15 -26 -41 -41q-30 -17 -73 -17v90q12 0 20 8q9 9 9.5 26.5t-9.5 27.5q-8 8 -20 8v90z" />
    <glyph glyph-name="uni0316" unicode="&#x316;" horiz-adv-x="0" 
d="M-341 -86l72 63l163 -152l-88 -77z" />
    <glyph glyph-name="uni0317" unicode="&#x317;" horiz-adv-x="0" 
d="M-394 -175l163 152l72 -63l-147 -166z" />
    <glyph glyph-name="dotbelowcomb" unicode="&#x323;" horiz-adv-x="0" 
d="M-340 -154.5q0 28.5 12 48.5q11 18 29 29q21 12 49.5 12t48.5 -12q18 -11 29 -29q12 -21 12 -49.5t-12 -48.5q-11 -18 -29 -29q-20 -12 -49 -12t-49 12q-18 11 -29 29q-12 21 -12 49.5z" />
    <glyph glyph-name="uni0324" unicode="&#x324;" horiz-adv-x="0" 
d="M-428.5 -155q-0.5 25 10.5 43q9 16 25 25q18 10 43 10.5t43 -10.5q16 -9 25 -25q10 -18 10.5 -43t-10.5 -43q-9 -16 -25 -25q-18 -11 -43 -11t-43 11q-16 9 -25 25q-10 18 -10.5 43zM-228.5 -155q-0.5 25 10.5 43q9 16 25 25q18 10 43 10.5t43 -10.5q16 -9 25 -25
q10 -18 10.5 -43t-10.5 -43q-9 -16 -25 -25q-18 -11 -43 -11t-43 11q-16 9 -25 25q-10 18 -10.5 43z" />
    <glyph glyph-name="uni0330" unicode="&#x330;" horiz-adv-x="0" 
d="M-445 -195q13 28 25 50q33 57 68 77q22 13 46 12q24 0 45 -12q22 -13 52 -52q9 -12 16 -19q21 23 48 81l90 -38q-13 -28 -25 -49q-33 -57 -68 -77q-22 -13 -46 -13t-45 12q-22 13 -52 52q-9 12 -16 19q-21 -23 -48 -81z" />
    <glyph glyph-name="uni0325" unicode="&#x325;" horiz-adv-x="0" 
d="M-365 -121q0 37 15 63q13 23 37 37q26 15 63 15t63 -15q23 -13 37 -37q15 -26 15 -63t-15 -63q-13 -23 -37 -36q-26 -15 -63 -15t-63 15q-23 13 -37 36q-15 26 -15 63zM-287 -121q0 -17 10 -27t27 -10t27 10t10 27t-10 27t-27 10t-27 -10t-10 -27z" />
    <glyph glyph-name="uni0331" unicode="&#x331;" horiz-adv-x="0" 
d="M-400 -205v100h300v-100h-300z" />
    <glyph glyph-name="uni033A" unicode="&#x33a;" horiz-adv-x="0" 
d="M-400 -54h100v-70h100v70h100v-160h-300v160z" />
    <glyph glyph-name="uni0332" unicode="&#x332;" horiz-adv-x="0" 
d="M-458 -205v100h416v-100h-416z" />
    <glyph glyph-name="uni0333" unicode="&#x333;" horiz-adv-x="0" 
d="M-458 -214v53h416v-53h-416zM-458 -107v53h416v-53h-416z" />
    <glyph glyph-name="uni032D" unicode="&#x32d;" horiz-adv-x="0" 
d="M-452 -178l141 146h122l141 -146l-93 -72l-109 139l-109 -139z" />
    <glyph glyph-name="uni032C" unicode="&#x32c;" horiz-adv-x="0" 
d="M-452 -100l93 72l109 -139l109 139l93 -72l-141 -145h-122z" />
    <glyph glyph-name="uni032E" unicode="&#x32e;" horiz-adv-x="0" 
d="M-426 -54h112q0 -26 16 -42q17 -17 48 -17t48 17q16 16 16 42h112q0 -48 -20 -83q-19 -33 -54 -53q-42 -24 -102 -24t-102 24q-34 20 -54 53q-20 35 -20 83z" />
    <glyph glyph-name="uni032F" unicode="&#x32f;" horiz-adv-x="0" 
d="M-426 -214q0 48 20 83q19 33 54 53q42 24 102 24t102 -24q34 -20 54 -53q20 -35 20 -83h-112q0 26 -16 42q-17 17 -48 17.5t-48 -17.5q-16 -16 -16 -42h-112z" />
    <glyph glyph-name="uni0326" unicode="&#x326;" horiz-adv-x="0" 
d="M-311 -80.5q0 19.5 8 33.5q7 12 20 19q14 8 33.5 8t32.5 -8q12 -7 20 -19q8 -14 8 -34q0 -71 -33 -128q-16 -28 -40 -51l-47 44q32 32 44 75q-26 5 -38 27q-8 14 -8 33.5z" />
    <glyph glyph-name="uni0329" unicode="&#x329;" horiz-adv-x="0" 
d="M-306 -214v160h112v-160h-112z" />
    <glyph glyph-name="uni0348" unicode="&#x348;" horiz-adv-x="0" 
d="M-381 -214v160h112v-160h-112zM-231 -214v160h112v-160h-112z" />
    <glyph glyph-name="uni0353" unicode="&#x353;" horiz-adv-x="0" 
d="M-381 -178l56 44l-56 45l62 70l69 -55l69 55l62 -70l-56 -45l56 -44l-62 -71l-69 55l-69 -55z" />
    <glyph glyph-name="uni0354" unicode="&#x354;" horiz-adv-x="0" 
d="M-350 -176v85l181 79l38 -84l-103 -38l103 -38l-38 -84z" />
    <glyph glyph-name="uni0355" unicode="&#x355;" horiz-adv-x="0" 
d="M-369 -172l103 38l-103 38l38 84l181 -79v-85l-181 -80z" />
    <glyph glyph-name="uni035A" unicode="&#x35a;" horiz-adv-x="0" 
d="M-270 -121q0 37 15 63q13 23 37 37q26 15 63 15t63 -15q23 -13 37 -37q15 -26 15 -63t-15 -63q-13 -23 -37 -36q-26 -15 -63 -15t-63 15q-23 13 -37 36q-15 26 -15 63zM-192 -121q0 -17 10 -27t27 -10t27 10t10 27t-10 27t-27 10t-27 -10t-10 -27zM-460 -121q0 37 15 63
q13 23 37 37q26 15 63 15t63 -15q23 -13 37 -37q15 -26 15 -63t-15 -63q-13 -23 -37 -36q-26 -15 -63 -15t-63 15q-23 13 -37 36q-15 26 -15 63zM-382 -121q0 -17 10 -27t27 -10t27 10t10 27t-10 27t-27 10t-27 -10t-10 -27z" />
    <glyph glyph-name="uni034D" unicode="&#x34d;" horiz-adv-x="0" 
d="M-442 -134l122 103l40 -46l-37 -28h134l-37 28l40 46l122 -103l-122 -103l-40 46l37 27h-134l37 -27l-40 -46z" />
    <glyph glyph-name="uni034E" unicode="&#x34e;" horiz-adv-x="0" 
d="M-348 -115l98 102l98 -102l-46 -38l-21 23v-84h-62v84l-21 -23z" />
    <glyph glyph-name="uni031B" unicode="&#x31b;" horiz-adv-x="0" 
d="M-116 586q51 11 87 32q5 3 9 5q-11 8 -19 21q-10 17 -10 41t10 41q9 15 24 24q17 10 41 10t42 -10q15 -9 24 -24q10 -17 10 -41v-3q0 -37 -19 -69q-21 -36 -65 -62q-50 -29 -117 -42z" />
    <glyph glyph-name="uni031A" unicode="&#x31a;" horiz-adv-x="0" 
d="M-150 654v90h250v-160h-100v70h-150z" />
    <glyph glyph-name="uni0358" unicode="&#x358;" horiz-adv-x="0" 
d="M-90 685.5q0 28.5 12 48.5q11 18 29 29q21 12 49.5 12t48.5 -12q18 -11 29 -29q12 -21 12 -49.5t-12 -48.5q-11 -18 -29 -29q-20 -12 -49 -12t-49 12q-18 11 -29 29q-12 21 -12 49.5z" />
    <glyph glyph-name="uni0315" unicode="&#x315;" horiz-adv-x="0" 
d="M-95 496.5q0 19.5 8 33.5q7 12 20 19q14 8 33.5 8t32.5 -8q12 -7 20 -19q8 -14 8 -34q0 -71 -33 -128q-16 -28 -40 -51l-47 44q32 32 44 75q-26 5 -38 27q-8 14 -8 33.5z" />
    <glyph glyph-name="uni0322" unicode="&#x322;" horiz-adv-x="0" 
d="M-140 0v8h140v-8q0 -36 11 -55q9 -16 25 -25q21 -12 64 -12v-126q-105 0 -156 29q-37 22 -59 59q-25 44 -25 130z" />
    <glyph glyph-name="uni0321" unicode="&#x321;" horiz-adv-x="0" 
d="M-240 -92q44 0 64 12q16 9 25 25q11 19 11 55v8h140v-8q0 -86 -25 -130q-22 -37 -59 -59q-50 -29 -156 -29v126z" />
    <glyph glyph-name="uni0334" unicode="&#x334;" horiz-adv-x="0" 
d="M-445 227q13 28 25 49q33 57 68 77q22 13 46 13t45 -12q22 -13 52 -52q9 -12 16 -19q21 23 48 81l90 -38q-13 -28 -25 -50q-33 -57 -68 -77q-22 -13 -46 -12q-24 0 -45 12q-22 13 -52 52q-9 12 -16 19q-21 -23 -48 -81z" />
    <glyph glyph-name="uni0335" unicode="&#x335;" horiz-adv-x="0" 
d="M-381 220v90h262v-90h-262z" />
    <glyph glyph-name="uni0336" unicode="&#x336;" horiz-adv-x="0" 
d="M-479 220v90h458v-90h-458z" />
    <glyph glyph-name="uniE090" unicode="&#xe090;" horiz-adv-x="0" 
d="M-412 235l280 140l44 -80l-280 -140z" />
    <glyph glyph-name="uni0337" unicode="&#x337;" horiz-adv-x="0" 
d="M-434 -39l300 636l68 -28l-300 -636z" />
    <glyph glyph-name="uni0338" unicode="&#x338;" horiz-adv-x="0" 
d="M-436 -165l301 882l71 -22l-301 -882z" />
    <glyph glyph-name="uni0361" unicode="&#x361;" horiz-adv-x="0" 
d="M-312 789q61 65 135 109q89 51 177 51t177 -51q75 -43 135 -109l-81 -68q-50 58 -111 93q-60 35 -120 35t-120 -35q-61 -35 -111 -93z" />
    <glyph glyph-name="uni035D" unicode="&#x35d;" horiz-adv-x="0" 
d="M-312 949l81 68q50 -58 111 -93q60 -35 120 -34.5t120 34.5q61 35 111 93l81 -68q-61 -65 -135 -109q-89 -51 -177 -51t-177 51q-75 43 -135 109z" />
    <glyph glyph-name="uni035C" unicode="&#x35c;" 
d="M-312 -259l81 68q50 -58 111 -93q60 -35 120 -34.5t120 34.5q61 35 111 93l81 -68q-61 -65 -135 -109q-89 -51 -177 -51t-177 51q-75 43 -135 109z" />
    <glyph glyph-name="uni035E" unicode="&#x35e;" horiz-adv-x="0" 
d="M-312 840v100h624v-100h-624z" />
    <glyph glyph-name="uni035F" unicode="&#x35f;" 
d="M-312 -410v100h624v-100h-624z" />
    <glyph glyph-name="uni0313_gravecomb.ccmp" horiz-adv-x="0" 
d="M-279 732l108 52l95 -201l-88 -43zM-386 719.5q0 19.5 8 33.5q7 12 20 19q14 8 33.5 8t32.5 -8q12 -7 20 -19q8 -14 8 -34q0 -71 -33 -128q-16 -28 -40 -51l-47 44q32 32 44 75q-26 5 -38 27q-8 14 -8 33.5z" />
    <glyph glyph-name="uni1FCD" unicode="&#x1fcd;" 
d="M221 732l108 52l95 -201l-88 -43zM114 719.5q0 19.5 8 33.5q7 12 20 19q14 8 33.5 8t32.5 -8q12 -7 20 -19q8 -14 8 -34q0 -71 -33 -128q-16 -28 -40 -51l-47 44q32 32 44 75q-26 5 -38 27q-8 14 -8 33.5z" />
    <glyph glyph-name="uni0313_acutecomb.ccmp" horiz-adv-x="0" 
d="M-274 583l95 201l108 -52l-115 -192zM-386 719.5q0 19.5 8 33.5q7 12 20 19q14 8 33.5 8t32.5 -8q12 -7 20 -19q8 -14 8 -34q0 -71 -33 -128q-16 -28 -40 -51l-47 44q32 32 44 75q-26 5 -38 27q-8 14 -8 33.5z" />
    <glyph glyph-name="uni1FCE" unicode="&#x1fce;" 
d="M226 583l95 201l108 -52l-115 -192zM114 719.5q0 19.5 8 33.5q7 12 20 19q14 8 33.5 8t32.5 -8q12 -7 20 -19q8 -14 8 -34q0 -71 -33 -128q-16 -28 -40 -51l-47 44q32 32 44 75q-26 5 -38 27q-8 14 -8 33.5z" />
    <glyph glyph-name="uni0314_gravecomb.ccmp" horiz-adv-x="0" 
d="M-279 732l108 52l95 -201l-88 -43zM-386 719q0 20 8 34q7 12 20 19q14 8 33.5 8t32.5 -8q12 -7 20 -19q8 -14 8 -33.5t-8 -33.5q-12 -22 -38 -27q12 -43 44 -75l-47 -44q-24 23 -40 51q-33 57 -33 128z" />
    <glyph glyph-name="uni1FDD" unicode="&#x1fdd;" 
d="M221 732l108 52l95 -201l-88 -43zM114 719q0 20 8 34q7 12 20 19q14 8 33.5 8t32.5 -8q12 -7 20 -19q8 -14 8 -33.5t-8 -33.5q-12 -22 -38 -27q12 -43 44 -75l-47 -44q-24 23 -40 51q-33 57 -33 128z" />
    <glyph glyph-name="uni0314_acutecomb.ccmp" horiz-adv-x="0" 
d="M-274 583l95 201l108 -52l-115 -192zM-386 719q0 20 8 34q7 12 20 19q14 8 33.5 8t32.5 -8q12 -7 20 -19q8 -14 8 -33.5t-8 -33.5q-12 -22 -38 -27q12 -43 44 -75l-47 -44q-24 23 -40 51q-33 57 -33 128z" />
    <glyph glyph-name="uni1FDE" unicode="&#x1fde;" 
d="M226 583l95 201l108 -52l-115 -192zM114 719q0 20 8 34q7 12 20 19q14 8 33.5 8t32.5 -8q12 -7 20 -19q8 -14 8 -33.5t-8 -33.5q-12 -22 -38 -27q12 -43 44 -75l-47 -44q-24 23 -40 51q-33 57 -33 128z" />
    <glyph glyph-name="uni0313_uni0342.ccmp" horiz-adv-x="0" 
d="M-398 719q0 44 18 75q17 29 46 46q35 20 84 20t84 -20q30 -17 46 -46q18 -31 18 -75h-72q0 35 -20.5 55.5t-55.5 20.5t-55.5 -20.5t-20.5 -55.5h-72zM-311 719.5q0 19.5 8 33.5q7 12 20 19q14 8 33.5 8t32.5 -8q12 -7 20 -19q8 -14 8 -34q0 -71 -33 -128q-16 -28 -40 -51
l-47 44q32 32 44 75q-26 5 -38 27q-8 14 -8 33.5z" />
    <glyph glyph-name="uni1FCF" unicode="&#x1fcf;" 
d="M102 719q0 44 18 75q17 29 46 46q35 20 84 20t84 -20q30 -17 46 -46q18 -31 18 -75h-72q0 35 -20.5 55.5t-55.5 20.5t-55.5 -20.5t-20.5 -55.5h-72zM189 719.5q0 19.5 8 33.5q7 12 20 19q14 8 33.5 8t32.5 -8q12 -7 20 -19q8 -14 8 -34q0 -71 -33 -128q-16 -28 -40 -51
l-47 44q32 32 44 75q-26 5 -38 27q-8 14 -8 33.5z" />
    <glyph glyph-name="uni0314_uni0342.ccmp" horiz-adv-x="0" 
d="M-398 719q0 44 18 75q17 29 46 46q35 20 84 20t84 -20q30 -17 46 -46q18 -31 18 -75h-72q0 35 -20.5 55.5t-55.5 20.5t-55.5 -20.5t-20.5 -55.5h-72zM-311 719q0 20 8 34q7 12 20 19q14 8 33.5 8t32.5 -8q12 -7 20 -19q8 -14 8 -33.5t-8 -33.5q-12 -22 -38 -27
q12 -43 44 -75l-47 -44q-24 23 -40 51q-33 57 -33 128z" />
    <glyph glyph-name="uni1FDF" unicode="&#x1fdf;" 
d="M102 719q0 44 18 75q17 29 46 46q35 20 84 20t84 -20q30 -17 46 -46q18 -31 18 -75h-72q0 35 -20.5 55.5t-55.5 20.5t-55.5 -20.5t-20.5 -55.5h-72zM189 719q0 20 8 34q7 12 20 19q14 8 33.5 8t32.5 -8q12 -7 20 -19q8 -14 8 -33.5t-8 -33.5q-12 -22 -38 -27
q12 -43 44 -75l-47 -44q-24 23 -40 51q-33 57 -33 128z" />
    <glyph glyph-name="glyph116" 
d="M180 0v735h140v-735h-140z" />
    <glyph glyph-name="glyph117" 
d="M110 0v126h70v483h-70v126h280v-126h-70v-483h70v-126h-280z" />
    <glyph glyph-name="I" unicode="I" 
d="M110 0v126h70v483h-70v126h280v-126h-70v-483h70v-126h-280z" />
    <glyph glyph-name="Iota" unicode="&#x399;" 
d="M110 0v126h70v483h-70v126h280v-126h-70v-483h70v-126h-280z" />
    <glyph glyph-name="afii10055" unicode="&#x406;" 
d="M110 0v126h70v483h-70v126h280v-126h-70v-483h70v-126h-280z" />
    <glyph glyph-name="uni04C0" unicode="&#x4c0;" 
d="M110 0v126h70v483h-70v126h280v-126h-70v-483h70v-126h-280z" />
    <glyph glyph-name="uni026A" unicode="&#x26a;" 
d="M110 0v126h70v278h-70v126h280v-126h-70v-278h70v-126h-280z" />
    <glyph glyph-name="glyph123" 
d="M180 0v530h140v-530h-140z" />
    <glyph glyph-name="dotlessi.ss01" 
d="M82 404v126h245v-530h-140v404h-105z" />
    <glyph glyph-name="dotlessi.ss02" 
d="M75 404v126h245v-404h105v-126h-245v404h-105z" />
    <glyph glyph-name="dotlessi.cv03" 
d="M75 0v126h112v278h-98v126h238v-404h98v-126h-350z" />
    <glyph glyph-name="dotlessi.ss03" 
d="M58 404v126h245v-354q0 -36 15 -51q7 -7 16.5 -7t15.5 7q15 15 17 53l138 -23q-3 -47 -25 -85q-21 -36 -56 -56q-38 -22 -90 -22t-89 22q-35 20 -56 56q-25 44 -26 106v228h-105z" />
    <glyph glyph-name="dotlessi" unicode="&#x131;" 
d="M75 0v126h112v278h-98v126h238v-404h98v-126h-350z" />
    <glyph glyph-name="glyph129" 
d="M75 0v126h112v278h-98v126h238v-404h98v-126h-350zM109 -82q0 21 10 38q11 19 32 31q34 20 99 20v-15q-15 0 -24 -9q-8 -8 -8 -18t8 -17q11 -11 40 -12h69v-110h-66q-80 0 -115 20q-22 13 -35 34q-10 18 -10 38z" />
    <glyph glyph-name="i" unicode="i" 
d="M75 0v126h112v278h-98v126h238v-404h98v-126h-350zM160 685.5q0 28.5 12 48.5q11 18 29 29q21 12 49.5 12t48.5 -12q18 -11 29 -29q12 -21 12 -49.5t-12 -48.5q-11 -18 -29 -29q-20 -12 -49 -12t-49 12q-18 11 -29 29q-12 21 -12 49.5z" />
    <glyph glyph-name="i.cv03" 
d="M75 0v126h112v278h-98v126h238v-404h98v-126h-350zM160 685.5q0 28.5 12 48.5q11 18 29 29q21 12 49.5 12t48.5 -12q18 -11 29 -29q12 -21 12 -49.5t-12 -48.5q-11 -18 -29 -29q-20 -12 -49 -12t-49 12q-18 11 -29 29q-12 21 -12 49.5z" />
    <glyph glyph-name="i.ss03" 
d="M58 404v126h245v-354q0 -36 15 -51q7 -7 16.5 -7t15.5 7q15 15 17 53l138 -23q-3 -47 -25 -85q-21 -36 -56 -56q-38 -22 -90 -22t-89 22q-35 20 -56 56q-25 44 -26 106v228h-105zM143 685.5q0 28.5 12 48.5q11 18 29 29q21 12 49.5 12t48.5 -12q18 -11 29 -29
q12 -21 12 -49.5t-12 -48.5q-11 -18 -29 -29q-20 -12 -49 -12t-49 12q-18 11 -29 29q-12 21 -12 49.5z" />
    <glyph glyph-name="i.ss01" 
d="M82 404v126h245v-530h-140v404h-105zM160 685.5q0 28.5 12 48.5q11 18 29 29q21 12 49.5 12t48.5 -12q18 -11 29 -29q12 -21 12 -49.5t-12 -48.5q-11 -18 -29 -29q-20 -12 -49 -12t-49 12q-18 11 -29 29q-12 21 -12 49.5z" />
    <glyph glyph-name="i.ss02" 
d="M75 404v126h245v-404h105v-126h-245v404h-105zM160 685.5q0 28.5 12 48.5q11 18 29 29q21 12 49.5 12t48.5 -12q18 -11 29 -29q12 -21 12 -49.5t-12 -48.5q-11 -18 -29 -29q-20 -12 -49 -12t-49 12q-18 11 -29 29q-12 21 -12 49.5z" />
    <glyph glyph-name="afii10103" unicode="&#x456;" 
d="M75 0v126h112v278h-98v126h238v-404h98v-126h-350zM160 685.5q0 28.5 12 48.5q11 18 29 29q21 12 49.5 12t48.5 -12q18 -11 29 -29q12 -21 12 -49.5t-12 -48.5q-11 -18 -29 -29q-20 -12 -49 -12t-49 12q-18 11 -29 29q-12 21 -12 49.5z" />
    <glyph glyph-name="uni1D09" unicode="&#x1d09;" 
d="M75 404v126h350v-126h-112v-278h98v-126h-238v404h-98zM160 -154.5q0 28.5 12 48.5q11 18 29 29q21 12 49.5 12t48.5 -12q18 -11 29 -29q12 -21 12 -49.5t-12 -48.5q-11 -18 -29 -29q-20 -12 -49 -12t-49 12q-18 11 -29 29q-12 21 -12 49.5z" />
    <glyph glyph-name="iota" unicode="&#x3b9;" 
d="M75 404v126h245v-375q0 -16 8 -23q6 -6 14 -6h92v-126h-92q-54 0 -91 22q-32 19 -51 50q-20 35 -20 83v249h-105z" />
    <glyph glyph-name="uni0269" unicode="&#x269;" 
d="M75 404v126h245v-375q0 -16 8 -23q6 -6 14 -6h92v-126h-92q-54 0 -91 22q-32 19 -51 50q-20 35 -20 83v249h-105z" />
    <glyph glyph-name="uni0196" unicode="&#x196;" 
d="M75 609v126h245v-580q0 -16 8 -23q6 -6 14 -6h92v-126h-92q-54 0 -91 22q-32 19 -51 50q-20 35 -20 83v454h-105z" />
    <glyph glyph-name="glyph140" 
d="M26 155l135 36q5 -39 24 -59q14 -14 35 -14q20 0 34 14q26 26 26 83v520h140v-520q0 -77 -32 -131q-25 -43 -66 -67q-43 -25 -101.5 -25t-101.5 25q-41 24 -67 67q-20 32 -26 71z" />
    <glyph glyph-name="glyph141" 
d="M167 -8v126q44 0 66 13q20 11 31 31q16 27 16 87v486h140v-485q0 -108 -31 -162q-24 -42 -67 -66q-52 -30 -155 -30z" />
    <glyph glyph-name="glyph142" 
d="M26 155l135 36q5 -39 24 -59q14 -14 35 -14q20 0 34 14q26 26 26 83v394h-106v126h246v-520q0 -77 -32 -131q-25 -43 -66 -67q-43 -25 -101.5 -25t-101.5 25q-41 24 -67 67q-20 32 -26 71z" />
    <glyph glyph-name="J" unicode="J" 
d="M26 155l135 36q5 -39 24 -59q14 -14 35 -14q20 0 34 14q26 26 26 83v394h-106v126h246v-520q0 -77 -32 -131q-25 -43 -66 -67q-43 -25 -101.5 -25t-101.5 25q-41 24 -67 67q-20 32 -26 71z" />
    <glyph glyph-name="afii10057" unicode="&#x408;" 
d="M26 155l135 36q5 -39 24 -59q14 -14 35 -14q20 0 34 14q26 26 26 83v394h-106v126h246v-520q0 -77 -32 -131q-25 -43 -66 -67q-43 -25 -101.5 -25t-101.5 25q-41 24 -67 67q-20 32 -26 71z" />
    <glyph glyph-name="glyph145" 
d="M-17 -70l130 46q4 -17 12 -31q10 -17 24 -25q13 -7 29 -7q15 0 27 7q14 8 23 24q15 26 15 66v520h140v-520q0 -76 -31 -129q-25 -43 -67 -68q-45 -26 -107 -26t-107 26q-42 24 -68 68q-13 23 -20 49z" />
    <glyph glyph-name="glyph146" 
d="M-17 -70l130 46q4 -17 12 -31q10 -17 24 -25q13 -7 29 -7q15 0 27 7q14 8 23 24q15 26 15 66v394h-105v126h245v-520q0 -76 -31 -129q-25 -43 -67 -68q-45 -26 -107 -26t-107 26q-42 24 -68 68q-13 23 -20 49z" />
    <glyph glyph-name="uni0237" unicode="&#x237;" 
d="M-17 -70l130 46q4 -17 12 -31q10 -17 24 -25q13 -7 29 -7q15 0 27 7q14 8 23 24q15 26 15 66v394h-105v126h245v-520q0 -76 -31 -129q-25 -43 -67 -68q-45 -26 -107 -26t-107 26q-42 24 -68 68q-13 23 -20 49z" />
    <glyph glyph-name="j" unicode="j" 
d="M-17 -70l130 46q4 -17 12 -31q10 -17 24 -25q13 -7 29 -7q15 0 27 7q14 8 23 24q15 26 15 66v394h-105v126h245v-520q0 -76 -31 -129q-25 -43 -67 -68q-45 -26 -107 -26t-107 26q-42 24 -68 68q-13 23 -20 49zM200 685.5q0 28.5 12 48.5q11 18 29 29q21 12 49.5 12
t48.5 -12q18 -11 29 -29q12 -21 12 -49.5t-12 -48.5q-11 -18 -29 -29q-20 -12 -49 -12t-49 12q-18 11 -29 29q-12 21 -12 49.5z" />
    <glyph glyph-name="afii10105" unicode="&#x458;" 
d="M-17 -70l130 46q4 -17 12 -31q10 -17 24 -25q13 -7 29 -7q15 0 27 7q14 8 23 24q15 26 15 66v394h-105v126h245v-520q0 -76 -31 -129q-25 -43 -67 -68q-45 -26 -107 -26t-107 26q-42 24 -68 68q-13 23 -20 49zM200 685.5q0 28.5 12 48.5q11 18 29 29q21 12 49.5 12
t48.5 -12q18 -11 29 -29q12 -21 12 -49.5t-12 -48.5q-11 -18 -29 -29q-20 -12 -49 -12t-49 12q-18 11 -29 29q-12 21 -12 49.5z" />
    <glyph glyph-name="uni029D" unicode="&#x29d;" 
d="M57 -69q0 47 21 82q15 26 41 41q35 20 84 21q20 -1 40 -4v333h-105v126h245v-530q52 -45 90 -110q20 -34 33 -72l-102 -31q-10 31 -27 59q-7 12 -14 23q-1 -1 -1 -2q-19 -33 -54 -54q-46 -26 -104 -26q-47 0 -83 20q-28 16 -44 45q-20 34 -20 79zM165 -69q0 -24 12 -36
q11 -11 27 -11q15 0 25 10q14 14 14 51v26q-18 7 -34 7q-21 0 -32 -11q-12 -12 -12 -36zM223 685.5q0 28.5 12 48.5q11 18 29 29q21 12 49.5 12t48.5 -12q18 -11 29 -29q12 -21 12 -49.5t-12 -48.5q-11 -18 -29 -29q-20 -12 -49 -12t-49 12q-18 11 -29 29q-12 21 -12 49.5z
" />
    <glyph glyph-name="L" unicode="L" 
d="M63 0v735h140v-609h263v-126h-403z" />
    <glyph glyph-name="uniA780" unicode="&#xa780;" 
d="M34 609v126h403v-735h-140v609h-263z" />
    <glyph glyph-name="Lcaron" unicode="&#x13d;" 
d="M63 0v735h140v-609h263v-126h-403zM345 719.5q0 19.5 8 33.5q7 12 20 19q14 8 33.5 8t32.5 -8q12 -7 20 -19q8 -14 8 -34q0 -71 -33 -128q-16 -28 -40 -51l-47 44q32 32 44 75q-26 5 -38 27q-8 14 -8 33.5z" />
    <glyph glyph-name="Lslash" unicode="&#x141;" 
d="M63 0v735h140v-609h263v-126h-403zM-1 400l280 140l44 -80l-280 -140z" />
    <glyph glyph-name="Ldot" unicode="&#x13f;" 
d="M63 0v735h140v-609h263v-126h-403zM222 431.5q0 28.5 12 48.5q11 18 29 29q21 12 49.5 12t48.5 -12q18 -11 29 -29q12 -21 12 -49.5t-12 -48.5q-11 -18 -29 -29q-20 -12 -49 -12t-49 12q-18 11 -29 29q-12 21 -12 49.5z" />
    <glyph glyph-name="uni023D" unicode="&#x23d;" 
d="M13 337v90h50v308h140v-308h55v-90h-55v-211h263v-126h-403v337h-50z" />
    <glyph glyph-name="uni029F" unicode="&#x29f;" 
d="M63 0v530h140v-404h263v-126h-403z" />
    <glyph glyph-name="glyph158" 
d="M180 0v735h140v-735h-140z" />
    <glyph glyph-name="l.ss01" 
d="M82 609v126h245v-735h-140v609h-105z" />
    <glyph glyph-name="l.ss02" 
d="M75 609v126h245v-609h105v-126h-245v609h-105z" />
    <glyph glyph-name="l.cv07" 
d="M75 0v126h112v483h-98v126h238v-609h98v-126h-350z" />
    <glyph glyph-name="l.ss03" 
d="M42 609v126h265v-548q0 -47 16 -63q6 -6 13 -6q8 0 14 6q15 15 17 56l138 -25q-4 -47 -26 -84t-57 -58q-36 -21 -85.5 -21t-85.5 21q-35 20 -57 57q-27 48 -27 117v422h-125z" />
    <glyph glyph-name="l" unicode="l" 
d="M75 0v126h112v483h-98v126h238v-609h98v-126h-350z" />
    <glyph glyph-name="uni04CF" unicode="&#x4cf;" 
d="M75 0v126h112v483h-98v126h238v-609h98v-126h-350z" />
    <glyph glyph-name="uniA781" unicode="&#xa781;" 
d="M75 404v126h350v-126h-112v-483h98v-126h-238v609h-98z" />
    <glyph glyph-name="ldot" unicode="&#x140;" 
d="M30 0v126h112v483h-98v126h238v-609h98v-126h-350zM278 431.5q0 28.5 12 48.5q11 18 29 29q21 12 49.5 12t48.5 -12q18 -11 29 -29q12 -21 12 -49.5t-12 -48.5q-11 -18 -29 -29q-20 -12 -49 -12t-49 12q-18 11 -29 29q-12 21 -12 49.5z" />
    <glyph glyph-name="uni026D" unicode="&#x26d;" 
d="M82 609v126h245v-735q0 -36 11 -55q9 -16 25 -25q21 -12 64 -12v-126q-105 0 -156 29q-37 22 -59 59q-25 44 -25 130v609h-105z" />
    <glyph glyph-name="uni0234" unicode="&#x234;" 
d="M8 -72q20 71 56 136q52 89 116 143v402h-105v126h245v-459q20 3 41 4q48 0 83 -20q26 -15 41 -42q20 -35 21 -82q0 -45 -20 -79q-16 -28 -44 -45q-35 -20 -83 -20q-58 0 -104 26q-35 20 -54 54q-1 3 -3 5q-20 -26 -38 -58q-32 -55 -48 -116zM320 150q0 -37 14 -51
q10 -10 25 -10q16 0 27 11q12 12 12 36t-12 36t-32 11q-16 1 -34 -6v-27z" />
    <glyph glyph-name="uni026B" unicode="&#x26b;" 
d="M75 0v126h112v483h-98v126h238v-609h98v-126h-350zM55 348q13 28 25 49q33 57 68 77q22 13 46 13t45 -12q22 -13 52 -52q9 -12 16 -19q21 23 48 81l90 -38q-13 -28 -25 -50q-33 -57 -68 -77q-22 -13 -46 -12q-24 0 -45 12q-22 13 -52 52q-9 12 -16 19q-21 -23 -48 -81z
" />
    <glyph glyph-name="uni026C" unicode="&#x26c;" 
d="M37 367q0 31 13 54q12 21 34 33q26 15 63 15h40v140h-98v126h238v-394h101v-75h-101v-140h98v-126h-350v126h112v140h-40q-37 0 -63 15q-22 12 -34 33q-13 22 -13 53zM121 367.5q0 -12.5 7 -19.5t19 -7h40v53h-40q-12 0 -19 -7t-7 -19.5z" />
    <glyph glyph-name="uniA78E" unicode="&#xa78e;" 
d="M37 367q0 31 13 54q12 21 34 33q26 15 63 15h40v140h-105v126h245v-394h101v-75h-101v-266q0 -36 11 -55q9 -16 25 -25q21 -12 64 -12v-126q-105 0 -156 29q-37 22 -59 59q-25 44 -25 130v266h-40q-37 0 -63 15q-22 12 -34 33q-13 22 -13 53zM121 367.5q0 -12.5 7 -19.5
t19 -7h40v53h-40q-12 0 -19 -7t-7 -19.5z" />
    <glyph glyph-name="uni01AA" unicode="&#x1aa;" 
d="M34 608q0 40 16 68q15 26 42 41q31 18 75 18q55 0 94 -22q29 -17 44 -43q15 -27 15 -62v-608q0 -54 42 -78q24 -14 58 -14v-126q-82 0 -140 33q-47 27 -72 72q-28 48 -28 113v482q-7 -1 -15 -1q-43 0 -74 18q-26 15 -41 41q-16 28 -16 68zM127.5 607.5
q0.5 -20.5 11.5 -31.5q10 -10 26 -10q8 -1 15 2v40q0 42 -16 42q-14 0 -25 -10q-12 -12 -11.5 -32.5z" />
    <glyph glyph-name="V" unicode="V" 
d="M42 662v73h140v-73q0 -153 68 -469q68 315 68 469v73h140v-73q0 -200 -138 -662h-140q-138 462 -138 662z" />
    <glyph glyph-name="v" unicode="v" 
d="M42 477v53h140v-53q0 -108 68 -333q68 225 68 333v53h140v-53q0 -144 -138 -477h-140q-138 333 -138 477z" />
    <glyph glyph-name="uni2C71" unicode="&#x2c71;" 
d="M42 477v53h140v-53q0 -105 64 -319q9 68 17 169q6 75 27.5 113t59.5 60q51 30 164 30h1v-126q-46 0 -70 -13q-18 -11 -29 -30q-10 -18 -15 -54q-32 -229 -81 -307h-140q-138 333 -138 477z" />
    <glyph glyph-name="afii10196" unicode="&#x475;" 
d="M42 477v53h140v-53q0 -105 64 -319q9 68 17 169q6 75 27.5 113t59.5 60q51 30 164 30h1v-126q-46 0 -70 -13q-18 -11 -29 -30q-10 -18 -15 -54q-32 -229 -81 -307h-140q-138 333 -138 477z" />
    <glyph glyph-name="afii10148" unicode="&#x474;" 
d="M42 662v73h140v-73q0 -144 60 -431q11 118 20 290q4 82 27 122q23 39 62 62q52 30 164 30v-126q-47 0 -71 -13q-18 -11 -29 -30t-14 -58q-31 -375 -81 -508h-140q-138 462 -138 662z" />
    <glyph glyph-name="uni028C" unicode="&#x28c;" 
d="M42 0v53q0 144 138 477h140q138 -333 138 -477v-53h-140v53q0 108 -68 333q-68 -225 -68 -333v-53h-140z" />
    <glyph glyph-name="nu" unicode="&#x3bd;" 
d="M-23 474l121 64q102 -175 152 -312q68 164 68 251v53h140v-53q0 -145 -161 -477h-140q0 164 -180 474z" />
    <glyph glyph-name="A" unicode="A" 
d="M42 0v74q0 200 138 661h140q138 -461 138 -661v-74h-140v74q0 30 -3 65h-130q-3 -35 -3 -65v-74h-140zM199 265h102q-17 118 -51 277q-34 -159 -51 -277z" />
    <glyph glyph-name="Alpha" unicode="&#x391;" 
d="M42 0v74q0 200 138 661h140q138 -461 138 -661v-74h-140v74q0 30 -3 65h-130q-3 -35 -3 -65v-74h-140zM199 265h102q-17 118 -51 277q-34 -159 -51 -277z" />
    <glyph glyph-name="afii10017" unicode="&#x410;" 
d="M42 0v74q0 200 138 661h140q138 -461 138 -661v-74h-140v74q0 30 -3 65h-130q-3 -35 -3 -65v-74h-140zM199 265h102q-17 118 -51 277q-34 -159 -51 -277z" />
    <glyph glyph-name="uni2C6F" unicode="&#x2c6f;" 
d="M42 662v73h140v-73q0 -30 3 -66h130q3 36 3 66v73h140v-73q0 -200 -138 -662h-140q-138 462 -138 662zM199 470q17 -118 51 -277q34 159 51 277h-102z" />
    <glyph glyph-name="a.cv01" 
d="M34 161q0 50 21 86q22 38 64 62q60 35 152 35h47v12q0 22 -14 37q-19 19 -57 19t-59 -20q-15 -15 -18 -37l-130 45q6 23 17 44q24 41 65 65q50 29 125 29t126 -30q40 -23 62.5 -61.5t22.5 -90.5v-356h-140v58q-20 -29 -49 -46q-34 -20 -80 -20q-47 0 -80 19
q-32 19 -51 52q-24 41 -24 98zM174 162q0 -16 11 -26q18 -18 54 -18q25 0 43 10q16 9 25 26q11 18 11 44v20h-47q-59 0 -84 -25q-13 -13 -13 -31z" />
    <glyph glyph-name="a.cv02" 
d="M34 220v90q0 91 34 150q23 40 58 60q32 18 72 18q39 0 68 -17q31 -18 52 -52v61h140v-530h-140v61q-21 -34 -52 -52q-15 -8 -31.5 -12.5t-36.5 -4.5q-41 0 -72 18q-35 20 -58 60q-34 59 -34 150zM174 220q0 -40 15 -66q10 -18 27 -27q15 -9 33 -9q17 0 29 7q14 8 25 25
q15 27 15 70v90q0 43 -15 70q-10 17 -25 25q-12 7 -29 7q-19 0 -33 -9q-16 -9 -27 -27q-15 -26 -15 -66v-90z" />
    <glyph glyph-name="a" unicode="a" 
d="M34 161q0 50 21 86q22 38 64 62q60 35 152 35h47v12q0 22 -14 37q-19 19 -57 19t-59 -20q-15 -15 -18 -37l-130 45q6 23 17 44q24 41 65 65q50 29 125 29t126 -30q40 -23 62.5 -61.5t22.5 -90.5v-356h-140v58q-20 -29 -49 -46q-34 -20 -80 -20q-47 0 -80 19
q-32 19 -51 52q-24 41 -24 98zM174 162q0 -16 11 -26q18 -18 54 -18q25 0 43 10q16 9 25 26q11 18 11 44v20h-47q-59 0 -84 -25q-13 -13 -13 -31z" />
    <glyph glyph-name="afii10065" unicode="&#x430;" 
d="M34 161q0 50 21 86q22 38 64 62q60 35 152 35h47v12q0 22 -14 37q-19 19 -57 19t-59 -20q-15 -15 -18 -37l-130 45q6 23 17 44q24 41 65 65q50 29 125 29t126 -30q40 -23 62.5 -61.5t22.5 -90.5v-356h-140v58q-20 -29 -49 -46q-34 -20 -80 -20q-47 0 -80 19
q-32 19 -51 52q-24 41 -24 98zM174 162q0 -16 11 -26q18 -18 54 -18q25 0 43 10q16 9 25 26q11 18 11 44v20h-47q-59 0 -84 -25q-13 -13 -13 -31z" />
    <glyph glyph-name="uni2C6D" unicode="&#x2c6d;" 
d="M34 220v295q0 91 34 150q23 40 58 60q32 18 72 18q39 0 68 -17q31 -18 53 -53l139 70v-743h-140v61q-21 -34 -52 -52q-15 -8 -31.5 -12.5t-36.5 -4.5q-41 0 -72 18q-35 20 -58 60q-34 59 -34 150zM174 220q0 -40 15 -66q10 -18 27 -27q15 -9 33 -9q17 0 29 7q14 8 25 25
q15 27 15 70v295q0 43 -15 70q-10 17 -25 25q-12 7 -29 7q-19 0 -33 -9q-16 -9 -27 -27q-15 -26 -15 -66v-295z" />
    <glyph glyph-name="uni2C70" unicode="&#x2c70;" 
d="M42 -8v743h140v-61q21 34 52 52q29 17 68 17q41 0 72 -18q35 -20 58 -60q34 -59 34 -150v-295q0 -91 -34 -150q-23 -40 -58 -60q-32 -18 -72 -18q-39 0 -68 17q-31 18 -53 53zM182 220q0 -43 15 -70q10 -17 25 -25q12 -7 29 -7q19 0 33 9q16 9 27 27q15 26 15 66v295
q0 40 -15 66q-10 18 -27 27q-15 9 -33 9q-17 0 -29 -7q-14 -8 -25 -25q-15 -27 -15 -70v-295z" />
    <glyph glyph-name="uni0251" unicode="&#x251;" 
d="M34 220v90q0 91 34 150q23 40 58 60q32 18 72 18q39 0 68 -17q31 -18 53 -53l139 70v-538h-140v61q-21 -34 -52 -52q-15 -8 -31.5 -12.5t-36.5 -4.5q-41 0 -72 18q-35 20 -58 60q-34 59 -34 150zM174 220q0 -40 15 -66q10 -18 27 -27q15 -9 33 -9q17 0 29 7q14 8 25 25
q15 27 15 70v90q0 43 -15 70q-10 17 -25 25q-12 7 -29 7q-19 0 -33 -9q-16 -9 -27 -27q-15 -26 -15 -66v-90z" />
    <glyph glyph-name="uni0250" unicode="&#x250;" 
d="M42 174v356h140v-58q20 29 49 46q34 20 80 20q47 0 80 -19q32 -19 51 -52q24 -41 24 -98q0 -50 -21 -86q-22 -38 -64 -62q-60 -35 -152 -35h-47v-12q0 -22 14 -37q19 -19 57 -19t59 20q15 15 18 37l130 -45q-6 -23 -17 -44q-24 -41 -65 -65q-50 -29 -125 -29t-126 30
q-40 23 -62.5 61.5t-22.5 90.5zM182 312h47q59 0 84 25q13 13 13 31q0 16 -11 26q-18 18 -54 18q-25 0 -43 -10q-16 -9 -25 -26q-11 -18 -11 -44v-20z" />
    <glyph glyph-name="uni0252" unicode="&#x252;" 
d="M42 -8v538h140v-61q21 34 52 52q29 17 68 17q41 0 72 -18q35 -20 58 -60q34 -59 34 -150v-90q0 -91 -34 -150q-23 -40 -58 -60q-32 -18 -72 -18q-39 0 -68 17q-31 18 -53 53zM182 220q0 -43 15 -70q10 -17 25 -25q12 -7 29 -7q19 0 33 9q16 9 27 27q15 26 15 66v90
q0 40 -15 66q-10 18 -27 27q-15 9 -33 9q-17 0 -29 -7q-14 -8 -25 -25q-15 -27 -15 -70v-90z" />
    <glyph glyph-name="W" unicode="W" 
d="M42 551v184h140v-184q0 -105 -1 -297l38 187h62l38 -187q-1 192 -1 297v184h140v-184q0 -167 -89 -551h-63l-56 283l-56 -283h-63q-89 384 -89 551z" />
    <glyph glyph-name="uni051C" unicode="&#x51c;" 
d="M42 551v184h140v-184q0 -105 -1 -297l38 187h62l38 -187q-1 192 -1 297v184h140v-184q0 -167 -89 -551h-63l-56 283l-56 -283h-63q-89 384 -89 551z" />
    <glyph glyph-name="w" unicode="w" 
d="M42 398v132h140v-132q0 -75 -1 -215l38 135h62l38 -135q-1 139 -1 215v132h140v-132q0 -121 -89 -398h-63l-56 204l-56 -204h-63q-89 278 -89 398z" />
    <glyph glyph-name="uni051D" unicode="&#x51d;" 
d="M42 398v132h140v-132q0 -75 -1 -215l38 135h62l38 -135q-1 139 -1 215v132h140v-132q0 -121 -89 -398h-63l-56 204l-56 -204h-63q-89 278 -89 398z" />
    <glyph glyph-name="uni028D" unicode="&#x28d;" 
d="M42 0v132q0 121 89 398h63l56 -204l56 204h63q89 -278 89 -398v-132h-140v132q0 75 1 215l-38 -135h-62l-38 135q1 -139 1 -215v-132h-140z" />
    <glyph glyph-name="uni2C72" unicode="&#x2c72;" 
d="M42 551v184h140v-184q0 -105 -1 -297l38 187h62l38 -187q-1 212 -1 326q0 88 72 130q44 25 108 25v-126q-22 0 -33 -11q-7 -7 -7 -18q0 -176 -89 -580h-63l-56 283l-56 -283h-63q-89 384 -89 551z" />
    <glyph glyph-name="uni2C73" unicode="&#x2c73;" 
d="M42 398v132h140v-132q0 -75 -1 -215l38 135h62l38 -135q-1 124 -1 192q0 88 72 130q44 25 108 25v-126q-22 0 -33 -11q-7 -7 -7 -18q0 -114 -89 -375h-63l-56 204l-56 -204h-63q-89 278 -89 398z" />
    <glyph glyph-name="uni02AC" unicode="&#x2ac;" 
d="M42 276v92h89q-89 192 -89 275v92h140v-92q0 -52 -2 -149l39 94h62l39 -94q-2 97 -2 149v92h140v-92q0 -83 -89 -275h89v-92q0 -84 -89 -276h-63l-56 141l-56 -141h-63q-89 192 -89 276zM180 127l39 93h62l39 -93q-2 97 -2 149v92h-12l-56 141l-56 -141h-12v-92
q0 -52 -2 -149z" />
    <glyph glyph-name="X" unicode="X" 
d="M42 0v37q0 108 65 219l64 112l-64 111q-65 112 -65 219v37h140v-37q0 -77 46 -156l22 -38l22 38q46 79 46 156v37h140v-37q0 -108 -65 -219l-64 -111l64 -112q65 -112 65 -219v-37h-140v37q0 77 -46 156l-22 38l-22 -38q-46 -79 -46 -156v-37h-140z" />
    <glyph glyph-name="Chi" unicode="&#x3a7;" 
d="M42 0v37q0 108 65 219l64 112l-64 111q-65 112 -65 219v37h140v-37q0 -77 46 -156l22 -38l22 38q46 79 46 156v37h140v-37q0 -108 -65 -219l-64 -111l64 -112q65 -112 65 -219v-37h-140v37q0 77 -46 156l-22 38l-22 -38q-46 -79 -46 -156v-37h-140z" />
    <glyph glyph-name="afii10039" unicode="&#x425;" 
d="M42 0v37q0 108 65 219l64 112l-64 111q-65 112 -65 219v37h140v-37q0 -77 46 -156l22 -38l22 38q46 79 46 156v37h140v-37q0 -108 -65 -219l-64 -111l64 -112q65 -112 65 -219v-37h-140v37q0 77 -46 156l-22 38l-22 -38q-46 -79 -46 -156v-37h-140z" />
    <glyph glyph-name="x" unicode="x" 
d="M42 0v5q0 53 66 159l62 101l-62 101q-66 106 -66 159v5h140v-5q0 -20 45 -93l23 -38l23 38q45 72 45 93v5h140v-5q0 -53 -66 -159l-62 -101l62 -101q66 -106 66 -159v-5h-140v5q0 20 -45 93l-23 38l-23 -38q-45 -72 -45 -93v-5h-140z" />
    <glyph glyph-name="afii10087" unicode="&#x445;" 
d="M42 0v5q0 53 66 159l62 101l-62 101q-66 106 -66 159v5h140v-5q0 -20 45 -93l23 -38l23 38q45 72 45 93v5h140v-5q0 -53 -66 -159l-62 -101l62 -101q66 -106 66 -159v-5h-140v5q0 20 -45 93l-23 38l-23 -38q-45 -72 -45 -93v-5h-140z" />
    <glyph glyph-name="chi" unicode="&#x3c7;" 
d="M42 -187q0 42 53 169q8 19 8 20l72 160l-72 161q-61 138 -61 189v18h140v-18q0 -29 40 -118l2 -4q2 -5 4.5 -9.5t2.5 -5.5l19 -43l19 43q49 111 49 137v18h140v-18q0 -42 -53 -169q-8 -19 -8 -20l-72 -161l72 -160q61 -138 61 -189v-18h-140v18q0 9 -4 25q-9 33 -36 93
l-2 5q-2 4 -4.5 8.5t-2.5 5.5l-19 43l-19 -43q-49 -111 -49 -137v-18h-140v18z" />
    <glyph glyph-name="uniAB53" unicode="&#xab53;" 
d="M42 -187q0 42 53 169q8 19 8 20l72 160l-72 161q-61 138 -61 189v18h140v-18q0 -29 40 -118l2 -4q2 -5 4.5 -9.5t2.5 -5.5l19 -43l19 43q49 111 49 137v18h140v-18q0 -42 -53 -169q-8 -19 -8 -20l-72 -161l72 -160q61 -138 61 -189v-18h-140v18q0 9 -4 25q-9 33 -36 93
l-2 5q-2 4 -4.5 8.5t-2.5 5.5l-19 43l-19 -43q-49 -111 -49 -137v-18h-140v18z" />
    <glyph glyph-name="uni04B2" unicode="&#x4b2;" 
d="M42 0v37q0 108 65 219l64 112l-64 111q-65 112 -65 219v37h140v-37q0 -77 46 -156l22 -38l22 38q46 79 46 156v37h140v-37q0 -108 -65 -219l-64 -111l64 -112q38 -66 54 -130h84v-238h-140v112h-73v37q0 77 -46 156l-22 38l-22 -38q-46 -79 -46 -156v-37h-140z" />
    <glyph glyph-name="uni04B3" unicode="&#x4b3;" 
d="M42 0v5q0 53 66 159l62 101l-62 101q-66 106 -66 159v5h140v-5q0 -20 45 -93l23 -38l23 38q45 72 45 93v5h140v-5q0 -53 -66 -159l-62 -101l62 -101q12 -20 23 -38h116v-238h-140v112h-73v5q0 20 -45 93l-23 38l-23 -38q-45 -72 -45 -93v-5h-140z" />
    <glyph glyph-name="Y" unicode="Y" 
d="M42 691v44h140v-44q0 -98 48 -198l20 -41l20 41q48 100 48 198v44h140v-44q0 -124 -62 -253l-76 -157v-281h-140v281l-76 157q-62 129 -62 253z" />
    <glyph glyph-name="Upsilon" unicode="&#x3a5;" 
d="M42 691v44h140v-44q0 -98 48 -198l20 -41l20 41q48 100 48 198v44h140v-44q0 -124 -62 -253l-76 -157v-281h-140v281l-76 157q-62 129 -62 253z" />
    <glyph glyph-name="uni04AE" unicode="&#x4ae;" 
d="M42 691v44h140v-44q0 -98 48 -198l20 -41l20 41q48 100 48 198v44h140v-44q0 -124 -62 -253l-76 -157v-281h-140v281l-76 157q-62 129 -62 253z" />
    <glyph glyph-name="uni01B3" unicode="&#x1b3;" 
d="M42 691v44h140v-44q0 -98 48 -198l5 -11q14 54 29 123q9 42 22 64q16 28 45 44q39 22 121 22h63v-126q-21 0 -42 3q-17 3 -25 3q-22 0 -34 -13q-8 -8 -13 -22q-71 -262 -81 -286v-294h-140v281l-76 157q-62 129 -62 253z" />
    <glyph glyph-name="uni04AF" unicode="&#x4af;" 
d="M42 486v44h140v-44q0 -98 48 -198l20 -41l20 41q48 100 48 198v44h140v-44q0 -124 -62 -253l-76 -157v-281h-140v281l-76 157q-62 129 -62 253z" />
    <glyph glyph-name="uni028F" unicode="&#x28f;" 
d="M42 498v32h140v-32q0 -63 43 -127l25 -37l25 37q43 65 43 127v32h140v-32q0 -84 -50 -169q-8 -14 -17 -28l-71 -106v-195h-140v195l-71 106q-9 14 -17 28q-50 86 -50 169z" />
    <glyph glyph-name="glyph216" 
d="M42 493v37h140v-37q0 -58 26 -146l40 -130l44 130q26 79 26 146v37h140v-37q0 -85 -34 -186l-148 -442q-6 -17 -6 -63v-7h-140v7q0 64 13 103l39 116l-106 286q-34 91 -34 186z" />
    <glyph glyph-name="glyph217" 
d="M42 493v37h140v-37q0 -58 26 -146l40 -130l44 130q26 79 26 146v37h140v-37q0 -85 -34 -186l-148 -442q-6 -17 -6 -63v-7h-140v7q0 64 13 103l39 116l-106 286q-34 91 -34 186z" />
    <glyph glyph-name="y" unicode="y" 
d="M42 493v37h140v-37q0 -58 26 -146l40 -130l44 130q26 79 26 146v37h140v-37q0 -85 -34 -186l-148 -442q-6 -17 -6 -63v-7h-140v7q0 64 13 103l39 116l-106 286q-34 91 -34 186z" />
    <glyph glyph-name="afii10085" unicode="&#x443;" 
d="M42 493v37h140v-37q0 -58 26 -146l40 -130l44 130q26 79 26 146v37h140v-37q0 -85 -34 -186l-148 -442q-6 -17 -6 -63v-7h-140v7q0 64 13 103l39 116l-106 286q-34 91 -34 186z" />
    <glyph glyph-name="uni028E" unicode="&#x28e;" 
d="M42 0v37q0 85 34 186l148 442q6 17 6 63v7h140v-7q0 -64 -13 -103l-39 -116l106 -286q34 -91 34 -186v-37h-140v37q0 58 -26 146l-40 130l-44 -130q-26 -79 -26 -146v-37h-140z" />
    <glyph glyph-name="uni01B4" unicode="&#x1b4;" 
d="M42 493v37h140v-37q0 -58 26 -146l40 -130l44 130q19 58 35 85q27 47 68 71q46 27 133 27v-126q-34 0 -52 -10.5t-30 -31.5q-8 -14 -22 -55l-148 -442q-6 -17 -6 -63v-7h-140v7q0 64 13 103l39 116l-106 286q-34 91 -34 186z" />
    <glyph glyph-name="afii10037" unicode="&#x423;" 
d="M42 698v37h140v-37q0 -58 26 -146l40 -130l44 130q26 79 26 146v37h140v-37q0 -85 -34 -186l-148 -442q-6 -17 -6 -63v-7h-140v7q0 64 13 103l39 116l-106 286q-34 91 -34 186z" />
    <glyph glyph-name="lambda" unicode="&#x3bb;" 
d="M42 0v37q0 85 34 186l101 301l-34 101q-13 39 -13 103v7h140v-7q0 -46 6 -63l148 -442q34 -100 34 -186v-37h-140v37q0 67 -26 146l-42 123l-42 -123q-26 -79 -26 -146v-37h-140z" />
    <glyph glyph-name="uni019B" unicode="&#x19b;" 
d="M42 0v37q0 85 34 186l101 301l-34 101q-13 39 -13 103v7h140v-7q0 -46 6 -63l148 -442q34 -100 34 -186v-37h-140v37q0 67 -26 146l-42 123l-42 -123q-26 -79 -26 -146v-37h-140zM88 484l280 140l44 -80l-280 -140z" />
    <glyph glyph-name="K" unicode="K" 
d="M42 0v735h140v-269q34 50 63 99q66 115 66 170h147q0 -51 -57 -149q-39 -67 -92 -139q157 -333 157 -447h-140q0 94 -95 349q-24 -28 -49 -58v-291h-140z" />
    <glyph glyph-name="Kappa" unicode="&#x39a;" 
d="M42 0v735h140v-269q34 50 63 99q66 115 66 170h147q0 -51 -57 -149q-39 -67 -92 -139q157 -333 157 -447h-140q0 94 -95 349q-24 -28 -49 -58v-291h-140z" />
    <glyph glyph-name="afii10028" unicode="&#x41a;" 
d="M42 0v735h140v-269q34 50 63 99q66 115 66 170h147q0 -51 -57 -149q-39 -67 -92 -139q157 -333 157 -447h-140q0 94 -95 349q-24 -28 -49 -58v-291h-140z" />
    <glyph glyph-name="uni049A" unicode="&#x49a;" 
d="M42 0v735h140v-269q34 50 63 99q66 115 66 170h147q0 -51 -57 -149q-39 -67 -92 -139q94 -200 132 -321h98v-238h-140v112h-73q0 94 -95 349q-24 -28 -49 -58v-291h-140z" />
    <glyph glyph-name="k" unicode="k" 
d="M42 0v735h140v-387q78 76 112 135q17 29 17 47h147q0 -21 -19 -54q-39 -67 -127 -152q36 -56 65 -107q89 -154 89 -217h-140q0 67 -96 250q-23 -20 -48 -40v-210h-140z" />
    <glyph glyph-name="kappa" unicode="&#x3ba;" 
d="M42 0v530h140v-182q78 76 112 135q17 29 17 47h147q0 -21 -19 -54q-39 -67 -127 -152q36 -56 65 -107q89 -154 89 -217h-140q0 67 -96 250q-23 -20 -48 -40v-210h-140z" />
    <glyph glyph-name="afii10076" unicode="&#x43a;" 
d="M42 0v530h140v-182q78 76 112 135q17 29 17 47h147q0 -21 -19 -54q-39 -67 -127 -152q36 -56 65 -107q89 -154 89 -217h-140q0 67 -96 250q-23 -20 -48 -40v-210h-140z" />
    <glyph glyph-name="kgreenlandic" unicode="&#x138;" 
d="M42 0v530h140v-182q78 76 112 135q17 29 17 47h147q0 -21 -19 -54q-39 -67 -127 -152q36 -56 65 -107q89 -154 89 -217h-140q0 67 -96 250q-23 -20 -48 -40v-210h-140z" />
    <glyph glyph-name="uni049B" unicode="&#x49b;" 
d="M42 0v530h140v-182q78 76 112 135q17 29 17 47h147q0 -21 -19 -54q-39 -67 -127 -152q36 -56 65 -107q29 -50 49 -91h113v-238h-140v112h-73q0 67 -96 250q-23 -20 -48 -40v-210h-140z" />
    <glyph glyph-name="uni0198" unicode="&#x198;" 
d="M42 0v517q0 65 28 113q26 45 72 72q57 33 140 33v-98q29 62 29 98h147q0 -51 -57 -149q-39 -67 -92 -139q157 -333 157 -447h-140q0 94 -95 349q-24 -28 -49 -58v-291h-140zM182 466q34 50 63 99q13 23 23 43q-25 -2 -44 -13q-42 -24 -42 -78v-51z" />
    <glyph glyph-name="uni0199" unicode="&#x199;" 
d="M42 0v517q0 65 28 113q26 45 72 72q57 33 140 33v-126q-34 0 -58 -14q-42 -24 -42 -78v-169q78 76 112 135q17 29 17 47h147q0 -21 -19 -54q-39 -67 -127 -152q36 -56 65 -107q89 -154 89 -217h-140q0 67 -96 250q-23 -20 -48 -40v-210h-140z" />
    <glyph glyph-name="uniA7B0" unicode="&#xa7b0;" 
d="M34 735h140q0 -94 95 -349q24 28 49 58v291h140v-735h-140v269q-34 -50 -63 -99q-66 -115 -66 -170h-147q0 51 57 149q39 67 92 139q-157 333 -157 447z" />
    <glyph glyph-name="uni029E" unicode="&#x29e;" 
d="M34 530h140q0 -67 96 -250q23 20 48 40v210h140v-735h-140v387q-78 -76 -112 -135q-17 -29 -17 -47h-147q0 21 19 54q39 67 127 152q-36 56 -65 107q-89 154 -89 217z" />
    <glyph glyph-name="B" unicode="B" 
d="M42 0v735h208q60 0 103 -25q40 -23 64 -64q28 -49 28 -117q0 -55 -22 -93q-18 -31 -48 -51q43 -24 67 -65t24 -100q0 -70 -30 -122q-26 -45 -69 -70q-49 -28 -117 -28h-208zM182 126h68q42 0 62 36q14 24 14 60q0 37 -14 61q-10 18 -26 27t-36 9h-68v-193zM182 445h68
q20 0 33 14q22 22 22 69q0 46 -22 67q-14 14 -33 14h-68v-164z" />
    <glyph glyph-name="Beta" unicode="&#x392;" 
d="M42 0v735h208q60 0 103 -25q40 -23 64 -64q28 -49 28 -117q0 -55 -22 -93q-18 -31 -48 -51q43 -24 67 -65t24 -100q0 -70 -30 -122q-26 -45 -69 -70q-49 -28 -117 -28h-208zM182 126h68q42 0 62 36q14 24 14 60q0 37 -14 61q-10 18 -26 27t-36 9h-68v-193zM182 445h68
q20 0 33 14q22 22 22 69q0 46 -22 67q-14 14 -33 14h-68v-164z" />
    <glyph glyph-name="afii10019" unicode="&#x412;" 
d="M42 0v735h208q60 0 103 -25q40 -23 64 -64q28 -49 28 -117q0 -55 -22 -93q-18 -31 -48 -51q43 -24 67 -65t24 -100q0 -70 -30 -122q-26 -45 -69 -70q-49 -28 -117 -28h-208zM182 126h68q42 0 62 36q14 24 14 60q0 37 -14 61q-10 18 -26 27t-36 9h-68v-193zM182 445h68
q20 0 33 14q22 22 22 69q0 46 -22 67q-14 14 -33 14h-68v-164z" />
    <glyph glyph-name="uni0181" unicode="&#x181;" 
d="M-78 565q0 69 26 113q17 29 42 44q22 13 52 13h208q60 0 103 -25q40 -23 64 -64q28 -49 28 -117q0 -55 -22 -93q-18 -31 -48 -51q43 -24 67 -65t24 -100q0 -70 -30 -122q-26 -45 -69 -70q-49 -28 -117 -28h-208v655q-7 0 -12 -5q-19 -19 -19 -85h-89zM182 126h68
q42 0 62 36q14 24 14 60q0 37 -14 61q-10 18 -26 27t-36 9h-68v-193zM182 445h68q20 0 33 14q22 22 22 69q0 46 -22 67q-14 14 -33 14h-68v-164z" />
    <glyph glyph-name="glyph242" 
d="M34 220v90q0 76 31 130q26 45 70 70q48 28 117 28q72 0 121 -29q38 -22 57 -56q20 -34 20 -80.5t-20 -80.5q-4 -8 -10 -15q16 -15 26 -34q20 -34 20 -80t-20 -81q-21 -36 -60 -59q-54 -31 -133 -31q-69 0 -117 28q-45 26 -71 70q-31 54 -31 130zM174 220q0 -40 15 -66
q11 -18 27 -27q15 -9 37 -9q43 0 63 20q10 10 10 24.5t-10 24.5q-20 20 -66 20h-62v126h62q34 0 51 16q9 9 9 23.5t-10 23.5q-16 16 -48 16q-21 0 -36 -9q-16 -9 -27 -27q-15 -26 -15 -66v-90z" />
    <glyph glyph-name="uni025E" unicode="&#x25e;" 
d="M34 220v90q0 76 31 130q26 45 70 70q48 28 117 28q72 0 121 -29q38 -22 57 -56q20 -34 20 -80.5t-20 -80.5q-4 -8 -10 -15q16 -15 26 -34q20 -34 20 -80t-20 -81q-21 -36 -60 -59q-54 -31 -133 -31q-69 0 -117 28q-45 26 -71 70q-31 54 -31 130zM174 220q0 -40 15 -66
q11 -18 27 -27q15 -9 37 -9q43 0 63 20q10 10 10 24.5t-10 24.5q-20 20 -66 20h-62v126h62q34 0 51 16q9 9 9 23.5t-10 23.5q-16 16 -48 16q-21 0 -36 -9q-16 -9 -27 -27q-15 -26 -15 -66v-90z" />
    <glyph glyph-name="glyph244" 
d="M42 0v530h230q59 0 100 -24q34 -20 53 -52q20 -35 20 -80q0 -35 -14 -60q-11 -19 -29 -32q31 -18 48 -47q16 -28 16 -68q0 -51 -22 -90q-20 -34 -54 -54q-40 -23 -96 -23h-252zM182 126h112q12 0 21 8q11 11 11 34q0 24 -12 37q-8 8 -20 8h-112v-87zM182 339h90
q15 0 24 9t9 25q0 14 -8 22q-9 9 -25 9h-90v-65z" />
    <glyph glyph-name="uni0299" unicode="&#x299;" 
d="M42 0v530h230q59 0 100 -24q34 -20 53 -52q20 -35 20 -80q0 -35 -14 -60q-11 -19 -29 -32q31 -18 48 -47q16 -28 16 -68q0 -51 -22 -90q-20 -34 -54 -54q-40 -23 -96 -23h-252zM182 126h112q12 0 21 8q11 11 11 34q0 24 -12 37q-8 8 -20 8h-112v-87zM182 339h90
q15 0 24 9t9 25q0 14 -8 22q-9 9 -25 9h-90v-65z" />
    <glyph glyph-name="afii10067" unicode="&#x432;" 
d="M42 0v530h230q59 0 100 -24q34 -20 53 -52q20 -35 20 -80q0 -35 -14 -60q-11 -19 -29 -32q31 -18 48 -47q16 -28 16 -68q0 -51 -22 -90q-20 -34 -54 -54q-40 -23 -96 -23h-252zM182 126h112q12 0 21 8q11 11 11 34q0 24 -12 37q-8 8 -20 8h-112v-87zM182 339h90
q15 0 24 9t9 25q0 14 -8 22q-9 9 -25 9h-90v-65z" />
    <glyph glyph-name="uni0243" unicode="&#x243;" 
d="M13 176v89h29v470h208q60 0 103 -25q40 -23 64 -64q28 -49 28 -117q0 -55 -22 -93q-18 -31 -48 -51q43 -24 67 -65t24 -100q0 -70 -30 -122q-26 -45 -69 -70q-49 -28 -117 -28h-208v176h-29zM182 126h68q42 0 62 36q14 24 14 60q0 37 -14 61q-10 18 -26 27t-36 9h-68v-54
h68v-89h-68v-50zM182 445h68q20 0 33 14q22 22 22 69q0 46 -22 67q-14 14 -33 14h-68v-164z" />
    <glyph glyph-name="beta" unicode="&#x3b2;" 
d="M42 -205v720q0 80 32 135q25 44 67 68q43 25 102 25q62 0 107 -26q41 -24 65 -65q27 -47 27 -111q0 -49 -20 -83q-19 -33 -54 -55q48 -27 74 -70q24 -42 24 -102q0 -71 -30 -123q-28 -48 -76 -75q-56 -33 -136 -33h-42v-205h-140zM182 126h42q31 0 55 13q21 12 33 33
q14 25 14 61t-15 62q-27 47 -87 46h-42v-215zM182 467h60q34 0 50 28q10 18 10 45q0 41 -21 62q-15 15 -38 15q-14 0 -24 -6q-12 -7 -21 -22q-16 -27 -16 -74v-48z" />
    <glyph glyph-name="b" unicode="b" 
d="M42 0v735h140v-266q21 34 52 52q29 17 68 17q41 0 72 -18q35 -20 58 -60q34 -59 34 -150v-90q0 -91 -34 -150q-23 -40 -58 -60q-32 -18 -72 -18q-39 0 -68 17q-31 18 -52 52v-61h-140zM182 220q0 -43 15 -70q10 -17 25 -25q12 -7 29 -7q19 0 33 9q16 9 27 27q15 26 15 66
v90q0 40 -15 66q-10 18 -27 27q-15 9 -33 9q-17 0 -29 -7q-14 -8 -25 -25q-15 -27 -15 -70v-90z" />
    <glyph glyph-name="uni0253" unicode="&#x253;" 
d="M42 0v515q0 77 31 131q26 45 70 70q47 27 112.5 27t112.5 -27q44 -25 70 -71q17 -30 25 -65l-134 -37q-3 21 -13 38q-10 18 -26 28q-15 8 -34 8t-33 -8q-16 -9 -26 -27q-15 -26 -15 -67v-46q21 34 52 52q29 17 68 17q41 0 72 -18q35 -20 58 -60q34 -59 34 -150v-90
q0 -91 -34 -150q-23 -40 -58 -60q-32 -18 -72 -18q-39 0 -68 17q-31 18 -52 52v-61h-140zM182 220q0 -43 15 -70q10 -17 25 -25q12 -7 29 -7q19 0 33 9q16 9 27 27q15 26 15 66v90q0 40 -15 66q-10 18 -27 27q-15 9 -33 9q-17 0 -29 -7q-14 -8 -25 -25q-15 -27 -15 -70v-90z
" />
    <glyph glyph-name="uni0180" unicode="&#x180;" 
d="M13 577v90h29v68h140v-68h68v-90h-68v-108q21 34 52 52q29 17 68 17q41 0 72 -18q35 -20 58 -60q34 -59 34 -150v-90q0 -91 -34 -150q-23 -40 -58 -60q-32 -18 -72 -18q-39 0 -68 17q-31 18 -52 52v-61h-140v577h-29zM182 220q0 -43 15 -70q10 -17 25 -25q12 -7 29 -7
q19 0 33 9q16 9 27 27q15 26 15 66v90q0 40 -15 66q-10 18 -27 27q-15 9 -33 9q-17 0 -29 -7q-14 -8 -25 -25q-15 -27 -15 -70v-90z" />
    <glyph glyph-name="uni1E03" unicode="&#x1e03;" 
d="M42 0v735h140v-266q21 34 52 52q29 17 68 17q41 0 72 -18q35 -20 58 -60q34 -59 34 -150v-90q0 -91 -34 -150q-23 -40 -58 -60q-32 -18 -72 -18q-39 0 -68 17q-31 18 -52 52v-61h-140zM182 220q0 -43 15 -70q10 -17 25 -25q12 -7 29 -7q19 0 33 9q16 9 27 27q15 26 15 66
v90q0 40 -15 66q-10 18 -27 27q-15 9 -33 9q-17 0 -29 -7q-14 -8 -25 -25q-15 -27 -15 -70v-90zM223 685.5q0 28.5 12 48.5q11 18 29 29q21 12 49.5 12t48.5 -12q18 -11 29 -29q12 -21 12 -49.5t-12 -48.5q-11 -18 -29 -29q-20 -12 -49 -12t-49 12q-18 11 -29 29
q-12 21 -12 49.5z" />
    <glyph glyph-name="uni0183" unicode="&#x183;" 
d="M42 0v735h374v-126h-234v-140q21 34 52 52q29 17 68 17q41 0 72 -18q35 -20 58 -60q34 -59 34 -150v-90q0 -91 -34 -150q-23 -40 -58 -60q-32 -18 -72 -18q-39 0 -68 17q-31 18 -52 52v-61h-140zM182 220q0 -43 15 -70q10 -17 25 -25q12 -7 29 -7q19 0 33 9q16 9 27 27
q15 26 15 66v90q0 40 -15 66q-10 18 -27 27q-15 9 -33 9q-17 0 -29 -7q-14 -8 -25 -25q-15 -27 -15 -70v-90z" />
    <glyph glyph-name="uni0185" unicode="&#x185;" 
d="M-84 609l126 126h140v-266q21 34 52 52q29 17 68 17q41 0 72 -18q35 -20 58 -60q34 -59 34 -150v-90q0 -91 -34 -150q-23 -40 -58 -60q-32 -18 -72 -18q-39 0 -68 17q-31 18 -52 52v-61h-140v483zM182 220q0 -43 15 -70q10 -17 25 -25q12 -7 29 -7q19 0 33 9q16 9 27 27
q15 26 15 66v90q0 40 -15 66q-10 18 -27 27q-15 9 -33 9q-17 0 -29 -7q-14 -8 -25 -25q-15 -27 -15 -70v-90z" />
    <glyph glyph-name="D" unicode="D" 
d="M42 0v735h180q69 0 121 -30q50 -29 82 -84q41 -71 41 -176v-155q0 -105 -41 -176q-32 -55 -82 -84q-51 -30 -121 -30h-180zM182 126h40q24 0 42 11q22 13 37 38q25 44 25 115v155q0 71 -25 115q-15 26 -37 38q-18 11 -42 11h-40v-483z" />
    <glyph glyph-name="Eth" unicode="&#xd0;" 
d="M13 337v90h29v308h180q69 0 121 -30q50 -29 82 -84q41 -71 41 -176v-155q0 -105 -41 -176q-32 -55 -82 -84q-51 -30 -121 -30h-180v337h-29zM182 126h40q24 0 42 11q22 13 37 38q25 44 25 115v155q0 71 -25 115q-15 26 -37 38q-18 11 -42 11h-40v-182h76v-90h-76v-211z
" />
    <glyph glyph-name="Dcroat" unicode="&#x110;" 
d="M13 337v90h29v308h180q69 0 121 -30q50 -29 82 -84q41 -71 41 -176v-155q0 -105 -41 -176q-32 -55 -82 -84q-51 -30 -121 -30h-180v337h-29zM182 126h40q24 0 42 11q22 13 37 38q25 44 25 115v155q0 71 -25 115q-15 26 -37 38q-18 11 -42 11h-40v-182h76v-90h-76v-211z
" />
    <glyph glyph-name="uni0189" unicode="&#x189;" 
d="M13 337v90h29v308h180q69 0 121 -30q50 -29 82 -84q41 -71 41 -176v-155q0 -105 -41 -176q-32 -55 -82 -84q-51 -30 -121 -30h-180v337h-29zM182 126h40q24 0 42 11q22 13 37 38q25 44 25 115v155q0 71 -25 115q-15 26 -37 38q-18 11 -42 11h-40v-182h76v-90h-76v-211z
" />
    <glyph glyph-name="uni018A" unicode="&#x18a;" 
d="M-78 565q0 69 26 113q17 29 42 44q22 13 52 13h180q69 0 121 -30q50 -29 82 -84q41 -71 41 -176v-155q0 -105 -41 -176q-32 -55 -82 -84q-51 -30 -121 -30h-180v655q-7 0 -12 -5q-19 -19 -19 -85h-89zM182 126h40q24 0 42 11q22 13 37 38q25 44 25 115v155q0 71 -25 115
q-15 26 -37 38q-18 11 -42 11h-40v-483z" />
    <glyph glyph-name="d" unicode="d" 
d="M34 220v90q0 91 34 150q23 40 58 60q32 18 72 18q39 0 68 -17q31 -18 52 -52v266h140v-735h-140v61q-21 -34 -52 -52q-15 -8 -31.5 -12.5t-36.5 -4.5q-41 0 -72 18q-35 20 -58 60q-34 59 -34 150zM174 220q0 -40 15 -66q10 -18 27 -27q15 -9 33 -9q17 0 29 7q14 8 25 25
q15 27 15 70v90q0 43 -15 70q-10 17 -25 25q-12 7 -29 7q-19 0 -33 -9q-16 -9 -27 -27q-15 -26 -15 -66v-90z" />
    <glyph glyph-name="dcroat" unicode="&#x111;" 
d="M34 220v90q0 91 34 150q23 40 58 60q32 18 72 18q39 0 68 -17q31 -18 52 -52v108h-68v90h68v68h140v-68h29v-90h-29v-577h-140v61q-21 -34 -52 -52q-29 -17 -68 -17q-41 0 -72 18q-35 20 -58 60q-34 59 -34 150zM174 220q0 -40 15 -66q10 -18 27 -27q15 -9 33 -9
q17 0 29 7q14 8 25 25q15 27 15 70v90q0 43 -15 70q-10 17 -25 25q-12 7 -29 7q-19 0 -33 -9q-16 -9 -27 -27q-15 -26 -15 -66v-90z" />
    <glyph glyph-name="dcaron" unicode="&#x10f;" 
d="M34 220v90q0 96 35 156q22 38 53 56q27 16 63 16q33 0 58 -14q30 -17 50 -53v264h140v-735h-140v59q-21 -36 -50 -53q-25 -14 -58 -14q-35 0 -63 16q-32 18 -53 56q-35 60 -35 156zM174 220q0 -45 16 -72q9 -16 22 -24q11 -6 25 -6q18 0 30 12q26 26 26 90v90
q0 64 -26 90q-12 12 -30 12q-14 0 -25 -6q-13 -8 -22 -24q-16 -27 -16 -72v-90zM447 719.5q0 19.5 8 33.5q7 12 20 19q14 8 33.5 8t32.5 -8q12 -7 20 -19q8 -14 8 -34q0 -71 -33 -128q-16 -28 -40 -51l-47 44q32 32 44 75q-26 5 -38 27q-8 14 -8 33.5z" />
    <glyph glyph-name="uni0221" unicode="&#x221;" 
d="M34 220v90q0 113 36 175q17 29 40 43q17 10 38 10q20 0 36 -9q19 -11 34 -36v242h140v-496q18 4 37 3q39 0 68 -17q23 -13 37 -36q18 -31 17 -72q0 -39 -17 -69q-14 -25 -39 -39q-30 -17 -70 -17q-62 0 -109 27q-13 7 -23 17q-43 -76 -59 -161l-92 15q10 53 29 103
q-14 2 -27 9q-23 13 -40 43q-36 62 -36 175zM174 220q0 -80 18 -99q3 -3 7 -3q2 0 4 1q4 5 7 10q9 23 8 91v90q0 102 -19 102q-3 0 -7 -3q-18 -18 -18 -99v-90zM358 128q0 -30 12 -43q9 -9 21 -8q13 0 22 9q11 11 10.5 31.5t-10.5 30.5t-25 10t-30 -8v-22z" />
    <glyph glyph-name="uni0257" unicode="&#x257;" 
d="M34 220v90q0 91 34 150q23 40 58 60q32 18 72 18q39 0 68 -17q31 -18 52 -52v61q0 65 28 113q26 45 72 72q57 33 140 33v-126q-34 0 -58 -14q-42 -24 -42 -78v-530h-140v61q-21 -34 -52 -52q-29 -17 -68 -17q-41 0 -72 18q-35 20 -58 60q-34 59 -34 150zM174 220
q0 -40 15 -66q10 -18 27 -27q15 -9 33 -9q17 0 29 7q14 8 25 25q15 27 15 70v90q0 43 -15 70q-10 17 -25 25q-12 7 -29 7q-19 0 -33 -9q-16 -9 -27 -27q-15 -26 -15 -66v-90z" />
    <glyph glyph-name="uni1E0B" unicode="&#x1e0b;" 
d="M34 220v90q0 91 34 150q23 40 58 60q32 18 72 18q39 0 68 -17q31 -18 52 -52v266h140v-735h-140v61q-21 -34 -52 -52q-15 -8 -31.5 -12.5t-36.5 -4.5q-41 0 -72 18q-35 20 -58 60q-34 59 -34 150zM174 220q0 -40 15 -66q10 -18 27 -27q15 -9 33 -9q17 0 29 7q14 8 25 25
q15 27 15 70v90q0 43 -15 70q-10 17 -25 25q-12 7 -29 7q-19 0 -33 -9q-16 -9 -27 -27q-15 -26 -15 -66v-90zM97 685.5q0 28.5 12 48.5q11 18 29 29q21 12 49.5 12t48.5 -12q18 -11 29 -29q12 -21 12 -49.5t-12 -48.5q-11 -18 -29 -29q-20 -12 -49 -12t-49 12q-18 11 -29 29
q-12 21 -12 49.5z" />
    <glyph glyph-name="uni018C" unicode="&#x18c;" 
d="M34 220v90q0 91 34 150q23 40 58 60q32 18 72 18q39 0 68 -17q31 -18 52 -52v140h-234v126h374v-735h-140v61q-21 -34 -52 -52q-29 -17 -68 -17q-41 0 -72 18q-35 20 -58 60q-34 59 -34 150zM174 220q0 -40 15 -66q10 -18 27 -27q15 -9 33 -9q17 0 29 7q14 8 25 25
q15 27 15 70v90q0 43 -15 70q-10 17 -25 25q-12 7 -29 7q-19 0 -33 -9q-16 -9 -27 -27q-15 -26 -15 -66v-90z" />
    <glyph glyph-name="P" unicode="P" 
d="M52 0v735h192q68 0 117 -29q45 -26 73 -73q32 -56 32 -136t-32 -135q-27 -47 -73 -74q-50 -29 -117 -28h-52v-260h-140zM192 386h52q21 0 37 9q17 10 28 29q17 29 17 73.5t-17 72.5q-11 19 -28 30q-16 9 -37 9h-52v-223z" />
    <glyph glyph-name="Rho" unicode="&#x3a1;" 
d="M52 0v735h192q68 0 117 -29q45 -26 73 -73q32 -56 32 -136t-32 -135q-27 -47 -73 -74q-50 -29 -117 -28h-52v-260h-140zM192 386h52q21 0 37 9q17 10 28 29q17 29 17 73.5t-17 72.5q-11 19 -28 30q-16 9 -37 9h-52v-223z" />
    <glyph glyph-name="afii10034" unicode="&#x420;" 
d="M52 0v735h192q68 0 117 -29q45 -26 73 -73q32 -56 32 -136t-32 -135q-27 -47 -73 -74q-50 -29 -117 -28h-52v-260h-140zM192 386h52q21 0 37 9q17 10 28 29q17 29 17 73.5t-17 72.5q-11 19 -28 30q-16 9 -37 9h-52v-223z" />
    <glyph glyph-name="uni01A4" unicode="&#x1a4;" 
d="M-67 565q0 69 26 113q17 29 41 44q22 13 52 13h192q68 0 117 -29q45 -26 73 -73q32 -56 32 -136t-32 -135q-27 -47 -73 -74q-50 -29 -117 -28h-52v-260h-140v655q-7 0 -12 -5q-19 -19 -18 -85h-89zM192 386h52q21 0 37 9q17 10 28 29q17 29 17 73.5t-17 72.5
q-11 19 -28 30q-16 9 -37 9h-52v-223z" />
    <glyph glyph-name="p" unicode="p" 
d="M42 -205v735h140v-61q21 34 52 52q29 17 68 17q41 0 72 -18q35 -20 58 -60q34 -59 34 -150v-90q0 -91 -34 -150q-23 -40 -58 -60q-32 -18 -72 -18q-39 0 -68 17q-31 18 -52 52v-266h-140zM182 220q0 -43 15 -70q10 -17 25 -25q12 -7 29 -7q19 0 33 9q16 9 27 27
q15 26 15 66v90q0 40 -15 66q-10 18 -27 27q-15 9 -33 9q-17 0 -29 -7q-14 -8 -25 -25q-15 -27 -15 -70v-90z" />
    <glyph glyph-name="afii10082" unicode="&#x440;" 
d="M42 -205v735h140v-61q21 34 52 52q29 17 68 17q41 0 72 -18q35 -20 58 -60q34 -59 34 -150v-90q0 -91 -34 -150q-23 -40 -58 -60q-32 -18 -72 -18q-39 0 -68 17q-31 18 -52 52v-266h-140zM182 220q0 -43 15 -70q10 -17 25 -25q12 -7 29 -7q19 0 33 9q16 9 27 27
q15 26 15 66v90q0 40 -15 66q-10 18 -27 27q-15 9 -33 9q-17 0 -29 -7q-14 -8 -25 -25q-15 -27 -15 -70v-90z" />
    <glyph glyph-name="uni01A5" unicode="&#x1a5;" 
d="M42 -205v720q0 77 31 131q26 45 70 70q47 27 112.5 27t112.5 -27q44 -25 70 -71q17 -30 25 -65l-134 -37q-3 21 -13 38q-10 18 -26 28q-15 8 -34 8t-33 -8q-16 -9 -26 -27q-15 -26 -15 -67v-46q21 34 52 52q29 17 68 17q41 0 72 -18q35 -20 58 -60q34 -59 34 -150v-90
q0 -91 -34 -150q-23 -40 -58 -60q-32 -18 -72 -18q-39 0 -68 17q-31 18 -52 52v-266h-140zM182 220q0 -43 15 -70q10 -17 25 -25q12 -7 29 -7q19 0 33 9q16 9 27 27q15 26 15 66v90q0 40 -15 66q-10 18 -27 27q-15 9 -33 9q-17 0 -29 -7q-14 -8 -25 -25q-15 -27 -15 -70v-90
z" />
    <glyph glyph-name="rho" unicode="&#x3c1;" 
d="M34 -205v515q0 76 31 130q26 45 70 70q48 28 115 28t115 -28q44 -26 70 -70q31 -54 31 -130v-90q0 -76 -31 -130q-26 -45 -70 -70q-48 -28 -115 -28q-42 0 -76 11v-208h-140zM174 220q0 -40 15 -66q10 -18 27 -27q15 -9 34.5 -9t33.5 9q16 9 27 27q15 26 15 66v90
q0 40 -15 66q-10 18 -27 27q-14 9 -34 9t-34 -9q-16 -9 -27 -27q-15 -26 -15 -66v-90z" />
    <glyph glyph-name="R" unicode="R" 
d="M42 0v735h202q68 0 117 -29q45 -26 73 -73q32 -56 32 -136t-32 -135q-28 -49 -76 -76q16 -24 29 -47q79 -137 79 -239h-140q0 76 -58 177q-23 40 -55 83h-31v-260h-140zM182 386h62q21 0 37 9q17 10 28 29q17 29 17 73.5t-17 72.5q-11 19 -28 30q-16 9 -37 9h-62v-223z
" />
    <glyph glyph-name="uni0280" unicode="&#x280;" 
d="M42 0v530h246q55 0 94 -23q36 -21 58 -59q26 -44 26 -107.5t-26 -107.5q-22 -38 -59 -59q33 -38 53 -74q32 -55 32 -100h-140q0 25 -17 55q-25 44 -86 96h-41v-151h-140zM182 277h106q13 0 21 9q17 17 17 54.5t-17 54.5q-9 9 -21 9h-106v-127z" />
    <glyph glyph-name="uni01A6" unicode="&#x1a6;" 
d="M42 0v735h140v-110h68q66 0 114 -28q44 -25 71 -72q31 -54 31 -132t-31 -132q-27 -46 -71 -72q-6 -4 -12 -6q121 -228 121 -388h-140q0 148 -125 366h-26v-161h-140zM182 287h68q19 0 34 9q16 9 26 28q16 27 16 69t-16 70q-22 36 -60 36h-68v-212z" />
    <glyph glyph-name="afii10049" unicode="&#x42f;" 
d="M34 0q0 101 79 239q14 24 29 47q-48 26 -76 76q-32 56 -32 135.5t32 135.5q27 47 73 73q50 29 117 29h192v-735h-140v260h-21q-31 -43 -55 -83q-58 -101 -58 -177h-140zM174 497q0 -44 17 -73q11 -19 28 -29q16 -9 37 -9h52v223h-52q-21 0 -37 -9q-17 -10 -28 -30
q-17 -29 -17 -73z" />
    <glyph glyph-name="afii10097" unicode="&#x44f;" 
d="M34 0q0 45 32 100q20 35 53 74q-37 21 -59 59q-26 44 -26 107.5t26 107.5q22 38 58 59q40 23 94 23h236v-530h-140v151h-31q-61 -53 -86 -96q-17 -30 -17 -55h-140zM174 340.5q0 -37.5 17 -54.5q9 -9 21 -9h96v127h-96q-13 0 -21 -9q-17 -17 -17 -54.5z" />
    <glyph glyph-name="uni0281" unicode="&#x281;" 
d="M52 0v530h140v-151h31q61 53 86 96q17 30 17 55h140q0 -45 -32 -100q-20 -35 -53 -74q37 -21 59 -59q26 -44 26 -107.5t-26 -107.5q-22 -38 -58 -59q-40 -23 -94 -23h-236zM192 126h96q13 0 21 9q17 17 17 54.5t-17 54.5q-9 9 -21 9h-96v-127z" />
    <glyph glyph-name="r" unicode="r" 
d="M92 0v530h140v-87q5 12 12 23q22 39 53 57q26 15 59 15q31 0 58 -15q32 -18 51 -53q12 -21 18 -45l-131 -63q-5 21 -19 35q-15 15 -33 15q-13 0 -24 -6q-13 -8 -23 -25q-21 -36 -21 -100v-281h-140z" />
    <glyph glyph-name="uni0279" unicode="&#x279;" 
d="M17 105l131 63q5 -21 19 -35q15 -15 33 -15q13 0 24 6q13 8 23 25q21 36 21 100v281h140v-530h-140v87q-5 -12 -12 -23q-22 -39 -53 -57q-26 -15 -59 -15q-31 0 -58 15q-32 18 -51 53q-12 21 -18 45z" />
    <glyph glyph-name="uni027C" unicode="&#x27c;" 
d="M92 -205v735h140v-87q5 12 12 23q22 39 53 57q26 15 59 15q31 0 58 -15q32 -18 51 -53q12 -21 18 -45l-131 -63q-5 21 -19 35q-15 15 -33 15q-13 0 -24 -6q-13 -8 -23 -25q-21 -36 -21 -100v-486h-140z" />
    <glyph glyph-name="uni027A" unicode="&#x27a;" 
d="M17 105l131 63q5 -21 19 -35q15 -15 33 -15q13 0 24 6q13 8 23 25q21 36 21 100v486h140v-735h-140v87q-5 -12 -12 -23q-22 -39 -53 -57q-26 -15 -59 -15q-31 0 -58 15q-32 18 -51 53q-12 21 -18 45z" />
    <glyph glyph-name="uni027D" unicode="&#x27d;" 
d="M92 0v530h140v-87q5 12 12 23q22 39 53 57q26 15 59 15q31 0 58 -15q32 -18 51 -53q12 -21 18 -45l-131 -63q-5 21 -19 35q-15 15 -33 15q-13 0 -24 -6q-13 -8 -23 -25q-21 -36 -21 -100v-281q0 -36 11 -55q9 -16 25 -25q21 -12 64 -12v-126q-105 0 -156 29
q-37 22 -59 59q-25 44 -25 130z" />
    <glyph glyph-name="uni027B" unicode="&#x27b;" 
d="M17 105l131 63q5 -21 19 -35q15 -15 33 -15q13 0 24 6q13 8 23 25q21 36 21 100v281h140v-530q0 -36 11 -55q9 -16 25 -25q21 -12 64 -12v-126q-105 0 -156 29q-37 22 -59 59q-25 44 -25 130v87q-5 -12 -12 -23q-22 -39 -53 -57q-26 -15 -59 -15q-31 0 -58 15
q-32 18 -51 53q-12 21 -18 45z" />
    <glyph glyph-name="uni027E" unicode="&#x27e;" 
d="M92 0v310q0 78 32 132q26 44 68 70q46 26 109 26t109 -26q52 -30 78 -87l-125 -56q-6 15 -17 25q-18 18 -45 18q-17 0 -29 -7q-15 -8 -25 -26q-15 -27 -15 -69v-310h-140z" />
    <glyph glyph-name="uni2C79" unicode="&#x2c79;" 
d="M168 622v126q105 0 156 -29q37 -22 59 -59q25 -44 25 -130v-8h-140v8q0 36 -11 55q-9 16 -25 25q-21 12 -64 12zM17 105l131 63q5 -21 19 -35q15 -15 33 -15q13 0 24 6q13 8 23 25q21 36 21 100v281h140v-530h-140v87q-5 -12 -12 -23q-22 -39 -53 -57q-26 -15 -59 -15
q-31 0 -58 15q-32 18 -51 53q-12 21 -18 45z" />
    <glyph glyph-name="C" unicode="C" 
d="M34 215v305q0 73 30 125q26 44 70 70q49 28 117.5 28t117.5 -28q44 -26 70 -71q17 -30 24 -64l-135 -34q-3 19 -12 34q-10 18 -27 28q-16 9 -38 9q-21 0 -36 -9q-16 -9 -27 -27q-14 -24 -14 -61v-305q0 -36 14 -61q10 -18 27 -27q16 -9 36 -9q22 0 38 9q17 10 27 28
q9 15 12 34l135 -34q-7 -35 -24 -64q-26 -45 -70 -71q-49 -28 -117.5 -28t-117.5 28q-44 26 -70 70q-30 52 -30 125z" />
    <glyph glyph-name="afii10035" unicode="&#x421;" 
d="M34 215v305q0 73 30 125q26 44 70 70q49 28 117.5 28t117.5 -28q44 -26 70 -71q17 -30 24 -64l-135 -34q-3 19 -12 34q-10 18 -27 28q-16 9 -38 9q-21 0 -36 -9q-16 -9 -27 -27q-14 -24 -14 -61v-305q0 -36 14 -61q10 -18 27 -27q16 -9 36 -9q22 0 38 9q17 10 27 28
q9 15 12 34l135 -34q-7 -35 -24 -64q-26 -45 -70 -71q-49 -28 -117.5 -28t-117.5 28q-44 26 -70 70q-30 52 -30 125z" />
    <glyph glyph-name="uni03F9" unicode="&#x3f9;" 
d="M34 215v305q0 73 30 125q26 44 70 70q49 28 117.5 28t117.5 -28q44 -26 70 -71q17 -30 24 -64l-135 -34q-3 19 -12 34q-10 18 -27 28q-16 9 -38 9q-21 0 -36 -9q-16 -9 -27 -27q-14 -24 -14 -61v-305q0 -36 14 -61q10 -18 27 -27q16 -9 36 -9q22 0 38 9q17 10 27 28
q9 15 12 34l135 -34q-7 -35 -24 -64q-26 -45 -70 -71q-49 -28 -117.5 -28t-117.5 28q-44 26 -70 70q-30 52 -30 125z" />
    <glyph glyph-name="c" unicode="c" 
d="M34 220v90q0 75 31 129q26 45 71 71q49 28 116 28t116 -28q45 -26 71 -71q17 -30 24 -64l-134 -36q-3 20 -13 36q-11 19 -27 28t-37 9q-20 0 -36 -9t-27 -28q-15 -26 -15 -65v-90q0 -39 15 -65q11 -18 27 -28q15 -9 36 -9t37 9q17 10 27 28q9 16 13 36l134 -36
q-7 -34 -24 -64q-26 -45 -71 -71q-49 -28 -116.5 -28t-115.5 28q-45 26 -71 71q-31 54 -31 129z" />
    <glyph glyph-name="afii10083" unicode="&#x441;" 
d="M34 220v90q0 75 31 129q26 45 71 71q49 28 116 28t116 -28q45 -26 71 -71q17 -30 24 -64l-134 -36q-3 20 -13 36q-11 19 -27 28t-37 9q-20 0 -36 -9t-27 -28q-15 -26 -15 -65v-90q0 -39 15 -65q11 -18 27 -28q15 -9 36 -9t37 9q17 10 27 28q9 16 13 36l134 -36
q-7 -34 -24 -64q-26 -45 -71 -71q-49 -28 -116.5 -28t-115.5 28q-45 26 -71 71q-31 54 -31 129z" />
    <glyph glyph-name="uni03F2" unicode="&#x3f2;" 
d="M34 220v90q0 75 31 129q26 45 71 71q49 28 116 28t116 -28q45 -26 71 -71q17 -30 24 -64l-134 -36q-3 20 -13 36q-11 19 -27 28t-37 9q-20 0 -36 -9t-27 -28q-15 -26 -15 -65v-90q0 -39 15 -65q11 -18 27 -28q15 -9 36 -9t37 9q17 10 27 28q9 16 13 36l134 -36
q-7 -34 -24 -64q-26 -45 -71 -71q-49 -28 -116.5 -28t-115.5 28q-45 26 -71 71q-31 54 -31 129z" />
    <glyph glyph-name="uni0186" unicode="&#x186;" 
d="M37 155l135 34q3 -19 12 -34q10 -18 27 -28q16 -9 38 -9q21 0 36 9q16 9 27 27q14 24 14 61v305q0 36 -14 61q-10 18 -27 27q-16 9 -36 9q-22 0 -38 -9q-17 -10 -27 -28q-9 -15 -12 -34l-135 34q7 35 24 64q26 45 70 71q49 28 117.5 28t117.5 -28q44 -26 70 -70
q30 -52 30 -125v-305q0 -73 -30 -125q-26 -44 -70 -70q-49 -28 -117.5 -28t-117.5 28q-44 26 -70 71q-17 30 -24 64z" />
    <glyph glyph-name="uni0254" unicode="&#x254;" 
d="M37 155l134 36q3 -20 13 -36q11 -19 27 -28t37 -9q20 0 36 9t27 28q15 26 15 65v90q0 39 -15 65q-11 18 -27 28q-15 9 -36 9t-37 -9q-17 -10 -27 -28q-9 -16 -13 -36l-134 36q7 34 24 64q26 45 71 71q49 28 116.5 28t115.5 -28q45 -26 71 -71q31 -54 31 -129v-90
q0 -75 -31 -129q-26 -45 -71 -71q-49 -28 -116 -28t-116 28q-45 26 -71 71q-17 30 -24 64z" />
    <glyph glyph-name="uni0297" unicode="&#x297;" 
d="M34 10v305q0 73 30 125q26 44 70 70q49 28 117.5 28t117.5 -28q44 -26 70 -71q17 -30 24 -64l-135 -34q-3 19 -12 34q-10 18 -27 28q-16 9 -38 9q-21 0 -36 -9q-16 -9 -27 -27q-14 -24 -14 -61v-305q0 -36 14 -61q10 -18 27 -27q16 -9 36 -9q22 0 38 9q17 10 27 28
q9 15 12 34l135 -34q-7 -35 -24 -64q-26 -45 -70 -71q-49 -28 -117.5 -28t-117.5 28q-44 26 -70 70q-30 52 -30 125z" />
    <glyph glyph-name="uni0187" unicode="&#x187;" 
d="M34 215v305q0 73 30 125q26 44 70 70q49 28 117 28q39 0 72 -9v1q0 65 28 113q26 45 72 72q57 33 140 33v-126q-34 0 -58 -14q-42 -24 -42 -78v-155l-135 -34q-3 19 -12 34q-10 18 -27 28q-16 9 -38 9q-21 0 -36 -9q-16 -9 -27 -27q-14 -24 -14 -61v-305q0 -36 14 -61
q10 -18 27 -27q16 -9 36 -9q22 0 38 9q17 10 27 28q9 15 12 34l135 -34q-7 -35 -24 -64q-26 -45 -70 -71q-49 -28 -117.5 -28t-117.5 28q-44 26 -70 70q-30 52 -30 125z" />
    <glyph glyph-name="uni0188" unicode="&#x188;" 
d="M34 220v90q0 75 31 129q26 45 71 71q49 28 116 28q39 0 71 -9v1q0 65 28 113q26 45 72 72q57 33 140 33v-126q-34 0 -58 -14q-42 -24 -42 -78v-155l-134 -36q-3 20 -13 36q-11 19 -27 28t-37 9q-20 0 -36 -9t-27 -28q-15 -26 -15 -65v-90q0 -39 15 -65q11 -18 27 -28
q15 -9 36 -9t37 9q17 10 27 28q9 16 13 36l134 -36q-7 -34 -24 -64q-26 -45 -71 -71q-49 -28 -116.5 -28t-115.5 28q-45 26 -71 71q-31 54 -31 129z" />
    <glyph glyph-name="uniA792" unicode="&#xa792;" 
d="M13 337v90h21v93q0 73 30 125q26 44 70 70q49 28 117.5 28t117.5 -28q44 -26 70 -71q17 -30 24 -64l-135 -34q-3 19 -12 34q-10 18 -27 28q-16 9 -38 9q-21 0 -36 -9q-16 -9 -27 -27q-14 -24 -14 -61v-93h84v-90h-84v-122q0 -36 14 -61q10 -18 27 -27q16 -9 36 -9
q22 0 38 9q17 10 27 28q9 15 12 34l135 -34q-7 -35 -24 -64q-26 -45 -70 -71q-49 -28 -117.5 -28t-117.5 28q-44 26 -70 70q-30 52 -30 125v122h-21z" />
    <glyph glyph-name="uniA793" unicode="&#xa793;" 
d="M13 230v91h21q2 69 31 118q26 45 71 71q49 28 116 28t116 -28q45 -26 71 -71q17 -30 24 -64l-134 -36q-3 20 -13 36q-11 19 -27 28t-37 9q-20 0 -36 -9t-27 -28q-13 -22 -15 -54h84v-91h-84v-10q0 -39 15 -65q11 -18 27 -28q15 -9 36 -9t37 9q17 10 27 28q9 16 13 36
l134 -36q-7 -34 -24 -64q-26 -45 -71 -71q-49 -28 -116.5 -28t-115.5 28q-45 26 -71 71q-31 54 -31 129v10h-21z" />
    <glyph glyph-name="uni0255" unicode="&#x255;" 
d="M-40 7q16 52 43 99q17 30 37 56q-6 27 -6 58v90q0 71 29 122q25 44 70 69q50 29 119 29t119 -29q44 -25 70 -70q15 -26 22 -56l-134 -36q-3 15 -11 28q-10 18 -26 27q-17 10 -40 10q-22 0 -38 -9.5t-27 -26.5q-13 -23 -13 -58v-34q55 27 118 27q60 0 104 -26
q35 -20 55 -54q20 -35 20 -76q0 -42 -21 -77q-19 -33 -52 -52q-45 -26 -113 -26q-86 0 -146 34q-15 9 -28 20q-19 -34 -31 -72zM193 150q13 -19 33 -31q25 -14 59 -14q33 0 49 15q12 12 11.5 27.5t-11.5 27.5q-16 16 -45 15q-34 0 -66 -19q-15 -9 -30 -21z" />
    <glyph glyph-name="afii10047" unicode="&#x42d;" 
d="M37 155l135 34q3 -19 12 -34q10 -18 27 -28q16 -9 38 -9q21 0 36 9q16 9 27 27q14 24 14 61v89h-180v126h180v90q0 36 -14 61q-10 18 -27 27q-16 9 -36 9q-22 0 -38 -9q-17 -10 -27 -28q-9 -15 -12 -34l-135 34q7 35 24 64q26 45 70 71q49 28 117.5 28t117.5 -28
q44 -26 70 -70q30 -52 30 -125v-305q0 -73 -30 -125q-26 -44 -70 -70q-49 -28 -117.5 -28t-117.5 28q-44 26 -70 71q-17 30 -24 64z" />
    <glyph glyph-name="afii10095" unicode="&#x44d;" 
d="M37 155l134 36q3 -20 13 -36q11 -19 27 -28t37 -9q20 0 36 9t27 28q11 20 14 47h-179v126h179q-3 28 -14 47q-11 18 -27 28q-15 9 -36 9t-37 -9q-17 -10 -27 -28q-9 -16 -13 -36l-134 36q7 34 24 64q26 45 71 71q49 28 116.5 28t115.5 -28q45 -26 71 -71q31 -54 31 -129
v-90q0 -75 -31 -129q-26 -45 -71 -71q-49 -28 -116 -28t-116 28q-45 26 -71 71q-17 30 -24 64z" />
    <glyph glyph-name="afii10053" unicode="&#x404;" 
d="M34 215v305q0 73 30 125q26 44 70 70q49 28 117.5 28t117.5 -28q44 -26 70 -71q17 -30 24 -64l-135 -34q-3 19 -12 34q-10 18 -27 28q-16 9 -38 9q-21 0 -36 -9q-16 -9 -27 -27q-14 -24 -14 -61v-90h180v-126h-180v-89q0 -36 14 -61q10 -18 27 -27q16 -9 36 -9q22 0 38 9
q17 10 27 28q9 15 12 34l135 -34q-7 -35 -24 -64q-26 -45 -70 -71q-49 -28 -117.5 -28t-117.5 28q-44 26 -70 70q-30 52 -30 125z" />
    <glyph glyph-name="afii10101" unicode="&#x454;" 
d="M34 220v90q0 75 31 129q26 45 71 71q49 28 116 28t116 -28q45 -26 71 -71q17 -30 24 -64l-134 -36q-3 20 -13 36q-11 19 -27 28t-37 9q-20 0 -36 -9t-27 -28q-11 -20 -14 -47h179v-126h-179q3 -28 14 -47q11 -18 27 -28q15 -9 36 -9t37 9q17 10 27 28q9 16 13 36l134 -36
q-7 -34 -24 -64q-26 -45 -71 -71q-49 -28 -116.5 -28t-115.5 28q-45 26 -71 71q-31 54 -31 129z" />
    <glyph glyph-name="sigma" unicode="&#x3c3;" 
d="M34 220v90q0 76 31 129q26 45 70 71q49 28 115 28q32 0 68.5 -1.5t81 -3.5t68.5 -3v-126l-38 2q7 -9 12 -18q20 -34 20 -78v-90q0 -77 -31 -131q-26 -45 -70 -70q-47 -27 -111 -27q-66 0 -115 28q-44 26 -70 70q-31 54 -31 130zM174 220q0 -40 15 -66q10 -18 27 -27
q15 -9 34 -9q18 0 31 8q15 9 26 26q15 26 15 68v90q0 41 -15 68q-10 17 -25 26q-14 8 -32 8q-20 0 -35 -9q-16 -9 -26 -27q-15 -26 -15 -66v-90z" />
    <glyph glyph-name="sigma1" unicode="&#x3c2;" 
d="M34 220v90q0 71 29 122q25 44 70 69q50 29 119 29t119 -29q44 -25 70 -70q15 -26 22 -56l-134 -36q-3 15 -11 28q-10 18 -26 27q-17 10 -40 10q-22 0 -38 -9.5t-27 -26.5q-13 -23 -13 -58v-90q0 -31 13 -53q11 -19 30 -30q18 -10 49 -12q57 -3 94 -24q46 -27 70 -67
q20 -35 20 -77q0 -50 -21 -86q-19 -33 -53 -53q-40 -23 -96 -23h-32v126h32q12 0 20 8q10 10 10 28q0 16 -10 26q-15 15 -72 19t-94 26q-45 26 -71 69q-29 51 -29 123z" />
    <glyph glyph-name="G" unicode="G" 
d="M34 215v305q0 73 30 125q26 44 70 70q49 28 117.5 28t117.5 -28q44 -26 70 -71q17 -30 24 -64l-135 -34q-3 19 -12 34q-10 18 -27 28q-16 9 -38 9q-21 0 -36 -9q-16 -9 -27 -27q-14 -24 -14 -61v-305q0 -37 14 -61q10 -18 26 -27q15 -9 35 -9q17 0 30 7q14 8 24 25
q15 25 15 65v73h-68v126h208v-199q0 -75 -30 -128q-25 -44 -69 -69q-46 -26 -110 -26q-67 0 -115 28q-44 26 -70 70q-30 52 -30 125z" />
    <glyph glyph-name="uni0262" unicode="&#x262;" 
d="M34 215v100q0 73 30 125q26 44 70 70q49 28 117.5 28t117.5 -28q44 -26 70 -71q17 -30 24 -64l-135 -34q-3 19 -12 34q-10 18 -27 28q-16 9 -38 9q-21 0 -36 -9q-16 -9 -27 -27q-14 -24 -14 -61v-100q0 -37 14 -61q10 -18 26 -27q15 -9 35 -9q17 0 30 7q14 8 24 25
q8 13 12 31h-65v126h208v-126h-2q-5 -54 -28 -94q-25 -44 -69 -69q-46 -26 -110 -26q-67 0 -115 28q-44 26 -70 70q-30 52 -30 125z" />
    <glyph glyph-name="uni0193" unicode="&#x193;" 
d="M34 215v305q0 73 30 125q26 44 70 70q49 28 117 28q39 0 72 -9v1q0 65 28 113q26 45 72 72q57 33 140 33v-126q-34 0 -58 -14q-42 -24 -42 -78v-155l-135 -34q-3 19 -12 34q-10 18 -27 28q-16 9 -38 9q-21 0 -36 -9q-16 -9 -27 -27q-14 -24 -14 -61v-305q0 -37 14 -61
q10 -18 26 -27q15 -9 35 -9q17 0 30 7q14 8 24 25q15 25 15 65v73h-68v126h208v-199q0 -75 -30 -128q-25 -44 -69 -69q-46 -26 -110 -26q-67 0 -115 28q-44 26 -70 70q-30 52 -30 125z" />
    <glyph glyph-name="uni029B" unicode="&#x29b;" 
d="M34 215v100q0 73 30 125q26 44 70 70q49 28 117 28q39 0 72 -9v1q0 65 28 113q26 45 72 72q57 33 140 33v-126q-34 0 -58 -14q-42 -24 -42 -78v-155l-135 -34q-3 19 -12 34q-10 18 -27 28q-16 9 -38 9q-21 0 -36 -9q-16 -9 -27 -27q-14 -24 -14 -61v-100q0 -37 14 -61
q10 -18 26 -27q15 -9 35 -9q17 0 30 7q14 8 24 25q8 13 12 31h-65v126h208v-126h-2q-5 -54 -28 -94q-25 -44 -69 -69q-46 -26 -110 -26q-67 0 -115 28q-44 26 -70 70q-30 52 -30 125z" />
    <glyph glyph-name="uni01E4" unicode="&#x1e4;" 
d="M34 215v305q0 73 30 125q26 44 70 70q49 28 117.5 28t117.5 -28q44 -26 70 -71q17 -30 24 -64l-135 -34q-3 19 -12 34q-10 18 -27 28q-16 9 -38 9q-21 0 -36 -9q-16 -9 -27 -27q-14 -24 -14 -61v-305q0 -37 14 -61q10 -18 26 -27q15 -9 35 -9q17 0 30 7q14 8 24 25
q2 3 4 7h-57v90h68v41h-68v126h208v-167h29v-90h-34q-18 -95 -94 -139q-46 -26 -110 -26q-67 0 -115 28q-44 26 -70 70q-30 52 -30 125z" />
    <glyph glyph-name="g.ss04" 
d="M28 -31q0 46 19 80q8 14 18 25q-17 29 -17 63q0 37 20 70l10 16q-12 13 -20 28q-24 41 -24 97.5t24 97.5q23 39 63 63q50 29 123 29q38 0 70 -8h162v-126l-29 1q7 -26 6 -56q0 -56 -23 -98q-23 -39 -64 -62q-50 -29 -122 -29q-38 0 -70 8q-1 -3 -1 -6q0 -11 8 -19
q10 -10 37 -11h59q72 0 121 -29q37 -21 56 -54q20 -34 19 -81q0 -49 -21 -87q-22 -38 -64 -62q-55 -32 -138 -32q-82 0 -137 32q-42 24 -64 62t-21 88zM168 -31q0 -20 14 -34q22 -22 68 -22q47 0 70 22q14 14 13 32q0 14 -9 24q-15 15 -47 15h-57q-29 0 -43 -15
q-9 -9 -9 -22zM174 348.5q0 -36.5 29 -53.5q17 -10 41 -9.5t40 9.5q29 17 29 54t-29 53q-14 9 -33 10h-7q-24 0 -41 -10q-29 -17 -29 -53.5z" />
    <glyph glyph-name="g.ss05" 
d="M34 220v90q0 91 34 150q23 40 58 60q32 18 72 18q39 0 68 -17q31 -18 52 -52v61h140v-515q0 -75 -31 -128q-26 -45 -71 -71q-50 -29 -119.5 -29t-119.5 29q-54 31 -80 89l125 56q6 -15 18 -26q22 -22 57 -22q22 0 38 10q17 10 28 28q15 26 15 64v46q-21 -34 -52 -52
q-15 -8 -31.5 -12.5t-36.5 -4.5q-41 0 -72 18q-35 20 -58 60q-34 59 -34 150zM174 220q0 -40 15 -66q10 -18 27 -27q15 -9 33 -9q17 0 29 7q14 8 25 25q15 27 15 70v90q0 43 -15 70q-10 17 -25 25q-12 7 -29 7q-19 0 -33 -9q-16 -9 -27 -27q-15 -26 -15 -66v-90z" />
    <glyph glyph-name="uni0261" unicode="&#x261;" 
d="M34 220v90q0 91 34 150q23 40 58 60q32 18 72 18q39 0 68 -17q31 -18 52 -52v61h140v-515q0 -75 -31 -128q-26 -45 -71 -71q-50 -29 -119.5 -29t-119.5 29q-54 31 -80 89l125 56q6 -15 18 -26q22 -22 57 -22q22 0 38 10q17 10 28 28q15 26 15 64v46q-21 -34 -52 -52
q-15 -8 -31.5 -12.5t-36.5 -4.5q-41 0 -72 18q-35 20 -58 60q-34 59 -34 150zM174 220q0 -40 15 -66q10 -18 27 -27q15 -9 33 -9q17 0 29 7q14 8 25 25q15 27 15 70v90q0 43 -15 70q-10 17 -25 25q-12 7 -29 7q-19 0 -33 -9q-16 -9 -27 -27q-15 -26 -15 -66v-90z" />
    <glyph glyph-name="glyph317" 
d="M34 220v90q0 91 34 150q23 40 58 60q32 18 72 18q39 0 68 -17q31 -18 52 -52v61h140v-515q0 -75 -31 -128q-26 -45 -71 -71q-50 -29 -119.5 -29t-119.5 29q-54 31 -80 89l125 56q6 -15 18 -26q22 -22 57 -22q22 0 38 10q17 10 28 28q15 26 15 64v46q-21 -34 -52 -52
q-15 -8 -31.5 -12.5t-36.5 -4.5q-41 0 -72 18q-35 20 -58 60q-34 59 -34 150zM174 220q0 -40 15 -66q10 -18 27 -27q15 -9 33 -9q17 0 29 7q14 8 25 25q15 27 15 70v90q0 43 -15 70q-10 17 -25 25q-12 7 -29 7q-19 0 -33 -9q-16 -9 -27 -27q-15 -26 -15 -66v-90z" />
    <glyph glyph-name="g" unicode="g" 
d="M28 -31q0 46 19 80q8 14 18 25q-17 29 -17 63q0 37 20 70l10 16q-12 13 -20 28q-24 41 -24 97.5t24 97.5q23 39 63 63q50 29 123 29q38 0 70 -8h162v-126l-29 1q7 -26 6 -56q0 -56 -23 -98q-23 -39 -64 -62q-50 -29 -122 -29q-38 0 -70 8q-1 -3 -1 -6q0 -11 8 -19
q10 -10 37 -11h59q72 0 121 -29q37 -21 56 -54q20 -34 19 -81q0 -49 -21 -87q-22 -38 -64 -62q-55 -32 -138 -32q-82 0 -137 32q-42 24 -64 62t-21 88zM168 -31q0 -20 14 -34q22 -22 68 -22q47 0 70 22q14 14 13 32q0 14 -9 24q-15 15 -47 15h-57q-29 0 -43 -15
q-9 -9 -9 -22zM174 348.5q0 -36.5 29 -53.5q17 -10 41 -9.5t40 9.5q29 17 29 54t-29 53q-14 9 -33 10h-7q-24 0 -41 -10q-29 -17 -29 -53.5z" />
    <glyph glyph-name="uni1D77" unicode="&#x1d77;" 
d="M24 -79l29 -1q-7 26 -6 56q0 56 23 98q23 39 64 62q50 29 122 29q38 0 70 -8q1 3 1 6q0 11 -8 19q-10 10 -37 11h-59q-72 0 -121 29q-37 21 -56 54q-20 34 -19 81q0 49 21 87q22 38 64 62q55 32 138 32q82 0 137 -32q42 -24 64 -62t21 -88q0 -46 -19 -80q-8 -14 -18 -25
q17 -29 17 -63q0 -37 -20 -70l-10 -16q12 -13 20 -28q24 -41 24 -97.5t-24 -97.5q-23 -39 -63 -63q-50 -29 -123 -29q-38 0 -70 8h-162v126zM167 358q0 -14 9 -24q15 -15 47 -15h57q29 0 43 15q9 9 9 22q0 20 -14 34q-22 22 -68 22q-47 0 -70 -22q-14 -14 -13 -32zM187 -24
q0 -37 29 -53q14 -9 33 -10h7q24 0 41 10q29 17 29 53.5t-29 53.5q-17 10 -41 9.5t-40 -9.5q-29 -17 -29 -54z" />
    <glyph glyph-name="uni0260" unicode="&#x260;" 
d="M34 220v90q0 91 34 150q23 40 58 60q32 18 72 18q39 0 68 -17q31 -18 52 -52v61q0 65 28 113q26 45 72 72q57 33 140 33v-126q-34 0 -58 -14q-42 -24 -42 -78v-515q0 -75 -31 -128q-26 -45 -71 -71q-50 -29 -119.5 -29t-119.5 29q-54 31 -80 89l125 56q6 -15 18 -26
q22 -22 57 -22q22 0 38 10q17 10 28 28q15 26 15 64v46q-21 -34 -52 -52q-29 -17 -68 -17q-41 0 -72 18q-35 20 -58 60q-34 59 -34 150zM174 220q0 -40 15 -66q10 -18 27 -27q15 -9 33 -9q17 0 29 7q14 8 25 25q15 27 15 70v90q0 43 -15 70q-10 17 -25 25q-12 7 -29 7
q-19 0 -33 -9q-16 -9 -27 -27q-15 -26 -15 -66v-90z" />
    <glyph glyph-name="uni01E5" unicode="&#x1e5;" 
d="M13 -21h15q2 40 19 70q8 14 18 25q-17 29 -17 63q0 37 20 70l10 16q-12 13 -20 28q-24 41 -24 97.5t24 97.5q23 39 63 63q50 29 123 29q38 0 70 -8h162v-126l-29 1q7 -26 6 -56q0 -56 -23 -98q-23 -39 -64 -62q-50 -29 -122 -29q-38 0 -70 8q-1 -3 -1 -6q0 -11 8 -19
q10 -10 37 -11h59q72 0 121 -29q37 -21 56 -54q17 -30 19 -70h14v-39h-16q-5 -32 -19 -59q-22 -38 -64 -62q-55 -32 -138 -32q-82 0 -137 32q-42 24 -64 62q-15 26 -19 59h-17v39zM169 -21h163q-2 7 -8 12q-15 15 -47 15h-57q-29 0 -43 -15q-5 -5 -8 -12zM174 348.5
q0 -36.5 29 -53.5q17 -10 41 -9.5t40 9.5q29 17 29 54t-29 53q-14 9 -33 10h-7q-24 0 -41 -10q-29 -17 -29 -53.5zM177 -60q2 -3 5 -5q22 -22 68 -22q47 0 70 22q2 2 4 5h-147z" />
    <glyph glyph-name="O" unicode="O" 
d="M34 215v305q0 73 30 125q26 44 70 70q48 28 116 28t116 -28q44 -26 70 -70q30 -52 30 -125v-305q0 -73 -30 -125q-26 -44 -70 -70q-48 -28 -116 -28t-116 28q-44 26 -70 70q-30 52 -30 125zM174 215q0 -37 14 -61q10 -18 26 -27q15 -9 35.5 -9t36.5 9t26 27q14 24 14 61
v305q0 37 -14 61q-10 18 -26 27t-36 9t-36 -9t-26 -27q-14 -24 -14 -61v-305z" />
    <glyph glyph-name="Omicron" unicode="&#x39f;" 
d="M34 215v305q0 73 30 125q26 44 70 70q48 28 116 28t116 -28q44 -26 70 -70q30 -52 30 -125v-305q0 -73 -30 -125q-26 -44 -70 -70q-48 -28 -116 -28t-116 28q-44 26 -70 70q-30 52 -30 125zM174 215q0 -37 14 -61q10 -18 26 -27q15 -9 35.5 -9t36.5 9t26 27q14 24 14 61
v305q0 37 -14 61q-10 18 -26 27t-36 9t-36 -9t-26 -27q-14 -24 -14 -61v-305z" />
    <glyph glyph-name="afii10032" unicode="&#x41e;" 
d="M34 215v305q0 73 30 125q26 44 70 70q48 28 116 28t116 -28q44 -26 70 -70q30 -52 30 -125v-305q0 -73 -30 -125q-26 -44 -70 -70q-48 -28 -116 -28t-116 28q-44 26 -70 70q-30 52 -30 125zM174 215q0 -37 14 -61q10 -18 26 -27q15 -9 35.5 -9t36.5 9t26 27q14 24 14 61
v305q0 37 -14 61q-10 18 -26 27t-36 9t-36 -9t-26 -27q-14 -24 -14 -61v-305z" />
    <glyph glyph-name="o" unicode="o" 
d="M34 220v90q0 76 31 130q26 45 70 70q48 28 115 28t115 -28q44 -26 70 -70q31 -54 31 -130v-90q0 -76 -31 -130q-26 -45 -70 -70q-48 -28 -115 -28t-115 28q-44 26 -70 70q-31 54 -31 130zM174 220q0 -40 15 -66q10 -18 27 -27q15 -9 34.5 -9t33.5 9q16 9 27 27
q15 26 15 66v90q0 40 -15 66q-10 18 -27 27q-14 9 -34 9t-34 -9q-16 -9 -27 -27q-15 -26 -15 -66v-90z" />
    <glyph glyph-name="omicron" unicode="&#x3bf;" 
d="M34 220v90q0 76 31 130q26 45 70 70q48 28 115 28t115 -28q44 -26 70 -70q31 -54 31 -130v-90q0 -76 -31 -130q-26 -45 -70 -70q-48 -28 -115 -28t-115 28q-44 26 -70 70q-31 54 -31 130zM174 220q0 -40 15 -66q10 -18 27 -27q15 -9 34.5 -9t33.5 9q16 9 27 27
q15 26 15 66v90q0 40 -15 66q-10 18 -27 27q-14 9 -34 9t-34 -9q-16 -9 -27 -27q-15 -26 -15 -66v-90z" />
    <glyph glyph-name="afii10080" unicode="&#x43e;" 
d="M34 220v90q0 76 31 130q26 45 70 70q48 28 115 28t115 -28q44 -26 70 -70q31 -54 31 -130v-90q0 -76 -31 -130q-26 -45 -70 -70q-48 -28 -115 -28t-115 28q-44 26 -70 70q-31 54 -31 130zM174 220q0 -40 15 -66q10 -18 27 -27q15 -9 34.5 -9t33.5 9q16 9 27 27
q15 26 15 66v90q0 40 -15 66q-10 18 -27 27q-14 9 -34 9t-34 -9q-16 -9 -27 -27q-15 -26 -15 -66v-90z" />
    <glyph glyph-name="Oslash" unicode="&#xd8;" 
d="M33 -19l40 95q-5 7 -9 14q-30 52 -30 125v305q0 73 30 125q26 44 70 70q48 28 116 28q55 0 97 -18l28 64l92 -35l-40 -95q5 -7 9 -14q30 -52 30 -125v-305q0 -73 -30 -125q-26 -44 -70 -70q-48 -28 -116 -28q-55 0 -97 18l-28 -64zM174 315l121 286q-5 4 -9 7
q-16 9 -36 9t-36 -9t-26 -27q-14 -24 -14 -61v-205zM205 134q5 -4 9 -7q15 -9 35.5 -9t36.5 9t26 27q14 24 14 61v205z" />
    <glyph glyph-name="oslash" unicode="&#xf8;" 
d="M34 220v90q0 76 31 130q26 45 70 70q48 28 115 28q52 0 93 -17l35 58l86 -45l-43 -74l14 -20q31 -54 31 -130v-90q0 -76 -31 -130q-26 -45 -70 -70q-48 -28 -115 -28q-52 0 -93 17l-35 -58l-86 45l43 74l-14 20q-31 54 -31 130zM174 232l103 175q-12 5 -27 5
q-20 0 -34 -9q-16 -9 -27 -27q-15 -26 -15 -66v-78zM223 123q12 -5 27 -5q20 0 34 9q16 9 27 27q15 26 15 66v78z" />
    <glyph glyph-name="uni019F" unicode="&#x19f;" 
d="M34 215v305q0 73 30 125q26 44 70 70q48 28 116 28t116 -28q44 -26 70 -70q30 -52 30 -125v-305q0 -73 -30 -125q-26 -44 -70 -70q-48 -28 -116 -28t-116 28q-44 26 -70 70q-30 52 -30 125zM174 215q0 -37 14 -61q10 -18 26 -27q15 -9 35.5 -9t36.5 9t26 27q14 24 14 61
v107h-152v-107zM174 413h152v107q0 37 -14 61q-10 18 -26 27t-36 9t-36 -9t-26 -27q-14 -24 -14 -61v-107z" />
    <glyph glyph-name="uni04E8" unicode="&#x4e8;" 
d="M34 215v305q0 73 30 125q26 44 70 70q48 28 116 28t116 -28q44 -26 70 -70q30 -52 30 -125v-305q0 -73 -30 -125q-26 -44 -70 -70q-48 -28 -116 -28t-116 28q-44 26 -70 70q-30 52 -30 125zM174 215q0 -37 14 -61q10 -18 26 -27q15 -9 35.5 -9t36.5 9t26 27q14 24 14 61
v107h-152v-107zM174 413h152v107q0 37 -14 61q-10 18 -26 27t-36 9t-36 -9t-26 -27q-14 -24 -14 -61v-107z" />
    <glyph glyph-name="uni03F4" unicode="&#x3f4;" 
d="M34 215v305q0 73 30 125q26 44 70 70q48 28 116 28t116 -28q44 -26 70 -70q30 -52 30 -125v-305q0 -73 -30 -125q-26 -44 -70 -70q-48 -28 -116 -28t-116 28q-44 26 -70 70q-30 52 -30 125zM174 215q0 -37 14 -61q10 -18 26 -27q15 -9 35.5 -9t36.5 9t26 27q14 24 14 61
v107h-152v-107zM174 413h152v107q0 37 -14 61q-10 18 -26 27t-36 9t-36 -9t-26 -27q-14 -24 -14 -61v-107z" />
    <glyph glyph-name="uni0275" unicode="&#x275;" 
d="M34 220v90q0 76 31 130q26 45 70 70q48 28 115 28t115 -28q44 -26 70 -70q31 -54 31 -130v-90q0 -76 -31 -130q-26 -45 -70 -70q-48 -28 -115 -28t-115 28q-44 26 -70 70q-31 54 -31 130zM174 220q0 -40 15 -66q10 -18 27 -27q15 -9 34.5 -9t33.5 9q16 9 27 27
q15 26 15 66h-152zM174 310h152q0 40 -15 66q-10 18 -27 27q-14 9 -34 9t-34 -9q-16 -9 -27 -27q-15 -26 -15 -66z" />
    <glyph glyph-name="uni04E9" unicode="&#x4e9;" 
d="M34 220v90q0 76 31 130q26 45 70 70q48 28 115 28t115 -28q44 -26 70 -70q31 -54 31 -130v-90q0 -76 -31 -130q-26 -45 -70 -70q-48 -28 -115 -28t-115 28q-44 26 -70 70q-31 54 -31 130zM174 220q0 -40 15 -66q10 -18 27 -27q15 -9 34.5 -9t33.5 9q16 9 27 27
q15 26 15 66h-152zM174 310h152q0 40 -15 66q-10 18 -27 27q-14 9 -34 9t-34 -9q-16 -9 -27 -27q-15 -26 -15 -66z" />
    <glyph glyph-name="uni0298" unicode="&#x298;" 
d="M34 215v305q0 73 30 125q26 44 70 70q48 28 116 28t116 -28q44 -26 70 -70q30 -52 30 -125v-305q0 -73 -30 -125q-26 -44 -70 -70q-48 -28 -116 -28t-116 28q-44 26 -70 70q-30 52 -30 125zM174 215q0 -37 14 -61q10 -18 26 -27q15 -9 35.5 -9t36.5 9t26 27q14 24 14 61
v305q0 37 -14 61q-10 18 -26 27t-36 9t-36 -9t-26 -27q-14 -24 -14 -61v-305zM209 367.5q0 -18.5 11 -30t30 -11.5t30 11.5t11 30t-11 29.5t-30 11t-30 -11t-11 -29.5z" />
    <glyph glyph-name="uni1D16" unicode="&#x1d16;" 
d="M34 265v45q0 76 31 130q26 45 70 70q48 28 115 28t115 -28q44 -26 70 -70q31 -54 31 -130v-45h-140v45q0 40 -15 66q-10 18 -27 27q-15 9 -34.5 9t-33.5 -9q-16 -9 -27 -27q-15 -26 -15 -66v-45h-140z" />
    <glyph glyph-name="uni1D17" unicode="&#x1d17;" 
d="M34 220v45h140v-45q0 -40 15 -66q10 -18 27 -27q15 -9 34.5 -9t33.5 9q16 9 27 27q15 26 15 66v45h140v-45q0 -76 -31 -130q-26 -45 -70 -70q-48 -28 -115 -28t-115 28q-44 26 -70 70q-31 54 -31 130z" />
    <glyph glyph-name="Q" unicode="Q" 
d="M34 215v305q0 73 30 125q26 44 70 70q48 28 116 28t116 -28q44 -26 70 -70q30 -52 30 -125v-305q0 -73 -30 -125q-26 -44 -70 -70q-6 -3 -11 -6l37 -161h-140l-35 141q-47 5 -83 26q-44 26 -70 70q-30 52 -30 125zM174 215q0 -37 14 -61q10 -18 26 -27q15 -9 35.5 -9
t36.5 9t26 27q14 24 14 61v305q0 37 -14 61q-10 18 -26 27t-36 9t-36 -9t-26 -27q-14 -24 -14 -61v-305z" />
    <glyph glyph-name="uni051A" unicode="&#x51a;" 
d="M34 215v305q0 73 30 125q26 44 70 70q48 28 116 28t116 -28q44 -26 70 -70q30 -52 30 -125v-305q0 -73 -30 -125q-26 -44 -70 -70q-6 -3 -11 -6l37 -161h-140l-35 141q-47 5 -83 26q-44 26 -70 70q-30 52 -30 125zM174 215q0 -37 14 -61q10 -18 26 -27q15 -9 35.5 -9
t36.5 9t26 27q14 24 14 61v305q0 37 -14 61q-10 18 -26 27t-36 9t-36 -9t-26 -27q-14 -24 -14 -61v-305z" />
    <glyph glyph-name="q" unicode="q" 
d="M34 220v90q0 91 34 150q23 40 58 60q32 18 72 18q39 0 68 -17q31 -18 52 -52v61h140v-735h-140v266q-21 -34 -52 -52q-15 -8 -31.5 -12.5t-36.5 -4.5q-41 0 -72 18q-35 20 -58 60q-34 59 -34 150zM174 220q0 -40 15 -66q10 -18 27 -27q15 -9 33 -9q17 0 29 7q14 8 25 25
q15 27 15 70v90q0 43 -15 70q-10 17 -25 25q-12 7 -29 7q-19 0 -33 -9q-16 -9 -27 -27q-15 -26 -15 -66v-90z" />
    <glyph glyph-name="uni051B" unicode="&#x51b;" 
d="M34 220v90q0 91 34 150q23 40 58 60q32 18 72 18q39 0 68 -17q31 -18 52 -52v61h140v-735h-140v266q-21 -34 -52 -52q-15 -8 -31.5 -12.5t-36.5 -4.5q-41 0 -72 18q-35 20 -58 60q-34 59 -34 150zM174 220q0 -40 15 -66q10 -18 27 -27q15 -9 33 -9q17 0 29 7q14 8 25 25
q15 27 15 70v90q0 43 -15 70q-10 17 -25 25q-12 7 -29 7q-19 0 -33 -9q-16 -9 -27 -27q-15 -26 -15 -66v-90z" />
    <glyph glyph-name="uni024A" unicode="&#x24a;" 
d="M34 220v295q0 91 34 150q23 40 58 60q32 18 72 18q39 0 68 -17q31 -18 52 -52v61h140v-735q0 -36 11 -55q9 -16 25 -25q21 -12 64 -12v-126q-105 0 -156 29q-37 22 -59 59q-25 44 -25 130v61q-21 -34 -52 -52q-15 -8 -31.5 -12.5t-36.5 -4.5q-41 0 -72 18q-35 20 -58 60
q-34 59 -34 150zM174 220q0 -40 15 -66q10 -18 27 -27q15 -9 33 -9q17 0 29 7q14 8 25 25q15 27 15 70v295q0 43 -15 70q-10 17 -25 25q-12 7 -29 7q-19 0 -33 -9q-16 -9 -27 -27q-15 -26 -15 -66v-295z" />
    <glyph glyph-name="uni024B" unicode="&#x24b;" 
d="M34 220v90q0 91 34 150q23 40 58 60q32 18 72 18q39 0 68 -17q31 -18 52 -52v61h140v-530q0 -36 11 -55q9 -16 25 -25q21 -12 64 -12v-126q-105 0 -156 29q-37 22 -59 59q-25 44 -25 130v61q-21 -34 -52 -52q-29 -17 -68 -17q-41 0 -72 18q-35 20 -58 60q-34 59 -34 150z
M174 220q0 -40 15 -66q10 -18 27 -27q15 -9 33 -9q17 0 29 7q14 8 25 25q15 27 15 70v90q0 43 -15 70q-10 17 -25 25q-12 7 -29 7q-19 0 -33 -9q-16 -9 -27 -27q-15 -26 -15 -66v-90z" />
    <glyph glyph-name="uni02A0" unicode="&#x2a0;" 
d="M34 220v90q0 91 34 150q23 40 58 60q32 18 72 18q39 0 68 -17q31 -18 52 -52v61q0 65 28 113q26 45 72 72q57 33 140 33v-126q-34 0 -58 -14q-42 -24 -42 -78v-735h-140v266q-21 -34 -52 -52q-29 -17 -68 -17q-41 0 -72 18q-35 20 -58 60q-34 59 -34 150zM174 220
q0 -40 15 -66q10 -18 27 -27q15 -9 33 -9q17 0 29 7q14 8 25 25q15 27 15 70v90q0 43 -15 70q-10 17 -25 25q-12 7 -29 7q-19 0 -33 -9q-16 -9 -27 -27q-15 -26 -15 -66v-90z" />
    <glyph glyph-name="N" unicode="N" 
d="M42 0v735h136l158 -489q-18 102 -18 195v294h140v-735h-136l-158 489q18 -102 18 -195v-294h-140z" />
    <glyph glyph-name="Nu" unicode="&#x39d;" 
d="M42 0v735h136l158 -489q-18 102 -18 195v294h140v-735h-136l-158 489q18 -102 18 -195v-294h-140z" />
    <glyph glyph-name="uni0274" unicode="&#x274;" 
d="M42 0v530h156l142 -356q-7 76 -7 144v212h125v-530h-156l-142 356q7 -76 7 -144v-212h-125z" />
    <glyph glyph-name="uni019D" unicode="&#x19d;" 
d="M-58 -92q34 0 58 14q42 24 42 78v735h136l158 -489q-18 102 -18 195v294h140v-735h-136l-158 489q18 -102 18 -195v-294q0 -65 -28 -113q-26 -45 -72 -72q-57 -33 -140 -33v126z" />
    <glyph glyph-name="n" unicode="n" 
d="M42 0v530h140v-61q21 34 52 52q29 17 67 17t67 -17q33 -19 56 -57q34 -59 34 -154v-310h-140v310q0 43 -15 70q-10 17 -25 25q-12 7 -28 7t-28 -7q-14 -8 -25 -25q-15 -27 -15 -70v-310h-140z" />
    <glyph glyph-name="glyph350" 
d="M42 0v530h140v-61q21 34 52 52q29 17 67 17t67 -17q33 -19 56 -57q34 -59 34 -154v-310h-140v310q0 43 -15 70q-10 17 -25 25q-12 7 -28 7t-28 -7q-14 -8 -25 -25q-15 -27 -15 -70v-310h-140z" />
    <glyph glyph-name="napostrophe" unicode="&#x149;" 
d="M42 0v530h140v-61q21 34 52 52q29 17 67 17t67 -17q33 -19 56 -57q34 -59 34 -154v-310h-140v310q0 43 -15 70q-10 17 -25 25q-12 7 -28 7t-28 -7q-14 -8 -25 -25q-15 -27 -15 -70v-310h-140zM-19 719.5q0 19.5 8 33.5q7 12 20 19q14 8 33.5 8t32.5 -8q12 -7 20 -19
q8 -14 8 -34q0 -71 -33 -128q-16 -28 -40 -51l-47 44q32 32 44 75q-26 5 -38 27q-8 14 -8 33.5z" />
    <glyph glyph-name="eng" unicode="&#x14b;" 
d="M42 0v530h140v-61q21 34 52 52q29 17 67 17t67 -17q33 -19 56 -57q34 -59 34 -154v-310q0 -65 -28 -113q-26 -45 -72 -72q-57 -33 -140 -33v126q34 0 58 14q42 24 42 78v310q0 43 -15 70q-10 17 -25 25q-12 7 -28 7t-28 -7q-14 -8 -25 -25q-15 -27 -15 -70v-310h-140z
" />
    <glyph glyph-name="Eng" unicode="&#x14a;" 
d="M42 0v735h140v-43q17 20 39 33q32 18 73.5 18t73.5 -18q35 -20 57 -59q33 -57 33 -146v-310q0 -71 -29 -121q-25 -44 -69 -69q-49 -28 -117 -28v126q21 0 36 9t26 26q13 23 13 57v310q0 37 -14 62q-10 18 -26 26q-15 9 -35 9t-35 -9q-16 -9 -26 -27v-581h-140z" />
    <glyph glyph-name="uni0272" unicode="&#x272;" 
d="M-58 -92q34 0 58 14q42 24 42 78v530h140v-61q21 34 52 52q29 17 67 17t67 -17q33 -19 56 -57q34 -59 34 -154v-310h-140v310q0 43 -15 70q-10 17 -25 25q-12 7 -28 7t-28 -7q-14 -8 -25 -25q-15 -27 -15 -70v-310q0 -65 -28 -113q-26 -45 -72 -72q-57 -33 -140 -33v126z
" />
    <glyph glyph-name="uni0235" unicode="&#x235;" 
d="M42 0v530h125v-41q16 27 38 39q17 10 39 10t39 -10q22 -13 39 -42q36 -62 36 -176v-71q17 3 36 3q40 0 70 -17q23 -13 36 -36q18 -31 17 -72q0 -39 -17 -69q-14 -24 -38 -39q-30 -17 -71 -17q-52 0 -93 24q-25 14 -41 35q-6 -9 -11 -18q-32 -56 -46 -118l-92 19
q8 34 21 66h-87zM167 79q31 53 66 88v143q0 89 -22 110q-5 5 -11 5t-11 -5q-21 -21 -22 -110v-231zM358 128q0 -30 12 -43q9 -9 21 -8q13 0 22 9q11 11 10.5 31.5t-10.5 30.5t-26 10q-14 0 -29 -7v-23z" />
    <glyph glyph-name="eta" unicode="&#x3b7;" 
d="M42 0v530h140v-61q21 34 52 52q29 17 67 17t67 -17q33 -19 56 -57q34 -59 34 -154v-515h-140v515q0 43 -15 70q-10 17 -25 25q-12 7 -28 7t-28 -7q-14 -8 -25 -25q-15 -27 -15 -70v-310h-140z" />
    <glyph glyph-name="uni0220" unicode="&#x220;" 
d="M42 0v735h140v-61q21 34 52 52q29 17 67 17t67 -17q33 -19 56 -57q34 -59 34 -154v-720h-140v720q0 43 -15 70q-10 17 -25 25q-12 7 -28 7t-28 -7q-14 -8 -25 -25q-15 -27 -15 -70v-515h-140z" />
    <glyph glyph-name="uni019E" unicode="&#x19e;" 
d="M42 0v530h140v-61q21 34 52 52q29 17 67 17t67 -17q33 -19 56 -57q34 -59 34 -154v-515h-140v515q0 43 -15 70q-10 17 -25 25q-12 7 -28 7t-28 -7q-14 -8 -25 -25q-15 -27 -15 -70v-310h-140z" />
    <glyph glyph-name="U" unicode="U" 
d="M42 215v520h140v-520q0 -40 15 -65q10 -17 23 -25q13 -7 30 -7t30 7q14 8 23 25q15 25 15 65v520h140v-520q0 -75 -30 -128q-25 -44 -69 -69q-46 -26 -109 -26t-109 26q-43 25 -69 69q-30 53 -30 128z" />
    <glyph glyph-name="uni1D1C" unicode="&#x1d1c;" 
d="M42 215v315h140v-315q0 -40 15 -65q10 -17 23 -25q13 -7 30 -7t30 7q14 8 23 25q15 25 15 65v315h140v-315q0 -75 -30 -128q-25 -44 -69 -69q-46 -26 -109 -26t-109 26q-43 25 -69 69q-30 53 -30 128z" />
    <glyph glyph-name="u" unicode="u" 
d="M42 220v310h140v-310q0 -43 15 -70q10 -17 25 -25q12 -7 28 -7t28 7q14 8 25 25q15 27 15 70v310h140v-530h-140v61q-21 -34 -52 -52q-29 -17 -67 -17t-67 17q-33 19 -56 57q-34 59 -34 154z" />
    <glyph glyph-name="upsilon" unicode="&#x3c5;" 
d="M42 220v310h140v-310q0 -43 15 -70q10 -17 25 -25q12 -7 28 -7t28 7q14 8 25 25q15 27 15 70v310h140v-310q0 -78 -31 -132q-26 -45 -69 -70q-45 -26 -107.5 -26t-108.5 26q-43 25 -69 70q-31 54 -31 132z" />
    <glyph glyph-name="uni01B2" unicode="&#x1b2;" 
d="M42 215v520h140v-520q0 -40 15 -65q10 -17 23 -25q13 -7 30 -7t30 7q14 8 23 25q15 25 15 65v302q0 36 -14 60q-9 16 -23 24t-31 8v126q64 0 111 -27q42 -24 68 -68q29 -51 29 -123v-302q0 -75 -30 -128q-25 -44 -69 -69q-46 -26 -109 -26t-109 26q-43 25 -69 69
q-30 53 -30 128z" />
    <glyph glyph-name="uni028B" unicode="&#x28b;" 
d="M42 220v310h140v-310q0 -43 15 -70q10 -17 25 -25q12 -7 28 -7t28 7q14 8 25 25q15 27 15 70v92q0 36 -14 60q-9 16 -23 24t-31 8v126q64 0 111 -27q42 -24 68 -68q29 -51 29 -123v-92q0 -78 -31 -132q-26 -45 -69 -70q-45 -26 -107.5 -26t-108.5 26q-43 25 -69 70
q-31 54 -31 132z" />
    <glyph glyph-name="M" unicode="M" 
d="M42 0v735h109l99 -373l99 373h109v-735h-140v147q0 139 32 294q6 29 11 57l-73 -278h-76l-73 278q5 -28 11 -57q32 -155 32 -294v-147h-140z" />
    <glyph glyph-name="Mu" unicode="&#x39c;" 
d="M42 0v735h109l99 -373l99 373h109v-735h-140v147q0 139 32 294q6 29 11 57l-73 -278h-76l-73 278q5 -28 11 -57q32 -155 32 -294v-147h-140z" />
    <glyph glyph-name="afii10030" unicode="&#x41c;" 
d="M42 0v735h109l99 -373l99 373h109v-735h-140v147q0 139 32 294q6 29 11 57l-73 -278h-76l-73 278q5 -28 11 -57q32 -155 32 -294v-147h-140z" />
    <glyph glyph-name="afii10078" unicode="&#x43c;" 
d="M42 0v530h109l99 -269l99 269h109v-530h-140v106q0 101 32 212l12 42l-74 -201h-76l-74 201q5 -21 12 -42q32 -111 32 -212v-106h-140z" />
    <glyph glyph-name="m" unicode="m" 
d="M34 0v530h113v-34q14 23 32 34q14 8 33 8t34 -9q19 -11 33 -35q8 -13 14 -30q6 17 13 32q14 23 32 34q14 8 33 8t35 -9q19 -11 33 -35q27 -47 27 -129v-365h-113v365q0 53 -15 68q-4 4 -8.5 3.5t-8.5 -3.5q-15 -15 -15 -68v-365h-112v365q0 53 -15 68q-4 4 -9 3.5
t-8 -3.5q-15 -15 -15 -68v-365h-113z" />
    <glyph glyph-name="glyph370" 
d="M34 0v530h113v-34q14 23 32 34q14 8 33 8t34 -9q19 -11 33 -35q8 -13 14 -30q6 17 13 32q14 23 32 34q14 8 33 8t35 -9q19 -11 33 -35q27 -47 27 -129v-365h-113v365q0 53 -15 68q-4 4 -8.5 3.5t-8.5 -3.5q-15 -15 -15 -68v-365h-112v365q0 53 -15 68q-4 4 -9 3.5
t-8 -3.5q-15 -15 -15 -68v-365h-113z" />
    <glyph glyph-name="glyph371" 
d="M34 0v530h113v-34q14 23 32 34q14 8 33 8t34 -9q19 -11 33 -35q8 -13 14 -30q6 17 13 32q14 23 32 34q14 8 33 8t35 -9q19 -11 33 -35q27 -47 27 -129v-239h65v-238h-140v112h-38v365q0 53 -15 68q-4 4 -8.5 3.5t-8.5 -3.5q-15 -15 -15 -68v-365h-112v365q0 53 -15 68
q-4 4 -9 3.5t-8 -3.5q-15 -15 -15 -68v-365h-113z" />
    <glyph glyph-name="uni0271" unicode="&#x271;" 
d="M34 0v530h113v-34q14 23 32 34q14 8 33 8t34 -9q19 -11 33 -35q8 -13 14 -30q6 17 13 32q14 23 32 34q14 8 33 8t35 -9q19 -11 33 -35q27 -47 27 -129v-365q0 -62 -26 -107q-24 -42 -69 -68q-54 -31 -131 -31v102q39 0 65 15q48 28 48 89v365q0 53 -15 68q-4 4 -8.5 3.5
t-8.5 -3.5q-15 -15 -15 -68v-365h-112v365q0 53 -15 68q-4 4 -9 3.5t-8 -3.5q-15 -15 -15 -68v-365h-113z" />
    <glyph glyph-name="uni026F" unicode="&#x26f;" 
d="M34 165v365h113v-365q0 -53 15 -68q4 -4 8.5 -3.5t8.5 3.5q15 15 15 68v365h112v-365q0 -53 15 -68q4 -4 9 -3.5t8 3.5q15 15 15 68v365h113v-530h-113v34q-14 -23 -32 -34q-14 -8 -33 -8t-34 9q-19 11 -33 35q-8 13 -14 30q-6 -17 -13 -32q-14 -23 -32 -34
q-14 -8 -33 -8t-35 9q-19 11 -33 35q-27 47 -27 129z" />
    <glyph glyph-name="uni019C" unicode="&#x19c;" 
d="M34 165v570h113v-570q0 -53 15 -68q4 -4 8.5 -3.5t8.5 3.5q15 15 15 68v570h112v-570q0 -53 15 -68q4 -4 9 -3.5t8 3.5q15 15 15 68v570h113v-735h-113v34q-14 -23 -32 -34q-14 -8 -33 -8t-34 9q-19 11 -33 35q-8 13 -14 30q-6 -17 -13 -32q-14 -23 -32 -34
q-14 -8 -33 -8t-35 9q-19 11 -33 35q-27 47 -27 129z" />
    <glyph glyph-name="uni0270" unicode="&#x270;" 
d="M34 165v365h113v-365q0 -53 15 -68q4 -4 8.5 -3.5t8.5 3.5q15 15 15 68v365h112v-365q0 -53 15 -68q4 -4 9 -3.5t8 3.5q15 15 15 68v365h113v-735h-113v239q-14 -23 -32 -34q-14 -8 -33 -8t-34 9q-19 11 -33 35q-8 13 -14 30q-6 -17 -13 -32q-14 -23 -32 -34
q-14 -8 -33 -8t-35 9q-19 11 -33 35q-27 47 -27 129z" />
    <glyph glyph-name="H" unicode="H" 
d="M42 0v735h140v-297h136v297h140v-735h-140v312h-136v-312h-140z" />
    <glyph glyph-name="Eta" unicode="&#x397;" 
d="M42 0v735h140v-297h136v297h140v-735h-140v312h-136v-312h-140z" />
    <glyph glyph-name="afii10031" unicode="&#x41d;" 
d="M42 0v735h140v-297h136v297h140v-735h-140v312h-136v-312h-140z" />
    <glyph glyph-name="uni04A2" unicode="&#x4a2;" 
d="M42 0v735h140v-297h136v297h140v-609h73v-238h-140v112h-73v312h-136v-312h-140z" />
    <glyph glyph-name="afii10079" unicode="&#x43d;" 
d="M42 0v530h140v-197h136v197h140v-530h-140v207h-136v-207h-140z" />
    <glyph glyph-name="uni029C" unicode="&#x29c;" 
d="M42 0v530h140v-197h136v197h140v-530h-140v207h-136v-207h-140z" />
    <glyph glyph-name="uni04A3" unicode="&#x4a3;" 
d="M42 0v530h140v-197h136v197h140v-404h73v-238h-140v112h-73v207h-136v-207h-140z" />
    <glyph glyph-name="Hbar" unicode="&#x126;" 
d="M13 488v90h29v157h140v-157h136v157h140v-157h29v-90h-29v-488h-140v312h-136v-312h-140v488h-29zM182 438h136v50h-136v-50z" />
    <glyph glyph-name="h" unicode="h" 
d="M42 0v735h140v-266q21 34 52 52q29 17 67 17t67 -17q33 -19 56 -57q34 -59 34 -154v-310h-140v310q0 43 -15 70q-10 17 -25 25q-12 7 -28 7t-28 -7q-14 -8 -25 -25q-15 -27 -15 -70v-310h-140z" />
    <glyph glyph-name="uni04BB" unicode="&#x4bb;" 
d="M42 0v735h140v-266q21 34 52 52q29 17 67 17t67 -17q33 -19 56 -57q34 -59 34 -154v-310h-140v310q0 43 -15 70q-10 17 -25 25q-12 7 -28 7t-28 -7q-14 -8 -25 -25q-15 -27 -15 -70v-310h-140z" />
    <glyph glyph-name="uni0266" unicode="&#x266;" 
d="M42 0v515q0 77 31 131q26 45 70 70q47 27 112.5 27t112.5 -27q44 -25 70 -71q17 -30 25 -65l-134 -37q-3 21 -13 38q-10 18 -26 28q-15 8 -34 8t-33 -8q-16 -9 -26 -27q-15 -26 -15 -67v-46q21 34 52 52q29 17 67 17t67 -17q33 -19 56 -57q34 -59 34 -154v-310h-140v310
q0 43 -15 70q-10 17 -25 25q-12 7 -28 7t-28 -7q-14 -8 -25 -25q-15 -27 -15 -70v-310h-140z" />
    <glyph glyph-name="uni0267" unicode="&#x267;" 
d="M42 0v515q0 77 31 131q26 45 70 70q47 27 112.5 27t112.5 -27q44 -25 70 -71q17 -30 25 -65l-134 -37q-3 21 -13 38q-10 18 -26 28q-15 8 -34 8t-33 -8q-16 -9 -26 -27q-15 -26 -15 -67v-46q21 34 52 52q29 17 67 17t67 -17q33 -19 56 -57q34 -59 34 -154v-310
q0 -65 -28 -113q-26 -45 -72 -72q-57 -33 -140 -33v126q34 0 58 14q42 24 42 78v310q0 43 -15 70q-10 17 -25 25q-12 7 -28 7t-28 -7q-14 -8 -25 -25q-15 -27 -15 -70v-310h-140z" />
    <glyph glyph-name="uniA727" unicode="&#xa727;" 
d="M42 0v735h140v-266q21 34 52 52q29 17 67 17t67 -17q33 -19 56 -57q34 -59 34 -154v-310q0 -65 -28 -113q-26 -45 -72 -72q-57 -33 -140 -33v126q34 0 58 14q42 24 42 78v310q0 43 -15 70q-10 17 -25 25q-12 7 -28 7t-28 -7q-14 -8 -25 -25q-15 -27 -15 -70v-310h-140z
" />
    <glyph glyph-name="uni0265" unicode="&#x265;" 
d="M42 220v310h140v-310q0 -43 15 -70q10 -17 25 -25q12 -7 28 -7t28 7q14 8 25 25q15 27 15 70v310h140v-735h-140v266q-21 -34 -52 -52q-29 -17 -67 -17t-67 17q-33 19 -56 57q-34 59 -34 154z" />
    <glyph glyph-name="uni02AE" unicode="&#x2ae;" 
d="M-58 404v126q105 0 156 -29q37 -22 59 -59q25 -44 25 -130v-92q0 -43 15 -70q10 -17 25 -25q12 -7 28 -7t28 7q14 8 25 25q15 27 15 70v310h140v-735h-140v266q-21 -34 -52 -52q-29 -17 -67 -17t-67 17q-33 19 -56 57q-34 59 -34 154v92q0 36 -11 55q-9 16 -25 25
q-21 12 -64 12z" />
    <glyph glyph-name="uni02AF" unicode="&#x2af;" 
d="M-58 404v126q105 0 156 -29q37 -22 59 -59q25 -44 25 -130v-92q0 -43 15 -70q10 -17 25 -25q12 -7 28 -7t28 7q14 8 25 25q15 27 15 70v310h140v-530q0 -36 11 -55q9 -16 25 -25q21 -12 64 -12v-126q-105 0 -156 29q-37 22 -59 59q-25 44 -25 130v61q-21 -34 -52 -52
q-29 -17 -67 -17t-67 17q-33 19 -56 57q-34 59 -34 154v92q0 36 -11 55q-9 16 -25 25q-21 12 -64 12z" />
    <glyph glyph-name="hbar" unicode="&#x127;" 
d="M13 577v90h29v68h140v-68h68v-90h-68v-108q21 34 52 52q29 17 67 17t67 -17q33 -19 56 -57q34 -59 34 -154v-310h-140v310q0 43 -15 70q-10 17 -25 25q-12 7 -28 7t-28 -7q-14 -8 -25 -25q-15 -27 -15 -70v-310h-140v577h-29z" />
    <glyph glyph-name="afii10108" unicode="&#x45b;" 
d="M13 577v90h29v68h140v-68h68v-90h-68v-108q21 34 52 52q29 17 67 17t67 -17q33 -19 56 -57q34 -59 34 -154v-310h-140v310q0 43 -15 70q-10 17 -25 25q-12 7 -28 7t-28 -7q-14 -8 -25 -25q-15 -27 -15 -70v-310h-140v577h-29z" />
    <glyph glyph-name="F" unicode="F" 
d="M63 0v735h395v-126h-255v-149h192v-126h-192v-334h-140z" />
    <glyph glyph-name="uni0191" unicode="&#x191;" 
d="M-37 -92q34 0 58 14q42 24 42 78v735h395v-126h-255v-149h192v-126h-192v-334q0 -65 -28 -113q-26 -45 -72 -72q-57 -33 -140 -33v126z" />
    <glyph glyph-name="glyph396" 
d="M174 0v615q0 38 17 67q19 33 59 57q63 36 164 36v-126q-73 0 -94 -21q-6 -6 -6 -13v-615h-140z" />
    <glyph glyph-name="glyph397" 
d="M117 0v520q0 76 31 130q25 43 67 67q44 26 104.5 26t104.5 -26q42 -24 67 -67q18 -32 26 -70l-134 -36q-6 49 -37 66q-12 7 -26 7t-26 -6q-13 -8 -22 -24q-15 -26 -15 -67v-520h-140z" />
    <glyph glyph-name="glyph398" 
d="M80 -69h13q42 0 60 10q13 7 19 20q8 13 8 39v580q0 74 22 113q20 34 54 54q49 28 158 28h6v-126h-13q-42 0 -60 -10q-13 -7 -19 -20q-8 -13 -8 -39v-580q0 -74 -22 -113q-20 -34 -54 -54q-49 -28 -158 -28h-6v126z" />
    <glyph glyph-name="uni0283" unicode="&#x283;" 
d="M80 -69h13q42 0 60 10q13 7 19 20q8 13 8 39v580q0 74 22 113q20 34 54 54q49 28 158 28h6v-126h-13q-42 0 -60 -10q-13 -7 -19 -20q-8 -13 -8 -39v-580q0 -74 -22 -113q-20 -34 -54 -54q-49 -28 -158 -28h-6v126z" />
    <glyph glyph-name="uni0284" unicode="&#x284;" 
d="M80 -69h13q42 0 60 10q13 7 19 20q8 13 8 39v87h-35v91h35v402q0 74 22 113q20 34 54 54q49 28 158 28h6v-126h-13q-42 0 -60 -10q-13 -7 -19 -20q-8 -13 -8 -39v-402h35v-91h-35v-87q0 -74 -22 -113q-20 -34 -54 -54q-49 -28 -158 -28h-6v126z" />
    <glyph glyph-name="longs" unicode="&#x17f;" 
d="M117 0v520q0 76 31 130q25 43 67 67q44 26 104.5 26t104.5 -26q42 -24 67 -67q18 -32 26 -70l-134 -36q-6 49 -37 66q-12 7 -26 7t-26 -6q-13 -8 -22 -24q-15 -26 -15 -67v-520h-140z" />
    <glyph glyph-name="uni0286" unicode="&#x286;" 
d="M-12 -69q0 48 21 83q15 26 40 40q35 20 88 21q18 0 37 -3v543q0 38 17 67q19 33 59 57q63 36 164 36v-126q-73 0 -94 -21q-6 -6 -6 -13v-596q97 -61 156 -163q8 -13 14 -28l-97 -41q-6 13 -14 26q-28 49 -67 85q-5 -18 -13 -31q-19 -33 -54 -54q-46 -26 -104 -26
q-47 0 -83 20q-28 16 -44 45q-20 34 -20 79zM96 -69q0 -24 12 -36q11 -11 27 -11q15 0 25 10q14 14 14 51v29q-16 4 -31 4q-47 0 -47 -47z" />
    <glyph glyph-name="uni027F" unicode="&#x27f;" 
d="M89 404v126q102 0 165 -36q38 -22 57 -55q16 -28 16 -64v-580h-140v580q0 6 -4 10q-19 19 -94 19z" />
    <glyph glyph-name="uni0285" unicode="&#x285;" 
d="M75 404v126q85 0 144 -34q101 -58 101 -184v-312q0 -53 43 -77q25 -15 62 -15v-126q-85 0 -144 34q-101 58 -101 184v312q0 53 -43 77q-25 15 -62 15z" />
    <glyph glyph-name="glyph405" 
d="M42 388v126h111v49q0 60 24 102q20 35 56 56q38 22 90.5 22t90.5 -22q35 -20 56 -56q12 -22 18 -46l-127 -53q-4 29 -17 42q-9 9 -21 9q-10 0 -16 -7q-14 -14 -14 -47v-49h144v-126h-144v-388h-140v388h-111z" />
    <glyph glyph-name="uniAB35" unicode="&#xab35;" 
d="M42 388v126h111v49q0 60 24 102q20 35 56 56q38 22 90.5 22t90.5 -22q35 -20 56 -56q12 -22 18 -46l-127 -53q-4 29 -17 42q-9 9 -21 9q-10 0 -16 -7q-14 -14 -14 -47v-49h144v-126h-144v-388h-140v388h-111z" />
    <glyph glyph-name="glyph407" 
d="M75 388v126h105v66q0 74 22 113q20 34 54 54q49 28 158 28h6v-126h-13q-42 0 -60 -10q-13 -7 -19 -20q-8 -13 -8 -39v-66h105v-126h-105v-388q0 -74 -22 -113q-20 -34 -54 -54q-49 -28 -158 -28h-6v126h13q42 0 60 10q13 7 19 20q8 13 8 39v388h-105z" />
    <glyph glyph-name="florin" unicode="&#x192;" 
d="M75 388v126h105v66q0 74 22 113q20 34 54 54q49 28 158 28h6v-126h-13q-42 0 -60 -10q-13 -7 -19 -20q-8 -13 -8 -39v-66h105v-126h-105v-388q0 -74 -22 -113q-20 -34 -54 -54q-49 -28 -158 -28h-6v126h13q42 0 60 10q13 7 19 20q8 13 8 39v388h-105z" />
    <glyph glyph-name="f" unicode="f" 
d="M42 388v126h111v49q0 60 24 102q20 35 56 56q38 22 90.5 22t90.5 -22q35 -20 56 -56q12 -22 18 -46l-127 -53q-4 29 -17 42q-9 9 -21 9q-10 0 -16 -7q-14 -14 -14 -47v-49h144v-126h-144v-388h-140v388h-111z" />
    <glyph glyph-name="uni025F" unicode="&#x25f;" 
d="M12 -89l127 53q4 -29 17 -42q9 -9 21 -9q10 0 16 7q14 14 14 47v49h-144v126h144v388h140v-388h111v-126h-111v-49q0 -60 -24 -102q-20 -35 -56 -56q-38 -22 -90.5 -22t-90.5 22q-35 20 -56 56q-12 22 -18 46z" />
    <glyph glyph-name="uniFB01" unicode="&#xfb01;" 
d="M25 388v126h43v6q0 76 31 130q25 43 67 67q44 26 105 26t105 -26q42 -24 67 -67q17 -32 25 -70l-134 -36q-6 49 -36 66q-12 7 -27 7q-14 0 -26 -6q-13 -8 -22 -24q-15 -26 -15 -67v-6h250v-514h-140v388h-110v-388h-140v388h-43z" />
    <glyph glyph-name="glyph412" 
d="M25 388v126h43v6q0 78 32 132q25 43 65 67q42 24 100.5 24t100.5 -24q41 -24 66 -67q19 -33 26 -72v-580h-140v571q-7 20 -19 32q-14 14 -33 14t-32 -13q-26 -25 -26 -84v-6h84v-126h-84v-388h-140v388h-43z" />
    <glyph glyph-name="glyph413" 
d="M25 388v126h107v66q0 74 22 113q20 34 54 54q49 28 157 28h6v-40h87v-735h-140v646q-12 -3 -19 -7q-13 -7 -20 -20t-7 -39v-66h40v-126h-40v-388q0 -74 -23 -113q-20 -34 -54 -54q-49 -28 -157 -28h-6v126h12q42 0 60 10q13 7 20 20q8 13 8 39v388h-107z" />
    <glyph glyph-name="uniFB02" unicode="&#xfb02;" 
d="M25 388v126h43v6q0 78 32 132q25 43 65 67q42 24 100.5 24t100.5 -24q41 -24 66 -67q19 -33 26 -72v-580h-140v571q-7 20 -19 32q-14 14 -33 14t-32 -13q-26 -25 -26 -84v-6h84v-126h-84v-388h-140v388h-43z" />
    <glyph glyph-name="E" unicode="E" 
d="M63 0v735h395v-126h-255v-149h192v-126h-192v-208h255v-126h-395z" />
    <glyph glyph-name="Epsilon" unicode="&#x395;" 
d="M63 0v735h395v-126h-255v-149h192v-126h-192v-208h255v-126h-395z" />
    <glyph glyph-name="afii10022" unicode="&#x415;" 
d="M63 0v735h395v-126h-255v-149h192v-126h-192v-208h255v-126h-395z" />
    <glyph glyph-name="uni018E" unicode="&#x18e;" 
d="M42 0v126h255v149h-192v126h192v208h-255v126h395v-735h-395z" />
    <glyph glyph-name="uni2C7B" unicode="&#x2c7b;" 
d="M42 0v126h255v55h-192v126h192v97h-255v126h395v-530h-395z" />
    <glyph glyph-name="e" unicode="e" 
d="M34 220v90q0 76 31 130q26 45 70 70q48 28 115 28t115 -28q44 -26 70 -70q31 -54 31 -130v-108h-291q3 -26 14 -45t28 -29t40 -10q36 0 59 22q15 15 21 37l130 -47q-7 -19 -17 -37q-27 -46 -72 -72q-51 -29 -121 -29t-121 29q-45 26 -71 72q-31 53 -31 127zM175 328h150
q-3 28 -14 48q-10 18 -27 27q-15 9 -34.5 9t-33.5 -9q-16 -9 -27 -27q-11 -20 -14 -48z" />
    <glyph glyph-name="afii10070" unicode="&#x435;" 
d="M34 220v90q0 76 31 130q26 45 70 70q48 28 115 28t115 -28q44 -26 70 -70q31 -54 31 -130v-108h-291q3 -26 14 -45t28 -29t40 -10q36 0 59 22q15 15 21 37l130 -47q-7 -19 -17 -37q-27 -46 -72 -72q-51 -29 -121 -29t-121 29q-45 26 -71 72q-31 53 -31 127zM175 328h150
q-3 28 -14 48q-10 18 -27 27q-15 9 -34.5 9t-33.5 -9q-16 -9 -27 -27q-11 -20 -14 -48z" />
    <glyph glyph-name="uni01DD" unicode="&#x1dd;" 
d="M33 400q7 19 17 37q27 46 72 72q51 29 121 29t121 -29q45 -26 71 -72q31 -53 31 -127v-90q0 -76 -31 -130q-26 -45 -70 -70q-48 -28 -115 -28t-115 28q-44 26 -70 70q-31 54 -31 130v108h291q-3 26 -14 45t-28 29t-40 10q-36 0 -59 -22q-15 -15 -21 -37zM175 202
q3 -28 14 -48q10 -18 27 -27q15 -9 34.5 -9t33.5 9q16 9 27 27q11 20 14 48h-150z" />
    <glyph glyph-name="uni0259" unicode="&#x259;" 
d="M33 400q7 19 17 37q27 46 72 72q51 29 121 29t121 -29q45 -26 71 -72q31 -53 31 -127v-90q0 -76 -31 -130q-26 -45 -70 -70q-48 -28 -115 -28t-115 28q-44 26 -70 70q-31 54 -31 130v108h291q-3 26 -14 45t-28 29t-40 10q-36 0 -59 -22q-15 -15 -21 -37zM175 202
q3 -28 14 -48q10 -18 27 -27q15 -9 34.5 -9t33.5 9q16 9 27 27q11 20 14 48h-150z" />
    <glyph glyph-name="afii10846" unicode="&#x4d9;" 
d="M33 400q7 19 17 37q27 46 72 72q51 29 121 29t121 -29q45 -26 71 -72q31 -53 31 -127v-90q0 -76 -31 -130q-26 -45 -70 -70q-48 -28 -115 -28t-115 28q-44 26 -70 70q-31 54 -31 130v108h291q-3 26 -14 45t-28 29t-40 10q-36 0 -59 -22q-15 -15 -21 -37zM175 202
q3 -28 14 -48q10 -18 27 -27q15 -9 34.5 -9t33.5 9q16 9 27 27q11 20 14 48h-150z" />
    <glyph glyph-name="uni018F" unicode="&#x18f;" 
d="M33 605q7 19 17 37q27 46 72 72q51 29 121 29t121 -29q45 -26 71 -72q31 -53 31 -127v-295q0 -76 -31 -130q-26 -45 -70 -70q-48 -28 -115 -28t-115 28q-44 26 -70 70q-31 54 -31 130v210h292v85q0 38 -15 63q-11 19 -28 29t-40 10q-36 0 -59 -22q-15 -15 -21 -37z
M174 220q0 -40 15 -66q10 -18 27 -27q15 -9 34.5 -9t33.5 9q16 9 27 27q15 26 15 66v84h-152v-84z" />
    <glyph glyph-name="uni04D8" unicode="&#x4d8;" 
d="M33 605q7 19 17 37q27 46 72 72q51 29 121 29t121 -29q45 -26 71 -72q31 -53 31 -127v-295q0 -76 -31 -130q-26 -45 -70 -70q-48 -28 -115 -28t-115 28q-44 26 -70 70q-31 54 -31 130v210h292v85q0 38 -15 63q-11 19 -28 29t-40 10q-36 0 -59 -22q-15 -15 -21 -37z
M174 220q0 -40 15 -66q10 -18 27 -27q15 -9 34.5 -9t33.5 9q16 9 27 27q15 26 15 66v84h-152v-84z" />
    <glyph glyph-name="uni0258" unicode="&#x258;" 
d="M29 130l130 47q7 -21 21 -36q23 -23 61 -23q24 0 41.5 10.5t28.5 29.5t14 44h-291v108q0 76 31 130q26 45 70 70q48 28 115 28t115 -28q44 -26 70 -70q31 -54 31 -130v-90q0 -74 -31 -126q-26 -46 -71 -72q-51 -30 -123 -30t-123 30q-46 26 -73 72q-10 17 -16 36z
M175 328h150q-3 28 -14 48q-10 18 -27 27q-15 9 -34.5 9t-33.5 -9q-16 -9 -27 -27q-11 -20 -14 -48z" />
    <glyph glyph-name="T" unicode="T" 
d="M42 609v126h416v-126h-138v-609h-140v609h-138z" />
    <glyph glyph-name="Tau" unicode="&#x3a4;" 
d="M42 609v126h416v-126h-138v-609h-140v609h-138z" />
    <glyph glyph-name="afii10036" unicode="&#x422;" 
d="M42 609v126h416v-126h-138v-609h-140v609h-138z" />
    <glyph glyph-name="uni04AC" unicode="&#x4ac;" 
d="M42 609v126h416v-126h-138v-483h73v-238h-140v112h-73v609h-138z" />
    <glyph glyph-name="uniA7B1" unicode="&#xa7b1;" 
d="M42 0v126h138v609h140v-609h138v-126h-416z" />
    <glyph glyph-name="Tbar" unicode="&#x166;" 
d="M42 609v126h416v-126h-138v-233h96v-90h-96v-286h-140v286h-96v90h96v233h-138z" />
    <glyph glyph-name="uni01AC" unicode="&#x1ac;" 
d="M42 565q0 69 26 113q17 29 41 44q23 13 53 13h296v-126h-138v-609h-140v655h-18q-7 0 -13 -5q-19 -19 -18 -85h-89z" />
    <glyph glyph-name="glyph435" 
d="M42 404v126h416v-126h-138v-404h-140v404h-138z" />
    <glyph glyph-name="glyph436" 
d="M42 404v126h416v-126h-138v-278h73v-238h-140v112h-73v404h-138z" />
    <glyph glyph-name="uni04AD" unicode="&#x4ad;" 
d="M42 404v126h416v-126h-138v-278h73v-238h-140v112h-73v404h-138z" />
    <glyph glyph-name="tau" unicode="&#x3c4;" 
d="M42 404v126h416v-126h-138v-404h-140v404h-138z" />
    <glyph glyph-name="t" unicode="t" 
d="M48 404v126h82v205h140v-205h128v-126h-128v-183q0 -67 25 -93q10 -10 24 -10q15 0 26 11q20 20 26 67l132 -41q-8 -41 -27 -75q-25 -43 -65 -65q-39 -23 -92 -23t-92 23q-40 23 -64 65q-33 57 -33 141v183h-82z" />
    <glyph glyph-name="uni0287" unicode="&#x287;" 
d="M-3 375q8 41 27 75q25 43 65 65q39 23 92 23t92 -23q40 -23 64 -65q33 -57 33 -141v-183h82v-126h-82v-205h-140v205h-128v126h128v183q0 67 -25 93q-10 10 -24 10q-15 0 -26 -11q-20 -20 -26 -67z" />
    <glyph glyph-name="uni01AB" unicode="&#x1ab;" 
d="M48 404v126h82v205h140v-205h128v-126h-128v-183q0 -67 25 -93q10 -10 24 -10q15 0 26 11q20 20 26 67l132 -41v-155q0 -65 -28 -113q-26 -45 -73 -72q-57 -33 -139 -33v126q34 0 58 14q41 24 42 74q-20 -4 -44 -4q-53 0 -92 23q-40 23 -64 65q-33 57 -33 141v183h-82z
" />
    <glyph glyph-name="uni01AD" unicode="&#x1ad;" 
d="M48 404v126h82q0 65 28 113q26 45 72 72q57 33 140 33v-126q-34 0 -58 -14q-42 -24 -42 -78h128v-126h-128v-183q0 -67 25 -93q10 -10 24 -10q15 0 26 11q20 20 26 67l132 -41q-8 -41 -27 -75q-25 -43 -65 -65q-39 -23 -92 -23t-92 23q-40 23 -64 65q-33 57 -33 141v183
h-82z" />
    <glyph glyph-name="uni0288" unicode="&#x288;" 
d="M48 404v126h82v205h140v-205h128v-126h-128v-388q0 -67 25 -93q10 -10 24 -10q15 0 26 11q20 20 26 67l132 -41q-8 -41 -27 -75q-25 -43 -65 -65q-39 -23 -92 -23t-92 23q-40 23 -64 65q-33 57 -33 141v388h-82z" />
    <glyph glyph-name="uni0236" unicode="&#x236;" 
d="M-27 -74q20 78 60 149q45 77 97 126v203h-82v126h82v205h140v-205h128v-126h-128v-128q21 4 42 4q47 0 82 -20q27 -15 41 -42q20 -35 21 -82q0 -45 -20 -79q-16 -28 -44 -45q-35 -20 -83 -20q-58 0 -104 26q-34 19 -52 51q-12 -18 -25 -39q-35 -60 -51 -127zM270 150
q0 -37 14 -51q10 -10 25 -10q16 0 27 11q12 12 12 36t-12 36q-11 11 -31 11q-17 1 -35 -7v-26z" />
    <glyph glyph-name="tbar" unicode="&#x167;" 
d="M44 273v90h86v41h-82v126h82v205h140v-205h128v-126h-128v-41h66v-90h-66v-52q0 -67 25 -93q10 -10 24 -10q15 0 26 11q20 20 26 67l132 -41q-8 -41 -27 -75q-25 -43 -65 -65q-39 -23 -92 -23t-92 23q-40 23 -64 65q-33 57 -33 141v52h-86z" />
    <glyph glyph-name="S" unicode="S" 
d="M37 155l137 27v-3q0 -15 7 -29q8 -14 22 -22q17 -10 43 -10q24 0 40 10q14 8 23 22q9 16 9 36q0 25 -14 51q-22 38 -106 91q-96 61 -128 116q-28 49 -28 103q0 55 27 101q24 42 66 67q49 28 119 28q73 0 123 -29q40 -23 64 -64q19 -33 22 -70l-137 -27v3q0 15 -7 29
q-8 14 -22 22q-17 10 -43 10q-24 0 -40 -10q-14 -8 -23 -22q-9 -16 -9 -36q0 -25 14 -51q22 -38 106 -91q96 -61 128 -116q28 -49 28 -103q0 -55 -27 -101q-24 -42 -66 -67q-49 -28 -119 -28q-73 0 -123 29q-40 23 -64 64q-19 33 -22 70z" />
    <glyph glyph-name="afii10054" unicode="&#x405;" 
d="M37 155l137 27v-3q0 -15 7 -29q8 -14 22 -22q17 -10 43 -10q24 0 40 10q14 8 23 22q9 16 9 36q0 25 -14 51q-22 38 -106 91q-96 61 -128 116q-28 49 -28 103q0 55 27 101q24 42 66 67q49 28 119 28q73 0 123 -29q40 -23 64 -64q19 -33 22 -70l-137 -27v3q0 15 -7 29
q-8 14 -22 22q-17 10 -43 10q-24 0 -40 -10q-14 -8 -23 -22q-9 -16 -9 -36q0 -25 14 -51q22 -38 106 -91q96 -61 128 -116q28 -49 28 -103q0 -55 -27 -101q-24 -42 -66 -67q-49 -28 -119 -28q-73 0 -123 29q-40 23 -64 64q-19 33 -22 70z" />
    <glyph glyph-name="s" unicode="s" 
d="M39 110l125 56q5 -14 16 -25q23 -23 67 -23q46 0 64 18q8 8 8 18q0 14 -12 26q-21 21 -92 32q-64 10 -97 29q-36 21 -56 55q-21 36 -21 80q0 43 19 75q19 34 57 56q54 31 136 31q78 0 129 -30q44 -25 69 -68q6 -10 10 -20l-125 -56q-5 14 -16 25q-23 23 -67 23
q-46 0 -64 -18q-8 -8 -8 -18q0 -14 12 -26q21 -21 92 -32q64 -10 97 -29q36 -21 56 -55q21 -36 21 -80q0 -43 -19 -75q-19 -34 -57 -56q-54 -31 -136 -31q-78 0 -129 30q-44 25 -69 68q-6 10 -10 20z" />
    <glyph glyph-name="afii10102" unicode="&#x455;" 
d="M39 110l125 56q5 -14 16 -25q23 -23 67 -23q46 0 64 18q8 8 8 18q0 14 -12 26q-21 21 -92 32q-64 10 -97 29q-36 21 -56 55q-21 36 -21 80q0 43 19 75q19 34 57 56q54 31 136 31q78 0 129 -30q44 -25 69 -68q6 -10 10 -20l-125 -56q-5 14 -16 25q-23 23 -67 23
q-46 0 -64 -18q-8 -8 -8 -18q0 -14 12 -26q21 -21 92 -32q64 -10 97 -29q36 -21 56 -55q21 -36 21 -80q0 -43 -19 -75q-19 -34 -57 -56q-54 -31 -136 -31q-78 0 -129 30q-44 25 -69 68q-6 10 -10 20z" />
    <glyph glyph-name="uni01A7" unicode="&#x1a7;" 
d="M37 580q3 37 22 70q23 40 64 64q51 29 123 29q70 0 119 -28q42 -24 66 -67q27 -46 27 -101q0 -53 -28 -103q-32 -55 -128 -116q-83 -53 -106 -91q-15 -25 -14 -51q0 -20 9 -36q8 -14 23 -22q17 -10 40 -10q25 0 43 10q14 8 22 22q8 13 7 29v3l137 -27q-3 -37 -22 -70
q-23 -40 -64 -64q-51 -29 -123 -29q-70 0 -119 28q-42 24 -66 67q-27 46 -27 101q0 53 28 103q32 55 128 116q83 53 106 91q15 25 14 51q0 20 -9 36q-8 14 -23 22q-17 10 -40 10q-25 0 -43 -10q-14 -8 -22 -22q-8 -13 -7 -29v-3z" />
    <glyph glyph-name="uni01A8" unicode="&#x1a8;" 
d="M37 420q4 10 10 19q25 43 69 69q52 30 130 30q82 0 136 -31q38 -22 58 -56q18 -32 18 -68q0 -35 -18 -68q-21 -37 -65 -62q-26 -15 -83 -35q-56 -20 -79 -32q-20 -12 -27 -24q-4 -7 -4 -15t5 -13q16 -16 67 -16q45 0 68 23q11 11 16 25l125 -56q-4 -10 -10 -19
q-25 -43 -69 -69q-52 -30 -130 -30q-82 0 -136 31q-38 22 -58 56q-18 32 -18 68q0 35 18 68q21 37 65 62q26 15 83 35q56 20 79 32q20 12 27 24q4 7 4 15t-5 13q-16 16 -67 16q-45 0 -68 -23q-11 -11 -16 -25z" />
    <glyph glyph-name="glyph452" 
d="M37 420q4 10 10 19q25 43 69 69q52 30 130 30q82 0 136 -31q38 -22 58 -56q18 -32 18 -68q0 -35 -18 -68q-21 -37 -65 -62q-26 -15 -83 -35q-56 -20 -79 -32q-20 -12 -27 -24q-4 -7 -4 -15t5 -13q16 -16 67 -16q45 0 68 23q11 11 16 25l125 -56q-4 -10 -10 -19
q-25 -43 -69 -69q-52 -30 -130 -30q-82 0 -136 31q-38 22 -58 56q-18 32 -18 68q0 35 18 68q21 37 65 62q26 15 83 35q56 20 79 32q20 12 27 24q4 7 4 15t-5 13q-16 16 -67 16q-45 0 -68 -23q-11 -11 -16 -25z" />
    <glyph glyph-name="uni0282" unicode="&#x282;" 
d="M37 0v110h2l125 56q5 -14 16 -25q23 -23 67 -23q46 0 64 18q8 8 8 18q0 14 -12 26q-21 21 -92 32q-64 10 -97 29q-36 21 -56 55q-21 36 -21 80q0 43 19 75q19 34 57 56q54 31 136 31q78 0 129 -30q44 -25 69 -68q6 -10 10 -20l-125 -56q-5 14 -16 25q-23 23 -67 23
q-46 0 -64 -18q-8 -8 -8 -18q0 -14 12 -26q21 -21 92 -32q64 -10 97 -29q36 -21 56 -55q21 -36 21 -80q0 -43 -19 -75q-19 -34 -57 -56q-54 -31 -136 -31q-38 0 -70 7q0 -36 11 -54q9 -16 25 -25q21 -12 64 -12v-126q-105 0 -156 29q-37 22 -59 59q-25 44 -25 130z" />
    <glyph glyph-name="uni2C7E" unicode="&#x2c7e;" 
d="M36 136q0 9 1 19l137 27v-3q0 -15 7 -29q8 -14 22 -22q17 -10 43 -10q24 0 40 10q14 8 23 22q9 16 9 36q0 25 -14 51q-22 38 -106 91q-96 61 -128 116q-28 49 -28 103q0 55 27 101q24 42 66 67q49 28 119 28q73 0 123 -29q40 -23 64 -64q19 -33 22 -70l-137 -27v3
q0 15 -7 29q-8 14 -22 22q-17 10 -43 10q-24 0 -40 -10q-14 -8 -23 -22q-9 -16 -9 -36q0 -25 14 -51q22 -38 106 -91q96 -61 128 -116q28 -49 28 -103q0 -55 -27 -101q-24 -42 -66 -67q-49 -28 -119 -28q-59 0 -103 19q22 -31 57 -52q67 -38 216 -38h42v-126h-1
q-165 0 -253 51q-78 45 -122 121q-45 78 -46 169z" />
    <glyph glyph-name="uni023F" unicode="&#x23f;" 
d="M37 110h3l124 56q5 -14 16 -25q23 -23 67 -23q46 0 64 18q8 8 8 18q0 14 -12 26q-21 21 -92 32q-64 10 -97 29q-36 21 -56 55q-21 36 -21 80q0 43 19 75q19 34 57 56q54 31 136 31q78 0 129 -30q44 -25 69 -68q6 -10 10 -20l-125 -56q-5 14 -16 25q-23 23 -67 23
q-46 0 -64 -18q-8 -8 -8 -18q0 -14 12 -26q21 -21 92 -32q64 -10 97 -29q36 -21 56 -55q21 -36 21 -80q0 -43 -19 -75q-19 -34 -57 -56q-54 -31 -136 -31q-57 0 -99 16q22 -31 56 -51q63 -36 205 -36h49v-126h-1q-158 0 -245 50q-81 47 -129 130q-36 63 -46 135z" />
    <glyph glyph-name="Z" unicode="Z" 
d="M42 0v126l255 483h-255v126h416v-126l-255 -483h255v-126h-416z" />
    <glyph glyph-name="Zeta" unicode="&#x396;" 
d="M42 0v126l255 483h-255v126h416v-126l-255 -483h255v-126h-416z" />
    <glyph glyph-name="z" unicode="z" 
d="M42 0v126l248 278h-248v126h416v-126l-248 -278h248v-126h-416z" />
    <glyph glyph-name="uni0224" unicode="&#x224;" 
d="M42 0v126l255 483h-255v126h416v-126l-255 -483h85q37 0 66 -17q36 -21 60 -63q44 -76 44 -201h-140q0 129 -23 153q-2 2 -7 2h-246z" />
    <glyph glyph-name="uni0225" unicode="&#x225;" 
d="M42 0v126l248 278h-248v126h416v-126l-248 -278h78q37 0 66 -17q36 -21 60 -63q44 -76 44 -201h-140q0 129 -23 153q-2 2 -7 2h-246z" />
    <glyph glyph-name="uni2C7F" unicode="&#x2c7f;" 
d="M42 0l271 609h-271v126h416v-126l-255 -573q70 -59 106 -80q60 -35 148 -35h1v-126h-1q-129 0 -219 52q-79 46 -196 153z" />
    <glyph glyph-name="uni0240" unicode="&#x240;" 
d="M42 0l265 404h-265v126h416v-126l-245 -374q66 -56 101 -76q58 -33 143 -33h1v-126h-1q-126 0 -214 51q-78 45 -196 154h-5z" />
    <glyph glyph-name="uni2C6B" unicode="&#x2c6b;" 
d="M42 0v126l255 483h-255v126h416v-126l-255 -483h276v-238h-140v112h-297z" />
    <glyph glyph-name="uni2C6C" unicode="&#x2c6c;" 
d="M42 0v126l248 278h-248v126h416v-126l-248 -278h269v-238h-140v112h-297z" />
    <glyph glyph-name="uni0291" unicode="&#x291;" 
d="M42 0v126l248 278h-248v126h416v-126l-131 -147q26 13 55 12q40 0 69 -16q26 -15 41 -42q18 -31 18 -74t-18 -74q-16 -28 -44 -44q-32 -19 -78 -19h-98q-10 -47 -17 -106l-93 10q9 51 19 96h-139zM210 126h12q5 14 12 27zM311 126h59q27 0 39 12q7 7 7 18q0 12 -8 20
q-9 9 -26 9q-15 0 -28 -8q-20 -12 -37 -41z" />
    <glyph glyph-name="alpha" unicode="&#x3b1;" 
d="M26 220v90q0 83 32 139q25 43 66 66q39 23 93 23q36 0 65 -17q35 -20 63 -64q6 38 11 73h116q-16 -71 -33 -150q-13 -61 -26 -112q14 -52 27 -118q17 -79 34 -150h-116q-6 37 -12 77q-28 -48 -64 -68q-29 -17 -65 -17q-54 0 -93 23q-40 23 -66 66q-32 56 -32 139z
M166 220q0 -66 25 -91q11 -11 26 -11q14 0 28 8q18 10 30 32q18 31 36 110q-17 73 -34 103q-13 22 -31 32q-15 9 -29 9q-15 0 -26 -11q-25 -25 -25 -91v-90z" />
    <glyph glyph-name="uniAB64" unicode="&#xab64;" 
d="M26 220v90q0 83 32 139q25 43 66 66q39 23 93 23q36 0 65 -17q35 -20 63 -64q6 38 11 73h116q-16 -71 -33 -150q-13 -61 -26 -112q14 -52 27 -118q17 -79 34 -150h-116q-6 37 -12 77q-28 -48 -64 -68q-29 -17 -65 -17q-54 0 -93 23q-40 23 -66 66q-32 56 -32 139z
M166 220q0 -66 25 -91q11 -11 26 -11q14 0 28 8q18 10 30 32q18 31 36 110q-17 73 -34 103q-13 22 -31 32q-15 9 -29 9q-15 0 -26 -11q-25 -25 -25 -91v-90z" />
    <glyph glyph-name="Gamma" unicode="&#x393;" 
d="M63 0v735h403v-126h-263v-609h-140z" />
    <glyph glyph-name="afii10020" unicode="&#x413;" 
d="M63 0v735h403v-126h-263v-609h-140z" />
    <glyph glyph-name="glyph470" 
d="M63 0v530h403v-126h-263v-404h-140z" />
    <glyph glyph-name="glyph471" 
d="M75 0v126h112v278h-98v126h238v-404h98v-126h-350zM100 635v100h300v-100h-300z" />
    <glyph glyph-name="afii10068" unicode="&#x433;" 
d="M63 0v530h403v-126h-263v-404h-140z" />
    <glyph glyph-name="afii10050" unicode="&#x490;" 
d="M63 0v735h263v155h140v-281h-263v-609h-140z" />
    <glyph glyph-name="afii10098" unicode="&#x491;" 
d="M63 0v530h263v155h140v-281h-263v-404h-140z" />
    <glyph glyph-name="uni0492" unicode="&#x492;" 
d="M13 308v90h50v337h403v-126h-263v-211h55v-90h-55v-308h-140v308h-50z" />
    <glyph glyph-name="glyph476" 
d="M13 209v91h50v230h403v-126h-263v-104h55v-91h-55v-209h-140v209h-50z" />
    <glyph glyph-name="glyph477" 
d="M37 420q4 10 10 19q25 43 69 69q52 30 130 30q82 0 136 -31q38 -22 58 -56q18 -32 18 -68q0 -35 -18 -68q-21 -37 -65 -62q-24 -14 -63 -28l19 -72q4 6 7 13l125 -56q-4 -10 -10 -19q-25 -43 -69 -69q-52 -30 -130 -30q-82 0 -136 31q-38 22 -58 56q-18 32 -18 68
q0 35 18 68q21 37 65 62q24 14 63 28l-19 72q-4 -6 -7 -13zM176 387l87 21l18 -67q3 1 6 3q20 12 27 24q4 7 4 15t-5 13q-16 16 -67 16q-47 0 -70 -25zM182 147q0 -8 5 -13q16 -16 67 -16q47 0 70 25l-87 -21l-18 67q-3 -1 -6 -3q-20 -12 -27 -24q-4 -7 -4 -15z" />
    <glyph glyph-name="uni1D24" unicode="&#x1d24;" 
d="M37 420q4 10 10 19q25 43 69 69q52 30 130 30q82 0 136 -31q38 -22 58 -56q18 -32 18 -68q0 -35 -18 -68q-21 -37 -65 -62q-24 -14 -63 -28l19 -72q4 6 7 13l125 -56q-4 -10 -10 -19q-25 -43 -69 -69q-52 -30 -130 -30q-82 0 -136 31q-38 22 -58 56q-18 32 -18 68
q0 35 18 68q21 37 65 62q24 14 63 28l-19 72q-4 -6 -7 -13zM176 387l87 21l18 -67q3 1 6 3q20 12 27 24q4 7 4 15t-5 13q-16 16 -67 16q-47 0 -70 -25zM182 147q0 -8 5 -13q16 -16 67 -16q47 0 70 25l-87 -21l-18 67q-3 -1 -6 -3q-20 -12 -27 -24q-4 -7 -4 -15z" />
    <glyph glyph-name="uni0493" unicode="&#x493;" 
d="M13 209v91h50v230h403v-126h-263v-104h55v-91h-55v-209h-140v209h-50z" />
    <glyph glyph-name="gamma" unicode="&#x3b3;" 
d="M-17 466l115 72q27 -38 50 -79q71 -123 108 -234q62 164 62 252v53h140v-53q0 -145 -162 -477v-205h-140v205q0 172 -132 401q-19 33 -41 65z" />
    <glyph glyph-name="Lambda" unicode="&#x39b;" 
d="M42 0v74q0 61 16 132q8 36 24 107q52 240 105 422h126q54 -182 105 -422q15 -72 24 -107q16 -70 16 -132v-74h-140v74q0 58 -12 126q-6 33 -18 100q-19 107 -38 203q-19 -95 -38 -203q-12 -67 -18 -100q-12 -68 -12 -126v-74h-140z" />
    <glyph glyph-name="uni0245" unicode="&#x245;" 
d="M42 0v74q0 61 16 132q8 36 24 107q52 240 105 422h126q54 -182 105 -422q15 -72 24 -107q16 -70 16 -132v-74h-140v74q0 58 -12 126q-6 33 -18 100q-19 107 -38 203q-19 -95 -38 -203q-12 -67 -18 -100q-12 -68 -12 -126v-74h-140z" />
    <glyph glyph-name="Delta" unicode="&#x394;" 
d="M42 0v74q0 61 16 132q8 36 24 107q52 240 105 422h126q54 -182 105 -422q15 -72 24 -107q16 -70 16 -132v-74h-416zM184 126h132q-3 35 -10 74q-6 33 -18 100q-19 107 -38 203q-19 -95 -38 -203q-12 -67 -18 -100q-7 -39 -10 -74z" />
    <glyph glyph-name="delta" unicode="&#x3b4;" 
d="M34 211v87q0 50 22 88q17 30 48 51q-13 13 -23 30q-24 42 -24 96q0 56 25 99q21 36 56 56q43 25 101 25q82 0 188 -49v-126q-97 49 -171 49q-30 0 -45 -15q-14 -14 -14 -40q0 -24 14 -38q11 -11 39 -15q89 -14 132 -40q40 -23 61 -59q23 -39 23 -112v-87q0 -71 -29 -122
q-25 -44 -70 -69q-49 -28 -117.5 -28t-116.5 28q-44 25 -70 69q-29 51 -29 122zM174 211q0 -34 13 -57q10 -17 26 -27q16 -9 37 -9t37 9t26 27q13 23 13 57v87q0 31 -9 47q-9 15 -25 24t-66 18q-14 3 -26 5q-5 -6 -8 -13q-18 -31 -18 -81v-87z" />
    <glyph glyph-name="afii10066.locl" 
d="M34 211v87q0 50 22 88q17 30 48 51q-13 13 -23 30q-24 42 -24 96q0 56 25 99q21 36 56 56q43 25 101 25q82 0 188 -49v-126q-97 49 -171 49q-30 0 -45 -15q-14 -14 -14 -40q0 -24 14 -38q11 -11 39 -15q89 -14 132 -40q40 -23 61 -59q23 -39 23 -112v-87q0 -71 -29 -122
q-25 -44 -70 -69q-49 -28 -117.5 -28t-116.5 28q-44 25 -70 69q-29 51 -29 122zM174 211q0 -34 13 -57q10 -17 26 -27q16 -9 37 -9t37 9t26 27q13 23 13 57v87q0 31 -9 47q-9 15 -25 24t-66 18q-14 3 -26 5q-5 -6 -8 -13q-18 -31 -18 -81v-87z" />
    <glyph glyph-name="uni1E9F" unicode="&#x1e9f;" 
d="M34 211v87q0 50 22 88q17 30 48 51q-13 13 -23 30q-24 42 -24 96q0 56 25 99q21 36 56 56q43 25 101 25q82 0 188 -49v-126q-97 49 -171 49q-30 0 -45 -15q-14 -14 -14 -40q0 -24 14 -38q11 -11 39 -15q89 -14 132 -40q40 -23 61 -59q23 -39 23 -112v-87q0 -71 -29 -122
q-25 -44 -70 -69q-49 -28 -117.5 -28t-116.5 28q-44 25 -70 69q-29 51 -29 122zM174 211q0 -34 13 -57q10 -17 26 -27q16 -9 37 -9t37 9t26 27q13 23 13 57v87q0 31 -9 47q-9 15 -25 24t-66 18q-14 3 -26 5q-5 -6 -8 -13q-18 -31 -18 -81v-87z" />
    <glyph glyph-name="uni018D" unicode="&#x18d;" 
d="M34 232v87q0 71 29 122q25 44 70 69q49 28 117.5 28t116.5 -28q44 -25 70 -69q29 -51 29 -122v-87q0 -50 -22 -88q-17 -30 -48 -51q13 -13 23 -30q24 -42 24 -96q0 -56 -25 -99q-21 -36 -56 -56q-43 -25 -101 -25q-82 0 -188 49v126q97 -49 171 -49q30 0 45 15
q14 14 14 40q0 24 -14 38q-11 11 -39 15q-89 14 -132 40q-40 23 -61 59q-23 39 -23 112zM174 232q0 -31 9 -47q9 -15 25 -24t66 -18q14 -3 26 -5q5 6 8 13q18 31 18 81v87q0 34 -13 57q-10 17 -26 27q-16 9 -37 9t-37 -9t-26 -27q-13 -23 -13 -57v-87z" />
    <glyph glyph-name="afii10066" unicode="&#x431;" 
d="M34 220v147q0 157 39 224q23 40 58 60q23 14 75 27q93 25 182 57l47 -119q-92 -36 -190 -58q-28 -6 -40 -14q-15 -9 -25 -26q-6 -10 -9 -23q8 7 17 12q27 16 67 16q64 0 115 -29q44 -25 68 -68q28 -49 28 -116v-90q0 -76 -31 -130q-26 -45 -70 -70q-48 -28 -115 -28
t-115 28q-44 26 -70 70q-31 54 -31 130zM174 220q0 -40 15 -66q10 -18 27 -27q15 -9 34.5 -9t33.5 9q16 9 27 27q15 26 15 66v90q0 31 -12 52q-9 16 -24.5 25.5t-36.5 9.5q-46 0 -67 -37q-12 -21 -12 -50v-90z" />
    <glyph glyph-name="epsilon" unicode="&#x3b5;" 
d="M42 164q0 36 15 62q17 29 50 48q-1 1 -3 2q-33 19 -49 46q-13 23 -13 55q0 41 19 74q20 34 58 56q54 31 135 31q78 0 130 -30q44 -25 69 -69q5 -9 10 -19l-125 -56q-5 14 -16 25q-23 23 -68 23q-47 0 -65 -18q-7 -7 -7 -18t9 -20q18 -18 59 -17h62v-126h-62
q-38 0 -56 -19q-12 -12 -12 -29q0 -16 11 -27q20 -20 64 -20q42 0 64 23q11 11 17 25l125 -56q-4 -10 -10 -20q-25 -43 -68 -69q-51 -29 -128 -29q-80 0 -134 31q-40 23 -60 59q-21 36 -21 82z" />
    <glyph glyph-name="uni025B" unicode="&#x25b;" 
d="M42 164q0 36 15 62q17 29 50 48q-1 1 -3 2q-33 19 -49 46q-13 23 -13 55q0 41 19 74q20 34 58 56q54 31 135 31q78 0 130 -30q44 -25 69 -69q5 -9 10 -19l-125 -56q-5 14 -16 25q-23 23 -68 23q-47 0 -65 -18q-7 -7 -7 -18t9 -20q18 -18 59 -17h62v-126h-62
q-38 0 -56 -19q-12 -12 -12 -29q0 -16 11 -27q20 -20 64 -20q42 0 64 23q11 11 17 25l125 -56q-4 -10 -10 -20q-25 -43 -68 -69q-51 -29 -128 -29q-80 0 -134 31q-40 23 -60 59q-21 36 -21 82z" />
    <glyph glyph-name="uni0190" unicode="&#x190;" 
d="M42 218q0 61 25 103q21 37 57 60q-38 23 -60 60q-22 38 -22 91q0 65 27 113q25 43 69 69q51 29 123 29q73 0 124 -29q43 -25 67 -68q6 -10 11 -21l-125 -56q-5 15 -17 26q-22 22 -60 22q-47 0 -67 -36q-12 -20 -12 -50q0 -32 13 -54q9 -16 23 -24t32 -8h62v-126h-62
q-16 0 -29 -7q-14 -8 -24 -25q-15 -27 -15 -68q0 -38 14 -63q11 -19 28 -28q17 -10 39 -10q35 0 57 22q11 11 18 26l125 -56q-26 -58 -80 -89q-50 -29 -120 -29t-120 29q-45 26 -71 71q-30 52 -30 126z" />
    <glyph glyph-name="afii10025" unicode="&#x417;" 
d="M37 155l134 36q3 -21 13 -37q10 -18 26 -28q15 -8 34 -8t33 8q16 9 26 27q15 26 15 66q0 42 -15 68q-10 17 -24 25q-13 7 -29 7h-62v126h62q18 0 32 8t23 24q13 22 13 54q0 31 -12 52q-9 16 -24.5 25t-35.5 9q-24 0 -42 -10q-15 -8 -23 -22.5t-8 -30.5v-2l-136 28
q3 37 22 70q23 41 64 64q51 29 123 29q68 0 116 -28q43 -25 68 -68q28 -48 28 -114q0 -54 -22 -92q-21 -37 -60 -60q36 -23 57 -60q25 -43 25 -104q0 -74 -31 -127q-26 -45 -69 -71q-47 -27 -113 -27t-114 27q-44 25 -69 71q-17 30 -25 65z" />
    <glyph glyph-name="afii10073" unicode="&#x437;" 
d="M37 110l125 56q5 -15 17 -25q23 -23 64 -23q44 0 64 20q11 11 11 27q0 17 -12 29q-18 18 -56 19h-62v126h62q42 0 59 17q9 9 9 20t-7 18q-18 18 -65 18q-44 0 -68 -23q-11 -11 -16 -25l-125 56q4 10 10 19q25 43 69 69q52 30 130 30q82 0 135 -31q38 -22 58 -56
q19 -33 19 -74q0 -32 -13 -55q-16 -27 -49 -46q-1 -1 -3 -2q33 -20 50 -48q15 -26 15 -62q0 -46 -21 -82t-60 -59q-54 -31 -134 -31q-77 0 -128 29q-44 25 -68 69q-6 10 -10 20z" />
    <glyph glyph-name="uni025C" unicode="&#x25c;" 
d="M37 110l125 56q5 -15 17 -25q23 -23 64 -23q44 0 64 20q11 11 11 27q0 17 -12 29q-18 18 -56 19h-62v126h62q42 0 59 17q9 9 9 20t-7 18q-18 18 -65 18q-44 0 -68 -23q-11 -11 -16 -25l-125 56q4 10 10 19q25 43 69 69q52 30 130 30q82 0 135 -31q38 -22 58 -56
q19 -33 19 -74q0 -32 -13 -55q-16 -27 -49 -46q-1 -1 -3 -2q33 -20 50 -48q15 -26 15 -62q0 -46 -21 -82t-60 -59q-54 -31 -134 -31q-77 0 -128 29q-44 25 -68 69q-6 10 -10 20z" />
    <glyph glyph-name="uni029A" unicode="&#x29a;" 
d="M34 367q0 46 20 81q21 36 60 59q54 31 133 31q69 0 117 -28q45 -26 71 -70q31 -54 31 -130v-90q0 -76 -31 -130q-26 -45 -70 -70q-48 -28 -117 -28q-72 0 -121 29q-38 22 -57 56q-20 34 -20 80.5t20 80.5q4 8 10 15q-16 15 -26 34q-20 34 -20 80zM174 367.5
q0 -14.5 10 -24.5q20 -20 66 -20h62v-126h-62q-34 0 -51 -16q-9 -9 -9 -23.5t10 -23.5q16 -16 48 -16q21 0 36 9q16 9 27 27q15 26 15 66v90q0 40 -15 66q-11 18 -27 27q-15 9 -37 9q-43 0 -63 -20q-10 -10 -10 -24.5z" />
    <glyph glyph-name="Theta" unicode="&#x398;" 
d="M34 215v305q0 73 30 125q26 44 70 70q48 28 116 28t116 -28q44 -26 70 -70q30 -52 30 -125v-305q0 -73 -30 -125q-26 -44 -70 -70q-48 -28 -116 -28t-116 28q-44 26 -70 70q-30 52 -30 125zM174 215q0 -37 14 -61q10 -18 26 -27q15 -9 35.5 -9t36.5 9t26 27q14 24 14 61
v305q0 37 -14 61q-10 18 -26 27t-36 9t-36 -9t-26 -27q-14 -24 -14 -61v-305zM206 304v126h88v-126h-88z" />
    <glyph glyph-name="theta" unicode="&#x3b8;" 
d="M42 367.5q0 176.5 59 278.5q31 53 73 78q33 19 76 19t76 -19q42 -24 73 -78q59 -102 59 -278.5t-59 -278.5q-31 -53 -73 -78q-34 -19 -76.5 -19t-75.5 19q-42 24 -73 78q-59 102 -59 278.5zM183 304q6 -114 35 -163q8 -13 17 -19q7 -4 15 -4t15 4q10 6 17 19
q29 49 35 163h-134zM183 430h134q-6 114 -35 164q-8 13 -17 19q-7 4 -15 4t-15 -4q-10 -6 -17 -19q-28 -50 -35 -164z" />
    <glyph glyph-name="zeta" unicode="&#x3b6;" 
d="M42 198q0 126 64 236q49 84 143 175h-207v126h408v-126q-157 -119 -218 -226q-50 -86 -50 -185q0 -20 8.5 -35t25.5 -24q21 -12 60 -13q63 -2 105 -26q36 -21 56 -55q21 -36 21 -84q0 -50 -21 -86q-20 -34 -55 -55q-43 -25 -106 -25h-26v126h26q20 0 31 11t11 28
q0 16 -10 27q-13 13 -38 13h-22q-58 0 -114 32q-44 25 -68 67t-24 99z" />
    <glyph glyph-name="xi" unicode="&#x3be;" 
d="M42 178q0 38 20 72q28 48 85 82q6 4 13 7q-8 4 -15 8q-48 28 -70 65q-17 30 -17 74q0 61 29 111l8 12h-53v126h408v-126h-54q-87 0 -140 -31q-31 -18 -46 -43q-12 -22 -12 -45q0 -17 7 -29q8 -14 29 -26q53 -31 162 -31v-126q-105 0 -165 -34q-30 -17 -42 -38
q-7 -12 -7 -26q0 -21 15 -35q18 -18 61 -19q72 -1 122 -30q38 -22 59 -57q19 -34 19 -78q0 -50 -21 -86q-20 -34 -55 -55q-43 -25 -106 -25h-26v126h26q20 0 31 11t11 28q0 12 -9 22q-17 17 -65 18q-70 2 -116 28q-40 23 -62 61q-24 42 -24 89z" />
    <glyph glyph-name="mu" unicode="&#x3bc;" 
d="M42 -205v735h140v-310q0 -43 15 -70q10 -17 25 -25q12 -7 28 -7t28 7q14 8 25 25q15 27 15 70v310h140v-530h-140v61q-21 -34 -52 -52q-29 -17 -67 -17q-16 0 -30 3q13 -85 13 -97v-103h-140z" />
    <glyph glyph-name="Xi" unicode="&#x39e;" 
d="M34 0v126h432v-126h-432zM34 609v126h432v-126h-432zM94 334v126h312v-126h-312z" />
    <glyph glyph-name="Pi" unicode="&#x3a0;" 
d="M42 609v126h416v-126h-12v-609h-140v609h-112v-609h-140v609h-12z" />
    <glyph glyph-name="afii10033" unicode="&#x41f;" 
d="M42 609v126h416v-126h-12v-609h-140v609h-112v-609h-140v609h-12z" />
    <glyph glyph-name="glyph504" 
d="M42 404v126h416v-126h-12v-404h-140v404h-112v-404h-140v404h-12z" />
    <glyph glyph-name="glyph505" 
d="M42 220v310h140v-310q0 -43 15 -70q10 -17 25 -25q12 -7 28 -7t28 7q14 8 25 25q15 27 15 70v310h140v-530h-140v61q-21 -34 -52 -52q-29 -17 -67 -17t-67 17q-33 19 -56 57q-34 59 -34 154zM100 635v100h300v-100h-300z" />
    <glyph glyph-name="afii10081" unicode="&#x43f;" 
d="M42 404v126h416v-126h-12v-404h-140v404h-112v-404h-140v404h-12z" />
    <glyph glyph-name="pi" unicode="&#x3c0;" 
d="M-1 92q32 28 53 65q45 78 45 239v8h-55v126h416v-126h-54v-250q0 -15 8 -23q5 -5 13 -5h33v-126h-33q-53 0 -91 22q-32 18 -50 49q-20 35 -20 83v250h-28q-5 -210 -64 -311q-34 -60 -88 -101z" />
    <glyph glyph-name="Sigma" unicode="&#x3a3;" 
d="M42 0v126l166 242l-166 241v126h416v-126h-271l166 -241l-166 -242h271v-126h-416z" />
    <glyph glyph-name="uni01A9" unicode="&#x1a9;" 
d="M42 0v126l166 242l-166 241v126h416v-126h-271l166 -241l-166 -242h271v-126h-416z" />
    <glyph glyph-name="Phi" unicode="&#x3a6;" 
d="M34 307v121q0 73 30 125q26 44 70 70q21 12 46 19v93h140v-93q25 -7 46 -19q44 -26 70 -70q30 -52 30 -125v-121q0 -73 -30 -125q-26 -44 -70 -70q-21 -12 -46 -19v-93h-140v93q-25 7 -46 19q-44 26 -70 70q-30 52 -30 125zM147 307q0 -44 17 -74q12 -20 30 -32v333
q-18 -12 -30 -32q-17 -30 -17 -74v-121zM306 201q18 12 30 32q17 30 17 74v121q0 44 -17 74q-12 20 -30 32v-333z" />
    <glyph glyph-name="afii10038" unicode="&#x424;" 
d="M34 307v121q0 73 30 125q26 44 70 70q21 12 46 19v93h140v-93q25 -7 46 -19q44 -26 70 -70q30 -52 30 -125v-121q0 -73 -30 -125q-26 -44 -70 -70q-21 -12 -46 -19v-93h-140v93q-25 7 -46 19q-44 26 -70 70q-30 52 -30 125zM147 307q0 -44 17 -74q12 -20 30 -32v333
q-18 -12 -30 -32q-17 -30 -17 -74v-121zM306 201q18 12 30 32q17 30 17 74v121q0 44 -17 74q-12 20 -30 32v-333z" />
    <glyph glyph-name="uni2C77" unicode="&#x2c77;" 
d="M26 285q0 126 58 245l101 -44q-46 -98 -46 -201q0 -86 31 -140q11 -18 24 -30v235q0 71 26 117q18 32 47 48q26 15 60 15q33 0 58 -15q31 -18 52 -54q37 -64 37 -168q0 -118 -44 -195q-31 -53 -78 -81q-44 -25 -102 -25t-102 25q-47 27 -78 81q-44 77 -44 187zM306 115
q13 12 24 30q31 54 31 150q0 105 -24 129q-5 5 -10 4q-4 0 -7 -3q-14 -14 -14 -75v-235z" />
    <glyph glyph-name="phi" unicode="&#x3c6;" 
d="M26 285q0 126 58 245l101 -44q-46 -98 -46 -201q0 -86 31 -140q11 -18 24 -30v235q0 71 26 117q18 32 47 48q26 15 60 15q33 0 58 -15q31 -18 52 -54q37 -64 37 -168q0 -118 -44 -195q-31 -53 -78 -81q-15 -9 -32 -14v-208h-140v208q-17 6 -32 14q-47 27 -78 81
q-44 77 -44 187zM306 115q13 12 24 30q31 54 31 150q0 105 -24 129q-5 5 -10 4q-4 0 -7 -3q-14 -14 -14 -75v-235z" />
    <glyph glyph-name="phi1" unicode="&#x3d5;" 
d="M34 220v90q0 76 31 130q26 45 70 70q21 12 45 19v206h140v-206q24 -7 45 -19q44 -26 70 -70q31 -54 31 -130v-90q0 -76 -31 -130q-26 -45 -70 -70q-21 -12 -45 -19v-206h-140v206q-24 7 -45 19q-44 26 -70 70q-31 54 -31 130zM147 220q0 -47 18 -78q12 -20 29 -32v310
q-17 -12 -29 -32q-18 -31 -18 -78v-90zM306 110q17 12 29 32q18 31 18 78v90q0 47 -18 78q-12 20 -29 32v-310z" />
    <glyph glyph-name="afii10086" unicode="&#x444;" 
d="M34 220v90q0 76 31 130q26 45 70 70q21 12 45 19v206h140v-206q24 -7 45 -19q44 -26 70 -70q31 -54 31 -130v-90q0 -76 -31 -130q-26 -45 -70 -70q-21 -12 -45 -19v-206h-140v206q-24 7 -45 19q-44 26 -70 70q-31 54 -31 130zM147 220q0 -47 18 -78q12 -20 29 -32v310
q-17 -12 -29 -32q-18 -31 -18 -78v-90zM306 110q17 12 29 32q18 31 18 78v90q0 47 -18 78q-12 20 -29 32v-310z" />
    <glyph glyph-name="uni0278" unicode="&#x278;" 
d="M34 220v90q0 76 31 130q26 45 70 70q21 12 45 19v206h140v-206q24 -7 45 -19q44 -26 70 -70q31 -54 31 -130v-90q0 -76 -31 -130q-26 -45 -70 -70q-21 -12 -45 -19v-206h-140v206q-24 7 -45 19q-44 26 -70 70q-31 54 -31 130zM147 220q0 -47 18 -78q12 -20 29 -32v310
q-17 -12 -29 -32q-18 -31 -18 -78v-90zM306 110q17 12 29 32q18 31 18 78v90q0 47 -18 78q-12 20 -29 32v-310z" />
    <glyph glyph-name="Psi" unicode="&#x3a8;" 
d="M42 362v226h113v-226q0 -41 16 -69q9 -16 23 -26v468h112v-468q13 10 23 26q16 28 16 69v226h113v-226q0 -71 -29 -121q-25 -43 -67 -67q-19 -11 -42 -18v-156h-140v156q-22 7 -42 18q-43 25 -67 67q-29 50 -29 121z" />
    <glyph glyph-name="uni1D2A" unicode="&#x1d2a;" 
d="M42 374v156h113v-156q0 -41 16 -69q9 -16 23 -26v251h112v-251q13 10 23 26q16 28 16 69v156h113v-156q0 -71 -29 -121q-25 -43 -67 -67q-19 -11 -42 -18v-168h-140v168q-22 7 -42 18q-43 25 -67 67q-29 50 -29 121z" />
    <glyph glyph-name="psi" unicode="&#x3c8;" 
d="M42 220v310h107v-310q0 -51 20 -84q11 -19 27 -31v630h108v-630q16 12 27 31q19 33 20 84v310h107v-310q0 -78 -31 -132q-26 -45 -69 -70q-18 -10 -38 -16v-207h-140v207q-20 6 -38 16q-43 25 -69 70q-31 54 -31 132z" />
    <glyph glyph-name="Omega" unicode="&#x3a9;" 
d="M42 0v126h59q-20 17 -34 41q-25 44 -25 107v246q0 75 30 128q25 44 69 69q46 26 109 26t109 -26q43 -25 69 -69q30 -53 30 -128v-246q0 -63 -25 -107q-14 -24 -34 -41h59v-126h-166v185q5 0 9 4q17 17 17 85v246q0 40 -15 65q-10 17 -23 25q-13 7 -30 7t-30 -7
q-14 -8 -23 -25q-15 -25 -15 -65v-246q0 -68 17 -85q4 -4 9 -4v-185h-166z" />
    <glyph glyph-name="uni01B1" unicode="&#x1b1;" 
d="M42 215v246q0 63 25 107q14 24 34 41h-59v126h166v-185q-5 0 -9 -4q-17 -17 -17 -85v-246q0 -40 15 -65q10 -17 23 -25q13 -7 30 -7t30 7q14 8 23 25q15 25 15 65v246q0 68 -17 85q-4 4 -9 4v185h166v-126h-59q20 -17 34 -41q25 -44 25 -107v-246q0 -75 -30 -128
q-25 -44 -69 -69q-46 -26 -109 -26t-109 26q-43 25 -69 69q-30 53 -30 128z" />
    <glyph glyph-name="uniAB65" unicode="&#xab65;" 
d="M42 0v126h44q-10 11 -18 25q-26 45 -26 111v48q0 78 31 132q26 45 69 70q45 26 107.5 26t108.5 -26q43 -25 69 -70q31 -54 31 -132v-48q0 -66 -26 -111q-8 -14 -18 -25h44v-126h-166v168q5 0 9 5q17 17 17 89v48q0 43 -15 70q-10 17 -25 25q-12 7 -28 7t-28 -7
q-14 -8 -25 -25q-15 -27 -15 -70v-48q0 -73 17 -89q4 -4 9 -5v-168h-166z" />
    <glyph glyph-name="uni028A" unicode="&#x28a;" 
d="M42 220v48q0 66 26 111q8 14 18 25h-44v126h166v-168q-5 0 -9 -5q-17 -17 -17 -89v-48q0 -43 15 -70q10 -17 25 -25q12 -7 28 -7t28 7q14 8 25 25q15 27 15 70v48q0 73 -17 89q-4 4 -9 5v168h166v-126h-44q10 -11 18 -25q26 -45 26 -111v-48q0 -78 -31 -132
q-26 -45 -69 -70q-45 -26 -107.5 -26t-108.5 26q-43 25 -69 70q-31 54 -31 132z" />
    <glyph glyph-name="omega" unicode="&#x3c9;" 
d="M26 258q0 132 58 247l103 -47q-45 -86 -45 -202q0 -138 20 -157q2 -2 5 -2.5t5 2.5q20 20 20 166v79h116v-79q0 -146 20 -166q2 -2 5 -2.5t5 2.5q20 20 20 157q0 116 -45 202l103 47q58 -115 58 -247q0 -127 -43 -201q-21 -36 -49 -52q-22 -13 -47 -13q-20 0 -35 8
q-20 12 -36 40q-7 13 -14 29q-6 -15 -14 -29q-16 -28 -36 -40q-15 -8 -35 -8q-25 0 -47 13q-28 16 -49 52q-43 75 -43 201z" />
    <glyph glyph-name="omega1" unicode="&#x3d6;" 
d="M42 404v126h416v-126h-416zM26 258q0 132 58 247l103 -47q-45 -86 -45 -202q0 -138 20 -157q2 -2 5 -2.5t5 2.5q20 20 20 166v79h116v-79q0 -146 20 -166q2 -2 5 -2.5t5 2.5q20 20 20 157q0 116 -45 202l103 47q58 -115 58 -247q0 -127 -43 -201q-21 -36 -49 -52
q-22 -13 -47 -13q-20 0 -35 8q-20 12 -36 40q-7 13 -14 29q-6 -15 -14 -29q-16 -28 -36 -40q-15 -8 -35 -8q-25 0 -47 13q-28 16 -49 52q-43 75 -43 201z" />
    <glyph glyph-name="uni0277" unicode="&#x277;" 
d="M26 237q0 119 44 195q31 53 78 81q44 25 102 25t102 -25q47 -27 78 -81q44 -77 44 -195q0 -112 -39 -179q-21 -36 -49 -53q-23 -14 -51 -13q-21 0 -35 8q-20 12 -36 40q-8 14 -14 29q-6 -15 -14 -29q-16 -28 -36 -40q-15 -8 -35 -8q-27 0 -51 13q-29 17 -49 53
q-39 67 -39 179zM142 234q0 -115 19 -135q3 -3 6 -3t5 3q20 20 20 166v79h116v-79q0 -146 20 -166q3 -3 5.5 -3t5.5 3q19 19 19 135q0 97 -30 149q-16 28 -38 41q-17 10 -39.5 10t-40.5 -10q-22 -13 -38 -41q-31 -53 -30 -149z" />
    <glyph glyph-name="afii10046" unicode="&#x42c;" 
d="M42 0v735h140v-268h19q93 0 157 -37q51 -30 79 -78q29 -50 29 -118.5t-29 -118.5q-28 -49 -79 -78q-64 -37 -157 -37h-159zM182 126h19q44 0 75 18q24 14 37 36q13 23 13 54t-13 53t-37 37q-30 18 -75 17h-19v-215z" />
    <glyph glyph-name="afii10094" unicode="&#x44c;" 
d="M42 0v530h140v-176h81q72 0 121 -28q39 -23 60 -59q22 -38 22 -89.5t-22 -89.5q-21 -37 -60 -60q-49 -28 -121 -28h-221zM182 126h81q32 0 50 17q13 13 13 34t-13 34q-17 17 -50 17h-81v-102z" />
    <glyph glyph-name="afii10018" unicode="&#x411;" 
d="M42 0v735h374v-126h-234v-142h19q93 0 157 -37q51 -30 79 -78q29 -50 29 -118.5t-29 -118.5q-28 -49 -79 -78q-64 -37 -157 -37h-159zM182 126h19q44 0 75 18q24 14 37 36q13 23 13 54t-13 53t-37 37q-30 18 -75 17h-19v-215z" />
    <glyph glyph-name="uni0182" unicode="&#x182;" 
d="M42 0v735h374v-126h-234v-142h19q93 0 157 -37q51 -30 79 -78q29 -50 29 -118.5t-29 -118.5q-28 -49 -79 -78q-64 -37 -157 -37h-159zM182 126h19q44 0 75 18q24 14 37 36q13 23 13 54t-13 53t-37 37q-30 18 -75 17h-19v-215z" />
    <glyph glyph-name="uni0184" unicode="&#x184;" 
d="M-84 609l126 126h140v-268h19q93 0 157 -37q51 -30 79 -78q29 -50 29 -118.5t-29 -118.5q-28 -49 -79 -78q-64 -37 -157 -37h-159v483zM182 126h19q44 0 75 18q24 14 37 36q13 23 13 54t-13 53t-37 37q-30 18 -75 17h-19v-215z" />
    <glyph glyph-name="uni018B" unicode="&#x18b;" 
d="M34 233.5q0 68.5 29 118.5q28 49 79 78q64 37 157 37h19v142h-234v126h374v-735h-159q-93 0 -157 37q-51 30 -79 78q-29 50 -29 118.5zM174 233.5q0 -30.5 13 -53.5t37 -36q30 -18 75 -18h19v215h-19q-45 0 -75 -17q-24 -14 -37 -37t-13 -53.5z" />
    <glyph glyph-name="afii10044" unicode="&#x42a;" 
d="M25 609v126h199v-268q80 0 136 -32q49 -28 76 -76q30 -53 30 -125.5t-30 -125.5q-28 -48 -76 -76q-56 -32 -136 -32h-140v609h-59zM224 126q32 0 54 13q21 12 33 34q15 25 15 60.5t-15 61.5q-12 21 -33 33q-22 13 -54 13v-215z" />
    <glyph glyph-name="afii10092" unicode="&#x44a;" 
d="M25 404v126h199v-176h49q66 0 111 -26q38 -22 60 -58q22 -39 22 -92.5t-22 -92.5q-21 -37 -60 -59q-46 -26 -111 -26h-189v404h-59zM224 126h49q25 0 39 14t14 37t-14 37t-39 14h-49v-102z" />
    <glyph glyph-name="afii10045" unicode="&#x42b;" 
d="M34 0v735h113v-268q51 0 89 -22q39 -23 64 -65q34 -58 34 -146t-34 -146q-25 -43 -64 -66q-38 -22 -89 -22h-113zM147 102q15 0 28 7q15 9 25 27q21 36 21 97.5t-21 97.5q-11 19 -25 28q-13 7 -28 7v-264zM353 0v735h113v-735h-113z" />
    <glyph glyph-name="afii10093" unicode="&#x44b;" 
d="M34 0v530h113v-176h15q54 0 93 -22q35 -20 55 -55q24 -41 24 -99.5t-24 -99.5q-20 -35 -55 -56q-38 -22 -93 -22h-128zM147 102h15q23 0 38 15q21 21 21 60.5t-21 60.5q-15 15 -38 15h-15v-151zM353 0v530h113v-530h-113z" />
    <glyph glyph-name="afii10026" unicode="&#x418;" 
d="M42 0v735h140v-294q0 -92 -18 -195l158 489h136v-735h-140v294q0 92 18 195l-158 -489h-136z" />
    <glyph glyph-name="glyph538" 
d="M42 0v530h140v-212q0 -13 -21 -147l161 359h136v-530h-140v212q0 13 21 147l-161 -359h-136z" />
    <glyph glyph-name="glyph539" 
d="M42 220v310h140v-310q0 -43 15 -70q10 -17 25 -25q12 -7 28 -7t28 7q14 8 25 25q15 27 15 70v310h140v-530h-140v61q-21 -34 -52 -52q-29 -17 -67 -17t-67 17q-33 19 -56 57q-34 59 -34 154z" />
    <glyph glyph-name="afii10074" unicode="&#x438;" 
d="M42 0v530h140v-212q0 -13 -21 -147l161 359h136v-530h-140v212q0 13 21 147l-161 -359h-136z" />
    <glyph glyph-name="afii10040" unicode="&#x426;" 
d="M42 0v735h140v-609h136v609h140v-609h52v-238h-140v112h-328z" />
    <glyph glyph-name="glyph542" 
d="M42 0v530h140v-404h136v404h140v-404h52v-238h-140v112h-328z" />
    <glyph glyph-name="glyph543" 
d="M42 220v310h140v-310q0 -43 15 -70q10 -17 25 -25q12 -7 28 -7t28 7q14 8 25 25q15 27 15 70v310h140v-404h52v-238h-140v112h-52v61q-21 -34 -52 -52q-29 -17 -67 -17t-67 17q-33 19 -56 57q-34 59 -34 154z" />
    <glyph glyph-name="afii10088" unicode="&#x446;" 
d="M42 0v530h140v-404h136v404h140v-404h52v-238h-140v112h-328z" />
    <glyph glyph-name="afii10145" unicode="&#x40f;" 
d="M42 0v735h140v-609h136v609h140v-735h-138v-205h-140v205h-138z" />
    <glyph glyph-name="glyph546" 
d="M42 0v530h140v-404h136v404h140v-530h-138v-205h-140v205h-138z" />
    <glyph glyph-name="glyph547" 
d="M42 220v310h140v-310q0 -43 15 -70q10 -17 25 -25q12 -7 28 -7t28 7q14 8 25 25q15 27 15 70v310h140v-530h-140v61q-21 -34 -52 -52q-29 -17 -67 -17t-67 17q-33 19 -56 57q-34 59 -34 154zM194 -214v160h112v-160h-112z" />
    <glyph glyph-name="afii10193" unicode="&#x45f;" 
d="M42 0v530h140v-404h136v404h140v-530h-138v-205h-140v205h-138z" />
    <glyph glyph-name="afii10021" unicode="&#x414;" 
d="M21 -112v238h32l5 25q43 220 43 517v67h336v-609h21v-238h-140v112h-157v-112h-140zM195 126h102v483h-56q-4 -272 -46 -483z" />
    <glyph glyph-name="glyph550" 
d="M21 -112v238h37l1 7q42 148 42 350v47h336v-404h21v-238h-140v112h-157v-112h-140zM202 126h95v278h-57q-6 -153 -38 -278z" />
    <glyph glyph-name="glyph551" 
d="M34 220v90q0 67 28 116q25 43 68 68q50 29 115 29q14 0 27 -2q-30 45 -75 71q-23 13 -49 20l33 123q50 -12 94 -37q83 -48 133 -135q58 -101 58 -253v-90q0 -76 -31 -130q-26 -45 -70 -70q-48 -28 -115 -28t-115 28q-44 26 -70 70q-31 54 -31 130zM174 220q0 -40 15 -66
q10 -18 27 -27q15 -9 34.5 -9t33.5 9q16 9 27 27q15 26 15 66v90q0 30 -12 50q-21 36 -67 37q-21 0 -36 -9t-25 -26q-12 -21 -12 -52v-90z" />
    <glyph glyph-name="afii10069" unicode="&#x434;" 
d="M21 -112v238h37l1 7q42 148 42 350v47h336v-404h21v-238h-140v112h-157v-112h-140zM202 126h95v278h-57q-6 -153 -38 -278z" />
    <glyph glyph-name="afii10029" unicode="&#x41b;" 
d="M32 0v126q21 0 29 9q11 11 12 40l21 560h343v-735h-140v609h-68l-16 -439q-3 -68 -22 -102q-18 -30 -48 -48q-34 -20 -111 -20z" />
    <glyph glyph-name="afii10077" unicode="&#x43b;" 
d="M32 0v126q20 0 29 9q11 11 12 40l21 355h343v-530h-140v404h-70l-14 -236q-4 -67 -23 -101q-18 -31 -48 -48q-33 -19 -110 -19z" />
    <glyph glyph-name="afii10024" unicode="&#x416;" 
d="M10 0l94 368l-94 367h114l69 -269v269h114v-269l69 269h114l-94 -367l94 -368h-114l-69 269v-269h-114v269l-69 -269h-114z" />
    <glyph glyph-name="uni0496" unicode="&#x496;" 
d="M10 0l94 368l-94 367h114l69 -269v269h114v-269l69 269h114l-94 -367l62 -242h105v-238h-140v112h-47l-69 269v-269h-114v269l-69 -269h-114z" />
    <glyph glyph-name="afii10072" unicode="&#x436;" 
d="M10 0l94 265l-94 265h114l69 -194v194h114v-194l69 194h114l-94 -265l94 -265h-114l-69 194v-194h-114v194l-69 -194h-114z" />
    <glyph glyph-name="uni0497" unicode="&#x497;" 
d="M10 0l94 265l-94 265h114l69 -194v194h114v-194l69 194h114l-94 -265l49 -139h118v-238h-140v112h-47l-69 194v-194h-114v194l-69 -194h-114z" />
    <glyph glyph-name="afii10042" unicode="&#x428;" 
d="M42 0v735h113v-609h39v609h112v-609h39v609h113v-735h-416z" />
    <glyph glyph-name="glyph560" 
d="M42 0v530h113v-404h39v404h112v-404h39v404h113v-530h-416z" />
    <glyph glyph-name="glyph561" 
d="M34 165v365h113v-365q0 -53 15 -68q4 -4 8.5 -3.5t8.5 3.5q15 15 15 68v365h112v-365q0 -53 15 -68q4 -4 9 -3.5t8 3.5q15 15 15 68v365h113v-530h-113v34q-14 -23 -32 -34q-14 -8 -33 -8t-34 9q-19 11 -33 35q-8 13 -14 30q-6 -17 -13 -32q-14 -23 -32 -34
q-14 -8 -33 -8t-35 9q-19 11 -33 35q-27 47 -27 129z" />
    <glyph glyph-name="afii10090" unicode="&#x448;" 
d="M42 0v530h113v-404h39v404h112v-404h39v404h113v-530h-416z" />
    <glyph glyph-name="afii10043" unicode="&#x429;" 
d="M42 0v735h113v-609h39v609h112v-609h39v609h113v-609h52v-238h-140v112h-328z" />
    <glyph glyph-name="glyph564" 
d="M42 0v530h113v-404h39v404h112v-404h39v404h113v-404h52v-238h-140v112h-328z" />
    <glyph glyph-name="glyph565" 
d="M34 165v365h113v-365q0 -53 15 -68q4 -4 8.5 -3.5t8.5 3.5q15 15 15 68v365h112v-365q0 -53 15 -68q4 -4 9 -3.5t8 3.5q15 15 15 68v365h113v-404h44v-238h-140v112h-17v34q-14 -23 -32 -34q-14 -8 -33 -8t-34 9q-19 11 -33 35q-8 13 -14 30q-6 -17 -13 -32
q-14 -23 -32 -34q-14 -8 -33 -8t-35 9q-19 11 -33 35q-27 47 -27 129z" />
    <glyph glyph-name="afii10091" unicode="&#x449;" 
d="M42 0v530h113v-404h39v404h112v-404h39v404h113v-404h52v-238h-140v112h-328z" />
    <glyph glyph-name="glyph567" 
d="M34 165v365h113v-365q0 -53 15 -68q4 -4 8.5 -3.5t8.5 3.5q15 15 15 68v365h112v-365q0 -53 15 -68q4 -4 9 -3.5t8 3.5q15 15 15 68v365h113v-530h-113v34q-14 -23 -32 -34q-14 -8 -33 -8t-34 9q-19 11 -33 35q-8 13 -14 30q-6 -17 -13 -32q-14 -23 -32 -34
q-14 -8 -33 -8t-35 9q-19 11 -33 35q-27 47 -27 129zM100 635v100h300v-100h-300z" />
    <glyph glyph-name="afii10084" unicode="&#x442;" 
d="M42 404v126h416v-126h-138v-404h-140v404h-138z" />
    <glyph glyph-name="afii10041" unicode="&#x427;" 
d="M42 409v326h140v-326q0 -34 13 -57q9 -16 23 -24t32 -8h68v415h140v-735h-140v194h-68q-65 0 -112 27q-42 24 -67 68q-29 50 -29 120z" />
    <glyph glyph-name="uni04B6" unicode="&#x4b6;" 
d="M42 409v326h140v-326q0 -34 13 -57q9 -16 23 -24t32 -8h68v415h140v-609h73v-238h-140v112h-73v194h-68q-65 0 -112 27q-42 24 -67 68q-29 50 -29 120z" />
    <glyph glyph-name="afii10089" unicode="&#x447;" 
d="M42 364v166h140v-166q0 -34 13 -57q9 -16 23 -24t32 -8h68v255h140v-530h-140v149h-68q-65 0 -112 27q-42 24 -67 67q-29 50 -29 121z" />
    <glyph glyph-name="uni04B7" unicode="&#x4b7;" 
d="M42 364v166h140v-166q0 -34 13 -57q9 -16 23 -24t32 -8h68v255h140v-404h73v-238h-140v112h-73v149h-68q-65 0 -112 27q-42 24 -67 67q-29 50 -29 121z" />
    <glyph glyph-name="uni04BA" unicode="&#x4ba;" 
d="M42 0v735h140v-194h68q65 0 112 -27q42 -24 67 -68q29 -50 29 -120v-326h-140v326q0 34 -13 57q-9 16 -23 24t-32 8h-68v-415h-140z" />
    <glyph glyph-name="uni04B8" unicode="&#x4b8;" 
d="M42 409v326h140v-326q0 -40 18 -64v65h100v-90h18v415h140v-735h-140v194h-18v-64h-100v69q-34 7 -62 22q-42 24 -67 68q-29 50 -29 120z" />
    <glyph glyph-name="uni04B9" unicode="&#x4b9;" 
d="M42 364v166h140v-166q0 -40 18 -64v38h100v-63h18v255h140v-530h-140v149h-18v-91h-100v96q-34 7 -62 22q-42 24 -67 67q-29 50 -29 121z" />
    <glyph glyph-name="afii10048" unicode="&#x42e;" 
d="M34 0v735h113v-305h48v133q0 69 26 114q19 33 48 50q28 16 65.5 16t64.5 -16q30 -17 49 -50q26 -45 26 -114v-391q0 -69 -26 -114q-19 -33 -49 -50q-28 -16 -65 -16t-65 16q-30 17 -48 50q-26 45 -26 114v132h-48v-304h-113zM308 172q0 -57 16 -74q5 -5 10.5 -4.5
t10.5 4.5q16 16 16 74v391q0 57 -16 74q-5 4 -10.5 4t-10.5 -4q-16 -16 -16 -74v-391z" />
    <glyph glyph-name="afii10096" unicode="&#x44e;" 
d="M34 0v530h113v-202h48v26q0 71 27 118q19 33 48 50q27 16 64 16t64 -16q30 -17 49 -50q27 -47 27 -118v-178q0 -71 -27 -118q-19 -33 -49 -50q-27 -16 -63.5 -16t-64.5 16q-30 17 -48 50q-27 47 -27 118v26h-48v-202h-113zM308 176q0 -61 16 -78q4 -4 10 -4t10 4
q17 17 17 78v178q0 61 -17 78q-4 4 -9.5 4t-10.5 -4q-17 -17 -16 -78v-178z" />
    <glyph glyph-name="afii10058" unicode="&#x409;" 
d="M21 0v102q12 0 20 7q10 10 11 66l21 560h233v-268q42 0 75 -18q35 -20 58 -61q35 -60 35 -154t-35 -155q-23 -40 -58 -60q-32 -19 -75 -19h-112v609h-13l-16 -438q-3 -80 -24 -116q-15 -26 -38 -40q-26 -15 -82 -15zM306 102q14 0 25 10q30 30 30 121.5t-30 121.5
q-11 11 -25 11v-264z" />
    <glyph glyph-name="afii10106" unicode="&#x459;" 
d="M21 0v102q12 0 19 7q9 9 12 66l21 355h233v-176h2q51 0 87 -21q34 -20 55 -54q24 -42 24 -101.5t-24 -101.5q-20 -35 -55 -55q-37 -21 -87 -21h-114v404h-15l-14 -235q-5 -80 -25 -115q-15 -26 -38 -39q-25 -15 -81 -15zM306 102h2q19 0 33 13q20 20 20 62t-20 63
q-13 13 -33 13h-2v-151z" />
    <glyph glyph-name="afii10059" unicode="&#x40a;" 
d="M42 0v735h113v-305h39v305h112v-268q42 0 75 -18q35 -20 58 -61q35 -60 35 -154t-35 -155q-23 -40 -58 -60q-32 -19 -75 -19h-112v304h-39v-304h-113zM306 102q14 0 25 10q30 30 30 121.5t-30 121.5q-11 11 -25 11v-264z" />
    <glyph glyph-name="afii10107" unicode="&#x45a;" 
d="M42 0v530h113v-202h39v202h112v-176h2q51 0 87 -21q34 -20 55 -54q24 -42 24 -101.5t-24 -101.5q-20 -35 -55 -55q-37 -21 -87 -21h-114v202h-39v-202h-113zM306 102h2q19 0 33 13q20 20 20 62t-20 63q-13 13 -33 13h-2v-151z" />
    <glyph glyph-name="afii10060" unicode="&#x40b;" 
d="M34 609v126h234v-126h-32v-130q19 31 45 46q22 13 51 13t51 -13q27 -16 48 -50q35 -61 35 -165v-310h-140v310q0 69 -24 93q-9 9 -21 9t-20 -9q-24 -24 -25 -93v-310h-140v609h-62z" />
    <glyph glyph-name="afii10051" unicode="&#x402;" 
d="M34 609v126h234v-126h-32v-130q19 30 45 46q23 13 53 13t54 -13q28 -16 48 -51q34 -60 34 -159v-105q0 -76 -30 -128q-52 -90 -164 -90v126q17 0 30 13q24 24 24 79v105q0 63 -24 87q-10 10 -23 10t-23 -10q-24 -24 -24 -87v-315h-140v609h-62z" />
    <glyph glyph-name="afii10099" unicode="&#x452;" 
d="M13 577v90h29v68h140v-68h68v-90h-68v-108q21 34 52 52q29 17 67 17t67 -17q33 -19 56 -57q34 -59 34 -154v-310q0 -62 -27 -109q-26 -45 -75 -73q-63 -36 -154 -36v126q44 0 73 17q21 12 32 31t11 44v310q0 43 -15 70q-10 17 -25 25q-12 7 -28 7t-28 -7q-14 -8 -25 -25
q-15 -27 -15 -70v-310h-140v577h-29z" />
    <glyph glyph-name="germandbls" unicode="&#xdf;" 
d="M42 0v530q0 73 29 124q24 41 65 64q43 25 101.5 25t101.5 -25q40 -23 64 -65q19 -33 26 -73l-136 -31q-4 36 -22 54q-14 14 -34 14q-19 0 -32 -13q-23 -23 -23 -74v-16h285l-90 -225q8 -4 16 -7q36 -21 56 -57q21 -36 21 -79q0 -76 -43 -150q-59 -102 -176 -170
q-31 -18 -63 -31l-54 116q25 10 48 24q79 45 119 114q29 51 29 97q0 12 -9 21q-14 14 -54 15h-85v-182h-140zM182 185l81 203h-81v-203z" />
    <glyph glyph-name="uni1E9E" unicode="&#x1e9e;" 
d="M42 0v530q0 71 29 121q24 42 66 66q45 26 107 26q61 0 105 -25q42 -24 67 -68q31 -54 31 -122v-8h-5l-99 -114q12 -5 23 -12q48 -28 74 -73t26 -107q0 -66 -28 -114q-25 -44 -70 -70q-52 -30 -125 -30h-51v126h51q49 0 71 38q12 21 12 50q0 26 -11 44q-11 19 -31 30
q-28 16 -66 17h-3l-4 125l95 110q-3 28 -14 47q-9 16 -22 24q-11 6 -25 6q-16 0 -28 -7q-13 -8 -22 -23q-13 -22 -13 -57v-530h-140z" />
    <glyph glyph-name="AE" unicode="&#xc6;" 
d="M42 0v74q0 201 120 661h296v-126h-121v-149h96v-126h-96v-208h121v-126h-233v163h-66q-4 -49 -4 -89v-74h-113zM169 265h56v330q-38 -193 -56 -330z" />
    <glyph glyph-name="uni04D4" unicode="&#x4d4;" 
d="M42 0v74q0 201 120 661h296v-126h-121v-149h96v-126h-96v-208h121v-126h-233v163h-66q-4 -49 -4 -89v-74h-113zM169 265h56v330q-38 -193 -56 -330z" />
    <glyph glyph-name="OE" unicode="&#x152;" 
d="M42 215v305q0 71 29 121q25 43 67 67q47 27 112 27h208v-126h-95v-149h70v-126h-70v-208h95v-126h-208q-65 0 -112 27q-42 24 -67 67q-29 50 -29 121zM155 215q0 -41 16 -69q26 -44 79 -44v531q-53 0 -79 -44q-16 -28 -16 -69v-305z" />
    <glyph glyph-name="uni0276" unicode="&#x276;" 
d="M42 215v100q0 71 29 121q25 43 67 67q47 27 112 27h208v-126h-95v-55h70v-126h-70v-97h95v-126h-208q-65 0 -112 27q-42 24 -67 67q-29 50 -29 121zM155 215q0 -41 16 -69q26 -44 79 -44v326q-53 0 -79 -44q-16 -28 -16 -69v-100z" />
    <glyph glyph-name="ae" unicode="&#xe6;" 
d="M26 154q0 59 24 101q23 39 62 62q35 20 81 25v56q0 22 -10 32q-6 6 -15 6q-8 0 -14 -5q-12 -12 -13 -41v-1l-112 11v4q0 40 19 71q16 28 44 45q32 18 76 18t75 -18q4 -2 7 -5q3 2 7 5q32 18 77 18t77 -18q28 -16 44 -45q19 -32 19 -77v-196h-167v-70q0 -20 10 -31
q8 -8 19 -7q10 0 18 7q13 13 13 39v1l112 -11v-3q0 -39 -18 -71q-16 -28 -45 -45q-33 -19 -79.5 -19t-79.5 19q-3 2 -7 4q-4 -2 -7 -5q-32 -18 -76 -18q-41 0 -71 17q-29 17 -47 48q-23 40 -23 97zM139 153q0 -40 15 -54q5 -5 13 -5q9 0 16 6q10 10 10 32v106
q-18 -6 -30 -19q-24 -24 -24 -66zM307 304h54v94q0 21 -10 32q-7 7 -17 6.5t-17 -6.5q-10 -10 -10 -32v-94z" />
    <glyph glyph-name="uni04D5" unicode="&#x4d5;" 
d="M26 154q0 59 24 101q23 39 62 62q35 20 81 25v56q0 22 -10 32q-6 6 -15 6q-8 0 -14 -5q-12 -12 -13 -41v-1l-112 11v4q0 40 19 71q16 28 44 45q32 18 76 18t75 -18q4 -2 7 -5q3 2 7 5q32 18 77 18t77 -18q28 -16 44 -45q19 -32 19 -77v-196h-167v-70q0 -20 10 -31
q8 -8 19 -7q10 0 18 7q13 13 13 39v1l112 -11v-3q0 -39 -18 -71q-16 -28 -45 -45q-33 -19 -79.5 -19t-79.5 19q-3 2 -7 4q-4 -2 -7 -5q-32 -18 -76 -18q-41 0 -71 17q-29 17 -47 48q-23 40 -23 97zM139 153q0 -40 15 -54q5 -5 13 -5q9 0 16 6q10 10 10 32v106
q-18 -6 -30 -19q-24 -24 -24 -66zM307 304h54v94q0 21 -10 32q-7 7 -17 6.5t-17 -6.5q-10 -10 -10 -32v-94z" />
    <glyph glyph-name="uni1D02" unicode="&#x1d02;" 
d="M21 400v3q0 39 18 71q16 28 45 45q33 19 79.5 19t79.5 -19q3 -2 7 -4q4 2 7 5q32 18 76 18q41 0 71 -17q29 -17 47 -48q23 -40 23 -97q0 -59 -24 -101q-23 -39 -62 -62q-35 -20 -81 -25v-56q0 -22 10 -32q6 -6 15 -6q8 0 14 5q12 12 13 41v1l112 -11v-4q0 -40 -19 -71
q-16 -28 -44 -45q-32 -18 -76 -18t-75 18q-4 2 -7 5q-3 -2 -7 -5q-32 -18 -77 -18t-77 18q-28 16 -44 45q-19 32 -19 77v196h167v70q0 20 -10 31q-8 8 -19 7q-10 0 -18 -7q-13 -13 -13 -39v-1zM139 132q0 -21 10 -32q7 -7 17 -6.5t17 6.5q10 10 10 32v94h-54v-94zM307 292
q18 6 30 19q24 24 24 66q0 40 -15 54q-5 5 -13 5q-9 0 -16 -6q-10 -10 -10 -32v-106z" />
    <glyph glyph-name="oe" unicode="&#x153;" 
d="M26 132v266q0 45 19 77q16 28 44 45q32 18 77 18t77 -18q4 -2 7 -5q3 2 7 5q32 18 77 18t77 -18q28 -16 44 -45q19 -32 19 -77v-196h-167v-70q0 -20 10 -31q8 -8 19 -7q10 0 18 7q13 13 13 39v1l112 -11v-3q0 -39 -18 -71q-16 -28 -45 -45q-33 -19 -79.5 -19t-79.5 19
l-6 4q-4 -2 -8 -5q-32 -18 -77 -18t-77 18q-28 16 -44 45q-19 32 -19 77zM139 132q0 -21 10 -32q7 -7 17 -6.5t17 6.5q10 10 11 32v266q0 21 -11 32q-7 6 -17 6t-17 -6q-10 -10 -10 -32v-266zM307 304h54v94q0 21 -10 32q-7 7 -17 6.5t-17 -6.5q-10 -10 -10 -32v-94z" />
    <glyph glyph-name="uni1D14" unicode="&#x1d14;" 
d="M21 400v3q0 39 18 71q16 28 45 45q33 19 79.5 19t79.5 -19l6 -4q4 2 8 5q32 18 77 18t77 -18q28 -16 44 -45q19 -32 19 -77v-266q0 -45 -19 -77q-16 -28 -44 -45q-32 -18 -77 -18t-77 18q-4 2 -7 5q-3 -2 -7 -5q-32 -18 -77 -18t-77 18q-28 16 -44 45q-19 32 -19 77v196
h167v70q0 20 -10 31q-8 8 -19 7q-10 0 -18 -7q-13 -13 -13 -39v-1zM139 132q0 -21 10 -32q7 -7 17 -6.5t17 6.5q10 10 10 32v94h-54v-94zM306 132q0 -21 11 -32q7 -6 17 -6t17 6q10 10 10 32v266q0 21 -10 32q-7 7 -17 6.5t-17 -6.5q-10 -10 -11 -32v-266z" />
    <glyph glyph-name="uni0238" unicode="&#x238;" 
d="M26 132v266q0 45 19 77q16 28 44 45q32 18 77 18q15 0 28 -2v199h112v-199q13 2 28 2q45 0 77 -18q28 -16 44 -45q19 -32 19 -77v-266q0 -45 -19 -77q-16 -28 -44 -45q-32 -18 -77 -18t-77 18q-4 2 -7 5q-3 -2 -7 -5q-32 -18 -77 -18t-77 18q-28 16 -44 45q-19 32 -19 77
zM139 132q0 -21 10 -32q7 -7 17 -6.5t17 6.5q10 10 11 32v266q0 21 -11 32q-7 6 -17 6t-17 -6q-10 -10 -10 -32v-266zM306 132q0 -21 11 -32q7 -7 17 -6.5t17 6.5q10 10 10 32v266q0 21 -10 32q-7 7 -17 6.5t-17 -6.5q-10 -10 -11 -32v-266z" />
    <glyph glyph-name="uni0239" unicode="&#x239;" 
d="M26 132v266q0 45 19 77q16 28 44 45q32 18 77 18t77 -18q4 -2 7 -5q3 2 7 5q32 18 77 18t77 -18q28 -16 44 -45q19 -32 19 -77v-266q0 -45 -19 -77q-16 -28 -44 -45q-32 -18 -77 -18q-14 0 -28 2v-199h-112v199q-13 -2 -28 -2q-45 0 -77 18q-28 16 -44 45q-19 32 -19 77z
M139 132q0 -21 10 -32q7 -7 17 -6.5t17 6.5q10 10 11 32v266q0 21 -11 32q-7 6 -17 6t-17 -6q-10 -10 -10 -32v-266zM306 132q0 -21 11 -32q7 -7 17 -6.5t17 6.5q10 10 10 32v266q0 21 -10 32q-7 7 -17 6.5t-17 -6.5q-10 -10 -11 -32v-266z" />
    <glyph glyph-name="uni0222" unicode="&#x222;" 
d="M34 215v8q0 73 30 125q16 28 40 48q-24 19 -39 45q-23 40 -23 94v200h140v-200q0 -34 13 -57q9 -16 24 -24q13 -8 31 -8t31 8q14 8 24 24q13 23 13 57v200h140v-200q0 -54 -23 -94q-15 -26 -39 -45q23 -20 40 -48q30 -52 30 -125v-8q0 -73 -30 -125q-26 -44 -70 -70
q-48 -28 -116 -28t-116 28q-44 26 -70 70q-30 52 -30 125zM174 215q0 -37 14 -61q10 -18 26 -27q15 -9 35.5 -9t36.5 9t26 27q14 24 14 61v8q0 37 -14 61q-10 18 -26 27t-36 9t-36 -9t-26 -27q-14 -24 -14 -61v-8z" />
    <glyph glyph-name="uni0223" unicode="&#x223;" 
d="M34 220v101q0 76 31 129q16 28 39 49q-24 19 -39 45q-23 40 -23 94v97h140v-97q0 -34 13 -57q9 -16 24 -25q13 -8 31 -7.5t31 7.5q14 8 24 25q13 23 13 57v97h140v-97q0 -54 -23 -94q-15 -26 -39 -45q23 -20 39 -49q31 -54 31 -129v-101q0 -76 -31 -130q-26 -45 -70 -70
q-48 -28 -115 -28t-115 28q-44 26 -70 70q-31 54 -31 130zM174 220q0 -40 15 -66q10 -18 27 -27q15 -9 34.5 -9t33.5 9q16 9 27 27q15 26 15 66v101q0 40 -15 66q-10 18 -27 27q-14 9 -34 9t-34 -9q-16 -9 -27 -27q-15 -26 -15 -66v-101z" />
    <glyph glyph-name="IJ" unicode="&#x132;" 
d="M42 0v735h140v-735h-140zM205 -8v126q44 0 66 13q20 11 31 31q16 27 16 87v486h140v-485q0 -108 -31 -162q-24 -42 -66 -66q-52 -30 -156 -30z" />
    <glyph glyph-name="ij" unicode="&#x133;" 
d="M37 -70l130 46q4 -17 12 -31q10 -17 24 -25q13 -7 29 -7q15 0 27 7q14 8 23 24q15 26 15 66v520h140v-520q0 -76 -31 -129q-25 -43 -67 -68q-45 -26 -107 -26t-107 26q-42 24 -68 68q-13 23 -20 49zM43 685.5q0 28.5 12 48.5q11 18 29 29q21 12 49.5 12t48.5 -12
q18 -11 29 -29q12 -21 12 -49.5t-12 -48.5q-11 -18 -29 -29q-20 -12 -49 -12t-49 12q-18 11 -29 29q-12 21 -12 49.5zM63 0v530h140v-530h-140zM277 685.5q0 28.5 12 48.5q11 18 29 29q21 12 49.5 12t48.5 -12q18 -11 29 -29q12 -21 12 -49.5t-12 -48.5q-11 -18 -29 -29
q-20 -12 -49 -12t-49 12q-18 11 -29 29q-12 21 -12 49.5z" />
    <glyph glyph-name="uni01B7" unicode="&#x1b7;" 
d="M37 155l134 37q3 -17 11 -31q10 -17 26 -26q15 -9 36 -9q20 0 35 9q16 9 25 26q14 24 14 61t-14 61q-9 16 -24 24q-13 8 -30 8h-125v126l134 168h-217v126h385v-126l-134 -168v-3q37 -6 68 -24q42 -24 67 -68q30 -52 30 -124q0 -73 -29 -125q-26 -44 -70 -69
q-48 -28 -115 -28t-115 28q-44 25 -69 69q-16 27 -23 58z" />
    <glyph glyph-name="uni04E0" unicode="&#x4e0;" 
d="M37 155l134 37q3 -17 11 -31q10 -17 26 -26q15 -9 36 -9q20 0 35 9q16 9 25 26q14 24 14 61t-14 61q-9 16 -24 24q-13 8 -30 8h-125v126l134 168h-217v126h385v-126l-134 -168v-3q37 -6 68 -24q42 -24 67 -68q30 -52 30 -124q0 -73 -29 -125q-26 -44 -70 -69
q-48 -28 -115 -28t-115 28q-44 25 -69 69q-16 27 -23 58z" />
    <glyph glyph-name="uni0292" unicode="&#x292;" 
d="M37 -50l134 37q3 -17 11 -31q10 -17 26 -26q15 -9 36 -9q20 0 35 9q16 9 25 26q14 24 14 61t-14 61q-9 16 -24 24q-13 8 -30 8h-125v126l134 168h-217v126h385v-126l-134 -168v-3q37 -6 68 -24q42 -24 67 -68q30 -52 30 -124q0 -73 -29 -125q-26 -44 -70 -69
q-48 -28 -115 -28t-115 28q-44 25 -69 69q-16 27 -23 58z" />
    <glyph glyph-name="uni04E1" unicode="&#x4e1;" 
d="M37 -50l134 37q3 -17 11 -31q10 -17 26 -26q15 -9 36 -9q20 0 35 9q16 9 25 26q14 24 14 61t-14 61q-9 16 -24 24q-13 8 -30 8h-125v126l134 168h-217v126h385v-126l-134 -168v-3q37 -6 68 -24q42 -24 67 -68q30 -52 30 -124q0 -73 -29 -125q-26 -44 -70 -69
q-48 -28 -115 -28t-115 28q-44 25 -69 69q-16 27 -23 58z" />
    <glyph glyph-name="uni01B8" unicode="&#x1b8;" 
d="M42 222q0 73 30 124q25 44 67 68q30 17 68 24v3l-134 168v126h385v-126h-217l134 -168v-126h-125q-17 0 -30 -8q-14 -8 -24 -24q-14 -24 -14 -61t14 -61q10 -17 25 -26t35 -9q21 0 36 9q16 9 26 26q8 14 11 31l134 -37q-7 -31 -23 -58q-26 -44 -69 -69q-48 -28 -115 -28
t-115 28q-44 25 -70 69q-29 51 -29 125z" />
    <glyph glyph-name="uni01B9" unicode="&#x1b9;" 
d="M42 17q0 73 30 124q25 44 67 68q30 17 68 24v3l-134 168v126h385v-126h-217l134 -168v-126h-125q-17 0 -30 -8q-14 -8 -24 -24q-14 -24 -14 -61t14 -61q10 -17 25 -26t35 -9q21 0 36 9q16 9 26 26q8 14 11 31l134 -37q-7 -31 -23 -58q-26 -44 -69 -69q-48 -28 -115 -28
t-115 28q-44 25 -70 69q-29 51 -29 125z" />
    <glyph glyph-name="uni026E" unicode="&#x26e;" 
d="M37 -50l134 37q3 -17 11 -31q10 -17 26 -26q15 -9 36 -9q20 0 35 9q16 9 25 26q14 24 14 61t-14 61q-9 16 -24 24q-13 8 -30 8h-42v126l51 168h-77v-351h-140v682h140v-205h245v-126l-51 -168v-37q31 -23 52 -58q30 -52 30 -124q0 -73 -29 -125q-26 -44 -70 -69
q-48 -28 -115 -28t-115 28q-44 25 -69 69q-16 27 -23 58z" />
    <glyph glyph-name="uni01BA" unicode="&#x1ba;" 
d="M42 -50q0 47 20 81q18 32 51 51q39 23 95 23h21q60 0 81 21q8 8 8 18v1q0 12 -9 21q-18 18 -59 18h-125v126l134 94h-217v126h385v-126l-134 -94v-3q50 -6 87 -28q38 -22 58 -56t20 -74v-5q0 -42 -18 -73q-20 -35 -60 -58q-59 -34 -151 -34h-21q-11 0 -18 -7
q-8 -8 -8 -22t8 -22q7 -7 18 -7h250v-126h-250q-56 0 -95 23q-33 19 -51 51q-20 34 -20 81z" />
    <glyph glyph-name="uni0293" unicode="&#x293;" 
d="M29 -71q0 35 18 65q18 32 52 52q45 26 106 26q58 0 110 -23q-4 16 -11 29q-9 16 -24 24q-13 8 -30 8h-125v126l134 168h-217v126h385v-126l-134 -168v-3q37 -6 68 -24q42 -24 67 -68q30 -52 30 -119v-6q0 -42 -7 -75q38 -49 61 -105l-117 -41q-7 18 -17 36l-12 -8
q-63 -36 -154 -36q-122 0 -165 75q-18 31 -18 67zM154.5 -71q0.5 -8 7.5 -15q14 -14 50 -14q34 0 60 14q11 7 20 16q-7 5 -15 10q-33 19 -70 19q-31 0 -46 -15q-7 -7 -6.5 -15z" />
    <glyph glyph-name="uni0294" unicode="&#x294;" 
d="M37 580q8 35 25 65q26 46 70 71q47 27 112 27t111 -27q44 -26 71 -71q32 -56 32 -126q0 -72 -37 -137q-13 -23 -39 -57q-25 -33 -36 -51q-26 -46 -26 -115v-159h-140v159q0 102 36 164q12 21 42 61q27 36 36 53q24 41 24 82q0 37 -15 63q-10 18 -26 27q-14 8 -33 8
t-33 -8q-16 -9 -27 -28q-10 -17 -14 -40z" />
    <glyph glyph-name="uni0241" unicode="&#x241;" 
d="M37 580q8 35 25 65q26 46 70 71q47 27 112 27t111 -27q44 -26 71 -71q32 -56 32 -126q0 -72 -37 -137q-13 -23 -39 -57q-25 -33 -36 -51q-26 -46 -26 -115v-159h-140v159q0 102 36 164q12 21 42 61q27 36 36 53q24 41 24 82q0 37 -15 63q-10 18 -26 27q-14 8 -33 8
t-33 -8q-16 -9 -27 -28q-10 -17 -14 -40z" />
    <glyph glyph-name="uni0295" unicode="&#x295;" 
d="M42 519q0 71 32 126q26 46 71 71q47 27 111.5 27t111.5 -27q44 -26 70 -71q17 -30 25 -65l-133 -39q-4 22 -14 40q-11 19 -27 28q-14 8 -33 8t-33 -8q-16 -9 -26 -27q-15 -27 -15 -63q0 -40 24 -82q10 -17 36 -53q30 -40 42 -61q36 -62 36 -164v-159h-140v159
q0 69 -26 115q-10 18 -36 51q-26 34 -39 57q-37 64 -37 137z" />
    <glyph glyph-name="uni0242" unicode="&#x242;" 
d="M37 375q3 37 22 71q23 40 63 63q51 29 125.5 29t125.5 -30q41 -23 62 -61q23 -39 23 -86.5t-23 -87.5q-16 -27 -53 -63q-34 -32 -45 -52q-17 -28 -17 -78v-80h-140v80q0 94 26 140q17 30 59 64q18 15 26 23q27 26 27 53q0 19 -13 33q-19 19 -58 19q-37 0 -56 -20
q-17 -17 -17 -39v-3z" />
    <glyph glyph-name="uni01BE" unicode="&#x1be;" 
d="M37 155l137 25v-2q0 -23 17 -40q20 -20 56.5 -20t55.5 19q15 15 15 39q0 22 -16 38q-10 10 -38 26q-45 26 -64 57q-12 20 -16 55h-39v91h35v87h140v-87h35v-91h-5q13 -16 35 -35q37 -34 52 -61q21 -36 21 -80q0 -53 -23 -93q-22 -38 -62 -61q-51 -30 -125.5 -30
t-125.5 29q-40 23 -63 63q-19 34 -22 71z" />
    <glyph glyph-name="glyph616" 
d="M37 580q8 35 25 65q26 46 70 71q47 27 112 27t111 -27q44 -26 71 -71q32 -56 32 -126q0 -68 -33 -125q-16 -28 -51 -69q-32 -38 -44 -58q-24 -41 -24 -108v-159h-112v159q0 92 32 147q14 25 51 70q34 40 46 62q23 40 23.5 82t-18.5 74q-14 24 -35 37q-21 12 -49 12
t-49 -12q-22 -13 -36 -37q-12 -20 -16 -45z" />
    <glyph glyph-name="glyph617" 
d="M42 519q0 70 32 126q26 46 71 71q47 27 111.5 27t111.5 -27q44 -26 70 -71q17 -30 25 -65l-106 -31q-5 25 -16 45q-14 24 -36 37q-21 12 -49 12t-49 -12q-22 -12 -35 -37q-19 -33 -19 -74.5t24 -81.5q12 -21 46 -62q37 -44 51 -70q32 -55 32 -147v-159h-112v159
q0 66 -24 108q-12 21 -44 58q-34 40 -51 69q-33 58 -33 125z" />
    <glyph glyph-name="uni0296" unicode="&#x296;" 
d="M37 155l133 39q4 -22 14 -40q11 -19 27 -28q14 -8 33 -8t33 8q16 9 26 27q15 27 15 63q0 40 -24 82q-10 17 -36 53q-30 40 -42 61q-36 62 -36 164v159h140v-159q0 -69 26 -115q10 -18 36 -51q26 -34 39 -57q37 -64 37 -137q0 -71 -32 -126q-26 -46 -71 -71
q-47 -27 -111.5 -27t-111.5 27q-44 26 -70 71q-17 30 -25 65z" />
    <glyph glyph-name="uni02A1" unicode="&#x2a1;" 
d="M37 580q8 35 25 65q26 46 70 71q47 27 112 27t111 -27q44 -26 71 -71q32 -56 32 -126q0 -72 -37 -137q-13 -23 -39 -57q-25 -33 -36 -51q-12 -20 -18 -45h27v-90h-35v-139h-140v139h-35v90h40q8 55 31 94q12 21 42 61q27 36 36 53q24 41 24 82q0 37 -15 63q-10 18 -26 27
q-14 8 -33 8t-33 -8q-16 -9 -27 -28q-10 -17 -14 -40z" />
    <glyph glyph-name="uni02A2" unicode="&#x2a2;" 
d="M42 519q0 71 32 126q26 46 71 71q47 27 111.5 27t111.5 -27q44 -26 70 -71q17 -30 25 -65l-133 -39q-4 22 -14 40q-11 19 -27 28q-14 8 -33 8t-33 -8q-16 -9 -26 -27q-15 -27 -15 -63q0 -40 24 -82q10 -17 36 -53q30 -40 42 -61q23 -39 31 -94h40v-90h-35v-139h-140v139
h-35v90h27q-7 25 -18 45q-10 18 -36 51q-26 34 -39 57q-37 64 -37 137z" />
    <glyph glyph-name="eth" unicode="&#xf0;" 
d="M34 220v1q0 76 31 130q26 45 70 70q48 28 115 28q22 0 42 -3q-12 32 -28 59l-169 -39l-23 87l123 29q-27 21 -59 33l45 120q36 -12 69 -31q58 -34 101 -86l75 17l23 -87l-45 -11q62 -125 62 -315v-2q0 -76 -31 -130q-26 -45 -70 -70q-48 -28 -115 -28t-115 28
q-44 26 -70 70q-31 54 -31 130zM174 220q0 -40 15 -66q10 -18 27 -27q15 -9 34.5 -9t33.5 9q16 9 27 27q15 26 15 66v1q0 40 -15 66q-10 18 -27 27q-15 9 -34.5 9t-33.5 -9q-16 -9 -27 -27q-15 -26 -15 -66v-1z" />
    <glyph glyph-name="Thorn" unicode="&#xde;" 
d="M52 0v735h140v-140h38q78 0 133 -31q47 -27 74 -74q29 -51 29 -122.5t-29 -122.5q-27 -47 -74 -74q-55 -32 -133 -31h-38v-140h-140zM192 266h38q57 0 82 44q14 24 14 58t-14 57q-25 44 -82 44h-38v-203z" />
    <glyph glyph-name="uni03F7" unicode="&#x3f7;" 
d="M52 0v735h140v-140h38q78 0 133 -31q47 -27 74 -74q29 -51 29 -122.5t-29 -122.5q-27 -47 -74 -74q-55 -32 -133 -31h-38v-140h-140zM192 266h38q57 0 82 44q14 24 14 58t-14 57q-25 44 -82 44h-38v-203z" />
    <glyph glyph-name="thorn" unicode="&#xfe;" 
d="M42 -205v940h140v-266q21 34 52 52q29 17 68 17q41 0 72 -18q35 -20 58 -60q34 -59 34 -150v-90q0 -91 -34 -150q-23 -40 -58 -60q-32 -18 -72 -18q-39 0 -68 17q-31 18 -52 52v-266h-140zM182 220q0 -43 15 -70q10 -17 25 -25q12 -7 29 -7q19 0 33 9q16 9 27 27
q15 26 15 66v90q0 40 -15 66q-10 18 -27 27q-15 9 -33 9q-17 0 -29 -7q-14 -8 -25 -25q-15 -27 -15 -70v-90z" />
    <glyph glyph-name="uni03F8" unicode="&#x3f8;" 
d="M42 -205v940h140v-266q21 34 52 52q29 17 68 17q41 0 72 -18q35 -20 58 -60q34 -59 34 -150v-90q0 -91 -34 -150q-23 -40 -58 -60q-32 -18 -72 -18q-39 0 -68 17q-31 18 -52 52v-266h-140zM182 220q0 -43 15 -70q10 -17 25 -25q12 -7 29 -7q19 0 33 9q16 9 27 27
q15 26 15 66v90q0 40 -15 66q-10 18 -27 27q-15 9 -33 9q-17 0 -29 -7q-14 -8 -25 -25q-15 -27 -15 -70v-90z" />
    <glyph glyph-name="uni01F6" unicode="&#x1f6;" 
d="M34 0v735h113v-305h47v305h112v-603q0 -23 11 -33q5 -5 13 -5t13 5q10 10 10 33v398h113v-398q0 -46 -19 -78q-16 -28 -44 -44q-31 -18 -73.5 -18t-73.5 18q-28 16 -44 44q-19 33 -18 78v172h-47v-304h-113z" />
    <glyph glyph-name="uni0195" unicode="&#x195;" 
d="M34 0v735h113v-216q5 4 11 8q20 11 46 11t46 -11q22 -12 36 -37q21 -36 20 -92v-266q0 -23 11 -33q5 -5 13 -5t13 5q10 10 10 33v398h113v-398q0 -46 -19 -78q-16 -28 -44 -44q-31 -18 -73.5 -18t-73.5 18q-28 16 -44 44q-19 33 -18 78v266q0 23 -11 33q-5 5 -13 5
t-13 -5q-10 -10 -10 -33v-398h-113z" />
    <glyph glyph-name="uni01A2" unicode="&#x1a2;" 
d="M26 132v471q0 44 18 76q16 28 46 45q33 19 80 19t81 -19q14 -8 24 -18q54 4 86 29h113v-940h-113v824q-21 -8 -47 -11v-476q0 -44 -18 -76q-16 -28 -45 -45q-33 -19 -80.5 -19t-80.5 19q-29 17 -46 45q-18 32 -18 76zM139 132q0 -20 10 -30q8 -8 21 -8t21 8q10 10 11 30
v471q0 20 -11 30q-8 8 -20.5 8t-21.5 -8q-10 -10 -10 -30v-471z" />
    <glyph glyph-name="uni01A3" unicode="&#x1a3;" 
d="M26 132v266q0 44 18 76q16 28 46 45q33 19 80 19t81 -19q14 -8 24 -18q54 4 86 29h113v-735h-113v619q-21 -8 -47 -11v-271q0 -44 -18 -76q-16 -28 -45 -45q-33 -19 -80.5 -19t-80.5 19q-29 17 -46 45q-18 32 -18 76zM139 132q0 -20 10 -30q8 -8 21 -8t21 8q10 10 11 30
v266q0 20 -11 30q-8 8 -20.5 8t-21.5 -8q-10 -10 -10 -30v-266z" />
    <glyph glyph-name="uni01F7" unicode="&#x1f7;" 
d="M42 0v735h140v-10q37 18 78 18q56 0 105 -28q44 -25 70 -71q31 -54 31 -123q0 -84 -52 -174q-67 -115 -232 -273v-74h-140zM182 255q65 68 103 134q41 71 41 131q0 36 -15 61q-10 18 -26 27q-15 9 -34 9q-32 0 -54 -22q-9 -9 -15 -21v-319z" />
    <glyph glyph-name="uni01BF" unicode="&#x1bf;" 
d="M42 -205v735h140v-10q37 18 78 18q56 0 105 -28q44 -25 70 -71q31 -54 31 -123q0 -84 -52 -174q-67 -115 -232 -273v-74h-140zM182 50q65 68 103 134q41 71 41 131q0 36 -15 61q-10 18 -26 27q-15 9 -34 9q-32 0 -54 -22q-9 -9 -15 -21v-319z" />
    <glyph glyph-name="uni021C" unicode="&#x21c;" 
d="M29 117q127 8 219 62q42 24 60 55q13 23 13 47q0 26 -13 46q-80 -42 -193 -78l-42 121q159 50 185 65q31 18 46 45q14 24 14 51q0 42 -24 67q-19 19 -49 19q-20 0 -35 -9q-16 -9 -26 -26q-9 -16 -12 -36l-135 34q7 35 25 66q26 44 69 69q48 28 114 28t114 -28
q44 -25 69 -69q31 -53 30 -114q0 -52 -26 -99q-7 -12 -16 -23q11 -13 20 -29q25 -44 26 -97q0 -55 -30 -106q-35 -61 -107 -103q-118 -68 -283 -83z" />
    <glyph glyph-name="uni021D" unicode="&#x21d;" 
d="M29 -88q127 8 219 62q42 24 60 55q13 23 13 47q0 26 -13 46q-80 -42 -193 -78l-42 121q159 50 185 65q31 18 46 45q14 24 14 51q0 42 -24 67q-19 19 -49 19q-20 0 -35 -9q-16 -9 -26 -26q-9 -16 -12 -36l-135 34q7 35 25 66q26 44 69 69q48 28 114 28t114 -28
q44 -25 69 -69q31 -53 30 -114q0 -52 -26 -99q-7 -12 -16 -23q11 -13 20 -29q25 -44 26 -97q0 -55 -30 -106q-35 -61 -107 -103q-118 -68 -283 -83z" />
    <glyph glyph-name="uni0263" unicode="&#x263;" 
d="M34 530h140q43 -98 76 -184q33 86 76 184h140q-104 -192 -162 -335q60 -184 60 -288q0 -37 -14 -61q-13 -22 -35 -36q-27 -15 -65 -15t-65 15q-23 13 -35 36q-14 24 -14 61q0 104 60 288q-58 143 -162 335zM230 -93q0 -15 7 -22q5 -5 13 -5t13 5q7 7 7 22q0 7 -1 22
q-2 47 -19 109q-16 -62 -19 -108q-1 -15 -1 -23z" />
    <glyph glyph-name="uni0194" unicode="&#x194;" 
d="M34 735h140q43 -131 76 -244q33 114 76 244h140q-104 -255 -162 -444q60 -245 60 -382q0 -39 -14 -63q-13 -22 -35 -36q-27 -15 -65 -15t-65 15q-23 13 -35 36q-14 24 -14 63q0 137 60 381q-58 190 -162 445zM230 -70v-23q0 -15 7 -22q5 -5 13 -5t13 5q7 7 7 22
q1 73 -20 176q-18 -88 -20 -153z" />
    <glyph glyph-name="uni0264" unicode="&#x264;" 
d="M34 530h140q43 -66 76 -124q33 58 76 124h140q-103 -129 -162 -226q60 -124 60 -195q0 -34 -14 -58q-13 -22 -36 -36q-27 -15 -64.5 -15t-63.5 15q-23 13 -36 36q-14 24 -14 58q0 71 60 195q-58 97 -162 226zM230 111q0 -14 7 -21q5 -5 13 -5t13 5q7 7 7 21q0 36 -20 87
q-20 -51 -20 -87z" />
    <glyph glyph-name="uni02DE" unicode="&#x2de;" 
d="M-191 308l231 149h140v-192q0 -82 29 -133q18 -31 44 -46q22 -13 51 -13t51 13q26 15 43 46q10 17 17 37l125 -56q-9 -22 -20 -42q-35 -61 -91 -93q-54 -31 -125 -31q-74 0 -129 32t-90 91q-45 79 -45 195v40l-129 -83z" />
    <glyph glyph-name="uni025A" unicode="&#x25a;" 
d="M33 400q8 28 22 51q24 42 63 65q38 22 88.5 22t88.5 -22q39 -22 63 -64q28 -49 32 -119l18 3l-10 -17h12v-1q0 -39 15 -65q12 -20 31 -31t41 -11h3v-90h-6q-54 0 -96 25q-6 4 -13 7q-8 -44 -27 -77q-24 -42 -62 -63q-36 -21 -83.5 -21t-83.5 21q-38 22 -62 63
q-33 57 -33 144v108h217q-3 54 -24 75q-9 9 -21 9q-14 0 -24 -10q-17 -17 -23 -57zM174 202q3 -57 23 -77q7 -7 16 -7t15 7q20 20 23 77h-77z" />
    <glyph glyph-name="uni025D" unicode="&#x25d;" 
d="M37 110l125 56q-1 -3 0 -6q0 -17 11 -29q13 -13 34 -13q14 0 23 9q13 13 13 38q0 27 -13 40q-8 7 -18 8h-51v126h51q12 0 21 7q10 10 10 30q0 17 -9.5 26.5t-25.5 9.5q-22 0 -35 -13q-11 -11 -12 -28q0 -4 1 -7l-125 56q4 21 16 41q20 34 53 53q41 24 102 24
q59 0 100 -24q35 -20 54 -53q21 -36 21 -84q0 -26 -8 -47l33 6l-10 -17h12v-1q0 -39 15 -65q12 -20 31 -31t41 -11h3v-90h-6q-54 0 -96 25q-8 4 -15 9q-2 -48 -23 -84q-20 -35 -55 -56q-41 -23 -98 -23q-59 0 -101 24q-34 19 -53 53q-11 19 -16 41z" />
    <glyph glyph-name="uni02AD" unicode="&#x2ad;" 
d="M42 74v220h416v-220h-140v94h-136v-94h-140zM42 441v221h416v-221h-140v95h-136v-95h-140z" />
    <glyph glyph-name="zero.ss08" 
d="M34 220v295q0 76 31 130q26 45 70 70q48 28 115 28t115 -28q44 -26 70 -70q31 -54 31 -130v-295q0 -76 -31 -130q-26 -45 -70 -70q-48 -28 -115 -28t-115 28q-44 26 -70 70q-31 54 -31 130zM174 220q0 -40 15 -66q10 -18 27 -27q15 -9 34.5 -9t33.5 9q16 9 27 27
q15 26 15 66v295q0 40 -15 66q-10 18 -27 27q-14 9 -34 9t-34 -9q-16 -9 -27 -27q-15 -26 -15 -66v-295z" />
    <glyph glyph-name="zero.ss06" 
d="M34 220v295q0 76 31 130q26 45 70 70q48 28 115 28t115 -28q44 -26 70 -70q31 -54 31 -130v-295q0 -76 -31 -130q-26 -45 -70 -70q-48 -28 -115 -28t-115 28q-44 26 -70 70q-31 54 -31 130zM174 346l149 203q-4 18 -12 32q-10 18 -27 27q-14 9 -34 9t-34 -9
q-16 -9 -27 -27q-15 -26 -15 -66v-169zM177 186q4 -18 12 -32q10 -18 27 -27q15 -9 34.5 -9t33.5 9q16 9 27 27q15 26 15 66v169z" />
    <glyph glyph-name="zero.ss07" 
d="M34 220v295q0 76 31 130q26 45 70 70q48 28 115 28t115 -28q44 -26 70 -70q31 -54 31 -130v-295q0 -76 -31 -130q-26 -45 -70 -70q-48 -28 -115 -28t-115 28q-44 26 -70 70q-31 54 -31 130zM174 220q0 -40 15 -66q10 -18 27 -27q15 -9 34.5 -9t33.5 9q16 9 27 27
q15 26 15 66v295q0 40 -15 66q-10 18 -27 27q-14 9 -34 9t-34 -9q-16 -9 -27 -27q-15 -26 -15 -66v-295zM209 367.5q0 -18.5 11 -30t30 -11.5t30 11.5t11 30t-11 29.5t-30 11t-30 -11t-11 -29.5z" />
    <glyph glyph-name="zero" unicode="0" 
d="M34 220v295q0 76 31 130q26 45 70 70q48 28 115 28t115 -28q44 -26 70 -70q31 -54 31 -130v-295q0 -76 -31 -130q-26 -45 -70 -70q-48 -28 -115 -28t-115 28q-44 26 -70 70q-31 54 -31 130zM174 346l149 203q-4 18 -12 32q-10 18 -27 27q-14 9 -34 9t-34 -9
q-16 -9 -27 -27q-15 -26 -15 -66v-169zM177 186q4 -18 12 -32q10 -18 27 -27q15 -9 34.5 -9t33.5 9q16 9 27 27q15 26 15 66v169z" />
    <glyph glyph-name="one" unicode="1" 
d="M68 619l142 116h140v-735h-140v565l-54 -44z" />
    <glyph glyph-name="two" unicode="2" 
d="M37 580q7 35 24 65q26 44 70 70q48 28 115.5 28t116.5 -28q44 -25 69 -70q30 -52 30 -113q0 -59 -33 -117q-27 -46 -103 -115q-78 -70 -106 -120q-14 -24 -23 -54h261v-126h-416v1q0 144 46 224q32 56 118 130q72 63 94 102q22 38 22 75q0 41 -24 65q-6 6 -13 11
q-16 9 -38 9q-21 0 -37 -9t-26 -27q-9 -15 -12 -34z" />
    <glyph glyph-name="three" unicode="3" 
d="M37 155l134 36q3 -21 13 -37q10 -18 26 -28q15 -8 34 -8q20 0 35 9q16 9 25 26q14 24 14 55q0 29 -13 53q-13 22 -35 35q-28 16 -81 16v126q55 0 83 16q22 13 34 34q12 22 12 47q0 27 -12 48q-9 16 -24.5 25t-36.5 9q-20 0 -35 -9q-16 -9 -26 -26q-9 -15 -12 -34l-135 32
q7 36 24 66q25 44 69 69q48 28 115 28t115 -28q43 -25 69 -68q30 -51 29 -111q0 -50 -24 -93q-24 -42 -67 -66q-2 -1 -5 -3q1 -1 2 -1q44 -26 69 -68q25 -44 25 -98q0 -64 -31 -118q-26 -45 -70 -70q-47 -27 -112.5 -27t-112.5 27q-44 25 -70 71q-17 30 -25 65z" />
    <glyph glyph-name="four" unicode="4" 
d="M34 168v126l180 441h171v-441h73v-126h-73v-168h-140v168h-211zM168 294h77v187z" />
    <glyph glyph-name="five" unicode="5" 
d="M37 155l131 43q4 -23 15 -41q12 -20 29 -30q15 -9 35 -9q19 0 33 8q17 10 28 29q18 31 18 81t-18 81q-11 19 -26 28q-13 8 -31 7q-28 0 -47 -19q-18 -18 -26 -48l-126 55v395h385v-126h-245v-137q27 7 59 6q63 0 109 -26q45 -26 72 -73q34 -59 34 -144q0 -84 -34 -142
q-27 -47 -72 -74q-48 -27 -113 -27t-113 27q-45 26 -72 74q-17 29 -25 62z" />
    <glyph glyph-name="uni01BC" unicode="&#x1bc;" 
d="M37 155l131 43q4 -23 15 -41q12 -20 29 -30q15 -9 35 -9q19 0 33 8q17 10 28 29q18 31 18 81t-18 81q-11 19 -26 28q-13 8 -31 7q-28 0 -47 -19q-18 -18 -26 -48l-126 55v395h385v-126h-245v-137q27 7 59 6q63 0 109 -26q45 -26 72 -73q34 -59 34 -144q0 -84 -34 -142
q-27 -47 -72 -74q-48 -27 -113 -27t-113 27q-45 26 -72 74q-17 29 -25 62z" />
    <glyph glyph-name="uni01BD" unicode="&#x1bd;" 
d="M37 155l137 25q0 -15 8 -29t23 -22q18 -11 46 -11q42 0 62 20q13 13 13 31.5t-13 31.5q-20 20 -62 20q-43 0 -66 -24q-4 -4 -7 -8l-126 56v285h385v-126h-245v-62q27 5 59 5q79 0 132 -30q40 -23 62 -61q21 -37 21 -86.5t-21 -86.5t-62 -60q-53 -31 -132 -31
q-77 0 -128 30q-40 23 -64 64q-19 33 -22 69z" />
    <glyph glyph-name="six" unicode="6" 
d="M34 220v2q0 210 75 339q53 92 141 143q33 19 69 31l45 -120q-16 -7 -31 -15q-63 -36 -100 -101q-14 -25 -25 -53q20 3 42 3q67 0 115 -28q44 -26 70 -70q31 -54 31 -130v-1q0 -76 -31 -130q-26 -45 -70 -70q-48 -28 -115 -28t-115 28q-44 26 -70 70q-31 54 -31 130z
M174 220q0 -40 15 -66q10 -18 27 -27q15 -9 34.5 -9t33.5 9q16 9 27 27q15 26 15 66v1q0 40 -15 66q-10 18 -27 27q-15 9 -34.5 9t-33.5 -9q-16 -9 -27 -27q-15 -25 -15 -66v-1z" />
    <glyph glyph-name="seven" unicode="7" 
d="M42 609v126h416v-126l-224 -609h-151l225 609h-266z" />
    <glyph glyph-name="eight" unicode="8" 
d="M34 203q0 55 28 103q23 41 69 73q-33 27 -52 59q-28 48 -28 102q0 62 29 112q24 42 65 66q44 25 105 25t105 -25q41 -24 65 -66q29 -50 29 -112q0 -54 -28 -102q-19 -33 -52 -59q46 -32 69 -73q28 -48 28 -103q0 -63 -29 -113q-25 -44 -70 -70q-49 -28 -117.5 -28
t-116.5 28q-44 25 -70 70q-29 51 -29 113zM174 200q0 -27 11 -47q20 -35 64.5 -35t65.5 35q12 20 11 47q0 27 -14 52q-18 31 -62 57q-44 -26 -62 -57q-14 -25 -14 -52zM191 543q0 -27 14 -52q14 -24 45 -45q31 21 45 45q14 25 14 52q0 38 -21 59q-15 15 -38 15t-38 -15
q-21 -21 -21 -59z" />
    <glyph glyph-name="glyph655" 
d="M34 0q0 174 48 258q24 41 76 88q-57 53 -78 91q-29 50 -29 104q0 62 29 111q24 42 65 66q44 25 105 25t105 -25q41 -24 65 -66q29 -50 29 -111q0 -55 -29 -104q-21 -37 -78 -91q52 -48 76 -88q48 -84 48 -258h-140q0 135 -43 210q-12 21 -33 46q-20 -24 -33 -46
q-43 -75 -43 -210h-140zM191 541q0 -34 19 -68q13 -22 40 -48q27 26 40 48q19 34 19 68q0 40 -22 61q-15 15 -37.5 15t-36.5 -15q-21 -21 -22 -61z" />
    <glyph glyph-name="nine" unicode="9" 
d="M34 469v46q0 76 31 130q26 45 70 70q48 28 114 28q63 0 109 -26q45 -26 73 -74q35 -61 35 -151v-235q0 -97 -38 -162q-29 -50 -75 -76q-46 -27 -108 -27t-108 27t-75 76q-16 28 -25 60l127 53q12 -61 48 -82q14 -8 33 -8q17 0 31 8q17 10 28 30q22 38 22 101v11
q-8 -7 -17 -12q-26 -15 -65 -15q-61 0 -109 28q-44 26 -70 71q-31 54 -31 129zM174 469q0 -41 15 -67q10 -18 26 -27q14 -8 32 -8q21 0 37 10q17 10 27 28q15 25 15 64v23q0 55 -19 89q-11 19 -27 28q-13 8 -31 8q-19 0 -34 -8q-16 -9 -26 -28q-15 -26 -15 -66v-46z" />
    <glyph glyph-name="uni2000" unicode="&#x2000;" 
 />
    <glyph glyph-name="uni2002" unicode="&#x2002;" 
 />
    <glyph glyph-name="uni2004" unicode="&#x2004;" 
 />
    <glyph glyph-name="uni2005" unicode="&#x2005;" 
 />
    <glyph glyph-name="uni2006" unicode="&#x2006;" 
 />
    <glyph glyph-name="uni2007" unicode="&#x2007;" 
 />
    <glyph glyph-name="uni200B" unicode="&#x200b;" horiz-adv-x="0" 
 />
    <glyph glyph-name="uni00A0" unicode="&#xa0;" 
 />
    <glyph glyph-name="uni2001" unicode="&#x2001;" 
 />
    <glyph glyph-name="uni2003" unicode="&#x2003;" 
 />
    <glyph glyph-name="parenleft" unicode="(" 
d="M104 331.5q0 204.5 93 364.5q47 82 115 148l98 -91q-51 -51 -88 -114q-78 -135 -78 -308t78 -307q36 -63 88 -115l-98 -90q-68 66 -115 147q-93 161 -93 365.5z" />
    <glyph glyph-name="parenright" unicode=")" 
d="M90 -91q51 51 88 115q78 135 78 307.5t-78 307.5q-36 63 -88 114l98 91q68 -66 115 -148q93 -161 93 -365t-93 -365q-47 -82 -115 -147z" />
    <glyph glyph-name="bracketleft" unicode="[" 
d="M104 -181v1025h312v-126h-172v-773h172v-126h-312z" />
    <glyph glyph-name="bracketright" unicode="]" 
d="M84 -55h172v773h-172v126h312v-1025h-312v126z" />
    <glyph glyph-name="braceleft" unicode="{" 
d="M84 268v126q29 0 51 13q20 11 31 31q14 24 14 60v179q0 41 19 73q20 35 60 58q61 35 157 36v-126q-66 0 -88 -22q-8 -8 -8 -19v-179q0 -72 -30 -124q-14 -24 -33 -43q19 -19 33 -42q30 -52 30 -124v-180q0 -10 8 -18q22 -22 88 -22v-126q-96 0 -157 35q-40 23 -60 58
q-19 32 -19 73v180q0 35 -14 59q-25 44 -82 44z" />
    <glyph glyph-name="braceright" unicode="}" 
d="M84 -55q66 0 88 22q8 8 8 18v180q0 72 30 124q14 24 33 42q-19 19 -33 43q-30 52 -30 124v179q0 10 -8 19q-22 22 -88 22v126q96 0 157 -36q40 -23 60 -58q19 -32 19 -73v-179q0 -35 14 -60q25 -44 82 -44v-126q-29 0 -51 -12q-20 -11 -31 -32q-14 -24 -14 -59v-180
q0 -41 -19 -73q-20 -35 -60 -58q-61 -35 -157 -35v126z" />
    <glyph glyph-name="angleleft" unicode="&#x2329;" 
d="M96 331l216 513l109 -41l-193 -472l193 -471l-109 -41z" />
    <glyph glyph-name="uni27E8" unicode="&#x27e8;" 
d="M96 331l216 513l109 -41l-193 -472l193 -471l-109 -41z" />
    <glyph glyph-name="angleright" unicode="&#x232a;" 
d="M79 -140l193 471l-193 472l109 41l216 -513l-216 -512z" />
    <glyph glyph-name="uni27E9" unicode="&#x27e9;" 
d="M79 -140l193 471l-193 472l109 41l216 -513l-216 -512z" />
    <glyph glyph-name="uni27EA" unicode="&#x27ea;" 
d="M184 331l216 513l109 -41l-193 -472l193 -471l-109 -41zM8 331l216 513l109 -41l-193 -472l193 -471l-109 -41z" />
    <glyph glyph-name="uni27EB" unicode="&#x27eb;" 
d="M167 -140l193 471l-193 472l109 41l216 -513l-216 -512zM-9 -140l193 471l-193 472l109 41l216 -513l-216 -512z" />
    <glyph glyph-name="uni2308" unicode="&#x2308;" 
d="M104 -181v1025h312v-126h-172v-899h-140z" />
    <glyph glyph-name="uni230A" unicode="&#x230a;" 
d="M104 -181v1025h140v-899h172v-126h-312z" />
    <glyph glyph-name="uni230B" unicode="&#x230b;" 
d="M84 -55h172v899h140v-1025h-312v126z" />
    <glyph glyph-name="uni2309" unicode="&#x2309;" 
d="M84 718v126h312v-1025h-140v899h-172z" />
    <glyph glyph-name="period" unicode="." 
d="M142 100.5q0 34.5 14 58.5q13 22 35 35q25 14 59.5 14t58.5 -14q22 -13 35 -35q14 -25 14 -59.5t-14 -58.5q-13 -22 -35 -35q-24 -14 -59 -14t-59 14q-22 13 -35 35q-14 25 -14 59.5z" />
    <glyph glyph-name="glyph684" 
d="M142 430.5q0 34.5 14 58.5q13 22 35 35q25 14 59.5 14t58.5 -14q22 -13 35 -35q14 -25 14 -59.5t-14 -58.5q-13 -22 -35 -35q-24 -14 -59 -14t-59 14q-22 13 -35 35q-14 25 -14 59.5z" />
    <glyph glyph-name="comma" unicode="," 
d="M138 -138q40 44 66 88q13 22 21 44q-19 3 -34 12q-22 13 -35 35q-14 25 -14 59.5t14 58.5q13 22 35 35q25 14 59.5 14t58.5 -14q22 -13 35 -35q14 -24 14 -59q0 -97 -56 -195q-32 -56 -82 -110z" />
    <glyph glyph-name="glyph686" 
d="M142 100q0 35 14 59q13 22 35 35q25 14 59.5 14t58.5 -14q22 -13 35 -35q14 -25 14 -59.5t-14 -58.5q-13 -22 -35 -35q-15 -9 -34 -12q9 -22 21 -44q26 -44 66 -88l-82 -67q-50 55 -82 110q-56 97 -56 195z" />
    <glyph glyph-name="colon" unicode=":" 
d="M142 430.5q0 34.5 14 58.5q13 22 35 35q25 14 59.5 14t58.5 -14q22 -13 35 -35q14 -25 14 -59.5t-14 -58.5q-13 -22 -35 -35q-24 -14 -59 -14t-59 14q-22 13 -35 35q-14 25 -14 59.5zM142 100.5q0 34.5 14 58.5q13 22 35 35q25 14 59.5 14t58.5 -14q22 -13 35 -35
q14 -25 14 -59.5t-14 -58.5q-13 -22 -35 -35q-24 -14 -59 -14t-59 14q-22 13 -35 35q-14 25 -14 59.5z" />
    <glyph glyph-name="semicolon" unicode=";" 
d="M138 -138q40 44 66 88q13 22 21 44q-19 3 -34 12q-22 13 -35 35q-14 25 -14 59.5t14 58.5q13 22 35 35q25 14 59.5 14t58.5 -14q22 -13 35 -35q14 -24 14 -59q0 -97 -56 -195q-32 -56 -82 -110zM142 430.5q0 34.5 14 58.5q13 22 35 35q25 14 59.5 14t58.5 -14
q22 -13 35 -35q14 -25 14 -59.5t-14 -58.5q-13 -22 -35 -35q-24 -14 -59 -14t-59 14q-22 13 -35 35q-14 25 -14 59.5z" />
    <glyph glyph-name="uni037E" unicode="&#x37e;" 
d="M138 -138q40 44 66 88q13 22 21 44q-19 3 -34 12q-22 13 -35 35q-14 25 -14 59.5t14 58.5q13 22 35 35q25 14 59.5 14t58.5 -14q22 -13 35 -35q14 -24 14 -59q0 -97 -56 -195q-32 -56 -82 -110zM142 430.5q0 34.5 14 58.5q13 22 35 35q25 14 59.5 14t58.5 -14
q22 -13 35 -35q14 -25 14 -59.5t-14 -58.5q-13 -22 -35 -35q-24 -14 -59 -14t-59 14q-22 13 -35 35q-14 25 -14 59.5z" />
    <glyph glyph-name="question" unicode="?" 
d="M37 580q3 37 22 70q23 40 64 64q51 29 123 29q70 0 120 -29q42 -24 66 -65q27 -46 26 -95q0 -41 -21 -79q-14 -24 -50 -62q-35 -37 -48 -60q-19 -33 -19 -83h-140q0 60 21 97q13 23 48 57q35 36 49 60q21 36 21 70q0 36 -30 53q-18 10 -43 10q-36 0 -56 -20
q-17 -17 -16 -40v-4zM152 89.5q0 31.5 13 54.5q11 20 31 31q22 13 53.5 13t54.5 -13q20 -11 31 -31q13 -22 13 -53.5t-13 -54.5q-11 -20 -31 -31q-23 -13 -54 -13t-54 13q-20 11 -31 31q-13 22 -13 53.5z" />
    <glyph glyph-name="questiondown" unicode="&#xbf;" 
d="M42 -24q0 41 21 79q14 24 50 62q35 37 48 60q19 33 19 83h140q0 -60 -21 -97q-13 -23 -48 -57q-35 -36 -49 -60q-21 -36 -21 -70q0 -36 30 -53q18 -10 43 -10q36 0 56 20q17 17 16 40v4l137 -27q-3 -37 -22 -70q-23 -40 -64 -64q-51 -29 -123 -29q-70 0 -120 29
q-42 24 -66 65q-27 46 -26 95zM152 439.5q0 31.5 13 54.5q11 20 31 31q23 13 54 13t54 -13q20 -11 31 -31q13 -22 13 -53.5t-13 -54.5q-11 -20 -31 -31q-22 -13 -53.5 -13t-54.5 13q-20 11 -31 31q-13 22 -13 53.5z" />
    <glyph glyph-name="exclam" unicode="!" 
d="M152 89.5q0 31.5 13 54.5q11 20 31 31q22 13 53.5 13t54.5 -13q20 -11 31 -31q13 -22 13 -53.5t-13 -54.5q-11 -20 -31 -31q-23 -13 -54 -13t-54 13q-20 11 -31 31q-13 22 -13 53.5zM180 270v465h140v-465h-140z" />
    <glyph glyph-name="exclamdown" unicode="&#xa1;" 
d="M152 439.5q0 31.5 13 54.5q11 20 31 31q23 13 54 13t54 -13q20 -11 31 -31q13 -22 13 -53.5t-13 -54.5q-11 -20 -31 -31q-22 -13 -53.5 -13t-54.5 13q-20 11 -31 31q-13 22 -13 53.5zM180 -205v465h140v-465h-140z" />
    <glyph glyph-name="exclamdbl" unicode="&#x203c;" 
d="M277 89.5q0 31.5 13 54.5q11 20 31 31q22 13 53.5 13t54.5 -13q20 -11 31 -31q13 -22 13 -53.5t-13 -54.5q-11 -20 -31 -31q-23 -13 -54 -13t-54 13q-20 11 -31 31q-13 22 -13 53.5zM305 270v465h140v-465h-140zM27 89.5q0 31.5 13 54.5q11 20 31 31q22 13 53.5 13
t54.5 -13q20 -11 31 -31q13 -22 13 -53.5t-13 -54.5q-11 -20 -31 -31q-23 -13 -54 -13t-54 13q-20 11 -31 31q-13 22 -13 53.5zM55 270v465h140v-465h-140z" />
    <glyph glyph-name="bar" unicode="|" 
d="M180 -181v1025h140v-1025h-140z" />
    <glyph glyph-name="brokenbar" unicode="&#xa6;" 
d="M180 -181v449h140v-449h-140zM180 394v450h140v-450h-140z" />
    <glyph glyph-name="uni01C0" unicode="&#x1c0;" 
d="M180 -181v1025h140v-1025h-140z" />
    <glyph glyph-name="uni01C1" unicode="&#x1c1;" 
d="M267 -181v1025h140v-1025h-140zM92 -181v1025h140v-1025h-140z" />
    <glyph glyph-name="uni01C3" unicode="&#x1c3;" 
d="M152 89.5q0 31.5 13 54.5q11 20 31 31q22 13 53.5 13t54.5 -13q20 -11 31 -31q13 -22 13 -53.5t-13 -54.5q-11 -20 -31 -31q-23 -13 -54 -13t-54 13q-20 11 -31 31q-13 22 -13 53.5zM180 270v465h140v-465h-140z" />
    <glyph glyph-name="uni01C2" unicode="&#x1c2;" 
d="M42 172v106h416v-106h-416zM42 384v106h416v-106h-416zM180 -181v1025h140v-1025h-140z" />
    <glyph glyph-name="ampersand" unicode="&#x26;" 
d="M34 206q0 55 29 105q18 31 59 68q-6 9 -10 17q-49 85 -49 167q0 58 25 101q21 36 56 57q38 22 90.5 22t89.5 -22q35 -20 57 -57q25 -44 25 -99q0 -54 -28 -103q-25 -43 -95 -96q25 -32 58 -69v71h125v-153q0 -37 -8 -69q41 -74 42 -146h-126q0 12 -1 24q-3 -2 -7 -4
q-48 -28 -116 -28t-116 28q-44 26 -70 70q-30 52 -30 116zM159 204q0 -32 15 -57q24 -42 76 -42q25 0 44 11q18 10 29 29q-27 37 -76 88q-30 30 -54 57q-10 -11 -16 -21q-18 -31 -18 -65zM188 563q0 -45 33 -105q30 27 42 48q17 30 18 60q0 35 -18 53q-11 11 -29 11
q-17 0 -27 -11q-18 -18 -19 -56z" />
    <glyph glyph-name="at" unicode="@" 
d="M42 34v595q0 75 30 128q25 44 69 68q46 26 109 26.5t109 -26.5q43 -25 69 -68q30 -53 30 -128v-456q0 -59 -23 -98q-17 -29 -43 -44t-61 -15q-39 0 -68 17t-46 46q-22 38 -22 94v265q0 56 22 94q37 64 115 64h19v33q0 30 -13 52q-11 20 -32 31q-23 13 -56 13.5t-56 -13.5
q-20 -12 -32 -31q-13 -22 -13 -52v-595q0 -30 13 -53q11 -20 32 -31q23 -14 56 -13h145v-126h-145q-63 0 -110 27q-42 24 -68 68q-30 53 -30 128zM302 173q0 -40 15 -54q6 -6 13 -7q5 0 8 4q12 12 13 57v326h-19q-8 0 -15 -7q-15 -15 -15 -54v-265z" />
    <glyph glyph-name="paragraph" unicode="&#xb6;" 
d="M37 527.5q0 70.5 28 120.5q49 85 156 87h105v-735h-105v321q-107 2 -156 87q-28 49 -28 119.5zM141 528q0 -44 17 -73q12 -20 29 -31q15 -9 34 -9v226q-19 -1 -34 -10q-18 -10 -29 -30q-17 -29 -17 -73zM359 0v735h104v-735h-104z" />
    <glyph glyph-name="section" unicode="&#xa7;" 
d="M37 -26l135 34q3 -15 10 -28q10 -17 25.5 -26t37.5 -9q23 0 39 9q15 9 24 25q11 19 11 41q0 24 -13 46q-16 27 -52 48q-16 9 -53 25q-38 16 -57 28q-53 30 -79 75q-23 40 -23 89q0 54 29 103q16 27 37 48q-23 20 -39 48q-27 47 -27 106q0 61 29 111q25 43 68 69
q49 28 117 28t116 -28q43 -25 68 -69q16 -27 23 -58l-135 -34q-3 15 -10 28q-10 17 -25.5 26t-37.5 9q-23 0 -39 -10q-15 -9 -24 -24q-11 -19 -11 -42q0 -24 13 -46q16 -27 52 -48q16 -9 53 -25q38 -16 57 -28q53 -30 79 -75q23 -40 23 -88q0 -54 -29 -104q-16 -27 -37 -48
q23 -20 39 -47q27 -47 27 -107q0 -61 -29 -111q-25 -43 -68 -68q-49 -28 -117 -28t-116 28q-43 25 -68 68q-16 27 -23 59zM182 331q0 -20 11 -39q12 -21 37 -35q9 -6 27 -13q32 14 49 43q12 22 12 45q0 20 -11 39q-12 21 -37 35q-10 6 -27 12q-32 -14 -49 -43
q-12 -22 -12 -44z" />
    <glyph glyph-name="asterisk.ss09" 
d="M29 586l43 120l117 -46l-9 131h140l-9 -131l117 46l43 -120l-128 -33l87 -105l-113 -74l-67 106l-67 -106l-113 74l87 105z" />
    <glyph glyph-name="asterisk.ss10" 
d="M29 336l43 120l117 -46l-9 131h140l-9 -131l117 46l43 -120l-128 -33l87 -105l-113 -74l-67 106l-67 -106l-113 74l87 105z" />
    <glyph glyph-name="asterisk" unicode="*" 
d="M29 586l43 120l117 -46l-9 131h140l-9 -131l117 46l43 -120l-128 -33l87 -105l-113 -74l-67 106l-67 -106l-113 74l87 105z" />
    <glyph glyph-name="numbersign" unicode="#" 
d="M42 97v126h71v216h-71v126h71v182h108v-182h58v182h108v-182h71v-126h-71v-216h71v-126h-71v-182h-108v182h-58v-182h-108v182h-71zM221 223h58v216h-58v-216z" />
    <glyph glyph-name="slash" unicode="/" 
d="M42 -181l270 1025h146l-270 -1025h-146z" />
    <glyph glyph-name="backslash" unicode="\" 
d="M42 844l270 -1025h146l-270 1025h-146z" />
    <glyph glyph-name="fraction" unicode="&#x2044;" 
d="M42 -181l270 1025h146l-270 -1025h-146z" />
    <glyph glyph-name="underscore.ss09" 
d="M42 0v126h416v-126h-416z" />
    <glyph glyph-name="underscore.ss10" 
d="M42 -184v126h416v-126h-416z" />
    <glyph glyph-name="underscore" unicode="_" 
d="M42 0v126h416v-126h-416z" />
    <glyph glyph-name="uni203E" unicode="&#x203e;" 
d="M42 609v126h416v-126h-416z" />
    <glyph glyph-name="hyphen" unicode="-" 
d="M42 268v126h416v-126h-416z" />
    <glyph glyph-name="uni00AD" unicode="&#xad;" 
d="M42 268v126h416v-126h-416z" />
    <glyph glyph-name="uni2010" unicode="&#x2010;" 
d="M42 268v126h416v-126h-416z" />
    <glyph glyph-name="uni2011" unicode="&#x2011;" 
d="M42 268v126h416v-126h-416z" />
    <glyph glyph-name="figuredash" unicode="&#x2012;" 
d="M42 268v126h416v-126h-416z" />
    <glyph glyph-name="endash" unicode="&#x2013;" 
d="M42 268v126h416v-126h-416z" />
    <glyph glyph-name="emdash" unicode="&#x2014;" 
d="M0 268v126h500v-126h-500z" />
    <glyph glyph-name="afii00208" unicode="&#x2015;" 
d="M0 268v126h500v-126h-500z" />
    <glyph glyph-name="periodcentered" unicode="&#xb7;" 
d="M142 331.5q0 34.5 14 58.5q13 22 35 35q25 14 59.5 14t58.5 -14q22 -13 35 -35q14 -25 14 -59.5t-14 -58.5q-13 -22 -35 -35q-24 -14 -59 -14t-59 14q-22 13 -35 35q-14 25 -14 59.5z" />
    <glyph glyph-name="bullet" unicode="&#x2022;" 
d="M142 331.5q0 34.5 14 58.5q13 22 35 35q25 14 59.5 14t58.5 -14q22 -13 35 -35q14 -25 14 -59.5t-14 -58.5q-13 -22 -35 -35q-24 -14 -59 -14t-59 14q-22 13 -35 35q-14 25 -14 59.5z" />
    <glyph glyph-name="uni2027" unicode="&#x2027;" 
d="M142 331.5q0 34.5 14 58.5q13 22 35 35q25 14 59.5 14t58.5 -14q22 -13 35 -35q14 -25 14 -59.5t-14 -58.5q-13 -22 -35 -35q-24 -14 -59 -14t-59 14q-22 13 -35 35q-14 25 -14 59.5z" />
    <glyph glyph-name="anoteleia" unicode="&#x387;" 
d="M142 331.5q0 34.5 14 58.5q13 22 35 35q25 14 59.5 14t58.5 -14q22 -13 35 -35q14 -25 14 -59.5t-14 -58.5q-13 -22 -35 -35q-24 -14 -59 -14t-59 14q-22 13 -35 35q-14 25 -14 59.5z" />
    <glyph glyph-name="quotesingle" unicode="'" 
d="M173 772h154q-1 -162 -11 -322h-132q-10 160 -11 322z" />
    <glyph glyph-name="quotedbl" unicode="&#x22;" 
d="M273 772h154q-1 -162 -11 -322h-132q-10 160 -11 322zM73 772h154q-1 -162 -11 -322h-132q-10 160 -11 322z" />
    <glyph glyph-name="glyph730" 
d="M156 -115q34 37 55 74q11 18 18 36q-17 3 -29 10q-18 11 -28 29q-12 21 -12 49.5t12 49.5q10 18 28 29q21 12 50 12q30 0 50 -12q18 -11 28 -29q12 -20 12 -49v-1q0 -81 -47 -162q-27 -46 -68 -92z" />
    <glyph glyph-name="glyph731" 
d="M160 535q0 81 47 163q27 46 68 92l69 -56q-34 -37 -55 -74q-11 -18 -18 -36q17 -3 29 -10q18 -11 28 -29q12 -21 12 -50t-12 -49q-10 -18 -28 -29q-21 -12 -50 -12q-30 0 -50 12q-18 11 -28 29q-12 20 -12 49z" />
    <glyph glyph-name="glyph732" 
d="M156 488q34 37 55 74q11 18 18 36q-17 3 -29 10q-18 11 -28 29q-12 21 -12 49.5t12 49.5q10 18 28 29q21 12 50 12q30 0 50 -12q18 -11 28 -29q12 -20 12 -49v-1q0 -81 -47 -162q-27 -46 -68 -92z" />
    <glyph glyph-name="glyph733" 
d="M160 687q0 29 12 49q10 18 28 29q21 12 50 12q30 0 50 -12q18 -11 28 -29q12 -21 12 -49.5t-12 -49.5q-10 -18 -28 -28q-12 -8 -29 -11q7 -18 18 -36q21 -37 55 -74l-69 -56q-42 46 -68 92q-47 81 -47 163z" />
    </font>
</defs>
</svg>
