<?xml version="1.0" standalone="no"?>
<!DOCTYPE svg PUBLIC "-//W3C//DTD SVG 1.1//EN" "http://www.w3.org/Graphics/SVG/1.1/DTD/svg11.dtd" >
<svg>
<metadata>
Created by FontForge 20120731 at Fri Sep 23 13:09:25 2016
 By ,,,
Copyright (c) 2015-2016 Belleve Invis.
</metadata>
<defs>
<font id="Iosevka-Light" horiz-adv-x="500" >
  <font-face 
    font-family="Iosevka Light"
    font-weight="300"
    font-stretch="normal"
    units-per-em="1000"
    panose-1="2 0 4 9 0 0 0 0 0 0"
    ascent="800"
    descent="-200"
    x-height="530"
    cap-height="735"
    bbox="-468 -419 580 1182"
    underline-thickness="0"
    underline-position="50"
    unicode-range="U+0020-FB02"
  />
<missing-glyph 
d="M64 0v735h372v-735h-372zM120 56h260v623h-260v-623z" />
    <glyph glyph-name=".notdef" 
d="M64 0v735h372v-735h-372zM120 56h260v623h-260v-623z" />
    <glyph glyph-name=".notdef" 
d="M64 0v735h372v-735h-372zM120 56h260v623h-260v-623z" />
    <glyph glyph-name="glyph1" horiz-adv-x="0" 
 />
    <glyph glyph-name="glyph2" horiz-adv-x="333" 
 />
    <glyph glyph-name="space" unicode=" " 
 />
    <glyph glyph-name="uni0307" unicode="&#x307;" horiz-adv-x="0" 
d="M-300 685q0 23 13.5 36.5t36.5 13.5t36.5 -13.5t13.5 -36.5t-13.5 -36.5t-36.5 -13.5t-36.5 13.5t-13.5 36.5z" />
    <glyph glyph-name="uni0308" unicode="&#x308;" horiz-adv-x="0" 
d="M-200 685q0 23 13.5 36.5t36.5 13.5t36.5 -13.5t13.5 -36.5t-13.5 -36.5t-36.5 -13.5t-36.5 13.5t-13.5 36.5zM-400 685q0 23 13.5 36.5t36.5 13.5t36.5 -13.5t13.5 -36.5t-13.5 -36.5t-36.5 -13.5t-36.5 13.5t-13.5 36.5z" />
    <glyph glyph-name="uni030A" unicode="&#x30a;" horiz-adv-x="0" 
d="M-334 666q0 27 11 46q10 17 27 27q19 11 46 11t46 -11q17 -10 27 -27q11 -19 11 -46t-11 -46q-10 -17 -27 -27q-19 -11 -46 -11t-46 11q-17 10 -27 27q-11 19 -11 46zM-287 666q0 -17 10 -27t27 -10t27 10t10 27t-10 27t-27 10t-27 -10t-10 -27z" />
    <glyph glyph-name="uni1AB2" unicode="&#x1ab2;" horiz-adv-x="0" 
d="M-406 666q0 27 11 46q10 17 27 27q19 11 46 11t46 -11q17 -10 27 -27q11 -19 11 -46t-11 -46q-10 -17 -27 -27q-19 -11 -46 -11t-46 11q-17 10 -27 27q-11 19 -11 46zM-359 666q0 -17 10 -27t27 -10t27 10t10 27t-10 27t-27 10t-27 -10t-10 -27zM-262 666q0 27 11 46
q10 17 27 27q19 11 46 11t46 -11q17 -10 27 -27q11 -19 11 -46t-11 -46q-10 -17 -27 -27q-19 -11 -46 -11t-46 11q-17 10 -27 27q-11 19 -11 46zM-215 666q0 -17 10 -27t27 -10t27 10t10 27t-10 27t-27 10t-27 -10t-10 -27z" />
    <glyph glyph-name="gravecomb" unicode="&#x300;" horiz-adv-x="0" 
d="M-376 724l52 39l126 -163l-43 -32z" />
    <glyph glyph-name="grave" unicode="`" 
d="M100 739l52 39l158 -202l-43 -32z" />
    <glyph glyph-name="acutecomb" unicode="&#x301;" horiz-adv-x="0" 
d="M-302 600l126 163l52 -39l-135 -156z" />
    <glyph glyph-name="acute" unicode="&#xb4;" 
d="M190 576l158 202l52 -39l-167 -195z" />
    <glyph glyph-name="uni0302" unicode="&#x302;" horiz-adv-x="0" 
d="M-408 609l124 153h68l124 -153l-54 -38l-104 143l-104 -143z" />
    <glyph glyph-name="asciicircum" unicode="^" 
d="M72 580l145 192h66l145 -192l-52 -34l-126 179l-126 -179z" />
    <glyph glyph-name="uni030C" unicode="&#x30c;" horiz-adv-x="0" 
d="M-408 725l54 38l104 -144l104 144l54 -38l-124 -153h-68z" />
    <glyph glyph-name="tildecomb" unicode="&#x303;" horiz-adv-x="0" 
d="M-426 606q21 55 40 88q23 40 47 54q15 8 30 8t30 -8q22 -13 54 -66q20 -33 29 -43q2 -2 5 -4q12 7 27 35q18 31 38 83l52 -18q-21 -55 -40 -88q-23 -40 -47 -54q-15 -8 -30 -9q-15 0 -30 9q-22 13 -54 66q-20 33 -29 42q-2 2 -5 4q-12 -7 -27 -34q-18 -31 -38 -83z" />
    <glyph glyph-name="asciitilde.ss09" 
d="M38 585q27 72 52 114q27 46 54 62q16 9 33 10q17 0 32 -9q27 -15 66 -84q26 -45 38 -58q7 -7 10 -7q1 0 3 2q15 8 35 43q23 39 49 109l52 -18q-27 -72 -52 -114q-27 -46 -54 -63q-16 -9 -33 -9t-32 9q-27 15 -66 83q-26 45 -38 58q-7 7 -10 7q-1 0 -3 -1q-15 -8 -35 -43
q-23 -39 -49 -109z" />
    <glyph glyph-name="uni034A" unicode="&#x34a;" horiz-adv-x="0" 
d="M-424 625q41 70 78 91q19 11 38 11q18 0 37 -10l10 55l62 -11l-19 -93q18 -18 26 -17q3 0 8 3q25 14 60 74l48 -26q-41 -70 -78 -91q-19 -11 -38 -11q-18 0 -37 10l-10 -55l-62 11l19 93q-18 18 -26 18q-3 0 -8 -3q-25 -14 -60 -74z" />
    <glyph glyph-name="uni034B" unicode="&#x34b;" horiz-adv-x="0" 
d="M-424 625q41 70 78 91q19 11 38 11q32 0 66 -33q5 -5 13 -14q27 -29 37 -29q3 0 8 3q25 14 60 74l48 -26q-41 -70 -78 -91q-19 -11 -38 -11q-32 0 -66 33q-5 5 -13 15q-27 29 -37 29q-3 0 -8 -3q-25 -14 -60 -74zM-288 561q0 17 10.5 27t27.5 10t27.5 -10t10.5 -27
t-10.5 -27.5t-27.5 -10.5t-27.5 10.5t-10.5 27.5zM-288 766.5q0 17.5 10.5 27.5t27.5 10t27.5 -10t10.5 -27.5t-10.5 -27.5t-27.5 -10t-27.5 10t-10.5 27.5z" />
    <glyph glyph-name="uni034C" unicode="&#x34c;" horiz-adv-x="0" 
d="M-424 544q41 70 78 91q19 11 38 11q32 0 66 -33q5 -5 13 -14q27 -29 37 -29q3 0 8 3q25 14 60 74l48 -25q-41 -70 -78 -92q-19 -11 -38 -11q-32 0 -66 33q-5 5 -14 15q-27 29 -36 29q-3 0 -8 -3q-25 -14 -60 -74zM-424 668q41 70 78 91q19 11 38 11q32 0 66 -33
q5 -5 13 -15q27 -29 37 -29q3 0 8 3q25 14 60 74l48 -25q-41 -70 -78 -91q-19 -11 -38 -11q-32 0 -66 33l-14 14q-27 29 -36 29q-3 0 -8 -3q-25 -14 -60 -74z" />
    <glyph glyph-name="uni0304" unicode="&#x304;" horiz-adv-x="0" 
d="M-400 657v56h300v-56h-300z" />
    <glyph glyph-name="uni0305" unicode="&#x305;" horiz-adv-x="0" 
d="M-436 657v56h372v-56h-372z" />
    <glyph glyph-name="uni033F" unicode="&#x33f;" horiz-adv-x="0" 
d="M-436 584v51h372v-51h-372zM-436 694v50h372v-50h-372z" />
    <glyph glyph-name="uni0306" unicode="&#x306;" horiz-adv-x="0" 
d="M-401 744h62q0 -37 15 -62q11 -20 29.5 -31t44.5 -11t44.5 11t29.5 31q15 25 15 62h62q0 -53 -21 -91q-18 -32 -50 -49q-34 -19 -80.5 -19.5t-79.5 19.5q-31 18 -50 49q-22 37 -21 91z" />
    <glyph glyph-name="uni0311" unicode="&#x311;" horiz-adv-x="0" 
d="M-401 584q0 53 21 91q18 32 50 50q34 19 80.5 19t79.5 -19q31 -18 50 -50q22 -37 21 -91h-62q0 37 -15 63q-11 20 -29.5 30.5t-44.5 10.5t-44.5 -11t-29.5 -30q-15 -25 -15 -63h-62z" />
    <glyph glyph-name="hookabovecomb" unicode="&#x309;" horiz-adv-x="0" 
d="M-325 690v51h85q35 0 59 -14q19 -11 29 -29t10 -42t-10.5 -42t-28.5 -29q-24 -14 -59 -13h-38v50h38q22 0 33 11q9 9 9 23t-9 23q-11 11 -33 11h-85z" />
    <glyph glyph-name="uni030F" unicode="&#x30f;" horiz-adv-x="0" 
d="M-291 724l52 39l126 -163l-43 -32zM-461 724l52 39l126 -163l-43 -32z" />
    <glyph glyph-name="uni030B" unicode="&#x30b;" horiz-adv-x="0" 
d="M-217 600l126 163l52 -39l-135 -156zM-387 600l126 163l52 -39l-135 -156z" />
    <glyph glyph-name="uni0313" unicode="&#x313;" horiz-adv-x="0" 
d="M-296 582q30 41 38 97q-14 2 -23 11q-11 11 -11 30.5t11 31t31 11.5t31 -11t11 -31q0 -99 -50 -165z" />
    <glyph glyph-name="uni0312" unicode="&#x312;" horiz-adv-x="0" 
d="M-292 599q0 99 50 165l38 -26q-30 -41 -38 -97q14 -2 23 -11q11 -11 11 -30.5t-11 -31t-31 -11.5t-31 11t-11 31z" />
    <glyph glyph-name="uni0314" unicode="&#x314;" horiz-adv-x="0" 
d="M-292 721q0 20 11 31t31 11t31 -11.5t11 -31t-11 -30.5q-9 -9 -23 -11q8 -56 38 -97l-38 -26q-50 66 -50 165z" />
    <glyph glyph-name="uni030D" unicode="&#x30d;" horiz-adv-x="0" 
d="M-281 584v160h62v-160h-62z" />
    <glyph glyph-name="uni030E" unicode="&#x30e;" horiz-adv-x="0" 
d="M-206 584v160h62v-160h-62zM-356 584v160h62v-160h-62z" />
    <glyph glyph-name="uni0346" unicode="&#x346;" horiz-adv-x="0" 
d="M-378 584v160h256v-160h-56v110h-144v-110h-56z" />
    <glyph glyph-name="uni033E" unicode="&#x33e;" horiz-adv-x="0" 
d="M-291 584q5 3 10 8q15 15 15 36q0 14 -12 36t-12 36q0 21 15 37q4 4 10 7h56q-5 -3 -10 -7q-15 -15 -15 -37q0 -14 12 -35.5t12 -36.5q0 -21 -15 -36q-4 -4 -10 -8h-56z" />
    <glyph glyph-name="uni0310" unicode="&#x310;" horiz-adv-x="0" 
d="M-359 705h55q0 -25 14.5 -39.5t39.5 -14.5t39.5 14.5t14.5 39.5h55q0 -32 -13 -55q-12 -21 -34 -34q-25 -15 -61.5 -15t-62.5 15q-22 13 -34 34q-13 23 -13 55zM-290 705q0 18 11 29t29 11t29 -11t11 -29t-11 -29t-29 -11t-29 11t-11 29z" />
    <glyph glyph-name="uni0340" unicode="&#x340;" horiz-adv-x="0" 
d="M-331 739l62 25l75 -182l-51 -21z" />
    <glyph glyph-name="uni0341" unicode="&#x341;" horiz-adv-x="0" 
d="M-306 582l75 182l62 -25l-86 -178z" />
    <glyph glyph-name="uni0342" unicode="&#x342;" horiz-adv-x="0" 
d="M-401 584q0 53 21 91q18 32 50 50q34 19 80.5 19t79.5 -19q31 -18 50 -50q22 -37 21 -91h-62q0 37 -15 63q-11 20 -29.5 30.5t-44.5 10.5t-44.5 -11t-29.5 -30q-15 -25 -15 -63h-62z" />
    <glyph glyph-name="uni0343" unicode="&#x343;" horiz-adv-x="0" 
d="M-296 582q30 41 38 97q-14 2 -23 11q-11 11 -11 30.5t11 31t31 11.5t31 -11t11 -31q0 -99 -50 -165z" />
    <glyph glyph-name="uni033D" unicode="&#x33d;" horiz-adv-x="0" 
d="M-367 604l75 60l-75 60l34 40l83 -66l83 66l34 -40l-75 -60l75 -60l-34 -39l-83 65l-83 -65z" />
    <glyph glyph-name="uni1DFE" unicode="&#x1dfe;" horiz-adv-x="0" 
d="M-350 640v48l190 79l20 -47l-148 -56l148 -56l-20 -47z" />
    <glyph glyph-name="uni0350" unicode="&#x350;" horiz-adv-x="0" 
d="M-360 608l148 56l-148 56l20 47l190 -79v-48l-190 -79z" />
    <glyph glyph-name="uni0327" unicode="&#x327;" horiz-adv-x="0" 
d="M-350 -158h100q24 0 37 13q9 9 9 23t-9 23q-12 12 -37 13h-31v86h62v-33q46 -9 66 -44q11 -19 11 -45t-11 -45.5t-32 -31.5q-26 -15 -65 -15h-100v56z" />
    <glyph glyph-name="uni0328" unicode="&#x328;" horiz-adv-x="0" 
d="M-368 -76.5q0 24.5 12 45.5q14 24 40 39q30 17 66 17v-33q-25 0 -41 -17q-15 -15 -15 -34q0 -20 14 -34q19 -19 67 -19h60v-62h-60q-64 0 -96 18q-23 13 -35 35q-12 20 -12 44.5z" />
    <glyph glyph-name="glyph45" horiz-adv-x="0" 
d="M-368 -76.5q0 24.5 12 45.5q14 24 40 39q30 17 66 17v-33q-25 0 -41 -17q-15 -15 -15 -34q0 -20 14 -34q19 -19 67 -19h60v-62h-60q-64 0 -96 18q-23 13 -35 35q-12 20 -12 44.5z" />
    <glyph glyph-name="uni0345" unicode="&#x345;" horiz-adv-x="0" 
d="M-281 -214v160h62v-160h-62z" />
    <glyph glyph-name="glyph47" horiz-adv-x="0" 
d="M-281 -214v160h62v-160h-62z" />
    <glyph glyph-name="uni031D" unicode="&#x31d;" horiz-adv-x="0" 
d="M-350 -164h72v110h56v-110h72v-50h-200v50z" />
    <glyph glyph-name="uni031E" unicode="&#x31e;" horiz-adv-x="0" 
d="M-350 -54h200v-51h-72v-109h-56v109h-72v51z" />
    <glyph glyph-name="uni0318" unicode="&#x318;" horiz-adv-x="0" 
d="M-350 -109h172v55h56v-160h-56v55h-172v50z" />
    <glyph glyph-name="uni0319" unicode="&#x319;" horiz-adv-x="0" 
d="M-378 -54h56v-55h172v-50h-172v-55h-56v160z" />
    <glyph glyph-name="uni0349" unicode="&#x349;" horiz-adv-x="0" 
d="M-350 -54h228v-160h-56v109h-172v51z" />
    <glyph glyph-name="uni031F" unicode="&#x31f;" horiz-adv-x="0" 
d="M-350 -109h72v55h56v-55h72v-50h-72v-55h-56v55h-72v50z" />
    <glyph glyph-name="uni0320" unicode="&#x320;" horiz-adv-x="0" 
d="M-378 -54h56v-55h144v55h56v-160h-56v55h-144v-55h-56v160z" />
    <glyph glyph-name="uni032A" unicode="&#x32a;" horiz-adv-x="0" 
d="M-378 -214v160h256v-160h-56v110h-144v-110h-56z" />
    <glyph glyph-name="uni033B" unicode="&#x33b;" horiz-adv-x="0" 
d="M-378 -54h256v-160h-256v160zM-322 -105v-59h144v59h-144z" />
    <glyph glyph-name="uni0347" unicode="&#x347;" horiz-adv-x="0" 
d="M-350 -54h200v-51h-200v51zM-350 -164h200v-50h-200v50z" />
    <glyph glyph-name="uni032B" unicode="&#x32b;" horiz-adv-x="0" 
d="M-446 -54h63q0 -67 25 -93q11 -11 25.5 -11t25.5 11q26 26 26 93h62q0 -67 26 -93q11 -11 25.5 -11t25.5 11q26 26 25 93h63q0 -65 -24 -106q-16 -27 -40 -42q-21 -12 -49.5 -12t-49.5 12q-19 11 -33 31q-14 -19 -33 -31q-21 -12 -49.5 -12t-49.5 12q-24 14 -40 42
q-24 41 -24 106z" />
    <glyph glyph-name="uni033C" unicode="&#x33c;" horiz-adv-x="0" 
d="M-446 -214q0 65 24 106q16 27 40 41q21 12 49.5 12.5t49.5 -12.5q19 -11 33 -30q14 19 33 30q21 12 49.5 12.5t49.5 -12.5q24 -14 40 -41q24 -41 24 -106h-63q0 67 -25 93q-11 11 -25.5 11t-25.5 -11q-26 -26 -26 -93h-62q0 67 -26 93q-11 11 -25.5 11t-25.5 -11
q-26 -26 -25 -93h-63z" />
    <glyph glyph-name="uni031C" unicode="&#x31c;" horiz-adv-x="0" 
d="M-318 -134q0 33 14 57q12 21 34 34q25 14 60 14v-50q-23 0 -37 -14q-15 -15 -15 -41t15 -41q14 -14 37 -14v-50q-35 0 -60 14q-22 13 -34 34q-14 24 -14 57z" />
    <glyph glyph-name="uni0339" unicode="&#x339;" horiz-adv-x="0" 
d="M-290 -29q35 0 60 -14q22 -13 34 -34q14 -24 14 -57t-14 -57q-12 -21 -34 -34q-25 -14 -60 -14v50q23 0 37 14q15 15 15 41t-15 41q-14 14 -37 14v50z" />
    <glyph glyph-name="uni0351" unicode="&#x351;" horiz-adv-x="0" 
d="M-318 664q0 33 14 57q12 21 34 34q25 14 60 14v-50q-23 0 -37 -14q-15 -15 -15 -41t15 -41q14 -14 37 -14v-50q-35 0 -60 14q-22 13 -34 34q-14 24 -14 57z" />
    <glyph glyph-name="uni0357" unicode="&#x357;" horiz-adv-x="0" 
d="M-290 769q35 0 60 -14q22 -13 34 -34q14 -24 14 -57t-14 -57q-12 -21 -34 -34q-25 -14 -60 -14v50q23 0 37 14q15 15 15 41t-15 41q-14 14 -37 14v50z" />
    <glyph glyph-name="uni0316" unicode="&#x316;" horiz-adv-x="0" 
d="M-302 -70l43 32l135 -156l-52 -39z" />
    <glyph glyph-name="uni0317" unicode="&#x317;" horiz-adv-x="0" 
d="M-376 -194l135 156l43 -32l-126 -163z" />
    <glyph glyph-name="dotbelowcomb" unicode="&#x323;" horiz-adv-x="0" 
d="M-300 -155q0 23 13.5 36.5t36.5 13.5t36.5 -13.5t13.5 -36.5t-13.5 -36.5t-36.5 -13.5t-36.5 13.5t-13.5 36.5z" />
    <glyph glyph-name="uni0324" unicode="&#x324;" horiz-adv-x="0" 
d="M-400 -155q0 23 13.5 36.5t36.5 13.5t36.5 -13.5t13.5 -36.5t-13.5 -36.5t-36.5 -13.5t-36.5 13.5t-13.5 36.5zM-200 -155q0 23 13.5 36.5t36.5 13.5t36.5 -13.5t13.5 -36.5t-13.5 -36.5t-36.5 -13.5t-36.5 13.5t-13.5 36.5z" />
    <glyph glyph-name="uni0330" unicode="&#x330;" horiz-adv-x="0" 
d="M-426 -205q21 55 40 88q23 40 47 54q15 8 30 9q15 0 30 -9q22 -13 54 -66q20 -33 29 -42q2 -2 5 -4q12 7 27 34q18 31 38 83l52 -18q-21 -55 -40 -88q-23 -40 -47 -54q-15 -8 -30 -8t-30 8q-22 13 -54 66q-20 33 -29 43q-2 2 -5 4q-12 -7 -27 -35q-18 -31 -38 -83z" />
    <glyph glyph-name="uni0325" unicode="&#x325;" horiz-adv-x="0" 
d="M-334 -136q0 27 11 46q10 17 27 27q19 11 46 11t46 -11q17 -10 27 -27q11 -19 11 -46t-11 -46q-10 -17 -27 -27q-19 -11 -46 -11t-46 11q-17 10 -27 27q-11 19 -11 46zM-287 -136q0 -17 10 -27t27 -10t27 10t10 27t-10 27t-27 10t-27 -10t-10 -27z" />
    <glyph glyph-name="uni0331" unicode="&#x331;" horiz-adv-x="0" 
d="M-400 -183v56h300v-56h-300z" />
    <glyph glyph-name="uni033A" unicode="&#x33a;" horiz-adv-x="0" 
d="M-378 -54h56v-110h144v110h56v-160h-256v160z" />
    <glyph glyph-name="uni0332" unicode="&#x332;" horiz-adv-x="0" 
d="M-436 -183v56h372v-56h-372z" />
    <glyph glyph-name="uni0333" unicode="&#x333;" horiz-adv-x="0" 
d="M-436 -214v51h372v-51h-372zM-436 -104v50h372v-50h-372z" />
    <glyph glyph-name="uni032D" unicode="&#x32d;" horiz-adv-x="0" 
d="M-408 -195l124 153h68l124 -153l-54 -38l-104 143l-104 -143z" />
    <glyph glyph-name="uni032C" unicode="&#x32c;" horiz-adv-x="0" 
d="M-408 -79l54 38l104 -144l104 144l54 -38l-124 -153h-68z" />
    <glyph glyph-name="uni032E" unicode="&#x32e;" horiz-adv-x="0" 
d="M-401 -54h62q0 -37 15 -62q11 -20 29.5 -31t44.5 -11t44.5 11t29.5 31q15 25 15 62h62q0 -53 -21 -91q-18 -32 -50 -49q-34 -19 -80.5 -19.5t-79.5 19.5q-31 18 -50 49q-22 37 -21 91z" />
    <glyph glyph-name="uni032F" unicode="&#x32f;" horiz-adv-x="0" 
d="M-401 -214q0 53 21 91q18 32 50 50q34 19 80.5 19t79.5 -19q31 -18 50 -50q22 -37 21 -91h-62q0 37 -15 63q-11 20 -29.5 30.5t-44.5 10.5t-44.5 -11t-29.5 -30q-15 -25 -15 -63h-62z" />
    <glyph glyph-name="uni0326" unicode="&#x326;" horiz-adv-x="0" 
d="M-296 -208q30 41 38 97q-14 2 -23 11q-11 11 -11 30.5t11 31t31 11.5t31 -11t11 -31q0 -99 -50 -165z" />
    <glyph glyph-name="uni0329" unicode="&#x329;" horiz-adv-x="0" 
d="M-281 -214v160h62v-160h-62z" />
    <glyph glyph-name="uni0348" unicode="&#x348;" horiz-adv-x="0" 
d="M-356 -214v160h62v-160h-62zM-206 -214v160h62v-160h-62z" />
    <glyph glyph-name="uni0353" unicode="&#x353;" horiz-adv-x="0" 
d="M-367 -194l75 60l-75 60l34 40l83 -66l83 66l34 -40l-75 -60l75 -60l-34 -39l-83 65l-83 -65z" />
    <glyph glyph-name="uni0354" unicode="&#x354;" horiz-adv-x="0" 
d="M-350 -158v48l190 79l20 -47l-148 -56l148 -56l-20 -47z" />
    <glyph glyph-name="uni0355" unicode="&#x355;" horiz-adv-x="0" 
d="M-360 -190l148 56l-148 56l20 47l190 -79v-48l-190 -79z" />
    <glyph glyph-name="uni035A" unicode="&#x35a;" horiz-adv-x="0" 
d="M-262 -136q0 27 11 46q10 17 27 27q19 11 46 11t46 -11q17 -10 27 -27q11 -19 11 -46t-11 -46q-10 -17 -27 -27q-19 -11 -46 -11t-46 11q-17 10 -27 27q-11 19 -11 46zM-215 -136q0 -17 10 -27t27 -10t27 10t10 27t-10 27t-27 10t-27 -10t-10 -27zM-406 -136q0 27 11 46
q10 17 27 27q19 11 46 11t46 -11q17 -10 27 -27q11 -19 11 -46t-11 -46q-10 -17 -27 -27q-19 -11 -46 -11t-46 11q-17 10 -27 27q-11 19 -11 46zM-359 -136q0 -17 10 -27t27 -10t27 10t10 27t-10 27t-27 10t-27 -10t-10 -27z" />
    <glyph glyph-name="uni034D" unicode="&#x34d;" horiz-adv-x="0" 
d="M-432 -134l116 97l32 -35l-54 -40h176l-54 40l32 35l116 -97l-116 -97l-32 35l54 39h-176l54 -39l-32 -35z" />
    <glyph glyph-name="uni034E" unicode="&#x34e;" horiz-adv-x="0" 
d="M-342 -119l92 96l92 -96l-34 -30l-34 37v-102h-48v102l-34 -37z" />
    <glyph glyph-name="uni031B" unicode="&#x31b;" horiz-adv-x="0" 
d="M-69 585q16 5 29 12q23 14 35 33q4 7 7 15q-10 3 -18 9q-11 11 -11 30.5t11 31t30.5 11.5t31 -11.5t11.5 -30.5v-3q0 -40 -19 -72q-17 -30 -51 -50q-20 -11 -42 -18z" />
    <glyph glyph-name="uni031A" unicode="&#x31a;" horiz-adv-x="0" 
d="M-150 694v50h206v-160h-56v110h-150z" />
    <glyph glyph-name="uni0358" unicode="&#x358;" horiz-adv-x="0" 
d="M-50 685q0 23 13.5 36.5t36.5 13.5t36.5 -13.5t13.5 -36.5t-13.5 -36.5t-36.5 -13.5t-36.5 13.5t-13.5 36.5z" />
    <glyph glyph-name="uni0315" unicode="&#x315;" horiz-adv-x="0" 
d="M-102 364q30 41 38 97q-14 2 -23 11q-11 11 -11 30.5t11 31t31 11.5t31 -11t11 -31q0 -99 -50 -165z" />
    <glyph glyph-name="uni0322" unicode="&#x322;" horiz-adv-x="0" 
d="M-62 0v8h62v-8q0 -50 15 -76q13 -22 34 -34q29 -17 90 -17v-56q-88 0 -130 24q-31 18 -50 50q-21 37 -21 109z" />
    <glyph glyph-name="uni0321" unicode="&#x321;" horiz-adv-x="0" 
d="M-201 -127q61 0 90 17q22 13 34 34q15 26 15 76v8h62v-8q0 -72 -21 -109q-18 -31 -50 -50q-42 -24 -130 -24v56z" />
    <glyph glyph-name="uni0334" unicode="&#x334;" horiz-adv-x="0" 
d="M-426 207q21 55 40 88q23 40 47 54q15 8 30 8t30 -8q22 -13 54 -66q20 -33 29 -43q2 -2 5 -4q12 7 27 35q18 31 38 83l52 -18q-21 -55 -40 -88q-23 -40 -47 -54q-15 -8 -30 -9q-15 0 -30 9q-22 13 -54 66q-20 33 -29 42q-2 2 -5 4q-12 -7 -27 -34q-18 -31 -38 -83z" />
    <glyph glyph-name="uni0335" unicode="&#x335;" horiz-adv-x="0" 
d="M-381 237v56h262v-56h-262z" />
    <glyph glyph-name="uni0336" unicode="&#x336;" horiz-adv-x="0" 
d="M-468 237v56h436v-56h-436z" />
    <glyph glyph-name="uniE090" unicode="&#xe090;" horiz-adv-x="0" 
d="M-404 220l280 140l28 -50l-280 -140z" />
    <glyph glyph-name="uni0337" unicode="&#x337;" horiz-adv-x="0" 
d="M-412 -44l282 636l42 -18l-282 -636z" />
    <glyph glyph-name="uni0338" unicode="&#x338;" horiz-adv-x="0" 
d="M-413 -170l282 882l44 -12l-282 -882z" />
    <glyph glyph-name="uni0361" unicode="&#x361;" horiz-adv-x="0" 
d="M-312 789q61 65 135 109q89 51 177 51t177 -51q75 -43 135 -109l-45 -38q-55 61 -122 100q-73 42 -145 42t-145 -42q-67 -39 -122 -100z" />
    <glyph glyph-name="uni035D" unicode="&#x35d;" horiz-adv-x="0" 
d="M-312 949l45 38q55 -61 122 -100q73 -42 145 -42t145 42q67 39 122 100l45 -38q-61 -65 -135 -109q-89 -51 -177 -51t-177 51q-75 43 -135 109z" />
    <glyph glyph-name="uni035C" unicode="&#x35c;" 
d="M-312 -259l45 38q55 -61 122 -100q73 -42 145 -42t145 42q67 39 122 100l45 -38q-61 -65 -135 -109q-89 -51 -177 -51t-177 51q-75 43 -135 109z" />
    <glyph glyph-name="uni035E" unicode="&#x35e;" horiz-adv-x="0" 
d="M-312 862v56h624v-56h-624z" />
    <glyph glyph-name="uni035F" unicode="&#x35f;" 
d="M-312 -388v56h624v-56h-624z" />
    <glyph glyph-name="uni0313_gravecomb.ccmp" horiz-adv-x="0" 
d="M-256 739l62 25l75 -182l-51 -21zM-371 582q30 41 38 97q-14 2 -23 11q-11 11 -11 30.5t11 31t31 11.5t31 -11t11 -31q0 -99 -50 -165z" />
    <glyph glyph-name="uni1FCD" unicode="&#x1fcd;" 
d="M244 739l62 25l75 -182l-51 -21zM129 582q30 41 38 97q-14 2 -23 11q-11 11 -11 30.5t11 31t31 11.5t31 -11t11 -31q0 -99 -50 -165z" />
    <glyph glyph-name="uni0313_acutecomb.ccmp" horiz-adv-x="0" 
d="M-231 582l75 182l62 -25l-86 -178zM-371 582q30 41 38 97q-14 2 -23 11q-11 11 -11 30.5t11 31t31 11.5t31 -11t11 -31q0 -99 -50 -165z" />
    <glyph glyph-name="uni1FCE" unicode="&#x1fce;" 
d="M269 582l75 182l62 -25l-86 -178zM129 582q30 41 38 97q-14 2 -23 11q-11 11 -11 30.5t11 31t31 11.5t31 -11t11 -31q0 -99 -50 -165z" />
    <glyph glyph-name="uni0314_gravecomb.ccmp" horiz-adv-x="0" 
d="M-256 739l62 25l75 -182l-51 -21zM-367 721q0 20 11 31t31 11t31 -11.5t11 -31t-11 -30.5q-9 -9 -23 -11q8 -56 38 -97l-38 -26q-50 66 -50 165z" />
    <glyph glyph-name="uni1FDD" unicode="&#x1fdd;" 
d="M244 739l62 25l75 -182l-51 -21zM133 721q0 20 11 31t31 11t31 -11.5t11 -31t-11 -30.5q-9 -9 -23 -11q8 -56 38 -97l-38 -26q-50 66 -50 165z" />
    <glyph glyph-name="uni0314_acutecomb.ccmp" horiz-adv-x="0" 
d="M-231 582l75 182l62 -25l-86 -178zM-367 721q0 20 11 31t31 11t31 -11.5t11 -31t-11 -30.5q-9 -9 -23 -11q8 -56 38 -97l-38 -26q-50 66 -50 165z" />
    <glyph glyph-name="uni1FDE" unicode="&#x1fde;" 
d="M269 582l75 182l62 -25l-86 -178zM133 721q0 20 11 31t31 11t31 -11.5t11 -31t-11 -30.5q-9 -9 -23 -11q8 -56 38 -97l-38 -26q-50 66 -50 165z" />
    <glyph glyph-name="uni0313_uni0342.ccmp" horiz-adv-x="0" 
d="M-363 721q0 33 14 57q13 22 35 35q26 15 63.5 15t64.5 -15q22 -13 35 -35q14 -24 14 -57h-55q0 26 -16 41.5t-42 15.5t-42 -16q-16 -15 -16 -41h-55zM-296 582q30 41 38 97q-14 2 -23 11q-11 11 -11 30.5t11 31t31 11.5t31 -11t11 -31q0 -99 -50 -165z" />
    <glyph glyph-name="uni1FCF" unicode="&#x1fcf;" 
d="M137 721q0 33 14 57q13 22 35 35q26 15 63.5 15t64.5 -15q22 -13 35 -35q14 -24 14 -57h-55q0 26 -16 41.5t-42 15.5t-42 -16q-16 -15 -16 -41h-55zM204 582q30 41 38 97q-14 2 -23 11q-11 11 -11 30.5t11 31t31 11.5t31 -11t11 -31q0 -99 -50 -165z" />
    <glyph glyph-name="uni0314_uni0342.ccmp" horiz-adv-x="0" 
d="M-363 721q0 33 14 57q13 22 35 35q26 15 63.5 15t64.5 -15q22 -13 35 -35q14 -24 14 -57h-55q0 26 -16 41.5t-42 15.5t-42 -16q-16 -15 -16 -41h-55zM-292 721q0 20 11 31t31 11t31 -11.5t11 -31t-11 -30.5q-9 -9 -23 -11q8 -56 38 -97l-38 -26q-50 66 -50 165z" />
    <glyph glyph-name="uni1FDF" unicode="&#x1fdf;" 
d="M137 721q0 33 14 57q13 22 35 35q26 15 63.5 15t64.5 -15q22 -13 35 -35q14 -24 14 -57h-55q0 26 -16 41.5t-42 15.5t-42 -16q-16 -15 -16 -41h-55zM208 721q0 20 11 31t31 11t31 -11.5t11 -31t-11 -30.5q-9 -9 -23 -11q8 -56 38 -97l-38 -26q-50 66 -50 165z" />
    <glyph glyph-name="glyph116" 
d="M219 0v735h62v-735h-62z" />
    <glyph glyph-name="glyph117" 
d="M110 0v56h109v623h-109v56h280v-56h-109v-623h109v-56h-280z" />
    <glyph glyph-name="I" unicode="I" 
d="M110 0v56h109v623h-109v56h280v-56h-109v-623h109v-56h-280z" />
    <glyph glyph-name="Iota" unicode="&#x399;" 
d="M110 0v56h109v623h-109v56h280v-56h-109v-623h109v-56h-280z" />
    <glyph glyph-name="afii10055" unicode="&#x406;" 
d="M110 0v56h109v623h-109v56h280v-56h-109v-623h109v-56h-280z" />
    <glyph glyph-name="uni04C0" unicode="&#x4c0;" 
d="M110 0v56h109v623h-109v56h280v-56h-109v-623h109v-56h-280z" />
    <glyph glyph-name="uni026A" unicode="&#x26a;" 
d="M110 0v56h109v418h-109v56h280v-56h-109v-418h109v-56h-280z" />
    <glyph glyph-name="glyph123" 
d="M219 0v530h62v-530h-62z" />
    <glyph glyph-name="dotlessi.ss01" 
d="M82 474v56h206v-530h-62v474h-144z" />
    <glyph glyph-name="dotlessi.ss02" 
d="M75 474v56h206v-474h144v-56h-206v474h-144z" />
    <glyph glyph-name="dotlessi.cv03" 
d="M75 0v56h151v418h-137v56h199v-474h137v-56h-350z" />
    <glyph glyph-name="dotlessi.ss03" 
d="M50 474v56h207v-354q0 -56 19 -90q12 -20 29 -30q14 -8 32.5 -8t32.5 8q17 10 29 31q16 28 19 67l60 -14q-5 -45 -25 -81q-19 -33 -49 -51q-29 -16 -67 -16t-66 16q-30 17 -50 51q-27 47 -27 117v298h-144z" />
    <glyph glyph-name="dotlessi" unicode="&#x131;" 
d="M75 0v56h151v418h-137v56h199v-474h137v-56h-350z" />
    <glyph glyph-name="glyph129" 
d="M75 0v56h151v418h-137v56h199v-474h137v-56h-350zM132 -76.5q0 24.5 12 45.5q14 24 40 39q30 17 66 17v-33q-25 0 -41 -17q-15 -15 -15 -34q0 -20 14 -34q19 -19 67 -19h60v-62h-60q-64 0 -96 18q-23 13 -35 35q-12 20 -12 44.5z" />
    <glyph glyph-name="i" unicode="i" 
d="M75 0v56h151v418h-137v56h199v-474h137v-56h-350zM200 685q0 23 13.5 36.5t36.5 13.5t36.5 -13.5t13.5 -36.5t-13.5 -36.5t-36.5 -13.5t-36.5 13.5t-13.5 36.5z" />
    <glyph glyph-name="i.cv03" 
d="M75 0v56h151v418h-137v56h199v-474h137v-56h-350zM200 685q0 23 13.5 36.5t36.5 13.5t36.5 -13.5t13.5 -36.5t-13.5 -36.5t-36.5 -13.5t-36.5 13.5t-13.5 36.5z" />
    <glyph glyph-name="i.ss03" 
d="M50 474v56h207v-354q0 -56 19 -90q12 -20 29 -30q14 -8 32.5 -8t32.5 8q17 10 29 31q16 28 19 67l60 -14q-5 -45 -25 -81q-19 -33 -49 -51q-29 -16 -67 -16t-66 16q-30 17 -50 51q-27 47 -27 117v298h-144zM175 685q0 23 13.5 36.5t36.5 13.5t36.5 -13.5t13.5 -36.5
t-13.5 -36.5t-36.5 -13.5t-36.5 13.5t-13.5 36.5z" />
    <glyph glyph-name="i.ss01" 
d="M82 474v56h206v-530h-62v474h-144zM200 685q0 23 13.5 36.5t36.5 13.5t36.5 -13.5t13.5 -36.5t-13.5 -36.5t-36.5 -13.5t-36.5 13.5t-13.5 36.5z" />
    <glyph glyph-name="i.ss02" 
d="M75 474v56h206v-474h144v-56h-206v474h-144zM200 685q0 23 13.5 36.5t36.5 13.5t36.5 -13.5t13.5 -36.5t-13.5 -36.5t-36.5 -13.5t-36.5 13.5t-13.5 36.5z" />
    <glyph glyph-name="afii10103" unicode="&#x456;" 
d="M75 0v56h151v418h-137v56h199v-474h137v-56h-350zM200 685q0 23 13.5 36.5t36.5 13.5t36.5 -13.5t13.5 -36.5t-13.5 -36.5t-36.5 -13.5t-36.5 13.5t-13.5 36.5z" />
    <glyph glyph-name="uni1D09" unicode="&#x1d09;" 
d="M75 474v56h350v-56h-151v-418h137v-56h-199v474h-137zM200 -155q0 23 13.5 36.5t36.5 13.5t36.5 -13.5t13.5 -36.5t-13.5 -36.5t-36.5 -13.5t-36.5 13.5t-13.5 36.5z" />
    <glyph glyph-name="iota" unicode="&#x3b9;" 
d="M75 474v56h206v-375q0 -32 13 -56q11 -20 31 -30q22 -13 52 -13h57v-56h-57q-51 0 -88 21q-32 18 -50 50q-20 35 -20 84v319h-144z" />
    <glyph glyph-name="uni0269" unicode="&#x269;" 
d="M75 474v56h206v-375q0 -32 13 -56q11 -20 31 -30q22 -13 52 -13h57v-56h-57q-51 0 -88 21q-32 18 -50 50q-20 35 -20 84v319h-144z" />
    <glyph glyph-name="uni0196" unicode="&#x196;" 
d="M75 679v56h206v-580q0 -32 13 -56q11 -20 31 -30q22 -13 52 -13h57v-56h-57q-51 0 -88 21q-32 18 -50 50q-20 35 -20 84v524h-144z" />
    <glyph glyph-name="glyph140" 
d="M43 155l61 12q4 -33 19 -61q16 -28 42.5 -43t62 -15t62 15t42.5 43q21 36 21 89v540h62v-540q0 -69 -28 -117q-23 -40 -61 -62q-41 -24 -98 -24t-98 24q-39 22 -62 62q-20 35 -25 77z" />
    <glyph glyph-name="glyph141" 
d="M176 -8v56h1q81 0 118 21q26 15 41 41q17 30 17 87v538h62v-538q0 -79 -24 -120q-21 -36 -56 -56q-50 -29 -159 -29z" />
    <glyph glyph-name="glyph142" 
d="M43 155l61 12q4 -33 19 -61q16 -28 42.5 -43t62 -15t62 15t42.5 43q21 36 21 89v484h-144v56h206v-540q0 -69 -28 -117q-23 -40 -61 -62q-41 -24 -98 -24t-98 24q-39 22 -62 62q-20 35 -25 77z" />
    <glyph glyph-name="J" unicode="J" 
d="M43 155l61 12q4 -33 19 -61q16 -28 42.5 -43t62 -15t62 15t42.5 43q21 36 21 89v484h-144v56h206v-540q0 -69 -28 -117q-23 -40 -61 -62q-41 -24 -98 -24t-98 24q-39 22 -62 62q-20 35 -25 77z" />
    <glyph glyph-name="afii10057" unicode="&#x408;" 
d="M43 155l61 12q4 -33 19 -61q16 -28 42.5 -43t62 -15t62 15t42.5 43q21 36 21 89v484h-144v56h206v-540q0 -69 -28 -117q-23 -40 -61 -62q-41 -24 -98 -24t-98 24q-39 22 -62 62q-20 35 -25 77z" />
    <glyph glyph-name="glyph145" 
d="M22 -70l58 19q5 -32 20 -57t36 -38q19 -11 44 -11t44 11q21 12 36 37q22 38 22 99v540h62v-540q0 -76 -29 -126q-22 -37 -56 -58q-33 -19 -78 -19t-79 19q-34 20 -56 58q-17 30 -24 66z" />
    <glyph glyph-name="glyph146" 
d="M22 -70l58 19q5 -32 20 -57t36 -38q19 -11 44 -11t44 11q21 12 36 37q22 38 22 99v484h-144v56h206v-540q0 -76 -29 -126q-22 -37 -56 -58q-33 -19 -78 -19t-79 19q-34 20 -56 58q-17 30 -24 66z" />
    <glyph glyph-name="uni0237" unicode="&#x237;" 
d="M22 -70l58 19q5 -32 20 -57t36 -38q19 -11 44 -11t44 11q21 12 36 37q22 38 22 99v484h-144v56h206v-540q0 -76 -29 -126q-22 -37 -56 -58q-33 -19 -78 -19t-79 19q-34 20 -56 58q-17 30 -24 66z" />
    <glyph glyph-name="j" unicode="j" 
d="M22 -70l58 19q5 -32 20 -57t36 -38q19 -11 44 -11t44 11q21 12 36 37q22 38 22 99v484h-144v56h206v-540q0 -76 -29 -126q-22 -37 -56 -58q-33 -19 -78 -19t-79 19q-34 20 -56 58q-17 30 -24 66zM253 685q0 23 13.5 36.5t36.5 13.5t36.5 -13.5t13.5 -36.5t-13.5 -36.5
t-36.5 -13.5t-36.5 13.5t-13.5 36.5z" />
    <glyph glyph-name="afii10105" unicode="&#x458;" 
d="M22 -70l58 19q5 -32 20 -57t36 -38q19 -11 44 -11t44 11q21 12 36 37q22 38 22 99v484h-144v56h206v-540q0 -76 -29 -126q-22 -37 -56 -58q-33 -19 -78 -19t-79 19q-34 20 -56 58q-17 30 -24 66zM253 685q0 23 13.5 36.5t36.5 13.5t36.5 -13.5t13.5 -36.5t-13.5 -36.5
t-36.5 -13.5t-36.5 13.5t-13.5 36.5z" />
    <glyph glyph-name="uni029D" unicode="&#x29d;" 
d="M101 -89.5q0 39.5 17 69.5q14 24 37 38q28 16 65 16q32 0 62 -12v452h-144v56h206v-547q43 -36 77 -95q23 -41 36 -86l-60 -15q-11 39 -31 75q-12 22 -26 39q-5 -36 -18 -57q-16 -28 -42 -42.5t-58 -14.5q-38 0 -68 18q-23 13 -36 36q-17 30 -17 69.5zM163 -90
q0 -33 18 -50q17 -17 41 -17q23 0 39 16q21 21 21 78v20l-10 6q-25 15 -49 15q-18 0 -31 -8q-12 -7 -19 -19q-10 -17 -10 -41zM263 685q0 23 13.5 36.5t36.5 13.5t36.5 -13.5t13.5 -36.5t-13.5 -36.5t-36.5 -13.5t-36.5 13.5t-13.5 36.5z" />
    <glyph glyph-name="L" unicode="L" 
d="M96 0v735h62v-679h286v-56h-348z" />
    <glyph glyph-name="uniA780" unicode="&#xa780;" 
d="M56 679v56h348v-735h-62v679h-286z" />
    <glyph glyph-name="Lcaron" unicode="&#x13d;" 
d="M96 0v735h62v-679h286v-56h-348zM344 582q30 41 38 97q-14 2 -23 11q-11 11 -11 30.5t11 31t31 11.5t31 -11t11 -31q0 -99 -50 -165z" />
    <glyph glyph-name="Lslash" unicode="&#x141;" 
d="M96 0v735h62v-679h286v-56h-348zM18 350l280 140l28 -50l-280 -140z" />
    <glyph glyph-name="Ldot" unicode="&#x13f;" 
d="M96 0v735h62v-679h286v-56h-348zM256 395q0 23 13.5 36.5t36.5 13.5t36.5 -13.5t13.5 -36.5t-13.5 -36.5t-36.5 -13.5t-36.5 13.5t-13.5 36.5z" />
    <glyph glyph-name="uni023D" unicode="&#x23d;" 
d="M19 354v56h77v325h62v-325h105v-56h-105v-298h286v-56h-348v354h-77z" />
    <glyph glyph-name="uni029F" unicode="&#x29f;" 
d="M96 0v530h62v-474h286v-56h-348z" />
    <glyph glyph-name="glyph158" 
d="M219 0v735h62v-735h-62z" />
    <glyph glyph-name="l.ss01" 
d="M82 679v56h206v-735h-62v679h-144z" />
    <glyph glyph-name="l.ss02" 
d="M75 679v56h206v-679h144v-56h-206v679h-144z" />
    <glyph glyph-name="l.cv07" 
d="M75 0v56h151v623h-137v56h199v-679h137v-56h-350z" />
    <glyph glyph-name="l.ss03" 
d="M64 679v56h174v-548q0 -60 21 -97q13 -22 32 -33q16 -9 36.5 -9t36.5 9q19 11 32 34q18 31 21 76l61 -12q-4 -52 -27 -91q-20 -35 -52 -54q-30 -18 -71 -18q-42 0 -72 18q-32 18 -52 53q-28 49 -28 124v492h-112z" />
    <glyph glyph-name="l" unicode="l" 
d="M75 0v56h151v623h-137v56h199v-679h137v-56h-350z" />
    <glyph glyph-name="uni04CF" unicode="&#x4cf;" 
d="M75 0v56h151v623h-137v56h199v-679h137v-56h-350z" />
    <glyph glyph-name="uniA781" unicode="&#xa781;" 
d="M75 474v56h350v-56h-151v-623h137v-56h-199v679h-137z" />
    <glyph glyph-name="ldot" unicode="&#x140;" 
d="M50 0v56h151v623h-137v56h199v-679h137v-56h-350zM336 395q0 23 13.5 36.5t36.5 13.5t36.5 -13.5t13.5 -36.5t-13.5 -36.5t-36.5 -13.5t-36.5 13.5t-13.5 36.5z" />
    <glyph glyph-name="uni026D" unicode="&#x26d;" 
d="M82 679v56h206v-735q0 -50 15 -76q13 -22 34 -34q29 -17 90 -17v-56q-88 0 -130 24q-31 18 -50 50q-21 37 -21 109v679h-144z" />
    <glyph glyph-name="uni0234" unicode="&#x234;" 
d="M59 -40q16 53 43 101q51 88 117 135v483h-144v56h206v-506q30 10 60 10q38 0 67 -17q23 -13 37 -36q17 -30 17 -70t-17 -70q-13 -23 -36 -36q-30 -18 -68 -18q-32 0 -58 15t-42 42q-15 25 -20 72q-35 -35 -64 -85q-25 -43 -39 -92zM281 142q0 -57 21 -78q16 -16 39 -16
q25 0 41 17q18 19 18 51q0 24 -9 40q-7 12 -19 19q-15 8 -34 8q-27 0 -57 -16v-25z" />
    <glyph glyph-name="uni026B" unicode="&#x26b;" 
d="M75 0v56h151v623h-137v56h199v-679h137v-56h-350zM74 328q21 55 40 88q23 40 47 54q15 8 30 8t30 -8q22 -13 54 -66q20 -33 29 -43q2 -2 5 -4q12 7 27 35q18 31 38 83l52 -18q-21 -55 -40 -88q-23 -40 -47 -54q-15 -8 -30 -9q-15 0 -30 9q-22 13 -54 66q-20 33 -29 42
q-2 2 -5 4q-12 -7 -27 -34q-18 -31 -38 -83z" />
    <glyph glyph-name="uni026C" unicode="&#x26c;" 
d="M75 0v56h151v229h-44q-30 0 -51 12q-17 10 -27 27q-10 18 -10 43.5t10 43.5q10 17 27 27q21 12 51 12h44v229h-137v56h199v-394h86v-56h-86v-229h137v-56h-350zM156 367.5q0 -12.5 7 -19.5t19 -7h44v53h-44q-12 0 -19 -7t-7 -19.5z" />
    <glyph glyph-name="uniA78E" unicode="&#xa78e;" 
d="M82 679v56h206v-394h86v-56h-86v-285q0 -50 15 -76q13 -22 34 -34q29 -17 90 -17v-56q-88 0 -130 24q-31 18 -50 50q-21 37 -21 109v285h-44q-30 0 -51 12q-17 10 -27 27q-10 18 -10 43.5t10 43.5q10 17 27 27q21 12 51 12h44v229h-144zM156 367.5q0 -12.5 7 -19.5t19 -7
h44v53h-44q-12 0 -19 -7t-7 -19.5z" />
    <glyph glyph-name="uni01AA" unicode="&#x1aa;" 
d="M107 651q0 26 11 45q10 17 27 27q20 12 49 12t49 -12q38 -22 38 -72v-651q0 -38 16 -66q15 -26 43 -42q33 -19 80 -19v-56q-69 0 -117 28q-39 23 -61 60q-23 40 -23 95v570q-12 -3 -25 -3q-29 0 -49 12q-17 10 -27 27q-11 19 -11 45zM169 650.5q0 -13.5 8 -20.5
q7 -7 17.5 -7t16.5 7q8 7 8 21t-8 21q-7 7 -17.5 7t-16.5 -7q-8 -8 -8 -21.5z" />
    <glyph glyph-name="V" unicode="V" 
d="M64 662v73h62v-73q0 -179 124 -577q124 397 124 577v73h62v-73q0 -200 -155 -662h-62q-155 462 -155 662z" />
    <glyph glyph-name="v" unicode="v" 
d="M64 477v53h62v-53q0 -128 124 -411q124 284 124 411v53h62v-53q0 -144 -155 -477h-62q-155 333 -155 477z" />
    <glyph glyph-name="uni2C71" unicode="&#x2c71;" 
d="M64 477v53h62v-53q0 -129 126 -415q39 91 66 293q10 74 29 107q18 31 48 49q34 19 98 19v-56q-39 0 -60 -12q-19 -11 -32 -31q-13 -23 -21 -78q-40 -266 -99 -353h-62q-155 333 -155 477z" />
    <glyph glyph-name="afii10196" unicode="&#x475;" 
d="M64 477v53h62v-53q0 -129 126 -415q39 91 66 293q10 74 29 107q18 31 48 49q34 19 98 19v-56q-39 0 -60 -12q-19 -11 -32 -31q-13 -23 -21 -78q-40 -266 -99 -353h-62q-155 333 -155 477z" />
    <glyph glyph-name="afii10148" unicode="&#x474;" 
d="M64 662v73h62v-73q0 -180 124 -577q39 149 67 465q7 81 28 117q18 31 48 48q34 20 100 20v-56q-41 0 -62 -12q-20 -11 -32 -32q-14 -25 -20 -90q-30 -311 -71 -465q-13 -47 -27 -80h-62q-155 462 -155 662z" />
    <glyph glyph-name="uni028C" unicode="&#x28c;" 
d="M64 0v53q0 144 155 477h62q155 -333 155 -477v-53h-62v53q0 128 -124 411q-124 -284 -124 -411v-53h-62z" />
    <glyph glyph-name="nu" unicode="&#x3bd;" 
d="M34 512l55 26q134 -251 169 -424q115 246 116 363v53h62v-53q0 -145 -165 -477h-62q0 184 -175 512z" />
    <glyph glyph-name="A" unicode="A" 
d="M64 0v74q0 200 155 661h62q155 -461 155 -661v-74h-62v74q0 57 -13 135h-222q-12 -79 -13 -135v-74h-62zM149 265h202q-30 156 -101 385q-71 -229 -101 -385z" />
    <glyph glyph-name="Alpha" unicode="&#x391;" 
d="M64 0v74q0 200 155 661h62q155 -461 155 -661v-74h-62v74q0 57 -13 135h-222q-12 -79 -13 -135v-74h-62zM149 265h202q-30 156 -101 385q-71 -229 -101 -385z" />
    <glyph glyph-name="afii10017" unicode="&#x410;" 
d="M64 0v74q0 200 155 661h62q155 -461 155 -661v-74h-62v74q0 57 -13 135h-222q-12 -79 -13 -135v-74h-62zM149 265h202q-30 156 -101 385q-71 -229 -101 -385z" />
    <glyph glyph-name="uni2C6F" unicode="&#x2c6f;" 
d="M64 662v73h62v-73q0 -57 13 -136h222q12 80 13 136v73h62v-73q0 -200 -155 -662h-62q-155 462 -155 662zM149 470q30 -156 101 -385q71 229 101 385h-202z" />
    <glyph glyph-name="a.cv01" 
d="M56 145q0 44 18 77q20 34 59 56q54 31 136 31h105v52q0 38 -16 65q-14 25 -39 39q-30 17 -72 17q-44 0 -74 -18q-24 -14 -38 -38q-11 -19 -13 -40l-60 14q4 29 18 55q21 36 57 57q45 26 110 26q63 0 108 -26q37 -22 58 -57q23 -40 23 -94v-361h-62v79q-23 -40 -63 -62
q-43 -25 -99 -25q-51 0 -86 20q-31 18 -50 50q-20 35 -20 83zM118 146q0 -56 46 -83q26 -15 64 -15q45 0 79 19q30 17 47 48q20 35 20 83v55h-105q-61 0 -100 -22q-26 -15 -39 -38q-12 -20 -12 -47z" />
    <glyph glyph-name="a.cv02" 
d="M56 220v90q0 87 33 145q24 41 62 63q35 20 82 20q44 0 77 -19q36 -21 59 -61q3 -4 5 -9v81h62v-530h-62v81q-2 -5 -5 -9q-23 -40 -59 -61q-16 -9 -35.5 -14t-41.5 -5q-47 0 -82 20q-37 22 -62 63q-33 58 -33 145zM118 220q0 -66 25 -110q18 -31 46 -47q26 -15 60 -15
q32 0 56 14q26 15 43 45q26 44 26 113v90q0 69 -26 113q-17 30 -43 45q-24 14 -56 14q-34 0 -60 -15q-28 -16 -46 -47q-25 -44 -25 -110v-90z" />
    <glyph glyph-name="a" unicode="a" 
d="M56 145q0 44 18 77q20 34 59 56q54 31 136 31h105v52q0 38 -16 65q-14 25 -39 39q-30 17 -72 17q-44 0 -74 -18q-24 -14 -38 -38q-11 -19 -13 -40l-60 14q4 29 18 55q21 36 57 57q45 26 110 26q63 0 108 -26q37 -22 58 -57q23 -40 23 -94v-361h-62v79q-23 -40 -63 -62
q-43 -25 -99 -25q-51 0 -86 20q-31 18 -50 50q-20 35 -20 83zM118 146q0 -56 46 -83q26 -15 64 -15q45 0 79 19q30 17 47 48q20 35 20 83v55h-105q-61 0 -100 -22q-26 -15 -39 -38q-12 -20 -12 -47z" />
    <glyph glyph-name="afii10065" unicode="&#x430;" 
d="M56 145q0 44 18 77q20 34 59 56q54 31 136 31h105v52q0 38 -16 65q-14 25 -39 39q-30 17 -72 17q-44 0 -74 -18q-24 -14 -38 -38q-11 -19 -13 -40l-60 14q4 29 18 55q21 36 57 57q45 26 110 26q63 0 108 -26q37 -22 58 -57q23 -40 23 -94v-361h-62v79q-23 -40 -63 -62
q-43 -25 -99 -25q-51 0 -86 20q-31 18 -50 50q-20 35 -20 83zM118 146q0 -56 46 -83q26 -15 64 -15q45 0 79 19q30 17 47 48q20 35 20 83v55h-105q-61 0 -100 -22q-26 -15 -39 -38q-12 -20 -12 -47z" />
    <glyph glyph-name="uni2C6D" unicode="&#x2c6d;" 
d="M56 220v295q0 87 33 145q24 41 62 63q35 20 82 20q44 0 77 -19q36 -21 59 -61q3 -4 5 -9v53l62 36v-743h-62v81q-2 -5 -5 -9q-23 -40 -59 -61q-16 -9 -35.5 -14t-41.5 -5q-47 0 -82 20q-37 22 -62 63q-33 58 -33 145zM118 220q0 -66 25 -110q18 -31 46 -47q26 -15 60 -15
q32 0 56 14q26 15 43 45q26 44 26 113v295q0 69 -26 113q-17 30 -43 45q-24 14 -56 14q-34 0 -60 -15q-28 -16 -46 -47q-25 -44 -25 -110v-295z" />
    <glyph glyph-name="uni2C70" unicode="&#x2c70;" 
d="M64 -8v743h62v-81q2 5 5 9q23 40 59 61q33 19 77 19q47 0 82 -20q37 -22 62 -63q33 -58 33 -145v-295q0 -87 -33 -145q-24 -41 -62 -63q-35 -20 -82 -20q-44 0 -77 19q-36 21 -59 61q-3 4 -5 9v-53zM126 220q0 -69 26 -113q17 -30 43 -45q24 -14 56 -14q34 0 60 15
q28 16 46 47q25 44 25 110v295q0 66 -25 110q-18 31 -46 47q-26 15 -60 15q-32 0 -56 -14q-26 -15 -43 -45q-26 -44 -26 -113v-295z" />
    <glyph glyph-name="uni0251" unicode="&#x251;" 
d="M56 220v90q0 87 33 145q24 41 62 63q35 20 82 20q44 0 77 -19q36 -21 59 -61q3 -4 5 -9v53l62 36v-538h-62v81q-2 -5 -5 -9q-23 -40 -59 -61q-16 -9 -35.5 -14t-41.5 -5q-47 0 -82 20q-37 22 -62 63q-33 58 -33 145zM118 220q0 -66 25 -110q18 -31 46 -47q26 -15 60 -15
q32 0 56 14q26 15 43 45q26 44 26 113v90q0 69 -26 113q-17 30 -43 45q-24 14 -56 14q-34 0 -60 -15q-28 -16 -46 -47q-25 -44 -25 -110v-90z" />
    <glyph glyph-name="uni0250" unicode="&#x250;" 
d="M64 169v361h62v-79q23 40 63 62q43 25 99 25q51 0 86 -20q31 -18 50 -50q20 -35 20 -83q0 -44 -18 -77q-20 -34 -59 -56q-54 -31 -136 -31h-105v-52q0 -38 16 -65q14 -25 39 -39q30 -17 72 -17q44 0 74 18q24 14 38 38q11 19 13 40l60 -14q-4 -29 -18 -55
q-21 -36 -57 -57q-45 -26 -110 -26q-63 0 -108 26q-37 22 -58 57q-23 40 -23 94zM126 277h105q61 0 100 22q26 15 39 38q12 20 12 47q0 56 -46 83q-26 15 -64 15q-45 0 -79 -19q-30 -17 -47 -48q-20 -35 -20 -83v-55z" />
    <glyph glyph-name="uni0252" unicode="&#x252;" 
d="M64 -8v538h62v-81q2 5 5 9q23 40 59 61q33 19 77 19q47 0 82 -20q37 -22 62 -63q33 -58 33 -145v-90q0 -87 -33 -145q-24 -41 -62 -63q-35 -20 -82 -20q-44 0 -77 19q-36 21 -59 61q-3 4 -5 9v-53zM126 220q0 -69 26 -113q17 -30 43 -45q24 -14 56 -14q34 0 60 15
q28 16 46 47q25 44 25 110v90q0 66 -25 110q-18 31 -46 47q-26 15 -60 15q-32 0 -56 -14q-26 -15 -43 -45q-26 -44 -26 -113v-90z" />
    <glyph glyph-name="W" unicode="W" 
d="M64 551v184h62v-184q0 -139 36 -431l64 321h48l64 -321q36 292 36 431v184h62v-184q0 -167 -75 -551h-47l-64 320l-64 -320h-47q-75 384 -75 551z" />
    <glyph glyph-name="uni051C" unicode="&#x51c;" 
d="M64 551v184h62v-184q0 -139 36 -431l64 321h48l64 -321q36 292 36 431v184h62v-184q0 -167 -75 -551h-47l-64 320l-64 -320h-47q-75 384 -75 551z" />
    <glyph glyph-name="w" unicode="w" 
d="M64 398v132h62v-132q0 -100 36 -310l64 230h48l64 -230q35 210 36 310v132h62v-132q0 -121 -75 -398h-47l-64 231l-64 -231h-47q-75 278 -75 398z" />
    <glyph glyph-name="uni051D" unicode="&#x51d;" 
d="M64 398v132h62v-132q0 -100 36 -310l64 230h48l64 -230q35 210 36 310v132h62v-132q0 -121 -75 -398h-47l-64 231l-64 -231h-47q-75 278 -75 398z" />
    <glyph glyph-name="uni028D" unicode="&#x28d;" 
d="M64 0v132q0 121 75 398h47l64 -231l64 231h47q75 -278 75 -398v-132h-62v132q0 100 -36 310l-64 -230h-48l-64 230q-35 -210 -36 -310v-132h-62z" />
    <glyph glyph-name="uni2C72" unicode="&#x2c72;" 
d="M64 551v184h62v-184q0 -139 36 -431l64 321h48l64 -319q36 310 36 458q0 53 21 90q38 65 120 65v-56q-22 0 -38 -9.5t-27 -27.5q-14 -25 -14 -62q0 -176 -75 -580h-47l-64 320l-64 -320h-47q-75 384 -75 551z" />
    <glyph glyph-name="uni2C73" unicode="&#x2c73;" 
d="M64 398v132h62v-132q0 -100 36 -310l64 230h48l65 -232q35 195 35 289q0 53 21 90q38 65 120 65v-56q-22 0 -38 -9.5t-27 -27.5q-14 -25 -14 -62q0 -114 -75 -375h-47l-64 231l-64 -231h-47q-75 278 -75 398z" />
    <glyph glyph-name="uni02AC" unicode="&#x2ac;" 
d="M64 276v92h62v-92q0 -68 35 -213l65 157h48l65 -157q35 144 35 213v92h62v-92q0 -84 -75 -276h-47l-64 160l-64 -160h-47q-75 192 -75 276zM64 643v92h62v-92q0 -68 35 -212l65 157h48l65 -157q35 144 35 212v92h62v-92q0 -83 -75 -275h-47l-64 160l-64 -160h-47
q-75 192 -75 275z" />
    <glyph glyph-name="X" unicode="X" 
d="M64 0v37q0 89 52 179q7 12 15 24l83 128l-83 127q-8 12 -15 24q-52 91 -52 179v37h62v-37q0 -85 57 -172l67 -103l67 103q57 88 57 172v37h62v-37q0 -89 -52 -179q-7 -12 -15 -24l-83 -127l83 -128q8 -12 15 -24q52 -91 52 -179v-37h-62v37q0 85 -57 172l-67 103
l-67 -103q-57 -88 -57 -172v-37h-62z" />
    <glyph glyph-name="Chi" unicode="&#x3a7;" 
d="M64 0v37q0 89 52 179q7 12 15 24l83 128l-83 127q-8 12 -15 24q-52 91 -52 179v37h62v-37q0 -85 57 -172l67 -103l67 103q57 88 57 172v37h62v-37q0 -89 -52 -179q-7 -12 -15 -24l-83 -127l83 -128q8 -12 15 -24q52 -91 52 -179v-37h-62v37q0 85 -57 172l-67 103
l-67 -103q-57 -88 -57 -172v-37h-62z" />
    <glyph glyph-name="afii10039" unicode="&#x425;" 
d="M64 0v37q0 89 52 179q7 12 15 24l83 128l-83 127q-8 12 -15 24q-52 91 -52 179v37h62v-37q0 -85 57 -172l67 -103l67 103q57 88 57 172v37h62v-37q0 -89 -52 -179q-7 -12 -15 -24l-83 -127l83 -128q8 -12 15 -24q52 -91 52 -179v-37h-62v37q0 85 -57 172l-67 103
l-67 -103q-57 -88 -57 -172v-37h-62z" />
    <glyph glyph-name="x" unicode="x" 
d="M64 0v5q0 29 35 90q17 29 33 52l81 118l-81 118q-16 23 -33 52q-35 60 -35 90v5h62v-5q0 -28 57 -110l67 -97l67 97q56 81 57 110v5h62v-5q0 -29 -35 -90q-17 -29 -33 -52l-81 -118l81 -118q16 -23 33 -52q35 -60 35 -90v-5h-62v5q0 28 -57 110l-67 97l-67 -97
q-56 -81 -57 -110v-5h-62z" />
    <glyph glyph-name="afii10087" unicode="&#x445;" 
d="M64 0v5q0 29 35 90q17 29 33 52l81 118l-81 118q-16 23 -33 52q-35 60 -35 90v5h62v-5q0 -28 57 -110l67 -97l67 97q56 81 57 110v5h62v-5q0 -29 -35 -90q-17 -29 -33 -52l-81 -118l81 -118q16 -23 33 -52q35 -60 35 -90v-5h-62v5q0 28 -57 110l-67 97l-67 -97
q-56 -81 -57 -110v-5h-62z" />
    <glyph glyph-name="chi" unicode="&#x3c7;" 
d="M64 -187q0 44 65 176l87 173l-87 174q-65 131 -65 176v18h62v-18q0 -32 59 -151l65 -130l65 130q59 118 59 151v18h62v-18q0 -44 -65 -176l-87 -174l87 -173q65 -131 65 -176v-18h-62v18q0 32 -59 151l-65 130l-65 -130q-59 -118 -59 -151v-18h-62v18z" />
    <glyph glyph-name="uniAB53" unicode="&#xab53;" 
d="M64 -187q0 44 65 176l87 173l-87 174q-65 131 -65 176v18h62v-18q0 -32 59 -151l65 -130l65 130q59 118 59 151v18h62v-18q0 -44 -65 -176l-87 -174l87 -173q65 -131 65 -176v-18h-62v18q0 32 -59 151l-65 130l-65 -130q-59 -118 -59 -151v-18h-62v18z" />
    <glyph glyph-name="uni04B2" unicode="&#x4b2;" 
d="M64 0v37q0 89 52 179q7 12 15 24l83 128l-83 127q-8 12 -15 24q-52 91 -52 179v37h62v-37q0 -85 57 -172l67 -103l67 103q57 88 57 172v37h62v-37q0 -89 -52 -179q-7 -12 -15 -24l-83 -127l83 -128q8 -12 15 -24q47 -81 51 -160h52v-203h-62v147h-51v37q0 85 -57 172
l-67 103l-67 -103q-57 -88 -57 -172v-37h-62z" />
    <glyph glyph-name="uni04B3" unicode="&#x4b3;" 
d="M64 0v5q0 29 35 90q17 29 33 52l81 118l-81 118q-16 23 -33 52q-35 60 -35 90v5h62v-5q0 -28 57 -110l67 -97l67 97q56 81 57 110v5h62v-5q0 -29 -35 -90q-17 -29 -33 -52l-81 -118l81 -118q16 -23 33 -52q15 -26 24 -47v8h62v-203h-62v147h-51v5q0 28 -57 110l-67 97
l-67 -97q-56 -81 -57 -110v-5h-62z" />
    <glyph glyph-name="Y" unicode="Y" 
d="M64 691v44h62v-44q0 -105 58 -212l66 -121l66 121q58 107 58 212v44h62v-44q0 -118 -66 -239l-89 -164v-288h-62v288l-89 164q-66 121 -66 239z" />
    <glyph glyph-name="Upsilon" unicode="&#x3a5;" 
d="M64 691v44h62v-44q0 -105 58 -212l66 -121l66 121q58 107 58 212v44h62v-44q0 -118 -66 -239l-89 -164v-288h-62v288l-89 164q-66 121 -66 239z" />
    <glyph glyph-name="uni04AE" unicode="&#x4ae;" 
d="M64 691v44h62v-44q0 -105 58 -212l66 -121l66 121q58 107 58 212v44h62v-44q0 -118 -66 -239l-89 -164v-288h-62v288l-89 164q-66 121 -66 239z" />
    <glyph glyph-name="uni01B3" unicode="&#x1b3;" 
d="M64 691v44h62v-44q0 -105 58 -212l62 -114q33 81 72 223q14 52 28 77q19 33 49 50q34 20 98 20v-56q-39 0 -61 -12q-20 -12 -33 -34q-10 -18 -22 -60q-52 -194 -96 -279v-294h-62v288l-89 164q-66 121 -66 239z" />
    <glyph glyph-name="uni04AF" unicode="&#x4af;" 
d="M64 486v44h62v-44q0 -105 58 -212l66 -121l66 121q58 107 58 212v44h62v-44q0 -118 -66 -239l-89 -164v-288h-62v288l-89 164q-66 121 -66 239z" />
    <glyph glyph-name="uni028F" unicode="&#x28f;" 
d="M64 498v32h62v-32q0 -72 56 -146l68 -90l68 90q56 74 56 146v32h62v-32q0 -68 -40 -137q-12 -21 -28 -42l-87 -116v-203h-62v203l-87 116q-16 21 -28 42q-40 69 -40 137z" />
    <glyph glyph-name="glyph216" 
d="M64 493v37h62v-37q0 -49 31 -138l92 -266l94 266q31 88 31 138v37h62v-37q0 -59 -35 -157l-161 -460q-8 -24 -9 -74v-7h-62v7q0 58 12 93l37 106l-119 335q-35 97 -35 157z" />
    <glyph glyph-name="glyph217" 
d="M64 493v37h62v-37q0 -49 31 -138l92 -266l94 266q31 88 31 138v37h62v-37q0 -59 -35 -157l-161 -460q-8 -24 -9 -74v-7h-62v7q0 58 12 93l37 106l-119 335q-35 97 -35 157z" />
    <glyph glyph-name="y" unicode="y" 
d="M64 493v37h62v-37q0 -49 31 -138l92 -266l94 266q31 88 31 138v37h62v-37q0 -59 -35 -157l-161 -460q-8 -24 -9 -74v-7h-62v7q0 58 12 93l37 106l-119 335q-35 97 -35 157z" />
    <glyph glyph-name="afii10085" unicode="&#x443;" 
d="M64 493v37h62v-37q0 -49 31 -138l92 -266l94 266q31 88 31 138v37h62v-37q0 -59 -35 -157l-161 -460q-8 -24 -9 -74v-7h-62v7q0 58 12 93l37 106l-119 335q-35 97 -35 157z" />
    <glyph glyph-name="uni028E" unicode="&#x28e;" 
d="M64 0v37q0 59 35 157l161 460q8 24 9 74v7h62v-7q0 -58 -12 -93l-37 -106l119 -335q35 -97 35 -157v-37h-62v37q0 49 -31 138l-92 266l-94 -266q-31 -88 -31 -138v-37h-62z" />
    <glyph glyph-name="uni01B4" unicode="&#x1b4;" 
d="M64 493v37h62v-37q0 -49 31 -138l92 -266l94 266q24 67 38 93q24 41 60 61q36 21 101 21v-56q-44 0 -68 -14t-40 -41q-10 -17 -33 -83l-161 -460q-8 -24 -9 -74v-7h-62v7q0 58 12 93l37 106l-119 335q-35 97 -35 157z" />
    <glyph glyph-name="afii10037" unicode="&#x423;" 
d="M64 698v37h62v-37q0 -49 31 -138l92 -266l94 266q31 88 31 138v37h62v-37q0 -59 -35 -157l-161 -460q-8 -24 -9 -74v-7h-62v7q0 58 12 93l37 106l-119 335q-35 97 -35 157z" />
    <glyph glyph-name="lambda" unicode="&#x3bb;" 
d="M64 0v37q0 59 35 157l118 338l-36 103q-12 34 -12 93v7h62v-7q0 -50 9 -74l161 -460q35 -98 35 -157v-37h-62v37q0 50 -31 138l-93 264l-93 -264q-31 -88 -31 -138v-37h-62z" />
    <glyph glyph-name="uni019B" unicode="&#x19b;" 
d="M64 0v37q0 59 35 157l118 338l-36 103q-12 34 -12 93v7h62v-7q0 -50 9 -74l161 -460q35 -98 35 -157v-37h-62v37q0 50 -31 138l-93 264l-93 -264q-31 -88 -31 -138v-37h-62zM96 469l280 140l28 -50l-280 -140z" />
    <glyph glyph-name="K" unicode="K" 
d="M64 0v735h62v-368q137 144 205 262q39 68 40 106h65q0 -43 -45 -121q-43 -75 -110 -159q163 -340 163 -455h-62q0 104 -144 403q-50 -59 -112 -121v-282h-62z" />
    <glyph glyph-name="Kappa" unicode="&#x39a;" 
d="M64 0v735h62v-368q137 144 205 262q39 68 40 106h65q0 -43 -45 -121q-43 -75 -110 -159q163 -340 163 -455h-62q0 104 -144 403q-50 -59 -112 -121v-282h-62z" />
    <glyph glyph-name="afii10028" unicode="&#x41a;" 
d="M64 0v735h62v-368q137 144 205 262q39 68 40 106h65q0 -43 -45 -121q-43 -75 -110 -159q163 -340 163 -455h-62q0 104 -144 403q-50 -59 -112 -121v-282h-62z" />
    <glyph glyph-name="uni049A" unicode="&#x49a;" 
d="M64 0v735h62v-368q137 144 205 262q39 68 40 106h65q0 -43 -45 -121q-43 -75 -110 -159q130 -271 156 -399h58v-203h-62v147h-51q0 104 -144 403q-50 -59 -112 -121v-282h-62z" />
    <glyph glyph-name="k" unicode="k" 
d="M64 0v735h62v-461q181 132 232 220q12 22 13 36h65q0 -18 -16 -46q-39 -67 -137 -155q46 -70 80 -129q81 -141 81 -200h-62q0 50 -66 164q-33 57 -79 125q-49 -41 -111 -86v-203h-62z" />
    <glyph glyph-name="kappa" unicode="&#x3ba;" 
d="M64 0v530h62v-256q181 132 232 220q12 22 13 36h65q0 -18 -16 -46q-39 -67 -137 -155q46 -70 80 -129q81 -141 81 -200h-62q0 50 -66 164q-33 57 -79 125q-49 -41 -111 -86v-203h-62z" />
    <glyph glyph-name="afii10076" unicode="&#x43a;" 
d="M64 0v530h62v-256q181 132 232 220q12 22 13 36h65q0 -18 -16 -46q-39 -67 -137 -155q46 -70 80 -129q81 -141 81 -200h-62q0 50 -66 164q-33 57 -79 125q-49 -41 -111 -86v-203h-62z" />
    <glyph glyph-name="kgreenlandic" unicode="&#x138;" 
d="M64 0v530h62v-256q181 132 232 220q12 22 13 36h65q0 -18 -16 -46q-39 -67 -137 -155q46 -70 80 -129q81 -141 81 -200h-62q0 50 -66 164q-33 57 -79 125q-49 -41 -111 -86v-203h-62z" />
    <glyph glyph-name="uni049B" unicode="&#x49b;" 
d="M64 0v530h62v-256q181 132 232 220q12 22 13 36h65q0 -18 -16 -46q-39 -67 -137 -155q46 -70 80 -129q51 -89 70 -146v2h62v-203h-62v147h-51q0 50 -66 164q-33 57 -79 125q-49 -41 -111 -86v-203h-62z" />
    <glyph glyph-name="uni0198" unicode="&#x198;" 
d="M64 0v552q0 55 23 95q22 37 61 60q48 28 117 28v-56q-47 0 -80 -19q-58 -34 -59 -108v-185q137 144 205 262q39 68 40 106h65q0 -43 -45 -121q-43 -75 -110 -159q163 -340 163 -455h-62q0 104 -144 403q-50 -59 -112 -121v-282h-62z" />
    <glyph glyph-name="uni0199" unicode="&#x199;" 
d="M64 0v552q0 55 23 95q22 37 61 60q48 28 117 28v-56q-47 0 -80 -19q-58 -34 -59 -108v-278q181 132 232 220q12 22 13 36h65q0 -18 -16 -46q-39 -67 -137 -155q46 -70 80 -129q81 -141 81 -200h-62q0 50 -66 164q-33 57 -79 125q-49 -41 -111 -86v-203h-62z" />
    <glyph glyph-name="uniA7B0" unicode="&#xa7b0;" 
d="M56 735h62q0 -104 144 -403q50 59 112 121v282h62v-735h-62v368q-137 -144 -205 -262q-39 -68 -40 -106h-65q0 43 45 121q43 75 110 159q-163 340 -163 455z" />
    <glyph glyph-name="uni029E" unicode="&#x29e;" 
d="M56 530h62q0 -50 66 -164q33 -57 79 -125q49 41 111 86v203h62v-735h-62v461q-181 -132 -232 -220q-12 -22 -13 -36h-65q0 18 16 46q39 67 137 155q-46 70 -80 129q-81 141 -81 200z" />
    <glyph glyph-name="B" unicode="B" 
d="M64 0v735h169q55 0 95 -23q36 -21 58 -59q26 -45 26 -107q0 -57 -23 -97q-21 -36 -57 -57q-8 -4 -15 -8q70 -22 103 -81q24 -41 24 -99q0 -63 -27 -109q-24 -42 -66 -67q-49 -28 -118 -28h-169zM126 56h107q69 0 109 40.5t40 108.5q0 48 -20 82q-18 30 -47 47
q-34 20 -82 20h-107v-298zM126 410h107q67 0 98 55q19 33 19 80t-19 80q-31 54 -98 54h-107v-269z" />
    <glyph glyph-name="Beta" unicode="&#x392;" 
d="M64 0v735h169q55 0 95 -23q36 -21 58 -59q26 -45 26 -107q0 -57 -23 -97q-21 -36 -57 -57q-8 -4 -15 -8q70 -22 103 -81q24 -41 24 -99q0 -63 -27 -109q-24 -42 -66 -67q-49 -28 -118 -28h-169zM126 56h107q69 0 109 40.5t40 108.5q0 48 -20 82q-18 30 -47 47
q-34 20 -82 20h-107v-298zM126 410h107q67 0 98 55q19 33 19 80t-19 80q-31 54 -98 54h-107v-269z" />
    <glyph glyph-name="afii10019" unicode="&#x412;" 
d="M64 0v735h169q55 0 95 -23q36 -21 58 -59q26 -45 26 -107q0 -57 -23 -97q-21 -36 -57 -57q-8 -4 -15 -8q70 -22 103 -81q24 -41 24 -99q0 -63 -27 -109q-24 -42 -66 -67q-49 -28 -118 -28h-169zM126 56h107q69 0 109 40.5t40 108.5q0 48 -20 82q-18 30 -47 47
q-34 20 -82 20h-107v-298zM126 410h107q67 0 98 55q19 33 19 80t-19 80q-31 54 -98 54h-107v-269z" />
    <glyph glyph-name="uni0181" unicode="&#x181;" 
d="M-20 565q0 85 27 132q12 21 29 31q12 7 28 7h169q55 0 95 -23q36 -21 58 -59q26 -45 26 -107q0 -57 -23 -97q-21 -36 -57 -57q-8 -4 -15 -8q70 -22 103 -81q24 -41 24 -99q0 -63 -27 -109q-24 -42 -66 -67q-49 -28 -118 -28h-169v679q-3 0 -5 -2q-17 -17 -17 -112h-62z
M126 56h107q69 0 109 40.5t40 108.5q0 48 -20 82q-18 30 -47 47q-34 20 -82 20h-107v-298zM126 410h107q67 0 98 55q19 33 19 80t-19 80q-31 54 -98 54h-107v-269z" />
    <glyph glyph-name="glyph242" 
d="M56 220v90q0 82 32 138q25 43 66 66.5t98 23.5q64 0 109 -26q33 -19 50 -49q17 -29 17 -68.5t-17 -69.5q-16 -27 -44 -45q38 -21 58 -56q19 -32 19 -75t-19 -75q-19 -33 -55 -54q-48 -28 -117 -28q-58 0 -99 23.5t-66 66.5q-32 56 -32 138zM118 220q0 -66 25 -110
q18 -31 46 -47q26 -15 64 -15q47 0 81 19q24 14 36 35q12 20 12 47t-12 47q-12 21 -36 35q-33 19 -84 19h-56v56h56q45 0 74 17q21 12 32 31q10 17 10 40t-10 41q-11 19 -32 30q-29 17 -71 17q-37 0 -64 -15q-28 -16 -46 -47q-25 -44 -25 -110v-90z" />
    <glyph glyph-name="uni025E" unicode="&#x25e;" 
d="M56 220v90q0 82 32 138q25 43 66 66.5t98 23.5q64 0 109 -26q33 -19 50 -49q17 -29 17 -68.5t-17 -69.5q-16 -27 -44 -45q38 -21 58 -56q19 -32 19 -75t-19 -75q-19 -33 -55 -54q-48 -28 -117 -28q-58 0 -99 23.5t-66 66.5q-32 56 -32 138zM118 220q0 -66 25 -110
q18 -31 46 -47q26 -15 64 -15q47 0 81 19q24 14 36 35q12 20 12 47t-12 47q-12 21 -36 35q-33 19 -84 19h-56v56h56q45 0 74 17q21 12 32 31q10 17 10 40t-10 41q-11 19 -32 30q-29 17 -71 17q-37 0 -64 -15q-28 -16 -46 -47q-25 -44 -25 -110v-90z" />
    <glyph glyph-name="glyph244" 
d="M64 0v530h213q42 0 72 -18q27 -16 44 -44q19 -33 19 -78q0 -40 -16 -68t-45 -44q15 -5 29 -12q31 -18 48 -47q16 -28 16 -68q0 -44 -19 -78q-18 -31 -51 -50q-40 -23 -97 -23h-213zM126 56h151q36 0 61 14q20 12 32 32q12 21 12 50t-12 49t-32 32q-25 14 -61 15h-151
v-192zM126 304h151q41 0 61 34q12 21 12 51t-12 51q-20 34 -61 34h-151v-170z" />
    <glyph glyph-name="uni0299" unicode="&#x299;" 
d="M64 0v530h213q42 0 72 -18q27 -16 44 -44q19 -33 19 -78q0 -40 -16 -68t-45 -44q15 -5 29 -12q31 -18 48 -47q16 -28 16 -68q0 -44 -19 -78q-18 -31 -51 -50q-40 -23 -97 -23h-213zM126 56h151q36 0 61 14q20 12 32 32q12 21 12 50t-12 49t-32 32q-25 14 -61 15h-151
v-192zM126 304h151q41 0 61 34q12 21 12 51t-12 51q-20 34 -61 34h-151v-170z" />
    <glyph glyph-name="afii10067" unicode="&#x432;" 
d="M64 0v530h213q42 0 72 -18q27 -16 44 -44q19 -33 19 -78q0 -40 -16 -68t-45 -44q15 -5 29 -12q31 -18 48 -47q16 -28 16 -68q0 -44 -19 -78q-18 -31 -51 -50q-40 -23 -97 -23h-213zM126 56h151q36 0 61 14q20 12 32 32q12 21 12 50t-12 49t-32 32q-25 14 -61 15h-151
v-192zM126 304h151q41 0 61 34q12 21 12 51t-12 51q-20 34 -61 34h-151v-170z" />
    <glyph glyph-name="uni0243" unicode="&#x243;" 
d="M19 192v56h45v487h169q55 0 95 -23q36 -21 58 -59q26 -45 26 -107q0 -57 -23 -97q-21 -36 -57 -57q-8 -4 -15 -8q70 -22 103 -81q24 -41 24 -99q0 -63 -27 -109q-24 -42 -66 -67q-49 -28 -118 -28h-169v192h-45zM126 56h107q69 0 109 40.5t40 108.5q0 48 -20 82
q-18 30 -47 47q-34 20 -82 20h-107v-106h124v-56h-124v-136zM126 410h107q67 0 98 55q19 33 19 80t-19 80q-31 54 -98 54h-107v-269z" />
    <glyph glyph-name="beta" unicode="&#x3b2;" 
d="M64 -205v720q0 87 33 144q24 42 62 63q36 21 85 21q53 0 93 -23q37 -21 58 -58q25 -44 25 -105q0 -52 -21 -88q-20 -34 -55 -54q-12 -7 -26 -13q67 -25 101 -82q25 -44 25 -105q0 -66 -28 -115q-26 -44 -70 -70q-52 -30 -126 -30h-94v-205h-62zM126 56h94q52 0 90 22
q32 19 51 51q21 36 21 87t-21 87q-19 33 -51 52q-37 22 -90 21h-44v56h66q35 0 61 15q24 14 38 38q17 29 17 72q0 45 -18 77q-31 53 -96 53q-29 0 -51 -12q-24 -14 -41 -43q-26 -45 -26 -117v-459z" />
    <glyph glyph-name="b" unicode="b" 
d="M64 0v735h62v-286q2 5 5 9q23 40 59 61q33 19 77 19q47 0 82 -20q37 -22 62 -63q33 -58 33 -145v-90q0 -87 -33 -145q-24 -41 -62 -63q-35 -20 -82 -20q-44 0 -77 19q-36 21 -59 61q-3 4 -5 9v-81h-62zM126 220q0 -69 26 -113q17 -30 43 -45q24 -14 56 -14q34 0 60 15
q28 16 46 47q25 44 25 110v90q0 66 -25 110q-18 31 -46 47q-26 15 -60 15q-32 0 -56 -14q-26 -15 -43 -45q-26 -44 -26 -113v-90z" />
    <glyph glyph-name="uni0253" unicode="&#x253;" 
d="M64 0v515q0 83 33 139q25 43 64.5 66t93.5 23t94 -23t65 -66q19 -33 27 -74l-59 -18q-6 35 -22 63q-18 31 -45 47q-26 15 -60 15t-59 -15q-27 -16 -44 -46q-25 -44 -26 -111v-66q2 5 5 9q23 40 59 61q33 19 77 19q47 0 82 -20q37 -22 62 -63q33 -58 33 -145v-90
q0 -87 -33 -145q-24 -41 -62 -63q-35 -20 -82 -20q-44 0 -77 19q-36 21 -59 61q-3 4 -5 9v-81h-62zM126 220q0 -69 26 -113q17 -30 43 -45q24 -14 56 -14q34 0 60 15q28 16 46 47q25 44 25 110v90q0 66 -25 110q-18 31 -46 47q-26 15 -60 15q-32 0 -56 -14q-26 -15 -43 -45
q-26 -44 -26 -113v-90z" />
    <glyph glyph-name="uni0180" unicode="&#x180;" 
d="M19 594v56h45v85h62v-85h124v-56h-124v-145q2 5 5 9q23 40 59 61q33 19 77 19q47 0 82 -20q37 -22 62 -63q33 -58 33 -145v-90q0 -87 -33 -145q-24 -41 -62 -63q-35 -20 -82 -20q-44 0 -77 19q-36 21 -59 61q-3 4 -5 9v-81h-62v594h-45zM126 220q0 -69 26 -113
q17 -30 43 -45q24 -14 56 -14q34 0 60 15q28 16 46 47q25 44 25 110v90q0 66 -25 110q-18 31 -46 47q-26 15 -60 15q-32 0 -56 -14q-26 -15 -43 -45q-26 -44 -26 -113v-90z" />
    <glyph glyph-name="uni1E03" unicode="&#x1e03;" 
d="M64 0v735h62v-286q2 5 5 9q23 40 59 61q33 19 77 19q47 0 82 -20q37 -22 62 -63q33 -58 33 -145v-90q0 -87 -33 -145q-24 -41 -62 -63q-35 -20 -82 -20q-44 0 -77 19q-36 21 -59 61q-3 4 -5 9v-81h-62zM126 220q0 -69 26 -113q17 -30 43 -45q24 -14 56 -14q34 0 60 15
q28 16 46 47q25 44 25 110v90q0 66 -25 110q-18 31 -46 47q-26 15 -60 15q-32 0 -56 -14q-26 -15 -43 -45q-26 -44 -26 -113v-90zM228 685q0 23 13.5 36.5t36.5 13.5t36.5 -13.5t13.5 -36.5t-13.5 -36.5t-36.5 -13.5t-36.5 13.5t-13.5 36.5z" />
    <glyph glyph-name="uni0183" unicode="&#x183;" 
d="M64 0v735h335v-56h-273v-230q2 5 5 9q23 40 59 61q33 19 77 19q47 0 82 -20q37 -22 62 -63q33 -58 33 -145v-90q0 -87 -33 -145q-24 -41 -62 -63q-35 -20 -82 -20q-44 0 -77 19q-36 21 -59 61q-3 4 -5 9v-81h-62zM126 220q0 -69 26 -113q17 -30 43 -45q24 -14 56 -14
q34 0 60 15q28 16 46 47q25 44 25 110v90q0 66 -25 110q-18 31 -46 47q-26 15 -60 15q-32 0 -56 -14q-26 -15 -43 -45q-26 -44 -26 -113v-90z" />
    <glyph glyph-name="uni0185" unicode="&#x185;" 
d="M8 679l56 56h62v-286q2 5 5 9q23 40 59 61q33 19 77 19q47 0 82 -20q37 -22 62 -63q33 -58 33 -145v-90q0 -87 -33 -145q-24 -41 -62 -63q-35 -20 -82 -20q-44 0 -77 19q-36 21 -59 61q-3 4 -5 9v-81h-62v623zM126 220q0 -69 26 -113q17 -30 43 -45q24 -14 56 -14
q34 0 60 15q28 16 46 47q25 44 25 110v90q0 66 -25 110q-18 31 -46 47q-26 15 -60 15q-32 0 -56 -14q-26 -15 -43 -45q-26 -44 -26 -113v-90z" />
    <glyph glyph-name="D" unicode="D" 
d="M64 0v735h158q63 0 110 -27q46 -26 75 -77q37 -65 37 -159v-209q0 -95 -37 -159q-29 -50 -75 -77q-48 -27 -110 -27h-158zM126 56h96q42 0 75 19t55 57q30 52 30 131v209q0 79 -30 131q-22 37 -55 57q-33 19 -75 19h-96v-623z" />
    <glyph glyph-name="Eth" unicode="&#xd0;" 
d="M19 354v56h45v325h158q63 0 110 -27q46 -26 75 -77q37 -65 37 -159v-209q0 -95 -37 -159q-29 -50 -75 -77q-48 -27 -110 -27h-158v354h-45zM126 56h96q42 0 75 19t55 57q30 52 30 131v209q0 79 -30 131q-22 37 -55 57q-33 19 -75 19h-96v-269h137v-56h-137v-298z" />
    <glyph glyph-name="Dcroat" unicode="&#x110;" 
d="M19 354v56h45v325h158q63 0 110 -27q46 -26 75 -77q37 -65 37 -159v-209q0 -95 -37 -159q-29 -50 -75 -77q-48 -27 -110 -27h-158v354h-45zM126 56h96q42 0 75 19t55 57q30 52 30 131v209q0 79 -30 131q-22 37 -55 57q-33 19 -75 19h-96v-269h137v-56h-137v-298z" />
    <glyph glyph-name="uni0189" unicode="&#x189;" 
d="M19 354v56h45v325h158q63 0 110 -27q46 -26 75 -77q37 -65 37 -159v-209q0 -95 -37 -159q-29 -50 -75 -77q-48 -27 -110 -27h-158v354h-45zM126 56h96q42 0 75 19t55 57q30 52 30 131v209q0 79 -30 131q-22 37 -55 57q-33 19 -75 19h-96v-269h137v-56h-137v-298z" />
    <glyph glyph-name="uni018A" unicode="&#x18a;" 
d="M-20 565q0 85 27 132q12 21 29 31q12 7 28 7h158q63 0 110 -27q46 -26 75 -77q37 -65 37 -159v-209q0 -95 -37 -159q-29 -50 -75 -77q-48 -27 -110 -27h-158v679q-3 0 -5 -2q-17 -17 -17 -112h-62zM126 56h96q42 0 75 19t55 57q30 52 30 131v209q0 79 -30 131
q-22 37 -55 57q-33 19 -75 19h-96v-623z" />
    <glyph glyph-name="d" unicode="d" 
d="M56 220v90q0 87 33 145q24 41 62 63q35 20 82 20q44 0 77 -19q36 -21 59 -61q3 -4 5 -9v286h62v-735h-62v81q-2 -5 -5 -9q-23 -40 -59 -61q-16 -9 -35.5 -14t-41.5 -5q-47 0 -82 20q-37 22 -62 63q-33 58 -33 145zM118 220q0 -66 25 -110q18 -31 46 -47q26 -15 60 -15
q32 0 56 14q26 15 43 45q26 44 26 113v90q0 69 -26 113q-17 30 -43 45q-24 14 -56 14q-34 0 -60 -15q-28 -16 -46 -47q-25 -44 -25 -110v-90z" />
    <glyph glyph-name="dcroat" unicode="&#x111;" 
d="M56 220v90q0 87 33 145q24 41 62 63q35 20 82 20q44 0 77 -19q36 -21 59 -61q3 -4 5 -9v145h-124v56h124v85h62v-85h45v-56h-45v-594h-62v81q-2 -5 -5 -9q-23 -40 -59 -61q-33 -19 -77 -19q-47 0 -82 20q-37 22 -62 63q-33 58 -33 145zM118 220q0 -66 25 -110
q18 -31 46 -47q26 -15 60 -15q32 0 56 14q26 15 43 45q26 44 26 113v90q0 69 -26 113q-17 30 -43 45q-24 14 -56 14q-34 0 -60 -15q-28 -16 -46 -47q-25 -44 -25 -110v-90z" />
    <glyph glyph-name="dcaron" unicode="&#x10f;" 
d="M56 220v90q0 92 34 150q23 40 57 60q31 18 72 18q38 0 67 -17q33 -19 55 -57l8 -14v285h62v-735h-62v80l-8 -14q-22 -38 -55 -57q-14 -8 -31 -12.5t-36 -4.5q-40 0 -72 18q-35 20 -57 60q-34 59 -34 150zM118 220q0 -71 26 -115q17 -29 42 -44q22 -13 51 -13q26 0 46 11
q23 13 40 42q26 45 26 119v90q0 74 -26 119q-16 28 -40 42q-20 11 -46 11q-29 0 -51 -13q-25 -15 -42 -44q-26 -45 -26 -115v-90zM440 582q30 41 38 97q-14 2 -23 11q-11 11 -11 30.5t11 31t31 11.5t31 -11t11 -31q0 -99 -50 -165z" />
    <glyph glyph-name="uni0221" unicode="&#x221;" 
d="M56 220v90q0 96 35 156q22 38 54 56q28 16 63 16q34 0 59 -15q30 -17 52 -54q3 -6 6 -11v277h62v-554q16 3 33 4q31 0 53 -13q17 -10 28 -27q14 -25 13 -57q0 -31 -13 -54q-10 -18 -29 -28q-23 -14 -53 -14q-26 0 -46 12t-32 33q-9 16 -13 41q-4 -9 -9 -17
q-20 -35 -50 -53q-2 -4 -4 -7q-27 -46 -39 -98l-61 14q10 39 28 76q-26 3 -48 15q-32 19 -54 56q-35 60 -35 156zM118 220q0 -75 27 -121q16 -27 38 -40q17 -11 40 -11q43 67 95 103q6 31 7 69v90q0 79 -27 125q-15 25 -35 38q-16 9 -38 9q-23 0 -42 -11q-22 -13 -38 -40
q-26 -46 -27 -121v-90zM387 99q0 -30 12 -42q9 -9 20 -9q13 0 22 9q11 11 11 31.5t-10 30.5t-27 10q-13 0 -28 -6v-24z" />
    <glyph glyph-name="uni0257" unicode="&#x257;" 
d="M56 220v90q0 87 33 145q24 41 62 63q35 20 82 20q44 0 77 -19q36 -21 59 -61q3 -4 5 -9v81q0 55 23 95q22 37 61 60q48 28 117 28v-56q-47 0 -81 -19q-58 -34 -58 -108v-530h-62v81q-2 -5 -5 -9q-23 -40 -59 -61q-33 -19 -77 -19q-47 0 -82 20q-37 22 -62 63
q-33 58 -33 145zM118 220q0 -66 25 -110q18 -31 46 -47q26 -15 60 -15q32 0 56 14q26 15 43 45q26 44 26 113v90q0 69 -26 113q-17 30 -43 45q-24 14 -56 14q-34 0 -60 -15q-28 -16 -46 -47q-25 -44 -25 -110v-90z" />
    <glyph glyph-name="uni1E0B" unicode="&#x1e0b;" 
d="M56 220v90q0 87 33 145q24 41 62 63q35 20 82 20q44 0 77 -19q36 -21 59 -61q3 -4 5 -9v286h62v-735h-62v81q-2 -5 -5 -9q-23 -40 -59 -61q-16 -9 -35.5 -14t-41.5 -5q-47 0 -82 20q-37 22 -62 63q-33 58 -33 145zM118 220q0 -66 25 -110q18 -31 46 -47q26 -15 60 -15
q32 0 56 14q26 15 43 45q26 44 26 113v90q0 69 -26 113q-17 30 -43 45q-24 14 -56 14q-34 0 -60 -15q-28 -16 -46 -47q-25 -44 -25 -110v-90zM172 685q0 23 13.5 36.5t36.5 13.5t36.5 -13.5t13.5 -36.5t-13.5 -36.5t-36.5 -13.5t-36.5 13.5t-13.5 36.5z" />
    <glyph glyph-name="uni018C" unicode="&#x18c;" 
d="M56 220v90q0 87 33 145q24 41 62 63q35 20 82 20q44 0 77 -19q36 -21 59 -61q3 -4 5 -9v230h-273v56h335v-735h-62v81q-2 -5 -5 -9q-23 -40 -59 -61q-33 -19 -77 -19q-47 0 -82 20q-37 22 -62 63q-33 58 -33 145zM118 220q0 -66 25 -110q18 -31 46 -47q26 -15 60 -15
q32 0 56 14q26 15 43 45q26 44 26 113v90q0 69 -26 113q-17 30 -43 45q-24 14 -56 14q-34 0 -60 -15q-28 -16 -46 -47q-25 -44 -25 -110v-90z" />
    <glyph glyph-name="P" unicode="P" 
d="M80 0v735h168q60 0 104 -25q40 -23 64 -65q28 -49 28 -118.5t-28 -118.5q-24 -41 -64 -64q-44 -25 -104 -26h-106v-318h-62zM142 374h106q76 0 113 62q21 37 21 90.5t-21 90.5q-36 62 -113 62h-106v-305z" />
    <glyph glyph-name="Rho" unicode="&#x3a1;" 
d="M80 0v735h168q60 0 104 -25q40 -23 64 -65q28 -49 28 -118.5t-28 -118.5q-24 -41 -64 -64q-44 -25 -104 -26h-106v-318h-62zM142 374h106q76 0 113 62q21 37 21 90.5t-21 90.5q-36 62 -113 62h-106v-305z" />
    <glyph glyph-name="afii10034" unicode="&#x420;" 
d="M80 0v735h168q60 0 104 -25q40 -23 64 -65q28 -49 28 -118.5t-28 -118.5q-24 -41 -64 -64q-44 -25 -104 -26h-106v-318h-62zM142 374h106q76 0 113 62q21 37 21 90.5t-21 90.5q-36 62 -113 62h-106v-305z" />
    <glyph glyph-name="uni01A4" unicode="&#x1a4;" 
d="M-4 565q0 85 27 132q12 21 29 31q12 7 28 7h168q60 0 104 -25q40 -23 64 -65q28 -49 28 -118.5t-28 -118.5q-24 -41 -64 -64q-44 -25 -104 -26h-106v-318h-62v679q-3 0 -5 -2q-17 -17 -17 -112h-62zM142 374h106q76 0 113 62q21 37 21 90.5t-21 90.5q-36 62 -113 62h-106
v-305z" />
    <glyph glyph-name="p" unicode="p" 
d="M64 -205v735h62v-81q2 5 5 9q23 40 59 61q33 19 77 19q47 0 82 -20q37 -22 62 -63q33 -58 33 -145v-90q0 -87 -33 -145q-24 -41 -62 -63q-35 -20 -82 -20q-44 0 -77 19q-36 21 -59 61q-3 4 -5 9v-286h-62zM126 220q0 -69 26 -113q17 -30 43 -45q24 -14 56 -14q34 0 60 15
q28 16 46 47q25 44 25 110v90q0 66 -25 110q-18 31 -46 47q-26 15 -60 15q-32 0 -56 -14q-26 -15 -43 -45q-26 -44 -26 -113v-90z" />
    <glyph glyph-name="afii10082" unicode="&#x440;" 
d="M64 -205v735h62v-81q2 5 5 9q23 40 59 61q33 19 77 19q47 0 82 -20q37 -22 62 -63q33 -58 33 -145v-90q0 -87 -33 -145q-24 -41 -62 -63q-35 -20 -82 -20q-44 0 -77 19q-36 21 -59 61q-3 4 -5 9v-286h-62zM126 220q0 -69 26 -113q17 -30 43 -45q24 -14 56 -14q34 0 60 15
q28 16 46 47q25 44 25 110v90q0 66 -25 110q-18 31 -46 47q-26 15 -60 15q-32 0 -56 -14q-26 -15 -43 -45q-26 -44 -26 -113v-90z" />
    <glyph glyph-name="uni01A5" unicode="&#x1a5;" 
d="M64 -205v720q0 83 33 139q25 43 64.5 66t93.5 23t94 -23t65 -66q19 -33 27 -74l-59 -18q-6 35 -22 63q-18 31 -45 47q-26 15 -60 15t-59 -15q-27 -16 -44 -46q-25 -44 -26 -111v-66q2 5 5 9q23 40 59 61q33 19 77 19q47 0 82 -20q37 -22 62 -63q33 -58 33 -145v-90
q0 -87 -33 -145q-24 -41 -62 -63q-35 -20 -82 -20q-44 0 -77 19q-36 21 -59 61q-3 4 -5 9v-286h-62zM126 220q0 -69 26 -113q17 -30 43 -45q24 -14 56 -14q34 0 60 15q28 16 46 47q25 44 25 110v90q0 66 -25 110q-18 31 -46 47q-26 15 -60 15q-32 0 -56 -14q-26 -15 -43 -45
q-26 -44 -26 -113v-90z" />
    <glyph glyph-name="rho" unicode="&#x3c1;" 
d="M56 -205v515q0 82 32 138q25 43 66 66.5t96 23.5t96 -23.5t66 -66.5q32 -56 32 -138v-90q0 -82 -32 -138q-25 -43 -66 -66.5t-96 -23.5t-96 24q-20 11 -36 27v-248h-62zM118 220q0 -66 25 -110q18 -31 46 -47q26 -15 61 -15t61 15q28 16 46 47q25 44 25 110v90
q0 66 -25 110q-18 31 -46 47q-26 15 -61 15t-61 -15q-28 -16 -46 -47q-25 -44 -25 -110v-90z" />
    <glyph glyph-name="R" unicode="R" 
d="M64 0v735h184q60 0 104 -25q40 -23 64 -65q28 -49 28 -118.5t-28 -118.5q-24 -41 -64 -64q-22 -13 -48 -19q38 -52 66 -102q74 -127 74 -223h-62q0 85 -65 196q-34 58 -83 122h-108v-318h-62zM126 374h122q76 0 113 62q21 37 21 90.5t-21 90.5q-36 62 -113 62h-122v-305z
" />
    <glyph glyph-name="uni0280" unicode="&#x280;" 
d="M64 0v530h230q46 0 80 -20q30 -18 49 -49q21 -37 21 -89.5t-21 -89.5q-18 -32 -49 -49q-24 -14 -54 -18q61 -63 93 -116q31 -54 31 -99h-62q0 35 -25 78q-35 61 -120 136h-111v-214h-62zM126 270h168q50 0 73 41q14 25 14.5 61t-14.5 61q-24 41 -73 41h-168v-204z" />
    <glyph glyph-name="uni01A6" unicode="&#x1a6;" 
d="M64 0v735h62v-110h131q57 0 100 -24q38 -22 60 -62q27 -46 27 -112.5t-27 -113.5q-23 -39 -60 -61q-26 -15 -58 -20q148 -259 148 -437h-62q0 167 -142 414q-6 10 -12 19h-105v-228h-62zM126 284h131q71 0 105 58q20 34 20 84.5t-20 84.5q-33 58 -105 58h-131v-285z" />
    <glyph glyph-name="afii10049" unicode="&#x42f;" 
d="M56 0q0 96 74 223q28 49 66 102q-26 6 -48 19q-40 23 -64 64q-28 49 -28 119t28 118q24 41 64 65q44 25 104 25h168v-735h-62v318h-92q-50 -64 -83 -122q-65 -112 -65 -196h-62zM118 526.5q0 -53.5 21 -90.5q36 -62 113 -62h106v305h-106q-76 0 -113 -62
q-21 -37 -21 -90.5z" />
    <glyph glyph-name="afii10097" unicode="&#x44f;" 
d="M56 0q0 45 31 99t93 116q-30 4 -54 18q-30 18 -49 49q-21 37 -21 89.5t21 89.5q18 32 49 49q34 20 80 20h214v-530h-62v214h-95q-84 -74 -120 -136q-25 -43 -25 -78h-62zM118.5 372q-0.5 -36 14.5 -61q24 -41 73 -41h152v204h-152q-50 0 -73 -41q-14 -25 -14.5 -61z" />
    <glyph glyph-name="uni0281" unicode="&#x281;" 
d="M80 0v530h62v-214h95q84 74 120 136q25 43 25 78h62q0 -45 -31 -99t-93 -116q30 -4 54 -18q30 -18 49 -49q21 -37 21 -89.5t-21 -89.5q-18 -32 -49 -49q-34 -20 -80 -20h-214zM142 56h152q50 0 73 41q14 25 14.5 61t-14.5 61q-24 41 -73 41h-152v-204z" />
    <glyph glyph-name="r" unicode="r" 
d="M124 0v530h62v-105q8 21 18 40q23 39 55 58q27 15 61 15q37 0 68.5 -18t49.5 -50q8 -14 13 -30l-58 -26q-4 14 -11 27q-12 22 -31 32q-15 9 -35 9q-30 0 -53 -13q-27 -16 -46 -48q-31 -53 -31 -140v-281h-62z" />
    <glyph glyph-name="uni0279" unicode="&#x279;" 
d="M49 90l58 26q4 -14 11 -27q12 -22 31 -32q15 -9 35 -9q30 0 53 13q27 16 46 48q31 53 31 140v281h62v-530h-62v105q-8 -21 -18 -40q-23 -39 -55 -58q-27 -15 -61 -15q-37 0 -68.5 18t-49.5 50q-8 14 -13 30z" />
    <glyph glyph-name="uni027C" unicode="&#x27c;" 
d="M124 -205v735h62v-105q8 21 18 40q23 39 55 58q27 15 61 15q37 0 68.5 -18t49.5 -50q8 -14 13 -30l-58 -26q-4 14 -11 27q-12 22 -31 32q-15 9 -35 9q-30 0 -53 -13q-27 -16 -46 -48q-31 -53 -31 -140v-486h-62z" />
    <glyph glyph-name="uni027A" unicode="&#x27a;" 
d="M49 90l58 26q4 -14 11 -27q12 -22 31 -32q15 -9 35 -9q30 0 53 13q27 16 46 48q31 53 31 140v486h62v-735h-62v105q-8 -21 -18 -40q-23 -39 -55 -58q-27 -15 -61 -15q-37 0 -68.5 18t-49.5 50q-8 14 -13 30z" />
    <glyph glyph-name="uni027D" unicode="&#x27d;" 
d="M124 0v530h62v-105q8 21 18 40q23 39 55 58q27 15 61 15q37 0 68.5 -18t49.5 -50q8 -14 13 -30l-58 -26q-4 14 -11 27q-12 22 -31 32q-15 9 -35 9q-30 0 -53 -13q-27 -16 -46 -48q-31 -53 -31 -140v-281q0 -50 15 -76q13 -22 34 -34q29 -17 90 -17v-56q-88 0 -130 24
q-31 18 -50 50q-21 37 -21 109z" />
    <glyph glyph-name="uni027B" unicode="&#x27b;" 
d="M49 90l58 26q4 -14 11 -27q12 -22 31 -32q15 -9 35 -9q30 0 53 13q27 16 46 48q31 53 31 140v281h62v-530q0 -50 15 -76q13 -22 34 -34q29 -17 90 -17v-56q-88 0 -130 24q-31 18 -50 50q-21 37 -21 109v105q-8 -21 -18 -40q-23 -39 -55 -58q-27 -15 -61 -15
q-37 0 -68.5 18t-49.5 50q-8 14 -13 30z" />
    <glyph glyph-name="uni027E" unicode="&#x27e;" 
d="M124 0v310q0 86 33 144q24 42 62 63q36 21 84 21t84 -21q44 -26 69 -77l-56 -25q-17 37 -46 54q-22 13 -51 13q-28 0 -50 -12q-25 -14 -41 -43q-26 -45 -26 -117v-310h-62z" />
    <glyph glyph-name="uni2C79" unicode="&#x2c79;" 
d="M175 657v56q88 0 130 -24q31 -18 50 -50q21 -37 21 -109v-8h-62v8q0 50 -15 76q-13 22 -34 34q-29 17 -90 17zM49 90l58 26q4 -14 11 -27q12 -22 31 -32q15 -9 35 -9q30 0 53 13q27 16 46 48q31 53 31 140v281h62v-530h-62v105q-8 -21 -18 -40q-23 -39 -55 -58
q-27 -15 -61 -15q-37 0 -68.5 18t-49.5 50q-8 14 -13 30z" />
    <glyph glyph-name="C" unicode="C" 
d="M56 195v345q0 67 28 115q23 40 62 63q43 25 103.5 25t103.5 -25q40 -23 63 -63q20 -34 25 -75l-61 -11q-4 32 -19 57q-17 28 -44 44q-29 16 -67.5 16.5t-67.5 -15.5q-27 -16 -43 -45q-21 -36 -21 -86v-345q0 -51 21 -86q16 -28 43 -45q28 -16 67.5 -16t67.5 16
q27 16 44 45q15 26 19 57l61 -11q-5 -41 -25 -75q-23 -40 -63 -63q-43 -25 -103 -25t-104 25q-40 23 -62 63q-28 48 -28 115z" />
    <glyph glyph-name="afii10035" unicode="&#x421;" 
d="M56 195v345q0 67 28 115q23 40 62 63q43 25 103.5 25t103.5 -25q40 -23 63 -63q20 -34 25 -75l-61 -11q-4 32 -19 57q-17 28 -44 44q-29 16 -67.5 16.5t-67.5 -15.5q-27 -16 -43 -45q-21 -36 -21 -86v-345q0 -51 21 -86q16 -28 43 -45q28 -16 67.5 -16t67.5 16
q27 16 44 45q15 26 19 57l61 -11q-5 -41 -25 -75q-23 -40 -63 -63q-43 -25 -103 -25t-104 25q-40 23 -62 63q-28 48 -28 115z" />
    <glyph glyph-name="uni03F9" unicode="&#x3f9;" 
d="M56 195v345q0 67 28 115q23 40 62 63q43 25 103.5 25t103.5 -25q40 -23 63 -63q20 -34 25 -75l-61 -11q-4 32 -19 57q-17 28 -44 44q-29 16 -67.5 16.5t-67.5 -15.5q-27 -16 -43 -45q-21 -36 -21 -86v-345q0 -51 21 -86q16 -28 43 -45q28 -16 67.5 -16t67.5 16
q27 16 44 45q15 26 19 57l61 -11q-5 -41 -25 -75q-23 -40 -63 -63q-43 -25 -103 -25t-104 25q-40 23 -62 63q-28 48 -28 115z" />
    <glyph glyph-name="c" unicode="c" 
d="M56 220v90q0 81 32 137q25 43 66 67t97 24t98 -24q41 -24 66 -67q19 -33 26 -72l-59 -18q-6 34 -22 62q-18 31 -46 48q-27 15 -63 15q-35 0 -62 -15q-28 -16 -46 -48q-25 -44 -25 -109v-90q0 -66 25 -109q18 -31 46 -48q27 -15 62 -15q36 0 63 15q28 16 46 48
q16 27 22 62l59 -18q-7 -39 -26 -72q-25 -43 -66 -67t-97.5 -24t-97.5 24t-66 67q-32 56 -32 137z" />
    <glyph glyph-name="afii10083" unicode="&#x441;" 
d="M56 220v90q0 81 32 137q25 43 66 67t97 24t98 -24q41 -24 66 -67q19 -33 26 -72l-59 -18q-6 34 -22 62q-18 31 -46 48q-27 15 -63 15q-35 0 -62 -15q-28 -16 -46 -48q-25 -44 -25 -109v-90q0 -66 25 -109q18 -31 46 -48q27 -15 62 -15q36 0 63 15q28 16 46 48
q16 27 22 62l59 -18q-7 -39 -26 -72q-25 -43 -66 -67t-97.5 -24t-97.5 24t-66 67q-32 56 -32 137z" />
    <glyph glyph-name="uni03F2" unicode="&#x3f2;" 
d="M56 220v90q0 81 32 137q25 43 66 67t97 24t98 -24q41 -24 66 -67q19 -33 26 -72l-59 -18q-6 34 -22 62q-18 31 -46 48q-27 15 -63 15q-35 0 -62 -15q-28 -16 -46 -48q-25 -44 -25 -109v-90q0 -66 25 -109q18 -31 46 -48q27 -15 62 -15q36 0 63 15q28 16 46 48
q16 27 22 62l59 -18q-7 -39 -26 -72q-25 -43 -66 -67t-97.5 -24t-97.5 24t-66 67q-32 56 -32 137z" />
    <glyph glyph-name="uni0186" unicode="&#x186;" 
d="M59 155l61 11q4 -32 19 -57q17 -29 44 -45q29 -16 67.5 -16t67.5 16q27 16 43 45q21 36 21 86v345q0 51 -21 86q-16 28 -43 45q-28 16 -68 16q-39 -1 -67 -17q-27 -16 -44 -44q-15 -26 -19 -57l-61 11q5 41 25 75q23 40 63 63q43 25 103 25t104 -25q40 -23 62 -63
q28 -48 28 -115v-345q0 -67 -28 -115q-23 -40 -62 -63q-43 -25 -103.5 -25t-103.5 25q-40 23 -63 63q-20 34 -25 75z" />
    <glyph glyph-name="uni0254" unicode="&#x254;" 
d="M59 155l59 18q6 -34 22 -62q18 -31 46 -48q27 -15 63 -15q35 0 62 15q28 16 46 48q25 44 25 109v90q0 66 -25 109q-18 31 -46 48q-27 15 -62 15q-36 0 -63 -15q-28 -16 -46 -48q-16 -27 -22 -62l-59 18q7 39 26 72q25 43 66 67t97.5 24t97.5 -24t66 -67q32 -56 32 -137
v-90q0 -81 -32 -137q-25 -43 -66 -67t-97 -24t-98 24q-41 24 -66 67q-19 33 -26 72z" />
    <glyph glyph-name="uni0297" unicode="&#x297;" 
d="M56 -10v345q0 67 28 115q23 40 62 63q43 25 103.5 25t103.5 -25q40 -23 63 -63q20 -34 25 -75l-61 -11q-4 32 -19 57q-17 28 -44 44q-29 16 -67.5 16.5t-67.5 -15.5q-27 -16 -43 -45q-21 -36 -21 -86v-345q0 -51 21 -86q16 -28 43 -45q28 -16 67.5 -16t67.5 16
q27 16 44 45q15 26 19 57l61 -11q-5 -41 -25 -75q-23 -40 -63 -63q-43 -25 -103 -25t-104 25q-40 23 -62 63q-28 48 -28 115z" />
    <glyph glyph-name="uni0187" unicode="&#x187;" 
d="M56 195v345q0 67 28 115q23 40 62 63q43 25 103.5 25t103.5 -25q14 -8 26 -18v35q0 55 23 95q22 37 61 60q48 28 117 28v-56q-47 0 -81 -19q-58 -34 -58 -108v-155l-61 -11q-4 32 -19 57q-17 28 -44 44q-29 16 -67.5 16.5t-67.5 -15.5q-27 -16 -43 -45q-21 -36 -21 -86
v-345q0 -51 21 -86q16 -28 43 -45q28 -16 67.5 -16t67.5 16q27 16 44 45q15 26 19 57l61 -11q-5 -41 -25 -75q-23 -40 -63 -63q-43 -25 -103 -25t-104 25q-40 23 -62 63q-28 48 -28 115z" />
    <glyph glyph-name="uni0188" unicode="&#x188;" 
d="M56 220v90q0 81 32 137q25 43 66 67t97 24t98 -24q16 -9 30 -22v38q0 55 23 95q22 37 61 60q48 28 117 28v-56q-47 0 -81 -19q-58 -34 -58 -108v-155l-59 -18q-6 34 -22 62q-18 31 -46 48q-27 15 -63 15q-35 0 -62 -15q-28 -16 -46 -48q-25 -44 -25 -109v-90
q0 -66 25 -109q18 -31 46 -48q27 -15 62 -15q36 0 63 15q28 16 46 48q16 27 22 62l59 -18q-7 -39 -26 -72q-25 -43 -66 -67t-97.5 -24t-97.5 24t-66 67q-32 56 -32 137z" />
    <glyph glyph-name="uniA792" unicode="&#xa792;" 
d="M19 354v56h37v130q0 67 28 115q23 40 62 63q43 25 103.5 25t103.5 -25q40 -23 63 -63q20 -34 25 -75l-61 -11q-4 32 -19 57q-17 28 -44 44q-29 16 -67.5 16.5t-67.5 -15.5q-27 -16 -43 -45q-21 -36 -21 -86v-130h145v-56h-145v-159q0 -51 21 -86q16 -28 43 -45
q28 -16 67.5 -16t67.5 16q27 16 44 45q15 26 19 57l61 -11q-5 -41 -25 -75q-23 -40 -63 -63q-43 -25 -103 -25t-104 25q-40 23 -62 63q-28 48 -28 115v159h-37z" />
    <glyph glyph-name="uniA793" unicode="&#xa793;" 
d="M19 248v56h37v6q0 81 32 137q25 43 66 67t97 24t98 -24q41 -24 66 -67q19 -33 26 -72l-59 -18q-6 34 -22 62q-18 31 -46 48q-27 15 -63 15q-35 0 -62 -15q-28 -16 -46 -48q-25 -44 -25 -109v-6h145v-56h-145v-28q0 -66 25 -109q18 -31 46 -48q27 -15 62 -15q36 0 63 15
q28 16 46 48q16 27 22 62l59 -18q-7 -39 -26 -72q-25 -43 -66 -67t-97.5 -24t-97.5 24t-66 67q-32 56 -32 137v28h-37z" />
    <glyph glyph-name="uni0255" unicode="&#x255;" 
d="M20 -13q17 69 54 132q-18 44 -18 101v90q0 77 31 130q24 42 65 66q42 24 99.5 24t99.5 -24q41 -23 66 -66q17 -30 24 -65l-59 -18q-6 29 -20 54q-18 31 -46 47t-64 16q-37 0 -65 -16t-45 -46q-24 -41 -24 -102v-90q0 -17 2 -33q35 42 73 63q43 25 93 25q48 0 87 -22
q33 -19 51 -51t18 -69q0 -38 -19 -71q-17 -30 -46 -47q-40 -23 -101 -23q-69 0 -118 28q-27 15 -47 38q-19 -40 -30 -84zM144 117q19 -31 50 -49q34 -20 82 -20q68 0 93 44q11 19 11 41t-11 42q-11 19 -31 31q-23 13 -52 13q-32 0 -61 -16q-41 -24 -81 -86z" />
    <glyph glyph-name="afii10047" unicode="&#x42d;" 
d="M59 155l61 11q4 -32 19 -57q17 -29 44 -45q29 -16 67.5 -16t67.5 16q27 16 43 45q21 36 21 86v145h-225v56h225v144q0 51 -21 86q-16 28 -43 45q-28 16 -68 16q-39 -1 -67 -17q-27 -16 -44 -44q-15 -26 -19 -57l-61 11q5 41 25 75q23 40 63 63q43 25 103 25t104 -25
q40 -23 62 -63q28 -48 28 -115v-345q0 -67 -28 -115q-23 -40 -62 -63q-43 -25 -103.5 -25t-103.5 25q-40 23 -63 63q-20 34 -25 75z" />
    <glyph glyph-name="afii10095" unicode="&#x44d;" 
d="M59 155l59 18q6 -34 22 -62q18 -31 46 -48q27 -15 63 -15q35 0 62 15q28 16 46 48q25 44 25 109v17h-225v56h225v17q0 66 -25 109q-18 31 -46 48q-27 15 -62 15q-36 0 -63 -15q-28 -16 -46 -48q-16 -27 -22 -62l-59 18q7 39 26 72q25 43 66 67t97.5 24t97.5 -24t66 -67
q32 -56 32 -137v-90q0 -81 -32 -137q-25 -43 -66 -67t-97 -24t-98 24q-41 24 -66 67q-19 33 -26 72z" />
    <glyph glyph-name="afii10053" unicode="&#x404;" 
d="M56 195v345q0 67 28 115q23 40 62 63q43 25 103.5 25t103.5 -25q40 -23 63 -63q20 -34 25 -75l-61 -11q-4 32 -19 57q-17 28 -44 44q-29 16 -67.5 16.5t-67.5 -15.5q-27 -16 -43 -45q-21 -36 -21 -86v-144h225v-56h-225v-145q0 -51 21 -86q16 -28 43 -45q28 -16 67.5 -16
t67.5 16q27 16 44 45q15 26 19 57l61 -11q-5 -41 -25 -75q-23 -40 -63 -63q-43 -25 -103 -25t-104 25q-40 23 -62 63q-28 48 -28 115z" />
    <glyph glyph-name="afii10101" unicode="&#x454;" 
d="M56 220v90q0 81 32 137q25 43 66 67t97 24t98 -24q41 -24 66 -67q19 -33 26 -72l-59 -18q-6 34 -22 62q-18 31 -46 48q-27 15 -63 15q-35 0 -62 -15q-28 -16 -46 -48q-25 -44 -25 -109v-17h225v-56h-225v-17q0 -66 25 -109q18 -31 46 -48q27 -15 62 -15q36 0 63 15
q28 16 46 48q16 27 22 62l59 -18q-7 -39 -26 -72q-25 -43 -66 -67t-97.5 -24t-97.5 24t-66 67q-32 56 -32 137z" />
    <glyph glyph-name="sigma" unicode="&#x3c3;" 
d="M56 220v90q0 82 32 138q25 43 65 66q42 24 97 24q30 0 63.5 -1.5t75 -3.5t63.5 -3v-56l-91 5q32 -21 52 -56q27 -47 27 -113v-90q0 -83 -32 -139q-25 -43 -65 -66q-39 -23 -93 -23q-55 0 -96 23.5t-66 66.5q-32 56 -32 138zM118 220q0 -66 25 -110q18 -31 46 -47
q26 -15 61 -15q33 0 58 14q27 16 44 46q25 44 26 112v90q0 68 -26 112q-18 30 -44 45q-25 15 -58 15q-35 0 -61 -15q-27 -16 -46 -47q-25 -44 -25 -110v-90z" />
    <glyph glyph-name="sigma1" unicode="&#x3c2;" 
d="M56 220v90q0 77 31 130q24 42 65 66q42 24 99.5 24t99.5 -24q41 -23 66 -66q17 -30 24 -65l-59 -18q-6 29 -20 54q-18 31 -46 47t-64 16q-37 0 -65 -16t-45 -46q-24 -41 -24 -102v-90q0 -60 24 -100q18 -31 47 -48q23 -13 64 -16q69 -5 112 -29q32 -19 48 -46
q15 -26 15 -56q0 -34 -15 -60q-16 -27 -46 -45q-43 -25 -109 -25h-1v56h1q45 0 73 16q18 10 27 26q8 14 8 32q0 16 -8.5 30.5t-24.5 23.5q-28 16 -96 22q-53 4 -84 22q-42 24 -66 67q-31 53 -31 130z" />
    <glyph glyph-name="G" unicode="G" 
d="M56 195v345q0 67 28 115q23 40 62 63q43 25 103.5 25t103.5 -25q40 -23 63 -63q20 -34 25 -75l-61 -11q-4 32 -19 57q-17 28 -44 44q-29 16 -67.5 16.5t-67.5 -15.5q-27 -16 -43 -45q-21 -36 -21 -86v-345q0 -51 21 -86q16 -29 43 -45q28 -16 67 -16q36 0 62 15t42 43
q21 36 21 89v145h-124v56h186v-201q0 -69 -28 -118q-23 -40 -61 -62q-41 -23 -98 -23q-60 0 -102 25q-40 23 -64 63q-27 48 -27 115z" />
    <glyph glyph-name="uni0262" unicode="&#x262;" 
d="M56 195v140q0 67 28 115q23 40 62 63q43 25 103.5 25t103.5 -25q40 -23 63 -63q20 -34 25 -75l-61 -11q-4 32 -19 57q-17 29 -44 45q-29 16 -67.5 16t-67.5 -16q-27 -16 -43 -45q-21 -36 -21 -86v-140q0 -51 21 -86q16 -29 43 -45q28 -16 67 -16q36 0 62 15t42 43
q21 36 21 89v39h-124v56h186v-95q0 -69 -28 -118q-23 -40 -61 -62q-41 -23 -98 -23q-60 0 -102 25q-40 23 -64 63q-27 48 -27 115z" />
    <glyph glyph-name="uni0193" unicode="&#x193;" 
d="M56 195v345q0 67 28 115q23 40 62 63q43 25 103.5 25t103.5 -25q14 -8 26 -18v35q0 55 23 95q22 37 61 60q48 28 117 28v-56q-47 0 -81 -19q-58 -34 -58 -108v-155l-61 -11q-4 32 -19 57q-17 28 -44 44q-29 16 -67.5 16.5t-67.5 -15.5q-27 -16 -43 -45q-21 -36 -21 -86
v-345q0 -51 21 -86q16 -29 43 -45q28 -16 67 -16q36 0 62 15t42 43q21 36 21 89v145h-124v56h186v-201q0 -69 -28 -118q-23 -40 -61 -62q-41 -23 -98 -23q-60 0 -102 25q-40 23 -64 63q-27 48 -27 115z" />
    <glyph glyph-name="uni029B" unicode="&#x29b;" 
d="M56 195v140q0 67 28 115q23 40 62 63q43 25 103.5 25t103.5 -25q14 -8 26 -18v35q0 55 23 95q22 37 61 60q48 28 117 28v-56q-47 0 -81 -19q-58 -34 -58 -108v-155l-61 -11q-4 32 -19 57q-17 29 -44 45q-29 16 -67.5 16t-67.5 -16q-27 -16 -43 -45q-21 -36 -21 -86v-140
q0 -51 21 -86q16 -29 43 -45q28 -16 67 -16q36 0 62 15t42 43q21 36 21 89v39h-124v56h186v-95q0 -69 -28 -118q-23 -40 -61 -62q-41 -23 -98 -23q-60 0 -102 25q-40 23 -64 63q-27 48 -27 115z" />
    <glyph glyph-name="uni01E4" unicode="&#x1e4;" 
d="M56 195v345q0 67 28 115q23 40 62 63q43 25 103.5 25t103.5 -25q40 -23 63 -63q20 -34 25 -75l-61 -11q-4 32 -19 57q-17 28 -44 44q-29 16 -67.5 16.5t-67.5 -15.5q-27 -16 -43 -45q-21 -36 -21 -86v-345q0 -51 21 -86q16 -29 43 -45q28 -16 67 -16q36 0 62 15t42 43
q17 29 20 68h-123v56h124v110h-124v56h186v-166h45v-56h-46q-4 -56 -27 -97q-23 -40 -61 -62q-41 -23 -98 -23q-60 0 -102 25q-40 23 -64 63q-27 48 -27 115z" />
    <glyph glyph-name="g.ss04" 
d="M46 -49q0 41 18 70q17 29 48 49q-14 11 -22 26q-12 21 -12 46t13 48q12 21 34 36q-29 20 -47 50q-22 38 -22 90.5t22 89.5q20 35 57 57q43 25 105 25q35 0 65 -8h155v-56l-71 3q8 -9 14 -21q22 -38 22 -90t-22 -90q-20 -35 -57 -56q-43 -25 -106 -25q-36 0 -66 8
q-15 -6 -26 -16q-15 -15 -15 -35t14 -34q20 -20 72 -21h55q67 0 113 -27q33 -19 51 -49q17 -30 17 -72q0 -43 -19 -76q-20 -34 -58 -56q-51 -30 -128 -30q-76 0 -127 29q-38 22 -57 57q-19 34 -20 78zM109 -49q0 -28 12 -50q13 -23 39 -37q36 -21 90 -21q56 0 92 21
q25 15 39 37q12 21 12 48q0 25 -11 44q-11 18 -31 30q-31 18 -77 18h-54q-40 0 -69 -17q-21 -12 -32 -31q-10 -18 -10 -42zM118 366.5q0 -35.5 15 -61.5q14 -24 38 -38q29 -16 69.5 -16t69.5 16q24 14 38 38q15 26 15 61.5t-15 61.5q-14 24 -38 38q-24 13 -56 15l-14 1
q-41 0 -69 -16q-24 -14 -38 -38q-15 -26 -15 -61.5z" />
    <glyph glyph-name="g.ss05" 
d="M56 220v90q0 87 33 145q24 41 62 63q35 20 82 20q44 0 77 -19q36 -21 59 -61q3 -4 5 -9v81h62v-515q0 -81 -32 -136q-25 -43 -67 -68q-42 -24 -99 -24t-100 24q-41 24 -66 68q-7 12 -13 26l56 25q5 -12 11 -23q18 -31 46 -48q28 -16 66 -16q37 0 64 16q29 17 47 48
q25 43 25 108v66q-2 -5 -5 -9q-23 -40 -59 -61q-16 -9 -35.5 -14t-41.5 -5q-47 0 -82 20q-37 22 -62 63q-33 58 -33 145zM118 220q0 -66 25 -110q18 -31 46 -47q26 -15 60 -15q32 0 56 14q26 15 43 45q26 44 26 113v90q0 69 -26 113q-17 30 -43 45q-24 14 -56 14
q-34 0 -60 -15q-28 -16 -46 -47q-25 -44 -25 -110v-90z" />
    <glyph glyph-name="uni0261" unicode="&#x261;" 
d="M56 220v90q0 87 33 145q24 41 62 63q35 20 82 20q44 0 77 -19q36 -21 59 -61q3 -4 5 -9v81h62v-515q0 -81 -32 -136q-25 -43 -67 -68q-42 -24 -99 -24t-100 24q-41 24 -66 68q-7 12 -13 26l56 25q5 -12 11 -23q18 -31 46 -48q28 -16 66 -16q37 0 64 16q29 17 47 48
q25 43 25 108v66q-2 -5 -5 -9q-23 -40 -59 -61q-16 -9 -35.5 -14t-41.5 -5q-47 0 -82 20q-37 22 -62 63q-33 58 -33 145zM118 220q0 -66 25 -110q18 -31 46 -47q26 -15 60 -15q32 0 56 14q26 15 43 45q26 44 26 113v90q0 69 -26 113q-17 30 -43 45q-24 14 -56 14
q-34 0 -60 -15q-28 -16 -46 -47q-25 -44 -25 -110v-90z" />
    <glyph glyph-name="glyph317" 
d="M56 220v90q0 87 33 145q24 41 62 63q35 20 82 20q44 0 77 -19q36 -21 59 -61q3 -4 5 -9v81h62v-515q0 -81 -32 -136q-25 -43 -67 -68q-42 -24 -99 -24t-100 24q-41 24 -66 68q-7 12 -13 26l56 25q5 -12 11 -23q18 -31 46 -48q28 -16 66 -16q37 0 64 16q29 17 47 48
q25 43 25 108v66q-2 -5 -5 -9q-23 -40 -59 -61q-16 -9 -35.5 -14t-41.5 -5q-47 0 -82 20q-37 22 -62 63q-33 58 -33 145zM118 220q0 -66 25 -110q18 -31 46 -47q26 -15 60 -15q32 0 56 14q26 15 43 45q26 44 26 113v90q0 69 -26 113q-17 30 -43 45q-24 14 -56 14
q-34 0 -60 -15q-28 -16 -46 -47q-25 -44 -25 -110v-90z" />
    <glyph glyph-name="g" unicode="g" 
d="M46 -49q0 41 18 70q17 29 48 49q-14 11 -22 26q-12 21 -12 46t13 48q12 21 34 36q-29 20 -47 50q-22 38 -22 90.5t22 89.5q20 35 57 57q43 25 105 25q35 0 65 -8h155v-56l-71 3q8 -9 14 -21q22 -38 22 -90t-22 -90q-20 -35 -57 -56q-43 -25 -106 -25q-36 0 -66 8
q-15 -6 -26 -16q-15 -15 -15 -35t14 -34q20 -20 72 -21h55q67 0 113 -27q33 -19 51 -49q17 -30 17 -72q0 -43 -19 -76q-20 -34 -58 -56q-51 -30 -128 -30q-76 0 -127 29q-38 22 -57 57q-19 34 -20 78zM109 -49q0 -28 12 -50q13 -23 39 -37q36 -21 90 -21q56 0 92 21
q25 15 39 37q12 21 12 48q0 25 -11 44q-11 18 -31 30q-31 18 -77 18h-54q-40 0 -69 -17q-21 -12 -32 -31q-10 -18 -10 -42zM118 366.5q0 -35.5 15 -61.5q14 -24 38 -38q29 -16 69.5 -16t69.5 16q24 14 38 38q15 26 15 61.5t-15 61.5q-14 24 -38 38q-24 13 -56 15l-14 1
q-41 0 -69 -16q-24 -14 -38 -38q-15 -26 -15 -61.5z" />
    <glyph glyph-name="uni1D77" unicode="&#x1d77;" 
d="M40 -149l71 -3q-8 9 -14 21q-22 38 -22 90t22 90q20 35 57 56q43 25 106 25q36 0 66 -8q15 6 26 16q15 15 15 35t-14 34q-20 20 -72 21h-55q-67 0 -113 27q-33 19 -51 49q-17 30 -17 72q0 43 19 76q20 34 58 56q51 30 128 30q76 0 127 -29q38 -22 57 -57q19 -34 20 -78
q0 -41 -18 -70q-17 -29 -48 -49q14 -11 22 -26q12 -21 12 -46t-13 -48q-12 -21 -34 -36q29 -20 47 -50q22 -38 22 -90.5t-22 -89.5q-20 -35 -57 -57q-43 -25 -105 -25q-35 0 -65 8h-155v56zM107 376q0 -25 11 -44q11 -18 31 -30q31 -18 77 -18h54q40 0 69 17q21 12 32 31
q10 18 10 42q0 28 -12 50q-13 23 -39 37q-36 21 -90 21q-56 0 -92 -21q-25 -15 -39 -37q-12 -21 -12 -48zM137 -41.5q0 -35.5 15 -61.5q14 -24 38 -38q24 -13 56 -15l14 -1q41 0 69 16q24 14 38 38q15 26 15 61.5t-15 61.5q-14 24 -38 38q-29 16 -69.5 16t-69.5 -16
q-24 -14 -38 -38q-15 -26 -15 -61.5z" />
    <glyph glyph-name="uni0260" unicode="&#x260;" 
d="M56 220v90q0 87 33 145q24 41 62 63q35 20 82 20q44 0 77 -19q36 -21 59 -61q3 -4 5 -9v81q0 55 23 95q22 37 61 60q48 28 117 28v-56q-47 0 -81 -19q-58 -34 -58 -108v-515q0 -81 -32 -136q-25 -43 -67 -68q-42 -24 -99 -24t-100 24q-41 24 -66 68q-7 12 -13 26l56 25
q5 -12 11 -23q18 -31 46 -48q28 -16 66 -16q37 0 64 16q29 17 47 48q25 43 25 108v66q-2 -5 -5 -9q-23 -40 -59 -61q-33 -19 -77 -19q-47 0 -82 20q-37 22 -62 63q-33 58 -33 145zM118 220q0 -66 25 -110q18 -31 46 -47q26 -15 60 -15q32 0 56 14q26 15 43 45q26 44 26 113
v90q0 69 -26 113q-17 30 -43 45q-24 14 -56 14q-34 0 -60 -15q-28 -16 -46 -47q-25 -44 -25 -110v-90z" />
    <glyph glyph-name="uni01E5" unicode="&#x1e5;" 
d="M19 -32h28q3 30 17 53q17 29 48 49q-14 11 -22 26q-12 21 -12 46t13 48q12 21 34 36q-29 20 -47 50q-22 38 -22 90.5t22 89.5q20 35 57 57q43 25 105 25q35 0 65 -8h155v-56l-71 3q8 -9 14 -21q22 -38 22 -90t-22 -90q-20 -35 -57 -56q-43 -25 -106 -25q-36 0 -66 8
q-15 -6 -26 -16q-15 -15 -15 -35t14 -34q20 -20 72 -21h55q67 0 113 -27q33 -19 51 -49q13 -23 16 -53h27v-52h-29q-5 -23 -16 -43q-20 -34 -58 -56q-51 -30 -128 -30q-76 0 -127 29q-38 22 -57 57q-11 20 -16 43h-31v52zM110 -32h281q-2 14 -9 25q-11 18 -31 30
q-31 18 -77 18h-54q-40 0 -69 -17q-21 -12 -32 -31q-6 -11 -9 -25zM114 -84q3 -8 7 -15q13 -23 39 -37q36 -21 90 -21q56 0 92 21q25 15 39 37q4 7 7 15h-274zM118 366.5q0 -35.5 15 -61.5q14 -24 38 -38q29 -16 69.5 -16t69.5 16q24 14 38 38q15 26 15 61.5t-15 61.5
q-14 24 -38 38q-24 13 -56 15l-14 1q-41 0 -69 -16q-24 -14 -38 -38q-15 -26 -15 -61.5z" />
    <glyph glyph-name="O" unicode="O" 
d="M56 195v345q0 67 27 115q23 40 64 63q43 25 103 25t103 -25q40 -23 64 -63q27 -48 27 -115v-345q0 -67 -27 -115q-23 -40 -64 -63q-43 -25 -103 -25t-103 25q-40 23 -64 63q-27 48 -27 115zM118 195q0 -51 21 -86q16 -29 43 -45q28 -16 67.5 -16t68.5 16q27 16 43 45
q20 35 21 86v345q0 51 -21 86q-16 29 -43 45q-29 16 -68 16t-68 -16q-27 -16 -43 -45q-20 -35 -21 -86v-345z" />
    <glyph glyph-name="Omicron" unicode="&#x39f;" 
d="M56 195v345q0 67 27 115q23 40 64 63q43 25 103 25t103 -25q40 -23 64 -63q27 -48 27 -115v-345q0 -67 -27 -115q-23 -40 -64 -63q-43 -25 -103 -25t-103 25q-40 23 -64 63q-27 48 -27 115zM118 195q0 -51 21 -86q16 -29 43 -45q28 -16 67.5 -16t68.5 16q27 16 43 45
q20 35 21 86v345q0 51 -21 86q-16 29 -43 45q-29 16 -68 16t-68 -16q-27 -16 -43 -45q-20 -35 -21 -86v-345z" />
    <glyph glyph-name="afii10032" unicode="&#x41e;" 
d="M56 195v345q0 67 27 115q23 40 64 63q43 25 103 25t103 -25q40 -23 64 -63q27 -48 27 -115v-345q0 -67 -27 -115q-23 -40 -64 -63q-43 -25 -103 -25t-103 25q-40 23 -64 63q-27 48 -27 115zM118 195q0 -51 21 -86q16 -29 43 -45q28 -16 67.5 -16t68.5 16q27 16 43 45
q20 35 21 86v345q0 51 -21 86q-16 29 -43 45q-29 16 -68 16t-68 -16q-27 -16 -43 -45q-20 -35 -21 -86v-345z" />
    <glyph glyph-name="o" unicode="o" 
d="M56 220v90q0 82 32 138q25 43 66 66.5t96 23.5t96 -23.5t66 -66.5q32 -56 32 -138v-90q0 -82 -32 -138q-25 -43 -66 -66.5t-96 -23.5t-96 23.5t-66 66.5q-32 56 -32 138zM118 220q0 -66 25 -110q18 -31 46 -47q26 -15 61 -15t61 15q28 16 46 47q25 44 25 110v90
q0 66 -25 110q-18 31 -46 47q-26 15 -61 15t-61 -15q-28 -16 -46 -47q-25 -44 -25 -110v-90z" />
    <glyph glyph-name="omicron" unicode="&#x3bf;" 
d="M56 220v90q0 82 32 138q25 43 66 66.5t96 23.5t96 -23.5t66 -66.5q32 -56 32 -138v-90q0 -82 -32 -138q-25 -43 -66 -66.5t-96 -23.5t-96 23.5t-66 66.5q-32 56 -32 138zM118 220q0 -66 25 -110q18 -31 46 -47q26 -15 61 -15t61 15q28 16 46 47q25 44 25 110v90
q0 66 -25 110q-18 31 -46 47q-26 15 -61 15t-61 -15q-28 -16 -46 -47q-25 -44 -25 -110v-90z" />
    <glyph glyph-name="afii10080" unicode="&#x43e;" 
d="M56 220v90q0 82 32 138q25 43 66 66.5t96 23.5t96 -23.5t66 -66.5q32 -56 32 -138v-90q0 -82 -32 -138q-25 -43 -66 -66.5t-96 -23.5t-96 23.5t-66 66.5q-32 56 -32 138zM118 220q0 -66 25 -110q18 -31 46 -47q26 -15 61 -15t61 15q28 16 46 47q25 44 25 110v90
q0 66 -25 110q-18 31 -46 47q-26 15 -61 15t-61 -15q-28 -16 -46 -47q-25 -44 -25 -110v-90z" />
    <glyph glyph-name="Oslash" unicode="&#xd8;" 
d="M55 -26l38 92l-10 14q-27 48 -27 115v345q0 67 27 115q23 40 64 63q43 25 103 25t103 -25l6 -4l28 68l58 -21l-38 -92l10 -14q27 -48 27 -115v-345q0 -67 -27 -115q-23 -40 -64 -63q-43 -25 -103 -25t-103 25l-6 4l-28 -68zM118 195q0 -29 7 -52l211 514q-8 7 -18 14
q-29 16 -68 16t-68 -16q-27 -16 -43 -45q-20 -35 -21 -86v-345zM164 78q8 -7 18 -14q28 -16 67.5 -16t68.5 16q27 16 43 45q20 35 21 86v345q-1 28 -7 52z" />
    <glyph glyph-name="oslash" unicode="&#xf8;" 
d="M56 220v90q0 82 32 138q25 43 66 66.5t96 23.5t96 -24q4 -2 8 -5l35 61l54 -27l-43 -77q7 -9 12 -18q32 -56 32 -138v-90q0 -82 -32 -138q-25 -43 -66 -66.5t-96 -23.5t-96 24q-4 2 -8 5l-35 -61l-54 27l43 77q-7 9 -12 18q-32 56 -32 138zM118 220q0 -55 18 -95l189 333
q-7 5 -14 9q-26 15 -61 15t-61 -15q-28 -16 -46 -47q-25 -44 -25 -110v-90zM175 72q7 -5 14 -9q26 -15 61 -15t61 15q28 16 46 47q25 44 25 110v90q-1 56 -18 95z" />
    <glyph glyph-name="uni019F" unicode="&#x19f;" 
d="M56 195v345q0 67 27 115q23 40 64 63q43 25 103 25t103 -25q40 -23 64 -63q27 -48 27 -115v-345q0 -67 -27 -115q-23 -40 -64 -63q-43 -25 -103 -25t-103 25q-40 23 -64 63q-27 48 -27 115zM118 195q0 -51 21 -86q16 -29 43 -45q28 -16 67.5 -16t68.5 16q27 16 43 45
q20 35 21 86v145h-264v-145zM118 396h264v144q0 51 -21 86q-16 29 -43 45q-29 16 -68 16t-68 -16q-27 -16 -43 -45q-20 -35 -21 -86v-144z" />
    <glyph glyph-name="uni04E8" unicode="&#x4e8;" 
d="M56 195v345q0 67 27 115q23 40 64 63q43 25 103 25t103 -25q40 -23 64 -63q27 -48 27 -115v-345q0 -67 -27 -115q-23 -40 -64 -63q-43 -25 -103 -25t-103 25q-40 23 -64 63q-27 48 -27 115zM118 195q0 -51 21 -86q16 -29 43 -45q28 -16 67.5 -16t68.5 16q27 16 43 45
q20 35 21 86v145h-264v-145zM118 396h264v144q0 51 -21 86q-16 29 -43 45q-29 16 -68 16t-68 -16q-27 -16 -43 -45q-20 -35 -21 -86v-144z" />
    <glyph glyph-name="uni03F4" unicode="&#x3f4;" 
d="M56 195v345q0 67 27 115q23 40 64 63q43 25 103 25t103 -25q40 -23 64 -63q27 -48 27 -115v-345q0 -67 -27 -115q-23 -40 -64 -63q-43 -25 -103 -25t-103 25q-40 23 -64 63q-27 48 -27 115zM118 195q0 -51 21 -86q16 -29 43 -45q28 -16 67.5 -16t68.5 16q27 16 43 45
q20 35 21 86v145h-264v-145zM118 396h264v144q0 51 -21 86q-16 29 -43 45q-29 16 -68 16t-68 -16q-27 -16 -43 -45q-20 -35 -21 -86v-144z" />
    <glyph glyph-name="uni0275" unicode="&#x275;" 
d="M56 220v90q0 82 32 138q25 43 66 66.5t96 23.5t96 -23.5t66 -66.5q32 -56 32 -138v-90q0 -82 -32 -138q-25 -43 -66 -66.5t-96 -23.5t-96 23.5t-66 66.5q-32 56 -32 138zM118 220q0 -66 25 -110q18 -31 46 -47q26 -15 61 -15t61 15q28 16 46 47q25 44 25 110v17h-264v-17
zM118 293h264v17q0 66 -25 110q-18 31 -46 47q-26 15 -61 15t-61 -15q-28 -16 -46 -47q-25 -44 -25 -110v-17z" />
    <glyph glyph-name="uni04E9" unicode="&#x4e9;" 
d="M56 220v90q0 82 32 138q25 43 66 66.5t96 23.5t96 -23.5t66 -66.5q32 -56 32 -138v-90q0 -82 -32 -138q-25 -43 -66 -66.5t-96 -23.5t-96 23.5t-66 66.5q-32 56 -32 138zM118 220q0 -66 25 -110q18 -31 46 -47q26 -15 61 -15t61 15q28 16 46 47q25 44 25 110v17h-264v-17
zM118 293h264v17q0 66 -25 110q-18 31 -46 47q-26 15 -61 15t-61 -15q-28 -16 -46 -47q-25 -44 -25 -110v-17z" />
    <glyph glyph-name="uni0298" unicode="&#x298;" 
d="M56 195v345q0 67 27 115q23 40 64 63q43 25 103 25t103 -25q40 -23 64 -63q27 -48 27 -115v-345q0 -67 -27 -115q-23 -40 -64 -63q-43 -25 -103 -25t-103 25q-40 23 -64 63q-27 48 -27 115zM118 195q0 -51 21 -86q16 -29 43 -45q28 -16 67.5 -16t68.5 16q27 16 43 45
q20 35 21 86v345q0 51 -21 86q-16 29 -43 45q-29 16 -68 16t-68 -16q-27 -16 -43 -45q-20 -35 -21 -86v-345zM200 367.5q0 -22.5 13.5 -36t36.5 -13.5t36.5 13.5t13.5 36t-13.5 36.5t-36.5 14t-36.5 -14t-13.5 -36.5z" />
    <glyph glyph-name="uni1D16" unicode="&#x1d16;" 
d="M56 265v45q0 82 32 138q25 43 66 66.5t96 23.5t96 -23.5t66 -66.5q32 -56 32 -138v-45h-62v45q0 66 -25 110q-18 31 -46 47q-26 15 -61 15t-61 -15q-28 -16 -46 -47q-25 -44 -25 -110v-45h-62z" />
    <glyph glyph-name="uni1D17" unicode="&#x1d17;" 
d="M56 220v45h62v-45q0 -66 25 -110q18 -31 46 -47q26 -15 61 -15t61 15q28 16 46 47q25 44 25 110v45h62v-45q0 -82 -32 -138q-25 -43 -66 -66.5t-96 -23.5t-96 23.5t-66 66.5q-32 56 -32 138z" />
    <glyph glyph-name="Q" unicode="Q" 
d="M56 195v345q0 67 27 115q23 40 64 63q43 25 103 25t103 -25q40 -23 64 -63q27 -48 27 -115v-345q0 -67 -27 -115q-23 -40 -64 -63q-21 -12 -45 -18l36 -146h-62l-35 139q-58 1 -100 25q-40 23 -64 63q-27 48 -27 115zM118 195q0 -51 21 -86q16 -29 43 -45
q28 -16 67.5 -16t68.5 16q27 16 43 45q20 35 21 86v345q0 51 -21 86q-16 29 -43 45q-29 16 -68 16t-68 -16q-27 -16 -43 -45q-20 -35 -21 -86v-345z" />
    <glyph glyph-name="uni051A" unicode="&#x51a;" 
d="M56 195v345q0 67 27 115q23 40 64 63q43 25 103 25t103 -25q40 -23 64 -63q27 -48 27 -115v-345q0 -67 -27 -115q-23 -40 -64 -63q-21 -12 -45 -18l36 -146h-62l-35 139q-58 1 -100 25q-40 23 -64 63q-27 48 -27 115zM118 195q0 -51 21 -86q16 -29 43 -45
q28 -16 67.5 -16t68.5 16q27 16 43 45q20 35 21 86v345q0 51 -21 86q-16 29 -43 45q-29 16 -68 16t-68 -16q-27 -16 -43 -45q-20 -35 -21 -86v-345z" />
    <glyph glyph-name="q" unicode="q" 
d="M56 220v90q0 87 33 145q24 41 62 63q35 20 82 20q44 0 77 -19q36 -21 59 -61q3 -4 5 -9v81h62v-735h-62v286q-2 -5 -5 -9q-23 -40 -59 -61q-16 -9 -35.5 -14t-41.5 -5q-47 0 -82 20q-37 22 -62 63q-33 58 -33 145zM118 220q0 -66 25 -110q18 -31 46 -47q26 -15 60 -15
q32 0 56 14q26 15 43 45q26 44 26 113v90q0 69 -26 113q-17 30 -43 45q-24 14 -56 14q-34 0 -60 -15q-28 -16 -46 -47q-25 -44 -25 -110v-90z" />
    <glyph glyph-name="uni051B" unicode="&#x51b;" 
d="M56 220v90q0 87 33 145q24 41 62 63q35 20 82 20q44 0 77 -19q36 -21 59 -61q3 -4 5 -9v81h62v-735h-62v286q-2 -5 -5 -9q-23 -40 -59 -61q-16 -9 -35.5 -14t-41.5 -5q-47 0 -82 20q-37 22 -62 63q-33 58 -33 145zM118 220q0 -66 25 -110q18 -31 46 -47q26 -15 60 -15
q32 0 56 14q26 15 43 45q26 44 26 113v90q0 69 -26 113q-17 30 -43 45q-24 14 -56 14q-34 0 -60 -15q-28 -16 -46 -47q-25 -44 -25 -110v-90z" />
    <glyph glyph-name="uni024A" unicode="&#x24a;" 
d="M56 220v295q0 87 33 145q24 41 62 63q35 20 82 20q44 0 77 -19q36 -21 59 -61q3 -4 5 -9v81h62v-735q0 -50 15 -76q13 -22 34 -34q29 -17 90 -17v-56q-88 0 -130 24q-31 18 -50 50q-21 37 -21 109v81q-2 -5 -5 -9q-23 -40 -59 -61q-16 -9 -35.5 -14t-41.5 -5
q-47 0 -82 20q-37 22 -62 63q-33 58 -33 145zM118 220q0 -66 25 -110q18 -31 46 -47q26 -15 60 -15q32 0 56 14q26 15 43 45q26 44 26 113v295q0 69 -26 113q-17 30 -43 45q-24 14 -56 14q-34 0 -60 -15q-28 -16 -46 -47q-25 -44 -25 -110v-295z" />
    <glyph glyph-name="uni024B" unicode="&#x24b;" 
d="M56 220v90q0 87 33 145q24 41 62 63q35 20 82 20q44 0 77 -19q36 -21 59 -61q3 -4 5 -9v81h62v-530q0 -50 15 -76q13 -22 34 -34q29 -17 90 -17v-56q-88 0 -130 24q-31 18 -50 50q-21 37 -21 109v81q-2 -5 -5 -9q-23 -40 -59 -61q-33 -19 -77 -19q-47 0 -82 20
q-37 22 -62 63q-33 58 -33 145zM118 220q0 -66 25 -110q18 -31 46 -47q26 -15 60 -15q32 0 56 14q26 15 43 45q26 44 26 113v90q0 69 -26 113q-17 30 -43 45q-24 14 -56 14q-34 0 -60 -15q-28 -16 -46 -47q-25 -44 -25 -110v-90z" />
    <glyph glyph-name="uni02A0" unicode="&#x2a0;" 
d="M56 220v90q0 87 33 145q24 41 62 63q35 20 82 20q44 0 77 -19q36 -21 59 -61q3 -4 5 -9v81q0 55 23 95q22 37 61 60q48 28 117 28v-56q-47 0 -81 -19q-58 -34 -58 -108v-735h-62v286q-2 -5 -5 -9q-23 -40 -59 -61q-33 -19 -77 -19q-47 0 -82 20q-37 22 -62 63
q-33 58 -33 145zM118 220q0 -66 25 -110q18 -31 46 -47q26 -15 60 -15q32 0 56 14q26 15 43 45q26 44 26 113v90q0 69 -26 113q-17 30 -43 45q-24 14 -56 14q-34 0 -60 -15q-28 -16 -46 -47q-25 -44 -25 -110v-90z" />
    <glyph glyph-name="N" unicode="N" 
d="M64 0v735h90l220 -636v636h62v-735h-90l-220 636v-636h-62z" />
    <glyph glyph-name="Nu" unicode="&#x39d;" 
d="M64 0v735h90l220 -636v636h62v-735h-90l-220 636v-636h-62z" />
    <glyph glyph-name="uni0274" unicode="&#x274;" 
d="M64 0v530h90l220 -459v459h62v-530h-90l-220 459v-459h-62z" />
    <glyph glyph-name="uni019D" unicode="&#x19d;" 
d="M-75 -127q47 0 81 19q58 34 58 108v735h90l220 -636v636h62v-735h-90l-220 636v-636q0 -55 -23 -95q-22 -37 -61 -60q-48 -28 -117 -28v56z" />
    <glyph glyph-name="n" unicode="n" 
d="M64 0v530h62v-81q2 5 5 9q23 40 59 61q33 19 76.5 19t76.5 -19q36 -21 59 -61q34 -58 34 -148v-310h-62v310q0 69 -26 113q-17 30 -43 45q-24 14 -55 14t-55 -14q-26 -15 -43 -45q-26 -44 -26 -113v-310h-62z" />
    <glyph glyph-name="glyph350" 
d="M64 0v530h62v-81q2 5 5 9q23 40 59 61q33 19 76.5 19t76.5 -19q36 -21 59 -61q34 -58 34 -148v-310h-62v310q0 69 -26 113q-17 30 -43 45q-24 14 -55 14t-55 -14q-26 -15 -43 -45q-26 -44 -26 -113v-310h-62z" />
    <glyph glyph-name="napostrophe" unicode="&#x149;" 
d="M64 0v530h62v-81q2 5 5 9q23 40 59 61q33 19 76.5 19t76.5 -19q36 -21 59 -61q34 -58 34 -148v-310h-62v310q0 69 -26 113q-17 30 -43 45q-24 14 -55 14t-55 -14q-26 -15 -43 -45q-26 -44 -26 -113v-310h-62zM18 582q30 41 38 97q-14 2 -23 11q-11 11 -11 30.5t11 31
t31 11.5t31 -11t11 -31q0 -99 -50 -165z" />
    <glyph glyph-name="eng" unicode="&#x14b;" 
d="M64 0v530h62v-81q2 5 5 9q23 40 59 61q33 19 76.5 19t76.5 -19q36 -21 59 -61q34 -58 34 -148v-310q0 -55 -23 -95q-22 -37 -61 -60q-48 -28 -117 -28v56q47 0 80 19q58 34 59 108v310q0 69 -26 113q-17 30 -43 45q-24 14 -55 14t-55 -14q-26 -15 -43 -45
q-26 -44 -26 -113v-310h-62z" />
    <glyph glyph-name="Eng" unicode="&#x14a;" 
d="M64 0v735h62v-62q21 31 52 49q36 21 85.5 21t85.5 -21t58 -59q29 -50 29 -123v-365q0 -57 -24 -99q-21 -37 -59 -59q-44 -25 -106 -25v56q41 0 70 17q26 15 40 40q17 29 17 70v365q0 52 -21 88q-16 28 -43 43q-27 16 -63.5 16t-63.5 -16q-27 -15 -42 -43q-9 -16 -15 -36
v-592h-62z" />
    <glyph glyph-name="uni0272" unicode="&#x272;" 
d="M-75 -127q47 0 81 19q58 34 58 108v530h62v-81q2 5 5 9q23 40 59 61q33 19 76.5 19t76.5 -19q36 -21 59 -61q34 -58 34 -148v-310h-62v310q0 69 -26 113q-17 30 -43 45q-24 14 -55 14t-55 -14q-26 -15 -43 -45q-26 -44 -26 -113v-310q0 -55 -23 -95q-22 -37 -61 -60
q-48 -28 -117 -28v56z" />
    <glyph glyph-name="uni0235" unicode="&#x235;" 
d="M64 0v530h62v-72q3 6 6 11q21 36 52 54q25 15 58 15t59 -15q30 -17 51 -54q35 -61 35 -159v-128q16 3 31 3q32 0 56 -13q17 -10 27 -27q14 -25 13 -57q0 -31 -13 -54q-10 -18 -29 -28q-23 -14 -53 -14q-26 0 -46 12t-32 33q-11 19 -15 53q-43 -34 -75 -89
q-15 -27 -25 -57l-59 18q12 33 29 64q50 87 127 132q1 1 2 1v151q0 79 -27 125q-15 25 -35 38q-16 9 -37.5 9t-37.5 -9q-20 -12 -35 -38q-27 -46 -27 -125v-310h-62zM387 99q0 -30 12 -42q9 -9 20 -9q13 0 22 9q11 11 11 31.5t-10 30.5t-28 10q-12 0 -27 -5v-25z" />
    <glyph glyph-name="eta" unicode="&#x3b7;" 
d="M64 0v530h62v-81q2 5 5 9q23 40 59 61q33 19 76.5 19t76.5 -19q36 -21 59 -61q34 -58 34 -148v-515h-62v515q0 69 -26 113q-17 30 -43 45q-24 14 -55 14t-55 -14q-26 -15 -43 -45q-26 -44 -26 -113v-310h-62z" />
    <glyph glyph-name="uni0220" unicode="&#x220;" 
d="M64 0v735h62v-81q2 5 5 9q23 40 59 61q33 19 76.5 19t76.5 -19q36 -21 59 -61q34 -58 34 -148v-720h-62v720q0 69 -26 113q-17 30 -43 45q-24 14 -55 14t-55 -14q-26 -15 -43 -45q-26 -44 -26 -113v-515h-62z" />
    <glyph glyph-name="uni019E" unicode="&#x19e;" 
d="M64 0v530h62v-81q2 5 5 9q23 40 59 61q33 19 76.5 19t76.5 -19q36 -21 59 -61q34 -58 34 -148v-515h-62v515q0 69 -26 113q-17 30 -43 45q-24 14 -55 14t-55 -14q-26 -15 -43 -45q-26 -44 -26 -113v-310h-62z" />
    <glyph glyph-name="U" unicode="U" 
d="M64 195v540h62v-540q0 -53 21 -89q16 -28 42 -43t61 -15t61 15t42 43q21 36 21 89v540h62v-540q0 -69 -28 -118q-23 -40 -61 -62q-41 -23 -97 -23t-97 23q-39 22 -61 62q-28 48 -28 118z" />
    <glyph glyph-name="uni1D1C" unicode="&#x1d1c;" 
d="M64 195v335h62v-335q0 -53 21 -89q16 -28 42 -43t61 -15t61 15t42 43q21 36 21 89v335h62v-335q0 -69 -28 -118q-23 -40 -61 -62q-41 -23 -97 -23t-97 23q-39 22 -61 62q-28 48 -28 118z" />
    <glyph glyph-name="u" unicode="u" 
d="M64 220v310h62v-310q0 -69 26 -113q17 -30 43 -45q24 -14 55 -14t55 14q26 15 43 45q26 44 26 113v310h62v-530h-62v81q-2 -5 -5 -9q-23 -40 -59 -61q-33 -19 -76.5 -19t-76.5 19q-36 21 -59 61q-34 58 -34 148z" />
    <glyph glyph-name="upsilon" unicode="&#x3c5;" 
d="M64 220v310h62v-310q0 -69 26 -113q17 -30 43 -45q24 -14 55 -14t55 14q26 15 43 45q26 44 26 113v310h62v-310q0 -84 -33 -141q-25 -42 -63 -65q-38 -22 -89.5 -22t-90.5 22q-39 23 -63 65q-33 57 -33 141z" />
    <glyph glyph-name="uni01B2" unicode="&#x1b2;" 
d="M64 195v540h62v-540q0 -53 21 -89q16 -28 42 -43t61 -15t61 15t42 43q21 36 21 89v357q0 41 -17 71q-15 25 -40 40q-28 16 -67 16v56q60 0 103 -25q37 -21 59 -58q24 -42 24 -100v-357q0 -69 -28 -118q-23 -40 -61 -62q-41 -23 -97 -23t-97 23q-39 22 -61 62
q-28 48 -28 118z" />
    <glyph glyph-name="uni028B" unicode="&#x28b;" 
d="M64 220v310h62v-310q0 -69 26 -113q17 -30 43 -45q24 -14 55 -14t55 14q26 15 43 45q26 44 26 113v127q0 41 -17 71q-15 25 -40 40q-28 16 -67 16v56q60 0 103 -25q37 -21 59 -58q24 -42 24 -100v-127q0 -84 -33 -141q-25 -42 -63 -65q-38 -22 -89.5 -22t-90.5 22
q-39 23 -63 65q-33 57 -33 141z" />
    <glyph glyph-name="M" unicode="M" 
d="M64 0v735h83l103 -402l103 402h83v-735h-62v147q0 94 2 247q2 128 2 215l-99 -389h-58l-99 389q0 -49 1 -121q3 -249 3 -341v-147h-62z" />
    <glyph glyph-name="Mu" unicode="&#x39c;" 
d="M64 0v735h83l103 -402l103 402h83v-735h-62v147q0 94 2 247q2 128 2 215l-99 -389h-58l-99 389q0 -49 1 -121q3 -249 3 -341v-147h-62z" />
    <glyph glyph-name="afii10030" unicode="&#x41c;" 
d="M64 0v735h83l103 -402l103 402h83v-735h-62v147q0 94 2 247q2 128 2 215l-99 -389h-58l-99 389q0 -49 1 -121q3 -249 3 -341v-147h-62z" />
    <glyph glyph-name="afii10078" unicode="&#x43c;" 
d="M64 0v530h83l103 -290l103 290h83v-530h-62v106q0 65 2 188t2 145l-99 -280h-58l-99 280q0 -22 2 -145t2 -188v-106h-62z" />
    <glyph glyph-name="m" unicode="m" 
d="M56 0v530h62v-37l2 2q14 24 32 35q15 8 33 8q19 0 35 -9q19 -11 34 -36q8 -14 14 -31q6 18 14 33q14 24 33 35q15 8 33 8q19 0 35 -9q19 -11 34 -36q27 -47 27 -128v-365h-62v365q0 80 -28 107q-10 10 -23 10t-22 -10q-27 -27 -28 -107v-365h-62v365q0 80 -28 107
q-10 10 -22.5 10t-22.5 -10q-27 -27 -28 -107v-365h-62z" />
    <glyph glyph-name="glyph370" 
d="M56 0v530h62v-37l2 2q14 24 32 35q15 8 33 8q19 0 35 -9q19 -11 34 -36q8 -14 14 -31q6 18 14 33q14 24 33 35q15 8 33 8q19 0 35 -9q19 -11 34 -36q27 -47 27 -128v-365h-62v365q0 80 -28 107q-10 10 -23 10t-22 -10q-27 -27 -28 -107v-365h-62v365q0 80 -28 107
q-10 10 -22.5 10t-22.5 -10q-27 -27 -28 -107v-365h-62z" />
    <glyph glyph-name="glyph371" 
d="M56 0v530h62v-37l2 2q14 24 32 35q15 8 33 8q19 0 35 -9q19 -11 34 -36q8 -14 14 -31q6 18 14 33q14 24 33 35q15 8 33 8q19 0 35 -9q19 -11 34 -36q27 -47 27 -128v-309h43v-203h-62v147h-43v365q0 80 -28 107q-10 10 -23 10t-22 -10q-27 -27 -28 -107v-365h-62v365
q0 80 -28 107q-10 10 -22.5 10t-22.5 -10q-27 -27 -28 -107v-365h-62z" />
    <glyph glyph-name="uni0271" unicode="&#x271;" 
d="M56 0v530h62v-37l2 2q14 24 32 35q15 8 33 8q19 0 35 -9q19 -11 34 -36q8 -14 14 -31q6 18 14 33q14 24 33 35q15 8 33 8q19 0 35 -9q19 -11 34 -36q27 -47 27 -128v-365q0 -55 -23 -95q-22 -37 -61 -60q-48 -28 -117 -28v56q47 0 80 19q58 34 59 108v365q0 80 -28 107
q-10 10 -23 10t-22 -10q-27 -27 -28 -107v-365h-62v365q0 80 -28 107q-10 10 -22.5 10t-22.5 -10q-27 -27 -28 -107v-365h-62z" />
    <glyph glyph-name="uni026F" unicode="&#x26f;" 
d="M56 165v365h62v-365q0 -80 28 -107q10 -10 23 -10t22 10q27 27 28 107v365h62v-365q0 -80 28 -107q10 -10 22.5 -10t22.5 10q27 27 28 107v365h62v-530h-62v37l-2 -2q-14 -24 -32 -35q-15 -8 -33 -8q-19 0 -35 9q-19 11 -34 36q-8 14 -14 31q-6 -18 -14 -33
q-14 -24 -33 -35q-15 -8 -33 -8q-19 0 -35 9q-19 11 -34 36q-27 47 -27 128z" />
    <glyph glyph-name="uni019C" unicode="&#x19c;" 
d="M56 165v570h62v-570q0 -80 28 -107q10 -10 23 -10t22 10q27 27 28 107v570h62v-570q0 -80 28 -107q10 -10 22.5 -10t22.5 10q27 27 28 107v570h62v-735h-62v37l-2 -2q-14 -24 -32 -35q-15 -8 -33 -8q-19 0 -35 9q-19 11 -34 36q-8 14 -14 31q-6 -18 -14 -33
q-14 -24 -33 -35q-15 -8 -33 -8q-19 0 -35 9q-19 11 -34 36q-27 47 -27 128z" />
    <glyph glyph-name="uni0270" unicode="&#x270;" 
d="M56 165v365h62v-365q0 -80 28 -107q10 -10 23 -10t22 10q27 27 28 107v365h62v-365q0 -80 28 -107q10 -10 22.5 -10t22.5 10q27 27 28 107v365h62v-735h-62v242l-2 -2q-14 -24 -32 -35q-15 -8 -33 -8q-19 0 -35 9q-19 11 -34 36q-8 14 -14 31q-6 -18 -14 -33
q-14 -24 -33 -35q-15 -8 -33 -8q-19 0 -35 9q-19 11 -34 36q-27 47 -27 128z" />
    <glyph glyph-name="H" unicode="H" 
d="M64 0v735h62v-321h248v321h62v-735h-62v358h-248v-358h-62z" />
    <glyph glyph-name="Eta" unicode="&#x397;" 
d="M64 0v735h62v-321h248v321h62v-735h-62v358h-248v-358h-62z" />
    <glyph glyph-name="afii10031" unicode="&#x41d;" 
d="M64 0v735h62v-321h248v321h62v-735h-62v358h-248v-358h-62z" />
    <glyph glyph-name="uni04A2" unicode="&#x4a2;" 
d="M64 0v735h62v-321h248v321h62v-679h51v-203h-62v147h-51v358h-248v-358h-62z" />
    <glyph glyph-name="afii10079" unicode="&#x43d;" 
d="M64 0v530h62v-224h248v224h62v-530h-62v250h-248v-250h-62z" />
    <glyph glyph-name="uni029C" unicode="&#x29c;" 
d="M64 0v530h62v-224h248v224h62v-530h-62v250h-248v-250h-62z" />
    <glyph glyph-name="uni04A3" unicode="&#x4a3;" 
d="M64 0v530h62v-224h248v224h62v-474h51v-203h-62v147h-51v250h-248v-250h-62z" />
    <glyph glyph-name="Hbar" unicode="&#x126;" 
d="M19 505v56h45v174h62v-174h248v174h62v-174h45v-56h-45v-505h-62v358h-248v-358h-62v505h-45zM126 414h248v91h-248v-91z" />
    <glyph glyph-name="h" unicode="h" 
d="M64 0v735h62v-286q2 5 5 9q23 40 59 61q33 19 76.5 19t76.5 -19q36 -21 59 -61q34 -58 34 -148v-310h-62v310q0 69 -26 113q-17 30 -43 45q-24 14 -55 14t-55 -14q-26 -15 -43 -45q-26 -44 -26 -113v-310h-62z" />
    <glyph glyph-name="uni04BB" unicode="&#x4bb;" 
d="M64 0v735h62v-286q2 5 5 9q23 40 59 61q33 19 76.5 19t76.5 -19q36 -21 59 -61q34 -58 34 -148v-310h-62v310q0 69 -26 113q-17 30 -43 45q-24 14 -55 14t-55 -14q-26 -15 -43 -45q-26 -44 -26 -113v-310h-62z" />
    <glyph glyph-name="uni0266" unicode="&#x266;" 
d="M64 0v515q0 83 33 139q25 43 64.5 66t93.5 23t94 -23t65 -66q19 -33 27 -74l-59 -18q-6 35 -22 63q-18 31 -45 47q-26 15 -60 15t-59 -15q-27 -16 -44 -46q-25 -44 -26 -111v-66q2 5 5 9q23 40 59 61q33 19 76.5 19t76.5 -19q36 -21 59 -61q34 -58 34 -148v-310h-62v310
q0 69 -26 113q-17 30 -43 45q-24 14 -55 14t-55 -14q-26 -15 -43 -45q-26 -44 -26 -113v-310h-62z" />
    <glyph glyph-name="uni0267" unicode="&#x267;" 
d="M64 0v515q0 83 33 139q25 43 64.5 66t93.5 23t94 -23t65 -66q19 -33 27 -74l-59 -18q-6 35 -22 63q-18 31 -45 47q-26 15 -60 15t-59 -15q-27 -16 -44 -46q-25 -44 -26 -111v-66q2 5 5 9q23 40 59 61q33 19 76.5 19t76.5 -19q36 -21 59 -61q34 -58 34 -148v-310
q0 -55 -23 -95q-22 -37 -61 -60q-48 -28 -117 -28v56q47 0 80 19q58 34 59 108v310q0 69 -26 113q-17 30 -43 45q-24 14 -55 14t-55 -14q-26 -15 -43 -45q-26 -44 -26 -113v-310h-62z" />
    <glyph glyph-name="uniA727" unicode="&#xa727;" 
d="M64 0v735h62v-286q2 5 5 9q23 40 59 61q33 19 76.5 19t76.5 -19q36 -21 59 -61q34 -58 34 -148v-310q0 -55 -23 -95q-22 -37 -61 -60q-48 -28 -117 -28v56q47 0 80 19q58 34 59 108v310q0 69 -26 113q-17 30 -43 45q-24 14 -55 14t-55 -14q-26 -15 -43 -45
q-26 -44 -26 -113v-310h-62z" />
    <glyph glyph-name="uni0265" unicode="&#x265;" 
d="M64 220v310h62v-310q0 -69 26 -113q17 -30 43 -45q24 -14 55 -14t55 14q26 15 43 45q26 44 26 113v310h62v-735h-62v286q-2 -5 -5 -9q-23 -40 -59 -61q-33 -19 -76.5 -19t-76.5 19q-36 21 -59 61q-34 58 -34 148z" />
    <glyph glyph-name="uni02AE" unicode="&#x2ae;" 
d="M-75 474v56q88 0 130 -24q31 -18 50 -50q21 -37 21 -109v-127q0 -69 26 -113q17 -30 43 -45q24 -14 55 -14t55 14q26 15 43 45q26 44 26 113v310h62v-735h-62v286q-2 -5 -5 -9q-23 -40 -59 -61q-33 -19 -76.5 -19t-76.5 19q-36 21 -59 61q-34 58 -34 148v127q0 50 -15 76
q-13 22 -34 34q-29 17 -90 17z" />
    <glyph glyph-name="uni02AF" unicode="&#x2af;" 
d="M-75 474v56q88 0 130 -24q31 -18 50 -50q21 -37 21 -109v-127q0 -69 26 -113q17 -30 43 -45q24 -14 55 -14t55 14q26 15 43 45q26 44 26 113v310h62v-530q0 -50 15 -76q13 -22 34 -34q29 -17 90 -17v-56q-88 0 -130 24q-31 18 -50 50q-21 37 -21 109v81q-2 -5 -5 -9
q-23 -40 -59 -61q-33 -19 -76.5 -19t-76.5 19q-36 21 -59 61q-34 58 -34 148v127q0 50 -15 76q-13 22 -34 34q-29 17 -90 17z" />
    <glyph glyph-name="hbar" unicode="&#x127;" 
d="M19 594v56h45v85h62v-85h124v-56h-124v-145q2 5 5 9q23 40 59 61q33 19 76.5 19t76.5 -19q36 -21 59 -61q34 -58 34 -148v-310h-62v310q0 69 -26 113q-17 30 -43 45q-24 14 -55 14t-55 -14q-26 -15 -43 -45q-26 -44 -26 -113v-310h-62v594h-45z" />
    <glyph glyph-name="afii10108" unicode="&#x45b;" 
d="M19 594v56h45v85h62v-85h124v-56h-124v-145q2 5 5 9q23 40 59 61q33 19 76.5 19t76.5 -19q36 -21 59 -61q34 -58 34 -148v-310h-62v310q0 69 -26 113q-17 30 -43 45q-24 14 -55 14t-55 -14q-26 -15 -43 -45q-26 -44 -26 -113v-310h-62v594h-45z" />
    <glyph glyph-name="F" unicode="F" 
d="M96 0v735h340v-56h-278v-254h222v-56h-222v-369h-62z" />
    <glyph glyph-name="uni0191" unicode="&#x191;" 
d="M-43 -127q47 0 81 19q58 34 58 108v735h340v-56h-278v-254h222v-56h-222v-369q0 -55 -23 -95q-22 -37 -61 -60q-48 -28 -117 -28v56z" />
    <glyph glyph-name="glyph396" 
d="M213 0v615q0 43 19 76.5t56 54.5q50 29 126 29v-56q-54 0 -90 -20q-25 -14 -37 -36q-12 -21 -12 -48v-615h-62z" />
    <glyph glyph-name="glyph397" 
d="M156 0v540q0 76 29 127q22 37 56 57q33 19 77 19q65 0 107 -42q45 -45 53 -121l-60 -13q-4 42 -22 72q-14 25 -35 37q-19 11 -43 11t-42 -11q-21 -12 -36 -36q-22 -39 -22 -100v-540h-62z" />
    <glyph glyph-name="glyph398" 
d="M80 -139q57 0 86 17q23 13 36 36q17 29 17 86v580q0 79 23 119q19 33 51 52q42 24 127 24v-56q-57 0 -86 -17q-23 -13 -36 -36q-17 -29 -17 -86v-580q0 -79 -23 -119q-19 -33 -51 -52q-42 -24 -127 -24v56z" />
    <glyph glyph-name="uni0283" unicode="&#x283;" 
d="M80 -139q57 0 86 17q23 13 36 36q17 29 17 86v580q0 79 23 119q19 33 51 52q42 24 127 24v-56q-57 0 -86 -17q-23 -13 -36 -36q-17 -29 -17 -86v-580q0 -79 -23 -119q-19 -33 -51 -52q-42 -24 -127 -24v56z" />
    <glyph glyph-name="uni0284" unicode="&#x284;" 
d="M80 -139q57 0 86 17q23 13 36 36q17 29 17 86v104h-74v56h74v420q0 79 23 119q19 33 51 52q42 24 127 24v-56q-57 0 -86 -17q-23 -13 -36 -36q-17 -29 -17 -86v-420h74v-56h-74v-104q0 -79 -23 -119q-19 -33 -51 -52q-42 -24 -127 -24v56z" />
    <glyph glyph-name="longs" unicode="&#x17f;" 
d="M156 0v540q0 76 29 127q22 37 56 57q33 19 77 19q65 0 107 -42q45 -45 53 -121l-60 -13q-4 42 -22 72q-14 25 -35 37q-19 11 -43 11t-42 -11q-21 -12 -36 -36q-22 -39 -22 -100v-540h-62z" />
    <glyph glyph-name="uni0286" unicode="&#x286;" 
d="M32 -90q0 40 17 71q13 23 36 36q29 17 70 17q29 0 58 -8v589q0 43 19 76.5t56 54.5q50 29 126 29v-56q-54 0 -90 -20q-25 -14 -37 -36q-12 -21 -12 -48v-617q86 -51 140 -144q13 -22 23 -46l-58 -21q-9 22 -20 42q-35 60 -86 100q-4 -56 -21 -85q-16 -28 -42 -42.5
t-58 -14.5q-38 0 -68 18q-23 13 -36 36q-17 29 -17 69zM94 -90q0 -33 18 -50q17 -17 41 -17q23 0 39 16q21 21 21 78v28q-29 13 -55 13q-21 0 -36 -9q-12 -7 -19 -18q-10 -17 -9 -41z" />
    <glyph glyph-name="uni027F" unicode="&#x27f;" 
d="M89 474v56q76 0 126 -29q36 -21 55 -53q18 -32 18 -73v-580h-62v580q0 25 -11 44q-12 21 -36 35q-35 20 -90 20z" />
    <glyph glyph-name="uni0285" unicode="&#x285;" 
d="M75 474v56q72 0 121 -29q85 -49 85 -154v-347q0 -73 59 -107q35 -20 85 -20v-56q-72 0 -121 29q-85 49 -85 154v347q0 73 -59 107q-35 20 -85 20z" />
    <glyph glyph-name="glyph405" 
d="M64 440v56h115v83q0 59 23 99q18 31 47 48q30 17 70 17t69 -17t48 -48q15 -27 20 -59l-60 -16q-3 26 -15 47q-11 19 -27 28q-15 9 -35 9t-35 -9q-16 -9 -27 -28q-16 -28 -16 -71v-83h176v-56h-176v-440h-62v440h-115z" />
    <glyph glyph-name="uniAB35" unicode="&#xab35;" 
d="M64 440v56h115v83q0 59 23 99q18 31 47 48q30 17 70 17t69 -17t48 -48q15 -27 20 -59l-60 -16q-3 26 -15 47q-11 19 -27 28q-15 9 -35 9t-35 -9q-16 -9 -27 -28q-16 -28 -16 -71v-83h176v-56h-176v-440h-62v440h-115z" />
    <glyph glyph-name="glyph407" 
d="M75 440v56h144v84q0 79 23 119q19 33 51 52q42 24 127 24v-56q-57 0 -86 -17q-23 -13 -36 -36q-17 -29 -17 -86v-84h144v-56h-144v-440q0 -79 -23 -119q-19 -33 -51 -52q-42 -24 -127 -24v56q57 0 86 17q23 13 36 36q17 29 17 86v440h-144z" />
    <glyph glyph-name="florin" unicode="&#x192;" 
d="M75 440v56h144v84q0 79 23 119q19 33 51 52q42 24 127 24v-56q-57 0 -86 -17q-23 -13 -36 -36q-17 -29 -17 -86v-84h144v-56h-144v-440q0 -79 -23 -119q-19 -33 -51 -52q-42 -24 -127 -24v56q57 0 86 17q23 13 36 36q17 29 17 86v440h-144z" />
    <glyph glyph-name="f" unicode="f" 
d="M64 440v56h115v83q0 59 23 99q18 31 47 48q30 17 70 17t69 -17t48 -48q15 -27 20 -59l-60 -16q-3 26 -15 47q-11 19 -27 28q-15 9 -35 9t-35 -9q-16 -9 -27 -28q-16 -28 -16 -71v-83h176v-56h-176v-440h-62v440h-115z" />
    <glyph glyph-name="uni025F" unicode="&#x25f;" 
d="M44 -89l60 16q3 -26 15 -47q11 -19 27 -28q15 -9 35 -9t35 9q16 9 27 28q16 28 16 71v83h-176v56h176v440h62v-440h115v-56h-115v-83q0 -59 -23 -99q-18 -31 -47 -48q-30 -17 -70 -17t-69 17t-48 48q-15 27 -20 59z" />
    <glyph glyph-name="uniFB01" unicode="&#xfb01;" 
d="M18 440v56h78v44q0 76 30 127q22 37 55 57q33 19 78 19q65 0 106 -42q45 -45 54 -121l-61 -13q-4 42 -21 72q-14 25 -36 37q-19 11 -43 11t-42 -11q-21 -12 -35 -36q-22 -39 -22 -100v-44h277v-496h-62v440h-215v-440h-63v440h-78z" />
    <glyph glyph-name="glyph412" 
d="M18 440v56h78v44q0 73 29 123q22 38 58 59t84.5 21t84 -20.5t57.5 -59.5q21 -37 27 -83v-580h-62v580q-5 31 -19 55q-15 26 -39 40q-21 12 -49 12t-49 -12q-23 -13 -38 -39q-22 -38 -21 -96v-44h128v-56h-128v-440h-63v440h-78z" />
    <glyph glyph-name="glyph413" 
d="M18 440v56h141v84q0 79 24 119q19 33 51 52q42 24 126 24v-56q-57 0 -86 -17q-23 -13 -36 -36q-17 -29 -16 -86v-84h84v-56h-84v-440q0 -79 -24 -119q-19 -33 -51 -52q-42 -24 -126 -24l-1 56q57 0 87 17q23 13 36 36q17 29 16 86v440h-141zM374 0v735h62v-735h-62z" />
    <glyph glyph-name="uniFB02" unicode="&#xfb02;" 
d="M18 440v56h78v44q0 73 29 123q22 38 58 59t84.5 21t84 -20.5t57.5 -59.5q21 -37 27 -83v-580h-62v580q-5 31 -19 55q-15 26 -39 40q-21 12 -49 12t-49 -12q-23 -13 -38 -39q-22 -38 -21 -96v-44h128v-56h-128v-440h-63v440h-78z" />
    <glyph glyph-name="E" unicode="E" 
d="M96 0v735h340v-56h-278v-254h222v-56h-222v-313h278v-56h-340z" />
    <glyph glyph-name="Epsilon" unicode="&#x395;" 
d="M96 0v735h340v-56h-278v-254h222v-56h-222v-313h278v-56h-340z" />
    <glyph glyph-name="afii10022" unicode="&#x415;" 
d="M96 0v735h340v-56h-278v-254h222v-56h-222v-313h278v-56h-340z" />
    <glyph glyph-name="uni018E" unicode="&#x18e;" 
d="M64 0v56h278v254h-222v56h222v313h-278v56h340v-735h-340z" />
    <glyph glyph-name="uni2C7B" unicode="&#x2c7b;" 
d="M64 0v56h278v160h-222v56h222v202h-278v56h340v-530h-340z" />
    <glyph glyph-name="e" unicode="e" 
d="M56 220v90q0 82 32 138q25 43 66 66.5t96 23.5t96 -23.5t66 -66.5q32 -56 32 -138v-73h-326v-17q0 -64 25 -107q18 -32 47 -49q28 -16 67 -16q38 0 67 17t48 49q10 18 16 39l57 -23q-7 -24 -20 -45q-25 -44 -67 -68q-43 -25 -101.5 -25t-101.5 25q-42 24 -67 68
q-32 55 -32 135zM118 293h264v17q0 66 -25 110q-18 31 -46 47q-26 15 -61 15t-61 -15q-28 -16 -46 -47q-25 -44 -25 -110v-17z" />
    <glyph glyph-name="afii10070" unicode="&#x435;" 
d="M56 220v90q0 82 32 138q25 43 66 66.5t96 23.5t96 -23.5t66 -66.5q32 -56 32 -138v-73h-326v-17q0 -64 25 -107q18 -32 47 -49q28 -16 67 -16q38 0 67 17t48 49q10 18 16 39l57 -23q-7 -24 -20 -45q-25 -44 -67 -68q-43 -25 -101.5 -25t-101.5 25q-42 24 -67 68
q-32 55 -32 135zM118 293h264v17q0 66 -25 110q-18 31 -46 47q-26 15 -61 15t-61 -15q-28 -16 -46 -47q-25 -44 -25 -110v-17z" />
    <glyph glyph-name="uni01DD" unicode="&#x1dd;" 
d="M55 400q7 24 20 45q25 44 67 68q43 25 101.5 25t101.5 -25q42 -24 67 -68q32 -55 32 -135v-90q0 -82 -32 -138q-25 -43 -66 -66.5t-96 -23.5t-96 23.5t-66 66.5q-32 56 -32 138v73h326v17q0 64 -25 107q-18 32 -47 49q-28 16 -67 16q-38 0 -67 -17t-48 -49
q-10 -18 -16 -39zM118 220q0 -66 25 -110q18 -31 46 -47q26 -15 61 -15t61 15q28 16 46 47q25 44 25 110v17h-264v-17z" />
    <glyph glyph-name="uni0259" unicode="&#x259;" 
d="M55 400q7 24 20 45q25 44 67 68q43 25 101.5 25t101.5 -25q42 -24 67 -68q32 -55 32 -135v-90q0 -82 -32 -138q-25 -43 -66 -66.5t-96 -23.5t-96 23.5t-66 66.5q-32 56 -32 138v73h326v17q0 64 -25 107q-18 32 -47 49q-28 16 -67 16q-38 0 -67 -17t-48 -49
q-10 -18 -16 -39zM118 220q0 -66 25 -110q18 -31 46 -47q26 -15 61 -15t61 15q28 16 46 47q25 44 25 110v17h-264v-17z" />
    <glyph glyph-name="afii10846" unicode="&#x4d9;" 
d="M55 400q7 24 20 45q25 44 67 68q43 25 101.5 25t101.5 -25q42 -24 67 -68q32 -55 32 -135v-90q0 -82 -32 -138q-25 -43 -66 -66.5t-96 -23.5t-96 23.5t-66 66.5q-32 56 -32 138v73h326v17q0 64 -25 107q-18 32 -47 49q-28 16 -67 16q-38 0 -67 -17t-48 -49
q-10 -18 -16 -39zM118 220q0 -66 25 -110q18 -31 46 -47q26 -15 61 -15t61 15q28 16 46 47q25 44 25 110v17h-264v-17z" />
    <glyph glyph-name="uni018F" unicode="&#x18f;" 
d="M55 605q7 24 20 45q25 44 67 68q43 25 101.5 25t101.5 -25q42 -24 67 -68q32 -55 32 -135v-295q0 -82 -32 -138q-25 -43 -66 -66.5t-96 -23.5t-96 23.5t-66 66.5q-32 56 -32 138v176h326v119q0 64 -25 107q-18 32 -47 49q-28 16 -67 16q-38 0 -67 -17t-48 -49
q-10 -18 -16 -39zM118 220q0 -66 25 -110q18 -31 46 -47q26 -15 61 -15t61 15q28 16 46 47q25 44 25 110v120h-264v-120z" />
    <glyph glyph-name="uni04D8" unicode="&#x4d8;" 
d="M55 605q7 24 20 45q25 44 67 68q43 25 101.5 25t101.5 -25q42 -24 67 -68q32 -55 32 -135v-295q0 -82 -32 -138q-25 -43 -66 -66.5t-96 -23.5t-96 23.5t-66 66.5q-32 56 -32 138v176h326v119q0 64 -25 107q-18 32 -47 49q-28 16 -67 16q-38 0 -67 -17t-48 -49
q-10 -18 -16 -39zM118 220q0 -66 25 -110q18 -31 46 -47q26 -15 61 -15t61 15q28 16 46 47q25 44 25 110v120h-264v-120z" />
    <glyph glyph-name="uni0258" unicode="&#x258;" 
d="M51 130l57 23q6 -20 16 -38q19 -32 48 -50q29 -17 69 -17q39 0 68 17q30 17 48 49q25 43 25 106v17h-326v73q0 82 32 138q25 43 66 66.5t96 23.5t96 -23.5t66 -66.5q32 -56 32 -138v-90q0 -79 -32 -135q-25 -44 -67 -68q-44 -25 -103.5 -25t-103.5 25q-42 24 -68 69
q-12 21 -19 44zM118 293h264v17q0 66 -25 110q-18 31 -46 47q-26 15 -61 15t-61 -15q-28 -16 -46 -47q-25 -44 -25 -110v-17z" />
    <glyph glyph-name="T" unicode="T" 
d="M64 679v56h372v-56h-155v-679h-62v679h-155z" />
    <glyph glyph-name="Tau" unicode="&#x3a4;" 
d="M64 679v56h372v-56h-155v-679h-62v679h-155z" />
    <glyph glyph-name="afii10036" unicode="&#x422;" 
d="M64 679v56h372v-56h-155v-679h-62v679h-155z" />
    <glyph glyph-name="uni04AC" unicode="&#x4ac;" 
d="M64 679v56h372v-56h-155v-623h51v-203h-62v147h-51v679h-155z" />
    <glyph glyph-name="uniA7B1" unicode="&#xa7b1;" 
d="M64 0v56h155v679h62v-679h155v-56h-372z" />
    <glyph glyph-name="Tbar" unicode="&#x166;" 
d="M64 679v56h372v-56h-155v-320h118v-56h-118v-303h-62v303h-118v56h118v320h-155z" />
    <glyph glyph-name="uni01AC" unicode="&#x1ac;" 
d="M64 565q0 85 27 132q12 21 29 31q13 7 28 7h288v-56h-155v-679h-62v679h-71q-3 0 -5 -2q-17 -17 -17 -112h-62z" />
    <glyph glyph-name="glyph435" 
d="M64 474v56h372v-56h-155v-474h-62v474h-155z" />
    <glyph glyph-name="glyph436" 
d="M64 474v56h372v-56h-155v-418h51v-203h-62v147h-51v474h-155z" />
    <glyph glyph-name="uni04AD" unicode="&#x4ad;" 
d="M64 474v56h372v-56h-155v-418h51v-203h-62v147h-51v474h-155z" />
    <glyph glyph-name="tau" unicode="&#x3c4;" 
d="M64 474v56h372v-56h-155v-474h-62v474h-155z" />
    <glyph glyph-name="t" unicode="t" 
d="M52 474v56h117v205h62v-205h171v-56h-171v-286q0 -57 21 -94q14 -24 34 -35q18 -11 42.5 -11t42.5 11q21 12 35 36q18 30 20 71l61 -11q-4 -49 -27 -88q-21 -36 -54 -56q-33 -19 -77 -19t-77 19q-34 19 -55 56q-28 49 -28 121v286h-117z" />
    <glyph glyph-name="uni0287" unicode="&#x287;" 
d="M13 375q4 49 27 88q21 36 54 56q33 19 77 19t77 -19q34 -19 55 -56q28 -49 28 -121v-286h117v-56h-117v-205h-62v205h-171v56h171v286q0 57 -21 94q-14 24 -34 35q-18 11 -42.5 11t-42.5 -11q-21 -12 -35 -36q-18 -30 -20 -71z" />
    <glyph glyph-name="uni01AB" unicode="&#x1ab;" 
d="M52 474v56h117v205h62v-205h171v-56h-171v-286q0 -57 21 -94q14 -24 34 -35q18 -11 42.5 -11t42.5 11q21 12 35 36q15 26 19 59v1q1 6 1 11l61 -11v-155q0 -55 -23 -95q-22 -37 -61 -60q-48 -28 -117 -28v56q47 0 80 19q58 34 59 108v24q-9 -7 -19 -13q-33 -19 -77 -19
t-77 19q-34 19 -55 56q-28 49 -28 121v286h-117z" />
    <glyph glyph-name="uni01AD" unicode="&#x1ad;" 
d="M52 474v56h117q0 55 23 95q22 37 61 60q48 28 117 28v-56q-47 0 -80 -19q-58 -34 -59 -108h171v-56h-171v-286q0 -57 21 -94q14 -24 34 -35q18 -11 42.5 -11t42.5 11q21 12 35 36q18 30 20 71l61 -11q-4 -49 -27 -88q-21 -36 -54 -56q-33 -19 -77 -19t-77 19
q-34 19 -55 56q-28 49 -28 121v286h-117z" />
    <glyph glyph-name="uni0288" unicode="&#x288;" 
d="M52 474v56h117v205h62v-205h171v-56h-171v-491q0 -57 21 -94q14 -24 34 -35q18 -11 42.5 -11t42.5 11q21 12 35 36q18 30 20 71l61 -11q-4 -49 -27 -88q-21 -36 -54 -56q-33 -19 -77 -19t-77 19q-34 19 -55 56q-28 49 -28 121v491h-117z" />
    <glyph glyph-name="uni0236" unicode="&#x236;" 
d="M45 -44q16 70 52 133q34 59 72 95v290h-117v56h117v205h62v-205h171v-56h-171v-248q30 13 63 13q36 0 63 -16q24 -14 38 -38q17 -29 17 -69q0 -57 -33 -91q-33 -33 -88 -33q-32 0 -58 15t-42 42q-11 19 -16 49q-11 -16 -22 -35q-33 -56 -47 -119zM231 142q0 -57 21 -78
q16 -16 39 -16q25 0 41 17q18 18 18 51t-18 51q-16 16 -41 16q-21 0 -44 -13q-8 -4 -16 -10v-18z" />
    <glyph glyph-name="tbar" unicode="&#x167;" 
d="M52 474v56h117v205h62v-205h171v-56h-171v-128h109v-56h-109v-102q0 -57 21 -94q14 -24 34 -35q18 -11 42.5 -11t42.5 11q21 12 35 36q18 30 20 71l61 -11q-4 -49 -27 -88q-21 -36 -54 -56q-33 -19 -77 -19t-77 19q-34 19 -55 56q-28 49 -28 121v102h-90v56h90v128h-117z
" />
    <glyph glyph-name="S" unicode="S" 
d="M59 150v5l62 7q0 -4 -1 -8q0 -27 14 -50q14 -24 39 -38q30 -18 74 -18q40 0 69 17q26 15 41 40q17 30 17 66t-20 70q-26 45 -96 86q-7 4 -21 11.5t-21 11.5q-90 52 -124 111q-28 49 -28 102q0 52 25 95q22 38 60 60q43 25 104 25q65 0 110 -26q37 -21 58 -57t20 -75v-5
l-62 -7q0 4 1 8q0 27 -14 50q-14 24 -39 38q-30 18 -74 18q-40 0 -69 -17q-26 -15 -41 -40q-17 -30 -17 -66t20 -70q26 -45 96 -86q7 -4 21 -11.5t21 -11.5q90 -52 124 -111q28 -49 28 -102q0 -52 -25 -95q-22 -38 -60 -60q-43 -25 -104 -25q-65 0 -110 26q-37 21 -58 57
t-20 75z" />
    <glyph glyph-name="afii10054" unicode="&#x405;" 
d="M59 150v5l62 7q0 -4 -1 -8q0 -27 14 -50q14 -24 39 -38q30 -18 74 -18q40 0 69 17q26 15 41 40q17 30 17 66t-20 70q-26 45 -96 86q-7 4 -21 11.5t-21 11.5q-90 52 -124 111q-28 49 -28 102q0 52 25 95q22 38 60 60q43 25 104 25q65 0 110 -26q37 -21 58 -57t20 -75v-5
l-62 -7q0 4 1 8q0 27 -14 50q-14 24 -39 38q-30 18 -74 18q-40 0 -69 -17q-26 -15 -41 -40q-17 -30 -17 -66t20 -70q26 -45 96 -86q7 -4 21 -11.5t21 -11.5q90 -52 124 -111q28 -49 28 -102q0 -52 -25 -95q-22 -38 -60 -60q-43 -25 -104 -25q-65 0 -110 26q-37 21 -58 57
t-20 75z" />
    <glyph glyph-name="s" unicode="s" 
d="M61 110l59 18q3 -12 10 -22q15 -25 39 -40q31 -18 79 -18q52 0 85 19q22 12 32 31q10 17 10 39t-11 41q-12 21 -35 34q-26 15 -84 22q-72 9 -107 30q-35 20 -55 55q-20 34 -20 74q0 38 17 67q17 30 51 50q48 28 121 28q69 0 114 -26q37 -21 59 -59q9 -16 14 -33l-59 -18
q-8 25 -27 45q-10 10 -22 17q-31 18 -79 18q-52 0 -85 -19q-22 -12 -32 -31q-10 -17 -10 -39t11 -41q12 -21 35 -34q26 -15 84 -22q72 -9 107 -30q35 -20 55 -55q20 -34 20 -74q0 -38 -17 -67q-17 -30 -51 -50q-48 -28 -121 -28q-69 0 -114 26q-37 21 -59 59q-9 16 -14 33z
" />
    <glyph glyph-name="afii10102" unicode="&#x455;" 
d="M61 110l59 18q3 -12 10 -22q15 -25 39 -40q31 -18 79 -18q52 0 85 19q22 12 32 31q10 17 10 39t-11 41q-12 21 -35 34q-26 15 -84 22q-72 9 -107 30q-35 20 -55 55q-20 34 -20 74q0 38 17 67q17 30 51 50q48 28 121 28q69 0 114 -26q37 -21 59 -59q9 -16 14 -33l-59 -18
q-8 25 -27 45q-10 10 -22 17q-31 18 -79 18q-52 0 -85 -19q-22 -12 -32 -31q-10 -17 -10 -39t11 -41q12 -21 35 -34q26 -15 84 -22q72 -9 107 -30q35 -20 55 -55q20 -34 20 -74q0 -38 -17 -67q-17 -30 -51 -50q-48 -28 -121 -28q-69 0 -114 26q-37 21 -59 59q-9 16 -14 33z
" />
    <glyph glyph-name="uni01A7" unicode="&#x1a7;" 
d="M59 580v5q0 39 20 75q21 36 58 57q45 26 110 26q61 0 104 -25q38 -22 60 -60q25 -43 25 -95q0 -53 -28 -102q-34 -59 -124 -111q-7 -4 -21 -11.5t-21 -11.5q-71 -41 -96 -86q-20 -34 -20 -70t17 -66q15 -26 41 -40q29 -17 69 -17q44 0 74 18q25 14 39 38q13 23 14 50
q0 4 -1 8l62 -7v-5q0 -39 -20 -75q-21 -36 -58 -57q-45 -26 -110 -26q-61 0 -104 25q-38 22 -60 60q-25 43 -25 95q0 53 28 102q34 59 124 111q7 4 21 11.5t21 11.5q71 41 96 86q20 34 20 70t-17 66q-15 26 -41 40q-29 17 -69 17q-44 0 -74 -18q-25 -14 -39 -38
q-13 -23 -14 -50q0 -4 1 -8z" />
    <glyph glyph-name="uni01A8" unicode="&#x1a8;" 
d="M59 420q5 17 14 33q22 37 59 59q45 26 114 26q73 0 122 -28q34 -20 52 -50q17 -29 16 -62q0 -36 -19 -69q-21 -37 -60 -60q-34 -19 -104 -35q-53 -12 -77 -27q-26 -15 -39 -37q-11 -18 -11 -38q0 -18 9 -34q10 -18 32 -31q33 -19 87 -19q48 0 79 18q25 15 39 40
q6 11 10 22l59 -18q-5 -17 -14 -33q-22 -37 -59 -59q-45 -26 -114 -26q-73 0 -122 28q-34 20 -52 50q-17 29 -16 62q0 36 19 69q21 37 60 60q34 19 104 35q53 12 77 27q26 15 39 37q11 18 11 38q0 18 -9 34q-10 18 -32 31q-33 19 -87 19q-48 0 -79 -18q-25 -15 -39 -40
q-6 -11 -10 -22z" />
    <glyph glyph-name="glyph452" 
d="M59 420q5 17 14 33q22 37 59 59q45 26 114 26q73 0 122 -28q34 -20 52 -50q17 -29 16 -62q0 -36 -19 -69q-21 -37 -60 -60q-34 -19 -104 -35q-53 -12 -77 -27q-26 -15 -39 -37q-11 -18 -11 -38q0 -18 9 -34q10 -18 32 -31q33 -19 87 -19q48 0 79 18q25 15 39 40
q6 11 10 22l59 -18q-5 -17 -14 -33q-22 -37 -59 -59q-45 -26 -114 -26q-73 0 -122 28q-34 20 -52 50q-17 29 -16 62q0 36 19 69q21 37 60 60q34 19 104 35q53 12 77 27q26 15 39 37q11 18 11 38q0 18 -9 34q-10 18 -32 31q-33 19 -87 19q-48 0 -79 -18q-25 -15 -39 -40
q-6 -11 -10 -22z" />
    <glyph glyph-name="uni0282" unicode="&#x282;" 
d="M59 0v110h2l59 18q3 -12 10 -22q15 -25 39 -40q31 -18 79 -18q52 0 85 19q22 12 32 31q10 17 10 39t-11 41q-12 21 -35 34q-26 15 -84 22q-72 9 -107 30q-35 20 -55 55q-20 34 -20 74q0 38 17 67q17 30 51 50q48 28 121 28q69 0 114 -26q37 -21 59 -59q9 -16 14 -33
l-59 -18q-8 25 -27 45q-10 10 -22 17q-31 18 -79 18q-52 0 -85 -19q-22 -12 -32 -31q-10 -17 -10 -39t11 -41q12 -21 35 -34q26 -15 84 -22q72 -9 107 -30q35 -20 55 -55q20 -34 20 -74q0 -38 -17 -67q-17 -30 -51 -50q-48 -28 -121 -28q-69 0 -114 26q-7 4 -13 8v-26
q0 -50 15 -76q13 -22 34 -34q29 -17 90 -17v-56q-88 0 -130 24q-31 18 -50 50q-21 37 -21 109z" />
    <glyph glyph-name="uni2C7E" unicode="&#x2c7e;" 
d="M58 134q0 10 1 21l62 7q0 -4 -1 -8v-2h1v-6q2 -22 13 -42q14 -24 39 -38q30 -18 74 -18q40 0 69 17q26 15 41 40q17 30 17 66t-20 70q-26 45 -96 86q-7 4 -21 11.5t-21 11.5q-90 52 -124 111q-28 49 -28 102q0 52 25 95q22 38 60 60q43 25 104 25q65 0 110 -26
q37 -21 58 -57t20 -75v-5l-62 -7q0 4 1 8q0 27 -14 50q-14 24 -39 38q-30 18 -74 18q-40 0 -69 -17q-26 -15 -41 -40q-17 -30 -17 -66t20 -70q26 -45 96 -86q7 -4 21 -11.5t21 -11.5q90 -52 124 -111q28 -49 28 -102q0 -52 -25 -95q-22 -38 -60 -60q-43 -25 -104 -25
q-60 0 -104 22q7 -16 16 -30q35 -61 95 -96q63 -37 181 -37h1v-56h-1q-139 0 -214 43q-72 41 -115 116q-48 82 -48 180z" />
    <glyph glyph-name="uni023F" unicode="&#x23f;" 
d="M59 110h3l58 18q3 -12 10 -22q15 -25 39 -40q31 -18 79 -18q52 0 85 19q22 12 32 31q10 17 10 39t-11 41q-12 21 -35 34q-26 15 -84 22q-72 9 -107 30q-35 20 -55 55q-20 34 -20 74q0 38 17 67q17 30 51 50q48 28 121 28q69 0 114 -26q37 -21 59 -59q9 -16 14 -33
l-59 -18q-8 25 -27 45q-10 10 -22 17q-31 18 -79 18q-52 0 -85 -19q-22 -12 -32 -31q-10 -17 -10 -39t11 -41q12 -21 35 -34q26 -15 84 -22q72 -9 107 -30q35 -20 55 -55q20 -34 20 -74q0 -38 -17 -67q-17 -30 -51 -50q-48 -28 -121 -28q-57 0 -98 18q5 -11 12 -22
q38 -66 99 -101q62 -36 174 -36h1v-56h-1q-133 0 -207 43t-120 122q-40 69 -49 150z" />
    <glyph glyph-name="Z" unicode="Z" 
d="M64 0v56l300 623h-300v56h372v-56l-300 -623h300v-56h-372z" />
    <glyph glyph-name="Zeta" unicode="&#x396;" 
d="M64 0v56l300 623h-300v56h372v-56l-300 -623h300v-56h-372z" />
    <glyph glyph-name="z" unicode="z" 
d="M64 0v56l297 418h-297v56h372v-56l-297 -418h297v-56h-372z" />
    <glyph glyph-name="uni0224" unicode="&#x224;" 
d="M64 0v56l300 623h-300v56h372v-56l-300 -623h130q46 0 82 -21q35 -20 58 -59q30 -53 30 -131h-62q0 64 -24 104q-15 26 -37 39q-21 12 -47 12h-202z" />
    <glyph glyph-name="uni0225" unicode="&#x225;" 
d="M64 0v56l297 418h-297v56h372v-56l-297 -418h127q46 0 82 -21q35 -20 58 -59q30 -53 30 -131h-62q0 64 -24 104q-15 26 -37 39q-21 12 -47 12h-202z" />
    <glyph glyph-name="uni2C7F" unicode="&#x2c7f;" 
d="M64 0l308 679h-308v56h372v-56l-301 -665q104 -101 153 -130q58 -33 147 -33h1v-56h-1q-107 0 -178 41q-69 40 -193 164z" />
    <glyph glyph-name="uni0240" unicode="&#x240;" 
d="M64 0l305 474h-305v56h372v-56l-296 -461q104 -102 152 -130q56 -32 143 -32h1v-56h-1q-105 0 -174 40q-68 39 -192 165h-5z" />
    <glyph glyph-name="uni2C6B" unicode="&#x2c6b;" 
d="M64 0v56l300 623h-300v56h372v-56l-300 -623h319v-203h-63v147h-328z" />
    <glyph glyph-name="uni2C6C" unicode="&#x2c6c;" 
d="M64 0v56l297 418h-297v56h372v-56l-297 -418h316v-203h-63v147h-328z" />
    <glyph glyph-name="uni0291" unicode="&#x291;" 
d="M64 0v56l297 418h-297v56h372v-56l-297 -418h81q37 60 83 86q36 21 76 20q32 0 54 -12q38 -22 37 -69q0 -22 -9 -38q-10 -17 -29 -28q-26 -15 -64 -15h-114q-22 -45 -39 -106l-60 15q16 50 35 91h-126zM288 56h80q23 0 34 11q6 6 6 14q0 10 -7 17q-8 8 -22 8
q-26 0 -50 -13q-22 -13 -41 -37z" />
    <glyph glyph-name="alpha" unicode="&#x3b1;" 
d="M48 220v90q0 89 34 147q24 41 60 62q33 19 78 19q30 0 55 -14q32 -19 58 -62q16 -27 31 -77l2 10q11 71 22 135h62q-14 -71 -30 -150q-12 -61 -23 -112q12 -53 25 -118q16 -79 30 -150h-62q-11 64 -22 135q-1 8 -3 16q-17 -54 -34 -84q-25 -43 -57 -61q-24 -14 -54 -14
q-45 0 -78 19q-37 21 -60 62q-34 58 -34 147zM110 220q0 -74 27 -120q16 -28 39 -41q19 -11 44 -11q18 0 34 9q22 13 38 41q25 45 51 171q-25 119 -50 162q-17 29 -39 42q-15 9 -34 9q-25 0 -44 -11q-23 -13 -39 -41q-26 -46 -27 -120v-90z" />
    <glyph glyph-name="uniAB64" unicode="&#xab64;" 
d="M48 220v90q0 89 34 147q24 41 60 62q33 19 78 19q30 0 55 -14q32 -19 58 -62q16 -27 31 -77l2 10q11 71 22 135h62q-14 -71 -30 -150q-12 -61 -23 -112q12 -53 25 -118q16 -79 30 -150h-62q-11 64 -22 135q-1 8 -3 16q-17 -54 -34 -84q-25 -43 -57 -61q-24 -14 -54 -14
q-45 0 -78 19q-37 21 -60 62q-34 58 -34 147zM110 220q0 -74 27 -120q16 -28 39 -41q19 -11 44 -11q18 0 34 9q22 13 38 41q25 45 51 171q-25 119 -50 162q-17 29 -39 42q-15 9 -34 9q-25 0 -44 -11q-23 -13 -39 -41q-26 -46 -27 -120v-90z" />
    <glyph glyph-name="Gamma" unicode="&#x393;" 
d="M96 0v735h348v-56h-286v-679h-62z" />
    <glyph glyph-name="afii10020" unicode="&#x413;" 
d="M96 0v735h348v-56h-286v-679h-62z" />
    <glyph glyph-name="glyph470" 
d="M96 0v530h348v-56h-286v-474h-62z" />
    <glyph glyph-name="glyph471" 
d="M75 0v56h151v418h-137v56h199v-474h137v-56h-350zM100 657v56h300v-56h-300z" />
    <glyph glyph-name="afii10068" unicode="&#x433;" 
d="M96 0v530h348v-56h-286v-474h-62z" />
    <glyph glyph-name="afii10050" unicode="&#x490;" 
d="M96 0v735h286v155h62v-211h-286v-679h-62z" />
    <glyph glyph-name="afii10098" unicode="&#x491;" 
d="M96 0v530h286v155h62v-211h-286v-474h-62z" />
    <glyph glyph-name="uni0492" unicode="&#x492;" 
d="M19 325v56h77v354h348v-56h-286v-298h105v-56h-105v-325h-62v325h-77z" />
    <glyph glyph-name="glyph476" 
d="M19 226v56h77v248h348v-56h-286v-192h105v-56h-105v-226h-62v226h-77z" />
    <glyph glyph-name="glyph477" 
d="M59 420q5 17 14 33q22 37 59 59q45 26 114 26q73 0 122 -28q34 -20 52 -50q17 -29 16 -62q0 -36 -19 -69q-21 -37 -60 -60q-25 -14 -69 -26l27 -102l-60 -14l-27 100q-34 -9 -52 -20q-26 -15 -39 -37q-11 -18 -11 -38q0 -18 9 -34q10 -18 32 -31q34 -19 87 -19
q48 0 79 18q25 15 39 40q6 11 10 22l59 -18q-5 -17 -14 -33q-22 -37 -59 -59q-45 -26 -114 -26q-73 0 -122 28q-34 20 -52 50q-17 29 -16 62q0 36 19 69q21 37 60 60q25 14 69 26l-27 102l60 14l27 -100q34 9 52 20q26 15 39 37q11 18 11 38q0 18 -9 34q-10 18 -32 31
q-34 19 -87 19q-48 0 -79 -18q-25 -15 -39 -40q-6 -11 -10 -22z" />
    <glyph glyph-name="uni1D24" unicode="&#x1d24;" 
d="M59 420q5 17 14 33q22 37 59 59q45 26 114 26q73 0 122 -28q34 -20 52 -50q17 -29 16 -62q0 -36 -19 -69q-21 -37 -60 -60q-25 -14 -69 -26l27 -102l-60 -14l-27 100q-34 -9 -52 -20q-26 -15 -39 -37q-11 -18 -11 -38q0 -18 9 -34q10 -18 32 -31q34 -19 87 -19
q48 0 79 18q25 15 39 40q6 11 10 22l59 -18q-5 -17 -14 -33q-22 -37 -59 -59q-45 -26 -114 -26q-73 0 -122 28q-34 20 -52 50q-17 29 -16 62q0 36 19 69q21 37 60 60q25 14 69 26l-27 102l60 14l27 -100q34 9 52 20q26 15 39 37q11 18 11 38q0 18 -9 34q-10 18 -32 31
q-34 19 -87 19q-48 0 -79 -18q-25 -15 -39 -40q-6 -11 -10 -22z" />
    <glyph glyph-name="uni0493" unicode="&#x493;" 
d="M19 226v56h77v248h348v-56h-286v-192h105v-56h-105v-226h-62v226h-77z" />
    <glyph glyph-name="gamma" unicode="&#x3b3;" 
d="M36 509l53 29q8 -12 15 -25q124 -214 151 -405q119 250 119 369v53h62v-53q0 -145 -173 -477v-205h-62v205q0 223 -153 487z" />
    <glyph glyph-name="Lambda" unicode="&#x39b;" 
d="M64 0v74q0 61 17 132q9 36 27 109q56 239 114 420h56q58 -182 114 -420q17 -73 27 -109q17 -70 17 -132v-74h-62v74q0 60 -16 129q-8 35 -23 105q-42 192 -85 346q-43 -154 -85 -346q-15 -70 -23 -105q-16 -69 -16 -129v-74h-62z" />
    <glyph glyph-name="uni0245" unicode="&#x245;" 
d="M64 0v74q0 61 17 132q9 36 27 109q56 239 114 420h56q58 -182 114 -420q17 -73 27 -109q17 -70 17 -132v-74h-62v74q0 60 -16 129q-8 35 -23 105q-42 192 -85 346q-43 -154 -85 -346q-15 -70 -23 -105q-16 -69 -16 -129v-74h-62z" />
    <glyph glyph-name="Delta" unicode="&#x394;" 
d="M64 0v74q0 61 17 132q9 36 27 109q56 239 114 420h56q58 -182 114 -420q17 -73 27 -109q17 -70 17 -132v-74h-372zM126 56h248v18q0 60 -16 129q-8 35 -23 105q-42 192 -85 346q-43 -154 -85 -346q-15 -70 -23 -105q-16 -69 -16 -129v-18z" />
    <glyph glyph-name="delta" unicode="&#x3b4;" 
d="M56 211v87q0 64 26.5 109.5t74.5 68.5q-8 3 -14 7q-26 15 -41 41q-18 31 -18 71q0 42 20 78q18 31 49 48q38 22 88 22q80 0 167 -49v-56q-90 49 -160 49q-35 0 -60 -14q-19 -11 -30 -30q-12 -21 -12 -47q0 -24 11 -43q9 -16 26 -26t59 -17q80 -13 118 -35q39 -23 61 -60
q23 -40 23 -117v-87q0 -77 -31 -129q-24 -42 -64 -66q-42 -24 -99 -24t-99 24q-40 23 -64 66q-31 53 -31 129zM118 211q0 -61 24 -101q17 -30 45 -46q27 -16 63 -16t63 16q28 16 45 46q23 41 24 101v87q0 59 -18 89q-16 27 -43 43q-26 15 -91 27q-12 2 -22 4q-11 -4 -20 -9
q-27 -16 -45 -47q-25 -43 -25 -107v-87z" />
    <glyph glyph-name="afii10066.locl" 
d="M56 211v87q0 64 26.5 109.5t74.5 68.5q-8 3 -14 7q-26 15 -41 41q-18 31 -18 71q0 42 20 78q18 31 49 48q38 22 88 22q80 0 167 -49v-56q-90 49 -160 49q-35 0 -60 -14q-19 -11 -30 -30q-12 -21 -12 -47q0 -24 11 -43q9 -16 26 -26t59 -17q80 -13 118 -35q39 -23 61 -60
q23 -40 23 -117v-87q0 -77 -31 -129q-24 -42 -64 -66q-42 -24 -99 -24t-99 24q-40 23 -64 66q-31 53 -31 129zM118 211q0 -61 24 -101q17 -30 45 -46q27 -16 63 -16t63 16q28 16 45 46q23 41 24 101v87q0 59 -18 89q-16 27 -43 43q-26 15 -91 27q-12 2 -22 4q-11 -4 -20 -9
q-27 -16 -45 -47q-25 -43 -25 -107v-87z" />
    <glyph glyph-name="uni1E9F" unicode="&#x1e9f;" 
d="M56 211v87q0 64 26.5 109.5t74.5 68.5q-8 3 -14 7q-26 15 -41 41q-18 31 -18 71q0 42 20 78q18 31 49 48q38 22 88 22q80 0 167 -49v-56q-90 49 -160 49q-35 0 -60 -14q-19 -11 -30 -30q-12 -21 -12 -47q0 -24 11 -43q9 -16 26 -26t59 -17q80 -13 118 -35q39 -23 61 -60
q23 -40 23 -117v-87q0 -77 -31 -129q-24 -42 -64 -66q-42 -24 -99 -24t-99 24q-40 23 -64 66q-31 53 -31 129zM118 211q0 -61 24 -101q17 -30 45 -46q27 -16 63 -16t63 16q28 16 45 46q23 41 24 101v87q0 59 -18 89q-16 27 -43 43q-26 15 -91 27q-12 2 -22 4q-11 -4 -20 -9
q-27 -16 -45 -47q-25 -43 -25 -107v-87z" />
    <glyph glyph-name="uni018D" unicode="&#x18d;" 
d="M56 232v87q0 77 31 129q24 42 64 66q42 24 99 24t99 -24q40 -23 64 -66q31 -53 31 -129v-87q0 -64 -26.5 -109.5t-74.5 -68.5q8 -3 14 -7q26 -15 41 -41q18 -31 18 -71q0 -42 -20 -78q-18 -31 -49 -48q-38 -22 -88 -22q-80 0 -167 49v56q90 -49 160 -49q35 0 60 14
q19 11 30 30q12 21 12 47q0 24 -11 43q-9 16 -26 26t-59 17q-80 13 -118 35q-39 23 -61 60q-23 40 -23 117zM118 232q0 -59 18 -89q16 -27 43 -43q26 -15 91 -27q12 -2 22 -4q11 4 20 9q27 16 45 47q25 43 25 107v87q0 61 -24 101q-17 30 -45 46q-27 16 -63 16t-63 -16
q-28 -16 -45 -46q-23 -41 -24 -101v-87z" />
    <glyph glyph-name="afii10066" unicode="&#x431;" 
d="M56 220v149q0 156 38 223q23 39 58 59q23 13 74 27q92 25 179 57l21 -53q-89 -33 -183 -57q-40 -10 -57 -21q-25 -15 -42 -43q-21 -38 -26 -115q22 38 57 58q32 19 77 19q56 0 99 -25q40 -23 64 -65q29 -51 29 -123v-90q0 -82 -32 -138q-25 -43 -66 -66.5t-96 -23.5
t-96 23.5t-66 66.5q-32 56 -32 138zM118 220q0 -66 25 -110q18 -31 46 -47q26 -15 61 -15t61 15q28 16 46 47q25 44 25 110v90q0 57 -22 95q-17 30 -45 46q-27 16 -64 16t-65 -16.5t-46 -45.5q-22 -38 -22 -95v-90z" />
    <glyph glyph-name="epsilon" unicode="&#x3b5;" 
d="M64 147q0 38 16 66q17 30 51 49q13 7 27 13q-17 6 -32 14q-32 18 -48 47q-14 25 -14 57q0 38 17 67q18 30 51 50q48 28 122 28q69 0 114 -26q37 -22 59 -59q9 -16 14 -33l-59 -18q-3 11 -9 22q-15 25 -41 40q-31 18 -78 18q-52 0 -86 -19q-22 -12 -32 -31
q-10 -17 -10 -40q0 -22 10 -39q11 -19 33 -31q32 -18 81 -18h56v-56h-56q-46 0 -77 -18q-23 -13 -35 -34q-12 -20 -12 -48q0 -27 12 -47q12 -21 35 -34q32 -19 81 -19q47 0 78 18q26 15 41 40q6 11 9 23l59 -19q-5 -17 -14 -33q-22 -37 -59 -59q-45 -26 -114 -26
q-70 0 -117 27q-36 21 -54 53q-19 32 -19 75z" />
    <glyph glyph-name="uni025B" unicode="&#x25b;" 
d="M64 147q0 38 16 66q17 30 51 49q13 7 27 13q-17 6 -32 14q-32 18 -48 47q-14 25 -14 57q0 38 17 67q18 30 51 50q48 28 122 28q69 0 114 -26q37 -22 59 -59q9 -16 14 -33l-59 -18q-3 11 -9 22q-15 25 -41 40q-31 18 -78 18q-52 0 -86 -19q-22 -12 -32 -31
q-10 -17 -10 -40q0 -22 10 -39q11 -19 33 -31q32 -18 81 -18h56v-56h-56q-46 0 -77 -18q-23 -13 -35 -34q-12 -20 -12 -48q0 -27 12 -47q12 -21 35 -34q32 -19 81 -19q47 0 78 18q26 15 41 40q6 11 9 23l59 -19q-5 -17 -14 -33q-22 -37 -59 -59q-45 -26 -114 -26
q-70 0 -117 27q-36 21 -54 53q-19 32 -19 75z" />
    <glyph glyph-name="uni0190" unicode="&#x190;" 
d="M64 201q0 65 26 110q23 39 60 61q9 5 20 10q-13 5 -24 11q-37 21 -59 59q-23 41 -23 97q0 62 26 106q23 39 62 62q44 26 106.5 26t106.5 -26q39 -23 62 -62q8 -14 14 -30l-58 -20q-4 12 -10 22q-16 27 -43 43q-30 17 -72 17q-41 0 -70 -17q-27 -16 -43 -43
q-19 -32 -19 -79t19 -81q33 -57 105 -57h56v-56h-56q-34 0 -60 -15t-42 -43q-22 -38 -22 -94q0 -55 22 -92q17 -30 45 -45q29 -17 67 -17q40 0 69 17q28 16 45 45q6 11 11 24l56 -24q-6 -15 -13 -28q-24 -41 -65 -65q-43 -25 -103 -25t-103 25q-40 23 -65 65q-28 49 -28 119
z" />
    <glyph glyph-name="afii10025" unicode="&#x417;" 
d="M59 155l60 13q4 -33 20 -60q17 -29 44 -44.5t63 -15.5t62.5 15.5t43.5 44.5q22 38 22 94t-22 94q-16 28 -42 43t-60 15h-56v56h56q72 0 105 57q19 33 19 81t-19 81q-16 27 -42 42q-28 16 -66.5 16t-66.5 -16q-26 -15 -42 -42q-15 -26 -18 -58l-61 9q4 42 24 77
q22 39 61 61q43 25 102.5 25t102.5 -25q39 -22 61 -61q26 -45 26 -108q0 -57 -23 -97q-21 -37 -59 -59q-12 -7 -24 -11q10 -4 20 -10q38 -22 60 -61q26 -45 26 -110q0 -72 -29 -121q-24 -41 -63 -64q-41 -24 -98 -24t-98 24q-39 23 -63 63q-20 34 -26 76z" />
    <glyph glyph-name="afii10073" unicode="&#x437;" 
d="M59 110l59 19q3 -12 9 -23q15 -26 41 -40q31 -18 78 -18q49 0 81 19q23 13 35 34q12 20 12 47t-12 48t-35 34q-31 18 -77 18h-56v56h56q50 0 81 18q22 12 33 31q10 17 10 39t-10 40q-11 18 -32 31q-33 19 -86 19q-48 0 -78 -18q-25 -15 -41 -40q-6 -11 -9 -22l-59 18
q5 17 14 33q22 37 59 59q45 26 114 26q73 0 122 -28q34 -20 51 -50q17 -29 17 -67q0 -33 -14 -57q-16 -28 -48 -47q-15 -8 -32 -14q15 -5 27 -13q33 -19 51 -49q16 -28 16 -66q0 -43 -19 -75q-19 -33 -54 -53q-47 -27 -117 -27q-68 0 -114 26q-37 22 -59 59q-9 16 -14 33z
" />
    <glyph glyph-name="uni025C" unicode="&#x25c;" 
d="M59 110l59 19q3 -12 9 -23q15 -26 41 -40q31 -18 78 -18q49 0 81 19q23 13 35 34q12 20 12 47t-12 48t-35 34q-31 18 -77 18h-56v56h56q50 0 81 18q22 12 33 31q10 17 10 39t-10 40q-11 18 -32 31q-33 19 -86 19q-48 0 -78 -18q-25 -15 -41 -40q-6 -11 -9 -22l-59 18
q5 17 14 33q22 37 59 59q45 26 114 26q73 0 122 -28q34 -20 51 -50q17 -29 17 -67q0 -33 -14 -57q-16 -28 -48 -47q-15 -8 -32 -14q15 -5 27 -13q33 -19 51 -49q16 -28 16 -66q0 -43 -19 -75q-19 -33 -54 -53q-47 -27 -117 -27q-68 0 -114 26q-37 22 -59 59q-9 16 -14 33z
" />
    <glyph glyph-name="uni029A" unicode="&#x29a;" 
d="M56 381q0 43 19 75q19 33 55 54q48 28 117 28q58 0 99 -23.5t66 -66.5q32 -56 32 -138v-90q0 -82 -32 -138q-25 -43 -66 -66.5t-98 -23.5q-64 0 -109 26q-33 19 -50 49q-17 29 -17 68.5t17 69.5q16 27 44 45q-38 21 -58 56q-19 32 -19 75zM118 381q0 -27 12 -47
q12 -21 36 -35q33 -19 84 -19h56v-56h-56q-45 0 -74 -17q-21 -12 -32 -31q-10 -17 -10 -40t10 -41q11 -19 32 -30q29 -17 71 -17q37 0 64 15q28 16 46 47q25 44 25 110v90q0 66 -25 110q-18 31 -46 47q-26 15 -64 15q-47 0 -81 -19q-24 -14 -36 -35q-12 -20 -12 -47z" />
    <glyph glyph-name="Theta" unicode="&#x398;" 
d="M56 195v345q0 67 27 115q23 40 64 63q43 25 103 25t103 -25q40 -23 64 -63q27 -48 27 -115v-345q0 -67 -27 -115q-23 -40 -64 -63q-43 -25 -103 -25t-103 25q-40 23 -64 63q-27 48 -27 115zM118 195q0 -51 21 -86q16 -29 43 -45q28 -16 67.5 -16t68.5 16q27 16 43 45
q20 35 21 86v345q0 51 -21 86q-16 29 -43 45q-29 16 -68 16t-68 -16q-27 -16 -43 -45q-20 -35 -21 -86v-345zM150 340v56h200v-56h-200z" />
    <glyph glyph-name="theta" unicode="&#x3b8;" 
d="M64 368q0 188 59 290q27 48 64 69q28 16 63 16t63 -16q36 -21 64 -69q59 -103 59 -291t-59 -290q-27 -48 -64 -69q-28 -16 -63 -16t-63 16q-36 21 -64 69q-59 103 -59 291zM127 340q4 -160 49 -240q18 -31 39 -43q16 -9 35 -9t35 9q21 12 39 43q45 80 49 240h-246z
M127 396h246q-4 160 -49 239q-18 31 -39 43q-16 9 -35 9t-35 -9q-21 -12 -39 -43q-46 -79 -49 -239z" />
    <glyph glyph-name="zeta" unicode="&#x3b6;" 
d="M64 198q0 131 67 247q64 111 206 234h-273v56h364v-56q-171 -136 -241 -257q-60 -105 -61 -224q0 -46 19 -78q17 -29 46 -45q30 -18 83 -19q61 -2 101 -24q30 -18 46 -45q15 -26 15 -61q0 -39 -16 -68q-16 -27 -44 -43q-34 -20 -84 -20h-42v56h42q28 0 48 11q34 20 34 63
q0 19 -8 33q-9 16 -27 26q-26 15 -70 16q-69 1 -115 27q-41 24 -64 65q-26 45 -26 106z" />
    <glyph glyph-name="xi" unicode="&#x3be;" 
d="M64 176q0 45 24 87q30 52 89 86q24 14 50 23q-42 11 -75 30q-40 23 -58 54q-14 25 -14 62q0 52 25 95q22 38 62 66h-103v56h364v-56h-48q-98 0 -160 -36q-40 -23 -60 -58q-18 -31 -18 -66q0 -24 10 -41q12 -20 40 -36q65 -37 188 -38v-56q-98 0 -166 -39q-47 -27 -70 -68
q-18 -31 -18 -64q0 -36 17 -65q15 -25 40 -40q25 -14 73 -16q76 -3 118 -28q32 -18 48 -46q14 -25 14 -56q0 -39 -16 -68q-16 -27 -44 -43q-34 -20 -84 -20h-42v56h42q28 0 48 11q16 9 24 25q9 16 10 38q0 16 -7 29q-9 15 -28 26q-31 18 -88 20q-66 2 -104 24q-37 22 -58 59
q-25 43 -25 93z" />
    <glyph glyph-name="mu" unicode="&#x3bc;" 
d="M64 -205v735h62v-310q0 -69 26 -113q17 -30 43 -45q24 -14 55 -14t55 14q26 15 43 45q26 44 26 113v310h62v-530h-62v81q-2 -5 -5 -9q-23 -40 -59 -61q-33 -19 -76.5 -19t-76.5 19q-17 10 -31 23v-239h-62z" />
    <glyph glyph-name="Xi" unicode="&#x39e;" 
d="M56 0v56h388v-56h-388zM56 679v56h388v-56h-388zM110 369v56h280v-56h-280z" />
    <glyph glyph-name="Pi" unicode="&#x3a0;" 
d="M64 679v56h372v-56h-11v-679h-62v679h-226v-679h-62v679h-11z" />
    <glyph glyph-name="afii10033" unicode="&#x41f;" 
d="M64 679v56h372v-56h-11v-679h-62v679h-226v-679h-62v679h-11z" />
    <glyph glyph-name="glyph504" 
d="M64 474v56h372v-56h-11v-474h-62v474h-226v-474h-62v474h-11z" />
    <glyph glyph-name="glyph505" 
d="M64 220v310h62v-310q0 -69 26 -113q17 -30 43 -45q24 -14 55 -14t55 14q26 15 43 45q26 44 26 113v310h62v-530h-62v81q-2 -5 -5 -9q-23 -40 -59 -61q-33 -19 -76.5 -19t-76.5 19q-36 21 -59 61q-34 58 -34 148zM100 657v56h300v-56h-300z" />
    <glyph glyph-name="afii10081" unicode="&#x43f;" 
d="M64 474v56h372v-56h-11v-474h-62v474h-226v-474h-62v474h-11z" />
    <glyph glyph-name="pi" unicode="&#x3c0;" 
d="M51 25q11 16 21 33q62 106 62 323q0 21 -1 93h-69v56h372v-56h-69v-350q0 -35 19 -54q14 -14 36 -14h14v-56h-14q-36 0 -62 15q-24 14 -38 38q-17 29 -17 71v350h-110q0 -55 1 -76q0 -247 -69 -366q-12 -21 -26 -40z" />
    <glyph glyph-name="Sigma" unicode="&#x3a3;" 
d="M64 0v56l149 312l-149 311v56h372v-56h-308l149 -311l-149 -312h308v-56h-372z" />
    <glyph glyph-name="uni01A9" unicode="&#x1a9;" 
d="M64 0v56l149 312l-149 311v56h372v-56h-308l149 -311l-149 -312h308v-56h-372z" />
    <glyph glyph-name="Phi" unicode="&#x3a6;" 
d="M56 287v161q0 67 27 115q23 40 64 63q31 18 72 23v86h62v-86q41 -5 72 -23q40 -23 64 -63q27 -48 27 -115v-161q0 -67 -27 -115q-23 -40 -64 -63q-32 -18 -72 -23v-86h-62v86q-41 5 -72 23q-40 23 -64 63q-27 48 -27 115zM118 287q0 -51 21 -86q16 -29 43 -45
q17 -9 37 -13v449q-20 -4 -37 -13q-27 -16 -43 -45q-20 -35 -21 -86v-161zM281 143q20 4 37 13q27 16 43 45q20 35 21 86v161q0 51 -21 86q-16 29 -43 45q-17 9 -37 13v-449z" />
    <glyph glyph-name="afii10038" unicode="&#x424;" 
d="M56 287v161q0 67 27 115q23 40 64 63q31 18 72 23v86h62v-86q41 -5 72 -23q40 -23 64 -63q27 -48 27 -115v-161q0 -67 -27 -115q-23 -40 -64 -63q-32 -18 -72 -23v-86h-62v86q-41 5 -72 23q-40 23 -64 63q-27 48 -27 115zM118 287q0 -51 21 -86q16 -29 43 -45
q17 -9 37 -13v449q-20 -4 -37 -13q-27 -16 -43 -45q-20 -35 -21 -86v-161zM281 143q20 4 37 13q27 16 43 45q20 35 21 86v161q0 51 -21 86q-16 29 -43 45q-17 9 -37 13v-449z" />
    <glyph glyph-name="uni2C77" unicode="&#x2c77;" 
d="M48 284q0 125 53 246l57 -23q-48 -109 -48 -223q0 -105 38 -171q21 -36 49 -52q10 -6 22 -9v298q0 80 28 128q16 28 39 41q19 11 44 11q24 0 42 -11q24 -14 42 -45q38 -65 38 -181q0 -127 -45 -205q-29 -50 -72 -75q-37 -21 -85 -21t-85 21q-43 25 -72 75q-45 79 -45 196
zM281 52q11 3 22 9q29 17 49 52q38 66 38 181q0 109 -28 156q-8 14 -17 20q-7 4 -15 4q-12 0 -21 -9q-28 -28 -28 -115v-298z" />
    <glyph glyph-name="phi" unicode="&#x3c6;" 
d="M48 284q0 125 53 246l57 -23q-48 -109 -48 -223q0 -105 38 -171q21 -36 49 -52q10 -6 22 -9v298q0 80 28 128q16 28 39 41q19 11 44 11q24 0 42 -11q24 -14 42 -45q38 -65 38 -181q0 -127 -45 -205q-29 -50 -72 -75q-25 -14 -54 -19v-199h-62v199q-30 5 -54 19
q-43 25 -72 75q-45 79 -45 196zM281 52q11 3 22 9q29 17 49 52q38 66 38 181q0 109 -28 156q-8 14 -17 20q-7 4 -15 4q-12 0 -21 -9q-28 -28 -28 -115v-298z" />
    <glyph glyph-name="phi1" unicode="&#x3d5;" 
d="M56 220v90q0 82 32 138q25 43 66 66q29 17 65 22v199h62v-199q36 -5 65 -22q41 -23 66 -66q32 -56 32 -138v-90q0 -82 -32 -138q-25 -43 -66 -66q-29 -17 -65 -22v-199h-62v199q-36 5 -65 22q-41 23 -66 66q-32 56 -32 138zM118 220q0 -66 25 -110q18 -31 46 -47
q14 -8 30 -12v428q-16 -4 -30 -12q-28 -16 -46 -47q-25 -44 -25 -110v-90zM281 51q16 4 30 12q28 16 46 47q25 44 25 110v90q0 66 -25 110q-18 31 -46 47q-14 8 -30 12v-428z" />
    <glyph glyph-name="afii10086" unicode="&#x444;" 
d="M56 220v90q0 82 32 138q25 43 66 66q29 17 65 22v199h62v-199q36 -5 65 -22q41 -23 66 -66q32 -56 32 -138v-90q0 -82 -32 -138q-25 -43 -66 -66q-29 -17 -65 -22v-199h-62v199q-36 5 -65 22q-41 23 -66 66q-32 56 -32 138zM118 220q0 -66 25 -110q18 -31 46 -47
q14 -8 30 -12v428q-16 -4 -30 -12q-28 -16 -46 -47q-25 -44 -25 -110v-90zM281 51q16 4 30 12q28 16 46 47q25 44 25 110v90q0 66 -25 110q-18 31 -46 47q-14 8 -30 12v-428z" />
    <glyph glyph-name="uni0278" unicode="&#x278;" 
d="M56 220v90q0 82 32 138q25 43 66 66q29 17 65 22v199h62v-199q36 -5 65 -22q41 -23 66 -66q32 -56 32 -138v-90q0 -82 -32 -138q-25 -43 -66 -66q-29 -17 -65 -22v-199h-62v199q-36 5 -65 22q-41 23 -66 66q-32 56 -32 138zM118 220q0 -66 25 -110q18 -31 46 -47
q14 -8 30 -12v428q-16 -4 -30 -12q-28 -16 -46 -47q-25 -44 -25 -110v-90zM281 51q16 4 30 12q28 16 46 47q25 44 25 110v90q0 66 -25 110q-18 31 -46 47q-14 8 -30 12v-428z" />
    <glyph glyph-name="Psi" unicode="&#x3a8;" 
d="M64 342v246h62v-246q0 -48 20 -82q16 -27 41 -42q15 -8 32 -12v529h62v-529q17 4 32 12q26 15 41 42q19 33 20 82v246h62v-246q0 -65 -26 -110q-22 -39 -61 -61q-30 -17 -68 -22v-149h-62v149q-38 5 -68 22q-38 22 -61 61q-26 46 -26 110z" />
    <glyph glyph-name="uni1D2A" unicode="&#x1d2a;" 
d="M64 354v176h62v-176q0 -48 20 -82q16 -27 41 -42q15 -8 32 -12v312h62v-312q17 4 32 12q26 15 41 42q19 33 20 82v176h62v-176q0 -65 -26 -110q-22 -39 -61 -61q-30 -17 -68 -22v-161h-62v161q-38 5 -68 22q-38 22 -61 61q-26 46 -26 110z" />
    <glyph glyph-name="psi" unicode="&#x3c8;" 
d="M64 220v310h62v-310q0 -69 26 -113q17 -30 43 -45q11 -6 24 -10v683h62v-683q13 3 24 10q26 15 43 45q26 44 26 113v310h62v-310q0 -84 -33 -141q-25 -42 -63 -65q-26 -15 -59 -20v-199h-62v199q-32 5 -59 20q-39 23 -63 65q-33 57 -33 141z" />
    <glyph glyph-name="Omega" unicode="&#x3a9;" 
d="M64 0v56h102v23q-13 4 -26 12q-31 18 -50 51q-26 45 -26 112v286q0 69 28 118q23 40 61 62q41 23 97 23t97 -23q39 -22 61 -62q28 -48 28 -118v-286q0 -67 -26 -112q-20 -34 -50 -51q-12 -7 -26 -12v-23h102v-56h-149v115h4q16 1 31 9q18 10 30 32q21 37 22 98v286
q0 53 -21 89q-16 28 -42 43t-61 15t-61 -15t-42 -43q-21 -36 -21 -89v-286q0 -61 22 -98q13 -22 30 -32q14 -8 31 -9h4v-115h-149z" />
    <glyph glyph-name="uni01B1" unicode="&#x1b1;" 
d="M64 195v286q0 67 26 112q20 34 50 51q12 7 26 12v23h-102v56h149v-115h-4q-16 -1 -31 -9q-18 -10 -30 -32q-21 -37 -22 -98v-286q0 -53 21 -89q16 -28 42 -43t61 -15t61 15t42 43q21 36 21 89v286q0 61 -22 98q-13 22 -30 32q-14 8 -31 9h-4v115h149v-56h-102v-23
q13 -4 26 -12q31 -18 50 -51q26 -45 26 -112v-286q0 -69 -28 -118q-23 -40 -61 -62q-41 -23 -97 -23t-97 23q-39 22 -61 62q-28 48 -28 118z" />
    <glyph glyph-name="uniAB65" unicode="&#xab65;" 
d="M64 0v56h102v8q-10 4 -19 9q-31 18 -52 54q-31 53 -31 135v48q0 84 33 141q25 42 63 65q38 22 89.5 22t90.5 -22q39 -23 63 -65q33 -57 33 -141v-48q0 -82 -31 -135q-21 -36 -52 -54q-10 -6 -19 -9v-8h102v-56h-149v98h4q14 0 27 8q17 10 30 32q26 45 26 124v48
q0 69 -26 113q-17 30 -43 45q-24 14 -55 14t-55 -14q-26 -15 -43 -45q-26 -44 -26 -113v-48q0 -79 26 -124q13 -22 30 -32q13 -7 27 -8h4v-98h-149z" />
    <glyph glyph-name="uni028A" unicode="&#x28a;" 
d="M64 220v48q0 82 31 135q21 36 52 54q10 6 19 9v8h-102v56h149v-98h-4q-14 0 -27 -8q-17 -10 -30 -32q-26 -45 -26 -124v-48q0 -69 26 -113q17 -30 43 -45q24 -14 55 -14t55 14q26 15 43 45q26 44 26 113v48q0 79 -26 124q-13 22 -30 32q-13 7 -27 8h-4v98h149v-56h-102
v-8q10 -4 19 -9q31 -18 52 -54q31 -53 31 -135v-48q0 -84 -33 -141q-25 -42 -63 -65q-38 -22 -89.5 -22t-90.5 22q-39 23 -63 65q-33 57 -33 141z" />
    <glyph glyph-name="omega" unicode="&#x3c9;" 
d="M48 258q0 138 53 261l57 -22q-48 -108 -48 -240q0 -164 38 -202q7 -7 16.5 -7t16.5 7q38 38 38 210v79h62v-79q0 -172 38 -210q7 -7 16.5 -7t16.5 7q38 38 38 202q0 131 -48 240l57 22q53 -123 53 -261q0 -141 -43 -215q-17 -29 -39 -42q-16 -9 -33 -9q-16 0 -29 7
q-17 10 -32 35q-16 28 -26 70q-10 -42 -26 -70q-14 -25 -32 -35q-12 -7 -29 -7q-18 0 -33 9q-22 13 -39 42q-43 74 -43 215z" />
    <glyph glyph-name="omega1" unicode="&#x3d6;" 
d="M48 258q0 138 53 261l57 -22q-48 -108 -48 -240q0 -164 38 -202q7 -7 16.5 -7t16.5 7q38 38 38 210v79h62v-79q0 -172 38 -210q7 -7 16.5 -7t16.5 7q38 38 38 202q0 131 -48 240l57 22q53 -123 53 -261q0 -141 -43 -215q-17 -29 -39 -42q-16 -9 -33 -9q-16 0 -29 7
q-17 10 -32 35q-16 28 -26 70q-10 -42 -26 -70q-14 -25 -32 -35q-12 -7 -29 -7q-18 0 -33 9q-22 13 -39 42q-43 74 -43 215zM64 474v56h372v-56h-372z" />
    <glyph glyph-name="uni0277" unicode="&#x277;" 
d="M48 236q0 128 45 206q29 50 72 75q37 21 85 21t85 -21q43 -25 72 -75q45 -79 45 -206q0 -124 -39 -192q-17 -30 -40 -42q-17 -10 -36 -10q-17 0 -29 7q-17 10 -32 35q-16 28 -26 70q-10 -42 -26 -70q-14 -25 -32 -35q-12 -7 -29 -7q-20 0 -36 10q-23 13 -40 42
q-39 67 -39 192zM110 234q0 -142 36 -178q8 -8 18 -8t17 7q38 38 38 210v79h62v-79q0 -172 38 -210q7 -7 17 -7t18 8q36 36 36 178q0 116 -38 183q-21 36 -49 52q-23 13 -53 13t-53 -13q-29 -17 -49 -52q-38 -66 -38 -183z" />
    <glyph glyph-name="afii10046" unicode="&#x42c;" 
d="M64 0v735h62v-303h72q86 0 146 -34q48 -27 73 -72q27 -46 27 -109.5t-27 -109.5q-26 -45 -73 -73q-59 -34 -146 -34h-134zM126 56h72q65 0 109 26q35 20 55 53q20 34 20 81t-20 81q-19 33 -55 54q-44 26 -109 25h-72v-320z" />
    <glyph glyph-name="afii10094" unicode="&#x44c;" 
d="M64 0v530h62v-210h134q65 0 110 -26q35 -20 54 -54q20 -34 20 -80.5t-20 -80.5q-19 -33 -54 -53q-45 -26 -110 -26h-196zM126 56h134q43 0 73 17q23 13 36 35t13 51.5t-13 51.5t-36 35q-30 18 -73 18h-134v-208z" />
    <glyph glyph-name="afii10018" unicode="&#x411;" 
d="M64 0v735h335v-56h-273v-247h72q86 0 146 -34q48 -27 73 -72q27 -46 27 -109.5t-27 -109.5q-26 -45 -73 -73q-59 -34 -146 -34h-134zM126 56h72q65 0 109 26q35 20 55 53q20 34 20 81t-20 81q-19 33 -55 54q-44 26 -109 25h-72v-320z" />
    <glyph glyph-name="uni0182" unicode="&#x182;" 
d="M64 0v735h335v-56h-273v-247h72q86 0 146 -34q48 -27 73 -72q27 -46 27 -109.5t-27 -109.5q-26 -45 -73 -73q-59 -34 -146 -34h-134zM126 56h72q65 0 109 26q35 20 55 53q20 34 20 81t-20 81q-19 33 -55 54q-44 26 -109 25h-72v-320z" />
    <glyph glyph-name="uni0184" unicode="&#x184;" 
d="M8 679l56 56h62v-303h72q86 0 146 -34q48 -27 73 -72q27 -46 27 -109.5t-27 -109.5q-26 -45 -73 -73q-59 -34 -146 -34h-134v623zM126 56h72q65 0 109 26q35 20 55 53q20 34 20 81t-20 81q-19 33 -55 54q-44 26 -109 25h-72v-320z" />
    <glyph glyph-name="uni018B" unicode="&#x18b;" 
d="M56 216q0 63 27 109q26 45 73 73q59 34 146 34h72v247h-273v56h335v-735h-134q-86 0 -146 34q-47 27 -73 73q-27 46 -27 109zM118 216.5q0 -46.5 20 -80.5q19 -33 54 -54q45 -26 110 -26h72v320h-72q-65 0 -110 -25q-35 -20 -54 -54q-20 -34 -20 -80.5z" />
    <glyph glyph-name="afii10044" unicode="&#x42a;" 
d="M38 679v56h125v-303h47q79 0 135 -32q46 -27 71 -71q28 -48 28 -113t-28 -113q-26 -45 -71 -71q-55 -32 -135 -32h-109v679h-63zM163 56h47q58 0 98 23q34 20 53 53q20 35 20.5 84t-20.5 84q-19 33 -53 53q-40 23 -98 23h-47v-320z" />
    <glyph glyph-name="afii10092" unicode="&#x44a;" 
d="M38 474v56h125v-210h106q60 0 101 -24q34 -20 54 -53q20 -35 20 -83t-20 -83q-19 -33 -54 -53q-41 -24 -101 -24h-168v474h-63zM163 56h106q38 0 65 15q22 13 35 35q13 23 13 54t-13 54q-12 21 -35 34q-27 16 -65 16h-106v-208z" />
    <glyph glyph-name="afii10045" unicode="&#x42b;" 
d="M56 0v735h62v-303h6q67 0 115 -27q43 -25 68 -68q29 -50 28.5 -120.5t-28.5 -120.5q-25 -43 -68 -69q-48 -27 -115 -27h-68zM118 56h6q45 0 78 19q31 18 49 49q22 38 22 92t-22 92q-18 32 -49 49q-33 19 -78 19h-6v-320zM382 0v735h62v-735h-62z" />
    <glyph glyph-name="afii10093" unicode="&#x44b;" 
d="M56 0v530h62v-210h59q50 0 87 -21q32 -19 50 -51q21 -37 21 -88.5t-21 -88.5q-19 -32 -50 -50q-36 -21 -87 -21h-121zM118 56h59q29 0 50 12q20 11 32 32q14 25 14 60t-14 60q-12 20 -32 31q-21 13 -50 13h-59v-208zM382 0v530h62v-530h-62z" />
    <glyph glyph-name="afii10026" unicode="&#x418;" 
d="M64 0v735h62v-636l220 636h90v-735h-62v636l-220 -636h-90z" />
    <glyph glyph-name="glyph538" 
d="M64 0v530h62v-459l220 459h90v-530h-62v459l-220 -459h-90z" />
    <glyph glyph-name="glyph539" 
d="M64 220v310h62v-310q0 -69 26 -113q17 -30 43 -45q24 -14 55 -14t55 14q26 15 43 45q26 44 26 113v310h62v-530h-62v81q-2 -5 -5 -9q-23 -40 -59 -61q-33 -19 -76.5 -19t-76.5 19q-36 21 -59 61q-34 58 -34 148z" />
    <glyph glyph-name="afii10074" unicode="&#x438;" 
d="M64 0v530h62v-459l220 459h90v-530h-62v459l-220 -459h-90z" />
    <glyph glyph-name="afii10040" unicode="&#x426;" 
d="M64 0v735h62v-679h248v679h62v-679h33v-203h-63v147h-342z" />
    <glyph glyph-name="glyph542" 
d="M64 0v530h62v-474h248v474h62v-474h33v-203h-63v147h-342z" />
    <glyph glyph-name="glyph543" 
d="M64 220v310h62v-310q0 -69 26 -113q17 -30 43 -45q24 -14 55 -14t55 14q26 15 43 45q26 44 26 113v310h62v-474h33v-203h-63v147h-32v81q-2 -5 -5 -9q-23 -40 -59 -61q-33 -19 -76.5 -19t-76.5 19q-36 21 -59 61q-34 58 -34 148z" />
    <glyph glyph-name="afii10088" unicode="&#x446;" 
d="M64 0v530h62v-474h248v474h62v-474h33v-203h-63v147h-342z" />
    <glyph glyph-name="afii10145" unicode="&#x40f;" 
d="M64 0v735h62v-679h248v679h62v-735h-155v-205h-62v205h-155z" />
    <glyph glyph-name="glyph546" 
d="M64 0v530h62v-474h248v474h62v-530h-155v-205h-62v205h-155z" />
    <glyph glyph-name="glyph547" 
d="M64 220v310h62v-310q0 -69 26 -113q17 -30 43 -45q24 -14 55 -14t55 14q26 15 43 45q26 44 26 113v310h62v-530h-62v81q-2 -5 -5 -9q-23 -40 -59 -61q-33 -19 -76.5 -19t-76.5 19q-36 21 -59 61q-34 58 -34 148zM219 -214v160h62v-160h-62z" />
    <glyph glyph-name="afii10193" unicode="&#x45f;" 
d="M64 0v530h62v-474h248v474h62v-530h-155v-205h-62v205h-155z" />
    <glyph glyph-name="afii10021" unicode="&#x414;" 
d="M45 56h23l10 56q39 236 39 552v71h300v-679h19v-203h-62v147h-266v-147h-63v203zM131 56h224v623h-176v-15q0 -320 -40 -561z" />
    <glyph glyph-name="glyph550" 
d="M45 56h25l8 35q39 166 39 389v50h300v-474h19v-203h-62v147h-266v-147h-63v203zM133 56h222v418h-176q-1 -225 -40 -396z" />
    <glyph glyph-name="glyph551" 
d="M56 220v90q0 73 29 123q24 42 64 65q42 24 99 25q45 0 77 -19q13 -8 25 -19q-8 18 -16 34q-46 79 -123 124q-46 26 -97 37l12 55q64 -12 119 -45q91 -52 145 -145q54 -94 54 -235v-90q0 -82 -32 -138q-25 -43 -66 -66.5t-96 -23.5t-96 23.5t-66 66.5q-32 56 -32 138z
M118 220q0 -66 25 -110q18 -31 46 -47q26 -15 61 -15t61 15q28 16 46 47q25 44 25 110v90q0 56 -22 95q-17 30 -45 46t-66 16q-37 0 -64 -16q-28 -16 -45 -46q-22 -39 -22 -95v-90z" />
    <glyph glyph-name="afii10069" unicode="&#x434;" 
d="M45 56h25l8 35q39 166 39 389v50h300v-474h19v-203h-62v147h-266v-147h-63v203zM133 56h222v418h-176q-1 -225 -40 -396z" />
    <glyph glyph-name="afii10029" unicode="&#x41b;" 
d="M48 0v56q15 0 26 11q17 17 18 81v27l18 560h307v-735h-62v679h-184l-17 -506q-3 -99 -22 -131q-12 -20 -29 -30q-20 -12 -55 -12z" />
    <glyph glyph-name="afii10077" unicode="&#x43b;" 
d="M48 0v56q15 0 26 11q16 16 17 76q0 21 1 32l18 355h307v-530h-62v474h-185l-16 -302q-5 -101 -23 -131q-11 -20 -28 -30q-20 -11 -55 -11z" />
    <glyph glyph-name="afii10024" unicode="&#x416;" 
d="M32 0l88 368l-88 367h62l81 -339h44v339h62v-339h44l81 339h62l-88 -367l88 -368h-62l-81 340h-44v-340h-62v340h-44l-81 -340h-62z" />
    <glyph glyph-name="uni0496" unicode="&#x496;" 
d="M32 0l88 368l-88 367h62l81 -339h44v339h62v-339h44l81 339h62l-88 -367l77 -322v10h62v-203h-62v147h-51l-81 340h-44v-340h-62v340h-44l-81 -340h-62z" />
    <glyph glyph-name="afii10072" unicode="&#x436;" 
d="M32 0l88 265l-88 265h62l79 -237h46v237h62v-237h46l79 237h62l-88 -265l88 -265h-62l-79 237h-46v-237h-62v237h-46l-79 -237h-62z" />
    <glyph glyph-name="uni0497" unicode="&#x497;" 
d="M32 0l88 265l-88 265h62l79 -237h46v237h62v-237h46l79 237h62l-88 -265l77 -232v23h62v-203h-62v147h-51l-79 237h-46v-237h-62v237h-46l-79 -237h-62z" />
    <glyph glyph-name="afii10042" unicode="&#x428;" 
d="M64 0v735h62v-679h93v679h62v-679h93v679h62v-735h-372z" />
    <glyph glyph-name="glyph560" 
d="M64 0v530h62v-474h93v474h62v-474h93v474h62v-530h-372z" />
    <glyph glyph-name="glyph561" 
d="M56 165v365h62v-365q0 -80 28 -107q10 -10 23 -10t22 10q27 27 28 107v365h62v-365q0 -80 28 -107q10 -10 22.5 -10t22.5 10q27 27 28 107v365h62v-530h-62v37l-2 -2q-14 -24 -32 -35q-15 -8 -33 -8q-19 0 -35 9q-19 11 -34 36q-8 14 -14 31q-6 -18 -14 -33
q-14 -24 -33 -35q-15 -8 -33 -8q-19 0 -35 9q-19 11 -34 36q-27 47 -27 128z" />
    <glyph glyph-name="afii10090" unicode="&#x448;" 
d="M64 0v530h62v-474h93v474h62v-474h93v474h62v-530h-372z" />
    <glyph glyph-name="afii10043" unicode="&#x429;" 
d="M64 0v735h62v-679h93v679h62v-679h93v679h62v-679h33v-203h-63v147h-342z" />
    <glyph glyph-name="glyph564" 
d="M64 0v530h62v-474h93v474h62v-474h93v474h62v-474h33v-203h-63v147h-342z" />
    <glyph glyph-name="glyph565" 
d="M56 165v365h62v-365q0 -80 28 -107q10 -10 23 -10t22 10q27 27 28 107v365h62v-365q0 -80 28 -107q10 -10 22.5 -10t22.5 10q27 27 28 107v365h62v-474h25v-203h-63v147h-24v37l-2 -2q-14 -24 -32 -35q-15 -8 -33 -8q-19 0 -35 9q-19 11 -34 36q-8 14 -14 31
q-6 -18 -14 -33q-14 -24 -33 -35q-15 -8 -33 -8q-19 0 -35 9q-19 11 -34 36q-27 47 -27 128z" />
    <glyph glyph-name="afii10091" unicode="&#x449;" 
d="M64 0v530h62v-474h93v474h62v-474h93v474h62v-474h33v-203h-63v147h-342z" />
    <glyph glyph-name="glyph567" 
d="M56 165v365h62v-365q0 -80 28 -107q10 -10 23 -10t22 10q27 27 28 107v365h62v-365q0 -80 28 -107q10 -10 22.5 -10t22.5 10q27 27 28 107v365h62v-530h-62v37l-2 -2q-14 -24 -32 -35q-15 -8 -33 -8q-19 0 -35 9q-19 11 -34 36q-8 14 -14 31q-6 -18 -14 -33
q-14 -24 -33 -35q-15 -8 -33 -8q-19 0 -35 9q-19 11 -34 36q-27 47 -27 128zM100 657v56h300v-56h-300z" />
    <glyph glyph-name="afii10084" unicode="&#x442;" 
d="M64 474v56h372v-56h-155v-474h-62v474h-155z" />
    <glyph glyph-name="afii10041" unicode="&#x427;" 
d="M64 424v311h62v-311q0 -48 20 -82q33 -57 104 -57h124v450h62v-735h-62v229h-124q-58 0 -100 24q-38 22 -60 61q-26 46 -26 110z" />
    <glyph glyph-name="uni04B6" unicode="&#x4b6;" 
d="M64 424v311h62v-311q0 -48 20 -82q33 -57 104 -57h124v450h62v-679h51v-203h-62v147h-51v229h-124q-58 0 -100 24q-38 22 -60 61q-26 46 -26 110z" />
    <glyph glyph-name="afii10089" unicode="&#x447;" 
d="M64 379v151h62v-151q0 -48 20 -82q33 -57 104 -57h124v290h62v-530h-62v184h-124q-58 0 -100 24q-38 22 -60 61q-26 46 -26 110z" />
    <glyph glyph-name="uni04B7" unicode="&#x4b7;" 
d="M64 379v151h62v-151q0 -48 20 -82q33 -57 104 -57h124v290h62v-474h51v-203h-62v147h-51v184h-124q-58 0 -100 24q-38 22 -60 61q-26 46 -26 110z" />
    <glyph glyph-name="uni04BA" unicode="&#x4ba;" 
d="M64 0v735h62v-229h124q58 0 100 -24q38 -22 60 -61q26 -46 26 -110v-311h-62v311q0 48 -20 82q-33 57 -104 57h-124v-450h-62z" />
    <glyph glyph-name="uni04B8" unicode="&#x4b8;" 
d="M64 424v311h62v-311q0 -48 20 -82q16 -27 40 -41q15 -9 33 -13v115h62v-118h93v450h62v-735h-62v229h-93v-106h-62v108q-38 5 -69 22q-38 22 -60 61q-26 46 -26 110z" />
    <glyph glyph-name="uni04B9" unicode="&#x4b9;" 
d="M64 379v151h62v-151q0 -48 20 -82q16 -27 40 -41q15 -9 33 -13v88h62v-91h93v290h62v-530h-62v184h-93v-133h-62v135q-38 5 -69 22q-38 22 -60 61q-26 46 -26 110z" />
    <glyph glyph-name="afii10048" unicode="&#x42e;" 
d="M56 0v735h62v-339h49v183q0 58 23 98q18 31 48 49q30 17 71.5 17t71.5 -17t48 -49q23 -40 23 -98v-423q0 -58 -23 -98q-18 -31 -48 -49q-30 -17 -71.5 -17t-71.5 17t-48 49q-23 40 -23 98v184h-49v-340h-62zM229 156q0 -42 16 -70q11 -19 28 -29q16 -9 36.5 -9t36.5 9
q17 10 28 29q16 28 16 70v423q0 42 -16 70q-11 19 -28 29q-16 9 -36.5 9t-36.5 -9q-17 -10 -28 -29q-16 -28 -16 -70v-423z" />
    <glyph glyph-name="afii10096" unicode="&#x44e;" 
d="M56 0v530h62v-237h49v61q0 70 27 117q19 33 49 51q28 16 66 16t67 -16q30 -17 49 -51q27 -46 27 -117v-178q0 -70 -27 -117q-19 -33 -49 -51q-28 -16 -66 -16t-67 16q-30 17 -49 51q-27 46 -27 117v61h-49v-237h-62zM229 176q0 -56 20 -90q12 -20 29 -30q14 -8 32 -8
t32 8q17 10 28 30q20 34 20 90v178q0 56 -20 90q-12 20 -28 30q-14 8 -32.5 8t-31.5 -8q-17 -10 -29 -30q-20 -34 -20 -90v-178z" />
    <glyph glyph-name="afii10058" unicode="&#x409;" 
d="M32 0v56q14 0 24 10q17 17 17 72v37l19 560h189v-303q46 0 81 -20q36 -21 59 -60q31 -54 31 -135.5t-31 -136.5q-23 -40 -59 -60q-35 -20 -81 -20h-62v679h-67l-17 -506q-3 -101 -21 -132q-11 -20 -28 -30q-20 -11 -54 -11zM281 56q26 0 46 12q23 13 39 39q24 42 24 109
t-24 109q-15 27 -39 40q-20 11 -46 11v-320z" />
    <glyph glyph-name="afii10106" unicode="&#x459;" 
d="M32 0v56q14 0 24 10q16 16 17 74v35l19 355h189v-210h26q43 0 75 -19q30 -17 48 -48q22 -38 22 -93t-22 -93q-18 -31 -48 -49q-31 -18 -75 -18h-88v474h-68l-16 -302q-5 -103 -22 -132q-11 -19 -28 -29q-19 -11 -53 -11zM281 56h26q22 0 39 10t29 29q15 26 15 65t-15 65
q-11 19 -29 29q-17 10 -39 10h-26v-208z" />
    <glyph glyph-name="afii10059" unicode="&#x40a;" 
d="M64 0v735h62v-339h93v339h62v-303q46 0 81 -20q36 -21 59 -60q31 -54 31 -135.5t-31 -136.5q-23 -40 -59 -60q-35 -20 -81 -20h-62v340h-93v-340h-62zM281 56q26 0 46 12q23 13 39 39q24 42 24 109t-24 109q-15 27 -39 40q-20 11 -46 11v-320z" />
    <glyph glyph-name="afii10107" unicode="&#x45a;" 
d="M64 0v530h62v-237h93v237h62v-210h26q43 0 75 -19q30 -17 48 -48q22 -38 22 -93t-22 -93q-18 -31 -48 -49q-31 -18 -75 -18h-88v237h-93v-237h-62zM281 56h26q22 0 39 10t29 29q15 26 15 65t-15 65q-11 19 -29 29q-17 10 -39 10h-26v-208z" />
    <glyph glyph-name="afii10060" unicode="&#x40b;" 
d="M56 679v56h210v-56h-92v-223q3 6 6 11q21 37 53 56q27 15 62 15t61 -15q31 -18 53 -56q35 -60 35 -157v-310h-62v310q0 77 -27 123q-15 26 -37 39q-18 10 -40.5 10t-40.5 -10q-22 -12 -36 -39q-27 -46 -27 -123v-310h-62v679h-56z" />
    <glyph glyph-name="afii10051" unicode="&#x402;" 
d="M56 679v56h210v-56h-92v-215q21 38 54 57q29 17 68.5 17t68.5 -17q32 -18 53 -55q30 -52 30 -131v-160q0 -62 -25 -105q-21 -36 -56 -56q-38 -22 -90 -22v56q62 0 91 51q18 31 18 76v160q0 59 -22 97q-15 26 -37 38q-20 12 -47 12t-47 -12q-22 -13 -37 -38
q-22 -38 -22 -97v-335h-62v679h-56z" />
    <glyph glyph-name="afii10099" unicode="&#x452;" 
d="M19 594v56h45v85h62v-85h124v-56h-124v-145q2 5 5 9q23 40 59 61q33 19 76.5 19t76.5 -19q36 -21 59 -61q34 -58 34 -148v-310q0 -52 -23 -91q-22 -38 -62 -61q-53 -31 -132 -31v56q57 0 95 22q29 17 44 43q15 27 16 62v310q0 69 -26 113q-17 30 -43 45q-24 14 -55 14
t-55 -14q-26 -15 -43 -45q-26 -44 -26 -113v-310h-62v594h-45z" />
    <glyph glyph-name="germandbls" unicode="&#xdf;" 
d="M64 0v530q0 83 31 138q22 38 56 57q31 18 72 18t72 -18q34 -19 56 -57t28 -88l-59 -17q-5 45 -23 78q-14 25 -35 36q-17 10 -39 10t-38 -10q-20 -12 -35 -36q-10 -17 -16 -40q-8 -30 -8 -71v-16h319l-35 -55v-1l-118 -189q51 -6 82 -24q36 -21 56 -55q18 -31 18 -67
q0 -73 -42 -146q-55 -95 -161 -157q-25 -14 -51 -25l-25 51q23 10 45 23q90 52 137 132q35 61 35 122q0 20 -11 38q-12 21 -36 35q-35 20 -113 21h-35l34 55v1h1l115 185h-215v-458h-62z" />
    <glyph glyph-name="uni1E9E" unicode="&#x1e9e;" 
d="M64 0v530q0 77 30 129q23 40 61 62t89.5 22t89.5 -22t61 -62q30 -52 30 -119h-5l-127 -151q32 -8 60 -24q43 -25 66 -66q25 -43 25 -102q0 -61 -26 -105q-23 -41 -64 -64q-48 -28 -116 -28h-94v56h94q46 0 80 19q29 17 45 46q19 32 19 76q0 43 -18 74q-17 29 -48 47
q-37 22 -85 22h-5l-2 56l138 164q-4 40 -22 71q-16 28 -41 43q-23 13 -54 13t-55 -13q-25 -14 -41 -43q-23 -40 -23 -101v-530h-62z" />
    <glyph glyph-name="AE" unicode="&#xc6;" 
d="M64 0v74q0 201 144 661h228v-56h-138v-254h124v-56h-124v-313h138v-56h-200v209h-99q-11 -77 -11 -135v-74h-62zM146 265h90v387q-63 -230 -90 -387z" />
    <glyph glyph-name="uni04D4" unicode="&#x4d4;" 
d="M64 0v74q0 201 144 661h228v-56h-138v-254h124v-56h-124v-313h138v-56h-200v209h-99q-11 -77 -11 -135v-74h-62zM146 265h90v387q-63 -230 -90 -387z" />
    <glyph glyph-name="OE" unicode="&#x152;" 
d="M64 195v345q0 65 26 110q22 39 60 61q42 24 100 24h186v-56h-124v-254h110v-56h-110v-313h124v-56h-186q-58 0 -100 24q-38 22 -60 61q-26 46 -26 110zM126 195q0 -48 20 -82q33 -57 104 -57v623q-71 0 -104 -57q-19 -33 -20 -82v-345z" />
    <glyph glyph-name="uni0276" unicode="&#x276;" 
d="M64 195v140q0 65 26 110q22 39 60 61q42 24 100 24h186v-56h-124v-160h110v-56h-110v-202h124v-56h-186q-58 0 -100 24q-38 22 -60 61q-26 46 -26 110zM126 195q0 -48 20 -82q33 -57 104 -57v418q-71 0 -104 -57q-19 -33 -20 -82v-140z" />
    <glyph glyph-name="ae" unicode="&#xe6;" 
d="M48 138q0 56 22 95q20 34 54 54q38 22 92 22h3v89q-1 49 -23 71q-13 13 -30.5 13t-29.5 -13q-22 -22 -23 -68v-2l-62 1v4q0 46 20 80q15 26 39 40t56 14t56 -14q16 -9 28 -24q12 15 29 24q24 14 56.5 14t56.5 -14t40 -40q20 -35 20 -86v-161h-171v-105q0 -48 23 -70
q14 -14 34 -14t34 14q23 23 23 67v2l62 -1v-4q0 -45 -20 -79q-15 -27 -40 -41t-59 -14t-59 14q-16 9 -29 25q-12 -15 -29 -25q-24 -14 -56 -14t-56 14q-25 14 -40 41q-21 37 -21 91zM110 138q0 -53 24 -77q13 -13 31 -13q19 0 31 13q22 22 23 71v121h-3q-62 0 -90 -48
q-16 -27 -16 -67zM281 293h109v105q0 49 -23 71q-13 13 -31.5 13t-31.5 -13q-22 -22 -23 -71v-105z" />
    <glyph glyph-name="uni04D5" unicode="&#x4d5;" 
d="M48 138q0 56 22 95q20 34 54 54q38 22 92 22h3v89q-1 49 -23 71q-13 13 -30.5 13t-29.5 -13q-22 -22 -23 -68v-2l-62 1v4q0 46 20 80q15 26 39 40t56 14t56 -14q16 -9 28 -24q12 15 29 24q24 14 56.5 14t56.5 -14t40 -40q20 -35 20 -86v-161h-171v-105q0 -48 23 -70
q14 -14 34 -14t34 14q23 23 23 67v2l62 -1v-4q0 -45 -20 -79q-15 -27 -40 -41t-59 -14t-59 14q-16 9 -29 25q-12 -15 -29 -25q-24 -14 -56 -14t-56 14q-25 14 -40 41q-21 37 -21 91zM110 138q0 -53 24 -77q13 -13 31 -13q19 0 31 13q22 22 23 71v121h-3q-62 0 -90 -48
q-16 -27 -16 -67zM281 293h109v105q0 49 -23 71q-13 13 -31.5 13t-31.5 -13q-22 -22 -23 -71v-105z" />
    <glyph glyph-name="uni1D02" unicode="&#x1d02;" 
d="M43 400v4q0 45 20 79q15 27 40 41t59 14t59 -14q16 -9 29 -25q12 15 29 25q24 14 56 14t56 -14q25 -14 40 -41q21 -37 21 -91q0 -56 -22 -95q-20 -34 -54 -54q-38 -22 -92 -22h-3v-89q1 -49 23 -71q13 -13 30.5 -13t29.5 13q22 22 23 68v2l62 -1v-4q0 -46 -20 -80
q-15 -26 -39 -40t-56 -14t-56 14q-16 9 -28 24q-12 -15 -29 -24q-24 -14 -56.5 -14t-56.5 14t-40 40q-20 35 -20 86v161h171v105q0 48 -23 70q-14 14 -34 14t-34 -14q-23 -23 -23 -67v-2zM110 132q0 -49 23 -71q13 -13 31.5 -13t31.5 13q22 22 23 71v105h-109v-105zM281 277
h3q62 0 90 48q16 27 16 67q0 53 -24 77q-13 13 -31 13q-19 0 -31 -13q-22 -22 -23 -71v-121z" />
    <glyph glyph-name="oe" unicode="&#x153;" 
d="M48 132v266q0 51 20 86q15 26 40 40q24 14 56.5 14t56.5 -14q16 -9 29 -24q12 15 29 24q24 14 56.5 14t56.5 -14t40 -40q20 -35 20 -86v-161h-171v-105q0 -48 23 -70q14 -14 34 -14t34 14q23 23 23 67v2l62 -1v-4q0 -45 -20 -79q-15 -27 -40 -41t-59 -14t-59 14
q-16 9 -29 25q-12 -15 -29 -25q-24 -14 -56.5 -14t-56.5 14q-25 14 -40 40q-20 35 -20 86zM110 132q0 -49 23 -71q13 -13 31.5 -13t31.5 13q22 22 23 71v266q0 49 -23 71q-13 13 -31.5 13t-31.5 -13q-22 -22 -23 -71v-266zM281 293h109v105q0 49 -23 71q-13 13 -31.5 13
t-31.5 -13q-22 -22 -23 -71v-105z" />
    <glyph glyph-name="uni1D14" unicode="&#x1d14;" 
d="M43 400v4q0 45 20 79q15 27 40 41t59 14t59 -14q16 -9 29 -25q12 15 29 25q24 14 56.5 14t56.5 -14q25 -14 40 -40q20 -35 20 -86v-266q0 -51 -20 -86q-15 -26 -40 -40q-24 -14 -56.5 -14t-56.5 14q-16 9 -29 24q-12 -15 -29 -24q-24 -14 -56.5 -14t-56.5 14t-40 40
q-20 35 -20 86v161h171v105q0 48 -23 70q-14 14 -34 14t-34 -14q-23 -23 -23 -67v-2zM110 132q0 -49 23 -71q13 -13 31.5 -13t31.5 13q22 22 23 71v105h-109v-105zM281 132q0 -49 23 -71q13 -13 31.5 -13t31.5 13q22 22 23 71v266q0 49 -23 71q-13 13 -31.5 13t-31.5 -13
q-22 -22 -23 -71v-266z" />
    <glyph glyph-name="uni0238" unicode="&#x238;" 
d="M48 132v266q0 51 20 86q15 26 40 40q24 14 57 14q31 0 54 -13v210h62v-210q23 13 54 13q33 0 57 -14q25 -14 40 -40q20 -35 20 -86v-266q0 -51 -20 -86q-15 -26 -40 -40q-24 -14 -56.5 -14t-56.5 14q-16 9 -29 24q-12 -15 -29 -24q-24 -14 -56.5 -14t-56.5 14
q-25 14 -40 40q-20 35 -20 86zM110 132q0 -49 23 -71q13 -13 31.5 -13t31.5 13q22 22 23 71v266q0 49 -23 71q-13 13 -31.5 13t-31.5 -13q-22 -22 -23 -71v-266zM281 132q0 -49 23 -71q13 -13 31.5 -13t31.5 13q22 22 23 71v266q0 49 -23 71q-13 13 -31.5 13t-31.5 -13
q-22 -22 -23 -71v-266z" />
    <glyph glyph-name="uni0239" unicode="&#x239;" 
d="M48 132v266q0 51 20 86q15 26 40 40q24 14 56.5 14t56.5 -14q16 -9 29 -24q12 15 29 24q24 14 56.5 14t56.5 -14q25 -14 40 -40q20 -35 20 -86v-266q0 -51 -20 -86q-15 -26 -40 -40q-24 -14 -57 -14q-31 0 -54 13v-210h-62v210q-23 -13 -54 -13q-33 0 -57 14
q-25 14 -40 40q-20 35 -20 86zM110 132q0 -49 23 -71q13 -13 31.5 -13t31.5 13q23 22 23 71v266q0 49 -23 71q-13 13 -31.5 13t-31.5 -13q-22 -22 -23 -71v-266zM281 132q0 -49 23 -71q13 -13 31.5 -13t31.5 13q22 22 23 71v266q0 49 -23 71q-13 13 -31.5 13t-31.5 -13
q-22 -22 -23 -71v-266z" />
    <glyph glyph-name="uni0222" unicode="&#x222;" 
d="M56 195v24q0 67 27 115q23 40 64 63q3 2 7 4q-42 22 -66 62q-24 41 -24 98v174h62v-174q0 -48 20 -82q16 -27 41 -42q27 -15 63.5 -15t62.5 15t41 42q19 33 20 82v174h62v-174q0 -57 -24 -98q-23 -40 -66 -62q4 -2 7 -4q40 -23 64 -63q27 -48 27 -115v-24q0 -67 -27 -115
q-23 -40 -64 -63q-43 -25 -103 -25t-103 25q-40 23 -64 63q-27 48 -27 115zM118 195q0 -51 21 -86q16 -29 43 -45q28 -16 67.5 -16t68.5 16q27 16 43 45q20 35 21 86v24q0 51 -21 86q-16 29 -43 44q-29 17 -68 17t-68 -17q-27 -16 -43 -44q-20 -35 -21 -86v-24z" />
    <glyph glyph-name="uni0223" unicode="&#x223;" 
d="M56 220v59q0 82 32 138q26 45 68 68q-5 2 -10 5q-37 22 -58 58q-24 41 -24 98v89h62v-89q0 -48 20 -81q16 -27 41 -42q27 -15 63.5 -15.5t62.5 15.5q26 15 41 42q19 33 20 81v89h62v-89q0 -57 -24 -98q-21 -37 -58 -58q-5 -3 -10 -5q42 -23 68 -68q32 -56 32 -138v-59
q0 -82 -32 -138q-25 -43 -66 -66.5t-96 -23.5t-96 23.5t-66 66.5q-32 56 -32 138zM118 220q0 -66 25 -110q18 -31 46 -47q26 -15 61 -15t61 15q28 16 46 47q25 44 25 110v59q0 66 -25 110q-18 31 -46 47q-26 15 -61 15t-61 -15q-28 -16 -46 -47q-25 -44 -25 -110v-59z" />
    <glyph glyph-name="IJ" unicode="&#x132;" 
d="M64 0v735h62v-735h-62zM197 -8v56h1q81 0 118 21q26 15 41 41q17 30 17 87v538h62v-538q0 -79 -24 -120q-21 -36 -56 -56q-50 -29 -159 -29z" />
    <glyph glyph-name="ij" unicode="&#x133;" 
d="M77 685q0 23 13.5 36.5t36.5 13.5t36.5 -13.5t13.5 -36.5t-13.5 -36.5t-36.5 -13.5t-36.5 13.5t-13.5 36.5zM82 -70l58 19q5 -32 20 -57t36 -38q19 -11 44 -11t44 11q21 12 36 37q22 38 22 99v540h62v-540q0 -76 -29 -126q-22 -37 -56 -58q-33 -19 -78.5 -19t-78.5 19
q-34 20 -56 58q-17 30 -24 66zM96 0v530h62v-530h-62zM323 685q0 23 13.5 36.5t36.5 13.5t36.5 -13.5t13.5 -36.5t-13.5 -36.5t-36.5 -13.5t-36.5 13.5t-13.5 36.5z" />
    <glyph glyph-name="uni01B7" unicode="&#x1b7;" 
d="M59 155l59 18q6 -31 20 -56q18 -30 45 -46q26 -15 61 -15t61 15q27 16 45 46q24 41 24 105q0 63 -24 105q-17 29 -43 44q-25 14 -57 14h-112v56l195 238h-269v56h344v-56l-195 -238h37q53 0 92 -23q38 -22 63 -64q31 -54 31 -132q0 -79 -31 -133q-24 -42 -64 -65
q-41 -24 -96.5 -24t-96.5 24q-40 23 -64 65q-17 30 -25 66z" />
    <glyph glyph-name="uni04E0" unicode="&#x4e0;" 
d="M59 155l59 18q6 -31 20 -56q18 -30 45 -46q26 -15 61 -15t61 15q27 16 45 46q24 41 24 105q0 63 -24 105q-17 29 -43 44q-25 14 -57 14h-112v56l195 238h-269v56h344v-56l-195 -238h37q53 0 92 -23q38 -22 63 -64q31 -54 31 -132q0 -79 -31 -133q-24 -42 -64 -65
q-41 -24 -96.5 -24t-96.5 24q-40 23 -64 65q-17 30 -25 66z" />
    <glyph glyph-name="uni0292" unicode="&#x292;" 
d="M59 -50l59 18q6 -31 20 -56q18 -30 45 -46q26 -15 61 -15t61 15q27 16 45 46q24 41 24 105q0 63 -24 105q-17 29 -43 44q-25 14 -57 14h-112v56l195 238h-269v56h344v-56l-195 -238h37q53 0 92 -23q38 -22 63 -64q31 -54 31 -132q0 -79 -31 -133q-24 -42 -64 -65
q-41 -24 -96.5 -24t-96.5 24q-40 23 -64 65q-17 30 -25 66z" />
    <glyph glyph-name="uni04E1" unicode="&#x4e1;" 
d="M59 -50l59 18q6 -31 20 -56q18 -30 45 -46q26 -15 61 -15t61 15q27 16 45 46q24 41 24 105q0 63 -24 105q-17 29 -43 44q-25 14 -57 14h-112v56l195 238h-269v56h344v-56l-195 -238h37q53 0 92 -23q38 -22 63 -64q31 -54 31 -132q0 -79 -31 -133q-24 -42 -64 -65
q-41 -24 -96.5 -24t-96.5 24q-40 23 -64 65q-17 30 -25 66z" />
    <glyph glyph-name="uni01B8" unicode="&#x1b8;" 
d="M64 222q0 78 31 132q24 42 63 64q40 23 92 23h37l-195 238v56h344v-56h-269l195 -238v-56h-112q-32 0 -57 -14q-26 -15 -43 -44q-24 -42 -24 -105t24 -105q17 -30 45 -46q26 -15 61 -15t61 15q28 16 45 46q14 25 20 56l59 -18q-7 -36 -25 -66q-24 -42 -64 -65
q-41 -24 -96.5 -24t-96.5 24q-40 23 -64 65q-31 53 -31 133z" />
    <glyph glyph-name="uni01B9" unicode="&#x1b9;" 
d="M64 17q0 78 31 132q24 42 63 64q40 23 92 23h37l-195 238v56h344v-56h-269l195 -238v-56h-112q-32 0 -57 -14q-26 -15 -43 -44q-24 -42 -24 -105t24 -105q17 -30 45 -46q26 -15 61 -15t61 15q28 16 45 46q14 25 20 56l59 -18q-7 -36 -25 -66q-24 -42 -64 -65
q-41 -24 -96.5 -24t-96.5 24q-40 23 -64 65q-31 53 -31 133z" />
    <glyph glyph-name="uni026E" unicode="&#x26e;" 
d="M59 -50l59 18q6 -31 20 -56q18 -30 45 -46q26 -15 61 -15t61 15q27 16 45 46q24 41 24 105q0 63 -24 105q-17 29 -43 44q-25 14 -57 14h-37v56l120 238h-207v-421h-62v682h62v-205h282v-56l-121 -238v-3q30 -5 55 -20q38 -22 63 -64q31 -54 31 -132q0 -79 -31 -133
q-24 -42 -64 -65q-41 -24 -96.5 -24t-96.5 24q-40 23 -64 65q-17 30 -25 66z" />
    <glyph glyph-name="uni01BA" unicode="&#x1ba;" 
d="M64 -85q0 33 14 57q15 25 42 41q37 21 93 22h18q55 0 91 21q26 15 39 38q13 22 13 50v3q0 29 -14 53q-13 23 -37 36q-30 18 -73 18h-112v56l195 164h-269v56h344v-56l-195 -164h37q65 0 110 -26q36 -21 55 -55q21 -36 21 -80v-5q0 -45 -19 -79q-20 -35 -59 -57
q-51 -29 -127 -29h-18q-34 0 -57 -13q-15 -9 -23 -22q-7 -12 -7 -29t7 -29q8 -14 23 -22q22 -13 57 -13h223v-56h-223q-55 0 -93 21q-28 16 -42 42q-14 24 -14 57z" />
    <glyph glyph-name="uni0293" unicode="&#x293;" 
d="M58 -85q0 31 16 59q17 29 47 47q39 23 91 22q55 0 100 -26q31 -18 59 -46q3 20 3 44l62 1h-62v5q0 59 -24 101q-17 29 -43 44q-25 14 -57 14h-112v56l195 238h-269v56h344v-56l-195 -238h37q53 0 92 -23q38 -22 63 -64q31 -54 31 -127v-6q0 -58 -8 -89q-3 -9 -6 -19
q6 -9 11 -19q21 -37 34 -77l-59 -17q-9 28 -23 55q-18 -19 -41 -33q-52 -30 -122 -30q-63 0 -104 24q-28 16 -44 43q-16 28 -16 61zM120 -85.5q0 -16.5 9 -31.5q9 -16 26 -25q26 -15 67 -15q47 0 83 21q27 16 44 42q-32 42 -70 64q-31 18 -67 17q-32 0 -56 -13
q-18 -11 -28 -28q-8 -15 -8 -31.5z" />
    <glyph glyph-name="uni0294" unicode="&#x294;" 
d="M59 580q6 41 25 76q23 40 63 63q42 24 99.5 24t98.5 -24q39 -23 63 -63q28 -49 28 -113q0 -72 -38 -138q-16 -27 -47 -67q-30 -38 -43 -59q-27 -47 -27 -120v-159h-62v159q0 86 32 142q13 22 44 63t46 65q33 57 33 114q0 48 -21 85q-16 28 -43 43q-27 16 -63.5 16
t-63.5 -15.5t-44 -44.5q-15 -27 -19 -59z" />
    <glyph glyph-name="uni0241" unicode="&#x241;" 
d="M59 580q6 41 25 76q23 40 63 63q42 24 99.5 24t98.5 -24q39 -23 63 -63q28 -49 28 -113q0 -72 -38 -138q-16 -27 -47 -67q-30 -38 -43 -59q-27 -47 -27 -120v-159h-62v159q0 86 32 142q13 22 44 63t46 65q33 57 33 114q0 48 -21 85q-16 28 -43 43q-27 16 -63.5 16
t-63.5 -15.5t-44 -44.5q-15 -27 -19 -59z" />
    <glyph glyph-name="uni0295" unicode="&#x295;" 
d="M64 543q0 64 28 113q23 40 63 63q42 24 99 24t99 -24q39 -23 63 -63q20 -34 25 -76l-61 -12q-4 33 -19 59q-17 29 -44 44.5t-63.5 15.5t-63.5 -16q-27 -15 -43 -43q-21 -36 -21 -85q0 -57 33 -114q14 -24 46 -65t44 -63q32 -56 32 -142v-159h-62v159q0 73 -27 120
q-12 21 -43 59q-32 40 -47 67q-38 65 -38 138z" />
    <glyph glyph-name="uni0242" unicode="&#x242;" 
d="M59 375v9q0 39 19 72q20 35 57 56q45 26 112 26q69 0 116 -27q35 -20 54 -53t19 -73q0 -48 -25 -91q-18 -31 -61 -71q-38 -36 -51 -58q-18 -31 -18 -85v-80h-62v80q0 68 23 107q15 25 57 67q41 41 56 67q19 32 19 63q0 25 -12 45q-12 21 -35 35q-32 18 -79 18
q-46 0 -77 -17q-24 -14 -38 -38q-13 -22 -13 -48q0 -5 1 -10z" />
    <glyph glyph-name="uni01BE" unicode="&#x1be;" 
d="M59 146v9l62 6q0 -5 -1 -10q0 -26 13 -48q14 -23 38 -38q30 -17 76 -17q47 0 79 18q23 13 36 35q12 21 12 48q0 32 -17 61q-14 24 -54 61q-45 43 -61 69q-8 14 -12 30h-85v56h75q-1 12 -1 24v80h62v-80q0 -12 1 -24h73v-56h-58q1 -3 3 -5q13 -23 53 -60q43 -39 60 -69
q23 -40 23 -87q0 -44 -19 -77t-54 -53q-47 -27 -115 -27t-113 26q-36 21 -57 56q-19 34 -19 72z" />
    <glyph glyph-name="glyph616" 
d="M59 580q6 41 25 76q23 40 63 63q42 24 99.5 24t98.5 -24q39 -23 63 -63q28 -49 28 -113q0 -72 -38 -138q-16 -27 -47 -67q-30 -38 -43 -59q-27 -47 -27 -120v-159h-62v159q0 86 32 142q13 22 44 63t46 65q33 57 33 114q0 48 -21 85q-16 28 -43 43q-27 16 -63.5 16
t-63.5 -15.5t-44 -44.5q-15 -27 -19 -59z" />
    <glyph glyph-name="glyph617" 
d="M64 543q0 64 28 113q23 40 63 63q42 24 99 24t99 -24q39 -23 63 -63q20 -34 25 -76l-61 -12q-4 33 -19 59q-17 29 -44 44.5t-63.5 15.5t-63.5 -16q-27 -15 -43 -43q-21 -36 -21 -85q0 -57 33 -114q14 -24 46 -65t44 -63q32 -56 32 -142v-159h-62v159q0 73 -27 120
q-12 21 -43 59q-32 40 -47 67q-38 65 -38 138z" />
    <glyph glyph-name="uni0296" unicode="&#x296;" 
d="M59 155l61 12q4 -33 19 -59q17 -29 44 -44.5t63.5 -15.5t63.5 16q27 15 43 43q21 36 21 85q0 57 -33 114q-14 24 -46 65t-44 63q-32 56 -32 142v159h62v-159q0 -73 27 -120q12 -21 43 -59q32 -40 47 -67q38 -65 38 -138q0 -64 -28 -113q-23 -40 -63 -63q-42 -24 -99 -24
t-99 24q-39 23 -63 63q-20 34 -25 76z" />
    <glyph glyph-name="uni02A1" unicode="&#x2a1;" 
d="M59 580q6 41 25 76q23 40 63 63q42 24 99.5 24t98.5 -24q39 -23 63 -63q28 -49 28 -113q0 -72 -38 -138q-16 -27 -47 -67q-30 -38 -43 -59q-17 -29 -23 -67h70v-56h-74v-156h-62v156h-74v56h77q7 52 29 89q13 22 44 63t46 65q33 57 33 114q0 48 -21 85q-16 28 -43 43
q-27 16 -63.5 16t-63.5 -15.5t-44 -44.5q-15 -27 -19 -59z" />
    <glyph glyph-name="uni02A2" unicode="&#x2a2;" 
d="M64 543q0 64 28 113q23 40 63 63q42 24 99 24t99 -24q39 -23 63 -63q20 -34 25 -76l-61 -12q-4 33 -19 59q-17 29 -44 44.5t-63.5 15.5t-63.5 -16q-27 -15 -43 -43q-21 -36 -21 -85q0 -57 33 -114q14 -24 46 -65t44 -63q22 -38 29 -89h77v-56h-74v-156h-62v156h-74v56h70
q-6 39 -23 67q-12 21 -43 59q-32 40 -47 67q-38 65 -38 138z" />
    <glyph glyph-name="eth" unicode="&#xf0;" 
d="M56 220v1q0 82 32 138q25 43 66 66.5t96 23.5t96 -24l10 -6q-19 63 -51 114l-196 -51l-16 55l174 45q-36 40 -83 67q-36 21 -75 32l17 54q49 -14 93 -39q66 -38 114 -97l77 20l15 -55l-58 -15q2 -4 4 -7q72 -125 73 -320v-2q0 -82 -32 -138q-25 -43 -66 -66.5t-96 -23.5
t-96 23.5t-66 66.5q-32 56 -32 138zM118 220q0 -66 25 -110q18 -31 46 -47q26 -15 61 -15t61 15q28 16 46 47q25 44 25 110v2q0 66 -25 109q-18 31 -46 47q-26 15 -61 15t-61 -15q-28 -16 -46 -47q-25 -44 -25 -110v-1z" />
    <glyph glyph-name="Thorn" unicode="&#xde;" 
d="M80 0v735h62v-140h66q78 0 133 -31q47 -27 74 -74q29 -51 29 -122.5t-29 -122.5q-27 -47 -74 -74q-55 -32 -133 -31h-66v-140h-62zM142 196h66q56 0 96 23q35 20 55 55q22 39 22.5 93.5t-22.5 93.5q-20 35 -55 55q-40 23 -96 23h-66v-343z" />
    <glyph glyph-name="uni03F7" unicode="&#x3f7;" 
d="M80 0v735h62v-140h66q78 0 133 -31q47 -27 74 -74q29 -51 29 -122.5t-29 -122.5q-27 -47 -74 -74q-55 -32 -133 -31h-66v-140h-62zM142 196h66q56 0 96 23q35 20 55 55q22 39 22.5 93.5t-22.5 93.5q-20 35 -55 55q-40 23 -96 23h-66v-343z" />
    <glyph glyph-name="thorn" unicode="&#xfe;" 
d="M64 -205v940h62v-286q2 5 5 9q23 40 59 61q33 19 77 19q47 0 82 -20q37 -22 62 -63q33 -58 33 -145v-90q0 -87 -33 -145q-24 -41 -62 -63q-35 -20 -82 -20q-44 0 -77 19q-36 21 -59 61q-3 4 -5 9v-286h-62zM126 220q0 -69 26 -113q17 -30 43 -45q24 -14 56 -14
q34 0 60 15q28 16 46 47q25 44 25 110v90q0 66 -25 110q-18 31 -46 47q-26 15 -60 15q-32 0 -56 -14q-26 -15 -43 -45q-26 -44 -26 -113v-90z" />
    <glyph glyph-name="uni03F8" unicode="&#x3f8;" 
d="M64 -205v940h62v-286q2 5 5 9q23 40 59 61q33 19 77 19q47 0 82 -20q37 -22 62 -63q33 -58 33 -145v-90q0 -87 -33 -145q-24 -41 -62 -63q-35 -20 -82 -20q-44 0 -77 19q-36 21 -59 61q-3 4 -5 9v-286h-62zM126 220q0 -69 26 -113q17 -30 43 -45q24 -14 56 -14
q34 0 60 15q28 16 46 47q25 44 25 110v90q0 66 -25 110q-18 31 -46 47q-26 15 -60 15q-32 0 -56 -14q-26 -15 -43 -45q-26 -44 -26 -113v-90z" />
    <glyph glyph-name="uni01F6" unicode="&#x1f6;" 
d="M56 0v735h62v-339h101v339h62v-603q0 -50 22 -72q12 -12 28.5 -12t28.5 12q22 22 22 72v398h62v-398q0 -52 -20 -87q-15 -26 -39 -40q-23 -13 -53.5 -13t-53.5 13q-24 14 -39 40q-20 35 -20 87v208h-101v-340h-62z" />
    <glyph glyph-name="uni0195" unicode="&#x195;" 
d="M56 0v735h62v-236q12 19 29.5 29t40 10t39.5 -10q20 -11 33 -35q21 -37 21 -95v-266q0 -50 22 -72q12 -12 28.5 -12t28.5 12q22 22 22 72v398h62v-398q0 -52 -20 -87q-15 -26 -39 -40q-23 -13 -53.5 -13t-53.5 13q-24 14 -39 40q-20 35 -20 87v266q0 50 -22 72
q-12 12 -28.5 12t-28.5 -12q-22 -22 -22 -72v-398h-62z" />
    <glyph glyph-name="uni01A2" unicode="&#x1a2;" 
d="M48 132v471q0 50 20 84q15 27 40 41q25 15 60 15t61 -15q25 -15 40 -41q7 -12 12 -26q32 4 54 17q36 20 55 57h62v-940h-62v849q-11 -8 -23 -15q-32 -19 -78 -24v-473q0 -50 -20 -84q-15 -27 -40 -41q-25 -15 -60 -15t-61 15q-25 15 -40 41q-20 34 -20 84zM110 132
q0 -47 23 -70q14 -14 35.5 -14t35.5 14q23 23 23 70v471q0 47 -23 70q-14 14 -35.5 14t-35.5 -14q-23 -23 -23 -70v-471z" />
    <glyph glyph-name="uni01A3" unicode="&#x1a3;" 
d="M48 132v266q0 50 20 84q15 27 40 41q25 15 60 15t61 -15q25 -15 40 -41q7 -12 12 -26q32 4 54 17q36 20 55 57h62v-735h-62v644q-11 -8 -23 -15q-32 -19 -78 -24v-268q0 -50 -20 -84q-15 -27 -40 -41q-25 -15 -60 -15t-61 15q-25 15 -40 41q-20 34 -20 84zM110 132
q0 -47 23 -70q14 -14 35.5 -14t35.5 14q23 23 23 70v266q0 47 -23 70q-14 14 -35.5 14t-35.5 -14q-23 -23 -23 -70v-266z" />
    <glyph glyph-name="uni01F7" unicode="&#x1f7;" 
d="M64 0v735h62v-54q21 24 49 39q39 23 82 23q48 0 90 -24q40 -23 65 -66q32 -56 32 -130q0 -77 -44 -154q-59 -103 -274 -295v-74h-62zM126 153q171 156 217 235q39 67 39 134q0 60 -25 103q-18 31 -46 47q-27 15 -57 15q-32 0 -61 -17q-33 -19 -52 -52q-9 -16 -15 -35
v-430z" />
    <glyph glyph-name="uni01BF" unicode="&#x1bf;" 
d="M64 -205v735h62v-54q21 24 49 39q39 23 82 23q48 0 90 -24q40 -23 65 -66q32 -56 32 -130q0 -77 -44 -154q-59 -103 -274 -295v-74h-62zM126 -52q171 156 217 235q39 67 39 134q0 60 -25 103q-18 31 -46 47q-27 15 -57 15q-32 0 -61 -17q-33 -19 -52 -52q-9 -16 -15 -35
v-430z" />
    <glyph glyph-name="uni021C" unicode="&#x21c;" 
d="M58 48q113 11 203 63q64 37 92 86q22 37 22 78q0 37 -18 68q-11 20 -29 34q-6 -4 -12 -7q-82 -47 -201 -86l-19 54q128 40 190 76q46 27 68 65q20 34 20 71q0 43 -20 78q-16 28 -43 43q-27 16 -65 16q-37 0 -64 -16q-27 -15 -43 -43q-15 -27 -19 -60l-61 12q5 42 25 76
q23 40 62 63q42 24 100 24t100 -24q39 -23 62 -63q28 -49 28 -105q0 -49 -25 -93q-13 -23 -35 -44q21 -19 37 -45q24 -42 24 -93q0 -54 -29 -104q-36 -63 -113 -107q-104 -60 -231 -73z" />
    <glyph glyph-name="uni021D" unicode="&#x21d;" 
d="M58 -157q113 11 203 63q64 37 92 86q22 37 22 78q0 37 -18 68q-11 20 -29 34q-6 -4 -12 -7q-82 -47 -201 -86l-19 54q128 40 190 76q46 27 68 65q20 34 20 71q0 43 -20 78q-16 28 -43 43q-27 16 -65 16q-37 0 -64 -16q-27 -15 -43 -43q-15 -27 -19 -60l-61 12q5 42 25 76
q23 40 62 63q42 24 100 24t100 -24q39 -23 62 -63q28 -49 28 -105q0 -49 -25 -93q-13 -23 -35 -44q21 -19 37 -45q24 -42 24 -93q0 -54 -29 -104q-36 -63 -113 -107q-104 -60 -231 -73z" />
    <glyph glyph-name="uni0263" unicode="&#x263;" 
d="M56 530h62q81 -172 132 -307q51 135 132 307h62q-109 -231 -163 -394q53 -161 53 -257q0 -28 -10 -46q-10 -17 -27 -27q-20 -11 -47.5 -11t-46.5 11q-17 10 -27 27q-10 18 -10 46q0 96 53 257q-54 164 -163 394zM228 -121q0 -15 7 -22q6 -6 15 -6t15 6q7 7 7 22
q0 62 -22 151q-18 -74 -21 -128q-1 -17 -1 -23z" />
    <glyph glyph-name="uni0194" unicode="&#x194;" 
d="M56 735h62q81 -226 132 -403q51 177 132 403h62q-110 -305 -163 -516q53 -212 53 -338q0 -31 -10 -48t-27 -27q-20 -11 -47.5 -11t-46.5 11q-17 10 -27 27q-10 18 -10 48q0 125 53 336q-54 215 -163 518zM228 -122q0 -14 7 -21q6 -6 15 -6t15 6q7 7 7 21q0 83 -23 202
q-20 -104 -20 -177q0 -1 -0.5 -12.5t-0.5 -12.5z" />
    <glyph glyph-name="uni0264" unicode="&#x264;" 
d="M56 530h62q66 -96 112 -176q10 -18 20 -35q9 17 20 35q46 80 112 176h62q-66 -96 -112 -176q-29 -51 -51 -95q53 -111 53 -178q0 -26 -10 -43t-27 -27q-20 -11 -47.5 -11t-46.5 11q-17 10 -27 27q-10 18 -10 43q0 66 53 178q-21 44 -51 95q-46 80 -112 176zM228 83
q0 -14 7 -21q6 -6 15 -6t15 6q7 7 7 21q0 42 -22 103q-22 -61 -22 -103z" />
    <glyph glyph-name="uni02DE" unicode="&#x2de;" 
d="M-81 287l238 147h62v-169q0 -67 25 -110q17 -30 43 -45q24 -14 56 -14t56 14q26 15 44 45q7 12 12 26l55 -25q-6 -14 -13 -28q-25 -43 -64 -66q-38 -22 -90 -22t-91 23t-63 64q-32 56 -32 138v101l-200 -123z" />
    <glyph glyph-name="uni025A" unicode="&#x25a;" 
d="M55 400q8 34 24 61q23 39 57 59q31 18 71 18t71 -18q34 -20 57 -59q33 -57 34 -144h44v-1q0 -37 15 -63q11 -20 29 -30q18 -11 41 -10h2v-51h-4q-39 0 -71 19q-39 22 -56 66v-27q0 -94 -34 -154q-22 -38 -56 -57q-29 -17 -66.5 -17t-66.5 17q-33 19 -56 57
q-34 60 -34 154v73h251v17q0 79 -27 125q-15 25 -35 37q-17 10 -38 10q-22 0 -39 -10q-43 -25 -57 -97zM118 220q0 -81 27 -128q14 -24 33 -35q15 -9 34.5 -9t34.5 9q19 11 33 35q27 47 27 128v17h-189v-17z" />
    <glyph glyph-name="uni025D" unicode="&#x25d;" 
d="M59 110l60 13q3 -18 12 -33q24 -42 77 -42t77 42q14 24 14 58.5t-14 58.5q-23 40 -73 41h-44v56h44q27 0 47 11q17 10 28 28q12 21 12 49.5t-12 49.5q-10 18 -28 28q-21 12 -50 12q-31 0 -52 -13q-17 -10 -27 -27q-9 -16 -10 -34l-61 12q2 27 16 51q17 29 45 46
q36 21 89 21q50 0 86 -20q30 -17 47 -48q19 -32 19 -77q0 -39 -16 -67q-20 -34 -59 -51q37 -17 57 -52q18 -32 18 -76q0 -50 -21 -86q-18 -31 -49 -49q-35 -20 -83 -20t-82 20q-31 18 -49 49q-13 23 -18 49zM302 278l55 39h56v-1q0 -37 15 -63q11 -20 29 -30q18 -11 41 -10
h2v-51h-4q-39 0 -71 19q-46 26 -61 81l-14 -10z" />
    <glyph glyph-name="uni02AD" unicode="&#x2ad;" 
d="M64 74v220h372v-220h-62v164h-248v-164h-62zM64 441v221h372v-221h-62v165h-248v-165h-62z" />
    <glyph glyph-name="zero.ss08" 
d="M56 220v295q0 82 32 138q25 43 66 66.5t96 23.5t96 -23.5t66 -66.5q32 -56 32 -138v-295q0 -82 -32 -138q-25 -43 -66 -66.5t-96 -23.5t-96 23.5t-66 66.5q-32 56 -32 138zM118 220q0 -66 25 -110q18 -31 46 -47q26 -15 61 -15t61 15q28 16 46 47q25 44 25 110v295
q0 66 -25 110q-18 31 -46 47q-26 15 -61 15t-61 -15q-28 -16 -46 -47q-25 -44 -25 -110v-295z" />
    <glyph glyph-name="zero.ss06" 
d="M56 220v295q0 82 32 138q25 43 66 66.5t96 23.5t96 -23.5t66 -66.5q32 -56 32 -138v-295q0 -82 -32 -138q-25 -43 -66 -66.5t-96 -23.5t-96 23.5t-66 66.5q-32 56 -32 138zM118 250l258 324q-6 29 -19 51q-18 31 -46 47q-26 15 -61 15t-61 -15q-28 -16 -46 -47
q-25 -44 -25 -110v-265zM124 161q6 -29 19 -51q18 -31 46 -47q26 -15 61 -15t61 15q28 16 46 47q25 44 25 110v265z" />
    <glyph glyph-name="zero.ss07" 
d="M56 220v295q0 82 32 138q25 43 66 66.5t96 23.5t96 -23.5t66 -66.5q32 -56 32 -138v-295q0 -82 -32 -138q-25 -43 -66 -66.5t-96 -23.5t-96 23.5t-66 66.5q-32 56 -32 138zM118 220q0 -66 25 -110q18 -31 46 -47q26 -15 61 -15t61 15q28 16 46 47q25 44 25 110v295
q0 66 -25 110q-18 31 -46 47q-26 15 -61 15t-61 -15q-28 -16 -46 -47q-25 -44 -25 -110v-295zM200 367.5q0 -22.5 13.5 -36t36.5 -13.5t36.5 13.5t13.5 36t-13.5 36.5t-36.5 14t-36.5 -14t-13.5 -36.5z" />
    <glyph glyph-name="zero" unicode="0" 
d="M56 220v295q0 82 32 138q25 43 66 66.5t96 23.5t96 -23.5t66 -66.5q32 -56 32 -138v-295q0 -82 -32 -138q-25 -43 -66 -66.5t-96 -23.5t-96 23.5t-66 66.5q-32 56 -32 138zM118 250l258 324q-6 29 -19 51q-18 31 -46 47q-26 15 -61 15t-61 -15q-28 -16 -46 -47
q-25 -44 -25 -110v-265zM124 161q6 -29 19 -51q18 -31 46 -47q26 -15 61 -15t61 15q28 16 46 47q25 44 25 110v265z" />
    <glyph glyph-name="one" unicode="1" 
d="M68 619l181 116h62v-735h-62v666l-148 -94z" />
    <glyph glyph-name="two" unicode="2" 
d="M59 580q4 42 24 76q23 39 62 62q43 25 103.5 25t103.5 -25q39 -22 62 -62q26 -46 26 -101q0 -59 -33 -116q-30 -53 -122 -129q-89 -74 -121 -128q-28 -49 -35 -126h307v-56h-372v1q0 133 42 207q35 61 132 137q86 69 113 117q27 46 27 92q0 41 -19 74q-16 27 -42 42
q-29 17 -68 17t-68 -16q-27 -15 -43 -43q-15 -26 -18 -58z" />
    <glyph glyph-name="three" unicode="3" 
d="M59 155l61 13q4 -33 19 -60q17 -29 44 -44.5t63 -15.5q37 0 64 16q27 15 43 43q21 36 21 83q0 45 -21 82q-19 33 -52 52q-40 23 -116 23v56q78 0 118 23q32 19 51 51q20 34 20 75q0 42 -20 76q-16 27 -42 43q-28 16 -66 16t-65 -16q-27 -15 -42 -43q-15 -26 -19 -58
l-61 10q5 42 25 77q23 40 62 62q42 24 100.5 24t100.5 -24q39 -22 62 -62q27 -47 27 -104q0 -52 -25 -95q-24 -42 -66 -66q-18 -10 -42 -17q22 -7 39 -17q43 -25 68 -68q26 -45 26 -100q0 -61 -28 -111q-23 -40 -63 -63q-42 -24 -99 -24t-99 24q-39 23 -62 63q-20 34 -26 76
z" />
    <glyph glyph-name="four" unicode="4" 
d="M56 238v56l239 441h76v-441h65v-56h-65v-238h-62v238h-253zM118 294h191v350z" />
    <glyph glyph-name="five" unicode="5" 
d="M59 155l58 20q7 -35 23 -63q19 -33 47 -49q26 -15 61 -15q34 0 60 15q28 16 46 48q27 47 28 121q0 74 -28 122q-18 31 -45 47q-25 14 -57 14q-33 0 -58 -14q-28 -16 -47 -49q-12 -20 -18 -44l-56 25v402h344v-56h-281v-248q11 10 24 17q39 23 91.5 23t91.5 -23
q40 -23 66 -67q35 -60 35 -149q0 -88 -34 -148q-26 -45 -67 -69q-40 -23 -95 -23t-95 23q-41 24 -67 69q-19 32 -27 71z" />
    <glyph glyph-name="uni01BC" unicode="&#x1bc;" 
d="M59 155l58 20q7 -35 23 -63q19 -33 47 -49q26 -15 61 -15q34 0 60 15q28 16 46 48q27 47 28 121q0 74 -28 122q-18 31 -45 47q-25 14 -57 14q-33 0 -58 -14q-28 -16 -47 -49q-12 -20 -18 -44l-56 25v402h344v-56h-281v-248q11 10 24 17q39 23 91.5 23t91.5 -23
q40 -23 66 -67q35 -60 35 -149q0 -88 -34 -148q-26 -45 -67 -69q-40 -23 -95 -23t-95 23q-41 24 -67 69q-19 32 -27 71z" />
    <glyph glyph-name="uni01BD" unicode="&#x1bd;" 
d="M59 152v3l62 7v-6q0 -27 13 -51q14 -25 40 -39q31 -18 77 -18q45 0 76 18q26 15 40 39q15 26 15 62t-15 62q-14 25 -40 39q-31 18 -75 18q-45 0 -76 -18q-26 -15 -41 -41q-3 -5 -5 -11l-57 24v290h344v-56h-281v-161q3 2 6 3q45 26 110.5 26t110.5 -27q38 -22 59 -57
q22 -38 22 -90.5t-22 -91.5q-21 -36 -59 -57q-46 -27 -112 -27q-68 0 -113 27q-37 22 -59 57q-20 35 -20 76z" />
    <glyph glyph-name="six" unicode="6" 
d="M56 220v2q0 195 73 320q57 99 152 154q44 26 93 39l17 -54q-39 -12 -75 -32q-82 -48 -132 -134q-25 -43 -40 -96l10 6q41 24 96 24t96 -23.5t66 -66.5q32 -56 32 -138v-1q0 -82 -32 -138q-25 -43 -66 -66.5t-96 -23.5t-96 23.5t-66 66.5q-32 56 -32 138zM118 220
q0 -66 25 -110q18 -31 46 -47q26 -15 61 -15t61 15q28 16 46 47q25 44 25 110v1q0 66 -25 110q-18 31 -46 47q-26 15 -61 15t-61 -15q-28 -16 -46 -47q-25 -43 -25 -109v-2z" />
    <glyph glyph-name="seven" unicode="7" 
d="M64 679v56h372v-56l-235 -679h-66l235 679h-306z" />
    <glyph glyph-name="eight" unicode="8" 
d="M56 169q0 51 28 100q29 50 114 107q-73 51 -99 97q-28 48 -28 100q0 50 24 90q21 36 56 56q41 24 99 24t99 -24q36 -21 56 -56q23 -40 24 -90q0 -51 -28 -100q-26 -46 -99 -97q85 -57 114 -107q28 -48 28 -100q0 -50 -24 -91q-22 -37 -60 -60q-45 -26 -110 -26t-110 26
q-39 22 -60 60q-24 41 -24 91zM118 169q0 -35 16 -63q15 -25 41 -40q31 -18 75 -18t75 18q26 15 41 40q16 28 16 63q0 38 -21 74q-27 47 -111 100q-84 -53 -111 -100q-21 -36 -21 -74zM134 573q0 -38 21 -74q24 -43 95 -90q71 47 95 90q21 36 21 74q0 35 -15 61
q-14 24 -38 38q-26 15 -63 15t-63 -15q-24 -14 -38 -38q-16 -27 -15 -61z" />
    <glyph glyph-name="glyph655" 
d="M56 0q0 156 47 237q32 55 103 117q-78 67 -104 114q-30 52 -31 105q0 50 24 90q21 36 56 56q41 24 99 24t99 -24q36 -21 56 -56q23 -40 24 -90q0 -53 -31 -105q-27 -46 -104 -114q71 -62 103 -117q47 -82 47 -237h-62q0 136 -44 212q-27 47 -88 104q-61 -57 -88 -104
q-44 -75 -44 -212h-62zM134 572q0 -41 24 -83q23 -40 92 -98q69 58 92 98q24 41 24 83q0 35 -15 62q-14 24 -38 38q-26 15 -63 15t-63 -15q-24 -14 -38 -38q-16 -27 -15 -62z" />
    <glyph glyph-name="nine" unicode="9" 
d="M56 504v11q0 82 32 138q25 43 66 66.5t96 23.5t95 -23q41 -24 66 -68q33 -58 33 -142v-253q0 -104 -39 -171q-27 -47 -69 -72q-39 -22 -90.5 -22t-89.5 22q-42 24 -69 72q-18 32 -28 69l56 25q8 -37 25 -66q20 -35 49 -52q25 -14 57 -14t56 14q28 16 48 50q32 55 32 145
v102q-1 -3 -3 -5q-23 -39 -57 -60q-31 -18 -74 -18q-53 0 -94 24q-41 23 -66 67q-32 56 -32 137zM118 504q0 -66 25 -110q18 -31 46 -47q26 -15 60 -15q35 0 62 16q28 16 46 47q25 43 25 109v6q0 70 -26 115q-18 31 -46 47q-26 15 -60 15q-35 0 -61 -15q-28 -16 -46 -47
q-25 -44 -25 -110v-11z" />
    <glyph glyph-name="uni2000" unicode="&#x2000;" 
 />
    <glyph glyph-name="uni2002" unicode="&#x2002;" 
 />
    <glyph glyph-name="uni2004" unicode="&#x2004;" 
 />
    <glyph glyph-name="uni2005" unicode="&#x2005;" 
 />
    <glyph glyph-name="uni2006" unicode="&#x2006;" 
 />
    <glyph glyph-name="uni2007" unicode="&#x2007;" 
 />
    <glyph glyph-name="uni200B" unicode="&#x200b;" horiz-adv-x="0" 
 />
    <glyph glyph-name="uni00A0" unicode="&#xa0;" 
 />
    <glyph glyph-name="uni2001" unicode="&#x2001;" 
 />
    <glyph glyph-name="uni2003" unicode="&#x2003;" 
 />
    <glyph glyph-name="parenleft" unicode="(" 
d="M120 331.5q0 222.5 98 391.5q38 65 88 121l46 -38q-45 -50 -79 -108q-91 -158 -91 -366.5t91 -367.5q34 -58 79 -107l-46 -38q-51 55 -88 120q-98 170 -98 392.5z" />
    <glyph glyph-name="parenright" unicode=")" 
d="M148 -143q45 50 79 107q91 158 91 367t-91 367q-34 58 -79 108l46 38q51 -55 88 -121q98 -170 98 -392t-98 -392q-38 -65 -88 -120z" />
    <glyph glyph-name="bracketleft" unicode="[" 
d="M120 -181v1025h279v-56h-217v-913h217v-56h-279z" />
    <glyph glyph-name="bracketright" unicode="]" 
d="M101 -125h217v913h-217v56h279v-1025h-279v56z" />
    <glyph glyph-name="braceleft" unicode="{" 
d="M101 303v56q37 0 64 16q24 14 38 38q16 28 16 67v215q0 41 18 73q18 31 52 50q44 26 110 26v-56q-44 0 -74 -17q-22 -12 -33 -31.5t-11 -44.5v-215q0 -56 -23 -96q-19 -32 -50 -53q31 -20 50 -52q23 -40 23 -97v-214q0 -25 11 -44.5t33 -31.5q30 -17 74 -17v-56
q-66 0 -110 25q-34 19 -52 51t-18 73v214q0 39 -16 68q-14 24 -38 38q-27 15 -64 15z" />
    <glyph glyph-name="braceright" unicode="}" 
d="M101 -125q44 0 74 17q22 12 33 31.5t11 44.5v214q0 56 23 97q19 32 50 52q-31 20 -50 53q-23 40 -23 96v215q0 50 -44 76q-30 17 -74 17v56q66 0 110 -26q34 -19 52 -50q18 -32 18 -73v-215q0 -39 16 -67q14 -24 38 -38q27 -15 64 -16v-56q-37 0 -64 -15q-24 -14 -38 -38
q-16 -28 -16 -68v-214q0 -41 -18 -73q-18 -31 -52 -51q-44 -26 -110 -25v56z" />
    <glyph glyph-name="angleleft" unicode="&#x2329;" 
d="M112 331l194 513l58 -20l-183 -493l183 -492l-58 -20z" />
    <glyph glyph-name="uni27E8" unicode="&#x27e8;" 
d="M112 331l194 513l58 -20l-183 -493l183 -492l-58 -20z" />
    <glyph glyph-name="angleright" unicode="&#x232a;" 
d="M136 -161l183 492l-183 493l58 20l194 -513l-194 -512z" />
    <glyph glyph-name="uni27E9" unicode="&#x27e9;" 
d="M136 -161l183 492l-183 493l58 20l194 -513l-194 -512z" />
    <glyph glyph-name="uni27EA" unicode="&#x27ea;" 
d="M200 331l194 513l58 -20l-183 -493l183 -492l-58 -20zM24 331l194 513l58 -20l-183 -493l183 -492l-58 -20z" />
    <glyph glyph-name="uni27EB" unicode="&#x27eb;" 
d="M224 -161l183 492l-183 493l58 20l194 -513l-194 -512zM48 -161l183 492l-183 493l58 20l194 -513l-194 -512z" />
    <glyph glyph-name="uni2308" unicode="&#x2308;" 
d="M120 -181v1025h279v-56h-217v-969h-62z" />
    <glyph glyph-name="uni230A" unicode="&#x230a;" 
d="M120 -181v1025h62v-969h217v-56h-279z" />
    <glyph glyph-name="uni230B" unicode="&#x230b;" 
d="M101 -125h217v969h62v-1025h-279v56z" />
    <glyph glyph-name="uni2309" unicode="&#x2309;" 
d="M101 788v56h279v-1025h-62v969h-217z" />
    <glyph glyph-name="period" unicode="." 
d="M184 57.5q0 20.5 9 35.5q8 13 21 21q15 9 36 9t36 -9q13 -8 21 -21q9 -15 9 -35.5t-9 -35.5q-8 -13 -21 -21q-15 -9 -36 -9t-36 9q-13 8 -21 21q-9 15 -9 35.5z" />
    <glyph glyph-name="glyph684" 
d="M184 472.5q0 20.5 9 35.5q8 13 21 21q15 9 36 9t36 -9q13 -8 21 -21q9 -15 9 -35.5t-9 -35.5q-8 -13 -21 -21q-15 -9 -36 -9t-36 9q-13 8 -21 21q-9 15 -9 35.5z" />
    <glyph glyph-name="comma" unicode="," 
d="M180 -175q6 9 12 19q43 74 55 148q-38 1 -54 30q-9 15 -9 35.5t9 35.5q8 13 21 21q15 9 36 9t36 -9q13 -8 21 -21q9 -15 9 -36q0 -120 -70 -240q-6 -11 -13 -22z" />
    <glyph glyph-name="glyph686" 
d="M184 58q0 21 9 35q8 13 21 21q15 9 36 9t36 -9q13 -8 21 -21q9 -15 9 -35.5t-9 -35.5q-8 -13 -21.5 -21.5t-32.5 -8.5q13 -74 55 -148q6 -10 12 -19l-53 -30q-7 11 -13 22q-70 121 -70 241z" />
    <glyph glyph-name="colon" unicode=":" 
d="M184 472.5q0 20.5 9 35.5q8 13 21 21q15 9 36 9t36 -9q13 -8 21 -21q9 -15 9 -35.5t-9 -35.5q-8 -13 -21 -21q-15 -9 -36 -9t-36 9q-13 8 -21 21q-9 15 -9 35.5zM184 57.5q0 20.5 9 35.5q8 13 21 21q15 9 36 9t36 -9q13 -8 21 -21q9 -15 9 -35.5t-9 -35.5q-8 -13 -21 -21
q-15 -9 -36 -9t-36 9q-13 8 -21 21q-9 15 -9 35.5z" />
    <glyph glyph-name="semicolon" unicode=";" 
d="M180 -175q6 9 12 19q43 74 55 148q-38 1 -54 30q-9 15 -9 35.5t9 35.5q8 13 21 21q15 9 36 9t36 -9q13 -8 21 -21q9 -15 9 -36q0 -120 -70 -240q-6 -11 -13 -22zM184 472.5q0 20.5 9 35.5q8 13 21 21q15 9 36 9t36 -9q13 -8 21 -21q9 -15 9 -35.5t-9 -35.5
q-8 -13 -21 -21q-15 -9 -36 -9t-36 9q-13 8 -21 21q-9 15 -9 35.5z" />
    <glyph glyph-name="uni037E" unicode="&#x37e;" 
d="M180 -175q6 9 12 19q43 74 55 148q-38 1 -54 30q-9 15 -9 35.5t9 35.5q8 13 21 21q15 9 36 9t36 -9q13 -8 21 -21q9 -15 9 -36q0 -120 -70 -240q-6 -11 -13 -22zM184 472.5q0 20.5 9 35.5q8 13 21 21q15 9 36 9t36 -9q13 -8 21 -21q9 -15 9 -35.5t-9 -35.5
q-8 -13 -21 -21q-15 -9 -36 -9t-36 9q-13 8 -21 21q-9 15 -9 35.5z" />
    <glyph glyph-name="question" unicode="?" 
d="M59 580v6q0 40 20 74q21 36 58 57q45 26 110 26q62 0 106 -25q38 -22 59 -59q24 -42 24 -93q0 -56 -30 -108q-16 -28 -59 -77q-30 -34 -43 -56q-23 -40 -23 -104l-62 -1q0 85 29 136q16 27 58 74q32 37 46 61q22 38 22 76q0 34 -16 63q-15 25 -40 40q-29 17 -71 17
q-44 0 -74 -18q-25 -14 -39 -38q-13 -23 -14 -50q0 -4 1 -8zM192 50q0 27 15.5 42.5t42.5 15.5t42.5 -15.5t15.5 -42.5t-15.5 -42.5t-42.5 -15.5t-42.5 15.5t-15.5 42.5z" />
    <glyph glyph-name="questiondown" unicode="&#xbf;" 
d="M64 -36q0 56 30 108q16 28 59 77q30 34 43 56q23 40 23 104l62 1q0 -85 -29 -136q-16 -27 -58 -74q-32 -37 -46 -61q-22 -38 -22 -76q0 -34 16 -63q15 -25 40 -40q29 -17 71 -17q44 0 74 18q25 14 39 38q13 23 14 50q0 4 -1 8l62 -7v-6q0 -40 -20 -74q-21 -36 -58 -57
q-45 -26 -110 -26q-62 0 -106 25q-38 22 -59 59q-24 42 -24 93zM192 480q0 27 15.5 42.5t42.5 15.5t42.5 -15.5t15.5 -42.5t-15.5 -42.5t-42.5 -15.5t-42.5 15.5t-15.5 42.5z" />
    <glyph glyph-name="exclam" unicode="!" 
d="M192 50q0 27 15.5 42.5t42.5 15.5t42.5 -15.5t15.5 -42.5t-15.5 -42.5t-42.5 -15.5t-42.5 15.5t-15.5 42.5zM219 220v515h62v-515h-62z" />
    <glyph glyph-name="exclamdown" unicode="&#xa1;" 
d="M192 480q0 27 15.5 42.5t42.5 15.5t42.5 -15.5t15.5 -42.5t-15.5 -42.5t-42.5 -15.5t-42.5 15.5t-15.5 42.5zM219 -205v515h62v-515h-62z" />
    <glyph glyph-name="exclamdbl" unicode="&#x203c;" 
d="M317 50q0 27 15.5 42.5t42.5 15.5t42.5 -15.5t15.5 -42.5t-15.5 -42.5t-42.5 -15.5t-42.5 15.5t-15.5 42.5zM344 220v515h62v-515h-62zM67 50q0 27 15.5 42.5t42.5 15.5t42.5 -15.5t15.5 -42.5t-15.5 -42.5t-42.5 -15.5t-42.5 15.5t-15.5 42.5zM94 220v515h62v-515h-62z
" />
    <glyph glyph-name="bar" unicode="|" 
d="M219 -181v1025h62v-1025h-62z" />
    <glyph glyph-name="brokenbar" unicode="&#xa6;" 
d="M219 -181v466h62v-466h-62zM219 377v467h62v-467h-62z" />
    <glyph glyph-name="uni01C0" unicode="&#x1c0;" 
d="M219 -181v1025h62v-1025h-62z" />
    <glyph glyph-name="uni01C1" unicode="&#x1c1;" 
d="M306 -181v1025h62v-1025h-62zM131 -181v1025h62v-1025h-62z" />
    <glyph glyph-name="uni01C3" unicode="&#x1c3;" 
d="M192 50q0 27 15.5 42.5t42.5 15.5t42.5 -15.5t15.5 -42.5t-15.5 -42.5t-42.5 -15.5t-42.5 15.5t-15.5 42.5zM219 220v515h62v-515h-62z" />
    <glyph glyph-name="uni01C2" unicode="&#x1c2;" 
d="M219 -181v1025h62v-1025h-62zM64 222v56h372v-56h-372zM64 384v56h372v-56h-372z" />
    <glyph glyph-name="ampersand" unicode="&#x26;" 
d="M56 187q0 55 29 105q21 37 77 82q-20 26 -33 48q-47 81 -46 157q0 54 23 93q19 33 50 52q33 19 79.5 19t80.5 -19q32 -18 50 -52q23 -40 24 -91q0 -53 -28.5 -102t-115.5 -112q29 -35 69 -76q39 -41 67 -74v151h62v-173q0 -32 -6 -59q35 -68 35 -136h-62q0 30 -8 60
q-20 -26 -50 -43q-43 -25 -103 -25t-103 25q-40 23 -64 63q-28 48 -27 107zM118 187q0 -44 20 -78q16 -28 44 -44q29 -17 68 -17t67 16q39 22 55 69q-29 48 -108 127q-37 37 -66 70q-41 -34 -58 -63q-22 -39 -22 -80zM145 579q0 -59 39 -127q11 -19 27 -41q71 51 95 93
q22 38 21 77q0 36 -15 63q-12 21 -31 32t-44.5 11t-44.5 -11t-31 -32q-16 -27 -16 -65z" />
    <glyph glyph-name="at" unicode="@" 
d="M64 14v635q0 69 28 117q23 40 61 62q41 23 97 23.5t97 -23.5q39 -22 61 -62q28 -48 28 -117v-497q0 -52 -20 -86q-14 -25 -37 -38q-21 -12 -50 -12q-32 0 -56.5 14t-39.5 39q-19 33 -19 83v308q0 49 19 82q31 54 97 54h44v53q0 53 -21 89q-16 28 -42 43t-61 15t-61 -15
t-42 -43q-21 -36 -21 -89v-635q0 -53 21 -89q16 -28 42 -43t61 -15h158v-56h-158q-56 0 -97 24q-38 22 -61 61q-28 48 -28 118zM276 152q0 -46 22 -67q13 -13 31 -13q15 0 24 10q21 21 21 70v388h-44q-19 0 -32 -13q-21 -21 -22 -67v-308z" />
    </font>
</defs>
</svg>
