<svg width="137" height="111" viewBox="0 0 137 111" fill="none" xmlns="http://www.w3.org/2000/svg">
<path opacity="0.1" d="M54.6374 26.9193C49.5321 22.0534 42.9746 18.9921 35.9662 18.2029C28.9579 17.4137 21.8838 18.94 15.8242 22.5486C28.2642 27.0018 41.9904 27.1655 54.6374 26.9193Z" fill="#33B25F"/>
<path opacity="0.1" d="M126.736 99.2411L113.151 75.7114C113.113 75.6452 113.058 75.5903 112.993 75.552C112.927 75.5138 112.852 75.4937 112.776 75.4937C112.699 75.4937 112.625 75.5138 112.559 75.552C112.493 75.5903 112.438 75.6452 112.4 75.7114L98.8157 99.2411C98.7761 99.3069 98.7548 99.3822 98.7539 99.4591C98.7531 99.5359 98.7728 99.6116 98.8109 99.6783C98.8491 99.7451 98.9044 99.8004 98.9711 99.8386C99.0377 99.8769 99.1134 99.8967 99.1903 99.8959H103.243C103.358 99.8963 103.468 99.9421 103.549 100.023C103.63 100.105 103.676 100.215 103.676 100.329V105.351C103.676 105.466 103.722 105.576 103.803 105.657C103.884 105.738 103.994 105.784 104.108 105.785H109.396C109.511 105.785 109.621 105.739 109.702 105.658C109.784 105.576 109.829 105.466 109.829 105.351V102.924C109.829 102.809 109.875 102.7 109.956 102.618C110.037 102.537 110.147 102.492 110.262 102.492H115.288C115.403 102.492 115.513 102.537 115.595 102.618C115.676 102.699 115.722 102.809 115.722 102.924V105.351C115.722 105.466 115.768 105.576 115.849 105.658C115.93 105.739 116.04 105.785 116.155 105.785H121.442C121.557 105.785 121.667 105.739 121.748 105.658C121.829 105.576 121.875 105.466 121.875 105.351V100.324C121.875 100.209 121.921 100.099 122.002 100.018C122.083 99.9364 122.194 99.8907 122.309 99.8907H126.361C126.437 99.8905 126.512 99.8703 126.577 99.8322C126.643 99.7942 126.697 99.7395 126.735 99.6737C126.773 99.608 126.793 99.5334 126.793 99.4574C126.793 99.3815 126.774 99.3069 126.736 99.2411ZM107.791 101.845C107.752 101.886 107.704 101.919 107.651 101.941C107.599 101.964 107.542 101.975 107.485 101.976H105.582C105.467 101.976 105.357 101.93 105.275 101.849C105.194 101.768 105.148 101.657 105.148 101.542C105.148 101.427 105.194 101.317 105.275 101.236C105.357 101.154 105.467 101.109 105.582 101.109H107.489C107.575 101.109 107.658 101.134 107.73 101.182C107.801 101.23 107.856 101.297 107.889 101.376C107.922 101.456 107.931 101.543 107.914 101.627C107.897 101.711 107.856 101.788 107.795 101.849L107.791 101.845ZM120.271 101.845C120.231 101.886 120.183 101.919 120.131 101.941C120.078 101.964 120.021 101.975 119.964 101.976H118.062C117.947 101.976 117.837 101.93 117.756 101.849C117.675 101.768 117.629 101.657 117.629 101.542C117.629 101.427 117.675 101.317 117.756 101.236C117.837 101.154 117.947 101.109 118.062 101.109H119.972C120.058 101.109 120.142 101.134 120.213 101.182C120.284 101.23 120.34 101.297 120.372 101.376C120.405 101.456 120.414 101.543 120.397 101.627C120.38 101.711 120.339 101.788 120.279 101.849L120.271 101.845Z" fill="#33B25F"/>
<path opacity="0.1" d="M42.7685 99.4482L29.1838 75.9186C29.1457 75.8527 29.091 75.7981 29.0251 75.7601C28.9592 75.7221 28.8846 75.7021 28.8085 75.7021C28.7325 75.7021 28.6578 75.7221 28.5919 75.7601C28.5261 75.7981 28.4714 75.8527 28.4333 75.9186L16.6992 96.242C18.1652 98.0894 19.8099 99.7876 21.6095 101.312H23.5217C23.6367 101.312 23.747 101.358 23.8283 101.439C23.9096 101.52 23.9552 101.631 23.9552 101.746C23.9552 101.861 23.9096 101.971 23.8283 102.052C23.747 102.133 23.6367 102.179 23.5217 102.179H22.7149C23.7031 102.922 24.755 103.577 25.8583 104.135V103.133C25.8583 103.018 25.904 102.907 25.9853 102.826C26.0666 102.745 26.1769 102.699 26.2918 102.699H31.3187C31.4334 102.699 31.5433 102.745 31.6244 102.826C31.7054 102.908 31.7509 103.018 31.7509 103.133V105.558C31.7507 105.621 31.7645 105.683 31.7915 105.74C31.8262 105.815 31.8816 105.879 31.9512 105.923C32.0208 105.968 32.1018 105.992 32.1844 105.992H37.4719C37.539 105.992 37.6052 105.976 37.6651 105.946C37.7249 105.916 37.7768 105.872 37.8163 105.818C37.8745 105.743 37.9055 105.65 37.9041 105.556V100.533C37.9041 100.418 37.9498 100.307 38.0311 100.226C38.1124 100.145 38.2226 100.099 38.3376 100.099H42.39C42.4664 100.1 42.5417 100.08 42.6081 100.042C42.6745 100.004 42.7298 99.9497 42.7682 99.8836C42.8067 99.8175 42.8269 99.7424 42.827 99.666C42.827 99.5895 42.8068 99.5144 42.7685 99.4482ZM33.7902 101.439C33.83 101.398 33.8777 101.365 33.9303 101.343C33.9829 101.32 34.0394 101.309 34.0966 101.308H36.0036C36.1186 101.308 36.2289 101.354 36.3102 101.435C36.3915 101.516 36.4372 101.627 36.4372 101.742C36.4372 101.857 36.3915 101.967 36.3102 102.048C36.2289 102.129 36.1186 102.175 36.0036 102.175H34.0953C34.0096 102.175 33.9258 102.15 33.8545 102.102C33.7833 102.054 33.7277 101.987 33.6949 101.907C33.6621 101.828 33.6535 101.741 33.6703 101.657C33.687 101.573 33.7282 101.496 33.7888 101.435L33.7902 101.439ZM25.2571 92.7318C25.1422 92.7318 25.0319 92.6862 24.9506 92.6049C24.8693 92.5235 24.8236 92.4133 24.8236 92.2983V89.0056C24.8236 88.8906 24.8693 88.7803 24.9506 88.699C25.0319 88.6177 25.1422 88.5721 25.2571 88.5721H32.3625C32.4773 88.5724 32.5872 88.6182 32.6682 88.6995C32.7493 88.7808 32.7947 88.8908 32.7947 89.0056V92.2983C32.7947 92.4131 32.7493 92.5231 32.6682 92.6044C32.5872 92.6857 32.4773 92.7315 32.3625 92.7318H25.2571Z" fill="#33B25F"/>
<path opacity="0.1" d="M96.4669 57.1799H79.6562V53.544C79.6562 53.3133 79.5646 53.0921 79.4015 52.929C79.2384 52.7659 79.0172 52.6743 78.7866 52.6743H73.8501V48.8014C73.8501 48.6562 73.7924 48.5169 73.6898 48.4143C73.5871 48.3116 73.4478 48.2539 73.3026 48.2539H66.9438C66.7986 48.2539 66.6593 48.3116 66.5567 48.4143C66.454 48.5169 66.3963 48.6562 66.3963 48.8014V52.673H60.5928C60.3622 52.673 60.1409 52.7646 59.9778 52.9277C59.8148 53.0908 59.7231 53.312 59.7231 53.5427V57.1785H43.6931C43.6464 57.1789 43.6018 57.1977 43.5689 57.2308C43.536 57.2639 43.5176 57.3087 43.5176 57.3554V105.624C43.5176 105.67 43.536 105.715 43.5689 105.748C43.6018 105.781 43.6464 105.8 43.6931 105.8H54.3466C54.3935 105.8 54.4385 105.782 54.4716 105.749C54.5048 105.715 54.5234 105.671 54.5234 105.624V99.1299C54.5238 99.0831 54.5425 99.0383 54.5756 99.0052C54.6087 98.9721 54.6534 98.9534 54.7002 98.9531H59.2005C59.2473 98.9534 59.2921 98.9721 59.3252 99.0052C59.3583 99.0383 59.377 99.0831 59.3773 99.1299V105.624C59.3773 105.67 59.3958 105.715 59.4287 105.748C59.4616 105.781 59.5062 105.8 59.5529 105.8H80.6071C80.6539 105.8 80.6987 105.781 80.7318 105.748C80.7648 105.715 80.7836 105.67 80.7839 105.624V99.1299C80.7839 99.0832 80.8024 99.0384 80.8353 99.0053C80.8681 98.9722 80.9128 98.9534 80.9594 98.9531H85.4597C85.5066 98.9531 85.5516 98.9717 85.5848 99.0049C85.6179 99.038 85.6366 99.083 85.6366 99.1299V105.624C85.6369 105.67 85.6556 105.715 85.6887 105.748C85.7218 105.781 85.7666 105.8 85.8134 105.8H96.4669C96.5137 105.8 96.5584 105.781 96.5915 105.748C96.6246 105.715 96.6434 105.67 96.6437 105.624V57.3567C96.6434 57.3099 96.6246 57.2651 96.5915 57.232C96.5584 57.1989 96.5137 57.1802 96.4669 57.1799ZM52.6164 96.6977C52.6164 96.7442 52.5979 96.7889 52.565 96.8218C52.5321 96.8547 52.4875 96.8732 52.4409 96.8732H45.8607C45.8376 96.8733 45.8146 96.8689 45.7932 96.8602C45.7717 96.8515 45.7522 96.8386 45.7358 96.8222C45.7193 96.8059 45.7063 96.7865 45.6974 96.7651C45.6885 96.7438 45.6839 96.7208 45.6839 96.6977V94.4541C45.6839 94.4072 45.7025 94.3622 45.7357 94.329C45.7689 94.2959 45.8138 94.2773 45.8607 94.2773H52.4409C52.4876 94.2776 52.5322 94.2964 52.5651 94.3295C52.598 94.3626 52.6164 94.4074 52.6164 94.4541V96.6977ZM52.6164 90.8902C52.6166 90.9134 52.6122 90.9364 52.6034 90.9578C52.5947 90.9792 52.5818 90.9987 52.5655 91.0152C52.5492 91.0316 52.5298 91.0447 52.5084 91.0536C52.487 91.0625 52.4641 91.0671 52.4409 91.0671H45.8607C45.8375 91.0672 45.8144 91.0628 45.7929 91.0539C45.7713 91.0451 45.7518 91.0321 45.7353 91.0156C45.7189 90.9992 45.7058 90.9796 45.697 90.9581C45.6882 90.9366 45.6837 90.9135 45.6839 90.8902V88.644C45.6837 88.6207 45.6882 88.5977 45.697 88.5761C45.7058 88.5546 45.7189 88.535 45.7353 88.5186C45.7518 88.5021 45.7713 88.4891 45.7929 88.4803C45.8144 88.4715 45.8375 88.467 45.8607 88.4672H52.4409C52.4641 88.4672 52.487 88.4718 52.5084 88.4807C52.5298 88.4896 52.5492 88.5026 52.5655 88.5191C52.5818 88.5355 52.5947 88.555 52.6034 88.5764C52.6122 88.5979 52.6166 88.6209 52.6164 88.644V90.8902ZM52.6164 85.0841C52.6164 85.1308 52.598 85.1756 52.5651 85.2087C52.5322 85.2418 52.4876 85.2606 52.4409 85.2609H45.8607C45.8375 85.2609 45.8145 85.2563 45.7931 85.2475C45.7716 85.2386 45.7521 85.2256 45.7357 85.2091C45.7193 85.1927 45.7063 85.1732 45.6974 85.1518C45.6885 85.1303 45.6839 85.1073 45.6839 85.0841V82.8366C45.6839 82.7897 45.7025 82.7447 45.7357 82.7115C45.7689 82.6784 45.8138 82.6598 45.8607 82.6598H52.4409C52.4876 82.6601 52.5322 82.6789 52.5651 82.712C52.598 82.7451 52.6164 82.7899 52.6164 82.8366V85.0841ZM52.6164 79.2767C52.6166 79.2998 52.6122 79.3228 52.6034 79.3442C52.5947 79.3657 52.5818 79.3852 52.5655 79.4016C52.5492 79.4181 52.5298 79.4311 52.5084 79.44C52.487 79.4489 52.4641 79.4535 52.4409 79.4535H45.8607C45.8375 79.4537 45.8144 79.4492 45.7929 79.4404C45.7713 79.4316 45.7518 79.4185 45.7353 79.4021C45.7189 79.3856 45.7058 79.3661 45.697 79.3445C45.6882 79.323 45.6837 79.2999 45.6839 79.2767V77.0344C45.6837 77.0111 45.6882 76.988 45.697 76.9665C45.7058 76.945 45.7189 76.9254 45.7353 76.909C45.7518 76.8925 45.7713 76.8795 45.7929 76.8707C45.8144 76.8618 45.8375 76.8574 45.8607 76.8576H52.4409C52.4641 76.8576 52.487 76.8621 52.5084 76.871C52.5298 76.8799 52.5492 76.893 52.5655 76.9094C52.5818 76.9259 52.5947 76.9454 52.6034 76.9668C52.6122 76.9883 52.6166 77.0112 52.6164 77.0344V79.2767ZM52.6164 73.4705C52.6164 73.5172 52.598 73.562 52.5651 73.5951C52.5322 73.6282 52.4876 73.647 52.4409 73.6474H45.8607C45.8138 73.6474 45.7689 73.6287 45.7357 73.5956C45.7025 73.5624 45.6839 73.5174 45.6839 73.4705V71.223C45.6839 71.1999 45.6885 71.1769 45.6974 71.1555C45.7063 71.1342 45.7193 71.1148 45.7358 71.0984C45.7522 71.0821 45.7717 71.0692 45.7932 71.0605C45.8146 71.0517 45.8376 71.0473 45.8607 71.0475H52.4409C52.4875 71.0475 52.5321 71.066 52.565 71.0989C52.5979 71.1318 52.6164 71.1765 52.6164 71.223V73.4705ZM52.6164 67.6644C52.6164 67.711 52.5979 67.7556 52.565 67.7885C52.5321 67.8214 52.4875 67.8399 52.4409 67.8399H45.8607C45.8376 67.8401 45.8146 67.8357 45.7932 67.8269C45.7717 67.8182 45.7522 67.8053 45.7358 67.789C45.7193 67.7727 45.7063 67.7533 45.6974 67.7319C45.6885 67.7105 45.6839 67.6876 45.6839 67.6644V65.4169C45.6839 65.37 45.7025 65.325 45.7357 65.2919C45.7689 65.2587 45.8138 65.2401 45.8607 65.2401H52.4409C52.4876 65.2404 52.5322 65.2592 52.5651 65.2923C52.598 65.3254 52.6164 65.3702 52.6164 65.4169V67.6644ZM52.6164 61.857C52.6166 61.8801 52.6122 61.9031 52.6034 61.9245C52.5947 61.946 52.5818 61.9655 52.5655 61.9819C52.5492 61.9984 52.5298 62.0114 52.5084 62.0203C52.487 62.0292 52.4641 62.0338 52.4409 62.0338H45.8607C45.8375 62.034 45.8144 62.0295 45.7929 62.0207C45.7713 62.0119 45.7518 61.9989 45.7353 61.9824C45.7189 61.9659 45.7058 61.9464 45.697 61.9248C45.6882 61.9033 45.6837 61.8802 45.6839 61.857V59.6147C45.6837 59.5914 45.6882 59.5683 45.697 59.5468C45.7058 59.5253 45.7189 59.5057 45.7353 59.4893C45.7518 59.4728 45.7713 59.4598 45.7929 59.451C45.8144 59.4422 45.8375 59.4377 45.8607 59.4379H52.4409C52.4641 59.4379 52.487 59.4425 52.5084 59.4514C52.5298 59.4603 52.5492 59.4733 52.5655 59.4897C52.5818 59.5062 52.5947 59.5257 52.6034 59.5471C52.6122 59.5686 52.6166 59.5915 52.6164 59.6147V61.857ZM68.2169 96.6964C68.2169 96.7195 68.2123 96.7425 68.2034 96.7638C68.1945 96.7852 68.1814 96.8046 68.165 96.8209C68.1486 96.8372 68.1291 96.8501 68.1076 96.8589C68.0862 96.8676 68.0632 96.872 68.04 96.8719H61.4599C61.4132 96.8719 61.3684 96.8534 61.3353 96.8205C61.3022 96.7877 61.2834 96.743 61.283 96.6964V94.4541C61.2834 94.4073 61.3021 94.3625 61.3352 94.3294C61.3683 94.2963 61.4131 94.2776 61.4599 94.2773H68.04C68.0869 94.2773 68.1319 94.2959 68.1651 94.329C68.1982 94.3622 68.2169 94.4072 68.2169 94.4541V96.6964ZM68.2169 90.8889C68.217 90.9122 68.2126 90.9353 68.2038 90.9568C68.1949 90.9783 68.1819 90.9979 68.1655 91.0143C68.149 91.0308 68.1294 91.0438 68.1079 91.0526C68.0864 91.0615 68.0633 91.0659 68.04 91.0657H61.4599C61.4366 91.0657 61.4136 91.0612 61.3922 91.0523C61.3707 91.0434 61.3512 91.0304 61.3348 91.014C61.3184 90.9975 61.3054 90.978 61.2965 90.9566C61.2876 90.9351 61.283 90.9121 61.283 90.8889V88.644C61.283 88.6208 61.2876 88.5978 61.2965 88.5763C61.3054 88.5549 61.3184 88.5354 61.3348 88.519C61.3512 88.5026 61.3707 88.4895 61.3922 88.4807C61.4136 88.4718 61.4366 88.4672 61.4599 88.4672H68.04C68.0633 88.467 68.0864 88.4715 68.1079 88.4803C68.1294 88.4891 68.149 88.5021 68.1655 88.5186C68.1819 88.535 68.1949 88.5546 68.2038 88.5761C68.2126 88.5977 68.217 88.6207 68.2169 88.644V90.8889ZM68.2169 85.0828C68.2169 85.1297 68.1982 85.1747 68.1651 85.2078C68.1319 85.241 68.0869 85.2596 68.04 85.2596H61.4599C61.4131 85.2593 61.3683 85.2405 61.3352 85.2074C61.3021 85.1744 61.2834 85.1296 61.283 85.0828V82.8366C61.2834 82.7898 61.3021 82.745 61.3352 82.7119C61.3683 82.6788 61.4131 82.6601 61.4599 82.6598H68.04C68.0869 82.6598 68.1319 82.6784 68.1651 82.7115C68.1982 82.7447 68.2169 82.7897 68.2169 82.8366V85.0828ZM68.2169 79.2754C68.217 79.2986 68.2126 79.3217 68.2038 79.3432C68.1949 79.3648 68.1819 79.3843 68.1655 79.4008C68.149 79.4172 68.1294 79.4302 68.1079 79.4391C68.0864 79.4479 68.0633 79.4524 68.04 79.4522H61.4599C61.4366 79.4522 61.4136 79.4476 61.3922 79.4387C61.3707 79.4298 61.3512 79.4168 61.3348 79.4004C61.3184 79.384 61.3054 79.3645 61.2965 79.343C61.2876 79.3216 61.283 79.2986 61.283 79.2754V77.0344C61.283 77.0112 61.2876 76.9882 61.2965 76.9667C61.3054 76.9453 61.3184 76.9258 61.3348 76.9093C61.3512 76.8929 61.3707 76.8799 61.3922 76.871C61.4136 76.8621 61.4366 76.8576 61.4599 76.8576H68.04C68.0633 76.8574 68.0864 76.8618 68.1079 76.8707C68.1294 76.8795 68.149 76.8925 68.1655 76.909C68.1819 76.9254 68.1949 76.945 68.2038 76.9665C68.2126 76.988 68.217 77.0111 68.2169 77.0344V79.2754ZM68.2169 73.4692C68.2169 73.5161 68.1982 73.5611 68.1651 73.5943C68.1319 73.6274 68.0869 73.6461 68.04 73.6461H61.4599C61.4131 73.6457 61.3683 73.627 61.3352 73.5939C61.3021 73.5608 61.2834 73.516 61.283 73.4692V71.223C61.2834 71.1763 61.3022 71.1317 61.3353 71.0988C61.3684 71.066 61.4132 71.0475 61.4599 71.0475H68.04C68.0632 71.0473 68.0862 71.0517 68.1076 71.0605C68.1291 71.0692 68.1486 71.0821 68.165 71.0984C68.1814 71.1148 68.1945 71.1342 68.2034 71.1555C68.2123 71.1769 68.2169 71.1999 68.2169 71.223V73.4692ZM68.2169 67.6631C68.2169 67.6863 68.2123 67.7092 68.2034 67.7306C68.1945 67.752 68.1814 67.7714 68.165 67.7877C68.1486 67.804 68.1291 67.8169 68.1076 67.8256C68.0862 67.8344 68.0632 67.8388 68.04 67.8386H61.4599C61.4132 67.8386 61.3684 67.8202 61.3353 67.7873C61.3022 67.7544 61.2834 67.7098 61.283 67.6631V65.4169C61.2834 65.3701 61.3021 65.3253 61.3352 65.2922C61.3683 65.2591 61.4131 65.2404 61.4599 65.2401H68.04C68.0869 65.2401 68.1319 65.2587 68.1651 65.2919C68.1982 65.325 68.2169 65.37 68.2169 65.4169V67.6631ZM68.2169 61.8557C68.217 61.8789 68.2126 61.902 68.2038 61.9235C68.1949 61.9451 68.1819 61.9646 68.1655 61.9811C68.149 61.9975 68.1294 62.0106 68.1079 62.0194C68.0864 62.0282 68.0633 62.0327 68.04 62.0325H61.4599C61.4366 62.0325 61.4136 62.0279 61.3922 62.019C61.3707 62.0101 61.3512 61.9971 61.3348 61.9807C61.3184 61.9643 61.3054 61.9448 61.2965 61.9233C61.2876 61.9019 61.283 61.8789 61.283 61.8557V59.6147C61.283 59.5915 61.2876 59.5685 61.2965 59.547C61.3054 59.5256 61.3184 59.5061 61.3348 59.4897C61.3512 59.4732 61.3707 59.4602 61.3922 59.4513C61.4136 59.4424 61.4366 59.4379 61.4599 59.4379H68.04C68.0633 59.4377 68.0864 59.4422 68.1079 59.451C68.1294 59.4598 68.149 59.4728 68.1655 59.4893C68.1819 59.5057 68.1949 59.5253 68.2038 59.5468C68.2126 59.5683 68.217 59.5914 68.2169 59.6147V61.8557ZM78.8769 96.695C78.8769 96.7182 78.8723 96.7411 78.8634 96.7625C78.8545 96.7839 78.8415 96.8033 78.8251 96.8196C78.8086 96.8359 78.7891 96.8488 78.7677 96.8576C78.7462 96.8663 78.7233 96.8707 78.7001 96.8706H72.1199C72.0733 96.8706 72.0285 96.8521 71.9954 96.8192C71.9622 96.7864 71.9434 96.7417 71.9431 96.695V94.4541C71.9434 94.4073 71.9622 94.3625 71.9953 94.3294C72.0284 94.2963 72.0731 94.2776 72.1199 94.2773H78.7001C78.747 94.2773 78.792 94.2959 78.8251 94.329C78.8583 94.3622 78.8769 94.4072 78.8769 94.4541V96.695ZM78.8769 90.8876C78.8771 90.9109 78.8726 90.934 78.8638 90.9555C78.855 90.977 78.842 90.9966 78.8255 91.013C78.8091 91.0295 78.7895 91.0425 78.768 91.0513C78.7465 91.0602 78.7234 91.0646 78.7001 91.0644H72.1199C72.0967 91.0644 72.0737 91.0599 72.0523 91.051C72.0308 91.0421 72.0113 91.0291 71.9949 91.0126C71.9785 90.9962 71.9655 90.9767 71.9566 90.9553C71.9477 90.9338 71.9431 90.9108 71.9431 90.8876V88.644C71.9431 88.6208 71.9477 88.5978 71.9566 88.5763C71.9655 88.5549 71.9785 88.5354 71.9949 88.519C72.0113 88.5026 72.0308 88.4895 72.0523 88.4807C72.0737 88.4718 72.0967 88.4672 72.1199 88.4672H78.7001C78.7234 88.467 78.7465 88.4715 78.768 88.4803C78.7895 88.4891 78.8091 88.5021 78.8255 88.5186C78.842 88.535 78.855 88.5546 78.8638 88.5761C78.8726 88.5977 78.8771 88.6207 78.8769 88.644V90.8876ZM78.8769 85.0815C78.8769 85.1284 78.8583 85.1734 78.8251 85.2065C78.792 85.2397 78.747 85.2583 78.7001 85.2583H72.1199C72.0731 85.258 72.0284 85.2392 71.9953 85.2061C71.9622 85.1731 71.9434 85.1283 71.9431 85.0815V82.8366C71.9434 82.7898 71.9622 82.745 71.9953 82.7119C72.0284 82.6788 72.0731 82.6601 72.1199 82.6598H78.7001C78.747 82.6598 78.792 82.6784 78.8251 82.7115C78.8583 82.7447 78.8769 82.7897 78.8769 82.8366V85.0815ZM78.8769 79.274C78.8771 79.2973 78.8726 79.3204 78.8638 79.3419C78.855 79.3634 78.842 79.383 78.8255 79.3995C78.8091 79.4159 78.7895 79.4289 78.768 79.4378C78.7465 79.4466 78.7234 79.451 78.7001 79.4509H72.1199C72.0967 79.4509 72.0737 79.4463 72.0523 79.4374C72.0308 79.4285 72.0113 79.4155 71.9949 79.3991C71.9785 79.3827 71.9655 79.3632 71.9566 79.3417C71.9477 79.3203 71.9431 79.2973 71.9431 79.274V77.0344C71.9431 77.0112 71.9477 76.9882 71.9566 76.9667C71.9655 76.9453 71.9785 76.9258 71.9949 76.9093C72.0113 76.8929 72.0308 76.8799 72.0523 76.871C72.0737 76.8621 72.0967 76.8576 72.1199 76.8576H78.7001C78.7234 76.8574 78.7465 76.8618 78.768 76.8707C78.7895 76.8795 78.8091 76.8925 78.8255 76.909C78.842 76.9254 78.855 76.945 78.8638 76.9665C78.8726 76.988 78.8771 77.0111 78.8769 77.0344V79.274ZM78.8769 73.4679C78.8769 73.5148 78.8583 73.5598 78.8251 73.593C78.792 73.6261 78.747 73.6447 78.7001 73.6447H72.1199C72.0731 73.6444 72.0284 73.6257 71.9953 73.5926C71.9622 73.5595 71.9434 73.5147 71.9431 73.4679V71.223C71.9434 71.1763 71.9622 71.1317 71.9954 71.0988C72.0285 71.066 72.0733 71.0475 72.1199 71.0475H78.7001C78.7233 71.0473 78.7462 71.0517 78.7677 71.0605C78.7891 71.0692 78.8086 71.0821 78.8251 71.0984C78.8415 71.1148 78.8545 71.1342 78.8634 71.1555C78.8723 71.1769 78.8769 71.1999 78.8769 71.223V73.4679ZM78.8769 67.6618C78.8769 67.685 78.8723 67.7079 78.8634 67.7293C78.8545 67.7506 78.8415 67.7701 78.8251 67.7864C78.8086 67.8027 78.7891 67.8156 78.7677 67.8243C78.7462 67.8331 78.7233 67.8375 78.7001 67.8373H72.1199C72.0733 67.8373 72.0285 67.8189 71.9954 67.786C71.9622 67.7531 71.9434 67.7085 71.9431 67.6618V65.4169C71.9434 65.3701 71.9622 65.3253 71.9953 65.2922C72.0284 65.2591 72.0731 65.2404 72.1199 65.2401H78.7001C78.747 65.2401 78.792 65.2587 78.8251 65.2919C78.8583 65.325 78.8769 65.37 78.8769 65.4169V67.6618ZM78.8769 61.8544C78.8771 61.8776 78.8726 61.9007 78.8638 61.9222C78.855 61.9438 78.842 61.9633 78.8255 61.9798C78.8091 61.9962 78.7895 62.0092 78.768 62.0181C78.7465 62.0269 78.7234 62.0314 78.7001 62.0312H72.1199C72.0967 62.0312 72.0737 62.0266 72.0523 62.0177C72.0308 62.0088 72.0113 61.9958 71.9949 61.9794C71.9785 61.963 71.9655 61.9435 71.9566 61.922C71.9477 61.9006 71.9431 61.8776 71.9431 61.8544V59.6147C71.9431 59.5915 71.9477 59.5685 71.9566 59.547C71.9655 59.5256 71.9785 59.5061 71.9949 59.4897C72.0113 59.4732 72.0308 59.4602 72.0523 59.4513C72.0737 59.4424 72.0967 59.4379 72.1199 59.4379H78.7001C78.7234 59.4377 78.7465 59.4422 78.768 59.451C78.7895 59.4598 78.8091 59.4728 78.8255 59.4893C78.842 59.5057 78.855 59.5253 78.8638 59.5468C78.8726 59.5683 78.8771 59.5914 78.8769 59.6147V61.8544ZM94.4774 96.6937C94.477 96.7404 94.4582 96.785 94.4251 96.8179C94.392 96.8508 94.3472 96.8692 94.3006 96.8692H87.7204C87.6972 96.8694 87.6742 96.865 87.6528 96.8563C87.6314 96.8475 87.6119 96.8346 87.5954 96.8183C87.579 96.802 87.5659 96.7826 87.557 96.7612C87.5481 96.7398 87.5436 96.7169 87.5436 96.6937V94.4541C87.5436 94.4072 87.5622 94.3622 87.5953 94.329C87.6285 94.2959 87.6735 94.2773 87.7204 94.2773H94.3019C94.3487 94.2776 94.3934 94.2963 94.4265 94.3294C94.4596 94.3625 94.4783 94.4073 94.4787 94.4541L94.4774 96.6937ZM94.4774 90.8863C94.4774 90.9332 94.4587 90.9782 94.4256 91.0113C94.3924 91.0445 94.3475 91.0631 94.3006 91.0631H87.7204C87.6971 91.0633 87.674 91.0588 87.6525 91.05C87.631 91.0412 87.6114 91.0282 87.5949 91.0117C87.5785 90.9953 87.5655 90.9757 87.5567 90.9542C87.5478 90.9326 87.5434 90.9096 87.5436 90.8863V88.644C87.5434 88.6207 87.5478 88.5977 87.5567 88.5761C87.5655 88.5546 87.5785 88.535 87.5949 88.5186C87.6114 88.5021 87.631 88.4891 87.6525 88.4803C87.674 88.4715 87.6971 88.467 87.7204 88.4672H94.3019C94.3488 88.4672 94.3937 88.4858 94.4269 88.519C94.4601 88.5521 94.4787 88.5971 94.4787 88.644L94.4774 90.8863ZM94.4774 85.0802C94.477 85.127 94.4583 85.1717 94.4252 85.2048C94.3921 85.2379 94.3473 85.2567 94.3006 85.257H87.7204C87.6735 85.257 87.6285 85.2384 87.5953 85.2052C87.5622 85.172 87.5436 85.1271 87.5436 85.0802V82.8366C87.5436 82.7897 87.5622 82.7447 87.5953 82.7115C87.6285 82.6784 87.6735 82.6598 87.7204 82.6598H94.3019C94.3487 82.6601 94.3934 82.6788 94.4265 82.7119C94.4596 82.745 94.4783 82.7898 94.4787 82.8366L94.4774 85.0802ZM94.4774 79.2727C94.4774 79.3196 94.4587 79.3646 94.4256 79.3978C94.3924 79.4309 94.3475 79.4496 94.3006 79.4496H87.7204C87.6971 79.4497 87.674 79.4453 87.6525 79.4365C87.631 79.4276 87.6114 79.4146 87.5949 79.3982C87.5785 79.3817 87.5655 79.3621 87.5567 79.3406C87.5478 79.3191 87.5434 79.296 87.5436 79.2727V77.0344C87.5434 77.0111 87.5478 76.988 87.5567 76.9665C87.5655 76.945 87.5785 76.9254 87.5949 76.909C87.6114 76.8925 87.631 76.8795 87.6525 76.8707C87.674 76.8618 87.6971 76.8574 87.7204 76.8576H94.3019C94.3488 76.8576 94.3937 76.8762 94.4269 76.9093C94.4601 76.9425 94.4787 76.9875 94.4787 77.0344L94.4774 79.2727ZM94.4774 73.4666C94.477 73.5134 94.4583 73.5582 94.4252 73.5913C94.3921 73.6244 94.3473 73.6431 94.3006 73.6434H87.7204C87.6735 73.6434 87.6285 73.6248 87.5953 73.5916C87.5622 73.5585 87.5436 73.5135 87.5436 73.4666V71.223C87.5436 71.1999 87.5481 71.1769 87.557 71.1555C87.5659 71.1342 87.579 71.1148 87.5954 71.0984C87.6119 71.0821 87.6314 71.0692 87.6528 71.0605C87.6742 71.0517 87.6972 71.0473 87.7204 71.0475H94.3019C94.3485 71.0475 94.3933 71.066 94.4264 71.0988C94.4596 71.1317 94.4783 71.1763 94.4787 71.223L94.4774 73.4666ZM94.4774 67.6605C94.4777 67.6838 94.4734 67.707 94.4648 67.7287C94.4561 67.7503 94.4433 67.7701 94.427 67.7867C94.4107 67.8034 94.3912 67.8167 94.3697 67.8258C94.3483 67.835 94.3252 67.8398 94.3019 67.8399H87.7204C87.6972 67.8401 87.6742 67.8357 87.6528 67.8269C87.6314 67.8182 87.6119 67.8053 87.5954 67.789C87.579 67.7727 87.5659 67.7533 87.557 67.7319C87.5481 67.7105 87.5436 67.6876 87.5436 67.6644V65.4169C87.5436 65.37 87.5622 65.325 87.5953 65.2919C87.6285 65.2587 87.6735 65.2401 87.7204 65.2401H94.3019C94.3487 65.2404 94.3934 65.2591 94.4265 65.2922C94.4596 65.3253 94.4783 65.3701 94.4787 65.4169L94.4774 67.6605ZM94.4774 61.8531C94.4774 61.8999 94.4587 61.9449 94.4256 61.9781C94.3924 62.0112 94.3475 62.0299 94.3006 62.0299H87.7204C87.6971 62.03 87.674 62.0256 87.6525 62.0168C87.631 62.0079 87.6114 61.9949 87.5949 61.9785C87.5785 61.962 87.5655 61.9425 87.5567 61.9209C87.5478 61.8994 87.5434 61.8763 87.5436 61.8531V59.6147C87.5434 59.5914 87.5478 59.5683 87.5567 59.5468C87.5655 59.5253 87.5785 59.5057 87.5949 59.4893C87.6114 59.4728 87.631 59.4598 87.6525 59.451C87.674 59.4422 87.6971 59.4377 87.7204 59.4379H94.3019C94.3488 59.4379 94.3937 59.4565 94.4269 59.4897C94.4601 59.5228 94.4787 59.5678 94.4787 59.6147L94.4774 61.8531Z" fill="#33B25F"/>
<path opacity="0.1" d="M16.0226 89.5983C16.028 90.1667 15.882 90.7264 15.5995 91.2197C15.8769 91.7151 16.0226 92.2734 16.0226 92.8412C16.0226 93.409 15.8769 93.9673 15.5995 94.4627C15.743 94.7081 15.8506 94.9727 15.9191 95.2485C14.4894 93.364 13.1734 91.3959 11.9781 89.3547C12.0069 88.8678 12.1485 88.3942 12.3919 87.9716C12.1095 87.4782 11.9635 86.9185 11.9689 86.3501C11.9672 85.966 12.0319 85.5845 12.1601 85.2224C12.2211 85.0507 12.2988 84.8853 12.3919 84.7286C12.7613 84.1012 13.3428 83.6965 13.9951 83.6965C14.6473 83.6965 15.2302 84.1012 15.5995 84.7286C15.6894 84.8808 15.7652 85.0408 15.8261 85.2067C15.9575 85.5735 16.0239 85.9604 16.0226 86.3501C16.028 86.9185 15.882 87.4782 15.5995 87.9716C15.8829 88.4665 16.0289 89.028 16.0226 89.5983Z" fill="#33B25F"/>
<path opacity="0.1" d="M13.9969 85.7673C15.1159 85.7673 16.0231 84.5793 16.0231 83.1138C16.0231 81.6482 15.1159 80.4602 13.9969 80.4602C12.8779 80.4602 11.9707 81.6482 11.9707 83.1138C11.9707 84.5793 12.8779 85.7673 13.9969 85.7673Z" fill="#33B25F"/>
<path opacity="0.1" d="M13.9969 82.5246C15.1159 82.5246 16.0231 81.3366 16.0231 79.8711C16.0231 78.4056 15.1159 77.2175 13.9969 77.2175C12.8779 77.2175 11.9707 78.4056 11.9707 79.8711C11.9707 81.3366 12.8779 82.5246 13.9969 82.5246Z" fill="#33B25F"/>
<path opacity="0.4" d="M23.6622 63.6748C23.6656 65.8528 22.9332 67.968 21.5837 69.6774C22.6114 70.9842 23.2864 72.533 23.5439 74.1754C23.8015 75.8178 23.633 77.4988 23.0546 79.0574C22.4762 80.616 21.5073 82 20.2407 83.0768C18.9741 84.1536 17.4522 84.8872 15.8208 85.2072C15.5876 85.2543 15.3506 85.291 15.1109 85.3198C14.3715 85.4082 13.6245 85.4122 12.8843 85.3316C12.6381 85.3054 12.3949 85.2692 12.1548 85.2229C11.096 85.0272 10.0776 84.6549 9.14234 84.1214C7.39911 80.5601 5.87649 76.8951 4.5831 73.147C4.92337 71.8865 5.5155 70.708 6.32376 69.6827C5.32461 68.4134 4.65765 66.915 4.38323 65.3231C4.1088 63.7313 4.23557 62.0961 4.75206 60.5655L12.1233 63.0396L5.21047 59.4483C5.51492 58.8201 5.88596 58.2264 6.31721 57.6775C5.49278 56.6297 4.89296 55.4234 4.55514 54.1337C4.21732 52.844 4.14874 51.4986 4.35366 50.1812C4.55858 48.8638 5.03262 47.6028 5.74623 46.4766C6.45984 45.3505 7.39774 44.3834 8.50148 43.6355C9.60521 42.8877 10.8511 42.3752 12.1616 42.13C13.4721 41.8848 14.819 41.9121 16.1185 42.2102C17.4179 42.5083 18.6421 43.0708 19.7146 43.8627C20.7871 44.6547 21.6851 45.659 22.3525 46.8131L15.2261 52.0521L22.9537 48.0443C23.4478 49.2716 23.6861 50.5869 23.6541 51.9095C23.6222 53.2322 23.3205 54.5344 22.7677 55.7364L17.0048 55.6932L22.3302 56.5681C22.1042 56.9553 21.8517 57.3264 21.5745 57.6788C22.9257 59.3854 23.6613 61.4981 23.6622 63.6748Z" fill="#33B25F"/>
<path opacity="0.1" d="M23.6632 75.685C23.6628 77.9347 22.8814 80.1145 21.4524 81.8521C20.0235 83.5897 18.0355 84.7773 15.8282 85.2121C15.5951 85.2592 15.358 85.2959 15.1184 85.3247C14.379 85.4132 13.632 85.4171 12.8918 85.3365C12.6455 85.3103 12.4024 85.2741 12.1622 85.2278C11.1034 85.0322 10.0851 84.6598 9.14982 84.1263C7.40416 80.5635 5.87935 76.8967 4.58403 73.1467C4.92429 71.8862 5.51643 70.7077 6.32469 69.6824C4.97453 67.9713 4.24207 65.8542 4.24611 63.6746C4.24611 62.5848 22.8865 68.0255 21.5846 69.6771C22.9352 71.388 23.6677 73.5052 23.6632 75.685Z" fill="#33B25F"/>
<g opacity="0.1">
<path opacity="0.1" d="M132.926 87.0739C132.546 88.2867 132.14 89.4903 131.724 90.6665C131.608 90.3199 131.55 89.9566 131.551 89.5912C131.551 88.4216 132.127 87.4288 132.926 87.0739Z" fill="#3F3D56"/>
<path opacity="0.1" d="M136.999 66.1753C136.999 68.4739 136.535 72.1058 135.689 76.2604C134.948 79.9091 134.023 83.5181 132.919 87.0737C132.539 88.2865 132.133 89.4902 131.717 90.6663C131.239 92.0023 130.734 93.3015 130.206 94.5445C128.763 94.0148 127.466 93.1512 126.421 92.0243C125.375 90.8974 124.611 89.5391 124.191 88.0605C123.77 86.5819 123.706 85.0248 124.002 83.5164C124.298 82.008 124.947 80.5911 125.896 79.3815C124.897 78.1085 124.23 76.6068 123.955 75.0117C123.681 73.4167 123.808 71.7785 124.324 70.2447L131.696 72.7241L124.783 69.1248C125.087 68.4954 125.458 67.9004 125.889 67.3501C124.969 66.1761 124.33 64.8064 124.022 63.3465C123.714 61.8866 123.746 60.3755 124.114 58.9297C124.483 57.4839 125.178 56.1421 126.147 55.0076C127.117 53.8731 128.333 52.9763 129.703 52.3862C132.679 54.416 134.918 57.3531 136.089 60.7595L134.812 61.7103L136.182 60.9992C136.641 62.4113 136.909 63.8786 136.979 65.3619H136.594L136.987 65.4261C136.999 65.6737 136.999 65.9225 136.999 66.1753Z" fill="#6C63FF"/>
<path opacity="0.1" d="M135.696 76.2601C134.955 79.9088 134.031 83.5179 132.926 87.0735C132.547 88.2863 132.14 89.4899 131.724 90.6661C131.246 92.002 130.742 93.3013 130.214 94.5443C128.771 94.0145 127.473 93.1509 126.428 92.024C125.382 90.8971 124.618 89.5389 124.198 88.0603C123.778 86.5816 123.713 85.0245 124.009 83.5161C124.306 82.0078 124.955 80.5909 125.903 79.3813C124.555 77.6669 123.823 75.5482 123.826 73.3669C123.826 72.712 130.6 74.4278 135.696 76.2601Z" fill="black"/>
</g>
<path opacity="0.1" d="M136.983 65.4235C136.983 65.4039 136.983 65.3829 136.983 65.3619C136.913 63.8786 136.645 62.4113 136.185 60.9992C136.159 60.9193 136.133 60.8381 136.105 60.7595C134.935 57.3531 132.696 54.416 129.72 52.3862C126.385 50.114 122.337 49.1338 118.332 49.6289C114.327 50.124 110.639 52.0605 107.958 55.0765C107.677 53.4865 107.233 51.9297 106.633 50.4308C102.263 50.9833 97.8526 51.1477 93.4534 50.9219C96.1492 52.165 98.9444 53.1801 101.81 53.9566L101.707 54.3365C98.4919 53.4633 95.3647 52.2926 92.3663 50.8394L91.4612 50.4007L92.4645 50.4661C97.1382 50.7722 101.83 50.6376 106.479 50.064C105.473 47.6653 104.078 45.4491 102.351 43.5048C94.8116 42.7452 87.3316 41.163 80.3467 38.0261L80.5078 37.6686C87.3067 40.7242 94.5928 42.2946 101.948 43.0674C99.4586 40.3984 96.3824 38.3448 92.9627 37.0689C89.5429 35.7929 85.8734 35.3295 82.2438 35.7153C78.6143 36.1011 75.1241 37.3255 72.049 39.2918C68.9739 41.258 66.398 43.9123 64.5249 47.0451C63.8282 40.2891 61.0218 33.924 56.504 28.8526C52.482 30.4597 48.3292 31.7177 44.0915 32.6129C37.7183 33.9675 31.196 34.4866 24.6888 34.1571C27.3846 35.4002 30.1798 36.4153 33.045 37.1918L32.9429 37.5716C29.7282 36.6983 26.6019 35.5276 23.6043 34.0746L22.6993 33.6358L23.7026 33.7013C34.7942 34.4298 45.9084 32.6689 56.2316 28.5475C55.843 28.1222 55.4431 27.7066 55.0318 27.3006C42.1413 27.5625 28.102 27.4316 15.3922 22.8042C10.6825 25.7111 6.79531 29.7754 4.10098 34.61C1.40664 39.4445 -0.0051646 44.8883 1.41964e-05 50.4229C1.41964e-05 56.508 1.67257 64.876 4.58414 73.2715C5.88158 77.029 7.40857 80.7032 9.15648 84.2734C10.0458 86.0809 10.9901 87.8373 11.9816 89.519C13.177 91.5602 14.4931 93.5283 15.9227 95.4129C16.1794 95.7508 16.4391 96.0826 16.702 96.4083C18.167 98.2625 19.8113 99.9677 21.6109 101.499C21.975 101.803 22.3413 102.093 22.7098 102.368C23.6974 103.114 24.7493 103.772 25.8532 104.332C27.7746 105.295 29.7576 105.859 31.7864 105.941C31.9488 105.947 32.1125 105.951 32.2749 105.951V106.018C32.2749 106.018 54 107.36 77 108.86C100 110.36 105 112.86 120.29 106.018C135.58 99.176 120.29 105.951 120.29 105.951H120.356C120.863 105.949 121.366 105.861 121.844 105.689C124.956 104.585 127.821 100.152 130.204 94.5484C130.728 93.3055 131.236 92.0062 131.714 90.6703C132.136 89.4915 132.536 88.2904 132.916 87.0776C134.021 83.522 134.945 79.913 135.686 76.2643C136.526 72.1098 136.996 68.4778 136.996 66.1792C137 65.9225 137 65.6737 136.983 65.4235Z" fill="#33B25F"/>
<path d="M87.7412 49.2884C87.7675 49.2884 87.7889 49.267 87.7889 49.2407C87.7889 49.2143 87.7675 49.1929 87.7412 49.1929C87.7148 49.1929 87.6934 49.2143 87.6934 49.2407C87.6934 49.267 87.7148 49.2884 87.7412 49.2884Z" fill="#E6E8EC"/>
<path opacity="0.1" d="M94.2995 109.999C101.747 109.999 107.785 109.404 107.785 108.67C107.785 107.936 101.747 107.341 94.2995 107.341C86.8519 107.341 80.8145 107.936 80.8145 108.67C80.8145 109.404 86.8519 109.999 94.2995 109.999Z" fill="#3ACC6C"/>
<path d="M107.782 68.5699C107.699 68.1071 107.652 67.6386 107.639 67.1686C107.639 66.6047 106.872 66.1051 106.872 66.1051C106.872 66.1051 106.399 65.0101 106.083 64.8484C105.768 64.6867 104.794 63.2538 104.794 63.2538C104.782 62.9712 104.679 62.6999 104.5 62.4809C104.209 62.0972 103.942 61.695 103.702 61.2767C103.571 61.1164 103.637 61.0033 103.439 60.0687C103.429 60.02 103.417 59.9727 103.403 59.928C103.403 59.907 103.389 59.8886 103.381 59.8675C103.591 59.6576 103.737 59.393 103.802 59.104C103.868 58.815 103.851 58.5133 103.754 58.2335C103.718 58.1222 103.654 58.0224 103.567 57.9443C103.345 57.7629 102.99 57.8378 102.761 57.6656L103.004 56.5903C103.062 56.3274 103.092 55.9948 102.862 55.8528C102.776 55.8119 102.685 55.7814 102.591 55.7621C102.197 55.6307 101.968 55.214 101.865 54.813C101.767 54.4268 101.74 54.0258 101.787 53.6299C101.831 53.2487 101.943 52.878 101.984 52.4955C102.058 51.7879 101.888 51.0763 101.501 50.4789C101.351 50.2211 101.13 50.0121 100.864 49.8768C100.62 49.7677 100.338 49.7454 100.11 49.6139C99.621 49.3024 99.646 48.5623 99.2555 48.1377C98.865 47.7131 98.1734 47.7144 97.604 47.8603C97.0347 48.0062 96.468 48.2547 95.8842 48.1929C95.5082 48.1508 95.1558 47.9799 94.7784 47.9405C94.6705 47.9302 94.5616 47.9351 94.455 47.955V47.9431C94.1762 47.9931 93.9198 48.1482 93.8541 48.4124C93.8393 48.4753 93.8331 48.5398 93.8357 48.6043C93.8357 48.7582 93.8725 48.9185 93.8751 49.0658C93.88 49.1242 93.8731 49.1831 93.8548 49.2389C93.8365 49.2947 93.8072 49.3462 93.7686 49.3905C93.6937 49.4706 93.5832 49.5127 93.5057 49.5955C93.474 49.6272 93.4492 49.665 93.4327 49.7066C93.4162 49.7482 93.4084 49.7927 93.4097 49.8374C93.4097 50.0714 93.7016 50.2778 93.8975 50.3724H93.9054C93.8528 50.425 93.8002 50.4802 93.7515 50.5368C93.1899 51.1709 92.8802 51.9889 92.8811 52.8359C92.8859 53.5201 93.0905 54.1879 93.4699 54.7573C93.8493 55.3267 94.3868 55.7728 95.0164 56.0408L94.9888 56.1263C94.9334 56.2953 94.8689 56.4612 94.7955 56.6232C94.6595 56.5774 94.5151 56.562 94.3725 56.5779C94.2298 56.5938 94.0924 56.6406 93.9698 56.7152C93.5938 56.9781 92.8588 56.9571 92.6628 56.9084C92.4669 56.8598 90.4276 56.6021 90.2632 56.6666C90.0989 56.731 89.7741 56.4418 89.5624 56.8283C89.3507 57.2147 89.2521 57.4237 89.0365 57.521C88.8209 57.6183 88.4488 57.9233 88.4987 57.9877C88.5487 58.0521 87.9596 58.4386 87.9596 58.4386C87.9596 58.4386 87.4534 58.9644 87.1602 59.0341C86.867 59.1038 86.2464 59.5021 86.2464 59.5021L85.5272 60.0647C85.5272 60.0647 84.9894 60.1462 85.1524 59.7755C85.3155 59.4048 84.8579 58.9381 84.8579 58.9381C84.8579 58.9381 83.9441 57.0859 83.9441 56.7034C83.9441 56.3208 83.1933 54.6895 83.1933 54.6895L83.1013 54.6803L83.0592 54.5606C82.9212 54.1728 82.7423 53.697 82.6056 53.4183C82.3426 52.8859 82.1809 52.8307 82.1809 52.8307C82.1809 52.8307 79.0147 50.4539 76.9583 51.1783C74.9019 51.9026 80.7122 54.0611 81.2342 54.2872C81.417 54.3661 81.5485 54.6211 81.6405 54.9195C81.1773 55.1428 80.7873 55.4935 80.5163 55.9304C80.5163 55.9304 81.7733 58.716 81.8062 59.4087C81.839 60.1015 82.6713 62.0379 82.6713 62.0379C82.6713 62.0379 82.9816 63.4721 84.662 63.3906C84.662 63.3906 86.9801 63.8165 87.4863 63.3906C87.9925 62.9646 88.4488 62.6307 88.6946 62.5821C88.8755 62.5227 89.0344 62.4105 89.1509 62.26C89.1509 62.26 88.3843 67.091 88.0083 67.5104C87.6322 67.9297 84.3096 73.3536 85.5022 74.3238C86.4467 75.055 87.4448 75.7141 88.4882 76.2956C88.5894 76.3456 88.8932 75.8395 89.3271 75.4806C89.3271 75.5713 89.3271 75.6633 89.3271 75.7606C89.335 77.6904 89.59 80.6245 89.9424 81.2817C90.4684 82.248 90.2527 84.1159 90.2527 84.1159C90.5293 84.2461 90.8295 84.3181 91.135 84.3276C91.1508 84.3907 91.1692 84.459 91.1863 84.5248C91.4742 85.6119 91.941 87.2932 92.179 87.7402C92.5379 88.4172 92.7983 90.5599 92.7983 90.5599C92.7983 90.5599 93.0113 92.6632 92.9298 92.959C92.8982 93.0708 93.0363 93.9463 93.2532 95.0623C93.1217 96.5728 92.8719 99.4845 92.8298 100.537C92.8298 100.557 92.8298 100.577 92.8298 100.595V100.614C92.8305 100.626 92.8305 100.637 92.8298 100.649C92.8298 100.673 92.8298 100.694 92.8298 100.714C92.8257 100.78 92.8284 100.846 92.8377 100.912C92.854 101.012 92.8464 101.115 92.8154 101.212C92.7223 101.503 92.604 101.785 92.4617 102.056C92.4017 102.189 92.3491 102.325 92.3039 102.463C92.1724 102.521 92.012 102.662 91.9226 103.005C91.7595 103.633 91.515 105.371 91.515 105.371C91.515 105.371 91.4164 106.435 91.2218 106.676C91.0272 106.918 90.8273 108.431 92.2171 108.625C93.6069 108.818 94.2078 107.889 94.2078 107.889L94.1591 103.671V103.664C94.1872 103.628 94.2115 103.59 94.2315 103.549V103.539C94.2407 103.519 94.2512 103.498 94.2604 103.474L94.2722 103.443L94.2933 103.391C94.2925 103.385 94.2925 103.379 94.2933 103.373C94.4281 102.969 94.4686 102.54 94.4116 102.118V102.097V102.064C94.4116 102.053 94.4116 102.041 94.4116 102.031V101.965C94.4116 101.957 94.4116 101.948 94.4116 101.94C94.4116 101.912 94.4142 101.883 94.4195 101.853C94.4195 101.853 94.4195 101.843 94.4195 101.838L94.4274 101.786V101.764C94.4274 101.747 94.4274 101.73 94.4379 101.711C94.4374 101.707 94.4374 101.703 94.4379 101.698C94.451 101.638 94.4668 101.567 94.4839 101.509V101.494L94.5036 101.431C94.5233 101.364 94.5457 101.3 94.5694 101.229V101.216C94.5694 101.195 94.5838 101.174 94.5917 101.154V101.146C94.6154 101.082 94.6404 101.015 94.664 100.959L94.6706 100.942L94.6917 100.89L94.6982 100.874L94.7482 100.757L95.1334 101.947C95.1334 101.947 95.3464 102.833 95.2321 103.042C95.1177 103.251 95.3635 104.121 95.5253 104.137L95.3741 105.232C95.2923 105.836 95.2436 106.443 95.2281 107.052C95.2176 107.122 95.2071 107.184 95.1992 107.226C95.094 107.787 95.3464 108.658 95.3464 108.658C96.635 110.181 98.1707 108.776 98.1707 108.776C98.1707 108.776 98.3496 107.97 98.1707 107.81C97.9919 107.649 98.0721 107.068 98.0721 107.068C98.0721 107.068 98.1536 105.634 98.1694 104.588C98.1852 103.541 97.3134 102.616 97.3134 102.616L97.2648 102.659C97.1057 102.249 96.9243 101.771 96.9624 101.556C97.0281 101.186 96.7823 97.2721 96.7823 97.2721C96.8731 96.223 96.8924 95.1689 96.8401 94.1171C96.8611 93.9397 96.8809 93.7648 96.9006 93.5913C96.9992 92.75 97.0794 92.0309 97.111 91.6537V91.609C97.1189 91.5077 97.1228 91.4354 97.1215 91.4013C97.1215 91.2698 97.1215 91.1199 97.1346 90.9556C97.1649 90.5034 97.2359 89.9999 97.2359 89.9999L97.5777 87.9216C97.5777 87.9216 97.8407 86.9068 98.2154 86.3441L98.2601 86.2732C98.2746 86.2482 98.2891 86.2206 98.3048 86.1917L98.3114 86.1798C98.3259 86.1522 98.3417 86.1233 98.3561 86.0931L98.3627 86.0812C98.4153 85.9774 98.4718 85.8577 98.531 85.7263C98.531 85.7158 98.5402 85.7066 98.5442 85.6961L98.5889 85.5961C98.5889 85.583 98.5994 85.5699 98.6059 85.5567C98.6125 85.5436 98.6336 85.4897 98.648 85.4568C98.6545 85.4436 98.6602 85.43 98.6651 85.4161C98.6822 85.3766 98.7006 85.3359 98.7177 85.2938L98.7427 85.2333C98.7545 85.2031 98.7677 85.1729 98.7808 85.1426L98.8124 85.0624C98.8216 85.0427 98.8295 85.023 98.8374 85.0033L98.8729 84.9126C98.8729 84.8994 98.8847 84.885 98.89 84.8718C98.9833 84.6391 99.0727 84.4091 99.1529 84.2001C99.1779 84.1344 99.2029 84.0686 99.2252 84.0108C100.061 84.0621 100.629 84.1081 100.629 84.1081C100.629 84.1081 100.892 82.2243 100.808 80.9847C100.753 80.1381 100.911 79.0733 101.015 78.487C101.027 78.4226 101.037 78.3647 101.048 78.3122L101.07 78.3306C101.479 78.6526 101.772 77.5891 101.772 77.5891C101.772 77.5891 101.662 76.5967 101.509 75.3938L101.493 75.2742C101.729 75.3245 101.967 75.3609 102.207 75.3833C102.207 75.3833 102.339 75.3715 102.519 75.3491C103.017 75.6375 103.543 75.8753 104.089 76.059L104.958 74.4552C105.121 74.1228 105.313 73.8048 105.53 73.5048C105.793 73.1827 106.721 72.1521 106.705 71.9589C106.69 71.7656 107.016 70.6535 107.342 70.154C107.668 69.6544 107.798 68.6501 107.782 68.5699ZM104.159 69.7938C103.815 69.9384 103.489 70.7442 103.474 70.9861C103.458 71.228 103.097 72.2901 102.723 72.419C102.377 72.5373 101.717 73.1446 101.612 73.2419C101.504 73.2511 101.382 73.2655 101.254 73.2866C101.111 72.2704 100.969 71.4291 100.878 71.2595C100.615 70.7758 101.166 69.2298 101.166 69.2298C101.166 69.2298 101.22 67.6681 101.56 67.2974C101.901 66.9267 101.823 65.9921 101.823 65.9921C101.823 65.9921 101.905 65.6056 101.938 65.4294C101.971 65.2533 102.423 65.4294 102.427 65.4294C102.427 65.4294 103.308 65.9119 103.439 66.6362C103.571 67.3605 104.533 68.6173 104.533 68.6173C104.533 68.6173 104.386 69.0524 104.533 69.2745C104.681 69.4967 104.502 69.6492 104.159 69.7938Z" fill="url(#paint0_linear)"/>
<path d="M80.5547 56.0292C80.8227 55.5873 81.2151 55.2341 81.6828 55.0138C82.1506 54.7936 82.6728 54.716 83.1844 54.7909V56.6721H82.0418L81.1477 56.446L80.5547 56.0292Z" fill="#4C4981"/>
<path opacity="0.1" d="M80.5547 56.0292C80.8227 55.5873 81.2151 55.2341 81.6828 55.0138C82.1506 54.7936 82.6728 54.716 83.1844 54.7909V56.6721H82.0418L81.1477 56.446L80.5547 56.0292Z" fill="black"/>
<path d="M83.2703 55.2892L81.87 56.2699C81.87 56.2699 81.8582 56.074 81.8227 55.8059C81.753 55.2984 81.5965 54.5373 81.2586 54.3901C80.7445 54.164 75.021 52.0107 77.0511 51.2864C79.0812 50.5621 82.1961 52.9362 82.1961 52.9362C82.1961 52.9362 82.3565 52.9914 82.6129 53.5211C82.7444 53.7998 82.9245 54.2744 83.06 54.6622C83.1849 55.0119 83.2703 55.2892 83.2703 55.2892Z" fill="#ECC2B6"/>
<path d="M94.4568 56.8L94.6159 56.7251L95.063 57.2352L94.6975 58.0147L94.0742 57.765L94.2188 57.1418L94.4568 56.8Z" fill="#4C4981"/>
<path d="M92.3373 102.456C92.3373 102.456 91.935 102.409 91.7746 103.036C91.6142 103.663 91.3723 105.402 91.3723 105.402C91.3723 105.402 91.2763 106.463 91.083 106.705C90.8897 106.946 90.6977 108.457 92.0639 108.649C93.43 108.841 94.0256 107.914 94.0256 107.914L93.977 103.698L92.3373 102.456Z" fill="#444053"/>
<path d="M97.1057 102.645C97.1057 102.645 97.9656 103.565 97.9498 104.609C97.934 105.653 97.8525 107.084 97.8525 107.084C97.8525 107.084 97.7736 107.664 97.9498 107.824C98.126 107.985 97.9498 108.789 97.9498 108.789C97.9498 108.789 96.4377 110.192 95.1676 108.671C95.1676 108.671 94.9204 107.802 95.023 107.242C95.1255 106.682 95.4122 104.165 95.4122 104.165L97.1057 102.645Z" fill="#444053"/>
<path d="M99.2354 83.4218C99.2354 83.4218 98.3676 85.8485 97.9968 86.4111C97.626 86.9738 97.3709 87.9886 97.3709 87.9886L97.033 90.0617C96.9671 90.5252 96.9293 90.9923 96.9199 91.4604C96.9357 91.927 96.0837 98.7259 96.0837 98.7259L94.7334 100.447C94.7334 100.447 94.139 101.652 94.235 102.156C94.331 102.659 94.1706 103.458 93.9721 103.699C93.9721 103.699 93.9405 105.276 93.8919 105.627C93.8432 105.978 94.0694 106.979 93.8919 107.155C93.7144 107.331 91.3516 107.252 91.2871 106.962C91.2227 106.671 91.5764 105.274 91.5764 105.274L91.7855 103.924C91.7855 103.924 92.2036 103.185 92.1076 102.943C92.0116 102.701 92.2838 102.14 92.2996 102.091C92.3154 102.043 92.7506 101.255 92.6704 100.95C92.5902 100.645 93.1766 94.1592 93.1766 94.1592L94.832 82.5371L99.2354 83.4218Z" fill="#D7ACA0"/>
<path opacity="0.1" d="M99.2354 83.4221C99.2354 83.4221 99.1039 83.7876 98.9238 84.2674C98.6371 85.0246 98.2243 86.067 97.9968 86.4114C97.6273 86.9741 97.3696 87.9889 97.3696 87.9889L97.0317 90.0633C96.9664 90.5269 96.9291 90.9939 96.9199 91.462C96.9199 91.646 96.7964 92.8199 96.6386 94.1726C96.3953 96.2404 96.0837 98.7276 96.0837 98.7276L94.7334 100.448C94.7334 100.448 94.665 100.58 94.5795 100.788C94.4099 101.182 94.1706 101.822 94.235 102.152C94.331 102.65 94.1706 103.453 93.9721 103.695C93.9721 103.695 93.9392 105.273 93.8919 105.624C93.8445 105.975 94.0694 106.974 93.8919 107.151C93.7144 107.329 91.3516 107.249 91.2871 106.959C91.2227 106.67 91.5764 105.271 91.5764 105.271L91.7855 103.92C91.7855 103.92 92.2036 103.181 92.1063 102.939C92.009 102.698 92.2838 102.136 92.2996 102.088C92.3154 102.039 92.7506 101.252 92.6704 100.947C92.6086 100.714 92.9333 96.9056 93.0845 95.0994C93.1358 94.5315 93.1687 94.1621 93.1687 94.1621L94.5927 84.1635L94.7084 83.3577L94.8241 82.54L99.2354 83.4221Z" fill="#ECC2B6"/>
<path d="M97.7904 107.598C97.8049 107.775 95.5223 108.033 95.1962 107.84C94.8701 107.647 95.1962 105.251 95.1962 105.251L95.3448 104.159C95.1857 104.142 94.9438 103.274 95.0555 103.065C95.1673 102.856 94.9595 101.973 94.9595 101.973L94.5809 100.79L94.3495 100.065C93.9734 99.236 93.4291 96.8698 93.0912 95.103C92.8782 93.9935 92.7427 93.1193 92.773 93.0076C92.8532 92.7184 92.6415 90.6124 92.6415 90.6124C92.6415 90.6124 92.3785 88.4736 92.0314 87.7993C91.796 87.3523 91.3372 85.6736 91.0532 84.5904C90.9085 84.0344 90.8086 83.6347 90.8086 83.6347C90.8086 83.6347 93.2384 83.431 94.7124 83.36C95.3895 83.3271 95.8655 83.3232 95.8102 83.3784C95.755 83.4336 95.7406 83.7281 95.7432 84.154C95.7498 85.2569 95.9036 87.1972 96.0666 87.7191C96.2915 88.4421 96.5163 90.6111 96.4203 90.8215C96.3243 91.0318 96.3559 92.4292 96.3559 92.4292C96.5216 92.9968 96.617 93.5827 96.6399 94.1736C96.6913 95.2205 96.6729 96.2696 96.5847 97.3141C96.5847 97.3141 96.8253 101.221 96.7609 101.59C96.6964 101.96 97.275 103.118 97.275 103.343C97.275 103.567 97.4354 105.095 97.4354 105.095C97.4354 105.095 97.7799 107.422 97.7904 107.598Z" fill="#ECC2B6"/>
<path d="M99.0572 60.6419L98.7811 60.9403L98.601 61.1349L97.5491 62.2654L94.8313 62.5717L93.385 62.1852L93.0273 62.0892C93.0273 62.0892 93.0273 61.3636 93.0918 60.4934C93.1838 59.3773 93.4034 58.022 93.928 57.6526C94.1907 57.447 94.4004 57.1815 94.5394 56.8783C94.6443 56.6693 94.7323 56.4521 94.8024 56.2289C94.8129 56.2 94.8208 56.1724 94.83 56.1435C94.9483 55.7539 95.0336 55.3551 95.0851 54.9512C95.0851 54.9512 95.4322 54.7593 95.9147 54.5358C97.1731 53.9482 99.3465 53.1371 98.5905 54.9512C98.4793 55.2168 98.3845 55.489 98.3064 55.7662C98.2946 55.807 98.2841 55.8477 98.2749 55.8871C98.0224 56.8967 98.1894 57.5093 98.3774 57.8472C98.4092 57.9057 98.4457 57.9615 98.4866 58.0141C98.5379 58.0846 98.5995 58.1471 98.6693 58.1995L98.9823 60.1858L99.0086 60.3501L99.0572 60.6419Z" fill="#ECC2B6"/>
<path opacity="0.1" d="M98.5928 55.0488C98.4495 55.3932 98.6625 54.7675 98.5928 55.0488C98.0195 55.4563 96.6691 56.6171 95.9105 56.6171C95.3977 56.6171 95.2438 56.5238 94.8047 56.3253C94.9376 55.9093 95.0322 55.482 95.0874 55.0488C95.0874 55.0488 99.6381 52.5407 98.5928 55.0488Z" fill="black"/>
<path d="M99.751 52.9363C99.7503 53.802 99.4294 54.6369 98.8499 55.2802C98.2705 55.9236 97.4736 56.33 96.6125 56.4212C96.4915 56.433 96.3692 56.4409 96.2456 56.4409C95.5523 56.4409 94.8746 56.2353 94.2981 55.8502C93.7217 55.4651 93.2724 54.9178 93.0071 54.2774C92.7418 53.637 92.6723 52.9324 92.8076 52.2525C92.9428 51.5727 93.2767 50.9483 93.7669 50.4581C94.2572 49.968 94.8818 49.6342 95.5618 49.499C96.2417 49.3638 96.9465 49.4332 97.5871 49.6984C98.2276 49.9637 98.7751 50.4129 99.1602 50.9892C99.5454 51.5655 99.751 52.2431 99.751 52.9363Z" fill="#ECC2B6"/>
<path opacity="0.1" d="M100.248 68.4714L99.7487 69.7742C99.7487 69.7742 99.3424 69.7913 98.7087 69.811C96.5694 69.8793 91.8557 69.9661 91.6453 69.4166C91.5982 69.2772 91.5733 69.1313 91.5717 68.9841C91.5441 68.1467 91.9346 66.8611 91.9346 66.8611C91.9346 66.8611 92.1594 64.2885 92.1594 64.1768C92.1594 64.065 91.9662 62.2628 91.9662 62.2628L92.3527 60.8167L93.4296 60.0609C93.4296 60.0609 93.9121 60.801 94.2014 60.8641C94.4907 60.9272 94.8772 61.2834 94.8772 61.2834C94.8772 61.2834 95.8252 61.8618 96.1316 61.5398C96.4379 61.2177 98.8165 59.8032 98.8165 59.8032L100.071 61.1861L100.248 68.4714Z" fill="black"/>
<path d="M100.248 68.6711L99.7487 69.9725C99.7487 69.9725 99.3424 69.9909 98.7087 70.0107H98.6469C98.3734 70.0199 98.0604 70.0291 97.7265 70.0356C96.0264 70.0751 93.6846 70.0856 92.4605 69.9042C92.0003 69.8385 91.6992 69.7438 91.6492 69.615C91.6215 69.5375 91.6021 69.4573 91.5914 69.3757C91.5835 69.3153 91.5782 69.2443 91.5756 69.1825C91.548 68.3451 91.9385 67.0595 91.9385 67.0595C91.9385 67.0595 92.1633 64.4869 92.1633 64.3752C92.1633 64.2634 91.9701 62.4612 91.9701 62.4612L92.3566 61.0151L93.0969 60.4972L93.4335 60.2606C93.5467 60.43 93.6701 60.5925 93.803 60.747C93.9067 60.8862 94.0456 60.9956 94.2053 61.0638C94.4959 61.1282 94.8811 61.4831 94.8811 61.4831C94.8811 61.4831 95.8291 62.0615 96.1355 61.7395C96.3682 61.4936 97.8146 60.6089 98.4825 60.2054C98.6876 60.0805 98.8204 60.0029 98.8204 60.0029L98.9887 60.1896L100.075 61.3858L100.248 68.6711Z" fill="white"/>
<path opacity="0.1" d="M83.2699 55.2892L81.8696 56.2698C81.8696 56.2698 81.8578 56.074 81.8223 55.8058C82.5139 55.5139 82.9346 54.8685 83.0556 54.6621C83.1844 55.0118 83.2699 55.2892 83.2699 55.2892Z" fill="black"/>
<path d="M88.1901 58.6177L87.885 58.5362C87.885 58.5362 87.3854 59.062 87.0961 59.1317C86.8069 59.2014 86.1968 59.597 86.1968 59.597L85.4881 60.1597C85.4881 60.1597 84.9621 60.2412 85.1186 59.8705C85.2751 59.4998 84.8293 59.0344 84.8293 59.0344C84.8293 59.0344 83.9287 57.1861 83.9287 56.7997C83.9287 56.4132 83.1845 54.791 83.1845 54.791C83.1845 54.791 82.2509 56.6077 80.5469 56.0293C80.5469 56.0293 81.7855 58.8096 81.817 59.5011C81.8486 60.1925 82.669 62.121 82.669 62.121C82.669 62.121 82.9754 63.5526 84.6308 63.4724C84.6308 63.4724 86.9147 63.897 87.413 63.4724C87.9113 63.0478 88.361 62.7139 88.5964 62.6652C88.8317 62.6166 89.046 62.3445 89.046 62.3445V60.4331L88.1901 58.6177Z" fill="#4C7660"/>
<path opacity="0.1" d="M85.3281 60.4331C85.3281 60.4331 85.7304 61.9291 85.4727 62.0894L85.3281 60.4331Z" fill="black"/>
<path opacity="0.1" d="M98.7093 70.0041C96.57 70.0724 91.8563 70.1579 91.6459 69.6097C91.5987 69.4703 91.5739 69.3244 91.5723 69.1772L98.5607 69.5453L98.7093 70.0041Z" fill="black"/>
<path opacity="0.1" d="M99.2361 83.4218C99.2361 83.4218 99.1046 83.7872 98.9245 84.2671C98.0369 84.2132 96.8615 84.1566 95.7452 84.1487C95.3507 84.1487 94.9641 84.1487 94.5986 84.1619C93.8229 84.1856 93.1523 84.2486 92.725 84.3696C92.1847 84.5359 91.6199 84.6088 91.0551 84.5852C90.9105 84.0291 90.8105 83.6295 90.8105 83.6295C90.8105 83.6295 93.2404 83.4257 94.7143 83.3548L94.83 82.5371L99.2361 83.4218Z" fill="black"/>
<path d="M101.117 77.5383L100.843 78.1167C100.843 78.1167 100.805 78.2889 100.756 78.5624C100.654 79.1513 100.494 80.2135 100.554 81.06C100.634 82.2984 100.376 84.1782 100.376 84.1782C100.376 84.1782 94.4597 83.68 92.7241 84.1782C90.9885 84.6764 90.1338 84.1782 90.1338 84.1782C90.1338 84.1782 90.3442 82.3141 89.8288 81.3492C89.4777 80.692 89.2305 77.7579 89.2227 75.8281C89.2227 74.9381 89.2674 74.2637 89.3791 74.127C89.7328 73.6932 91.2436 69.3525 91.2436 69.3525L91.5881 69.3709L92.5085 69.4196L97.7415 69.6956L98.5633 69.739L98.6501 70.0019L101.117 77.5383Z" fill="#345F69"/>
<path d="M103.721 75.6084L103.77 76.1237C103.77 76.1237 101.178 75.2797 101.31 74.2425C101.441 73.2053 101.31 73.3223 101.31 73.3223L103.392 73.4985L103.721 75.6084Z" fill="#4C4981"/>
<path opacity="0.1" d="M103.721 75.6084L103.77 76.1237C103.77 76.1237 101.178 75.2797 101.31 74.2425C101.441 73.2053 101.31 73.3223 101.31 73.3223L103.392 73.4985L103.721 75.6084Z" fill="black"/>
<path opacity="0.1" d="M87.0572 60.8482C87.3218 61.073 87.6337 61.2352 87.9697 61.3228C87.8724 61.3017 87.782 61.2565 87.7067 61.1913C87.5213 61.0599 87.3452 60.9166 87.1663 60.7772C87.0217 60.6642 86.8416 60.4762 86.6641 60.4302C86.7803 60.5828 86.912 60.7229 87.0572 60.8482Z" fill="black"/>
<path opacity="0.1" d="M87.0963 61.5256C87.1797 61.6197 87.2472 61.7267 87.2962 61.8424C87.3792 62.1696 87.3742 62.5129 87.2817 62.8375L86.8663 61.8358C86.7939 61.6649 86.7216 61.494 86.6348 61.331C86.5967 61.2614 86.3574 60.9708 86.385 60.9104C86.4587 60.7395 87.0188 61.4296 87.0963 61.5256Z" fill="black"/>
<path opacity="0.1" d="M98.688 67.0729C98.9713 67.0386 99.2362 66.9147 99.4441 66.7192C99.0167 66.7731 98.6118 66.9414 98.191 67.0295C97.8004 67.1202 97.3909 67.0824 97.0234 66.9217C97.5073 67.1583 98.1726 67.1662 98.688 67.0729Z" fill="black"/>
<path opacity="0.1" d="M97.4806 64.1296C97.404 64.141 97.3261 64.1216 97.2637 64.0757C96.9429 63.8916 96.6264 63.6997 96.3144 63.4999C96.0106 63.304 95.6438 63.1055 95.3848 62.8584C96.0225 63.4342 96.6168 63.9206 97.4806 64.1296Z" fill="black"/>
<path opacity="0.1" d="M98.3724 67.5398C98.5409 67.5474 98.7097 67.5337 98.8747 67.4991C99.0416 67.4643 99.1892 67.3675 99.2875 67.2282C99.2279 67.2145 99.1652 67.2244 99.1127 67.2558C98.6032 67.4702 98.0437 67.5372 97.498 67.4491C97.7597 67.5608 98.095 67.5385 98.3724 67.5398Z" fill="black"/>
<path opacity="0.1" d="M95.3269 75.0036C94.9921 75.1045 94.6482 75.1719 94.3 75.2047C94.0291 75.2172 93.7577 75.212 93.4875 75.189L92.1726 75.1061L91.5152 75.0641C91.4376 75.0641 91.1207 75.0641 91.2772 74.9076C91.3561 74.8314 91.7952 74.88 91.9083 74.8761C92.1266 74.8691 92.3457 74.8651 92.5657 74.8643C93.001 74.8643 93.4375 74.8643 93.8727 74.8906C94.3605 74.9142 94.8404 74.951 95.3269 75.0036Z" fill="black"/>
<path opacity="0.1" d="M93.8014 75.6545C93.5779 75.6453 93.2899 75.778 93.0598 75.8069C92.8024 75.8374 92.543 75.8475 92.284 75.8372C91.7716 75.8249 91.2654 75.7216 90.7891 75.5322C91.7923 75.5835 92.7982 75.6137 93.8014 75.6545Z" fill="black"/>
<path opacity="0.1" d="M90.9852 76.3428C91.0824 76.3625 91.1782 76.3889 91.2718 76.4217C91.8267 76.5795 92.4171 76.4401 92.9811 76.3008C92.8404 76.5124 92.5867 76.6031 92.3329 76.661C91.9202 76.7655 91.4899 76.7812 91.0706 76.707C90.9392 76.6807 90.6091 76.6334 90.5447 76.4967C90.4369 76.2955 90.8616 76.3231 90.9852 76.3428Z" fill="black"/>
<path opacity="0.1" d="M94.0966 77.3805C94.2629 77.4146 94.4271 77.4585 94.5883 77.512C95.2129 77.6671 95.8611 77.4541 96.4883 77.3108C97.2422 77.1397 98.0154 77.0681 98.7879 77.0979C98.6499 77.0979 98.4303 77.2188 98.2949 77.2596C98.1174 77.3135 97.9372 77.3634 97.7571 77.4081C97.4034 77.4949 97.0444 77.5659 96.6829 77.6171C95.9529 77.7227 95.2142 77.7548 94.4779 77.7131C94.1413 77.6947 93.5575 77.7289 93.2695 77.5593C93.5184 77.4114 93.8088 77.3487 94.0966 77.3805Z" fill="black"/>
<path opacity="0.1" d="M94.3322 57.5541C94.3322 57.5541 94.3637 59.0343 94.1231 59.71C94.0468 59.9204 93.9285 60.3082 93.7996 60.7433C93.659 61.2257 93.5051 61.766 93.3868 62.1893C93.2684 62.6126 93.1895 62.8965 93.1895 62.8965C93.1895 62.8965 92.6465 67.3187 92.5058 69.426C92.5058 69.4628 92.5058 69.5009 92.4979 69.5364C92.4901 69.6547 92.4769 69.7783 92.4572 69.9058C92.1443 71.9986 90.339 75.2258 89.7328 75.4835C89.5438 75.5702 89.3712 75.689 89.2227 75.8345C89.2227 74.9445 89.2674 74.2702 89.3791 74.1334C89.7328 73.6996 91.2436 69.3589 91.2436 69.3589L91.5881 69.3773C91.5802 69.3169 91.5749 69.2459 91.5723 69.1841C91.5447 68.3467 91.9352 67.0611 91.9352 67.0611C91.9352 67.0611 92.16 64.4885 92.16 64.3767C92.16 64.265 91.9667 62.4627 91.9667 62.4627L92.3533 61.0167L93.0936 60.4988C93.1856 59.3827 93.4052 58.0274 93.9298 57.658C94.1925 57.4524 94.4022 57.1869 94.5412 56.8837C94.6451 56.8982 94.4557 56.8062 94.4557 56.8062L94.3322 57.5541Z" fill="black"/>
<path d="M94.6154 56.7248C94.4814 56.679 94.3389 56.6635 94.1982 56.6794C94.0574 56.6953 93.922 56.7423 93.8016 56.8168C93.4308 57.0798 92.7076 57.0574 92.5143 57.0101C92.3211 56.9628 90.312 56.7038 90.1476 56.7682C89.9833 56.8326 89.6651 56.5434 89.456 56.9299C89.247 57.3164 89.151 57.5241 88.9419 57.62C88.7328 57.716 88.3621 58.0223 88.416 58.0867C88.4699 58.1511 87.89 58.5363 87.89 58.5363L89.0629 62.3485C89.0629 62.3485 88.3068 67.1703 87.9374 67.5884C87.5679 68.0064 84.2874 73.4237 85.4615 74.3886C86.3911 75.1194 87.3748 75.7785 88.4041 76.3604C88.5356 76.4248 88.9984 75.5572 89.6414 75.2838C90.2844 75.0104 92.279 71.3927 92.4026 69.3354C92.5262 67.2781 93.0942 62.6969 93.0942 62.6969C93.0942 62.6969 93.7858 60.1887 94.0264 59.513C94.267 58.8373 94.2355 57.3571 94.2355 57.3571L94.6154 56.7248Z" fill="#4C7660"/>
<path opacity="0.1" d="M101.117 77.5384L100.844 78.1168C100.844 78.1168 100.805 78.289 100.757 78.5624C100.708 78.5563 100.662 78.5357 100.625 78.5033C100.223 78.1812 97.8642 75.7545 97.7471 73.6C97.6643 72.0107 97.7038 70.6409 97.7301 70.031C97.7379 69.839 97.7458 69.7233 97.7458 69.6984C97.7458 69.6984 99.5787 67.4794 99.3697 66.6933C99.1606 65.9072 98.6781 61.698 98.6781 61.698L98.6071 61.1459L98.4848 60.2125L98.1929 57.9541L98.4953 58.0251C98.5467 58.0956 98.6083 58.1581 98.6781 58.2104L98.991 60.1967L100.077 61.393L100.255 68.6756L99.7549 69.9771C99.7549 69.9771 99.3486 69.9955 98.7149 70.0152H98.6531L101.117 77.5384Z" fill="black"/>
<path d="M102.129 65.5166C102.129 65.5166 101.68 65.3391 101.648 65.5166C101.617 65.694 101.535 66.0779 101.535 66.0779C101.535 66.0779 101.615 67.0112 101.272 67.3806C100.929 67.75 100.878 69.3091 100.878 69.3091C100.878 69.3091 100.336 70.8524 100.592 71.3348C100.686 71.5097 100.83 72.3865 100.975 73.4381C101.067 74.0954 101.158 74.8171 101.238 75.477C101.384 76.6759 101.493 77.6684 101.493 77.6684C101.493 77.6684 101.202 78.7292 100.8 78.4072C100.398 78.0851 98.0388 75.6584 97.9231 73.5039C97.8442 71.9908 97.8758 70.6762 97.9021 70.0281C97.9126 69.7534 97.9231 69.5983 97.9231 69.5983C97.9231 69.5983 99.756 67.3793 99.5469 66.5919C99.3379 65.8044 98.8553 61.5965 98.8553 61.5965L98.7712 60.9458L98.6805 60.2465L98.6594 60.0927L98.3688 57.8579C98.4201 57.8697 100.224 58.2773 100.462 58.5152C100.7 58.7531 102.171 59.0936 102.171 59.0936C102.393 59.1538 102.595 59.2724 102.755 59.437C102.916 59.6016 103.029 59.8062 103.084 60.0296C103.098 60.0743 103.109 60.1216 103.119 60.1702C103.313 61.1036 103.251 61.2153 103.382 61.377C103.514 61.5387 102.129 65.5166 102.129 65.5166Z" fill="#4C7660"/>
<path opacity="0.1" d="M101.248 75.4754C100.59 75.344 99.6147 75.0403 99.6371 74.3699C99.6568 73.7428 100.412 73.5167 100.984 73.4365C101.076 74.0912 101.166 74.8155 101.248 75.4754Z" fill="black"/>
<path d="M103.289 75.142C103.262 75.1986 103.157 75.2472 103.007 75.2906C102.656 75.3743 102.298 75.4327 101.938 75.4654C101.938 75.4654 99.7031 75.288 99.7347 74.2744C99.7584 73.5475 100.768 73.3542 101.335 73.3109C101.46 73.2992 101.586 73.2939 101.712 73.2951C101.712 73.2951 103.385 74.9343 103.289 75.142Z" fill="#ECC2B6"/>
<path opacity="0.1" d="M103.288 75.142C103.261 75.1986 103.156 75.2472 103.006 75.2906C102.424 74.5111 101.611 73.5107 101.213 73.4226L101.334 73.3109C101.459 73.2992 101.585 73.2939 101.711 73.2951C101.711 73.2951 103.384 74.9343 103.288 75.142Z" fill="black"/>
<path d="M102.725 61.269L103.383 61.3663C103.62 61.7843 103.884 62.187 104.172 62.5718C104.348 62.7913 104.45 63.0619 104.461 63.3434C104.461 63.3434 105.426 64.7737 105.731 64.934C106.036 65.0944 106.503 66.1881 106.503 66.1881C106.503 66.1881 107.259 66.6864 107.259 67.249C107.272 67.7182 107.321 68.1857 107.404 68.6477C107.421 68.7279 107.292 69.7256 106.97 70.2252C106.647 70.7247 106.325 71.8263 106.342 72.0235C106.36 72.2207 105.442 73.246 105.185 73.5668C104.971 73.8667 104.783 74.1842 104.623 74.5159L103.771 76.1236C103.771 76.1236 101.969 73.4708 101.311 73.3262C101.311 73.3262 102.049 72.619 102.419 72.4901C102.788 72.3613 103.143 71.307 103.159 71.0599C103.175 70.8128 103.497 70.0148 103.834 69.8768C104.17 69.7388 104.349 69.5876 104.205 69.3615C104.06 69.1354 104.205 68.7042 104.205 68.7042C104.205 68.7042 103.255 67.4501 103.126 66.7324C102.997 66.0146 102.13 65.5269 102.13 65.5269L101.631 64.3044L102.725 61.269Z" fill="#4C7660"/>
<path opacity="0.1" d="M105.116 67.27C105.48 66.9629 105.938 66.7894 106.414 66.7783C106.109 66.8309 105.788 66.8979 105.565 67.1109C105.477 67.2031 105.398 67.3035 105.329 67.4106C105.253 67.5197 104.633 68.3085 104.541 68.1836C104.387 68.0009 104.991 67.3765 105.116 67.27Z" fill="black"/>
<path opacity="0.1" d="M103.66 66.5088C103.759 66.5003 103.853 66.4658 103.934 66.4087C104.014 66.3516 104.078 66.2741 104.119 66.1841C104.197 66.003 104.246 65.8103 104.262 65.6136C104.309 65.2844 104.376 64.9583 104.461 64.6369C104.486 64.5733 104.497 64.5048 104.492 64.4365C104.488 64.3682 104.467 64.3019 104.433 64.2425C104.398 64.1398 104.35 64.0418 104.291 63.9507C104.173 64.0821 104.139 64.3884 104.09 64.5646C104.03 64.7828 103.974 65.0023 103.922 65.2219C103.894 65.327 103.676 66.5088 103.66 66.5088Z" fill="black"/>
<path opacity="0.1" d="M103.09 60.0188C103.026 60.1035 102.951 60.1803 102.868 60.2475C102.605 60.4565 102.257 60.6327 102.224 60.9626C102.233 61.0698 102.22 61.1777 102.184 61.2794C102.1 61.424 101.894 61.4109 101.729 61.3833C101.591 61.3708 101.458 61.3218 101.344 61.2413C101.172 61.0941 101.156 60.8312 101.025 60.6458C100.945 60.5501 100.844 60.4742 100.73 60.4238C100.616 60.3734 100.492 60.35 100.367 60.3553C100.121 60.3474 99.8768 60.4026 99.631 60.4131C99.4729 60.4211 99.3145 60.4105 99.1589 60.3816C99.1076 60.3737 99.0567 60.3632 99.0064 60.35C98.8965 60.323 98.7892 60.2865 98.6856 60.2409C98.632 60.2196 98.5797 60.195 98.5291 60.1673C98.3645 60.0828 98.212 59.9767 98.0755 59.8518C97.8349 59.631 97.635 59.326 97.6547 58.9987C97.6666 58.7975 97.7573 58.6122 97.7862 58.4137C97.8848 57.8458 97.5075 57.3094 97.0986 56.9032C96.9355 56.7416 96.762 56.5851 96.5989 56.4208C96.3451 56.1867 96.1446 55.9006 96.0112 55.5821C95.9015 55.2431 95.8656 54.8845 95.906 54.5305C95.9429 54.1715 95.9531 53.8103 95.9362 53.4499C95.8153 52.1721 94.724 51.1928 93.6326 50.6604L93.584 50.6354C93.9077 50.2639 94.3062 49.9649 94.7534 49.7579C95.2006 49.5508 95.6865 49.4404 96.1793 49.4339C96.672 49.4274 97.1607 49.5248 97.6132 49.7199C98.0657 49.915 98.472 50.2033 98.8056 50.566C99.1391 50.9288 99.3923 51.3578 99.5487 51.825C99.7051 52.2923 99.7612 52.7872 99.7133 53.2776C99.6654 53.768 99.5145 54.2427 99.2706 54.6709C99.0267 55.099 98.6952 55.4709 98.2977 55.7622C98.2859 55.803 98.2754 55.8437 98.2662 55.8831C98.0137 56.8927 98.1807 57.5053 98.3687 57.8432C98.42 57.855 100.224 58.2625 100.462 58.5004C100.7 58.7384 102.171 59.0788 102.171 59.0788C102.395 59.1384 102.598 59.2571 102.76 59.4225C102.922 59.5879 103.036 59.7939 103.09 60.0188Z" fill="black"/>
<path d="M93.3529 49.7092C93.4253 49.6264 93.5344 49.5843 93.608 49.5041C93.8355 49.257 93.608 48.8534 93.6908 48.5274C93.7803 48.1659 94.2247 48.0082 94.5955 48.0463C94.9662 48.0844 95.3134 48.2553 95.6842 48.2974C96.2601 48.3618 96.8175 48.112 97.379 47.9661C97.9404 47.8202 98.6189 47.8123 99.0055 48.2422C99.392 48.672 99.3657 49.4042 99.8469 49.7158C100.069 49.8591 100.349 49.8748 100.59 49.9787C100.853 50.1138 101.072 50.3225 101.218 50.5795C101.599 51.1776 101.767 51.8867 101.694 52.592C101.654 52.9733 101.543 53.344 101.498 53.7252C101.453 54.1211 101.48 54.5219 101.577 54.9083C101.679 55.3027 101.898 55.7286 102.291 55.8548C102.382 55.8748 102.47 55.9052 102.554 55.9455C102.782 56.0875 102.751 56.4214 102.694 56.6817L102.46 57.7609C102.684 57.9318 103.034 57.8582 103.248 58.0383C103.334 58.1167 103.398 58.2165 103.433 58.3275C103.538 58.6293 103.55 58.9561 103.465 59.2646C103.381 59.5731 103.205 59.8487 102.96 60.0548C102.698 60.2638 102.349 60.44 102.316 60.7686C102.326 60.8759 102.313 60.984 102.277 61.0854C102.194 61.2301 101.986 61.2169 101.822 61.1893C101.684 61.1766 101.551 61.1276 101.438 61.0473C101.264 60.9001 101.25 60.6372 101.118 60.4518C101.038 60.3563 100.937 60.2804 100.824 60.2301C100.71 60.1797 100.585 60.1562 100.461 60.1613C100.214 60.1534 99.9705 60.2086 99.7234 60.2205C99.1532 60.2438 98.5967 60.0428 98.1732 59.6605C97.9312 59.4383 97.7327 59.1346 97.7511 58.806C97.7629 58.6062 97.8536 58.4195 97.8826 58.221C97.9799 57.6544 97.6038 57.1168 97.1949 56.7106C96.786 56.3044 96.3061 55.9297 96.1062 55.3894C95.8564 54.7203 96.0983 53.9737 96.0313 53.2638C95.9103 51.9847 94.8203 51.0067 93.7277 50.473C93.4844 50.3481 93.0702 50.0313 93.3529 49.7092Z" fill="#444053"/>
<path opacity="0.1" d="M101.951 60.7487C101.777 60.6002 101.763 60.3386 101.631 60.1532C101.551 60.0576 101.45 59.9816 101.336 59.931C101.222 59.8804 101.098 59.8566 100.974 59.8614C100.727 59.8535 100.482 59.9087 100.236 59.9205C99.6639 59.9456 99.1049 59.7439 98.6806 59.3592C98.4387 59.1384 98.2415 58.8334 98.2599 58.5061C98.2717 58.3049 98.3624 58.1183 98.3914 57.9211C98.49 57.3532 98.1126 56.8155 97.7037 56.4093C97.2948 56.0031 96.8162 55.6285 96.615 55.0882C96.3665 54.4204 96.615 53.6737 96.5414 52.9625C96.4191 51.6835 95.3291 50.7054 94.2378 50.1717C93.9827 50.0468 93.5685 49.73 93.8512 49.4079C93.9222 49.3251 94.0313 49.2831 94.105 49.2029C94.3324 48.957 94.105 48.5522 94.1891 48.2275C94.2053 48.1628 94.2334 48.1017 94.272 48.0474C93.9972 48.0986 93.746 48.2538 93.679 48.5167C93.5988 48.8427 93.8236 49.2462 93.5961 49.4934C93.5225 49.5736 93.4134 49.6156 93.3411 49.6971C93.0584 50.0192 93.4725 50.3373 93.7276 50.4609C94.8203 50.9946 95.9102 51.974 96.0312 53.2517C96.0983 53.9629 95.8563 54.7096 96.1062 55.3787C96.306 55.9177 96.7859 56.2989 97.1949 56.6998C97.6038 57.1008 97.9838 57.6424 97.8825 58.2103C97.8271 58.4025 97.7832 58.5978 97.751 58.7953C97.7326 59.1226 97.9312 59.4276 98.1731 59.6484C98.5967 60.0333 99.1554 60.2351 99.7272 60.2097C99.9744 60.1979 100.218 60.144 100.465 60.1506C100.589 60.1459 100.713 60.1698 100.827 60.2203C100.941 60.2709 101.042 60.3469 101.122 60.4424C101.254 60.6278 101.268 60.8907 101.442 61.0379C101.555 61.1177 101.688 61.1662 101.826 61.1786C101.99 61.2088 102.198 61.2193 102.281 61.076C102.31 61.0175 102.323 60.952 102.317 60.8867C102.185 60.8738 102.059 60.8262 101.951 60.7487Z" fill="black"/>
<path d="M82.8112 52.9362H73.7164V43.9761H82.8178L82.8112 52.9362ZM82.6797 39.4264H73.8479C73.8479 25.5025 87.0858 26.3163 87.0858 17.5074C87.0858 12.6553 83.1136 8.76816 78.2605 8.76816C73.4074 8.76816 69.4366 12.959 69.4366 17.6454H60.6114C60.6074 15.3271 61.0612 13.0307 61.9467 10.8881C62.8322 8.74547 64.1321 6.79867 65.7718 5.15936C67.4115 3.52004 69.3587 2.22044 71.5018 1.33509C73.6449 0.449736 75.9417 -0.00395668 78.2605 2.59949e-05C88.0088 2.59949e-05 95.9097 7.77566 95.9097 17.5074C95.9097 28.5221 82.6731 29.7762 82.6731 39.4264H82.6797Z" fill="#33B25F"/>
<path opacity="0.3" d="M37.4513 50.2674H35.1056V47.9511H37.4513V50.2674ZM37.4158 46.7838H35.1411C35.1411 43.1951 38.5532 43.4041 38.5532 41.1312C38.552 40.8338 38.4922 40.5396 38.3772 40.2653C38.2622 39.991 38.0943 39.7421 37.883 39.5328C37.6718 39.3234 37.4214 39.1577 37.146 39.0451C36.8707 38.9326 36.5759 38.8753 36.2785 38.8767C35.6778 38.8906 35.1058 39.1366 34.6827 39.5631C34.2595 39.9896 34.0181 40.5634 34.0091 41.1641H31.7344C31.7495 39.9705 32.2331 38.8307 33.081 37.9904C33.9288 37.1501 35.0731 36.6766 36.2669 36.6719C37.4608 36.6673 38.6087 37.1318 39.4631 37.9655C40.3175 38.7992 40.81 39.9352 40.8344 41.1286C40.8278 43.968 37.4158 44.2914 37.4158 46.7785V46.7838Z" fill="#3ACC6C"/>
<path opacity="0.3" d="M55.2118 66.3593H52.8662V64.0496H55.2118V66.3593ZM55.1776 62.877H52.903C52.903 59.287 56.315 59.4973 56.315 57.2244C56.3138 56.9271 56.254 56.6329 56.139 56.3587C56.024 56.0845 55.856 55.8357 55.6448 55.6264C55.4335 55.4172 55.1831 55.2516 54.9078 55.1392C54.6325 55.0268 54.3377 54.9697 54.0403 54.9713C53.4371 54.9821 52.8618 55.2272 52.436 55.6545C52.0103 56.0819 51.7675 56.6581 51.7591 57.2612H49.4844C49.4995 56.0677 49.9831 54.9279 50.831 54.0876C51.6788 53.2473 52.8231 52.7737 54.0169 52.7691C55.2108 52.7644 56.3587 53.229 57.2131 54.0627C58.0675 54.8964 58.56 56.0324 58.5844 57.2257C58.5884 60.0652 55.1776 60.3899 55.1776 62.877Z" fill="#3ACC6C"/>
<path opacity="0.3" d="M66.0123 37.8727H64.3122V36.2019H66.0123V37.8727ZM65.9873 35.3474H64.3385C64.3385 32.7472 66.8117 32.8984 66.8117 31.2526C66.8107 31.0371 66.7672 30.824 66.6838 30.6253C66.6004 30.4267 66.4786 30.2464 66.3255 30.0948C66.1724 29.9432 65.9909 29.8232 65.7915 29.7417C65.592 29.6602 65.3784 29.6188 65.1629 29.6199C64.7266 29.6287 64.3107 29.8066 64.0031 30.1161C63.6955 30.4257 63.5201 30.8426 63.5141 31.2788H61.8653C61.8618 30.4044 62.2059 29.5645 62.8218 28.9437C63.4378 28.323 64.2752 27.9723 65.1498 27.9688C66.0243 27.9653 66.8645 28.3093 67.4854 28.9251C68.1063 29.541 68.4571 30.3782 68.4605 31.2526C68.4579 33.3099 65.9873 33.5452 65.9873 35.3474Z" fill="#3ACC6C"/>
<path opacity="0.3" d="M95.0488 40.231H94.0877V39.2845H95.0488V40.231ZM95.0344 38.8047H94.0969C94.0969 37.3351 95.4946 37.4205 95.4946 36.4898C95.4946 36.3681 95.4704 36.2475 95.4235 36.1352C95.3766 36.0229 95.3079 35.921 95.2213 35.8354C95.1347 35.7498 95.032 35.6822 94.9191 35.6366C94.8062 35.591 94.6854 35.5682 94.5637 35.5696C94.3171 35.5747 94.0822 35.6752 93.9083 35.8501C93.7344 36.0249 93.6351 36.2604 93.6314 36.5069H92.6992C92.7101 36.0211 92.9103 35.5588 93.2571 35.2184C93.6039 34.878 94.07 34.6865 94.556 34.6846C95.042 34.6827 95.5095 34.8706 95.8589 35.2083C96.2084 35.546 96.4122 36.0067 96.4268 36.4924C96.4321 37.6479 95.0344 37.7859 95.0344 38.8047Z" fill="#3ACC6C"/>
<path opacity="0.1" d="M109.743 83.2789H108.782V82.3324H109.743V83.2789ZM109.728 81.8526H108.796C108.796 80.3816 110.195 80.4683 110.195 79.5376C110.193 79.2921 110.094 79.0572 109.919 78.8847C109.745 78.7122 109.509 78.616 109.263 78.6174C109.016 78.6222 108.781 78.7226 108.607 78.8975C108.433 79.0724 108.334 79.3081 108.331 79.5547H107.398C107.409 79.069 107.609 78.6066 107.956 78.2662C108.303 77.9259 108.769 77.7343 109.255 77.7324C109.741 77.7306 110.209 77.9185 110.558 78.2561C110.908 78.5938 111.111 79.0546 111.126 79.5403C111.131 80.701 109.734 80.8338 109.734 81.8526H109.728Z" fill="#3ACC6C"/>
<defs>
<linearGradient id="paint0_linear" x1="92.1553" y1="109.378" x2="92.1553" y2="47.7578" gradientUnits="userSpaceOnUse">
<stop stop-color="#808080" stop-opacity="0.25"/>
<stop offset="0.54" stop-color="#808080" stop-opacity="0.12"/>
<stop offset="1" stop-color="#808080" stop-opacity="0.1"/>
</linearGradient>
</defs>
</svg>
