<svg width="168" height="141" viewBox="0 0 168 141" fill="none" xmlns="http://www.w3.org/2000/svg">
<path opacity="0.1" d="M103.466 17.0423C96.257 23.0508 86.9068 22.663 78.7131 19.5362C70.5193 16.4095 62.9927 10.8427 55.0094 6.88652C48.3555 3.58244 41.345 1.40684 34.183 0.423405C24.0083 -0.962739 12.6459 0.725871 5.5572 10.4437C-2.33726 21.2601 -1.73095 40.7738 6.80411 50.7106C11.148 55.7616 16.8354 58.2407 21.795 62.1839C26.7546 66.1271 31.3494 72.6718 30.927 80.2798C30.5358 87.3312 25.9893 92.7347 21.2838 96.1286C17.6475 98.7506 13.1696 101.614 12.7316 107.045C12.3076 112.3 16.0733 116.418 19.669 118.76C31.3993 126.401 45.854 126.327 57.5437 118.574C61.7115 115.8 65.5395 112.118 69.9115 109.97C81.3908 104.306 94.0406 110.009 106.196 112.093C116.525 113.854 127.052 112.942 137.057 109.419C143.077 107.301 149.12 104.065 153.348 98.0362C156.398 93.6885 158.298 88.1885 160.081 82.7534C161.983 76.9601 163.811 71.1255 165.566 65.2493C166.618 61.7237 167.655 58.1275 167.927 54.3532C168.42 47.5152 166.344 40.7552 163.517 34.9842C156.804 21.2712 145.497 11.6369 133.253 9.18933C121.008 6.74178 108.054 11.5218 98.5575 21.982" fill="#659145"/>
<path opacity="0.1" d="M84.2677 19.1876L83.6738 60.1967C83.6738 60.1967 105.17 60.1967 123.461 67.2666L123.816 25.8381C123.816 25.8381 94.4814 17.4897 84.2677 19.1876Z" fill="black"/>
<path d="M83.7989 18.4452L83.2051 59.4543C83.2051 59.4543 104.702 59.4543 122.992 66.5242L123.348 25.0957C123.348 25.0957 94.0126 16.7473 83.7989 18.4452Z" fill="#FEFFFD"/>
<path opacity="0.1" d="M73.4745 20.362L74.0683 61.371C74.0683 61.371 52.5717 61.371 34.2827 68.4409L33.9258 27.0125C33.9258 27.0125 63.2607 18.6734 73.4745 20.362Z" fill="black"/>
<path d="M73.9412 19.4344L74.5351 60.4435C74.5351 60.4435 53.0385 60.4435 34.7495 67.5134L34.3926 26.0849C34.3926 26.0849 63.7275 17.7457 73.9412 19.4344Z" fill="#FEFFFD"/>
<path opacity="0.5" d="M64.286 24.218L64.6055 46.2089C64.6055 46.2089 53.0717 46.2089 43.2679 49.9999L43.0762 27.7826C43.0762 27.7826 58.809 23.3124 64.286 24.218Z" fill="#CDF3D9"/>
<path opacity="0.1" d="M136.484 34.2717V74.8521C136.484 74.8521 143.498 73.8612 158.219 95.4958L159.526 54.9154C159.526 54.9154 144.204 35.2607 136.484 34.2717Z" fill="black"/>
<path d="M136.174 33.715V74.2954C136.174 74.2954 143.188 73.3045 157.909 94.9392L159.215 54.3587C159.215 54.3587 143.894 34.704 136.174 33.715Z" fill="#FEFFFD"/>
<path opacity="0.1" d="M23.1178 34.4573V75.0377C23.1178 75.0377 16.1102 74.0468 1.39205 95.6814L0.078125 55.101C0.078125 55.101 15.3979 35.4463 23.1178 34.4573Z" fill="black"/>
<path d="M23.5846 33.715V74.2954C23.5846 74.2954 16.577 73.3045 1.85885 94.9392L0.544922 54.3587C0.544922 54.3587 15.8647 34.704 23.5846 33.715Z" fill="#FEFFFD"/>
<path opacity="0.5" d="M89.543 26.9756L104.105 30.0764V32.6019L89.543 29.2729V26.9756Z" fill="#9CE6B5"/>
<path opacity="0.5" d="M61.4865 51.3771L46.9258 54.4778V57.0033L61.4865 53.6743V51.3771Z" fill="#9CE6B5"/>
<path opacity="0.5" d="M89.7363 31.6832L116.352 38.2279V40.7534L89.7363 33.9804V31.6832Z" fill="#9CE6B5"/>
<path opacity="0.5" d="M89.7363 36.3907L116.352 42.9336V45.4609L89.7363 38.6861V36.3907Z" fill="#9CE6B5"/>
<path opacity="0.5" d="M142.381 46.8195V49.0481L148.09 54.5704L148.358 52.6591L142.381 46.8195Z" fill="#9CE6B5"/>
<path d="M142.381 68.3446V70.5732L148.09 76.0956L148.358 74.1843L142.381 68.3446Z" fill="white"/>
<path opacity="0.5" d="M142.471 50.6417L142.381 52.8721L153.174 64.9763L152.997 62.4286L142.471 50.6417Z" fill="#9CE6B5"/>
<path opacity="0.5" d="M142.381 54.7837V56.9065L153.174 69.226V66.4648L142.381 54.7837Z" fill="#9CE6B5"/>
<path opacity="0.5" d="M17.2891 47.3021L17.3779 49.5325L6.58594 61.6367L6.76362 59.089L17.2891 47.3021Z" fill="#9CE6B5"/>
<path opacity="0.5" d="M17.3779 51.4434V53.5662L6.58594 65.8856V63.1245L17.3779 51.4434Z" fill="#9CE6B5"/>
<path opacity="0.1" d="M31.89 117.301C36.7966 117.301 40.7742 116.449 40.7742 115.398C40.7742 114.346 36.7966 113.494 31.89 113.494C26.9834 113.494 23.0059 114.346 23.0059 115.398C23.0059 116.449 26.9834 117.301 31.89 117.301Z" fill="#3ACC6C"/>
<path d="M10.8197 104.93C10.8197 104.93 11.6754 106.262 10.4238 108.27C9.17222 110.278 8.1404 111.981 8.55344 113.236C8.55344 113.236 10.4409 109.499 11.9824 109.447C13.5239 109.395 12.5108 107.187 10.8197 104.93Z" fill="#3ACC6C"/>
<path opacity="0.1" d="M10.8204 104.93C10.8954 105.058 10.9542 105.199 10.995 105.348C12.4944 107.444 13.294 109.402 11.8523 109.452C10.5103 109.497 8.89086 112.356 8.51367 113.078C8.52614 113.132 8.54173 113.188 8.55887 113.241C8.55887 113.241 10.4464 109.504 11.9879 109.452C13.5293 109.4 12.5116 107.187 10.8204 104.93Z" fill="#3ACC6C"/>
<path d="M12.4108 106.63C12.4108 107.099 12.3672 107.48 12.3126 107.48C12.2581 107.48 12.2129 107.099 12.2129 106.63C12.2129 106.16 12.269 106.381 12.3236 106.381C12.3781 106.381 12.4108 106.158 12.4108 106.63Z" fill="#FFD037"/>
<path d="M12.958 107.186C12.612 107.411 12.3096 107.546 12.2831 107.491C12.2566 107.435 12.5169 107.205 12.8629 106.98C13.2089 106.756 13.0718 106.919 13.0983 106.98C13.1248 107.042 13.304 106.964 12.958 107.186Z" fill="#FFD037"/>
<path d="M6.29687 104.93C6.29687 104.93 5.4443 106.259 6.6912 108.276C7.93811 110.293 8.9746 111.987 8.56156 113.241C8.56156 113.241 6.67406 109.504 5.13257 109.452C3.59108 109.4 4.60731 107.187 6.29687 104.93Z" fill="#3ACC6C"/>
<path opacity="0.1" d="M6.29718 104.93C6.22287 105.059 6.16411 105.199 6.12261 105.348C4.6232 107.444 3.82363 109.402 5.26536 109.452C6.6089 109.497 8.22676 112.356 8.60395 113.078C8.59171 113.134 8.57662 113.188 8.55875 113.241C8.55875 113.241 6.67125 109.504 5.12976 109.452C3.58827 109.4 4.60762 107.187 6.29718 104.93Z" fill="#3ACC6C"/>
<path d="M4.70703 106.63C4.70703 107.099 4.75067 107.48 4.80522 107.48C4.85978 107.48 4.90498 107.099 4.90498 106.63C4.90498 106.16 4.84887 106.381 4.79431 106.381C4.73976 106.381 4.70703 106.158 4.70703 106.63Z" fill="#FFD037"/>
<path d="M4.16014 107.186C4.50616 107.411 4.80697 107.546 4.83347 107.491C4.85997 107.435 4.59968 107.205 4.25366 106.98C3.90765 106.756 4.0448 106.919 4.01831 106.98C3.99181 107.042 3.81413 106.964 4.16014 107.186Z" fill="#FFD037"/>
<path d="M4.97852 113.067C4.97852 113.067 7.37257 112.98 8.09577 112.367C8.81898 111.755 11.7773 111.026 11.9565 112.008C12.1357 112.989 15.5538 116.886 12.8511 116.912C10.1485 116.938 6.57143 116.411 5.85135 115.888C5.13126 115.364 4.97852 113.067 4.97852 113.067Z" fill="#A8A8A8"/>
<path opacity="0.2" d="M12.8979 116.57C10.1952 116.596 6.61819 116.069 5.89811 115.546C5.34947 115.148 5.13126 113.722 5.058 113.063H4.97852C4.97852 113.063 5.13438 115.362 5.84979 115.883C6.5652 116.405 10.1469 116.934 12.8496 116.908C13.6289 116.908 13.9001 116.57 13.8845 116.08C13.777 116.379 13.4793 116.564 12.8979 116.57Z" fill="black"/>
<path opacity="0.1" d="M93.5945 90.3337C101.686 90.3337 108.246 88.9962 108.246 87.3462C108.246 85.6962 101.686 84.3586 93.5945 84.3586C85.5029 84.3586 78.9434 85.6962 78.9434 87.3462C78.9434 88.9962 85.5029 90.3337 93.5945 90.3337Z" fill="#3ACC6C"/>
<path d="M90.6396 47.025C90.5681 47.2065 90.5158 47.3979 90.4837 47.5947C90.4744 47.6442 90.465 47.6961 90.4557 47.7506C90.3622 48.3184 90.2998 49.0328 90.2671 49.4484C90.2515 49.6563 90.2437 49.7899 90.2437 49.7899C90.2437 49.7899 86.8631 49.5208 87.4491 48.8454C87.6002 48.6589 87.7077 48.4286 87.7608 48.1773C87.778 48.105 87.792 48.0326 87.8045 47.9584C87.8324 47.79 87.8506 47.6195 87.859 47.4481C87.859 47.4054 87.859 47.3627 87.859 47.3182C87.8667 47.0399 87.8557 46.7613 87.8263 46.485C87.8263 46.485 88.9251 46.485 89.7543 46.5908C90.3123 46.6669 90.7472 46.7986 90.6396 47.025Z" fill="#D38884"/>
<path d="M84.7788 66.1772C83.627 66.1327 84.4765 63.2769 84.6089 62.8928C84.7414 62.5086 84.4126 61.5678 84.4126 61.5678C84.4126 61.5678 84.0229 58.8475 84.0229 58.6694C84.003 58.2985 83.9592 57.93 83.892 57.5671C83.8514 57.1967 83.9058 56.8203 84.0478 56.4872C84.1803 56.2404 84.1601 55.2513 84.1601 55.2513V53.9709L84.4172 53.5664L85.0734 54.3087L85.2558 54.5128L85.5768 55.9453L85.4631 57.9976L85.4023 59.9961L85.7997 62.761C85.7997 62.761 85.9385 66.2236 84.7788 66.1772Z" fill="#F5D3BA"/>
<path opacity="0.1" d="M85.144 54.6484L84.1621 54.1622V53.973L84.4177 53.5684L85.0755 54.307L85.144 54.6484Z" fill="black"/>
<path d="M84.692 51.7236C84.5658 52.0927 84.4743 52.4773 84.4193 52.8704C84.3685 53.2476 84.2823 53.6167 84.1621 53.9708L85.2531 54.5108L84.692 51.7236Z" fill="#355F68"/>
<path opacity="0.05" d="M84.692 51.7236C84.5658 52.0927 84.4743 52.4773 84.4193 52.8704C84.3685 53.2476 84.2823 53.6167 84.1621 53.9708L85.2531 54.5108L84.692 51.7236Z" fill="#4C7660"/>
<path d="M93.3825 80.1128L93.2921 80.3429C93.2921 80.3429 93.1939 81.1056 93.1939 81.1241C93.1939 81.1427 92.9102 81.6511 92.9102 81.6511L92.1979 81.8367L91.8956 81.7921C91.8795 81.5825 91.8524 81.3743 91.8145 81.1687C91.8036 81.1111 91.7927 81.0517 91.7787 80.9924C91.6722 80.5167 91.5045 80.0635 91.2815 79.6489C91.2815 79.6489 90.7531 78.0976 90.5645 77.8954C90.3759 77.6931 89.6574 75.6464 89.7337 75.1528C89.7743 74.8819 89.7415 73.9726 89.7041 73.2155C89.673 72.5976 89.6387 72.078 89.6387 72.078L91.4327 70.8162L91.6415 71.2078L91.7662 71.4397C91.7662 71.4397 91.7662 71.4842 91.7584 71.5585V71.5863C91.7378 71.9019 91.6855 72.2134 91.6025 72.5141C91.6025 72.5141 91.4685 73.6609 91.6025 73.8631C91.7366 74.0654 92.1636 76.769 92.2587 78.0197C92.2587 78.0587 92.2587 78.0976 92.2587 78.1329C92.2961 78.7081 92.5954 79.2203 92.8962 79.5951C92.9149 79.6211 92.9352 79.6452 92.9554 79.6693C93.089 79.8287 93.2317 79.9768 93.3825 80.1128Z" fill="#F5D3BA"/>
<path opacity="0.1" d="M91.895 81.7882L92.1974 81.8328L92.9097 81.6472C92.9097 81.6472 93.1934 81.1369 93.1934 81.1202C93.1934 81.1035 93.2916 80.339 93.2916 80.339L93.382 80.1089L93.3929 80.081C93.2187 79.9374 93.055 79.7766 92.9035 79.6004C92.8863 79.5819 92.8692 79.5633 92.8536 79.5429C92.838 79.5225 92.9549 80.2851 92.4125 80.6173C92.1491 80.7788 91.9324 80.9031 91.7812 80.9884L91.895 81.7882Z" fill="black"/>
<path d="M93.5071 80.2205L93.4058 80.4785C93.4058 80.4785 93.3076 81.2411 93.3076 81.2597C93.3076 81.2782 93.024 81.7867 93.024 81.7867L92.3117 81.9722L91.9017 81.9147C91.9017 81.8164 91.8877 81.6772 91.8674 81.5083C91.855 81.4063 91.8378 81.2931 91.8145 81.1706C91.9703 81.0871 92.2119 80.9498 92.5221 80.7587C93.066 80.4265 92.9632 79.6843 92.9632 79.6843C93.0808 79.8239 93.2052 79.9552 93.3357 80.0777C93.4105 80.1407 93.4713 80.1908 93.5071 80.2205Z" fill="#CEDDF9"/>
<path opacity="0.1" d="M93.5069 80.2203L93.4056 80.4783C93.4056 80.4783 93.3074 81.2409 93.3074 81.2595C93.3074 81.278 93.0237 81.7865 93.0237 81.7865L92.3114 81.972L91.9015 81.9145C91.9015 81.8162 91.8874 81.677 91.8672 81.5081C91.9543 81.5129 92.041 81.5272 92.1259 81.5508C92.1259 81.5508 93.0985 81.7976 93.1453 80.8809C93.1733 80.3614 93.2637 80.1572 93.3354 80.0775C93.4102 80.1405 93.471 80.1906 93.5069 80.2203Z" fill="black"/>
<path d="M93.4354 80.159C93.4354 80.159 93.1938 80.0959 93.1455 81.0107C93.0972 81.9255 92.1262 81.6806 92.1262 81.6806C92.1262 81.6806 91.6492 81.5396 91.6445 81.7752C91.6605 81.9932 91.7035 82.207 91.7723 82.4099C91.7723 82.4099 91.8004 82.9554 91.8908 83.0853C91.9812 83.2152 91.9235 83.6977 91.9235 83.6977C91.9235 83.6977 91.9609 84.0577 92.7122 83.6977C92.7122 83.6977 93.3824 83.5325 93.9388 82.5398C93.9575 82.5064 93.8734 82.4043 94.3597 82.1965C94.846 81.9886 96.23 80.6563 96.1303 80.005C96.1195 79.8971 96.0825 79.7954 96.0238 79.7123C95.965 79.6293 95.8872 79.5684 95.7998 79.5373C95.727 79.5142 95.6511 79.5086 95.5765 79.5207C95.5018 79.5328 95.4299 79.5624 95.365 79.6079C95.2336 79.6925 95.0977 79.7669 94.9582 79.8305C94.7729 79.9198 94.5775 79.9755 94.3784 79.9957C94.2257 80.0112 94.0747 80.0454 93.9279 80.0977C93.7714 80.1705 93.6012 80.1916 93.4354 80.159Z" fill="#CC8294"/>
<path d="M87.9312 73.8615C87.8239 73.9672 87.7314 74.0925 87.6569 74.2326C87.3826 74.7318 87.2174 75.4295 87.0335 75.7301C86.7934 76.1198 86.7217 76.8769 86.7217 76.8769C86.6578 77.3742 85.7725 80.0314 85.5325 80.5027C85.2925 80.9741 84.9589 82.2563 84.9589 82.2563C84.7547 82.5606 84.7672 83.0134 84.7875 83.2286C84.7875 83.2657 84.7875 83.2954 84.7968 83.3158C84.8062 83.3363 84.7968 83.3511 84.7968 83.3511V83.3641L84.4695 84.0266L83.4284 83.854L82.8906 83.4198C82.9347 83.3346 82.9737 83.2459 83.0075 83.1544C83.2959 82.3899 83.5 81.0242 83.5 81.0242C83.5 81.0242 83.79 79.4654 83.7681 79.1017C83.7754 78.6055 83.8041 78.11 83.8539 77.6173C83.8539 77.6173 84.6737 74.639 84.9355 74.1565C85.0447 73.9659 85.1122 73.7459 85.1319 73.5163C85.137 73.4701 85.137 73.4234 85.1319 73.3772L85.4842 72.9597C85.4842 72.9597 88.3832 73.4328 87.9312 73.8615Z" fill="#F5D3BA"/>
<path opacity="0.1" d="M84.8066 83.2209C84.8066 83.2209 84.8066 83.258 84.8066 83.3192V83.3675L84.4793 84.0299L83.4381 83.8573L82.9004 83.4231C82.9444 83.338 82.9835 83.2493 83.0173 83.1578C83.2791 83.0687 83.8776 83.3211 83.8776 83.3211C83.8776 83.3211 84.5245 83.4677 84.7972 83.232C84.7972 83.2301 84.8004 83.2246 84.8066 83.2209Z" fill="black"/>
<path d="M84.5536 84.9889L83.4968 85.2896L82.5273 84.436L82.5772 83.9554C82.6449 83.906 82.705 83.8433 82.7549 83.7698C82.8257 83.6709 82.8739 83.5521 82.8952 83.4247C82.9513 83.0703 83.8724 83.4581 83.8724 83.4581C83.8724 83.4581 84.5458 83.6103 84.8076 83.356C84.7892 83.5891 84.8061 83.8241 84.8575 84.05C84.8825 84.1601 84.9373 84.2573 85.0134 84.3265C85.283 84.5473 84.5536 84.9889 84.5536 84.9889Z" fill="#CEDDF9"/>
<path opacity="0.1" d="M84.5536 84.9892L83.4968 85.2898L82.5273 84.4362L82.5772 83.9556C82.6449 83.9062 82.705 83.8435 82.7549 83.77C82.825 83.77 82.9014 83.77 82.9669 83.77C83.1227 83.7886 83.5124 84.6143 83.5124 84.6143C84.4694 84.6904 84.7593 84.3174 84.8575 84.0428C84.8825 84.1529 84.9373 84.2501 85.0134 84.3193C85.283 84.5475 84.5536 84.9892 84.5536 84.9892Z" fill="black"/>
<path d="M83.512 84.7539C83.512 84.7539 83.1286 83.9281 82.9665 83.9114C82.8295 83.9023 82.6921 83.9023 82.555 83.9114C82.555 83.9114 82.1311 85.1083 81.9752 85.2103C81.8194 85.3124 81.5918 85.8858 81.5918 85.8858C81.5918 85.8858 82.714 87.1846 83.7988 86.9304C84.1449 86.9364 84.4852 87.0373 84.7932 87.2255C85.2951 87.5372 87.3915 87.3015 87.6471 86.7542C87.8372 86.3422 87.9136 86.0435 87.7453 85.8264C87.6949 85.7643 87.6329 85.7175 87.5643 85.6897C87.4957 85.662 87.4226 85.6541 87.3509 85.6668C87.0875 85.7095 86.4952 85.702 85.9762 84.9431C85.9762 84.9431 85.0192 83.9003 84.9413 83.8984C84.8634 83.8966 85.0052 84.8726 83.512 84.7539Z" fill="#CC8294"/>
<path opacity="0.1" d="M91.7678 71.5752L91.76 71.5863C91.6945 71.6716 91.2331 72.2747 91.0929 72.3174C90.8609 72.4216 90.6341 72.5412 90.4133 72.6755C90.4133 72.6755 90.1296 73.1264 89.9036 73.1487C89.8353 73.1604 89.7684 73.1816 89.7041 73.2118C89.673 72.5939 89.6387 72.0743 89.6387 72.0743L91.4327 70.8162L91.6415 71.2078C91.6883 71.3655 91.7413 71.5121 91.7584 71.5585L91.7678 71.5752Z" fill="black"/>
<path d="M85.2459 62.8925C85.2459 62.8925 84.5476 63.9762 85.2459 65.4143C85.6215 66.2228 86.1065 66.9519 86.6814 67.5724L89.0598 73.4399C89.0598 73.4399 89.6833 73.0354 89.9109 73.0131C90.1384 72.9908 90.4205 72.5418 90.4205 72.5418C90.6412 72.4067 90.8681 72.2865 91.1001 72.1818C91.256 72.1372 91.775 71.4395 91.775 71.4395C91.775 71.4395 91.5147 70.7659 91.5724 70.5859C91.63 70.4059 91.4025 69.955 91.4025 69.955C91.3317 69.7296 91.2795 69.4966 91.2466 69.2592C91.2466 69.0736 91.0003 68.6524 91.0003 68.6524C91.0003 68.6524 90.7556 68.2015 90.7556 67.9547C90.7556 67.7079 90.3894 66.7337 90.3894 66.7337L90.2943 62.4658L85.2459 62.8925Z" fill="#CFAE38"/>
<path opacity="0.05" d="M91.7687 71.4395C91.7687 71.4395 91.245 72.1354 91.0938 72.1818C90.8618 72.2865 90.6349 72.4067 90.4142 72.5418C90.4142 72.5418 90.1306 72.9908 89.9046 73.0131C89.7418 73.0534 89.5844 73.1202 89.437 73.2116C89.2343 73.3211 89.052 73.4399 89.052 73.4399L86.672 67.5724C86.4636 67.3562 86.2703 67.1204 86.0937 66.8673C85.7714 66.4151 85.4844 65.9287 85.2365 65.4143C84.9637 64.8928 84.8668 64.2676 84.9653 63.6645C85.0095 63.388 85.1019 63.1257 85.2365 62.8944L86.9291 62.7515L90.3004 62.4658L90.3285 63.7294L90.3908 66.7337C90.3908 66.7337 90.4454 66.884 90.514 67.0825C90.6211 67.3586 90.7001 67.6489 90.7493 67.9473C90.7493 68.1959 90.994 68.645 90.994 68.645C90.994 68.645 91.2403 69.0718 91.2403 69.2518C91.2734 69.4897 91.3255 69.7234 91.3962 69.9495C91.3962 69.9495 91.6237 70.3985 91.5676 70.5767C91.5115 70.7548 91.7687 71.4395 91.7687 71.4395Z" fill="black"/>
<path opacity="0.1" d="M87.9305 73.8611C87.8232 73.9669 87.7307 74.0921 87.6562 74.2323C86.6291 74.3213 85.4352 73.6756 85.125 73.5048C85.1301 73.4586 85.1301 73.4119 85.125 73.3657L85.4773 72.9481C85.4773 72.9481 88.3825 73.4325 87.9305 73.8611Z" fill="black"/>
<path d="M90.9611 64.2231C90.9611 64.2231 90.8052 64.8521 90.7538 65.1212C90.7024 65.3902 90.5839 66.7189 90.5839 66.7189L90.5185 67.09L89.4399 73.2135L89.2045 74.544C88.7899 74.8149 87.7519 74.0931 87.7519 74.0931C86.5424 74.2527 85.0508 73.3304 85.0508 73.3304C85.0508 73.3304 85.2955 72.3859 85.2394 71.9146C85.1833 71.4433 85.5792 71.0592 85.5792 71.0592C85.4856 70.6324 85.8239 68.7656 85.8239 68.7656C85.8239 68.7656 85.9002 68.0698 86.1839 67.8898C86.4676 67.7098 86.1465 67.4407 86.0701 67.2811C86.0433 67.1438 86.0526 67 86.0966 66.8692C86.1212 66.7654 86.1503 66.6631 86.1839 66.563C85.4638 65.7057 85.3532 64.3659 85.3516 63.6218C85.3496 63.4403 85.3564 63.2588 85.3719 63.0781L86.9305 62.7534L90.3361 62.0446L90.6837 63.3175L90.771 63.6367L90.9611 64.2231Z" fill="#CFAE38"/>
<path opacity="0.1" d="M90.6395 47.0256C90.568 47.2071 90.5156 47.3985 90.4836 47.5953C90.4743 47.6448 90.4649 47.6968 90.4556 47.7512C90.1267 48.0054 89.9241 48.0073 89.5033 48.0073C89.3583 48.0073 89.2773 47.677 89.1401 47.6361C89.1401 47.6361 88.9344 46.7528 88.8767 47.497C88.4808 47.4005 88.1395 47.7679 87.8589 47.4469C87.8589 47.4042 87.8589 47.3615 87.8589 47.317C87.8665 47.0386 87.8556 46.76 87.8262 46.4838C87.8262 46.4838 88.925 46.4838 89.7542 46.5895C90.3122 46.6675 90.747 46.7992 90.6395 47.0256Z" fill="black"/>
<path d="M91.4189 45.5112C91.4185 45.8827 91.3487 46.2494 91.2147 46.5849C91.0807 46.9204 90.8858 47.2162 90.6441 47.4511C90.4023 47.686 90.1198 47.8541 89.8169 47.9431C89.5139 48.0322 89.1982 48.04 88.8924 47.9661C88.5475 47.8815 88.226 47.6953 87.9573 47.4244C87.6886 47.1535 87.4813 46.8067 87.3544 46.4157C87.2274 46.0247 87.185 45.602 87.2308 45.1864C87.2767 44.7708 87.4094 44.3755 87.6168 44.0368C87.8243 43.6981 88.0998 43.4268 88.4181 43.2477C88.7365 43.0686 89.0875 42.9875 89.439 43.0118C89.7905 43.0361 90.1313 43.165 90.4301 43.3867C90.7289 43.6084 90.9762 43.9159 91.1493 44.2809C91.3281 44.6558 91.4211 45.0801 91.4189 45.5112Z" fill="#D38884"/>
<path opacity="0.1" d="M90.2671 49.449C90.2515 49.6568 90.2437 49.7904 90.2437 49.7904C90.2437 49.7904 86.8631 49.5213 87.4491 48.8459C87.6002 48.6594 87.7077 48.4291 87.7608 48.1779L89.2275 48.4636C89.2275 48.4636 89.6421 48.8459 89.9632 49.2059C90.0546 49.3032 90.1569 49.385 90.2671 49.449Z" fill="black"/>
<path opacity="0.1" d="M90.7731 63.765C90.6243 63.7885 90.4731 63.7753 90.3289 63.726C90.2664 63.7023 90.2063 63.6706 90.1496 63.6314C89.866 63.4291 88.923 63.6778 88.923 63.6778C88.923 63.6778 86.3544 63.8801 86.2406 63.6778C86.1767 63.5609 85.7231 63.5776 85.3522 63.6128C85.1963 63.6277 85.0638 63.6462 84.9688 63.6574C85.013 63.3809 85.1053 63.1186 85.24 62.8873L86.9326 62.7444L90.3382 62.0356L90.6858 63.3085C90.7083 63.4624 90.7375 63.6147 90.7731 63.765Z" fill="black"/>
<path d="M89.2222 48.5991L87.3799 48.2391C87.3474 48.3256 87.2994 48.4025 87.2394 48.4647C87.1794 48.5268 87.1087 48.5727 87.0323 48.5991C86.7876 48.6659 85.6919 49.3414 85.2009 50.1504L84.71 50.9613C84.71 50.9613 84.3125 51.5458 84.445 52.0172C84.5775 52.4885 84.7287 54.0862 84.7287 54.0862L84.9173 55.862C84.9173 55.862 85.2758 57.1442 85.1635 57.7064C85.0513 58.2687 85.2197 60.629 85.2197 60.629L84.8425 63.5516C84.8425 63.5516 86.1252 63.3493 86.2452 63.5516C86.3652 63.7539 88.9276 63.5516 88.9276 63.5516C88.9276 63.5516 89.8628 63.303 90.1543 63.5052C90.3449 63.6276 90.5631 63.675 90.7777 63.6407C90.7777 63.6407 90.5517 62.7129 90.6826 62.2026C90.8136 61.6923 90.7777 60.7404 90.7777 60.7404C90.7777 60.7404 90.9663 59.3691 90.8712 59.1223C90.7762 58.8755 91.0801 57.9755 91.0801 57.9755L92.0807 51.7036C92.0807 51.7036 91.9592 50.5791 91.4246 50.1968C90.8899 49.8145 90.2868 49.7014 89.9657 49.3432C89.6446 48.9851 89.2222 48.5991 89.2222 48.5991Z" fill="#3D6973"/>
<path d="M90.0781 54.7816V55.5238L90.6595 57.3906L90.8699 59.1218C90.8699 59.1218 91.2487 60.3577 91.2487 60.7919C91.2487 61.2261 92.1729 63.2877 92.1729 63.2877C92.1729 63.2877 92.4254 63.9854 92.2992 64.119C92.1729 64.2526 91.0788 67.2216 92.455 67.1325C93.8313 67.0434 93.3996 63.9409 93.3996 63.9409L93.211 62.5918C93.211 62.5918 92.946 59.2183 92.946 58.9715C92.946 58.9715 92.6062 57.5334 92.5688 57.218C92.5314 56.9025 92.2851 55.3067 92.2851 55.3067L92.0778 54.2731L90.0781 54.7816Z" fill="#F5D3BA"/>
<path opacity="0.1" d="M89.4168 57.1199L87.364 58.5191L86.7266 59.6658L87.576 58.6378L89.4168 57.1199Z" fill="black"/>
<path opacity="0.1" d="M88.7945 59.7996C88.7945 59.7996 87.8593 60.5252 87.4198 60.5252C86.9803 60.5252 85.9609 61.7722 85.9609 61.7722C85.9609 61.7722 87.4058 60.6588 87.5196 60.694C87.6333 60.7293 88.7945 59.7996 88.7945 59.7996Z" fill="black"/>
<path opacity="0.1" d="M86.3997 60.187C86.3997 60.187 85.5221 61.1315 85.7481 61.2336C85.9741 61.3356 87.1509 60.187 87.1509 60.187H86.3997Z" fill="black"/>
<path opacity="0.1" d="M90.2811 56.8154C90.2811 56.8154 89.6016 57.9121 89.7855 57.8954C89.9694 57.8787 90.4931 57.2534 90.4931 57.2534L90.2811 56.8154Z" fill="black"/>
<path opacity="0.1" d="M90.3803 57.8954C90.3803 57.8954 89.6446 58.8901 89.6727 59.1425C89.7007 59.3949 90.3803 57.8954 90.3803 57.8954Z" fill="black"/>
<path opacity="0.1" d="M90.5649 58.3928C90.5649 58.3928 90.0693 59.4468 90.2812 59.6657C90.4932 59.8847 90.5649 58.3928 90.5649 58.3928Z" fill="black"/>
<path opacity="0.1" d="M89.9229 55.6857C89.9229 55.6857 89.5535 56.4279 89.8231 56.478C90.0927 56.5281 90.1192 56.478 90.1192 56.478L89.9229 55.6857Z" fill="black"/>
<path opacity="0.1" d="M90.0257 52.9709C89.9337 53.4246 89.8074 53.8674 89.6485 54.294C89.5893 54.0766 89.5404 53.8554 89.502 53.6316C89.6575 53.391 89.8329 53.1697 90.0257 52.9709Z" fill="black"/>
<path opacity="0.1" d="M91.1498 44.2811C91.1133 44.3759 91.0655 44.464 91.008 44.5427C90.9114 44.6464 90.8255 44.7635 90.7523 44.8916C90.6947 45.0829 90.6637 45.284 90.6604 45.4872C90.6323 45.6876 90.5263 45.9103 90.3487 45.9159C90.2612 45.9071 90.1763 45.8767 90.0993 45.8268C90.0607 45.803 90.0177 45.7914 89.9744 45.793C89.931 45.7946 89.8887 45.8095 89.8515 45.8361C89.8023 45.8957 89.7739 45.9752 89.772 46.0588C89.7504 46.2332 89.7421 46.4096 89.747 46.5858C89.747 46.6563 89.747 46.7249 89.7564 46.7954C89.7999 47.0172 89.7886 47.2492 89.7236 47.4635C89.6423 47.6186 89.5193 47.7363 89.3745 47.7975C89.2174 47.8747 89.0531 47.9295 88.8851 47.9608C88.5651 48.0075 88.2422 48.02 87.9203 47.9979C87.8906 47.9988 87.861 47.9932 87.833 47.9812C87.8193 47.9747 87.8066 47.9652 87.7956 47.9534C87.8313 47.7425 87.8506 47.5282 87.8533 47.3132C87.6369 47.0631 87.4683 46.7606 87.3587 46.4261C87.2491 46.0916 87.2012 45.733 87.2182 45.3746C87.2352 45.0161 87.3167 44.6662 87.4572 44.3485C87.5977 44.0309 87.7939 43.7529 88.0326 43.5334C88.2712 43.3139 88.5467 43.158 88.8403 43.0764C89.134 42.9947 89.4389 42.9891 89.7345 43.06C90.0302 43.1309 90.3095 43.2766 90.5537 43.4873C90.7979 43.698 91.0012 43.9687 91.1498 44.2811Z" fill="black"/>
<path d="M90.2701 42.1597C90.0768 42.1356 89.8944 42.2581 89.7043 42.3082C89.3131 42.4102 88.9125 42.1987 88.5104 42.2006C88.1647 42.2239 87.8284 42.3434 87.5284 42.5494C87.2859 42.6858 87.0645 42.8703 86.8738 43.0949C86.6823 43.3232 86.5708 43.6297 86.5621 43.9522C86.5887 44.1371 86.5839 44.3263 86.548 44.5089C86.5076 44.601 86.4596 44.688 86.4047 44.7687C86.3549 44.8638 86.3231 44.9707 86.3116 45.0819C86.3 45.1931 86.3089 45.3059 86.3376 45.4126C86.4182 45.6239 86.5272 45.8182 86.6603 45.9878C86.919 46.3831 87.0811 46.8563 87.3133 47.2756C87.4147 47.4577 87.5283 47.6296 87.6531 47.7896C87.6735 47.818 87.6984 47.8413 87.7264 47.8583C87.7539 47.8698 87.783 47.8749 87.8121 47.8731C88.3046 47.8898 88.8143 47.9028 89.2679 47.6727C89.4132 47.6128 89.5365 47.4947 89.617 47.3387C89.6824 47.1247 89.6943 46.8926 89.6513 46.6707C89.6306 46.4235 89.6353 46.1743 89.6653 45.9285C89.6673 45.8455 89.6957 45.7666 89.7448 45.7076C89.782 45.6802 89.8247 45.6648 89.8685 45.6632C89.9122 45.6616 89.9556 45.6737 89.9942 45.6984C90.0712 45.7467 90.1554 45.7769 90.242 45.7874C90.4119 45.7874 90.5194 45.5573 90.5537 45.3569C90.535 45.1768 90.5574 44.9941 90.6186 44.8279C90.6797 44.6616 90.7774 44.5181 90.9013 44.4124C91.0181 44.236 91.0982 44.0293 91.1353 43.8091C91.1724 43.5889 91.1654 43.3614 91.1148 43.1451C91.0026 42.7275 90.6597 42.2061 90.2701 42.1597Z" fill="#1E1637"/>
<path opacity="0.1" d="M92.2913 52.8166C92.2498 53.1239 92.2498 53.4371 92.2913 53.7444C92.2726 53.993 92.2913 55.3643 92.2913 55.3643C91.6679 55.138 90.0828 55.5889 90.0828 55.5889L89.8942 54.9153C89.7865 54.7491 89.7061 54.5602 89.6573 54.3586C89.5981 54.1406 89.5492 53.9188 89.5107 53.6943C89.4284 53.2277 89.3665 52.7564 89.3253 52.2821C89.2458 51.5677 90.1389 50.7976 90.8153 50.3709C91.4918 49.9441 92.084 51.7644 92.084 51.7644C92.084 51.7644 92.3662 52.464 92.2913 52.8166Z" fill="#3D6973"/>
<path d="M92.2913 52.6887C92.25 52.996 92.25 53.3092 92.2913 53.6165C92.2726 53.8633 92.2913 55.2346 92.2913 55.2346C91.6679 55.0101 90.0828 55.4591 90.0828 55.4591L89.8942 54.7855C89.7862 54.6196 89.7058 54.4306 89.6573 54.2288C89.5981 54.0114 89.5492 53.7903 89.5107 53.5664C89.4286 53.0998 89.3667 52.6285 89.3253 52.1543C89.2458 51.438 90.1389 50.6698 90.8153 50.2411C91.4918 49.8125 92.084 51.6347 92.084 51.6347C92.084 51.6347 92.3662 52.3287 92.2913 52.6887Z" fill="#41707B"/>
<path opacity="0.2" d="M91.0928 43.1453C91.0604 43.0178 91.0138 42.8961 90.9541 42.7834C90.9634 42.815 90.9728 42.8447 90.9806 42.8762C91.0312 43.0926 91.0382 43.3201 91.0011 43.5403C90.964 43.7605 90.8838 43.9672 90.7671 44.1436C90.6432 44.2493 90.5455 44.3928 90.4843 44.559C90.4232 44.7252 90.4008 44.908 90.4195 45.0881C90.393 45.2885 90.2854 45.5093 90.1078 45.5167C90.0203 45.508 89.9354 45.4776 89.8584 45.4277C89.8199 45.4039 89.7768 45.3923 89.7335 45.3939C89.6901 45.3955 89.6478 45.4103 89.6106 45.437C89.5614 45.4965 89.533 45.5761 89.5311 45.6596C89.501 45.9054 89.4963 46.1547 89.517 46.4019C89.5342 46.6282 89.5716 46.8713 89.4827 47.0717C89.4006 47.226 89.2778 47.3434 89.1336 47.4057C88.6801 47.6358 88.1704 47.6229 87.6779 47.6062C87.6486 47.6072 87.6195 47.6016 87.5921 47.5894C87.5635 47.5737 87.5384 47.5502 87.5189 47.5208C87.3928 47.3621 87.279 47.19 87.1791 47.0068C86.9469 46.5874 86.7848 46.1161 86.526 45.719C86.4559 45.6114 86.3702 45.5056 86.3125 45.3924V45.4147C86.392 45.6268 86.501 45.8213 86.6351 45.9899C86.8923 46.3852 87.056 46.8583 87.2866 47.2777C87.388 47.4602 87.5022 47.6322 87.628 47.7917C87.6478 47.82 87.6722 47.8434 87.6997 47.8604C87.7272 47.8718 87.7563 47.8768 87.7854 47.8752C88.2779 47.8919 88.7892 47.9049 89.2412 47.6748C89.3865 47.6148 89.5098 47.4968 89.5903 47.3408C89.6557 47.1268 89.6676 46.8947 89.6246 46.6728C89.6055 46.4255 89.6102 46.1765 89.6386 45.9305C89.6419 45.8479 89.6701 45.7695 89.7181 45.7097C89.7553 45.6822 89.798 45.6669 89.8417 45.6653C89.8855 45.6637 89.9289 45.6758 89.9675 45.7004C90.0445 45.7488 90.1287 45.779 90.2153 45.7895C90.3868 45.7895 90.4927 45.5594 90.527 45.359C90.5296 45.1558 90.5606 44.9544 90.619 44.7634C90.6917 44.6349 90.7776 44.5177 90.8746 44.4145C90.9922 44.2382 91.0732 44.0315 91.1111 43.811C91.149 43.5904 91.1428 43.3624 91.0928 43.1453Z" fill="black"/>
<path d="M106.288 43.6335L104.942 47.0404C104.942 47.0404 104.744 47.6805 104.616 47.7993C104.488 47.9181 103.922 49.9407 103.922 49.9407L102.477 52.5905L102.379 52.7761L101.813 52.5905L101.416 50.824L101.439 50.3118V50.2469C101.439 50.2469 102.331 49.1335 102.53 49.05C102.53 49.05 102.686 49.0723 102.982 48.2094C103.279 47.3465 103.55 47.161 103.55 47.161L103.706 46.5375L105.378 43.3662C105.378 43.3662 106.781 40.9744 107.163 42.0358C107.545 43.0972 106.288 43.6335 106.288 43.6335Z" fill="#FFD2C6"/>
<path d="M100.695 67.8345C100.691 67.8923 100.675 67.9481 100.65 67.9978C100.494 68.2687 99.6165 73.7817 99.6165 73.7817C99.6867 74.1529 99.4887 74.8951 99.3609 75.2328C99.2331 75.5705 98.9494 77.3222 98.9494 77.3222C98.9494 77.3222 98.8793 81.1003 98.6969 81.6904C98.5146 82.2805 98.7546 83.546 98.7546 83.546C98.7375 84.1268 99.0305 84.7428 99.205 85.0546L99.2393 85.114C99.2954 85.2105 99.3329 85.2661 99.3329 85.2661C99.3809 85.3787 99.4483 85.478 99.5308 85.5575L99.5713 85.5946C99.8122 85.7862 100.081 85.9215 100.365 85.9935H100.393C100.505 86.0232 100.58 86.0362 100.58 86.0362L100.65 86.4927L99.9002 86.6783L98.4694 86.7952C98.4694 86.7952 96.7829 86.9492 97.1664 86.0529C97.1929 85.9931 97.2158 85.9311 97.2349 85.8674C97.2498 85.8236 97.2628 85.779 97.2739 85.7338C97.5046 84.8746 97.3487 83.8299 97.3487 83.8299L97.023 80.7793C96.4852 77.9457 97.4454 74.793 97.4454 74.793C97.4454 74.793 97.3627 74.5407 97.5467 73.9005C97.7306 73.2603 97.5467 71.8593 97.5467 71.8593C97.5467 71.8593 97.4485 70.0557 97.3207 69.1631C97.2703 68.7871 97.2531 68.4059 97.2692 68.0256C97.2754 67.8032 97.2926 67.5813 97.3207 67.3613L100.549 66.851C100.549 66.851 100.734 67.4764 100.695 67.8345Z" fill="#FFD2C6"/>
<path opacity="0.1" d="M100.652 86.4963L99.9019 86.6819L98.4711 86.7988C98.4711 86.7988 96.7846 86.9528 97.168 86.0565C97.1946 85.9967 97.2175 85.9347 97.2366 85.871C97.2515 85.8272 97.2645 85.7826 97.2756 85.7374C97.5678 85.7488 97.8564 85.8178 98.1297 85.9415C98.6098 86.1623 98.9714 85.5871 98.9714 85.5871L99.2052 85.0564L99.2395 84.9803C99.2956 85.0768 99.333 85.1324 99.333 85.1324C99.3895 85.2628 99.4713 85.3754 99.5715 85.4609L99.5309 85.5592L99.3049 86.127C99.3049 86.127 99.5948 86.1623 99.9907 86.2384C100.067 86.262 100.149 86.25 100.218 86.2048C100.288 86.1597 100.34 86.0848 100.365 85.9953H100.393C100.505 86.025 100.58 86.038 100.58 86.038L100.652 86.4963Z" fill="black"/>
<path d="M101.345 86.9155C101.289 87.2198 99.7098 87.3126 99.7098 87.3126C99.7098 87.3126 98.8308 87.2124 98.5845 87.4555C98.3382 87.6986 97.6135 87.641 97.5854 87.641C97.5573 87.641 97.1755 87.6243 97.0259 86.8079C96.8762 85.9914 97.2207 85.88 97.2363 85.8671C97.5419 85.8723 97.8442 85.9421 98.1294 86.073C98.6094 86.2938 98.971 85.7186 98.971 85.7186L99.2391 85.1118C99.2952 85.2083 99.3326 85.264 99.3326 85.264C99.3892 85.3944 99.4709 85.5069 99.5711 85.5924L99.3046 86.2586C99.3046 86.2586 99.5945 86.2939 99.9904 86.3681C100.038 86.381 100.087 86.3812 100.135 86.3687C100.182 86.3563 100.227 86.3314 100.265 86.2959C100.304 86.2603 100.335 86.2151 100.357 86.1634C100.379 86.1117 100.391 86.0549 100.392 85.997C100.393 85.9803 100.393 85.9635 100.392 85.9468C100.392 85.9468 100.639 86.0322 100.944 86.1324C101.081 86.1794 101.199 86.286 101.273 86.431C101.347 86.576 101.373 86.7489 101.345 86.9155Z" fill="#626696"/>
<path d="M104.32 71.8536C104.283 72.1226 104.244 72.8203 104.244 72.8203C104.377 73.4049 104.037 74.7929 104.037 74.7929L103.867 75.5852C103.942 76.5965 103.399 79.07 103.399 79.07C103.399 79.07 103.036 81.3636 102.847 82.3526C102.735 82.9024 102.769 83.4805 102.946 84.006L102.96 84.0468C102.96 84.0653 102.968 84.0839 102.971 84.1024C102.976 84.1296 102.984 84.1563 102.992 84.1822C103.035 84.3184 103.098 84.4442 103.178 84.5534C103.209 84.5979 103.243 84.6395 103.279 84.6777C103.457 84.8651 103.66 85.0145 103.881 85.1193L103.976 85.1639C104.074 85.2074 104.175 85.2445 104.277 85.2752H104.311L104.235 85.8059L103.234 85.4997L101.894 84.982L101.244 84.5478C101.244 84.5478 101.244 84.5051 101.264 84.4235C101.265 84.4186 101.265 84.4135 101.264 84.4086C101.264 84.3734 101.276 84.3326 101.284 84.2843C101.387 83.5885 101.643 81.6419 101.515 80.202C101.359 78.4261 101.982 75.9749 102.127 75.3922C102.218 75.0581 102.256 74.7073 102.241 74.3568C101.995 73.93 101.939 72.221 101.939 72.221C101.939 72.221 101.485 71.1188 101.111 69.9497C100.987 69.5681 100.896 69.1719 100.842 68.7677C100.797 68.4833 100.779 68.194 100.787 67.9048C100.787 67.9048 103.828 64.6 104.161 67.7991C104.172 67.9086 104.183 68.0106 104.194 68.1127C104.49 71.0538 104.356 71.5919 104.32 71.8536Z" fill="#FFD2C6"/>
<path opacity="0.1" d="M104.319 85.2896L104.243 85.8203L103.242 85.5141L101.901 84.9964L101.242 84.5473C101.242 84.5473 101.242 84.5047 101.262 84.423C101.263 84.4181 101.263 84.4131 101.262 84.4082C101.262 84.3729 101.275 84.3321 101.283 84.2838H101.376C101.567 84.2618 101.759 84.293 101.937 84.3748C102.156 84.4713 102.442 84.5826 102.5 84.5362C102.601 84.4846 102.711 84.4618 102.821 84.4694L102.96 84.0983L102.982 84.0426C103.023 84.179 103.086 84.3049 103.167 84.4137C103.201 84.4603 103.236 84.5043 103.275 84.5455V84.6735L103.267 84.8591C103.417 84.9726 103.579 85.0612 103.748 85.1226C103.792 85.1356 103.839 85.1356 103.883 85.1226L103.978 85.1671C104.076 85.2106 104.177 85.2478 104.278 85.2785L104.319 85.2896Z" fill="black"/>
<path d="M103.818 86.4273C103.539 86.3327 102.866 86.1787 102.757 86.2975C102.647 86.4162 101.714 86.2975 101.714 86.2975C101.616 86.2956 101.52 86.2638 101.436 86.2049C101.352 86.1461 101.281 86.0622 101.232 85.9616C101.037 85.6016 101.195 84.4382 101.195 84.4382H101.263L101.379 84.4233C101.569 84.4014 101.761 84.4319 101.94 84.5124C102.158 84.6107 102.445 84.7221 102.503 84.6757C102.603 84.6229 102.714 84.5993 102.824 84.607L102.979 84.1895C103.022 84.3257 103.085 84.4515 103.165 84.5606C103.198 84.6071 103.234 84.6505 103.272 84.6905L103.258 85.0004C103.408 85.114 103.57 85.2032 103.74 85.2658C103.781 85.2843 103.826 85.2858 103.868 85.27C103.91 85.2541 103.946 85.2219 103.971 85.1785C103.978 85.1639 103.984 85.1483 103.988 85.1322C104.114 85.203 104.247 85.2553 104.384 85.288C104.559 85.2663 104.735 85.3214 104.878 85.443C105.022 85.5646 105.123 85.7444 105.163 85.9486C105.311 86.4663 104.097 86.522 103.818 86.4273Z" fill="#626696"/>
<path opacity="0.1" d="M100.696 67.8345L100.523 67.8976C100.387 67.9468 100.248 67.9815 100.107 68.0015C99.212 68.1519 97.7391 68.0609 97.2715 68.0257C97.2776 67.8032 97.2948 67.5814 97.3229 67.3613L100.551 66.851C100.551 66.851 100.735 67.4764 100.696 67.8345Z" fill="black"/>
<path d="M103.511 66.9008C103.511 66.9008 102.327 67.1197 101.362 67.3702C101.041 67.4537 100.739 67.5428 100.522 67.6263C100.386 67.6752 100.247 67.7106 100.106 67.7321C99.0319 67.9176 97.1241 67.7451 97.1241 67.7451C96.6004 65.7224 97.76 63.1747 97.76 63.1747C97.7335 62.9724 98.0016 62.3508 98.0016 62.3508V62.3304L98.1668 61.6085H102.57L102.625 61.9184L102.737 62.5493L103.429 66.4591L103.511 66.9008Z" fill="#3D6973"/>
<path opacity="0.1" d="M104.195 68.1275L104.169 68.1404L103.653 68.4132C103.095 68.7194 101.426 68.7844 100.847 68.7844C100.803 68.4999 100.785 68.2106 100.793 67.9215C100.793 67.9215 103.834 64.6166 104.167 67.8157C104.174 67.9233 104.184 68.0328 104.195 68.1275Z" fill="black"/>
<path d="M104.277 67.8138L104.169 67.8713L103.653 68.1441C103.086 68.4559 101.362 68.5153 100.81 68.5153H100.666C100.411 68.506 100.156 68.2221 100.156 68.1441C100.156 68.1033 100.129 67.9029 100.108 67.7322C100.087 67.5949 100.072 67.4761 100.072 67.4761C99.48 67.1728 98.907 66.82 98.3572 66.4202C97.9255 66.0695 98.0346 63.5774 98.1172 62.3248C98.1468 61.8924 98.1733 61.6085 98.1733 61.6085L102.631 61.9184L103.254 61.9611L103.611 62.0557L103.706 62.0799C103.706 62.0799 103.964 64.3066 104.09 64.4922C104.216 64.6778 104.133 65.3013 104.118 65.6576C104.118 65.8105 104.104 65.9629 104.076 66.1122C104.076 66.1122 104.26 66.7357 104.218 67.0846C104.198 67.3299 104.218 67.5774 104.277 67.8138Z" fill="#3D6973"/>
<path d="M99.5044 49.3339C100.513 49.3339 101.331 48.3602 101.331 47.1591C101.331 45.958 100.513 44.9844 99.5044 44.9844C98.4956 44.9844 97.6777 45.958 97.6777 47.1591C97.6777 48.3602 98.4956 49.3339 99.5044 49.3339Z" fill="#FFD2C6"/>
<path d="M98.6119 48.0645C98.6119 48.0645 98.7381 50.1242 98.3843 50.5974C97.98 51.0792 97.5544 51.5351 97.1094 51.9631L97.393 53.3622L98.9938 53.5812L100.864 51.2042L100.439 50.5899C100.439 50.5899 100.113 49.2743 100.381 48.6174C100.649 47.9606 98.6119 48.0645 98.6119 48.0645Z" fill="#FFD2C6"/>
<path opacity="0.1" d="M102.477 52.5904L102.379 52.7759L101.813 52.5904L101.416 50.8239L101.439 50.3117L101.556 50.1113C101.556 50.1113 102.18 50.128 102.153 50.8035C102.127 51.3935 102.41 52.3659 102.477 52.5904Z" fill="black"/>
<path opacity="0.1" d="M103.708 62.3506C103.708 62.3506 103.258 62.4694 102.742 62.5492C102.226 62.629 101.631 62.6717 101.386 62.5009C100.976 62.2114 98.7552 62.295 98.113 62.3246H98.0039L98.1691 61.6028H102.572L102.627 61.9127L103.25 61.9554L103.607 62.05C103.673 62.2319 103.708 62.3506 103.708 62.3506Z" fill="black"/>
<path d="M101.445 50.2428C101.445 50.2428 102.068 50.2595 102.04 50.9349C102.012 51.6104 102.38 52.772 102.38 52.772L102.238 53.1598C102.238 53.1598 102.04 54.1043 102.196 54.34C102.352 54.5756 102.918 54.5756 102.592 56.5148C102.592 56.5148 102.522 57.9658 102.692 58.4372C102.862 58.9085 102.862 60.0386 103.116 60.5117C103.348 61.0154 103.547 61.5397 103.711 62.0797C103.711 62.0797 101.87 62.5677 101.389 62.2319C100.907 61.896 97.9472 62.063 97.9472 62.063C97.9472 62.063 97.9613 61.4729 97.9472 61.4043C97.9335 61.3309 97.9326 61.255 97.9447 61.1812C97.9568 61.1075 97.9815 61.0375 98.0174 60.9756C98.1171 60.8142 98.273 60.5451 98.1873 60.3095C98.1015 60.0738 98.3992 59.725 98.2434 59.3594C98.0875 58.9938 97.8989 58.9215 97.9317 58.7211C97.94 58.6062 97.9289 58.4904 97.8989 58.3808C97.8689 58.2711 97.8207 58.1697 97.7571 58.0827C97.6449 57.9139 96.8796 56.1325 96.8796 56.1325L96.7518 55.3012C96.7518 55.3012 95.7667 54.442 95.7854 54.0375C95.8041 53.633 96.1579 53.0707 96.1579 53.0707L97.1056 51.9574C97.1056 51.9574 97.6308 52.631 98.1405 52.3953C98.6502 52.1596 99.7459 51.0296 99.7459 51.0296C99.7459 51.0296 100.137 50.7772 100.165 50.5917C100.193 50.4061 100.435 50.575 100.435 50.575C100.435 50.575 100.789 50.343 100.859 50.4246C100.979 50.4992 101.108 50.55 101.242 50.575L101.445 50.2428Z" fill="#68A500"/>
<path d="M96.0907 53.7554L95.7899 54.0374C95.5613 54.6133 95.4324 55.2381 95.4111 55.8745C95.3314 56.8315 95.2039 57.782 95.0293 58.721L94.4339 59.9884C94.4339 59.9884 93.4566 62.4322 93.3288 63.0817C93.201 63.7311 92.6212 64.8278 92.6212 64.8278C92.6212 64.8278 90.6526 66.9339 92.0258 67.3143C93.3989 67.6947 93.4426 65.6443 93.4426 65.6443C93.4426 65.6443 93.7543 65.223 93.8151 64.9354C93.8759 64.6478 95.6091 60.9811 95.6091 60.9811C95.6091 60.9811 96.2185 59.9939 96.0907 59.4707C96.0907 59.4707 96.884 57.2439 96.884 56.6872C96.8692 56.2215 96.8265 55.7577 96.7562 55.2992L96.884 54.1358L96.0907 53.7554Z" fill="#FFD2C6"/>
<path opacity="0.1" d="M100.169 58.4042C100.169 58.4042 98.7817 59.2689 98.5121 59.3153C98.2424 59.3617 99.6873 59.1298 99.6873 59.1298L100.169 58.4042Z" fill="black"/>
<path opacity="0.1" d="M101.3 59.0777C101.3 59.0777 99.4593 59.8199 98.6504 59.6863C98.6504 59.6826 100.664 60.1408 101.3 59.0777Z" fill="black"/>
<path opacity="0.1" d="M101.415 59.3208C101.415 59.3208 99.757 60.5622 98.7812 60.36C98.7812 60.36 101.062 60.9 101.415 60.6123L100.396 60.2765C100.396 60.2765 101.528 59.562 101.415 59.3208Z" fill="black"/>
<path opacity="0.1" d="M99.5076 43.3306C99.2685 43.2606 99.0196 43.2523 98.7777 43.3064C98.5357 43.3605 98.3063 43.4757 98.1048 43.6442C97.8212 43.9095 97.6372 44.3159 97.313 44.5145C97.1447 44.6001 96.9718 44.6726 96.7956 44.7316C96.4852 44.8827 96.2265 45.1538 96.0611 45.5011C95.8958 45.8484 95.8333 46.2519 95.8838 46.6466C95.9337 46.9806 96.0646 47.2886 96.1301 47.6189C96.2454 48.2071 96.1425 48.8232 96.0178 49.4096C95.669 51.0354 95.1396 52.5986 94.4436 54.0579C94.3888 54.1483 94.3613 54.2582 94.3657 54.3696C94.3832 54.4445 94.4165 54.5128 94.4623 54.5682C95.1169 55.4681 96.1768 55.778 97.1821 55.8189C97.5512 55.8623 97.9233 55.7887 98.2607 55.6055C98.4691 55.4627 98.6484 55.2669 98.786 55.0321C99.1338 54.4655 99.3066 53.7733 99.2754 53.0726C99.2489 52.5066 99.0899 51.9351 99.2099 51.3877C99.2218 51.3112 99.2509 51.24 99.2941 51.1817C99.4016 51.0499 99.5809 51.0852 99.7336 51.0629C100.15 51.0054 100.418 50.484 100.468 49.9885C100.518 49.4931 100.413 48.9958 100.41 48.504C100.408 47.8457 100.581 47.2034 100.904 46.6688C101.043 46.4425 101.216 46.2198 101.266 45.9359C101.325 45.5796 101.152 45.318 101.002 45.0378C100.77 44.5998 100.656 44.0895 100.303 43.7555C100.069 43.542 99.7968 43.3965 99.5076 43.3306Z" fill="black"/>
<path d="M99.3931 43.1953C99.1555 43.1262 98.9082 43.1185 98.6678 43.1725C98.4275 43.2266 98.1997 43.3413 97.9996 43.5089C97.716 43.7761 97.5321 44.1825 97.2063 44.381C97.0376 44.4652 96.8648 44.5371 96.6888 44.5963C96.379 44.7473 96.1208 45.0177 95.9554 45.3643C95.7901 45.7109 95.7273 46.1135 95.777 46.5076C95.8269 46.8416 95.9578 47.1496 96.0233 47.4799C96.1386 48.0681 96.0373 48.6842 95.9111 49.2706C95.5624 50.8933 95.0335 52.4534 94.3384 53.9096C94.2824 53.9994 94.2548 54.1098 94.2605 54.2214C94.2765 54.2966 94.3094 54.3652 94.3556 54.4199C95.0102 55.3218 96.0701 55.6298 97.0754 55.6706C97.4443 55.714 97.8162 55.6411 98.1539 55.4591C98.3621 55.3151 98.5413 55.1188 98.6792 54.8838C99.0264 54.3169 99.1987 53.6248 99.1671 52.9243C99.139 52.3676 98.98 51.7868 99.1 51.2394C99.1133 51.1635 99.1422 51.0927 99.1842 51.0334C99.2933 50.9017 99.471 50.9369 99.6253 50.9165C100.04 50.859 100.308 50.3357 100.358 49.8421C100.408 49.3485 100.303 48.8494 100.302 48.3576C100.299 47.6997 100.472 47.0578 100.796 46.5243C100.933 46.296 101.108 46.0734 101.157 45.782C101.215 45.4258 101.042 45.166 100.892 44.8839C100.66 44.4478 100.546 43.9357 100.193 43.6017C99.9563 43.394 99.6825 43.2548 99.3931 43.1953Z" fill="#985C7E"/>
<path opacity="0.1" d="M98.7812 64.2767C98.7812 64.2767 99.1444 66.3011 99.7492 66.8504L98.7812 64.2767Z" fill="black"/>
<g opacity="0.1">
<path opacity="0.1" d="M95.8842 46.9642C95.8655 46.8862 95.8437 46.8064 95.8203 46.7284C95.8453 46.8082 95.8608 46.8788 95.8842 46.9642Z" fill="black"/>
<path opacity="0.1" d="M101.052 45.2085C101.058 45.2701 101.058 45.3324 101.052 45.3941C101.005 45.678 100.829 45.9006 100.69 46.127C100.368 46.6618 100.195 47.3039 100.196 47.9622C100.196 48.4614 100.302 48.9587 100.252 49.4467C100.202 49.9347 99.9406 50.4636 99.5198 50.5193C99.3639 50.5415 99.1878 50.5063 99.0803 50.638C99.0378 50.6972 99.0084 50.7679 98.9946 50.844C98.8745 51.3914 99.0351 51.9574 99.0616 52.5289C99.0906 53.2299 98.9155 53.9214 98.5659 54.4866C98.4289 54.7218 98.2494 54.9177 98.0407 55.06C97.7038 55.2433 97.3322 55.3169 96.9637 55.2733C95.9802 55.2344 94.9374 54.9319 94.2766 54.0653C94.2591 54.1171 94.2537 54.1735 94.261 54.2286C94.277 54.3038 94.3099 54.3725 94.3561 54.4272C95.0107 55.329 96.0706 55.6371 97.0759 55.6779C97.4448 55.7213 97.8167 55.6483 98.1544 55.4663C98.3626 55.3223 98.5418 55.126 98.6797 54.8911C99.0269 54.3242 99.1992 53.6321 99.1676 52.9316C99.1395 52.3749 98.9805 51.7941 99.1005 51.2467C99.1138 51.1707 99.1427 51.0999 99.1847 51.0407C99.2938 50.9089 99.4715 50.9442 99.6258 50.9238C100.04 50.8663 100.308 50.343 100.358 49.8494C100.408 49.3558 100.304 48.8566 100.302 48.3649C100.3 47.7069 100.473 47.0651 100.796 46.5316C100.933 46.3033 101.108 46.0806 101.158 45.7893C101.184 45.5868 101.146 45.38 101.052 45.2085Z" fill="black"/>
</g>
<path opacity="0.1" d="M20.134 93.1968C21.9555 93.1968 23.4321 93.019 23.4321 92.7997C23.4321 92.5804 21.9555 92.4026 20.134 92.4026C18.3125 92.4026 16.8359 92.5804 16.8359 92.7997C16.8359 93.019 18.3125 93.1968 20.134 93.1968Z" fill="#3ACC6C"/>
<path d="M21.2871 86.2346C21.2871 86.2346 16.9853 88.8807 19.2079 91.9871C19.2705 92.1807 19.3829 92.3458 19.529 92.4588C19.6751 92.5717 19.8475 92.6268 20.0215 92.6161C20.0215 92.6161 19.9 92.3545 20.3629 92.1448C20.5279 92.0693 20.6848 91.9709 20.8305 91.8516C21.0261 91.6907 21.1722 91.4581 21.2466 91.1891C21.2466 91.1891 22.1272 89.7881 21.4446 87.1958C21.4446 87.1958 21.5334 86.4536 21.4555 86.3441L20.9333 87.1958C20.9333 87.1958 21.4742 87.6282 21.5365 88.2628C21.5365 88.2628 20.9738 87.1977 20.8507 87.3202C20.8258 87.3443 20.592 87.7859 20.592 87.7859C20.592 87.7859 21.5272 88.543 21.5973 89.5246C21.5973 89.5246 21.0705 88.1496 20.5063 87.9529L20.1852 88.6451C20.1852 88.6451 21.2076 89.3873 21.323 90.5007C21.323 90.5007 20.7291 89.0867 20.1228 88.8028L19.8844 89.5339C19.8844 89.5339 20.8694 90.2762 20.9598 91.204C20.9598 91.204 20.1353 89.6527 19.8392 89.7028C19.8392 89.7028 19.6537 90.3894 19.6833 90.6009C19.6833 90.6009 20.3816 91.1576 20.394 91.7013C20.394 91.7013 19.7503 90.7327 19.6506 90.7976C19.6506 90.7976 19.61 91.77 19.8064 92.2821C19.6039 91.8255 19.5055 91.3136 19.5212 90.7976C19.3218 91.0073 19.1787 91.2822 19.1097 91.5881C19.1097 91.5881 18.9242 91.0518 19.5337 90.5619C19.5337 90.5619 19.5913 89.8048 19.6615 89.7121C19.6615 89.7121 19.0022 90.0943 18.7263 90.5657C18.7263 90.5657 18.8292 89.8642 19.7238 89.5154L19.9514 88.7731C19.9514 88.7731 19.0567 89.224 18.7793 89.6211C18.7793 89.6211 18.9788 88.9253 20.0262 88.5913L20.3379 87.9084C20.3379 87.9084 19.543 88.2276 19.1549 88.5913C19.1549 88.5913 19.4557 87.9919 20.433 87.7173L20.6855 87.2886C20.6855 87.2886 20.1072 87.5354 19.9467 87.6226C19.7862 87.7098 19.7534 87.6672 19.7534 87.6672C20.0481 87.3704 20.4065 87.1775 20.7884 87.1105C20.7884 87.1105 21.3261 86.281 21.2871 86.2346Z" fill="#3ACC6C"/>
<path d="M25.5248 90.9438C25.9753 91.2611 26.6798 91.4671 27.5666 90.7861L27.5573 92.291C27.6212 93.3246 28.6919 97.0841 28.6919 97.0841L29.4479 100.179C29.9901 102.365 30.2703 104.631 30.2802 106.91C30.2608 107.627 30.3425 108.343 30.5218 109.029C30.9239 110.328 30.3659 111.998 30.1197 112.616C29.6708 112.801 29.2079 112.94 28.8727 113.033C28.8346 113.044 28.7971 113.057 28.7605 113.074V113.065C28.7605 113.065 27.6258 113.601 27.1208 113.527C26.7452 113.471 26.5099 114.03 26.8091 114.44C26.5645 114.529 26.309 114.569 26.0532 114.558C25.5482 114.484 25.2972 115.518 26.2418 115.813C27.1863 116.108 32.548 115.813 32.548 115.813C32.6989 115.723 32.8205 115.576 32.8936 115.395C32.9667 115.214 32.9871 115.009 32.9517 114.813C33.3632 114.794 33.6203 114.779 33.6203 114.779C33.6203 114.779 34.5664 114.263 33.6203 112.862L33.5705 112.909L33.3678 112.2V111.241C33.3678 111.241 34.5664 104.375 34.1877 103.573C33.8089 102.772 33.6203 98.6335 33.6203 98.6335L33.7466 94.1355C34.0879 93.2949 34.264 91.9793 34.3529 90.9494C34.4813 90.4578 34.5624 89.9504 34.5945 89.4371C34.6085 89.1958 34.621 88.9416 34.6288 88.6781C34.6338 88.1008 34.5563 87.5266 34.3996 86.9802C34.826 86.2233 35.3035 85.509 35.8274 84.8444C36.0451 84.6034 36.2105 84.303 36.3093 83.9692C36.4081 83.6353 36.4374 83.2779 36.3947 82.9276L36.083 80.4206L35.3255 76.1527C35.4206 74.9651 35.2133 74.2823 34.9826 73.8963C35.0371 73.514 35.0886 73.1299 35.1275 72.7458C35.295 71.073 35.2202 69.3783 34.9062 67.7356C34.7971 67.1623 34.6475 66.574 34.3108 66.1398C33.9274 65.6481 33.3071 65.3475 33.1652 64.7036C33.1433 64.5404 33.1142 64.3787 33.0779 64.2193C32.9392 63.7962 32.5012 63.644 32.1178 63.5883C31.4351 63.49 30.4485 63.4139 29.7923 63.7331C29.3357 63.9576 28.7013 64.57 28.4535 65.2287C28.3041 65.503 28.2483 65.8349 28.2976 66.1565C28.3215 66.2666 28.3582 66.3722 28.4067 66.4701C28.3055 66.786 28.2527 67.121 28.2509 67.4592C28.2534 68.0369 28.4019 68.6004 28.6771 69.0764C28.9523 69.5523 29.3414 69.9185 29.7939 70.1275C29.8079 70.1832 29.822 70.2389 29.8344 70.2945C29.8629 70.4262 29.8832 70.5602 29.8952 70.6953C29.8843 70.957 29.8703 71.2186 29.8594 71.4784C29.8534 71.5142 29.8456 71.5495 29.836 71.5842C29.2932 71.8703 28.764 72.1918 28.2509 72.5472C28.6296 73.2097 28.1885 76.0117 28.1885 76.0117C27.2424 76.676 26.2963 78.372 27.3048 80.1404C28.3132 81.9088 27.7459 83.8053 27.7459 83.8053L27.59 86.6889L27.5588 87.2641H27.5713L27.5588 87.4831H27.5853V87.7188C27.1411 87.9043 26.4943 88.3014 26.1093 89.0177C25.9263 89.3731 25.704 89.6977 25.4484 89.9826C25.3859 90.0427 25.3369 90.1202 25.3057 90.2084C25.2745 90.2965 25.2622 90.3924 25.2697 90.4876C25.2773 90.5829 25.3046 90.6743 25.3491 90.7539C25.3936 90.8335 25.454 90.8988 25.5248 90.9438ZM33.1387 83.2838C33.1008 82.7854 33.1785 82.2842 33.3632 81.8346C33.5112 81.8346 33.6609 81.8346 33.8089 81.8346C33.8245 81.9589 33.8417 82.0777 33.8635 82.1853C33.9913 82.8422 33.4801 83.1521 33.1387 83.2838Z" fill="url(#paint0_linear)"/>
<path d="M33.2633 111.862L33.5064 112.729L32.7209 113.668L30.1117 114.389L28.2305 114.172L28.352 113.378C28.3878 113.207 28.4625 113.052 28.5678 112.928C28.6731 112.805 28.805 112.718 28.949 112.679C29.7283 112.461 31.1965 111.97 31.5067 111.283L33.2633 111.862Z" fill="#F5D3BA"/>
<path opacity="0.1" d="M33.2633 111.862L33.5064 112.729L32.7209 113.668L30.1117 114.389L28.2305 114.172L28.352 113.378C28.3878 113.207 28.4625 113.052 28.5678 112.928C28.6731 112.805 28.805 112.718 28.949 112.679C29.7283 112.461 31.1965 111.97 31.5067 111.283L33.2633 111.862Z" fill="#A5734E"/>
<path d="M28.8343 113.957L29.199 113.379L28.8343 112.711C28.8343 112.711 27.7433 113.234 27.257 113.161C26.7707 113.089 26.5291 114.102 27.4393 114.39C28.3496 114.677 33.5071 114.39 33.5071 114.39C33.5071 114.39 34.4173 113.885 33.5071 112.512L32.7215 113.234C32.7215 113.234 31.3858 114.102 30.7187 113.957H28.8343Z" fill="#2E3037"/>
<path d="M27.1953 115.186L29.0766 115.401L31.6857 114.679L32.4744 113.741L32.4105 113.51L32.3201 113.188L32.2328 112.874L30.4731 112.295C30.3839 112.469 30.2616 112.615 30.1162 112.722C29.5442 113.186 28.517 113.522 27.9154 113.69L27.839 113.716C27.7221 113.762 27.6154 113.839 27.5273 113.941C27.4215 114.064 27.3465 114.219 27.3106 114.39L27.1953 115.186Z" fill="#F5D3BA"/>
<path opacity="0.1" d="M27.1953 115.186L29.0766 115.401L31.6857 114.679L32.4744 113.74L32.4105 113.51L31.6857 114.173C31.6857 114.173 30.3515 115.041 29.6829 114.896H27.8032L28.1663 114.318L27.839 113.716C27.7221 113.762 27.6154 113.839 27.5273 113.941C27.4215 114.064 27.3465 114.219 27.3106 114.39L27.1953 115.186Z" fill="black"/>
<path d="M27.8032 114.969L28.1664 114.39L27.8032 113.722C27.8032 113.722 26.7122 114.245 26.2243 114.173C25.7365 114.1 25.4965 115.113 26.4067 115.401C27.3169 115.689 32.4745 115.401 32.4745 115.401C32.4745 115.401 33.3847 114.896 32.4745 113.523L31.6858 114.237C31.6858 114.237 30.3516 115.106 29.6829 114.961L27.8032 114.969Z" fill="#2E3037"/>
<path d="M29.3203 73.069C29.3203 73.069 32.2334 73.429 31.8141 71.9853C31.6959 71.5751 31.6648 71.1365 31.7237 70.7086C31.7999 70.1785 31.9763 69.6759 32.2396 69.239L29.5089 69.7455C29.6719 70.0712 29.7962 70.4221 29.8783 70.7884C30.1978 72.3211 29.3203 73.069 29.3203 73.069Z" fill="#DB8B8B"/>
<path d="M34.2955 89.5391C34.2955 89.5391 34.2347 92.6454 33.6284 94.1633L33.5006 98.5685C33.5006 98.5685 33.683 102.614 34.0461 103.41C34.4093 104.206 33.2575 110.923 33.2575 110.923V112.077C33.2575 112.077 31.317 112.946 30.7637 111.934L31.3185 103.337L31.0801 91.4133L34.2955 89.5391Z" fill="#335B63"/>
<path opacity="0.1" d="M34.2955 89.5391C34.2955 89.5391 34.2347 92.6454 33.6284 94.1633L33.5006 98.5685C33.5006 98.5685 33.683 102.614 34.0461 103.41C34.4093 104.206 33.2575 110.923 33.2575 110.923V112.077C33.2575 112.077 31.317 112.946 30.7637 111.934L31.3185 103.337L31.0801 91.4133L34.2955 89.5391Z" fill="#4C7660"/>
<path d="M35.5081 79.5693L35.8712 80.7254L36.1752 83.1822C36.2163 83.5243 36.1883 83.8732 36.0934 84.1998C35.9986 84.5264 35.8396 84.8214 35.6296 85.0601C34.9018 85.9267 33.9307 87.734 33.9307 87.734L32.7773 83.6201C32.7773 83.6201 33.9307 83.403 33.7484 82.4641C33.566 81.5251 33.6268 79.7901 33.6268 79.7901L35.5081 79.5693Z" fill="#DAB73B"/>
<path opacity="0.05" d="M35.5081 79.5693L35.8712 80.7254L36.1752 83.1822C36.2163 83.5243 36.1883 83.8732 36.0934 84.1998C35.9986 84.5264 35.8396 84.8214 35.6296 85.0601C34.9018 85.9267 33.9307 87.734 33.9307 87.734L32.7773 83.6201C32.7773 83.6201 33.9307 83.403 33.7484 82.4641C33.566 81.5251 33.6268 79.7901 33.6268 79.7901L35.5081 79.5693Z" fill="black"/>
<path opacity="0.1" d="M30.1172 112.722C30.8965 114.18 32.106 113.353 32.3211 113.188L32.2338 112.874L30.4741 112.295C30.3849 112.469 30.2626 112.615 30.1172 112.722Z" fill="black"/>
<path d="M27.6816 92.3563C27.7424 93.3676 28.7727 97.0528 28.7727 97.0528L29.5006 100.085C30.0229 102.228 30.292 104.448 30.3001 106.68C30.2847 107.383 30.3652 108.084 30.5386 108.756C31.0249 110.345 30.0539 112.512 30.0539 112.512C30.9033 114.317 32.3591 113.091 32.3591 113.091V111.935C32.3591 111.935 33.5125 105.65 33.2085 104.421C32.9046 103.193 32.7846 99.8696 32.7846 99.8696V93.8742C33.754 92.7186 34.3425 91.1868 34.443 89.558C34.4586 89.3223 34.4695 89.0737 34.4773 88.8158C34.5271 87.1847 33.5904 85.2752 33.2304 84.5924C33.1431 84.4291 33.0885 84.3363 33.0885 84.3363L27.7237 86.8674H27.7113V87.1142V87.6616L27.6816 92.3563Z" fill="#3D6973"/>
<path opacity="0.1" d="M29.502 69.7455C29.665 70.0712 29.7893 70.4221 29.8713 70.7884C30.1677 70.9234 30.4838 70.9859 30.8009 70.9722C31.1179 70.9585 31.4294 70.8689 31.7168 70.7086C31.7929 70.1785 31.9693 69.6759 32.2327 69.239L29.502 69.7455Z" fill="black"/>
<path d="M30.7137 70.8289C32.0204 70.8289 33.0797 69.5677 33.0797 68.012C33.0797 66.4563 32.0204 65.1952 30.7137 65.1952C29.407 65.1952 28.3477 66.4563 28.3477 68.012C28.3477 69.5677 29.407 70.8289 30.7137 70.8289Z" fill="#DB8B8B"/>
<path opacity="0.1" d="M27.6816 87.6615H27.7066C30.2518 88.2831 33.4455 85.1267 33.4455 85.1267C33.3601 84.9544 33.2861 84.7744 33.2241 84.5885C33.1369 84.4252 33.0823 84.3325 33.0823 84.3325L27.7237 86.8672L27.7097 87.1196L27.6816 87.6615Z" fill="black"/>
<path d="M28.3575 72.9967C28.3575 72.9967 31.7553 70.5399 32.8479 71.5512L34.3645 73.8633C34.3645 73.8633 35.3355 74.2233 35.1532 76.5354L35.881 80.7254L33.699 81.3767C33.699 81.3767 32.41 82.8204 33.4465 84.9191C33.4465 84.9191 30.231 88.0977 27.6795 87.4483L27.8603 84.0525C27.8603 84.0525 28.4074 82.1746 27.4364 80.4415C26.4654 78.7083 27.3756 77.0457 28.2858 76.3944C28.289 76.3832 28.7145 73.6462 28.3575 72.9967Z" fill="#D0AF38"/>
<path d="M28.1673 87.734C28.1673 87.734 26.8939 88.0216 26.2861 89.1777C26.1116 89.5253 25.8982 89.8431 25.6517 90.1222C25.5962 90.1822 25.5533 90.2569 25.5264 90.3402C25.4994 90.4235 25.4891 90.5131 25.4964 90.6019C25.5037 90.6908 25.5283 90.7764 25.5682 90.8519C25.6082 90.9274 25.6624 90.9908 25.7265 91.037C26.2081 91.3803 26.9937 91.5937 27.985 90.6232C29.6839 88.9606 28.1673 87.734 28.1673 87.734Z" fill="#F5D3BA"/>
<path opacity="0.1" d="M30.048 74.3676C30.048 74.3676 31.2622 74.2228 31.5645 77.9805C31.8669 81.7381 32.3532 82.6047 32.3532 82.6047C32.3532 82.6047 32.6571 84.5549 31.9293 85.711C31.2014 86.867 29.8049 89.322 29.8049 89.322C29.8049 89.322 28.2883 89.8286 27.9844 88.0231L29.8656 83.8331C29.8656 83.8331 30.1696 82.3894 29.4417 81.3781C28.7138 80.3668 28.1667 73.6458 30.048 74.3676Z" fill="#59A522"/>
<path d="M29.9269 74.1558C29.9269 74.1558 31.1411 74.0111 31.4434 77.7668C31.7458 81.5226 32.2337 82.391 32.2337 82.391C32.2337 82.391 32.5361 84.3412 31.8082 85.4973C31.0803 86.6533 29.6838 89.1083 29.6838 89.1083C29.6838 89.1083 28.1672 89.6149 27.8633 87.8094L29.7445 83.6194C29.7445 83.6194 30.0485 82.1739 29.3206 81.1626C28.5927 80.1513 28.0456 73.4284 29.9269 74.1558Z" fill="#DAB73B"/>
<path opacity="0.1" d="M28.9256 76.8597C28.9256 76.8597 28.804 79.0995 29.3496 80.3279C29.8951 81.5563 29.8966 83.1447 29.3496 84.0132" fill="black"/>
<path opacity="0.1" d="M28.6211 74.1154C28.6211 74.1154 29.1074 73.5382 30.5024 73.4659C31.8973 73.3935 32.5052 72.8869 32.5052 72.8869" fill="black"/>
<path opacity="0.1" d="M31.9972 64.37C32.3651 64.4239 32.7875 64.5742 32.9199 64.988C32.955 65.1444 32.9831 65.303 33.0041 65.463C33.1413 66.0939 33.7382 66.3908 34.1061 66.8714C34.4318 67.2963 34.5736 67.8734 34.6796 68.4338C34.9817 70.044 35.0539 71.7032 34.8932 73.3419C34.7747 74.5407 34.5331 75.7208 34.4645 76.9233C34.396 78.1257 34.5207 79.3931 35.074 80.4044C35.3109 80.8386 35.6242 81.2209 35.7925 81.7033C35.4449 82.0392 34.9649 82.0874 34.5175 82.106C33.998 82.1258 33.4784 82.1258 32.9589 82.106C32.6839 82.1197 32.4102 82.0521 32.1624 81.9093C31.9872 81.7765 31.8434 81.5925 31.7447 81.3749C31.447 80.7718 31.3707 80.0481 31.3831 79.3467C31.3956 78.6453 31.4891 77.9513 31.5 77.2517C31.5 76.8695 31.4813 76.4649 31.2974 76.1532C31.1462 75.9448 30.9751 75.758 30.7877 75.5965C30.1393 74.9118 29.9165 73.8114 29.8946 72.7797C29.8728 71.748 30.0147 70.7125 29.9414 69.6827C29.9133 69.28 29.7855 68.7957 29.4535 68.7177C29.3488 68.7109 29.2446 68.6948 29.1418 68.6695C28.8737 68.547 28.9002 68.098 28.8301 67.7695C28.7444 67.3984 28.481 67.1163 28.4061 66.7434C28.2316 65.8694 29.1652 64.8265 29.7777 64.5166C30.3903 64.2067 31.3395 64.2735 31.9972 64.37Z" fill="black"/>
<path d="M32.0597 64.2247C32.4276 64.2803 32.8484 64.4306 32.9824 64.8426C33.0176 64.9996 33.0457 65.1588 33.0666 65.3195C33.2037 65.9504 33.8007 66.2473 34.1685 66.726C34.4943 67.151 34.6361 67.7281 34.7421 68.2885C35.0442 69.8986 35.1164 71.5579 34.9556 73.1966C34.8372 74.3953 34.5956 75.5755 34.527 76.7779C34.4584 77.9803 34.5831 79.2477 35.1364 80.259C35.3734 80.6932 35.6866 81.0755 35.855 81.558C35.5074 81.8938 35.0273 81.9421 34.58 81.9606C34.0605 81.9804 33.5383 81.9804 33.0136 81.9606C32.7385 81.9743 32.4649 81.9067 32.2171 81.7639C32.0423 81.6313 31.8986 81.4481 31.7994 81.2314C31.5002 80.6264 31.4254 79.9027 31.4378 79.2013C31.4503 78.4999 31.5438 77.8059 31.5547 77.1063C31.5547 76.7259 31.536 76.3196 31.3521 76.0078C31.2005 75.7999 31.0295 75.6131 30.8424 75.4511C30.194 74.7664 29.9696 73.6679 29.9478 72.6343C29.9259 71.6007 30.0693 70.5672 29.9961 69.5373C29.968 69.1346 29.8402 68.6503 29.5082 68.5724C29.4035 68.5655 29.2993 68.5494 29.1965 68.5241C28.9284 68.4017 28.9549 67.9526 28.8848 67.6242C28.7991 67.253 28.5356 66.971 28.4608 66.598C28.2863 65.7259 29.2199 64.6812 29.8324 64.3713C30.445 64.0614 31.402 64.1356 32.0597 64.2247Z" fill="#472727"/>
<path opacity="0.1" d="M149.805 129.146C151.871 129.146 153.546 128.871 153.546 128.533C153.546 128.195 151.871 127.921 149.805 127.921C147.739 127.921 146.064 128.195 146.064 128.533C146.064 128.871 147.739 129.146 149.805 129.146Z" fill="#3ACC6C"/>
<path opacity="0.1" d="M135.475 130.877C137.541 130.877 139.216 130.602 139.216 130.264C139.216 129.926 137.541 129.652 135.475 129.652C133.409 129.652 131.734 129.926 131.734 130.264C131.734 130.602 133.409 130.877 135.475 130.877Z" fill="#3ACC6C"/>
<path opacity="0.1" d="M118.598 128.535C120.664 128.535 122.339 128.261 122.339 127.923C122.339 127.585 120.664 127.311 118.598 127.311C116.532 127.311 114.857 127.585 114.857 127.923C114.857 128.261 116.532 128.535 118.598 128.535Z" fill="#3ACC6C"/>
<path opacity="0.1" d="M141.212 135.624C142.68 135.624 143.871 135.429 143.871 135.189C143.871 134.95 142.68 134.755 141.212 134.755C139.743 134.755 138.553 134.95 138.553 135.189C138.553 135.429 139.743 135.624 141.212 135.624Z" fill="#3ACC6C"/>
<path opacity="0.1" d="M126.339 135.188C127.807 135.188 128.998 134.993 128.998 134.753C128.998 134.514 127.807 134.319 126.339 134.319C124.87 134.319 123.68 134.514 123.68 134.753C123.68 134.993 124.87 135.188 126.339 135.188Z" fill="#3ACC6C"/>
<path d="M135.395 130.125C135.395 130.125 140.641 109.65 134.574 101.448C130.035 95.3137 124.884 96.0466 122.572 96.8093C121.975 96.9989 121.42 97.3406 120.944 97.811C120.469 98.2813 120.085 98.869 119.82 99.5333C119.014 101.604 119.159 104.968 124.854 108.893C134.388 115.464 134.985 124.48 134.985 124.48L135.395 130.125Z" fill="#3ACC6C"/>
<path d="M123.398 99.71C123.398 99.71 138.865 105.462 135.4 130.125" stroke="#568764" stroke-miterlimit="10"/>
<path d="M132.432 101.776C132.432 101.776 130.301 103.483 130.979 106.044" stroke="#568764" stroke-miterlimit="10"/>
<path d="M124.947 103.29C124.947 103.29 126.25 101.712 127.834 102.583" stroke="#568764" stroke-miterlimit="10"/>
<path d="M131.07 111.224C131.07 111.224 133.355 109.844 133.946 111.573" stroke="#568764" stroke-miterlimit="10"/>
<path d="M136.72 114.104C136.72 114.104 135.005 113.941 134.973 114.919" stroke="#568764" stroke-miterlimit="10"/>
<path d="M135.607 130.289C135.607 130.289 129.463 115.406 127.775 115.733C126.973 115.887 126.604 116.826 126.436 117.774C126.229 118.994 126.346 120.26 126.771 121.396C127.64 123.773 129.978 128.296 135.607 130.289Z" fill="#3ACC6C"/>
<path d="M127.82 118.557C127.82 118.557 134.27 129.691 135.517 130.181" stroke="#568764" stroke-miterlimit="10"/>
<path d="M127.227 120.296H128.732" stroke="#568764" stroke-miterlimit="10"/>
<path d="M129.031 124.369L131.391 124.491" stroke="#568764" stroke-miterlimit="10"/>
<path d="M130.465 121.111L130.209 122.575" stroke="#568764" stroke-miterlimit="10"/>
<path d="M132.975 125.564L132.93 126.895" stroke="#568764" stroke-miterlimit="10"/>
<path d="M135.426 130.289C135.426 130.289 141.57 115.406 143.258 115.733C144.061 115.887 144.43 116.826 144.597 117.774C144.804 118.994 144.687 120.26 144.262 121.396C143.384 123.773 141.046 128.296 135.426 130.289Z" fill="#3ACC6C"/>
<path d="M143.213 118.557C143.213 118.557 136.763 129.691 135.518 130.181" stroke="#568764" stroke-miterlimit="10"/>
<path d="M143.804 120.296H142.299" stroke="#568764" stroke-miterlimit="10"/>
<path d="M142.002 124.369L139.643 124.491" stroke="#568764" stroke-miterlimit="10"/>
<path d="M140.566 121.111L140.822 122.575" stroke="#568764" stroke-miterlimit="10"/>
<path d="M138.057 125.564L138.102 126.895" stroke="#568764" stroke-miterlimit="10"/>
<path d="M124.874 133.764C124.707 133.602 124.585 133.382 124.525 133.135C124.498 133.011 124.507 132.88 124.552 132.763C124.596 132.647 124.673 132.552 124.77 132.495C124.994 132.393 125.237 132.579 125.415 132.766C125.593 132.953 125.805 133.167 126.039 133.128C125.916 132.995 125.825 132.828 125.773 132.641C125.721 132.454 125.711 132.254 125.742 132.061C125.753 131.982 125.782 131.907 125.825 131.846C125.95 131.686 126.176 131.755 126.325 131.879C126.793 132.276 126.932 133.044 126.935 133.735C126.958 133.481 126.958 133.224 126.935 132.97C126.926 132.843 126.943 132.715 126.985 132.597C127.027 132.479 127.093 132.375 127.176 132.295C127.289 132.222 127.416 132.186 127.544 132.191C127.65 132.173 127.758 132.182 127.861 132.217C127.964 132.251 128.059 132.312 128.141 132.393C128.322 132.623 128.275 133.011 128.118 133.265C127.94 133.503 127.729 133.702 127.494 133.853C127.318 133.979 127.167 134.151 127.053 134.354C127.04 134.383 127.029 134.413 127.02 134.444H125.685C125.39 134.262 125.118 134.033 124.874 133.764Z" fill="#3ACC6C"/>
<path d="M148.288 127.77C148.121 127.608 147.999 127.388 147.939 127.141C147.912 127.018 147.921 126.887 147.966 126.771C148.01 126.655 148.086 126.56 148.182 126.503C148.407 126.399 148.65 126.585 148.829 126.772C149.008 126.959 149.219 127.173 149.452 127.143C149.33 127.011 149.239 126.843 149.187 126.656C149.135 126.469 149.124 126.269 149.156 126.076C149.167 125.997 149.196 125.923 149.239 125.861C149.364 125.701 149.59 125.77 149.739 125.894C150.207 126.291 150.346 127.06 150.349 127.75C150.372 127.496 150.372 127.239 150.349 126.985C150.34 126.858 150.357 126.73 150.399 126.612C150.441 126.494 150.507 126.391 150.59 126.31C150.703 126.237 150.83 126.201 150.958 126.206C151.064 126.188 151.171 126.197 151.274 126.231C151.377 126.266 151.472 126.327 151.553 126.408C151.736 126.638 151.688 127.026 151.53 127.28C151.353 127.519 151.142 127.718 150.907 127.869C150.73 127.995 150.58 128.166 150.466 128.37C150.453 128.398 150.442 128.428 150.433 128.459H149.097C148.803 128.274 148.53 128.042 148.288 127.77Z" fill="#3ACC6C"/>
<path d="M140.487 133.764C140.319 133.602 140.197 133.383 140.136 133.135C140.109 133.011 140.119 132.88 140.163 132.763C140.208 132.647 140.285 132.552 140.381 132.495C140.606 132.393 140.849 132.579 141.028 132.766C141.207 132.953 141.418 133.167 141.651 133.128C141.529 132.996 141.437 132.828 141.385 132.641C141.333 132.454 141.323 132.254 141.355 132.061C141.365 131.981 141.394 131.907 141.438 131.846C141.563 131.686 141.787 131.755 141.937 131.879C142.404 132.276 142.545 133.044 142.546 133.735C142.573 133.481 142.576 133.225 142.555 132.97C142.546 132.843 142.563 132.715 142.605 132.597C142.647 132.479 142.712 132.375 142.795 132.295C142.908 132.222 143.035 132.186 143.163 132.191C143.269 132.173 143.377 132.182 143.48 132.216C143.583 132.251 143.678 132.311 143.76 132.393C143.941 132.623 143.894 133.011 143.737 133.265C143.559 133.503 143.348 133.702 143.113 133.853C142.936 133.978 142.785 134.15 142.672 134.354C142.659 134.383 142.648 134.413 142.64 134.444H141.302C141.006 134.262 140.732 134.034 140.487 133.764Z" fill="#3ACC6C"/>
<path d="M118.356 121.649C118.356 121.649 117.854 122.428 118.587 123.606C119.32 124.785 119.924 125.779 119.678 126.514C119.678 126.514 118.573 124.326 117.674 124.287C116.774 124.248 117.367 122.959 118.356 121.649Z" fill="#3ACC6C"/>
<path opacity="0.1" d="M118.355 121.649C118.311 121.724 118.276 121.806 118.252 121.894C117.375 123.12 116.907 124.267 117.75 124.295C118.537 124.323 119.48 125.996 119.705 126.418C119.698 126.451 119.69 126.483 119.678 126.514C119.678 126.514 118.573 124.326 117.674 124.287C116.775 124.248 117.365 122.959 118.355 121.649Z" fill="black"/>
<path d="M117.422 122.644C117.422 122.918 117.448 123.141 117.48 123.141C117.511 123.141 117.537 122.918 117.537 122.644C117.537 122.369 117.506 122.499 117.473 122.499C117.441 122.499 117.422 122.369 117.422 122.644Z" fill="#FFD037"/>
<path d="M117.104 122.972C117.306 123.102 117.483 123.182 117.498 123.148C117.514 123.115 117.363 122.981 117.16 122.85C116.957 122.718 117.037 122.814 117.021 122.85C117.006 122.885 116.901 122.84 117.104 122.972Z" fill="#3ACC6C"/>
<path d="M121.004 121.649C121.004 121.649 121.504 122.428 120.771 123.606C120.039 124.785 119.436 125.779 119.68 126.514C119.68 126.514 120.785 124.326 121.686 124.287C122.587 124.248 121.993 122.959 121.004 121.649Z" fill="#3ACC6C"/>
<path opacity="0.1" d="M121.004 121.649C121.047 121.724 121.081 121.807 121.105 121.894C121.984 123.12 122.452 124.267 121.607 124.295C120.828 124.323 119.878 125.996 119.652 126.418C119.652 126.451 119.669 126.483 119.679 126.514C119.679 126.514 120.784 124.326 121.685 124.287C122.586 124.248 121.993 122.959 121.004 121.649Z" fill="black"/>
<path d="M121.934 122.644C121.934 122.918 121.909 123.141 121.876 123.141C121.843 123.141 121.818 122.918 121.818 122.644C121.818 122.369 121.851 122.499 121.882 122.499C121.913 122.499 121.934 122.369 121.934 122.644Z" fill="#FFD037"/>
<path d="M122.255 122.972C122.052 123.102 121.874 123.182 121.86 123.148C121.846 123.115 121.996 122.981 122.199 122.85C122.401 122.718 122.322 122.814 122.337 122.85C122.353 122.885 122.457 122.84 122.255 122.972Z" fill="#FFD037"/>
<path d="M121.775 126.412C121.775 126.412 120.372 126.36 119.951 126.002C119.531 125.644 117.796 125.217 117.691 125.792C117.587 126.367 115.584 128.648 117.168 128.663C118.751 128.678 120.843 128.37 121.265 128.064C121.688 127.757 121.775 126.412 121.775 126.412Z" fill="#A8A8A8"/>
<path opacity="0.2" d="M117.138 128.463C118.721 128.478 120.814 128.17 121.237 127.864C121.556 127.632 121.686 126.797 121.728 126.411H121.775C121.775 126.411 121.686 127.756 121.265 128.062C120.844 128.368 118.749 128.676 117.167 128.662C116.711 128.662 116.552 128.463 116.561 128.177C116.625 128.352 116.798 128.459 117.138 128.463Z" fill="black"/>
<path opacity="0.1" d="M26.0737 131.975C29.0624 131.975 31.4852 131.549 31.4852 131.023C31.4852 130.497 29.0624 130.071 26.0737 130.071C23.0849 130.071 20.6621 130.497 20.6621 131.023C20.6621 131.549 23.0849 131.975 26.0737 131.975Z" fill="#3ACC6C"/>
<path opacity="0.1" d="M39.1772 140.52C42.1659 140.52 44.5887 140.094 44.5887 139.568C44.5887 139.043 42.1659 138.616 39.1772 138.616C36.1885 138.616 33.7656 139.043 33.7656 139.568C33.7656 140.094 36.1885 140.52 39.1772 140.52Z" fill="#3ACC6C"/>
<path opacity="0.1" d="M96.9856 117.78C98.9646 117.78 100.569 117.567 100.569 117.303C100.569 117.04 98.9646 116.826 96.9856 116.826C95.0066 116.826 93.4023 117.04 93.4023 117.303C93.4023 117.567 95.0066 117.78 96.9856 117.78Z" fill="#3ACC6C"/>
<path opacity="0.1" d="M80.2356 131.501C82.2146 131.501 83.8189 131.287 83.8189 131.024C83.8189 130.76 82.2146 130.547 80.2356 130.547C78.2566 130.547 76.6523 130.76 76.6523 131.024C76.6523 131.287 78.2566 131.501 80.2356 131.501Z" fill="#3ACC6C"/>
<path opacity="0.1" d="M72.6829 140.046C74.6619 140.046 76.2662 139.832 76.2662 139.569C76.2662 139.305 74.6619 139.092 72.6829 139.092C70.7039 139.092 69.0996 139.305 69.0996 139.569C69.0996 139.832 70.7039 140.046 72.6829 140.046Z" fill="#3ACC6C"/>
<defs>
<linearGradient id="paint0_linear" x1="30.846" y1="115.943" x2="30.846" y2="63.4956" gradientUnits="userSpaceOnUse">
<stop stop-color="#808080" stop-opacity="0.25"/>
<stop offset="0.54" stop-color="#808080" stop-opacity="0.12"/>
<stop offset="1" stop-color="#808080" stop-opacity="0.1"/>
</linearGradient>
</defs>
</svg>
