<svg width="150" height="108" viewBox="0 0 150 108" fill="none" xmlns="http://www.w3.org/2000/svg">
<path opacity="0.1" d="M75 107.827C116.421 107.827 150 103.741 150 98.7002C150 93.6595 116.421 89.5732 75 89.5732C33.5786 89.5732 0 93.6595 0 98.7002C0 103.741 33.5786 107.827 75 107.827Z" fill="#3ACC6C"/>
<path opacity="0.1" d="M85.4841 12.7638C78.0727 12.5059 71.0141 10.111 64.2748 7.49042C57.5355 4.86985 50.858 1.96587 43.6236 0.585072C38.972 -0.30815 33.6509 -0.43441 29.9023 2.06258C26.2972 4.45884 25.1299 8.60661 24.5033 12.4562C24.0311 15.3521 23.7533 18.3998 25.04 21.1104C25.9376 22.9909 27.5302 24.5758 28.6317 26.3784C32.4635 32.6511 29.7547 40.3865 25.6022 46.5128C23.654 49.3859 21.3947 52.126 19.8906 55.1858C18.3866 58.2456 17.693 61.7486 19.0078 64.8689C20.3119 67.9582 23.4179 70.2846 26.7828 71.9179C33.6174 75.237 41.6755 76.1866 49.5257 76.7239C66.9112 77.9153 84.3893 77.3955 101.82 76.8824C108.273 76.6917 114.752 76.4982 121.098 75.5002C124.622 74.9455 128.261 74.0644 130.818 71.9394C134.066 69.2423 134.871 64.6741 132.697 61.292C129.046 55.6183 118.952 54.2093 116.4 48.1206C114.997 44.7694 116.439 41.0366 118.48 37.9285C122.858 31.2595 130.197 25.4099 130.585 17.7887C130.853 12.5502 127.322 7.31178 121.864 4.83493C116.146 2.23988 108.216 2.56628 103.998 6.86315C99.6616 11.289 92.0275 12.9908 85.4841 12.7638Z" fill="#3ACC6C"/>
<path d="M79.5614 42.5089H76.2246C76.2268 42.2513 76.2429 41.9939 76.2729 41.7379C76.3776 40.8273 76.6996 39.3498 77.6978 38.6567C78.6302 38.0092 79.8445 38.9857 79.3682 40.0187L79.3561 40.0469C79.1776 40.4203 79.1723 40.885 79.2313 41.3108C79.2939 41.7218 79.4047 42.1239 79.5614 42.5089Z" fill="#3ACC6C"/>
<path opacity="0.1" d="M79.5614 42.5091H76.2246C76.2268 42.2514 76.2429 41.994 76.2729 41.7381C77.2146 41.3846 78.2215 41.239 79.2246 41.311C79.2894 41.7222 79.4024 42.1244 79.5614 42.5091Z" fill="black"/>
<path d="M81.7254 46.0457C80.86 46.7508 79.6498 46.7616 78.4114 46.4594C75.8757 45.8388 73.2285 43.8965 73.2285 43.8965C73.4087 43.6964 73.6024 43.5088 73.8081 43.3351C74.852 42.4378 77.2442 40.8515 80.4468 41.64C81.23 41.82 81.9199 42.2818 82.3855 42.9375C82.9155 43.7139 83.1918 44.8516 81.7254 46.0457Z" fill="#3ACC6C"/>
<path opacity="0.1" d="M80.7063 44.6312C80.7063 44.6312 78.777 42.9858 76.1191 45.1685L80.7063 44.6312Z" fill="black"/>
<path d="M26.4492 58.4928C26.4492 58.4928 20.2319 53.703 19.9193 58.0455C19.6066 62.3881 21.171 66.4633 22.5127 66.8206C23.8544 67.1779 26.4492 58.4928 26.4492 58.4928Z" fill="#33B25F"/>
<path opacity="0.2" d="M26.4492 58.4928C26.4492 58.4928 20.2319 53.703 19.9193 58.0455C19.6066 62.3881 21.171 66.4633 22.5127 66.8206C23.8544 67.1779 26.4492 58.4928 26.4492 58.4928Z" fill="#3ACC6C"/>
<path opacity="0.1" d="M22.3789 60.0161C22.3789 60.0161 22.5251 64.012 23.7662 63.374C25.0072 62.736 23.1839 60.1947 22.3789 60.0161Z" fill="black"/>
<path d="M41.7265 92.547C41.5803 93.1624 41.3548 93.7561 41.0557 94.3133C40.9792 94.4584 40.896 94.6075 40.8048 94.7592C39.341 97.1958 35.9573 98.2072 35.9573 97.6699C35.9573 97.1327 35.6232 95.7438 34.7726 96.1468C33.922 96.5497 32.6259 96.4611 32.6259 96.4611C30.2847 96.2824 30.6805 93.9721 31.4559 92.0151C31.7139 91.3718 32.0086 90.7439 32.3388 90.1346C32.6313 89.5973 32.85 89.2454 32.85 89.2454L41.7949 90.6786C41.7949 90.6786 41.9949 91.3851 41.7265 92.547Z" fill="#3ACC6C"/>
<path opacity="0.1" d="M78.4114 46.4593C75.8757 45.8388 73.2285 43.8965 73.2285 43.8965C73.4087 43.6964 73.6024 43.5088 73.8081 43.3351C74.1945 43.5392 74.5827 43.7564 74.9727 43.9865C76.1952 44.6989 77.3467 45.527 78.4114 46.4593Z" fill="black"/>
<path opacity="0.1" d="M41.7258 92.5471C39.2987 92.3295 35.7835 91.7317 32.334 90.1414C32.6265 89.6041 32.8452 89.2522 32.8452 89.2522L41.7902 90.6854C41.7902 90.6854 41.9941 91.3852 41.7258 92.5471Z" fill="black"/>
<path d="M79.4012 80.9243C79.4012 80.9243 79.2402 83.7947 77.6221 87.0385C76.3762 89.5896 74.4543 91.7492 72.0662 93.2816C72.0662 93.2816 70.636 94.4462 70.5461 91.2225C70.5461 91.2225 69.9195 90.5509 65.6261 93.4858C65.6261 93.4858 63.0353 95.0708 63.7478 88.4582C63.7478 88.4582 63.7478 88.4502 63.7478 88.4461C63.7478 88.4421 63.6834 88.4878 63.5653 88.559H63.5573C63.2514 88.747 62.602 89.1325 61.8292 89.5207C60.4137 90.2326 58.5796 90.9566 57.67 90.4999C57.4611 92.1735 56.9453 93.7942 56.1485 95.2803C55.2469 96.923 53.8247 98.5295 51.5975 99.2548C51.0359 99.4351 50.4355 99.4565 49.8625 99.3166C49.2896 99.1768 48.7663 98.8811 48.3506 98.4623L48.0957 98.2071C48.0957 98.2071 46.1275 99.5503 45.144 99.1017C44.1606 98.6531 43.3542 97.4012 44.6959 95.0721C44.6959 95.0721 44.767 94.8787 44.8542 94.5953C45.0729 93.8767 45.3909 92.5805 44.8757 92.3857C44.8757 92.3857 24.034 93.4603 21.2621 74.9242C18.4902 56.3882 36.8256 49.5836 42.0125 50.2995C42.0125 50.2995 55.7876 32.928 74.8395 44.1208C93.8913 55.3136 79.4012 80.9243 79.4012 80.9243Z" fill="#3ACC6C"/>
<path opacity="0.1" d="M42.0117 50.2995C42.0117 50.2995 64.7157 50.2109 63.158 79.6711" stroke="black" stroke-miterlimit="10"/>
<path opacity="0.8" d="M41.0557 94.313C40.9792 94.4581 40.896 94.6072 40.8048 94.7589C39.341 97.1955 35.9573 98.2069 35.9573 97.6696C35.9573 97.1323 35.6232 95.7435 34.7726 96.1465C33.922 96.5494 32.6259 96.4608 32.6259 96.4608C30.2847 96.2821 30.6805 93.9718 31.456 92.0148C33.6509 93.1176 37.621 94.7603 41.0557 94.313Z" fill="#2EA356"/>
<path opacity="0.2" d="M56.1481 95.2802C55.2464 96.9229 53.8243 98.5294 51.5971 99.2547C51.0355 99.435 50.435 99.4564 49.8621 99.3165C49.2891 99.1767 48.7659 98.881 48.3502 98.4622L48.0953 98.207C48.0953 98.207 46.127 99.5502 45.1436 99.1016C44.1601 98.6529 43.3538 97.4011 44.6954 95.072C44.6954 95.072 44.7665 94.8786 44.8538 94.5952C46.6073 95.2144 51.2522 96.532 56.1481 95.2802Z" fill="black"/>
<path opacity="0.1" d="M63.748 88.4458C71.8424 84.2376 73.2297 80.8796 73.2297 80.8796L63.748 88.4458Z" fill="black"/>
<path opacity="0.2" d="M77.6214 87.0384C76.3754 89.5896 74.4536 91.7492 72.0654 93.2816C72.0654 93.2816 70.6352 94.4461 70.5453 91.2224C70.5453 91.2224 69.9188 90.5508 65.6254 93.4857C65.6254 93.4857 63.0346 95.0707 63.747 88.4582L65.8937 87.2667C70.5198 89.8416 75.1674 88.2714 77.6214 87.0384Z" fill="black"/>
<path d="M44.4277 52.8971C44.4277 52.8971 48.9894 45.9125 52.4322 48.106C55.875 50.2994 51.807 58.4929 51.807 58.4929C51.807 58.4929 45.053 58.3585 44.4277 52.8971Z" fill="#33B25F"/>
<path opacity="0.2" d="M44.4277 52.8971C44.4277 52.8971 48.9894 45.9125 52.4322 48.106C55.875 50.2994 51.807 58.4929 51.807 58.4929C51.807 58.4929 45.053 58.3585 44.4277 52.8971Z" fill="#3ACC6C"/>
<path opacity="0.1" d="M51.8519 50.9712C51.8519 50.9712 45.8586 53.8819 47.6927 55.5837C49.5268 57.2855 51.8519 50.9712 51.8519 50.9712Z" fill="black"/>
<path opacity="0.1" d="M37.406 79.3148C41.9105 78.2736 44.864 74.402 44.0027 70.6673C43.1415 66.9325 38.7916 64.7489 34.2871 65.79C29.7825 66.8311 26.8291 70.7027 27.6903 74.4375C28.5516 78.1723 32.9015 80.3559 37.406 79.3148Z" fill="black"/>
<path d="M37.406 79.0465C41.9105 78.0053 44.864 74.1337 44.0027 70.3989C43.1415 66.6642 38.7916 64.4805 34.2871 65.5217C29.7825 66.5628 26.8291 70.4344 27.6903 74.1692C28.5516 77.904 32.9014 80.0876 37.406 79.0465Z" fill="#31AB5B"/>
<path opacity="0.2" d="M37.406 79.0465C41.9105 78.0053 44.864 74.1337 44.0027 70.3989C43.1415 66.6642 38.7916 64.4805 34.2871 65.5217C29.7825 66.5628 26.8291 70.4344 27.6903 74.1692C28.5516 77.904 32.9014 80.0876 37.406 79.0465Z" fill="#3ACC6C"/>
<path opacity="0.1" d="M32.3086 72.2823C32.3086 72.2823 32.3985 74.88 33.1592 74.1198C33.92 73.3595 33.2035 72.2796 32.3086 72.2823Z" fill="black"/>
<path opacity="0.1" d="M36.6465 70.3048C36.6465 70.3048 36.735 72.9025 37.4958 72.1423C38.2565 71.382 37.54 70.2967 36.6465 70.3048Z" fill="black"/>
<path opacity="0.1" d="M43.9883 85.178C43.9883 85.178 45.8586 87.0142 48.1394 84.4621L43.9883 85.178Z" fill="black"/>
<path opacity="0.15" d="M52.209 45.7769C53.2381 45.5082 57.039 47.1201 57.039 47.1201C58.6772 45.48 61.0641 44.4968 63.1584 43.9125L63.5958 41.9273C55.2895 42.0226 52.209 45.7769 52.209 45.7769Z" fill="black"/>
<path opacity="0.3" d="M63.6125 41.9273L63.1992 43.9004C64.6806 43.4925 66.1964 43.2227 67.7274 43.0945C65.7592 42.1059 63.6125 41.9273 63.6125 41.9273Z" fill="black"/>
<path opacity="0.15" d="M63.5949 41.9273L63.1602 43.9125L63.2017 43.9004L63.615 41.9273H63.5949Z" fill="black"/>
<g opacity="0.1">
<path opacity="0.1" d="M45.6363 95.9127C45.6363 95.9127 45.7074 95.7193 45.7946 95.4359C46.0133 94.7173 46.3313 93.4211 45.8161 93.2263C45.8161 93.2263 45.5773 93.2384 45.1452 93.2371C45.0982 93.7104 45.0006 94.1774 44.8541 94.6299C44.7669 94.9134 44.6958 95.1068 44.6958 95.1068C43.3541 97.4359 44.1591 98.6891 45.1439 99.1364L45.1962 99.1552C44.8004 98.4768 44.7682 97.4198 45.6363 95.9127Z" fill="white"/>
<path opacity="0.1" d="M22.2015 75.765C19.4283 57.229 38.3554 49.6963 43.5423 50.4176L42.0128 50.3397C36.8258 49.6238 18.4891 56.4284 21.2623 74.9645C22.1344 80.7926 24.7936 84.6811 28.0284 87.2748C25.2243 84.6959 22.9877 81.0182 22.2015 75.765Z" fill="white"/>
<path opacity="0.1" d="M64.6853 89.2987C64.6853 89.2987 64.6853 89.2907 64.6853 89.2866C64.6853 89.2826 64.6209 89.3283 64.5029 89.3994H64.4948C64.3137 89.5096 64.0118 89.6909 63.6361 89.9005C63.502 92.9562 64.2922 93.6184 64.9134 93.6762C64.5981 92.9629 64.4331 91.6533 64.6853 89.2987Z" fill="white"/>
<path opacity="0.1" d="M71.4853 92.0632C71.4853 92.0632 71.3243 91.8926 70.6133 92.1035C70.7984 93.436 71.3109 93.581 71.6758 93.5018C71.5507 93.0325 71.4867 92.5489 71.4853 92.0632Z" fill="white"/>
</g>
<path opacity="0.1" d="M44.875 92.3859C44.875 92.3859 56.5034 91.6699 57.6652 90.5054L44.875 92.3859Z" fill="black"/>
<path d="M72.7933 94.6073C75.5764 94.6073 77.8326 92.2097 77.8326 89.252C77.8326 86.2944 75.5764 83.8967 72.7933 83.8967C70.0101 83.8967 67.7539 86.2944 67.7539 89.252C67.7539 92.2097 70.0101 94.6073 72.7933 94.6073Z" fill="#FBD56F"/>
<path opacity="0.1" d="M72.7933 94.6073C75.5764 94.6073 77.8326 92.2097 77.8326 89.252C77.8326 86.2944 75.5764 83.8967 72.7933 83.8967C70.0101 83.8967 67.7539 86.2944 67.7539 89.252C67.7539 92.2097 70.0101 94.6073 72.7933 94.6073Z" fill="black"/>
<path d="M73.6643 94.6072C76.4474 94.6072 78.7036 92.2631 78.7036 89.3714C78.7036 86.4798 76.4474 84.1357 73.6643 84.1357C70.8812 84.1357 68.625 86.4798 68.625 89.3714C68.625 92.2631 70.8812 94.6072 73.6643 94.6072Z" fill="#FBD56F"/>
<path d="M75.7058 94.1157L75.1812 93.8242C75.1812 93.8242 74.9357 94.8477 75.0162 95.5784C75.0238 95.6519 75.0535 95.7213 75.1015 95.7774C75.1494 95.8336 75.2133 95.8738 75.2845 95.8927C76.4921 96.1923 82.2371 97.4696 86.1897 95.6698C86.2471 95.6438 86.2965 95.6031 86.3333 95.552C86.37 95.5009 86.3927 95.4409 86.399 95.3783C86.4487 94.9297 86.2769 94.0042 86.2085 93.8242C86.065 93.436 75.7058 94.1157 75.7058 94.1157Z" fill="#FBD56F"/>
<path opacity="0.1" d="M75.7058 94.1157L75.1812 93.8242C75.1812 93.8242 74.9357 94.8477 75.0162 95.5784C75.0238 95.6519 75.0535 95.7213 75.1015 95.7774C75.1494 95.8336 75.2133 95.8738 75.2845 95.8927C76.4921 96.1923 82.2371 97.4696 86.1897 95.6698C86.2471 95.6438 86.2965 95.6031 86.3333 95.552C86.37 95.5009 86.3927 95.4409 86.399 95.3783C86.4487 94.9297 86.2769 94.0042 86.2085 93.8242C86.065 93.436 75.7058 94.1157 75.7058 94.1157Z" fill="black"/>
<path d="M80.6973 95.0694C83.7435 95.0694 86.2129 94.5119 86.2129 93.8243C86.2129 93.1366 83.7435 92.5791 80.6973 92.5791C77.6511 92.5791 75.1816 93.1366 75.1816 93.8243C75.1816 94.5119 77.6511 95.0694 80.6973 95.0694Z" fill="#FBD56F"/>
<path d="M77.8178 92.2796L77.2945 91.9881C77.2945 91.9881 77.049 93.0116 77.1295 93.7423C77.137 93.8156 77.1667 93.8849 77.2147 93.9409C77.2626 93.9968 77.3265 94.0367 77.3978 94.0553C78.6053 94.3561 84.3504 95.6335 88.303 93.8336C88.3602 93.8074 88.4095 93.7668 88.4462 93.7157C88.4829 93.6645 88.5057 93.6048 88.5123 93.5422C88.5606 93.0935 88.3889 92.1681 88.3205 91.9881C88.1715 91.5999 77.8178 92.2796 77.8178 92.2796Z" fill="#FBD56F"/>
<path opacity="0.1" d="M77.8178 92.2796L77.2945 91.9881C77.2945 91.9881 77.049 93.0116 77.1295 93.7423C77.137 93.8156 77.1667 93.8849 77.2147 93.9409C77.2626 93.9968 77.3265 94.0367 77.3978 94.0553C78.6053 94.3561 84.3504 95.6335 88.303 93.8336C88.3602 93.8074 88.4095 93.7668 88.4462 93.7157C88.4829 93.6645 88.5057 93.6048 88.5123 93.5422C88.5606 93.0935 88.3889 92.1681 88.3205 91.9881C88.1715 91.5999 77.8178 92.2796 77.8178 92.2796Z" fill="black"/>
<path d="M82.8028 93.2333C85.849 93.2333 88.3184 92.6758 88.3184 91.9882C88.3184 91.3005 85.849 90.743 82.8028 90.743C79.7565 90.743 77.2871 91.3005 77.2871 91.9882C77.2871 92.6758 79.7565 93.2333 82.8028 93.2333Z" fill="#FBD56F"/>
<path d="M79.6765 89.866L79.1519 89.5745C79.1519 89.5745 78.9064 90.598 78.9869 91.3287C78.9945 91.4021 79.0242 91.4715 79.0722 91.5277C79.1201 91.5838 79.184 91.624 79.2552 91.643C80.4627 91.9425 86.2091 93.2199 90.1603 91.42C90.2176 91.3939 90.2672 91.3533 90.3041 91.3022C90.341 91.2511 90.3641 91.1912 90.371 91.1286C90.4193 90.6799 90.2475 89.7545 90.1791 89.5745C90.0355 89.1863 79.6765 89.866 79.6765 89.866Z" fill="#FBD56F"/>
<path opacity="0.1" d="M79.6765 89.866L79.1519 89.5745C79.1519 89.5745 78.9064 90.598 78.9869 91.3287C78.9945 91.4021 79.0242 91.4715 79.0722 91.5277C79.1201 91.5838 79.184 91.624 79.2552 91.643C80.4627 91.9425 86.2091 93.2199 90.1603 91.42C90.2176 91.3939 90.2672 91.3533 90.3041 91.3022C90.341 91.2511 90.3641 91.1912 90.371 91.1286C90.4193 90.6799 90.2475 89.7545 90.1791 89.5745C90.0355 89.1863 79.6765 89.866 79.6765 89.866Z" fill="black"/>
<path d="M84.666 90.8194C87.7123 90.8194 90.1817 90.2619 90.1817 89.5742C90.1817 88.8865 87.7123 88.3291 84.666 88.3291C81.6198 88.3291 79.1504 88.8865 79.1504 89.5742C79.1504 90.2619 81.6198 90.8194 84.666 90.8194Z" fill="#FBD56F"/>
<path d="M77.6117 87.3555L77.0871 87.0626C77.0871 87.0626 76.8429 88.0875 76.922 88.8169C76.9298 88.8902 76.9596 88.9596 77.0075 89.0157C77.0554 89.0718 77.1192 89.112 77.1904 89.1312C78.3979 89.4307 84.143 90.7081 88.0942 88.9095C88.1516 88.8835 88.2013 88.8429 88.2382 88.7918C88.2751 88.7407 88.2981 88.6808 88.3049 88.6181C88.3532 88.1694 88.1814 87.244 88.113 87.0626C87.9708 86.6731 77.6117 87.3555 77.6117 87.3555Z" fill="#FBD56F"/>
<path opacity="0.1" d="M77.6117 87.3555L77.0871 87.0626C77.0871 87.0626 76.8429 88.0875 76.922 88.8169C76.9298 88.8902 76.9596 88.9596 77.0075 89.0157C77.0554 89.0718 77.1192 89.112 77.1904 89.1312C78.3979 89.4307 84.143 90.7081 88.0942 88.9095C88.1516 88.8835 88.2013 88.8429 88.2382 88.7918C88.2751 88.7407 88.2981 88.6808 88.3049 88.6181C88.3532 88.1694 88.1814 87.244 88.113 87.0626C87.9708 86.6731 77.6117 87.3555 77.6117 87.3555Z" fill="black"/>
<path d="M82.6036 88.3062C85.6498 88.3062 88.1192 87.7487 88.1192 87.061C88.1192 86.3733 85.6498 85.8159 82.6036 85.8159C79.5573 85.8159 77.0879 86.3733 77.0879 87.061C77.0879 87.7487 79.5573 88.3062 82.6036 88.3062Z" fill="#FBD56F"/>
<path d="M82.2533 85.3407L81.7301 85.0479C81.7301 85.0479 81.4845 86.0727 81.565 86.8021C81.5725 86.8756 81.6021 86.9451 81.6501 87.0013C81.698 87.0574 81.762 87.0976 81.8334 87.1164C83.0409 87.4159 88.786 88.6933 92.7372 86.8948C92.7945 86.8685 92.844 86.8279 92.8809 86.7768C92.9178 86.7257 92.9409 86.6659 92.9479 86.6033C92.9962 86.1547 92.8245 85.2279 92.756 85.0479C92.6125 84.657 82.2533 85.3407 82.2533 85.3407Z" fill="#FBD56F"/>
<path opacity="0.1" d="M82.2533 85.3407L81.7301 85.0479C81.7301 85.0479 81.4845 86.0727 81.565 86.8021C81.5725 86.8756 81.6021 86.9451 81.6501 87.0013C81.698 87.0574 81.762 87.0976 81.8334 87.1164C83.0409 87.4159 88.786 88.6933 92.7372 86.8948C92.7945 86.8685 92.844 86.8279 92.8809 86.7768C92.9178 86.7257 92.9409 86.6659 92.9479 86.6033C92.9962 86.1547 92.8245 85.2279 92.756 85.0479C92.6125 84.657 82.2533 85.3407 82.2533 85.3407Z" fill="black"/>
<path d="M87.2442 86.2905C90.2904 86.2905 92.7599 85.733 92.7599 85.0453C92.7599 84.3577 90.2904 83.8002 87.2442 83.8002C84.198 83.8002 81.7285 84.3577 81.7285 85.0453C81.7285 85.733 84.198 86.2905 87.2442 86.2905Z" fill="#FBD56F"/>
<path d="M79.1175 83.9828L78.5929 83.6899C78.5929 83.6899 78.3487 84.7148 78.4279 85.4441C78.4357 85.5175 78.4655 85.5868 78.5134 85.6429C78.5613 85.6991 78.625 85.7393 78.6962 85.7584C79.9037 86.058 85.6488 87.3353 89.6001 85.5368C89.6575 85.5108 89.7071 85.4702 89.744 85.4191C89.781 85.368 89.8039 85.3081 89.8107 85.2453C89.859 84.7967 89.6873 83.8699 89.6188 83.6899C89.4766 83.3018 79.1175 83.9828 79.1175 83.9828Z" fill="#FBD56F"/>
<path opacity="0.1" d="M79.1175 83.9828L78.5929 83.6899C78.5929 83.6899 78.3487 84.7148 78.4279 85.4441C78.4357 85.5175 78.4655 85.5868 78.5134 85.6429C78.5613 85.6991 78.625 85.7393 78.6962 85.7584C79.9037 86.058 85.6488 87.3353 89.6001 85.5368C89.6575 85.5108 89.7071 85.4702 89.744 85.4191C89.781 85.368 89.8039 85.3081 89.8107 85.2453C89.859 84.7967 89.6873 83.8699 89.6188 83.6899C89.4766 83.3018 79.1175 83.9828 79.1175 83.9828Z" fill="black"/>
<path d="M84.1094 84.935C87.1556 84.935 89.625 84.3775 89.625 83.6898C89.625 83.0022 87.1556 82.4447 84.1094 82.4447C81.0632 82.4447 78.5938 83.0022 78.5938 83.6898C78.5938 84.3775 81.0632 84.935 84.1094 84.935Z" fill="#FBD56F"/>
<path d="M81.2104 81.3663L80.6871 81.0735C80.6871 81.0735 80.4416 82.0983 80.5221 82.8277C80.5295 82.9012 80.5592 82.9707 80.6071 83.0269C80.6551 83.0831 80.719 83.1232 80.7904 83.142C81.9979 83.4415 87.743 84.7189 91.6956 82.9204C91.7528 82.8943 91.8023 82.8536 91.839 82.8025C91.8757 82.7514 91.8984 82.6915 91.9049 82.6289C91.9532 82.1803 91.7815 81.2548 91.713 81.0735C91.5708 80.6853 81.2104 81.3663 81.2104 81.3663Z" fill="#FBD56F"/>
<path opacity="0.1" d="M81.2104 81.3663L80.6871 81.0735C80.6871 81.0735 80.4416 82.0983 80.5221 82.8277C80.5295 82.9012 80.5592 82.9707 80.6071 83.0269C80.6551 83.0831 80.719 83.1232 80.7904 83.142C81.9979 83.4415 87.743 84.7189 91.6956 82.9204C91.7528 82.8943 91.8023 82.8536 91.839 82.8025C91.8757 82.7514 91.8984 82.6915 91.9049 82.6289C91.9532 82.1803 91.7815 81.2548 91.713 81.0735C91.5708 80.6853 81.2104 81.3663 81.2104 81.3663Z" fill="black"/>
<path d="M86.2032 82.3185C89.2494 82.3185 91.7188 81.7611 91.7188 81.0734C91.7188 80.3857 89.2494 79.8282 86.2032 79.8282C83.1569 79.8282 80.6875 80.3857 80.6875 81.0734C80.6875 81.7611 83.1569 82.3185 86.2032 82.3185Z" fill="#FBD56F"/>
<path d="M82.2445 78.2607L81.7199 77.9679C81.7199 77.9679 81.4757 78.9928 81.5549 79.7221C81.5626 79.7955 81.5924 79.8649 81.6403 79.921C81.6882 79.9771 81.752 80.0173 81.8232 80.0365C83.0307 80.336 88.7758 81.6134 92.7271 79.8148C92.7845 79.7888 92.8341 79.7482 92.871 79.6971C92.908 79.646 92.9309 79.5861 92.9377 79.5234C92.986 79.0747 92.8143 78.1493 92.7458 77.9679C92.6023 77.5797 82.2445 78.2607 82.2445 78.2607Z" fill="#FBD56F"/>
<path opacity="0.1" d="M82.2445 78.2607L81.7199 77.9679C81.7199 77.9679 81.4757 78.9928 81.5549 79.7221C81.5626 79.7955 81.5924 79.8649 81.6403 79.921C81.6882 79.9771 81.752 80.0173 81.8232 80.0365C83.0307 80.336 88.7758 81.6134 92.7271 79.8148C92.7845 79.7888 92.8341 79.7482 92.871 79.6971C92.908 79.646 92.9309 79.5861 92.9377 79.5234C92.986 79.0747 92.8143 78.1493 92.7458 77.9679C92.6023 77.5797 82.2445 78.2607 82.2445 78.2607Z" fill="black"/>
<path d="M87.2344 79.213C90.2806 79.213 92.7501 78.6555 92.7501 77.9679C92.7501 77.2802 90.2806 76.7227 87.2344 76.7227C84.1882 76.7227 81.7188 77.2802 81.7188 77.9679C81.7188 78.6555 84.1882 79.213 87.2344 79.213Z" fill="#FBD56F"/>
<path d="M91.5554 94.8371L91.0308 94.5443C91.0308 94.5443 90.7853 95.5692 90.8658 96.2985C90.8734 96.372 90.9032 96.4414 90.9511 96.4975C90.999 96.5537 91.0629 96.5939 91.1342 96.6128C92.3417 96.9124 98.0868 98.1897 102.039 96.3912C102.097 96.3648 102.146 96.3238 102.183 96.2725C102.219 96.2212 102.242 96.1612 102.249 96.0984C102.298 95.6498 102.127 94.7243 102.058 94.5443C101.915 94.1561 91.5554 94.8371 91.5554 94.8371Z" fill="#FBD56F"/>
<path opacity="0.1" d="M91.5554 94.8371L91.0308 94.5443C91.0308 94.5443 90.7853 95.5692 90.8658 96.2985C90.8734 96.372 90.9032 96.4414 90.9511 96.4975C90.999 96.5537 91.0629 96.5939 91.1342 96.6128C92.3417 96.9124 98.0868 98.1897 102.039 96.3912C102.097 96.3648 102.146 96.3238 102.183 96.2725C102.219 96.2212 102.242 96.1612 102.249 96.0984C102.298 95.6498 102.127 94.7243 102.058 94.5443C101.915 94.1561 91.5554 94.8371 91.5554 94.8371Z" fill="black"/>
<path d="M96.5469 95.7894C99.5931 95.7894 102.063 95.2319 102.063 94.5442C102.063 93.8565 99.5931 93.2991 96.5469 93.2991C93.5007 93.2991 91.0312 93.8565 91.0312 94.5442C91.0312 95.2319 93.5007 95.7894 96.5469 95.7894Z" fill="#FBD56F"/>
<path d="M93.4164 92.4235L92.8918 92.1307C92.8918 92.1307 92.6476 93.1555 92.7267 93.8849C92.7345 93.9583 92.7643 94.0276 92.8122 94.0837C92.8601 94.1398 92.9239 94.18 92.9951 94.1992C94.2026 94.4987 99.9476 95.7761 103.899 93.9775C103.956 93.9515 104.006 93.9109 104.043 93.8598C104.08 93.8087 104.103 93.7488 104.11 93.6861C104.158 93.2375 103.986 92.3107 103.918 92.1307C103.775 91.7425 93.4164 92.4235 93.4164 92.4235Z" fill="#FBD56F"/>
<path opacity="0.1" d="M93.4164 92.4235L92.8918 92.1307C92.8918 92.1307 92.6476 93.1555 92.7267 93.8849C92.7345 93.9583 92.7643 94.0276 92.8122 94.0837C92.8601 94.1398 92.9239 94.18 92.9951 94.1992C94.2026 94.4987 99.9476 95.7761 103.899 93.9775C103.956 93.9515 104.006 93.9109 104.043 93.8598C104.08 93.8087 104.103 93.7488 104.11 93.6861C104.158 93.2375 103.986 92.3107 103.918 92.1307C103.775 91.7425 93.4164 92.4235 93.4164 92.4235Z" fill="black"/>
<path d="M98.4082 93.3757C101.454 93.3757 103.924 92.8183 103.924 92.1306C103.924 91.4429 101.454 90.8854 98.4082 90.8854C95.362 90.8854 92.8926 91.4429 92.8926 92.1306C92.8926 92.8183 95.362 93.3757 98.4082 93.3757Z" fill="#FBD56F"/>
<path d="M91.3529 89.9076L90.8297 89.6161C90.8297 89.6161 90.5841 90.6396 90.6646 91.3703C90.6721 91.4437 90.7019 91.5129 90.7498 91.5689C90.7978 91.6248 90.8617 91.6647 90.933 91.6833C92.1405 91.9841 97.8856 93.2615 101.838 91.4617C101.895 91.4356 101.945 91.395 101.982 91.3439C102.018 91.2928 102.041 91.2328 102.047 91.1702C102.096 90.7215 101.924 89.7961 101.856 89.6161C101.713 89.236 91.3529 89.9076 91.3529 89.9076Z" fill="#FBD56F"/>
<path opacity="0.1" d="M91.3529 89.9076L90.8297 89.6161C90.8297 89.6161 90.5841 90.6396 90.6646 91.3703C90.6721 91.4437 90.7019 91.5129 90.7498 91.5689C90.7978 91.6248 90.8617 91.6647 90.933 91.6833C92.1405 91.9841 97.8856 93.2615 101.838 91.4617C101.895 91.4356 101.945 91.395 101.982 91.3439C102.018 91.2928 102.041 91.2328 102.047 91.1702C102.096 90.7215 101.924 89.7961 101.856 89.6161C101.713 89.236 91.3529 89.9076 91.3529 89.9076Z" fill="black"/>
<path d="M96.3457 90.8636C99.3919 90.8636 101.861 90.3061 101.861 89.6184C101.861 88.9308 99.3919 88.3733 96.3457 88.3733C93.2995 88.3733 90.8301 88.9308 90.8301 89.6184C90.8301 90.3061 93.2995 90.8636 96.3457 90.8636Z" fill="#FBD56F"/>
<path d="M95.9949 87.8927L95.4703 87.6013C95.4703 87.6013 95.2248 88.6248 95.3053 89.3474C95.3127 89.4209 95.3424 89.4904 95.3903 89.5466C95.4383 89.6028 95.5022 89.6429 95.5736 89.6617C96.7811 89.9626 102.526 91.2386 106.479 89.4401C106.536 89.4141 106.586 89.3735 106.622 89.3223C106.659 89.2712 106.682 89.2113 106.688 89.1486C106.736 88.7 106.566 87.7745 106.498 87.5945C106.354 87.2211 95.9949 87.8927 95.9949 87.8927Z" fill="#FBD56F"/>
<path opacity="0.1" d="M95.9949 87.8927L95.4703 87.6013C95.4703 87.6013 95.2248 88.6248 95.3053 89.3474C95.3127 89.4209 95.3424 89.4904 95.3903 89.5466C95.4383 89.6028 95.5022 89.6429 95.5736 89.6617C96.7811 89.9626 102.526 91.2386 106.479 89.4401C106.536 89.4141 106.586 89.3735 106.622 89.3223C106.659 89.2712 106.682 89.2113 106.688 89.1486C106.736 88.7 106.566 87.7745 106.498 87.5945C106.354 87.2211 95.9949 87.8927 95.9949 87.8927Z" fill="black"/>
<path d="M100.986 88.8476C104.033 88.8476 106.502 88.2901 106.502 87.6024C106.502 86.9147 104.033 86.3573 100.986 86.3573C97.9401 86.3573 95.4707 86.9147 95.4707 87.6024C95.4707 88.2901 97.9401 88.8476 100.986 88.8476Z" fill="#FBD56F"/>
<path d="M92.8588 86.5386L92.3355 86.2472C92.3355 86.2472 92.09 87.2707 92.1705 88.0014C92.1782 88.0747 92.208 88.1438 92.2559 88.1998C92.3038 88.2557 92.3677 88.2956 92.4388 88.3143C93.6464 88.6152 99.3914 89.8912 103.344 88.0927C103.401 88.0667 103.451 88.0261 103.488 87.975C103.524 87.9238 103.547 87.8639 103.553 87.8012C103.602 87.3526 103.43 86.4272 103.361 86.2472C103.219 85.859 92.8588 86.5386 92.8588 86.5386Z" fill="#FBD56F"/>
<path opacity="0.1" d="M92.8588 86.5386L92.3355 86.2472C92.3355 86.2472 92.09 87.2707 92.1705 88.0014C92.1782 88.0747 92.208 88.1438 92.2559 88.1998C92.3038 88.2557 92.3677 88.2956 92.4388 88.3143C93.6464 88.6152 99.3914 89.8912 103.344 88.0927C103.401 88.0667 103.451 88.0261 103.488 87.975C103.524 87.9238 103.547 87.8639 103.553 87.8012C103.602 87.3526 103.43 86.4272 103.361 86.2472C103.219 85.859 92.8588 86.5386 92.8588 86.5386Z" fill="black"/>
<path d="M97.8516 87.4924C100.898 87.4924 103.367 86.9349 103.367 86.2472C103.367 85.5596 100.898 85.0021 97.8516 85.0021C94.8054 85.0021 92.3359 85.5596 92.3359 86.2472C92.3359 86.9349 94.8054 87.4924 97.8516 87.4924Z" fill="#FBD56F"/>
<path d="M94.9539 83.9225L94.4293 83.6311C94.4293 83.6311 94.1838 84.6546 94.2643 85.3853C94.2719 85.4587 94.3016 85.5281 94.3495 85.5843C94.3974 85.6404 94.4613 85.6806 94.5326 85.6996C95.7401 85.9991 101.485 87.2765 105.436 85.4766C105.494 85.4505 105.543 85.4098 105.58 85.3587C105.617 85.3076 105.64 85.2478 105.647 85.1851C105.695 84.7365 105.524 83.811 105.455 83.6311C105.313 83.2429 94.9539 83.9225 94.9539 83.9225Z" fill="#FBD56F"/>
<path opacity="0.1" d="M94.9539 83.9225L94.4293 83.6311C94.4293 83.6311 94.1838 84.6546 94.2643 85.3853C94.2719 85.4587 94.3016 85.5281 94.3495 85.5843C94.3974 85.6404 94.4613 85.6806 94.5326 85.6996C95.7401 85.9991 101.485 87.2765 105.436 85.4766C105.494 85.4505 105.543 85.4098 105.58 85.3587C105.617 85.3076 105.64 85.2478 105.647 85.1851C105.695 84.7365 105.524 83.811 105.455 83.6311C105.313 83.2429 94.9539 83.9225 94.9539 83.9225Z" fill="black"/>
<path d="M99.9454 84.8759C102.992 84.8759 105.461 84.3185 105.461 83.6308C105.461 82.9431 102.992 82.3857 99.9454 82.3857C96.8991 82.3857 94.4297 82.9431 94.4297 83.6308C94.4297 84.3185 96.8991 84.8759 99.9454 84.8759Z" fill="#FBD56F"/>
<path d="M95.9857 80.8166L95.4625 80.5252C95.4625 80.5252 95.217 81.5487 95.2975 82.2794C95.3051 82.3528 95.3348 82.4222 95.3827 82.4784C95.4306 82.5345 95.4945 82.5747 95.5658 82.5937C96.7733 82.8932 102.518 84.1706 106.471 82.3707C106.528 82.3447 106.578 82.3041 106.614 82.253C106.651 82.2018 106.674 82.1419 106.68 82.0792C106.729 81.6306 106.557 80.7052 106.488 80.5252C106.346 80.137 95.9857 80.8166 95.9857 80.8166Z" fill="#FBD56F"/>
<path opacity="0.1" d="M95.9857 80.8166L95.4625 80.5252C95.4625 80.5252 95.217 81.5487 95.2975 82.2794C95.3051 82.3528 95.3348 82.4222 95.3827 82.4784C95.4306 82.5345 95.4945 82.5747 95.5658 82.5937C96.7733 82.8932 102.518 84.1706 106.471 82.3707C106.528 82.3447 106.578 82.3041 106.614 82.253C106.651 82.2018 106.674 82.1419 106.68 82.0792C106.729 81.6306 106.557 80.7052 106.488 80.5252C106.346 80.137 95.9857 80.8166 95.9857 80.8166Z" fill="black"/>
<path d="M100.979 81.7704C104.025 81.7704 106.494 81.2129 106.494 80.5252C106.494 79.8376 104.025 79.2801 100.979 79.2801C97.9323 79.2801 95.4629 79.8376 95.4629 80.5252C95.4629 81.2129 97.9323 81.7704 100.979 81.7704Z" fill="#FBD56F"/>
<path d="M54.8206 42.2242C54.8206 39.3336 57.076 36.9857 59.8599 36.9857C60.1328 36.986 60.4052 37.0089 60.6743 37.0542C60.1358 36.8507 59.5649 36.7464 58.9892 36.7466C56.2065 36.7466 53.9512 39.1442 53.9512 42.102C53.9512 44.3236 55.2244 46.2282 57.037 47.0395C57.1243 46.963 57.2329 46.8716 57.3617 46.7709C56.581 46.2984 55.9362 45.6309 55.4908 44.8339C55.0453 44.0368 54.8143 43.1375 54.8206 42.2242Z" fill="#FBD56F"/>
<path opacity="0.1" d="M54.8206 42.2242C54.8206 39.3336 57.076 36.9857 59.8599 36.9857C60.1328 36.986 60.4052 37.0089 60.6743 37.0542C60.1358 36.8507 59.5649 36.7464 58.9892 36.7466C56.2065 36.7466 53.9512 39.1442 53.9512 42.102C53.9512 44.3236 55.2244 46.2282 57.037 47.0395C57.1243 46.963 57.2329 46.8716 57.3617 46.7709C56.581 46.2984 55.9362 45.6309 55.4908 44.8339C55.0453 44.0368 54.8143 43.1375 54.8206 42.2242Z" fill="black"/>
<path d="M64.03 42.1099C64.0296 42.6939 63.9391 43.2743 63.7616 43.8305C64.0676 43.7567 64.3869 43.6962 64.7156 43.6264C64.8376 43.1689 64.8994 42.6975 64.8994 42.2241C64.8994 39.621 63.0707 37.4638 60.6758 37.0582C62.6306 37.7996 64.03 39.7795 64.03 42.1099Z" fill="#FBD56F"/>
<path d="M54.8204 42.2241C54.8141 43.1378 55.0451 44.0374 55.4909 44.8348C55.9366 45.6321 56.5817 46.2997 57.3629 46.7721C58.3115 46.0173 60.4032 44.6298 63.7614 43.8265C63.9389 43.2703 64.0294 42.6899 64.0297 42.1059C64.0297 39.7755 62.6304 37.7956 60.6755 37.0582C60.4064 37.0129 60.134 36.99 59.8611 36.9897C57.0758 36.9937 54.8204 39.3376 54.8204 42.2241Z" fill="#FBD56F"/>
<path d="M129.229 102.161C128.462 102.135 128.434 101.836 127.448 101.322C126.89 101.032 126.044 100.188 125.414 99.51L125.266 99.3501H125.534C125.534 99.3501 125.288 97.1836 125.508 96.6638C125.728 96.1439 125.563 93.0882 125.563 93.0882C125.563 93.0882 125.697 90.7577 125.453 90.2164C125.208 89.6751 125.534 86.2084 125.534 86.2084C125.534 86.2084 125.754 84.1492 125.803 79.9504C125.851 75.7516 123.388 75.6173 123.388 75.6173C123.388 75.6173 123.059 75.5918 122.56 75.5434L122.41 75.5286C122.733 74.857 122.922 74.3439 122.922 74.3439C122.922 74.3439 122.51 70.4165 122.4 69.7395C122.29 69.0625 121.634 66.2673 121.634 66.2673C121.634 66.2673 121.169 65.0759 120.894 64.2364C120.619 63.3969 119.797 62.4218 119.797 62.4218C119.797 62.4218 118.322 59.4963 117.906 59.0638C117.715 58.8637 117.447 58.6098 117.215 58.3922L117.094 58.2821C117.157 57.977 117.19 57.6667 117.193 57.3553C117.193 57.3553 115.657 55.8375 115.547 55.4587C115.437 55.0799 113.985 53.6709 113.985 53.6709C113.985 53.6709 113.161 52.1544 112.23 52.1276C111.79 52.1021 111.347 52.1151 110.909 52.1665C111.101 51.4573 111.327 50.7145 111.53 50.0765C111.553 50.0053 111.576 49.9422 111.597 49.8683C112.342 49.3635 112.927 48.6554 113.282 47.828C113.301 47.7837 113.318 47.7394 113.336 47.6937H113.365C113.404 47.6928 113.443 47.6892 113.481 47.6829C113.788 47.6306 114.048 47.28 113.906 47.0113C113.915 47.0268 113.929 47.0396 113.944 47.0483C113.96 47.0571 113.978 47.0615 113.996 47.061C114.098 47.061 114.223 46.9093 114.247 46.779C114.247 46.7561 114.254 46.7333 114.256 46.7105C114.259 46.6876 114.266 46.6541 114.27 46.6258C114.274 46.5976 114.27 46.5721 114.27 46.5453C114.27 46.5184 114.27 46.4902 114.27 46.4633C114.27 46.4365 114.27 46.4109 114.27 46.3854C114.27 46.3599 114.27 46.325 114.27 46.2954C114.27 46.2659 114.27 46.2484 114.27 46.2242C114.27 46.2001 114.27 46.1517 114.262 46.1154C114.262 46.1007 114.262 46.0859 114.262 46.0711C114.246 45.9232 114.216 45.777 114.173 45.6346C114.023 45.1309 113.705 44.6312 113.827 44.1208V44.1047C113.929 43.7017 114.272 43.4197 114.482 43.065C114.502 43.0315 114.519 42.9965 114.537 42.9616C114.537 42.9549 114.543 42.9482 114.546 42.9428C114.559 42.916 114.57 42.8891 114.581 42.8622L114.602 42.8098C114.612 42.787 114.619 42.7628 114.627 42.7386C114.635 42.7145 114.641 42.6957 114.647 42.6728C114.652 42.65 114.657 42.6298 114.663 42.6084C114.668 42.5869 114.675 42.5573 114.68 42.5305C114.686 42.5036 114.68 42.4928 114.69 42.474C114.699 42.4552 114.698 42.4149 114.7 42.3854C114.703 42.3558 114.7 42.3532 114.7 42.337C114.7 42.3209 114.7 42.2712 114.7 42.2376V42.1973C114.7 42.1611 114.7 42.1235 114.7 42.0872C114.7 42.0765 114.7 42.0657 114.7 42.055C114.7 42.016 114.7 41.9771 114.69 41.9381C114.69 41.9381 114.69 41.9274 114.69 41.922C114.643 41.5815 114.508 41.2594 114.297 40.9885C114.057 40.7022 113.753 40.4758 113.411 40.3273C113.068 40.1788 112.696 40.1122 112.323 40.1329C112.117 40.1563 111.91 40.1604 111.703 40.1449C111.358 40.0939 111.067 39.8763 110.793 39.6641L108.496 37.8924C108.24 37.6702 107.946 37.4956 107.628 37.3766C107.304 37.2772 106.915 37.3108 106.674 37.5486C106.244 37.973 106.517 38.7037 106.346 39.2799C106.195 39.7796 105.714 40.1181 105.216 40.286C104.718 40.4539 104.184 40.4915 103.672 40.6137C103.52 40.6381 103.377 40.7036 103.26 40.8031C103.128 40.9646 103.063 41.1712 103.08 41.3793C103.077 41.8898 103.199 42.3932 103.437 42.8448C103.534 43.0274 103.65 43.2141 103.754 43.4022L103.779 43.4492L103.813 43.5137C103.83 43.5499 103.848 43.5849 103.864 43.6198L103.884 43.6655L103.915 43.742C103.915 43.7581 103.927 43.7743 103.932 43.789C103.937 43.8038 103.951 43.8495 103.96 43.879C104.014 44.0534 104.019 44.2392 103.975 44.4163C103.896 44.7078 103.669 44.9321 103.468 45.1591C103.305 45.3374 103.189 45.5534 103.13 45.7877C103.12 45.8428 103.12 45.8992 103.13 45.9542C103.13 45.961 103.13 45.9677 103.13 45.9744C103.133 45.9867 103.136 45.9988 103.14 46.0107C103.143 46.0194 103.147 46.0279 103.151 46.0362C103.155 46.0458 103.16 46.0553 103.165 46.0644C103.175 46.079 103.186 46.0925 103.199 46.1047L103.22 46.1195C103.231 46.1277 103.242 46.1349 103.254 46.141L103.277 46.1517L103.334 46.1665H103.35C103.379 46.1686 103.409 46.1686 103.438 46.1665H103.465C103.493 46.1646 103.521 46.161 103.548 46.1557H103.579C103.625 46.1472 103.669 46.136 103.713 46.1221C103.867 46.0759 104.017 46.0166 104.161 45.9448C104.161 45.961 104.161 45.9784 104.161 45.9945C104.161 46.0107 104.161 46.0523 104.161 46.0805C104.169 46.6119 104.269 47.1378 104.458 47.6346C104.752 48.4086 105.245 49.0911 105.887 49.6131C105.879 49.6588 105.871 49.7058 105.861 49.7541C105.727 50.4029 105.452 51.0543 105.282 51.0047C105.115 50.9669 104.944 50.948 104.773 50.9482H104.624C104.469 50.9306 104.313 50.9306 104.157 50.9482C104.088 50.9534 104.019 50.9438 103.953 50.92C103.51 50.7801 103.039 50.7538 102.584 50.8435C101.636 51.0382 100.194 51.3942 99.7983 51.82C99.1946 52.4701 98.3225 53.0933 97.331 55.8012C97.331 55.8012 96.8372 57.4533 96.4535 57.6709C96.538 57.6267 96.6249 57.5873 96.7138 57.5527C96.6627 57.6421 96.5927 57.7191 96.5085 57.7784C96.6473 57.7074 96.7912 57.6472 96.9392 57.5984C96.64 59.3633 97.0841 64.411 97.0841 64.411C97.0841 64.411 96.7272 65.2814 97.1928 65.7972C97.4705 66.1021 97.6208 66.579 97.6986 66.9174L97.6302 67.0222C97.3833 67.405 97.0532 67.9047 96.8372 68.18C96.4535 68.6676 96.5622 70.2123 96.5622 70.2123C96.5622 70.2123 96.4803 70.943 96.2066 71.2143C95.9329 71.4856 95.9866 72.4877 95.9866 72.4877L95.2849 75.1324C95.2849 75.1324 94.6261 75.7274 94.6261 75.9988C94.6261 76.2701 94.1056 77.0276 94.1056 77.0276C94.1056 77.0276 93.3099 78.3279 94.1056 78.1385C94.3962 78.0543 94.669 77.9177 94.9106 77.7355V77.7557C94.9106 77.8027 94.9106 77.851 94.9106 77.9007C94.8878 79.3164 95.0447 81.3097 96.0859 81.3097C97.6959 81.3097 101.871 83.2318 101.871 83.2318C102.72 83.882 103.872 83.6657 103.872 83.6657C103.872 83.6657 101.834 85.6926 101.893 86.5334C101.952 87.3742 100.742 88.7537 100.742 88.7537L97.0116 96.0405C97.0325 96.5483 97.1228 97.0509 97.28 97.5342L97.2263 97.5798C95.7934 98.8908 95.6686 101.484 95.6686 101.484L95.3399 102.812L100.33 105.006C100.33 105.006 106.801 105.141 107.925 104.844C109.049 104.547 108.802 103.299 107.321 103.056C105.84 102.813 105.484 102.161 104.991 101.865C104.658 101.663 103.476 100.364 102.742 99.5409C102.731 99.5274 102.72 99.5167 102.71 99.5046L102.88 98.5644C103.209 98.4019 103.703 96.7766 103.703 96.7766C103.703 96.7766 103.703 96.1265 104.031 95.9371C104.36 95.7477 105.046 93.7974 105.046 93.7974C105.046 93.7974 106.521 91.3326 106.445 91.0076C106.369 90.6825 107.518 89.0304 107.518 89.0304C107.518 89.0304 109.465 87.1338 109.382 86.7953C109.299 86.4569 110.945 84.7228 110.945 84.7228C111.54 84.2689 112.035 83.6979 112.401 83.0451L112.876 82.9672C115.029 82.614 118.606 81.976 119.006 81.7973C119.555 81.5542 119.445 82.6382 119.226 83.5582C119.007 84.4783 118.842 88.8947 119.092 89.4683C119.341 90.0418 119.226 90.9592 119.226 90.9592L118.897 95.9156L119.116 96.9727C119.116 96.9727 118.375 97.5677 118.677 97.9197C118.979 98.2716 118.705 99.7894 118.705 99.7894C118.731 99.78 118.762 99.7706 118.795 99.7612C118.77 99.8203 118.744 99.882 118.721 99.9452C118.296 101.154 118.54 103.147 118.54 103.147V104.719C118.54 104.719 126.136 104.853 127.807 104.853C129.479 104.853 131.784 104.041 131.921 103.39C132.058 102.74 129.997 102.19 129.229 102.161ZM107.628 73.9638L107.132 74.0055C107.296 73.9811 107.461 73.9672 107.627 73.9638H107.628ZM110.662 53.1726C110.732 52.8583 110.816 52.5225 110.91 52.1759L110.662 53.1726ZM111.601 74.7227C111.127 74.9098 110.599 74.9098 110.125 74.7227C110.125 74.7227 110.152 72.8275 110.372 72.0363C110.592 71.2452 110.893 69.8147 110.893 69.8147C110.893 69.8147 111.14 67.8375 111.386 66.943C111.633 66.0484 112.594 61.0652 113.086 60.7401C113.579 60.4151 113.854 60.9846 113.854 60.9846C113.854 60.9846 113.928 60.9846 114.051 60.9698C114.075 61.0208 114.101 61.0772 114.13 61.135C114.715 62.3184 116.431 64.7495 116.431 64.7495C116.94 65.064 117.372 65.4902 117.692 65.996C118.159 66.7804 118.296 68.6233 118.296 68.6233C118.296 68.6233 119.339 72.7133 119.831 73.2815C120.078 73.5662 119.965 73.7355 119.797 73.8335C119.447 74.0267 119.15 74.3036 118.932 74.6395C118.862 74.7509 118.787 74.8732 118.712 75.0048C118.523 74.9605 118.355 74.9148 118.214 74.8705C116.86 74.4151 112.339 74.3977 111.6 74.7294L111.601 74.7227Z" fill="url(#paint0_linear)"/>
<path d="M118.357 103.153V104.711C118.357 104.711 125.789 104.845 127.426 104.845C129.063 104.845 131.317 104.039 131.451 103.395C131.585 102.75 129.573 102.213 128.821 102.186C128.07 102.159 128.043 101.863 127.077 101.353C126.532 101.066 125.704 100.229 125.087 99.5558C124.611 99.036 124.259 98.6156 124.259 98.6156C124.259 98.6156 120.263 98.535 119.109 99.1797C118.84 99.3275 118.659 99.6189 118.534 99.9856C118.118 101.181 118.357 103.153 118.357 103.153Z" fill="#3D5444"/>
<path opacity="0.1" d="M118.533 99.9813C119.372 99.6898 124.278 99.5783 125.086 99.5595C124.61 99.0397 124.258 98.6193 124.258 98.6193C124.258 98.6193 120.261 98.5387 119.107 99.1834C118.842 99.3258 118.658 99.6173 118.533 99.9813Z" fill="black"/>
<path d="M96.9727 75.1326L97.406 75.4012L97.5684 75.4993L98.1989 75.8807C101.572 77.9143 110.769 83.4295 111.274 83.3851C111.408 83.3744 111.802 83.3139 112.347 83.2253L112.813 83.1487C114.919 82.7982 118.419 82.1655 118.811 81.9882C119.348 81.7464 119.241 82.821 119.026 83.7344C118.811 84.6477 118.65 89.0265 118.892 89.5907C119.133 90.1548 119.026 91.0682 119.026 91.0682L118.704 95.9843L118.919 97.032C118.919 97.032 118.194 97.623 118.489 97.9722C118.784 98.3214 118.516 99.8258 118.516 99.8258C119.375 99.5034 125.196 99.396 125.196 99.396C125.196 99.396 124.955 97.2469 125.169 96.7365C125.384 96.2261 125.223 93.1904 125.223 93.1904C125.223 93.1904 125.357 90.8801 125.116 90.3429C124.874 89.8056 125.196 86.3684 125.196 86.3684C125.196 86.3684 125.411 84.3267 125.465 80.1642C125.518 76.0016 123.103 75.866 123.103 75.866C123.103 75.866 122.781 75.8404 122.298 75.7934C121.342 75.7021 119.749 75.5248 118.684 75.2937C118.466 75.2493 118.25 75.1923 118.038 75.1232C116.724 74.6745 112.296 74.6571 111.573 74.9794C111.109 75.1652 110.591 75.1652 110.127 74.9794L109.563 74.0661L104.182 74.5254L103.611 74.5738L98.313 75.0265L97.9481 75.0573L96.9727 75.1326Z" fill="#4C7660"/>
<path opacity="0.1" d="M118.543 79.2587C120.106 80.0217 121.598 77.3165 122.3 75.7906C121.344 75.6993 119.751 75.522 118.686 75.291C117.979 76.4676 117.045 78.5267 118.543 79.2587Z" fill="black"/>
<path d="M113.848 60.982C113.881 61.1669 113.945 61.3448 114.037 61.5086C114.61 62.6812 116.29 65.0922 116.29 65.0922C116.789 65.4052 117.211 65.8277 117.524 66.3279C117.98 67.107 118.114 68.9337 118.114 68.9337C118.114 68.9337 119.134 72.9888 119.617 73.553C119.859 73.835 119.751 74.0029 119.584 74.101C119.241 74.2918 118.95 74.5639 118.737 74.8935C118.033 76.0271 116.91 78.2729 118.49 79.0439C120.637 80.0916 122.649 74.6006 122.649 74.6006C122.649 74.6006 122.247 70.7054 122.139 70.0338C122.032 69.3622 121.389 66.5952 121.389 66.5952C121.389 66.5952 120.933 65.4132 120.665 64.5804C120.397 63.7477 119.592 62.7806 119.592 62.7806C119.592 62.7806 118.143 59.8806 117.74 59.4508C117.554 59.2506 117.292 58.9995 117.069 58.7872C116.801 58.5414 116.592 58.3494 116.592 58.3494C116.592 58.3494 113.821 60.3386 113.848 60.982Z" fill="#EE8E9E"/>
<path d="M95.6621 102.83L100.546 105.006C100.546 105.006 106.877 105.141 107.977 104.845C109.078 104.55 108.836 103.314 107.387 103.072C105.938 102.83 105.589 102.186 105.106 101.89C104.78 101.691 103.624 100.403 102.906 99.5864C102.56 99.1929 102.316 98.9148 102.316 98.9148C102.316 98.9148 101.376 96.4165 98.7748 96.9806C98.2993 97.0845 97.8613 97.3168 97.5083 97.6522C96.1062 98.9511 95.9841 101.523 95.9841 101.523L95.6621 102.83Z" fill="#3D5444"/>
<path opacity="0.1" d="M97.5684 75.4977L98.1989 75.8791C101.572 77.9127 110.769 83.4279 111.274 83.3836C111.408 83.3728 111.802 83.3124 112.347 83.2237L112.813 83.1472L112.83 83.1163C113.101 82.6441 113.308 82.1377 113.444 81.6105C114.009 79.4628 111.225 77.8187 111.225 77.8187L110.635 77.3593C109.964 76.2284 105.134 75.1592 105.134 75.1592L104.512 74.7401L104.18 74.5171L104.092 74.458L103.336 73.9503L99.554 74.219L98.4297 74.9416L98.3116 75.0182L97.8944 75.2868L97.5684 75.4977Z" fill="black"/>
<path opacity="0.1" d="M97.5039 97.6429C98.5303 101.198 102.821 100.038 102.821 100.038L102.901 99.5864C102.555 99.1929 102.311 98.9148 102.311 98.9148C102.311 98.9148 101.372 96.4165 98.7705 96.9806C98.2959 97.0818 97.858 97.3108 97.5039 97.6429Z" fill="black"/>
<path d="M96.3827 81.503C97.9659 81.503 102.043 83.4103 102.043 83.4103C102.875 84.055 104.002 83.8401 104.002 83.8401C104.002 83.8401 102.016 85.8549 102.07 86.6877C102.124 87.5205 100.944 88.8905 100.944 88.8905L97.2951 96.1156C97.5634 101.245 102.821 99.8228 102.821 99.8228L103.036 98.6139C103.358 98.4527 103.841 96.8409 103.841 96.8409C103.841 96.8409 103.841 96.1961 104.163 96.0081C104.485 95.8201 105.156 93.8859 105.156 93.8859C105.156 93.8859 106.605 91.4412 106.525 91.1189C106.444 90.7965 107.571 89.1592 107.571 89.1592C107.571 89.1592 109.476 87.2787 109.396 86.9429C109.315 86.6071 110.925 84.8878 110.925 84.8878C111.508 84.4356 111.992 83.8694 112.349 83.2236C112.623 82.7506 112.832 82.2427 112.97 81.7138C113.425 79.9838 111.703 78.5842 111.015 78.106C110.849 77.9892 110.747 77.9274 110.747 77.9274L110.156 77.468C109.852 76.9536 108.681 76.4512 107.505 76.0577C106.655 75.7742 105.796 75.5459 105.247 75.4089C104.874 75.3229 104.652 75.2665 104.652 75.2665L104.029 74.8474L103.81 74.701L103.61 74.5667L102.848 74.0576L101.166 74.1772L99.0661 74.3263L97.9431 75.0543L97.4064 75.4008L95.3094 76.744C95.3094 76.744 95.2544 77.2612 95.2369 77.9529C95.2369 78.0066 95.2369 78.0604 95.2369 78.1168C95.2114 79.5271 95.3617 81.503 96.3827 81.503Z" fill="#4C7660"/>
<path d="M104.457 51.4199L105.021 53.4347C105.021 53.4347 106.013 56.9001 106.121 57.1419C106.228 57.3836 108.831 59.8283 108.938 59.882C109.046 59.9357 110.462 60.7403 110.462 60.7403C110.462 60.7403 110.575 56.3078 110.462 55.0196C110.453 54.7363 110.476 54.4527 110.532 54.1748C110.703 53.1647 111.136 51.6831 111.495 50.5414C111.796 49.5864 112.044 48.8692 112.044 48.8692C112.044 48.8692 105.767 48.6005 105.981 49.2184C106.062 49.4521 106.036 49.8416 105.957 50.2338C105.823 50.8772 105.555 51.5246 105.391 51.4736C105.227 51.437 105.061 51.4185 104.893 51.4185C104.668 51.4118 104.457 51.4199 104.457 51.4199Z" fill="#EE8E9E"/>
<path opacity="0.1" d="M105.963 50.2338C106.73 50.8749 107.683 51.2511 108.681 51.3065C109.679 51.3619 110.668 51.0936 111.501 50.5414C111.802 49.5864 112.05 48.8691 112.05 48.8691C112.05 48.8691 105.772 48.6005 105.987 49.2184C106.068 49.4521 106.042 49.8416 105.963 50.2338Z" fill="black"/>
<path d="M113.582 46.5062C113.582 46.9991 113.504 47.4888 113.35 47.9569C113.311 48.0777 113.266 48.1965 113.216 48.3128C112.854 49.1697 112.244 49.8984 111.465 50.4045C110.685 50.9105 109.772 51.1708 108.843 51.1516C107.914 51.1323 107.012 50.8345 106.254 50.2965C105.496 49.7586 104.917 49.0053 104.591 48.1342C104.407 47.6411 104.309 47.1199 104.301 46.5935C104.301 46.5653 104.301 46.5358 104.301 46.5076C104.291 45.8907 104.403 45.2779 104.632 44.705C104.86 44.132 105.201 43.6103 105.633 43.1704C106.065 42.7304 106.58 42.381 107.148 42.1425C107.717 41.904 108.327 41.7811 108.943 41.7811C109.559 41.7811 110.169 41.904 110.738 42.1425C111.306 42.381 111.821 42.7304 112.253 43.1704C112.685 43.6103 113.026 44.132 113.254 44.705C113.483 45.2779 113.595 45.8907 113.585 46.5076L113.582 46.5062Z" fill="#EE8E9E"/>
<path opacity="0.1" d="M104.457 51.4196L105.021 53.4344C105.021 53.4344 106.013 56.8998 106.121 57.1416C106.228 57.3834 108.831 59.828 108.938 59.8817C109.046 59.9354 110.462 60.74 110.462 60.74C110.462 60.74 110.575 56.3075 110.462 55.0194C110.453 54.736 110.476 54.4525 110.532 54.1745L110.167 55.6641L110.194 58.646L110.409 58.8071L109.926 59.5325V58.9952C109.926 58.9952 108.208 57.3296 107.94 56.6312C107.672 55.9327 106.706 54.6674 106.706 54.6674C106.706 54.6674 105.606 52.8165 105.579 52.4942C105.559 52.243 105.096 51.6614 104.893 51.4196C104.668 51.4115 104.457 51.4196 104.457 51.4196Z" fill="black"/>
<path opacity="0.1" d="M113.848 60.9817C113.881 61.1665 113.945 61.3445 114.037 61.5082C114.625 61.4478 116.622 61.0744 117.063 58.7883C116.794 58.5425 116.585 58.3504 116.585 58.3504C116.585 58.3504 113.821 60.3383 113.848 60.9817Z" fill="black"/>
<path opacity="0.1" d="M95.2324 78.1235C95.7691 77.7393 96.2897 77.2168 96.5969 77.0718C97.0531 76.8569 97.7508 76.1584 97.7508 76.1584C97.7508 76.1584 97.9279 76.0375 98.1989 75.879C98.6966 75.5862 99.5137 75.1631 100.139 75.1107C100.698 75.0637 102.554 74.9442 104.03 74.8528L105.94 74.7346C105.94 74.7346 107.685 74.1167 108.436 74.5197C108.974 74.7896 109.541 74.9969 110.126 75.1376C110.126 75.1376 110.126 75.0785 110.126 74.9777L109.563 74.0644L103.611 74.5721L102.848 74.0576L99.0656 74.3263L97.9426 75.0543L96.9739 75.1376L97.4073 75.4062L95.3102 76.7494C95.3102 76.7494 95.2445 77.3498 95.2324 78.1235Z" fill="black"/>
<path d="M94.4536 78.3563C94.7381 78.2711 95.0046 78.1346 95.2398 77.9533C95.7765 77.5705 96.2931 77.048 96.6003 76.9043C97.0565 76.6894 97.7541 75.9909 97.7541 75.9909C97.7541 75.9909 99.1763 75.0238 100.142 74.9432C100.411 74.9217 100.955 74.8828 101.618 74.8398C102.281 74.7968 103.094 74.7444 103.808 74.7055L104.946 74.6343L105.937 74.5725C105.937 74.5725 107.681 73.9546 108.433 74.3576C108.971 74.6274 109.538 74.8348 110.123 74.9754C110.123 74.9754 110.15 73.095 110.365 72.3159C110.579 71.5369 110.874 70.1144 110.874 70.1144C110.874 70.1144 111.116 68.1534 111.357 67.2669C111.599 66.3804 112.537 61.4374 113.02 61.1151C113.503 60.7927 113.771 61.3568 113.771 61.3568C113.771 61.3568 116.991 61.3031 117.045 57.7584C117.045 57.7584 115.542 56.254 115.435 55.878C115.328 55.5019 113.905 54.1049 113.905 54.1049C113.905 54.1049 113.1 52.6006 112.188 52.5737C111.757 52.5488 111.325 52.5623 110.896 52.614L110.123 55.7705L110.15 58.7524L110.365 58.9136L109.882 59.6389V59.1016C109.882 59.1016 108.164 57.4361 107.896 56.7376C107.628 56.0391 106.662 54.7738 106.662 54.7738C106.662 54.7738 105.561 52.9229 105.535 52.6006C105.508 52.2782 104.756 51.4145 104.756 51.4145C104.605 51.3969 104.452 51.3969 104.3 51.4145C104.232 51.4196 104.164 51.41 104.1 51.3863C103.667 51.2473 103.205 51.2214 102.759 51.3111C101.832 51.5032 100.42 51.8564 100.034 52.2782C99.4433 52.9229 98.5847 53.5408 97.6186 56.2272L102.823 58.1076L102.37 58.9565L98.2278 66.8384C98.2278 66.8384 98.0936 67.0627 97.9044 67.3555C97.6629 67.7356 97.3396 68.2313 97.1276 68.5039C96.7519 68.9875 96.8592 70.5187 96.8592 70.5187C96.8592 70.5187 96.7788 71.2441 96.5104 71.5127C96.2421 71.7813 96.2957 72.7753 96.2957 72.7753L95.5981 75.3811C95.5981 75.3811 94.9541 75.9721 94.9541 76.2407C94.9541 76.5094 94.4442 77.2615 94.4442 77.2615C94.4442 77.2615 93.6714 78.5497 94.4536 78.3563Z" fill="#41737E"/>
<path opacity="0.1" d="M121.923 80.2954C121.923 80.2954 120.234 80.8582 119.777 81.6641C119.319 82.47 121.923 80.2954 121.923 80.2954Z" fill="black"/>
<path opacity="0.1" d="M121.067 78.5227C121.013 78.6033 118.751 80.8746 118.893 81.4226C119.035 81.9707 121.067 78.5227 121.067 78.5227Z" fill="black"/>
<path opacity="0.1" d="M108.643 80.1344C108.643 80.1344 106.126 81.3244 105.906 81.8483C105.686 82.3721 108.643 80.1344 108.643 80.1344Z" fill="black"/>
<path opacity="0.1" d="M108.483 81.6644C108.483 81.6644 106.202 82.6315 105.896 82.8733C105.59 83.115 108.483 81.6644 108.483 81.6644Z" fill="black"/>
<path opacity="0.1" d="M107.437 83.7287C107.437 83.7287 106.429 84.4809 105.872 83.8899C105.316 83.2989 107.437 83.7287 107.437 83.7287Z" fill="black"/>
<path opacity="0.1" d="M111.225 64.1251C111.172 64.2057 107.817 70.25 106.932 70.7067C106.046 71.1634 111.225 64.1251 111.225 64.1251Z" fill="black"/>
<path opacity="0.1" d="M111.059 66.4084C111.059 66.5427 107.786 73.5528 107.249 73.6334C106.712 73.714 111.059 66.4084 111.059 66.4084Z" fill="black"/>
<path opacity="0.1" d="M98.6136 70.9204C98.6136 70.9204 97.0331 74.3012 96.4132 74.4933C95.7934 74.6853 98.6136 70.9204 98.6136 70.9204Z" fill="black"/>
<path opacity="0.1" d="M98.3458 69.4171C98.3458 69.4171 97.8011 70.5977 97.4697 70.5977C97.1383 70.5977 98.3458 69.4171 98.3458 69.4171Z" fill="black"/>
<path opacity="0.1" d="M113.582 46.5066C113.582 46.9994 113.504 47.4891 113.35 47.9572C113.311 48.078 113.266 48.1968 113.216 48.3132C112.978 48.2766 112.755 48.1779 112.568 48.0271C112.368 47.892 112.202 47.7139 112.081 47.5059C111.989 47.2843 111.91 47.0579 111.843 46.8276C111.736 46.5677 111.561 46.3411 111.338 46.1713C111.114 46.0015 110.849 45.8947 110.57 45.8618C110.724 46.1305 110.479 46.4864 110.177 46.5334C109.875 46.5804 109.581 46.3991 109.372 46.1748C109.162 45.9505 109.013 45.6778 108.807 45.4535C108.6 45.2292 108.305 45.0505 108.002 45.0949C107.733 45.1352 107.528 45.3393 107.304 45.4911C107.08 45.6429 106.767 45.745 106.553 45.5825C106.432 45.4925 106.373 45.3393 106.258 45.2413C105.961 44.9928 105.5 45.2493 105.281 45.5704C104.944 46.0673 104.744 46.3682 104.301 46.5925C104.301 46.5643 104.301 46.5348 104.301 46.5066C104.291 45.8897 104.403 45.2769 104.632 44.704C104.86 44.131 105.201 43.6093 105.633 43.1694C106.065 42.7294 106.58 42.38 107.148 42.1415C107.717 41.903 108.327 41.7801 108.943 41.7801C109.559 41.7801 110.169 41.903 110.738 42.1415C111.306 42.38 111.821 42.7294 112.253 43.1694C112.685 43.6093 113.026 44.131 113.254 44.704C113.483 45.2769 113.595 45.8897 113.585 46.5066H113.582Z" fill="black"/>
<path d="M105.28 45.4358C105.498 45.1135 105.96 44.8569 106.256 45.1068C106.372 45.2035 106.431 45.3566 106.552 45.4479C106.766 45.6105 107.08 45.5084 107.303 45.3566C107.526 45.2048 107.734 45.0006 108.001 44.9603C108.302 44.9133 108.596 45.0947 108.806 45.319C109.015 45.5433 109.162 45.816 109.37 46.0403C109.578 46.2646 109.872 46.4432 110.175 46.3976C110.479 46.3519 110.723 45.9946 110.569 45.726C110.847 45.7588 111.112 45.8656 111.336 46.0354C111.56 46.2052 111.734 46.4318 111.84 46.6917C111.908 46.9218 111.987 47.1482 112.078 47.37C112.2 47.5777 112.367 47.7553 112.566 47.8898C112.812 48.0712 113.111 48.223 113.412 48.1706C113.712 48.1182 113.967 47.7676 113.827 47.499C113.923 47.6454 114.129 47.4412 114.16 47.2693C114.228 46.8918 114.207 46.5035 114.098 46.1356C113.951 45.636 113.64 45.1417 113.759 44.634C113.854 44.231 114.196 43.9449 114.404 43.589C114.773 42.9577 114.673 42.1114 114.227 41.5312C113.994 41.2481 113.698 41.0239 113.362 40.8766C113.027 40.7294 112.661 40.6633 112.295 40.6836C112.094 40.706 111.891 40.7096 111.689 40.6944C111.352 40.6447 111.066 40.4257 110.798 40.2175L108.548 38.4633C108.298 38.2423 108.01 38.0685 107.699 37.9502C107.382 37.8522 107.001 37.8858 106.759 38.1208C106.338 38.5426 106.605 39.2679 106.436 39.8388C106.29 40.3331 105.819 40.6689 105.332 40.8354C104.845 41.002 104.323 41.0396 103.821 41.1605C103.672 41.1852 103.533 41.2502 103.419 41.3485C103.289 41.5096 103.226 41.7145 103.243 41.9207C103.239 42.4259 103.359 42.9243 103.592 43.3727C103.852 43.8737 104.263 44.3881 104.119 44.9348C104.041 45.2236 103.819 45.4452 103.623 45.6709C103.199 46.1598 103.055 46.8798 103.855 46.6299C104.629 46.3882 104.845 46.0752 105.28 45.4358Z" fill="#434175"/>
<g opacity="0.1">
<path opacity="0.1" d="M114.161 46.7446C114.129 46.9165 113.923 47.1207 113.827 46.9743C113.961 47.2429 113.711 47.5908 113.411 47.6459C113.11 47.701 112.812 47.5451 112.566 47.3652C112.366 47.2301 112.2 47.052 112.079 46.844C111.966 46.6331 111.93 46.3887 111.841 46.1657C111.734 45.9059 111.559 45.6795 111.335 45.5098C111.112 45.34 110.847 45.2331 110.568 45.1999C110.723 45.4686 110.477 45.8259 110.175 45.8715C109.873 45.9172 109.579 45.7372 109.37 45.5129C109.16 45.2886 109.011 45.0173 108.805 44.7916C108.598 44.566 108.303 44.3887 108 44.433C107.731 44.4746 107.526 44.6774 107.302 44.8292C107.078 44.981 106.765 45.0844 106.551 44.9219C106.43 44.8306 106.372 44.6774 106.257 44.5807C105.959 44.3309 105.498 44.5874 105.279 44.9085C104.846 45.5478 104.63 45.8635 103.859 46.1066C103.607 46.1858 103.449 46.1684 103.363 46.0918C103.195 46.48 103.272 46.8212 103.859 46.6358C104.63 46.3927 104.846 46.0784 105.279 45.439C105.498 45.1167 105.959 44.8601 106.257 45.1099C106.372 45.2067 106.43 45.3598 106.551 45.4511C106.767 45.6136 107.079 45.5116 107.302 45.3598C107.525 45.208 107.733 45.0038 108 44.9635C108.302 44.9165 108.596 45.0979 108.805 45.3222C109.014 45.5465 109.162 45.8191 109.37 46.0435C109.578 46.2678 109.871 46.4464 110.175 46.4007C110.478 46.3551 110.723 45.9978 110.568 45.7292C110.847 45.7617 111.112 45.8685 111.336 46.0383C111.56 46.2081 111.734 46.4348 111.841 46.6949C111.908 46.9252 111.987 47.1516 112.079 47.3732C112.2 47.5807 112.367 47.7583 112.566 47.893C112.812 48.0744 113.11 48.2261 113.411 48.1738C113.711 48.1214 113.966 47.7708 113.827 47.5022C113.923 47.6486 114.129 47.4444 114.161 47.2725C114.202 47.0407 114.211 46.8041 114.185 46.57C114.181 46.6282 114.172 46.6864 114.161 46.7446Z" fill="black"/>
<path opacity="0.1" d="M104.116 44.4285C104.116 44.4205 104.116 44.4151 104.122 44.407C104.269 43.8617 103.854 43.3473 103.595 42.8462C103.413 42.4927 103.3 42.1074 103.262 41.7112C103.252 41.7816 103.247 41.8524 103.246 41.9235C103.243 42.4286 103.363 42.9269 103.595 43.3755C103.777 43.718 104.026 44.0672 104.116 44.4285Z" fill="black"/>
<path opacity="0.1" d="M114.405 43.0642C114.197 43.4201 113.854 43.7075 113.759 44.1092C113.721 44.2785 113.721 44.4543 113.759 44.6236C113.858 44.23 114.194 43.9453 114.399 43.5934C114.594 43.2498 114.667 42.8501 114.606 42.4597C114.579 42.6725 114.511 42.8779 114.405 43.0642Z" fill="black"/>
</g>
<path opacity="0.1" d="M97.9102 67.3552C97.9454 67.5036 97.9728 67.6538 97.992 67.8052C97.992 67.8052 100.112 72.775 100.38 73.0692C100.462 73.1605 100.773 73.6064 101.165 74.1827L101.615 74.8462C102.42 76.0551 103.331 77.4211 103.331 77.4211L105.322 79.1619C105.322 79.1619 109.64 79.5071 111.013 78.1048C110.847 77.9879 110.745 77.9261 110.745 77.9261L110.154 77.4668C109.85 76.9523 108.678 76.45 107.503 76.0564C106.416 76.0645 105.527 76.1531 105.527 76.1531L105.245 75.4076L104.95 74.6299L103.443 70.6783C103.443 70.6783 102.475 65.6829 102.153 65.4398C101.831 65.1967 101.912 64.4459 101.912 64.4459C101.912 64.4459 102.501 62.3236 102.287 62.0281C102.072 61.7326 102.636 59.558 102.636 59.558C102.58 59.3452 102.493 59.1419 102.378 58.9549L98.2362 66.8367C98.2362 66.8367 98.0953 67.0624 97.9102 67.3552Z" fill="black"/>
<path d="M102.687 59.3984C102.687 59.3984 102.123 61.573 102.338 61.8685C102.552 62.164 101.962 64.2862 101.962 64.2862C101.962 64.2862 101.883 65.0384 102.204 65.2802C102.524 65.522 103.494 70.5186 103.494 70.5186L105.573 75.9988C105.573 75.9988 112.077 75.3541 111.408 77.3958C110.738 79.4374 105.37 79.0076 105.37 79.0076L103.384 77.2614C103.384 77.2614 100.701 73.205 100.433 72.9095C100.164 72.614 98.0444 67.6455 98.0444 67.6455C98.0444 67.6455 97.937 66.6516 97.4809 66.1412C97.0247 65.6308 97.3735 64.7671 97.3735 64.7671C97.3735 64.7671 96.81 58.2714 97.4004 57.4924C97.9907 56.7133 102.069 57.0612 102.687 59.3984Z" fill="#EE8E9E"/>
<path opacity="0.1" d="M99.3617 55.3148L97.6712 56.3357C97.6712 56.3357 97.1882 57.9744 96.8125 58.1893C96.8125 58.1893 100.194 56.3088 102.741 60.6325C102.741 60.6325 102.661 60.0697 103.01 59.8011C103.359 59.5325 103.278 58.3773 103.278 58.3773C103.371 58.1948 103.452 58.0063 103.52 57.8132C103.761 57.2222 102.505 53.8373 99.3617 55.3148Z" fill="black"/>
<path d="M99.307 55.2075L97.6165 56.2283C97.6165 56.2283 97.1335 57.867 96.7578 58.0819C96.7578 58.0819 100.139 56.2014 102.687 60.5252C102.687 60.5252 102.606 59.9624 102.955 59.6938C103.304 59.4251 103.223 58.27 103.223 58.27C103.316 58.0875 103.397 57.899 103.465 57.7058C103.712 57.1148 102.445 53.73 99.307 55.2075Z" fill="#40747F"/>
<path d="M84.2425 102.247C87.0257 102.247 89.2819 99.8498 89.2819 96.8922C89.2819 93.9345 87.0257 91.5369 84.2425 91.5369C81.4593 91.5369 79.2031 93.9345 79.2031 96.8922C79.2031 99.8498 81.4593 102.247 84.2425 102.247Z" fill="#FBD56F"/>
<path opacity="0.1" d="M84.2425 102.247C87.0257 102.247 89.2819 99.8498 89.2819 96.8922C89.2819 93.9345 87.0257 91.5369 84.2425 91.5369C81.4593 91.5369 79.2031 93.9345 79.2031 96.8922C79.2031 99.8498 81.4593 102.247 84.2425 102.247Z" fill="black"/>
<path d="M85.1116 102.247C87.8947 102.247 90.1509 99.9032 90.1509 97.0116C90.1509 94.1199 87.8947 91.7758 85.1116 91.7758C82.3284 91.7758 80.0723 94.1199 80.0723 97.0116C80.0723 99.9032 82.3284 102.247 85.1116 102.247Z" fill="#FBD56F"/>
<path d="M12.0932 99.8348C15.5307 99.8348 18.3173 99.3633 18.3173 98.7818C18.3173 98.2002 15.5307 97.7287 12.0932 97.7287C8.65575 97.7287 5.86914 98.2002 5.86914 98.7818C5.86914 99.3633 8.65575 99.8348 12.0932 99.8348Z" fill="#3ACC6C"/>
<path d="M14.6673 97.0584C14.9356 96.8099 15.1838 96.5211 15.2616 96.1611C15.3394 95.8011 15.1865 95.3794 14.847 95.2491C14.466 95.1027 14.0581 95.3673 13.7495 95.6346C13.441 95.9019 13.0881 96.2054 12.6842 96.149C12.892 95.9606 13.0474 95.7215 13.1354 95.455C13.2233 95.1885 13.2408 94.9038 13.186 94.6285C13.1701 94.5153 13.1237 94.4085 13.0519 94.3196C12.8412 94.0939 12.4575 94.1853 12.2039 94.3693C11.3989 94.9361 11.1749 96.0308 11.1708 97.0154C11.089 96.6594 11.1574 96.2901 11.1561 95.9247C11.1547 95.5594 11.0541 95.1564 10.7536 94.9603C10.562 94.8577 10.3469 94.8072 10.1297 94.8139C9.76743 94.8005 9.36493 94.8367 9.11806 95.1013C8.81081 95.4318 8.88997 95.9838 9.15697 96.3465C9.42396 96.7091 9.82781 96.9348 10.2048 97.186C10.5046 97.3652 10.7604 97.6093 10.9535 97.9005C10.9765 97.9433 10.9949 97.9883 11.0085 98.0349H13.2773C13.7825 97.7736 14.25 97.4451 14.6673 97.0584Z" fill="#3ACC6C"/>
<path d="M56.9316 40.2323L62.0193 37.6802L63.8977 39.4035L64.3444 40.6353L64.814 42.7051L64.4008 43.6118L61.1472 44.2055C61.1472 44.2055 59.4138 44.1047 59.1454 44.239C58.8771 44.3734 57.7823 44.6057 57.7823 44.6057L56.9316 42.509V40.2323Z" fill="#FBD56F"/>
<defs>
<linearGradient id="paint0_linear" x1="112.838" y1="105.037" x2="112.838" y2="37.335" gradientUnits="userSpaceOnUse">
<stop stop-color="#808080" stop-opacity="0.25"/>
<stop offset="0.54" stop-color="#808080" stop-opacity="0.12"/>
<stop offset="1" stop-color="#808080" stop-opacity="0.1"/>
</linearGradient>
</defs>
</svg>
