<svg width="147" height="113" viewBox="0 0 147 113" fill="none" xmlns="http://www.w3.org/2000/svg">
<path opacity="0.1" d="M29.5 113C42.4787 113 53 111.881 53 110.5C53 109.119 42.4787 108 29.5 108C16.5213 108 6 109.119 6 110.5C6 111.881 16.5213 113 29.5 113Z" fill="#3ACC6C"/>
<path opacity="0.1" d="M143.352 87.9557C142.751 88.8839 142.013 89.7156 141.164 90.4226C140.93 90.6161 140.688 90.8045 140.441 90.9801C137.288 93.2511 133.066 94.249 128.965 94.8957C121.003 96.1508 112.874 96.3952 104.779 96.6345C97.9638 96.8382 91.1449 97.0419 84.3272 97.1768C74.5823 97.3728 63.2702 101.119 53.5406 100.865C38.9386 102.325 42.6782 104.759 30.1774 104.759C20.3247 104.083 21.5259 101.347 12.9489 97.1768C11.6816 95.9975 9.68715 89.7144 8.27445 88.6965C5.94519 86.9946 1.89793 83.9739 0.872291 81.535C-0.777867 77.6143 0.0941775 73.2087 1.97917 69.3645C3.12158 67.0401 4.60546 64.8634 6.14518 62.7057C7.05658 61.4252 7.98828 60.1522 8.87429 58.8602C8.96695 58.7329 9.05708 58.5967 9.14593 58.4643C9.3173 58.2097 9.48739 57.9552 9.65367 57.7006C10.3493 56.6275 11.0081 55.52 11.6123 54.3909C12.2146 53.2646 12.759 52.1081 13.2434 50.926C13.6877 49.8459 14.0691 48.7408 14.3858 47.6164C14.5965 46.859 14.7742 46.0991 14.9113 45.3391C15.6615 41.2008 15.2655 37.065 13.0441 33.3213C13.0225 33.2844 12.9997 33.245 12.9768 33.2081L12.9489 33.1635C12.3219 32.1312 11.5653 31.1586 10.8215 30.1823C9.93293 29.0112 9.05835 27.8325 8.44271 26.543C6.82302 23.1353 7.17336 19.3038 7.76234 15.6645C8.54807 10.8273 10.0104 5.6083 14.5381 2.59272C19.2411 -0.54633 25.9179 -0.387213 31.7556 0.735514C40.8264 2.47562 49.2029 6.12512 57.6606 9.4182C66.1183 12.7113 74.9733 15.723 84.2726 16.0451C92.484 16.3315 102.061 14.193 107.511 8.63025C112.804 3.22919 122.754 2.81803 129.929 6.08438C136.773 9.1967 141.199 15.7854 140.867 22.3639C140.382 31.9453 131.174 39.294 125.68 47.6775C125.434 48.0517 125.194 48.4349 124.965 48.8231C122.808 52.4803 121.479 56.6797 123.07 60.487C125.205 65.5877 131.545 68.0763 136.891 71.2802C139.473 72.8268 141.829 74.5415 143.352 76.8022C143.409 76.8837 143.461 76.9639 143.513 77.0441C145.662 80.3792 145.5 84.6384 143.352 87.9557Z" fill="#3ACC6C"/>
<path opacity="0.3" d="M9.35086 57.4225C10.0467 56.3638 10.7057 55.2712 11.3102 54.1572C11.913 53.0468 12.4581 51.9066 12.9431 50.7411C13.3876 49.6754 13.7692 48.5852 14.086 47.4758C14.2968 46.7285 14.4745 45.9788 14.6117 45.229C15.3621 41.1461 14.9659 37.0656 12.7438 33.372C12.7222 33.3356 12.6993 33.2967 12.6765 33.2603L10.5178 30.275H26.5364V40.7944H30.9922V72.3489H36.7419V62.1133H43.6407V72.3489H49.3866V54.863H49.6736V45.7653H55.1338V54.863H67.7823V68.5096H74.8259V64.2395H79.1433V68.5096H86.1856V28.1375H95.3841V21.7399H96.965V28.1375H99.5516V40.7894H104.152V30.27H108.033V19.4692H116.081V30.27H119.962V40.7894H124.705V48.6651C122.547 52.2733 121.217 56.4165 122.809 60.1729C124.945 65.2053 131.287 67.6606 136.635 70.8217C139.218 72.3489 141.575 74.0406 143.098 76.271V87.279C142.497 88.1935 141.758 89.0128 140.909 89.7092C140.676 89.9001 140.433 90.0859 140.187 90.2592C137.033 92.4998 132.809 93.4844 128.706 94.1224C120.741 95.3607 112.609 95.6018 104.511 95.8379C97.6939 96.0389 90.9974 96.3669 84.1772 96.5L56.6772 101C50.1772 101.5 45.6772 103 37.1772 104C21.6772 106.5 21.5232 100.614 12.9431 96.5C9.35086 93 7.25305 88.0622 5.83984 87.058V62.3632C6.75157 61.0998 7.6836 59.8439 8.56993 58.5691L9.35086 57.4225Z" fill="#3ACC6C"/>
<path opacity="0.4" d="M22.3897 47.6997H28.2305V43.8058H22.3897V47.6997Z" fill="white"/>
<path opacity="0.4" d="M14.602 50.6201V54.514H11.6816C12.2163 53.2484 12.6999 51.9487 13.1306 50.6201H14.602Z" fill="white"/>
<path opacity="0.4" d="M22.3897 54.5142H28.2305V50.6203H22.3897V54.5142Z" fill="white"/>
<path opacity="0.4" d="M9.51731 57.4346H14.6025V61.3284H8.76172V58.7445L9.51731 57.4346Z" fill="white"/>
<path opacity="0.4" d="M22.3897 61.3281H28.2305V57.4343H22.3897V61.3281Z" fill="white"/>
<path opacity="0.4" d="M14.6025 64.2485H8.76172V67.1689H14.6025V64.2485Z" fill="white"/>
<path opacity="0.4" d="M22.3897 67.1689H28.2305V64.2486H22.3897V67.1689Z" fill="white"/>
<path opacity="0.4" d="M14.6025 71.063H8.76172V74.9568H14.6025V71.063Z" fill="white"/>
<path opacity="0.4" d="M22.3897 74.957H28.2305V71.0632H22.3897V74.957Z" fill="white"/>
<path opacity="0.4" d="M14.6025 77.877H8.76172V80.7973H14.6025V77.877Z" fill="white"/>
<path opacity="0.4" d="M22.3897 80.7974H28.2305V77.877H22.3897V80.7974Z" fill="white"/>
<path opacity="0.4" d="M14.6025 84.6914H8.76172V87.6118H14.6025V84.6914Z" fill="white"/>
<path opacity="0.4" d="M22.3897 87.6118H28.2305V84.6914H22.3897V87.6118Z" fill="white"/>
<path opacity="0.4" d="M47.6996 75.9302H33.0977V77.8771H47.6996V75.9302Z" fill="white"/>
<path opacity="0.4" d="M47.6996 78.8506H33.0977V79.8241H47.6996V78.8506Z" fill="white"/>
<path opacity="0.4" d="M47.6996 80.7974H33.0977V82.7443H47.6996V80.7974Z" fill="white"/>
<path opacity="0.4" d="M83.7184 76.9038H70.0898V78.8507H83.7184V76.9038Z" fill="white"/>
<path opacity="0.4" d="M83.7184 79.8242H70.0898V80.7977H83.7184V79.8242Z" fill="white"/>
<path opacity="0.4" d="M83.7184 81.771H70.0898V83.7179H83.7184V81.771Z" fill="white"/>
<path opacity="0.4" d="M47.6996 83.7178H33.0977V85.6647H47.6996V83.7178Z" fill="white"/>
<path opacity="0.4" d="M47.6996 86.6382H33.0977V88.5851H47.6996V86.6382Z" fill="white"/>
<path opacity="0.4" d="M47.6996 88.5854H33.0977V90.5324H47.6996V88.5854Z" fill="white"/>
<path opacity="0.4" d="M56.4603 58.4077H52.5664V63.275H56.4603V58.4077Z" fill="white"/>
<path opacity="0.4" d="M61.3288 63.2754H65.2227V58.4081H61.3288V63.2754Z" fill="white"/>
<path opacity="0.4" d="M56.4603 66.1958H52.5664V71.0631H56.4603V66.1958Z" fill="white"/>
<path opacity="0.4" d="M61.3288 71.063H65.2227V66.1957H61.3288V71.063Z" fill="white"/>
<path opacity="0.4" d="M56.4603 73.9834H52.5664V79.8242H56.4603V73.9834Z" fill="white"/>
<path opacity="0.4" d="M61.3288 79.8242H65.2227V73.9834H61.3288V79.8242Z" fill="white"/>
<path opacity="0.4" d="M56.4603 82.7446H52.5664V87.612H56.4603V82.7446Z" fill="white"/>
<path opacity="0.4" d="M61.3288 87.6118H65.2227V82.7445H61.3288V87.6118Z" fill="white"/>
<path opacity="0.4" d="M91.506 31.1509H86.6387V37.9651H91.506V31.1509Z" fill="white"/>
<path opacity="0.4" d="M91.506 40.8857H86.6387V47.7H91.506V40.8857Z" fill="white"/>
<path opacity="0.4" d="M91.506 50.6201H86.6387V56.4609H91.506V50.6201Z" fill="white"/>
<path opacity="0.4" d="M91.506 59.3813H86.6387V66.1956H91.506V59.3813Z" fill="white"/>
<path opacity="0.4" d="M91.506 69.1162H86.6387V75.9305H91.506V69.1162Z" fill="white"/>
<path opacity="0.4" d="M91.506 78.8506H86.6387V85.6648H91.506V78.8506Z" fill="white"/>
<path opacity="0.4" d="M121.684 44.7793H102.215V50.6201H121.684V44.7793Z" fill="white"/>
<path opacity="0.4" d="M121.683 56.4609H103.188V62.3017H121.683V56.4609Z" fill="white"/>
<path opacity="0.4" d="M122.657 69.1162H103.188V74.957H122.657V69.1162Z" fill="white"/>
<path opacity="0.4" d="M122.657 80.7974H103.188V86.6382H122.657V80.7974Z" fill="white"/>
<path opacity="0.4" d="M143.099 76.7192V78.8507H137.258V71.063C139.592 72.6453 141.722 74.4024 143.099 76.7192Z" fill="white"/>
<path opacity="0.4" d="M143.099 82.7446V87.7134C142.555 88.5785 141.889 89.3537 141.121 90.0127C140.91 90.193 140.691 90.3686 140.469 90.5323H137.258V82.7446H143.099Z" fill="white"/>
<path opacity="0.1" d="M44.1174 25.9584H43.1322C43.315 25.9584 43.4903 25.8729 43.6196 25.7208C43.7489 25.5688 43.8215 25.3625 43.8215 25.1474C43.8215 24.9323 43.7489 24.726 43.6196 24.574C43.4903 24.4219 43.315 24.3364 43.1322 24.3364H35.1529C34.9701 24.3364 34.7948 24.4219 34.6655 24.574C34.5363 24.726 34.4636 24.9323 34.4636 25.1474C34.4636 25.3625 34.5363 25.5688 34.6655 25.7208C34.7948 25.8729 34.9701 25.9584 35.1529 25.9584H36.1382C35.9603 25.9673 35.7922 26.0568 35.6691 26.208C35.5459 26.3593 35.4772 26.5606 35.4772 26.7701C35.4772 26.9795 35.5459 27.1809 35.6691 27.3322C35.7922 27.4834 35.9603 27.5728 36.1382 27.5818H34.7596C34.5768 27.5818 34.4015 27.6672 34.2722 27.8193C34.1429 27.9714 34.0703 28.1777 34.0703 28.3928C34.0703 28.6079 34.1429 28.8141 34.2722 28.9662C34.4015 29.1183 34.5768 29.2037 34.7596 29.2037H42.7376C42.9204 29.2037 43.0957 29.1183 43.225 28.9662C43.3543 28.8141 43.4269 28.6079 43.4269 28.3928C43.4269 28.1777 43.3543 27.9714 43.225 27.8193C43.0957 27.6672 42.9204 27.5818 42.7376 27.5818H44.1174C44.2953 27.5728 44.4633 27.4834 44.5865 27.3322C44.7097 27.1809 44.7784 26.9795 44.7784 26.7701C44.7784 26.5606 44.7097 26.3593 44.5865 26.208C44.4633 26.0568 44.2953 25.9673 44.1174 25.9584Z" fill="#3ACC6C"/>
<path opacity="0.1" d="M79.1645 43.4808H78.1795C78.3622 43.4808 78.5375 43.3954 78.6667 43.2433C78.796 43.0912 78.8686 42.8849 78.8686 42.6699C78.8686 42.4548 78.796 42.2485 78.6667 42.0964C78.5375 41.9443 78.3622 41.8589 78.1795 41.8589H70.2021C70.0193 41.8589 69.844 41.9443 69.7148 42.0964C69.5856 42.2485 69.513 42.4548 69.513 42.6699C69.513 42.8849 69.5856 43.0912 69.7148 43.2433C69.844 43.3954 70.0193 43.4808 70.2021 43.4808H71.1846C71.0067 43.4898 70.8387 43.5792 70.7156 43.7305C70.5924 43.8817 70.5237 44.0831 70.5237 44.2925C70.5237 44.502 70.5924 44.7034 70.7156 44.8546C70.8387 45.0059 71.0067 45.0953 71.1846 45.1043H69.8063C69.7158 45.1043 69.6262 45.1252 69.5426 45.166C69.459 45.2068 69.383 45.2665 69.319 45.3418C69.255 45.4171 69.2043 45.5065 69.1696 45.6049C69.135 45.7033 69.1172 45.8087 69.1172 45.9152C69.1172 46.0217 69.135 46.1272 69.1696 46.2256C69.2043 46.324 69.255 46.4134 69.319 46.4887C69.383 46.564 69.459 46.6237 69.5426 46.6645C69.6262 46.7052 69.7158 46.7262 69.8063 46.7262H77.7849C77.9677 46.7262 78.143 46.6408 78.2722 46.4887C78.4015 46.3366 78.4741 46.1303 78.4741 45.9152C78.4741 45.7002 78.4015 45.4939 78.2722 45.3418C78.143 45.1897 77.9677 45.1043 77.7849 45.1043H79.1645C79.3423 45.0953 79.5103 45.0059 79.6334 44.8546C79.7566 44.7034 79.8253 44.502 79.8253 44.2925C79.8253 44.0831 79.7566 43.8817 79.6334 43.7305C79.5103 43.5792 79.3423 43.4898 79.1645 43.4808Z" fill="#3ACC6C"/>
<path opacity="0.1" d="M139.49 20.7666H138.504C138.687 20.7666 138.862 20.6983 138.992 20.5766C139.121 20.455 139.194 20.29 139.194 20.1179C139.194 19.9459 139.121 19.7809 138.992 19.6592C138.862 19.5376 138.687 19.4692 138.504 19.4692H130.525C130.342 19.4692 130.167 19.5376 130.038 19.6592C129.908 19.7809 129.836 19.9459 129.836 20.1179C129.836 20.29 129.908 20.455 130.038 20.5766C130.167 20.6983 130.342 20.7666 130.525 20.7666H131.51C131.327 20.7666 131.152 20.8349 131.023 20.9566C130.894 21.0782 130.821 21.2432 130.821 21.4153C130.821 21.5873 130.894 21.7523 131.023 21.874C131.152 21.9956 131.327 22.064 131.51 22.064H130.132C129.954 22.0711 129.786 22.1427 129.663 22.2636C129.539 22.3846 129.471 22.5457 129.471 22.7132C129.471 22.8808 129.539 23.0418 129.663 23.1628C129.786 23.2838 129.954 23.3553 130.132 23.3625H138.11C138.203 23.3663 138.296 23.3522 138.383 23.3213C138.47 23.2904 138.55 23.2431 138.617 23.1825C138.684 23.1218 138.738 23.049 138.774 22.9683C138.811 22.8877 138.83 22.8009 138.83 22.7132C138.83 22.6255 138.811 22.5388 138.774 22.4581C138.738 22.3775 138.684 22.3046 138.617 22.244C138.55 22.1833 138.47 22.1361 138.383 22.1052C138.296 22.0742 138.203 22.0602 138.11 22.064H139.49C139.672 22.064 139.848 21.9956 139.977 21.874C140.106 21.7523 140.179 21.5873 140.179 21.4153C140.179 21.2432 140.106 21.0782 139.977 20.9566C139.848 20.8349 139.672 20.7666 139.49 20.7666Z" fill="#3ACC6C"/>
<g opacity="0.1">
<path opacity="0.1" d="M108.787 52.9913C108.82 53.0302 108.845 53.0756 108.86 53.1246C108.888 53.04 108.896 52.9501 108.883 52.862C108.87 52.7739 108.837 52.69 108.787 52.6167C108.721 52.5405 108.624 52.4961 108.565 52.4161C108.565 52.4098 108.557 52.4021 108.552 52.3945C108.518 52.4548 108.502 52.523 108.504 52.5918C108.506 52.6607 108.527 52.7277 108.565 52.7856C108.624 52.8643 108.721 52.91 108.787 52.9913Z" fill="black"/>
<path opacity="0.1" d="M110.666 48.1956C110.666 48.0546 110.673 47.915 110.666 47.7766C110.64 47.2687 110.547 46.7608 110.526 46.2529C110.496 46.87 110.633 47.5226 110.666 48.1461V48.1956Z" fill="black"/>
</g>
<g opacity="0.1">
<path opacity="0.1" d="M109.119 45.6143C109.119 45.6989 109.119 45.7836 109.119 45.8682C109.119 46.1425 109.142 46.4205 109.152 46.6961C109.164 46.3405 109.132 45.9761 109.119 45.6143Z" fill="black"/>
<path opacity="0.1" d="M108.675 54.2496C108.709 53.2338 108.478 52.1863 108.181 51.2023C108.061 50.8498 107.976 50.4867 107.927 50.1179C107.872 50.6258 108.036 51.1337 108.181 51.634C108.456 52.4813 108.622 53.3602 108.675 54.2496Z" fill="black"/>
<path opacity="0.1" d="M119.694 46.0004C119.715 45.7584 119.757 45.5187 119.821 45.2843C119.885 45.1062 119.912 44.917 119.901 44.7281C119.895 44.6949 119.887 44.6622 119.877 44.6304C119.861 44.7053 119.841 44.7789 119.821 44.8526C119.713 45.2251 119.67 45.6133 119.694 46.0004Z" fill="black"/>
<path opacity="0.1" d="M108.881 56.7307L108.094 56.7764C107.966 56.974 107.788 57.1336 107.578 57.2386L108.807 57.1662C108.881 57.0338 108.907 56.88 108.881 56.7307Z" fill="black"/>
<path opacity="0.1" d="M120.348 47.8173C120.281 47.9648 120.163 48.0835 120.017 48.1521C119.87 48.2208 119.703 48.2349 119.547 48.1919C119.293 48.1068 119.166 47.7259 118.933 47.6713C118.679 47.6104 118.592 47.8618 118.425 48.0256C117.545 48.8877 115.994 48.7176 114.869 48.682C114.336 48.6655 113.717 48.7049 113.407 49.1391C113.242 49.3689 113.205 49.6635 113.119 49.9327C113.032 50.2018 112.852 50.4812 112.573 50.5244C112.293 50.5675 112.065 50.3758 111.926 50.1434C111.812 49.9044 111.72 49.6553 111.652 49.3994C111.459 48.8585 111.091 48.4014 110.776 47.9215C110.721 47.8402 110.669 47.7538 110.622 47.6675C110.554 47.955 110.526 48.2509 110.541 48.5461C110.541 48.5665 110.541 48.588 110.541 48.6084C110.551 48.4371 110.577 48.2671 110.617 48.1005C110.664 48.1881 110.716 48.2744 110.771 48.3544C111.086 48.8344 111.454 49.2902 111.647 49.8311C111.715 50.0871 111.807 50.3362 111.921 50.5751C112.056 50.8037 112.302 50.9941 112.567 50.9561C112.833 50.918 113.026 50.6335 113.113 50.3644C113.201 50.0952 113.24 49.8019 113.402 49.5721C113.712 49.1378 114.331 49.0985 114.864 49.115C115.988 49.1505 117.538 49.3207 118.42 48.4573C118.587 48.2935 118.674 48.0433 118.927 48.1043C119.161 48.1589 119.292 48.5398 119.542 48.6249C119.952 48.7633 120.47 48.3824 120.377 47.9303C120.37 47.8921 120.361 47.8543 120.348 47.8173Z" fill="black"/>
<path opacity="0.1" d="M110.512 55.4153C110.27 55.6032 109.968 55.7645 109.883 56.0578C109.834 56.2292 109.872 56.412 109.846 56.5885C109.813 56.7501 109.74 56.901 109.635 57.0282C109.53 57.1554 109.395 57.2551 109.243 57.3186C109.123 57.3738 108.998 57.4163 108.869 57.4456C108.833 57.5799 108.76 57.701 108.656 57.7937C108.553 57.8865 108.424 57.9469 108.287 57.9674C108.616 57.9478 108.939 57.874 109.243 57.7491C109.395 57.6856 109.53 57.5861 109.635 57.4591C109.74 57.3322 109.812 57.1815 109.846 57.0202C109.872 56.8438 109.834 56.6596 109.883 56.4895C109.968 56.1962 110.264 56.0349 110.512 55.847C111.146 55.3518 111.449 54.5176 111.473 53.7114C111.473 53.5908 111.473 53.4714 111.473 53.3521C111.427 54.1342 111.126 54.9354 110.512 55.4153Z" fill="black"/>
</g>
<g opacity="0.1">
<path opacity="0.1" d="M51.4768 89.8357C51.4768 89.8357 50.1436 89.0472 50.2071 87.714L48.5679 79.7821C48.5679 79.7821 50.1588 78.247 49.27 76.3234C49.2228 76.2213 49.1702 76.1217 49.1126 76.025C48.5247 75.0258 47.1394 74.782 45.8672 74.796C47.0874 74.8074 48.3711 75.074 48.931 76.025C48.9887 76.1214 49.0409 76.2211 49.0872 76.3234C49.976 78.247 48.3863 79.7821 48.3863 79.7821L50.0217 87.7203C49.962 89.0535 51.2914 89.842 51.2914 89.842C52.5611 91.5383 57.1079 104.021 57.1079 104.021L51.4488 104.922C51.4488 104.931 51.4488 104.943 51.4488 104.952L57.2895 104.012C57.2895 104.012 52.749 91.532 51.4768 89.8357Z" fill="black"/>
</g>
<g opacity="0.1">
<path opacity="0.1" d="M42.9114 73.7862C45.9156 73.8218 49.6561 75.6298 49.6561 75.6298C49.2282 78.088 47.7808 78.7457 44.8731 81.5975C41.9655 84.4492 39.0553 91.717 39.0553 91.717C39.2369 93.0502 37.1165 101.655 36.2074 102.503C35.4163 103.242 35.4976 104.485 35.5319 104.795L35.7223 104.866C35.7223 104.866 35.4798 103.351 36.3889 102.503C37.298 101.655 39.4185 93.0502 39.2369 91.717C39.2369 91.717 42.1458 84.4454 45.0547 81.5975C47.9636 78.7495 49.4111 78.0918 49.8377 75.6298C49.8377 75.6298 45.9435 73.7481 42.9114 73.7862Z" fill="black"/>
</g>
<g opacity="0.1">
<path opacity="0.1" d="M50.0529 54.6582C50.0529 54.6582 56.2034 61.6569 55.3552 64.9898C55.3552 64.9898 52.2038 64.2636 51.3556 65.2324C51.3556 65.2324 50.689 62.9901 48.6892 61.7178C46.6894 60.4456 44.8471 52.2953 50.0529 54.6582Z" fill="black"/>
</g>
<g opacity="0.1">
<path opacity="0.1" d="M35.9824 43.362C36.0719 43.2259 36.1364 43.075 36.1729 42.9163C36.2338 42.6192 36.1602 42.3094 36.1957 42.0084C36.2091 41.9012 36.2351 41.7959 36.2732 41.6948C36.1558 41.8761 36.0803 42.0813 36.0523 42.2954C36.0167 42.5976 36.0903 42.9061 36.0281 43.2032C36.0175 43.2574 36.0022 43.3105 35.9824 43.362Z" fill="black"/>
<path opacity="0.1" d="M45.9071 49.9505C45.3421 50.6692 44.4088 51.172 43.52 50.9777C43.4957 51.0905 43.43 51.1902 43.3359 51.257C44.2374 51.4767 45.1897 50.9675 45.7636 50.2413C45.9791 49.9629 46.1607 49.6598 46.3045 49.3385C46.1908 49.5541 46.0578 49.7589 45.9071 49.9505Z" fill="black"/>
<path opacity="0.1" d="M43.5265 50.9283C43.8655 50.6134 43.5735 49.9709 43.1456 49.7385C42.6974 49.496 42.1425 49.4541 41.7591 49.1202C41.3756 48.7863 41.2614 48.2377 41.1369 47.7387C40.9795 47.1102 40.756 46.469 40.2939 46.0145C39.3936 45.1143 37.7697 45.6221 36.6663 45.7707C36.0314 45.8558 35.2252 45.6437 35.1033 45.0165C35.0744 44.8683 35.0867 44.7151 35.1388 44.5734C35.0622 44.6774 35.0068 44.7956 34.9758 44.9211C34.9449 45.0466 34.939 45.1769 34.9585 45.3047C35.0855 45.932 35.8892 46.144 36.5228 46.0577C37.6262 45.9091 39.2502 45.4012 40.1504 46.3027C40.6075 46.7611 40.836 47.3985 40.9935 48.027C41.1204 48.5247 41.2284 49.0694 41.6156 49.4071C42.0029 49.7449 42.5539 49.7881 43.0021 50.0255C43.3234 50.1982 43.5659 50.6045 43.5265 50.9283Z" fill="black"/>
</g>
<path opacity="0.05" d="M42.8993 41.5131L41.2344 41.188L41.2227 41.2478L42.8876 41.5729L42.8993 41.5131Z" fill="black"/>
<g opacity="0.1">
<path opacity="0.1" d="M42.2305 70.7526C43.083 70.7621 43.9266 70.9283 44.7191 71.2427C45.9888 71.7582 47.3334 71.2427 47.3334 71.2427C47.3334 71.2427 43.504 70.1317 42.2305 70.7526Z" fill="black"/>
</g>
<path d="M105.102 52.4608C105.102 52.4608 105.912 48.2074 108.515 48.1851L110.42 52.1093L109.139 52.9809C109.139 52.9809 106.388 53.0688 105.102 52.4608Z" fill="#65617D"/>
<path opacity="0.1" d="M110.415 52.1035L109.139 52.9807C109.139 52.9807 107.198 53.042 105.812 52.7018C105.568 52.645 105.33 52.5642 105.102 52.4605C105.102 52.4605 105.102 52.4368 105.115 52.3922C105.115 52.3866 105.115 52.381 105.115 52.3754C105.235 51.8418 105.4 51.3193 105.608 50.8135C105.688 50.6225 105.78 50.4258 105.877 50.2292C106.259 49.4943 106.795 48.7733 107.528 48.4163C107.799 48.2832 108.094 48.2059 108.396 48.189H108.474H108.511L108.554 48.2754L109.198 49.6017L110.415 52.1035Z" fill="black"/>
<path d="M132.04 69.7739C132.04 69.7739 134.776 69.5117 135.017 69.7083C135.257 69.905 136.811 70.9146 137.732 70.2787C138.652 69.6428 138.038 67.4282 138.038 67.3404C138.038 67.2525 137.95 64.1176 137.95 64.1176L136.309 61.903L134.251 58.0233L130.049 57.605L130.157 63.7661L130.137 66.9234L132.04 69.7739Z" fill="#65617D"/>
<path opacity="0.1" d="M132.04 69.7739C132.04 69.7739 134.776 69.5117 135.017 69.7083C135.257 69.905 136.811 70.9146 137.732 70.2787C138.652 69.6428 138.038 67.4282 138.038 67.3404C138.038 67.2525 137.95 64.1176 137.95 64.1176L136.309 61.903L134.251 58.0233L130.049 57.605L130.157 63.7661L130.137 66.9234L132.04 69.7739Z" fill="#4C7660"/>
<path d="M107.964 48.0706C107.964 48.0706 107.748 50.7454 106.077 50.7872C106.077 50.7872 105.607 50.5083 104.972 50.0272C103.51 48.9325 101.192 46.8267 101.832 44.8673C102.751 42.0615 107.216 47.2381 107.216 47.2381L107.56 47.623L107.964 48.0706Z" fill="#ECC2B6"/>
<path opacity="0.1" d="M107.963 48.071C107.963 48.071 107.748 50.7458 106.077 50.7876C106.077 50.7876 105.606 50.5087 104.971 50.0276L104.832 49.8449C105.114 49.9931 105.426 50.0774 105.744 50.0918C106.162 50.1001 106.632 49.9523 106.934 49.3401C107.109 48.9959 107.263 48.6415 107.395 48.2788C107.474 48.066 107.53 47.8453 107.562 47.6206L107.963 48.071Z" fill="black"/>
<path d="M107.241 52.9147L106.866 52.4322L105.613 50.8075L104.963 49.9778C105.245 50.1253 105.556 50.2091 105.873 50.2232C106.291 50.233 106.762 50.0837 107.064 49.4715C107.239 49.1276 107.393 48.7732 107.525 48.4103C107.732 47.819 107.728 47.515 107.654 47.4118C107.58 47.3086 108.119 47.8092 108.378 48.0561L108.388 48.0644L108.508 48.1788L108.554 48.268L109.187 49.5385C109.187 49.5385 109.187 49.5566 109.187 49.5915C109.246 49.9945 109.459 52.5521 107.241 52.9147Z" fill="#E7EFFD"/>
<path d="M131.429 35.5292L128.189 38.9947C128.189 38.9947 124.031 37.3212 124.468 36.7634C124.638 36.5431 124.608 35.8472 124.513 35.0788C124.36 33.8641 124.031 32.4654 124.031 32.4654C124.031 32.4654 131.298 31.2814 130.684 32.51C130.461 32.9577 130.498 33.4862 130.638 33.9659C130.816 34.5259 131.083 35.0536 131.429 35.5292Z" fill="#ECC2B6"/>
<path opacity="0.1" d="M130.684 32.5043C130.461 32.9519 130.354 32.9951 130.493 33.4805C129.543 34.5013 128.335 35.6183 126.833 35.6183C126.028 35.6198 125.234 35.4336 124.513 35.0744C124.36 33.8598 124.031 32.461 124.031 32.461C124.031 32.461 131.298 31.2757 130.684 32.5043Z" fill="black"/>
<path d="M132.041 30.2679C132.041 31.6519 131.492 32.9793 130.515 33.9579C129.538 34.9366 128.213 35.4864 126.831 35.4864C125.449 35.4864 124.124 34.9366 123.147 33.9579C122.17 32.9793 121.621 31.6519 121.621 30.2679C121.621 30.2428 121.621 30.2177 121.621 30.1926C121.651 28.8222 122.218 27.5186 123.2 26.5635C124.181 25.6085 125.499 25.0786 126.867 25.0885C128.236 25.0984 129.546 25.6472 130.513 26.6164C131.481 27.5855 132.029 28.8972 132.04 30.2679H132.041Z" fill="#ECC2B6"/>
<path opacity="0.1" d="M132.795 64.6912C132.099 64.6912 129.807 64.7163 127.24 64.7568H127.208L126.36 64.7707H126.333C123.288 64.8195 120.288 64.224 119.084 64.337C116.522 64.5783 120.003 61.9662 120.003 61.9662C121.911 62.43 123.874 62.6289 125.836 62.5575L126.573 62.5185C128.899 62.3874 131.238 62.1685 132.461 61.8003C132.546 62.4808 132.67 63.4668 132.795 64.6912Z" fill="black"/>
<path d="M132.795 64.5594C132.099 64.5594 129.807 64.5831 127.24 64.6249H127.208L126.36 64.6389H126.333C123.288 64.6877 120.288 64.0922 119.084 64.2052C116.522 64.445 120.003 61.8344 120.003 61.8344C121.911 62.2981 123.874 62.4966 125.836 62.4243L126.573 62.3867C128.899 62.2556 131.238 62.0352 132.461 61.6685C132.546 62.349 132.67 63.3378 132.795 64.5594Z" fill="#5F5D7E"/>
<path opacity="0.1" d="M125.429 36.9811L121.401 38.8665L118.295 62.9338C118.295 62.9338 120.133 62.0971 121.184 62.627C122.235 63.1569 125.474 62.6716 125.474 62.6716C125.474 62.6716 127.841 62.5322 128.187 62.8027C128.534 63.0733 132.654 61.7066 132.654 61.7066C132.654 61.7066 133.397 60.0401 132.828 59.7779C132.258 59.5157 133.003 56.9233 133.003 56.9233L132.654 39.5596L131.958 37.3283L130.075 36.189L128.15 37.723L127.231 37.8555L125.429 36.9811Z" fill="black"/>
<path d="M125.429 36.7134L121.403 38.5988L118.295 62.6717C118.295 62.6717 120.133 61.8349 121.184 62.3649C122.235 62.8948 125.474 62.4081 125.474 62.4081C125.474 62.4081 127.841 62.277 128.187 62.5392C128.534 62.8014 132.654 61.4431 132.654 61.4431C132.654 61.4431 133.397 59.7779 132.828 59.5144C132.258 59.2508 133.003 56.6639 133.003 56.6639L132.654 39.3003L131.958 37.069L130.075 35.9282L128.15 37.4622L127.231 37.5933L125.429 36.7134Z" fill="#E7EFFD"/>
<path opacity="0.1" d="M125.365 37.8314C125.365 37.8314 126.526 39.212 126.504 39.4979C126.482 39.7838 126.439 40.4615 126.439 40.4615L125.57 42.2382C125.57 42.2382 125.088 44.4528 125.088 44.913C125.088 45.3732 124.322 49.363 124.322 49.363L123.403 55.4991L122.242 63.5457L123.424 65.5845L124.825 64.4005L126.684 50.0645L127.078 47.2363C127.078 47.2363 127.495 42.1504 127.495 41.6246C127.495 41.0989 127.254 39.7169 127.254 39.7169C127.254 39.7169 127.54 38.4018 128.722 38.095C129.904 37.7882 128.634 38.028 128.634 38.028L127.956 37.48L127.364 37.7212C127.364 37.7212 125.716 37.2178 125.365 37.8314Z" fill="black"/>
<path d="M125.233 37.7005C125.233 37.7005 126.393 39.0812 126.372 39.3657C126.351 39.6501 126.305 40.3307 126.305 40.3307L125.429 42.1074C125.429 42.1074 124.947 44.3205 124.947 44.7807C124.947 45.2409 124.182 49.2322 124.182 49.2322L123.261 55.3682L122.102 63.4134L123.284 65.4523L124.684 64.2683L126.543 49.9336L126.937 47.1055C126.937 47.1055 127.355 42.0195 127.355 41.4924C127.355 40.9652 127.114 39.586 127.114 39.586C127.114 39.586 127.392 38.2695 128.58 37.9627C129.768 37.6559 128.494 37.8972 128.494 37.8972L127.814 37.3491L127.224 37.5904C127.224 37.5904 125.584 37.0855 125.233 37.7005Z" fill="#70A14D"/>
<path opacity="0.1" d="M124.468 35.3979C124.468 35.3979 124.292 35.529 124.249 36.4062C124.206 37.2834 123.592 39.2567 123.592 39.2567C123.592 39.2567 125.868 37.6781 127.007 37.8538L124.468 35.3979Z" fill="black"/>
<path d="M124.468 35.1348C124.468 35.1348 124.292 35.2672 124.249 36.143C124.206 37.0188 123.592 38.9935 123.592 38.9935C123.592 38.9935 125.868 37.4149 127.007 37.5906L124.468 35.1348Z" fill="#E7EFFD"/>
<path opacity="0.1" d="M130.683 34.6968L127.1 37.8541C127.1 37.8541 130.121 39.6516 130.515 40.0854C130.909 40.5191 131.303 35.7887 131.303 35.7887L130.683 34.6968Z" fill="black"/>
<path d="M130.816 34.4331L127.227 37.5904C127.227 37.5904 130.246 39.388 130.64 39.8217C131.035 40.2554 131.429 35.5236 131.429 35.5236L130.816 34.4331Z" fill="#E7EFFD"/>
<path opacity="0.1" d="M124.595 35.398C124.595 35.398 124.201 35.2 123.829 35.7704C123.457 36.3407 122.757 36.6071 122.757 36.6071C122.757 36.6071 118.772 37.243 118.619 37.7688L116.759 37.8775C116.759 37.8775 116.102 37.957 116.04 39.3516C115.979 40.7461 115.623 40.8633 115.623 40.8633C115.623 40.8633 114.855 42.223 114.926 42.9244C114.997 43.6259 114.335 43.9773 114.335 43.9773L117.076 51.0952C117.076 51.0952 117.164 54.0335 116.658 55.1073C116.153 56.1811 115.213 60.9393 115.213 60.9393C115.213 60.9393 115.607 60.8515 115.585 61.1151C115.563 61.3786 115.103 64.25 115.103 64.25C115.103 64.25 114.972 65.3894 114.754 65.784C114.535 66.1787 114.513 68.2399 114.513 68.2399L114.152 69.7306C114.152 69.7306 114.988 71.5938 116.255 71.3302C117.522 71.0666 119.822 66.0908 119.822 66.0908L121.288 60.7204L122.427 55.4141L122.755 51.8189L123.28 43.8602L124.046 38.5985C124.046 38.5985 124.905 35.7704 124.595 35.398Z" fill="black"/>
<path d="M124.468 35.1348C124.468 35.1348 124.074 34.9382 123.702 35.5085C123.331 36.0789 122.629 36.3453 122.629 36.3453C122.629 36.3453 118.646 36.9812 118.492 37.5069L116.632 37.6171C116.632 37.6171 115.975 37.705 115.91 39.0856C115.844 40.4662 115.492 40.5987 115.492 40.5987C115.492 40.5987 114.726 41.9584 114.796 42.6598C114.866 43.3613 114.206 43.7113 114.206 43.7113L116.937 50.832C116.937 50.832 117.025 53.7703 116.52 54.8441C116.014 55.9179 115.076 60.6761 115.076 60.6761C115.076 60.6761 115.47 60.5883 115.447 60.8519C115.425 61.1154 114.966 63.9868 114.966 63.9868C114.966 63.9868 114.835 65.1262 114.616 65.5208C114.398 65.9155 114.375 67.9767 114.375 67.9767L114.027 69.4744C114.027 69.4744 114.863 71.3375 116.128 71.0754C117.394 70.8132 119.697 65.8346 119.697 65.8346L121.163 60.4642L122.302 55.1648L122.629 51.5697L123.155 43.6123L123.921 38.3507C123.921 38.3507 124.774 35.5085 124.468 35.1348Z" fill="#3D6973"/>
<path opacity="0.1" d="M110.416 52.1033L109.141 52.9805C109.141 52.9805 107.2 53.0418 105.813 52.7016L105.106 52.3878L104.967 52.325L105.113 52.3711C105.845 52.5886 106.418 52.5844 106.864 52.4338C108.662 51.8286 108.463 48.8568 108.396 48.1846C108.396 48.1176 108.385 48.0744 108.382 48.0577C108.382 48.0549 108.382 48.0521 108.382 48.0493L108.393 48.0661C108.417 48.107 108.445 48.1457 108.475 48.1818C108.5 48.2118 108.527 48.2402 108.556 48.2669L109.19 49.5373C109.19 49.5373 109.19 49.5554 109.19 49.5903L110.416 52.1033Z" fill="black"/>
<path d="M114.816 43.5356L114.203 43.7114L114.116 44.9665C114.116 44.9665 113.393 44.8577 113.197 45.7125C113 46.5674 112.649 46.9677 112.649 46.9677C112.649 46.9677 111.445 47.9759 111.38 48.8308L110.635 49.291C110.635 49.291 108.906 48.8963 108.512 48.1949C108.512 48.1949 109.3 53.8512 105.098 52.4706C105.098 52.4706 109.804 54.5317 110.022 54.8162C110.241 55.1007 111.686 55.9319 112.999 55.2346C114.312 54.5373 114.597 53.437 114.597 53.437C114.597 53.437 115.867 51.6617 115.91 51.3982C115.953 51.1346 116.939 50.8278 116.939 50.8278L118.822 46.269L114.816 43.5356Z" fill="#3D6973"/>
<path opacity="0.1" d="M130.18 37.3268L130.815 34.4331C130.815 34.4331 131.094 35.3758 131.385 35.5948C131.676 35.8137 132.326 36.3185 132.326 36.3185C132.326 36.3185 133.267 36.7578 133.594 36.7578C133.922 36.7578 135.697 37.218 135.915 37.4551C136.134 37.6922 137.01 37.5207 137.01 37.5207C137.01 37.5207 137.732 37.7619 138.367 37.9153C139.002 38.0687 139.308 39.1216 139.176 39.5372C139.123 39.7444 139.124 39.9616 139.177 40.1686C139.231 40.3756 139.336 40.5657 139.482 40.7212C139.746 40.9847 139.876 41.8368 139.876 41.8368C140.199 41.9419 140.467 42.1706 140.621 42.4727C140.84 42.9553 140.774 44.0068 140.774 44.0068L137.514 48.6088C137.514 48.6088 137.557 50.3841 137.426 50.7787C137.295 51.1734 137.885 57.8826 137.885 57.8826L138.563 69.4142C138.563 69.4142 137.667 70.1812 137.469 70.2691C137.271 70.3569 137.075 66.1914 137.075 66.038C137.075 65.8846 132.02 58.4516 132.02 58.4516C132.02 58.4516 131.34 57.3555 131.34 57.1142C131.34 56.8729 130.705 54.6598 130.705 54.6598L129.746 50.3938L130.18 37.3268Z" fill="#3D6973"/>
<path d="M141.045 43.7624C141.045 43.913 141.037 44.0134 141.037 44.0134L137.778 48.6155C137.778 48.6155 137.822 50.3921 137.691 50.7868C137.615 51.0155 137.782 53.3751 137.936 55.3122C138.046 56.7067 138.151 57.8893 138.151 57.8893L138.438 62.7814L138.827 69.4223C138.827 69.4223 137.931 70.1893 137.735 70.2772C137.538 70.365 137.34 66.1995 137.34 66.0447C137.34 65.8899 132.281 58.4569 132.281 58.4569C132.281 58.4569 131.603 57.3594 131.603 57.1181C131.603 56.8768 130.968 54.6623 130.968 54.6623L130.006 50.388L130.443 37.321L130.815 34.4272C130.815 34.4272 131.362 35.3714 131.65 35.5889C131.938 35.8065 132.59 36.3127 132.59 36.3127C132.59 36.3127 133.531 36.752 133.86 36.752C134.188 36.752 135.961 37.2122 136.181 37.4493C136.401 37.6863 137.275 37.5148 137.275 37.5148C137.275 37.5148 137.996 37.7561 138.631 37.9095C139.266 38.0629 139.572 39.1158 139.441 39.5313C139.388 39.7385 139.388 39.9558 139.442 40.1629C139.496 40.37 139.601 40.5601 139.748 40.7153C140.01 40.9775 140.142 41.831 140.142 41.831C140.464 41.9365 140.732 42.165 140.887 42.4669C141.036 42.8127 141.05 43.4208 141.045 43.7624Z" fill="#41737E"/>
<path opacity="0.1" d="M123.723 71.5666C123.876 71.5666 126.262 70.7773 127.093 71.1287C127.925 71.4802 128.955 71.4788 128.955 71.4788L123.723 71.5666Z" fill="black"/>
<path opacity="0.1" d="M124.038 74.0762L124.015 74.2938L121.974 79.6405C121.974 79.6405 121.645 81.2624 121.36 82.1828C121.181 82.8084 121.038 83.444 120.934 84.0864L122.744 72.8657L124.038 74.0762Z" fill="black"/>
<path d="M127.207 64.6251L126.359 64.6391H126.333L125.836 62.4287C126.08 62.4175 126.326 62.405 126.572 62.3896L127.207 64.6251Z" fill="#3F3D56"/>
<path d="M137.534 61.9433L136.99 62.3938L135.176 63.8957C135.176 63.8957 130.251 66.5272 128.895 64.0268C127.699 61.8248 133.282 60.2531 134.627 59.9101C134.81 59.864 134.914 59.8403 134.914 59.8403L137.534 61.9433Z" fill="#ECC2B6"/>
<path opacity="0.1" d="M116.502 40.396C116.502 40.396 117.464 40.8353 117.683 41.4489C117.901 42.0625 116.502 40.396 116.502 40.396Z" fill="black"/>
<path opacity="0.1" d="M113.523 46.9746C113.523 46.9746 112.122 48.6843 112.687 49.3454C113.252 50.0064 113.523 46.9746 113.523 46.9746Z" fill="black"/>
<path opacity="0.1" d="M138.563 41.3618C138.563 41.3618 137.25 41.4929 137.205 42.6337L138.563 41.3618Z" fill="black"/>
<path opacity="0.1" d="M126.395 59.3392C126.534 59.2081 129.547 54.7372 130.247 55.1304L126.395 59.3392Z" fill="black"/>
<path opacity="0.1" d="M132.041 30.2677C132.042 31.1271 131.83 31.9732 131.424 32.7305H131.385C131.055 32.6608 130.884 32.2759 130.632 32.0332C130.477 31.8855 130.28 31.7901 130.068 31.7604C129.856 31.7306 129.64 31.768 129.45 31.8673C129.258 31.982 129.102 32.1482 128.999 32.3471C128.897 32.5459 128.852 32.7695 128.869 32.9927C128.702 32.2954 128.755 31.5437 128.591 30.8409C128.427 30.138 127.938 29.4254 127.267 29.4129C126.977 29.4129 126.64 29.5202 126.431 29.3027C126.305 29.1716 126.28 28.9652 126.185 28.8062C125.705 28.0295 124.246 28.4227 123.65 28.8216C123.054 29.2204 122.362 29.8563 121.621 30.198C121.651 28.8276 122.218 27.524 123.2 26.5689C124.181 25.6138 125.499 25.084 126.867 25.0939C128.236 25.1038 129.546 25.6526 130.513 26.6218C131.481 27.5909 132.029 28.9026 132.04 30.2733L132.041 30.2677Z" fill="black"/>
<path d="M126.187 28.6693C126.282 28.8283 126.307 29.0347 126.433 29.1658C126.642 29.3819 126.979 29.2704 127.269 29.2759C127.94 29.2871 128.43 29.9997 128.593 30.7026C128.756 31.4054 128.703 32.1529 128.871 32.8544C128.854 32.6315 128.899 32.4081 129.002 32.2095C129.104 32.0109 129.26 31.845 129.452 31.7304C129.641 31.631 129.857 31.5936 130.069 31.6233C130.28 31.6531 130.478 31.7486 130.632 31.8963C130.884 32.1362 131.05 32.5211 131.387 32.5936C131.724 32.6661 132.036 32.3454 132.156 31.9967C132.275 31.6481 132.266 31.266 132.344 30.9048C132.493 30.22 132.938 29.6594 133.179 29.0096C133.473 28.2183 133.465 27.3465 133.157 26.5607C132.992 26.1424 132.749 25.7784 132.582 25.367C132.331 24.7422 132.264 24.038 131.958 23.4425C131.443 22.4454 130.229 21.9475 129.232 22.3268C128.756 22.5067 128.342 22.854 127.859 23.0088C127.213 23.2166 126.521 23.0604 125.851 22.9669C125.182 22.8735 124.441 22.8651 123.902 23.3058C123.283 23.8134 123.113 24.7673 122.531 25.3251C122.286 25.5594 121.982 25.7087 121.725 25.9248C121.467 26.141 121.244 26.4631 121.273 26.8145C121.312 27.2692 121.757 27.682 121.592 28.1017C121.533 28.2238 121.45 28.3329 121.349 28.4225C120.862 28.9349 120.499 29.5529 120.289 30.2284C121.461 30.5952 122.728 29.301 123.646 28.6944C124.249 28.2858 125.708 27.8911 126.187 28.6693Z" fill="#4C3E42"/>
<path opacity="0.1" d="M137.535 61.9437L136.99 62.3942C136.51 61.5923 134.537 59.9914 134.537 59.9914L134.622 59.9091C134.804 59.8631 134.909 59.8394 134.909 59.8394L137.535 61.9437Z" fill="black"/>
<path d="M138.061 61.1358C138.061 61.1358 137.865 61.6238 137.663 62.0464C137.461 62.4689 137.245 62.8511 137.228 62.5401C137.206 61.9251 134.668 59.8639 134.668 59.8639L135.012 59.5292L135.411 59.1401L138.061 61.1358Z" fill="#E7EFFD"/>
<path opacity="0.1" d="M138.147 57.891L138.434 62.7831C137.755 61.7246 135.888 59.0094 134.688 59.0973L137.599 55.7503C137.72 55.6154 137.832 55.4719 137.933 55.3208C138.043 56.7126 138.147 57.891 138.147 57.891Z" fill="black"/>
<path opacity="0.1" d="M138.061 61.1358C138.061 61.1358 137.865 61.6238 137.663 62.0464C136.9 60.9977 135.853 59.7607 135.018 59.5292L135.417 59.1401L138.061 61.1358Z" fill="black"/>
<path d="M140.249 43.396L141.037 44.0096C141.037 44.0096 142.35 44.0319 142.481 45.1252C142.612 46.2186 143.816 46.7262 143.816 46.7262C143.816 46.7262 144.714 47.6243 144.714 48.0413C144.714 48.4582 145.392 49.2029 145.392 49.2685C145.392 49.334 146.049 50.6714 145.961 50.9127C145.874 51.1539 146.658 52.2068 146.421 52.6015C146.223 52.9555 146.048 53.3216 145.896 53.6976C145.896 53.6976 144.867 55.6709 144.341 56.0432C143.815 56.4156 141.409 59.5506 141.409 59.5506C141.409 59.5506 138.826 62.5321 138.826 63.4553C138.826 63.4553 136.309 59.2452 134.82 59.3553L137.732 56.0014C137.732 56.0014 138.234 55.4534 138.257 55.1242C138.279 54.7951 139.657 53.282 140.314 53.2165C140.314 53.2165 140.423 52.317 140.139 52.2961C139.855 52.2752 139.614 51.5723 139.614 51.5723C139.614 51.5723 137.687 49.2922 137.665 47.8446C137.643 46.3971 140.249 43.396 140.249 43.396Z" fill="#3D6973"/>
<path opacity="0.1" d="M141.409 45.4878C141.409 45.4878 139.57 46.8461 139.964 47.2854C140.358 47.7247 141.409 45.4878 141.409 45.4878Z" fill="black"/>
<path opacity="0.1" d="M141.496 51.0951C141.496 51.0951 144.91 49.9989 145.255 51.0951H141.496Z" fill="black"/>
<path opacity="0.1" d="M117.408 45.2202C117.408 45.2202 117.408 50.2183 116.981 50.712C116.554 51.2057 117.408 45.2202 117.408 45.2202Z" fill="black"/>
<path opacity="0.1" d="M137.141 46.8306L137.776 48.617C137.776 48.617 138.028 46.864 137.141 46.8306Z" fill="black"/>
<g opacity="0.1">
<path opacity="0.1" d="M121.671 27.6682C121.831 27.2568 121.412 26.8538 121.357 26.4131C121.302 26.5375 121.278 26.6734 121.287 26.8091C121.315 27.1424 121.566 27.452 121.625 27.7602C121.644 27.731 121.659 27.7002 121.671 27.6682Z" fill="black"/>
<path opacity="0.1" d="M128.929 32.3902C128.771 31.6929 128.817 30.9663 128.658 30.276C128.5 29.5857 128.005 28.8591 127.334 28.848C127.045 28.848 126.708 28.954 126.499 28.7378C126.372 28.6067 126.347 28.4003 126.253 28.2414C125.774 27.4646 124.314 27.8578 123.717 28.2567C122.822 28.8522 121.593 30.0989 120.444 29.8172C120.39 29.9497 120.338 30.0836 120.295 30.2216C121.467 30.5884 122.734 29.2942 123.652 28.6876C124.249 28.2902 125.707 27.8955 126.187 28.6737C126.282 28.8326 126.307 29.039 126.434 29.1701C126.642 29.3863 126.979 29.2747 127.269 29.2803C127.94 29.2915 128.43 30.0041 128.593 30.7069C128.756 31.4098 128.703 32.1573 128.871 32.8587C128.859 32.7003 128.878 32.541 128.929 32.3902Z" fill="black"/>
<path opacity="0.1" d="M132.221 31.5675C132.101 31.9162 131.789 32.2355 131.452 32.1644C131.115 32.0933 130.951 31.7098 130.699 31.4671C130.543 31.3199 130.346 31.2248 130.134 31.1953C129.922 31.1658 129.706 31.2033 129.517 31.3026C129.334 31.4115 129.184 31.5673 129.082 31.7539C128.98 31.9406 128.93 32.1511 128.936 32.3638C129.024 32.096 129.207 31.8701 129.451 31.7293C129.641 31.6299 129.856 31.5925 130.068 31.6223C130.28 31.6521 130.477 31.7475 130.632 31.8953C130.884 32.1351 131.05 32.52 131.387 32.5925C131.724 32.6651 132.035 32.3443 132.155 31.9957C132.217 31.7903 132.257 31.5791 132.275 31.3653C132.26 31.4337 132.242 31.5012 132.221 31.5675Z" fill="black"/>
<path opacity="0.1" d="M133.249 28.5816C133.003 29.2315 132.553 29.7921 132.414 30.4754C132.383 30.6149 132.366 30.7543 132.35 30.8938C132.499 30.2133 132.943 29.654 133.185 29.0056C133.295 28.7135 133.363 28.4074 133.387 28.0963C133.354 28.2615 133.308 28.4238 133.249 28.5816Z" fill="black"/>
</g>
<path d="M101.617 44.4559C101.647 44.4559 101.671 44.4316 101.671 44.4016C101.671 44.3715 101.647 44.3472 101.617 44.3472C101.587 44.3472 101.562 44.3715 101.562 44.4016C101.562 44.4316 101.587 44.4559 101.617 44.4559Z" fill="#E6E8EC"/>
<path d="M105.66 30.975L99.9513 25.2252C99.6715 24.9386 99.3377 24.7104 98.9693 24.5536C98.6009 24.3969 98.2052 24.3148 97.8049 24.3121C97.4047 24.3094 97.0079 24.3861 96.6374 24.5378C96.2669 24.6895 95.9301 24.9132 95.6463 25.196L59.8003 60.7962L44.6437 45.4965C44.081 44.9248 43.3145 44.6003 42.5129 44.5946C41.7113 44.5888 40.9403 44.9022 40.3694 45.4659L34.5997 51.1836C34.0295 51.7539 33.7067 52.5264 33.7012 53.3335C33.6958 54.1407 34.0081 54.9174 34.5705 55.4955L57.5879 78.7317C58.1572 79.303 58.9283 79.6265 59.7341 79.6323C60.5399 79.638 61.3156 79.3255 61.8929 78.7623L105.628 35.2856C105.914 35.0055 106.142 34.6714 106.298 34.3027C106.455 33.9339 106.537 33.5377 106.54 33.137C106.543 32.7363 106.467 32.3389 106.316 31.9678C106.165 31.5968 105.942 31.2593 105.66 30.975Z" fill="#3ACC6C"/>
<path d="M21.5974 38.5839C24.4665 38.5839 26.7924 36.258 26.7924 33.3889C26.7924 30.5197 24.4665 28.1938 21.5974 28.1938C18.7282 28.1938 16.4023 30.5197 16.4023 33.3889C16.4023 36.258 18.7282 38.5839 21.5974 38.5839Z" fill="#3F3D56"/>
<path d="M18.5826 73.8012C19.1188 77.5634 18.4649 81.3997 17.4462 85.0602C17.2559 85.7417 17.051 86.4291 16.6949 87.0409C16.3389 87.6526 15.8434 88.1787 15.4249 88.7541C14.553 89.9544 14.0415 91.3698 13.5634 92.7706C12.2453 96.6469 11.1383 100.592 10.2473 104.588C10.1936 104.751 10.1936 104.928 10.2473 105.092C10.3737 105.383 10.7574 105.42 11.0727 105.419L15.1502 105.397C15.2956 105.118 15.0267 104.816 14.8596 104.548C14.2783 103.645 14.8364 102.47 15.3493 101.524C16.596 99.2269 17.5611 96.7873 18.2237 94.2587C18.5027 93.1935 18.7294 92.1051 19.1827 91.101C19.7306 89.8832 20.5894 88.8355 21.2869 87.6962C22.0978 86.3724 22.6892 84.9352 23.2763 83.4923C24.0959 81.4898 24.9227 79.4627 25.2453 77.3236C25.549 75.3154 25.3993 73.2693 25.2017 71.248C25.2109 71.1878 25.2057 71.1264 25.1864 71.0687C25.1672 71.011 25.1345 70.9587 25.0911 70.9161C25.0476 70.8735 24.9947 70.8419 24.9366 70.8238C24.8785 70.8057 24.817 70.8017 24.7571 70.812L19.2859 70.5301C18.1583 70.472 17.8909 70.225 18.0624 71.3323C18.1815 72.1591 18.4634 72.9641 18.5826 73.8012Z" fill="#3D6973"/>
<path opacity="0.1" d="M18.5826 73.8012C19.1188 77.5634 18.4649 81.3997 17.4462 85.0602C17.2559 85.7417 17.051 86.4291 16.6949 87.0409C16.3389 87.6526 15.8434 88.1787 15.4249 88.7541C14.553 89.9544 14.0415 91.3698 13.5634 92.7706C12.2453 96.6469 11.1383 100.592 10.2473 104.588C10.1936 104.751 10.1936 104.928 10.2473 105.092C10.3737 105.383 10.7574 105.42 11.0727 105.419L15.1502 105.397C15.2956 105.118 15.0267 104.816 14.8596 104.548C14.2783 103.645 14.8364 102.47 15.3493 101.524C16.596 99.2269 17.5611 96.7873 18.2237 94.2587C18.5027 93.1935 18.7294 92.1051 19.1827 91.101C19.7306 89.8832 20.5894 88.8355 21.2869 87.6962C22.0978 86.3724 22.6892 84.9352 23.2763 83.4923C24.0959 81.4898 24.9227 79.4627 25.2453 77.3236C25.549 75.3154 25.3993 73.2693 25.2017 71.248C25.2109 71.1878 25.2057 71.1264 25.1864 71.0687C25.1672 71.011 25.1345 70.9587 25.0911 70.9161C25.0476 70.8735 24.9947 70.8419 24.9366 70.8238C24.8785 70.8057 24.817 70.8017 24.7571 70.812L19.2859 70.5301C18.1583 70.472 17.8909 70.225 18.0624 71.3323C18.1815 72.1591 18.4634 72.9641 18.5826 73.8012Z" fill="black"/>
<path d="M19.6593 64.6548C18.5476 66.2533 17.3822 68.0929 17.7513 70.0068C18.0317 71.4599 19.139 72.5861 20.1839 73.6396C24.3602 77.8334 28.4668 82.4923 29.888 88.2395C30.2542 89.7246 30.4315 91.249 30.7468 92.7443C31.3194 95.4617 32.3453 98.0599 33.3625 100.642L36.0886 107.523C36.9341 107.544 37.7655 107.304 38.47 106.836C39.1745 106.368 39.718 105.695 40.0267 104.907C39.6692 104.88 39.2028 104.534 38.9935 104.243C37.831 102.634 37.5927 100.565 37.2948 98.6034C36.9649 96.4353 36.5246 94.2846 36.0828 92.1354L34.1298 82.6259C33.9046 81.5288 33.6793 80.4302 33.3858 79.3491C32.2494 75.1611 30.0958 71.2114 29.7631 66.881C29.7137 66.2445 29.6831 65.5456 29.2516 65.0733C28.7982 64.5749 28.0542 64.492 27.3813 64.4528C24.6596 64.2784 22.3113 64.0125 19.6593 64.6548Z" fill="#3D6973"/>
<path d="M12.3162 104.49C12.0198 104.419 11.7169 104.38 11.4123 104.374C11.1205 104.384 10.835 104.462 10.5787 104.602C10.3224 104.742 10.1023 104.94 9.93592 105.18C9.76615 105.452 9.63277 105.745 9.5392 106.052L9.1454 107.182C9.02915 107.514 8.9158 107.896 9.08873 108.2C9.21735 108.388 9.40257 108.531 9.61768 108.608C10.5709 109.032 11.6521 109.056 12.6838 109.157C13.6923 109.256 14.6921 109.433 15.6875 109.619C16.0304 109.685 16.3719 109.75 16.7192 109.785C17.4952 109.864 18.277 109.785 19.053 109.715L19.8537 109.638C20.1217 109.627 20.3868 109.578 20.6413 109.493C20.7684 109.45 20.8855 109.381 20.9854 109.292C21.0853 109.202 21.166 109.093 21.2226 108.971C21.4202 108.482 20.9959 107.902 20.4771 107.8C20.2664 107.759 20.0412 107.778 19.8348 107.751C19.5927 107.709 19.3565 107.638 19.1315 107.54C18.1143 107.137 17.0724 106.731 16.1714 106.097C15.9215 105.921 15.6599 105.676 15.6875 105.37C15.7135 105.24 15.757 105.113 15.8168 104.994C15.939 104.682 15.9431 104.337 15.8285 104.022C15.7791 103.888 15.6831 103.747 15.548 103.731C15.1644 103.685 15.2109 104.244 15.1542 104.458C15.0772 104.748 14.9377 104.775 14.6645 104.748C13.8798 104.677 13.0951 104.638 12.3162 104.49Z" fill="#D5E3D0"/>
<path d="M35.2577 108.395C35.2647 108.963 35.4599 109.512 35.8128 109.957C35.9206 110.09 36.0553 110.198 36.208 110.275C36.4379 110.37 36.6868 110.409 36.9346 110.39C37.6263 110.375 38.3098 110.237 38.953 109.982C39.1796 109.879 39.4126 109.791 39.6505 109.719C39.95 109.657 40.2528 109.614 40.5573 109.588C41.7591 109.415 42.8141 108.706 43.9751 108.347C44.322 108.261 44.6621 108.149 44.9923 108.013C45.4515 107.796 45.8235 107.431 46.1883 107.078C46.4033 106.888 46.5885 106.666 46.7376 106.42C46.9512 106.023 46.9643 105.548 46.973 105.099C46.9808 105.029 46.9687 104.958 46.9381 104.894C46.9049 104.848 46.8596 104.813 46.8073 104.791C46.4542 104.617 46.0357 104.704 45.6448 104.772C44.2323 105.024 42.7865 104.977 41.3522 104.931C41.2161 104.949 41.0777 104.923 40.9584 104.854C40.8391 104.786 40.7456 104.681 40.6925 104.554L40.1475 103.682C39.992 103.432 39.745 103.146 39.4631 103.232C39.2378 103.3 39.1463 103.576 39.155 103.813C39.1637 104.05 39.2364 104.285 39.1913 104.516C39.1592 104.644 39.1014 104.763 39.0214 104.867C38.9414 104.971 38.841 105.057 38.7263 105.121C38.4974 105.245 38.2531 105.339 37.9998 105.4C37.1976 105.627 36.2647 105.884 35.6442 106.474C35.1879 106.892 35.23 107.83 35.2577 108.395Z" fill="#D5E3D0"/>
<path d="M34.9761 50.7427C35.289 50.5036 35.5575 50.2114 35.7695 49.8795C35.9521 49.505 36.0667 49.1011 36.1081 48.6865L36.3362 47.245C36.4626 46.4501 36.6108 45.6087 37.1412 45.0027C37.6716 44.3968 38.7281 44.1803 39.2672 44.7789C39.5026 45.0391 39.5956 45.3965 39.6538 45.7438C39.8196 46.7795 39.7513 47.8391 39.4541 48.8449C39.1569 49.8508 38.6382 50.7773 37.9361 51.5565C37.2837 52.2714 36.483 52.8396 35.7927 53.5153C35.1911 54.0966 34.6694 54.7636 34.1143 55.3957C32.7719 56.9227 31.2344 58.2663 29.5413 59.3919C29.5616 58.3107 29.6996 57.1511 29.5413 56.0772C29.4235 55.3012 29.1053 54.8827 29.8566 54.3756C31.6004 53.1898 33.3601 52.1174 34.9761 50.7427Z" fill="#FBBEBE"/>
<path d="M20.3219 40.108C20.2652 40.8811 19.9441 41.6716 19.3047 42.1177C21.1153 42.7513 22.9012 43.4498 24.6625 44.2132C24.3224 43.8862 24.2193 43.3849 24.2033 42.914C24.1582 41.6832 24.584 40.4727 25.2059 39.4119C25.3049 39.2774 25.362 39.1166 25.3702 38.9498C25.3498 38.6069 24.9429 38.4485 24.6087 38.3686C23.4684 38.0919 22.3046 37.9231 21.1328 37.8643C20.6314 37.8483 20.0371 37.6899 20.1504 38.3279C20.258 38.9237 20.3669 39.5049 20.3219 40.108Z" fill="#FBBEBE"/>
<path d="M23.8237 40.5225C26.1696 40.5225 28.0713 38.6208 28.0713 36.2749C28.0713 33.929 26.1696 32.0273 23.8237 32.0273C21.4779 32.0273 19.5762 33.929 19.5762 36.2749C19.5762 38.6208 21.4779 40.5225 23.8237 40.5225Z" fill="#FBBEBE"/>
<path d="M28.0298 47.7474C27.8815 47.4285 27.7009 47.1256 27.4907 46.8436C26.7205 45.7377 25.93 44.6333 24.9419 43.7178C24.1933 43.0503 23.3832 42.4552 22.5224 41.9406C22.0579 41.6222 21.5472 41.3772 21.0082 41.214C20.6883 41.1432 20.3632 41.0989 20.036 41.0818L18.9331 40.9917C18.8364 40.9789 18.7382 40.9818 18.6424 41.0004C18.3431 41.076 18.2065 41.448 18.2704 41.7488C18.3344 42.0496 18.5611 42.2937 18.7616 42.5219C18.811 44.7728 17.8098 46.9932 17.6746 49.2413C17.4378 53.1721 19.8369 56.8282 20.0287 60.7619C20.0485 60.9396 20.0297 61.1196 19.9735 61.2894C19.9415 61.3708 19.8936 61.4449 19.8573 61.5248C19.7439 61.7718 19.7483 62.0523 19.7279 62.324C19.6488 63.2932 19.2244 64.2017 18.532 64.8845C18.7119 65.1079 18.9433 65.2844 19.2063 65.3989C19.6698 65.6009 20.2235 65.6183 20.7161 65.7593C22.0007 66.1342 23.3172 66.512 24.6527 66.4321C24.8186 66.0711 24.9213 65.6842 24.9564 65.2885C25.1453 65.1708 25.3633 65.4221 25.3923 65.643C25.4214 65.8639 25.3793 66.1211 25.5377 66.281C25.696 66.4408 25.8966 66.4161 26.0898 66.3914C26.9051 66.2882 27.6883 66.0136 28.4876 65.829C29.2868 65.6445 30.1412 65.5558 30.9187 65.8203C31.0756 65.6212 31.0088 65.3262 30.8809 65.1083C30.753 64.8903 30.5714 64.6985 30.4987 64.4558C30.4622 64.316 30.4465 64.1715 30.4522 64.0271C30.4522 62.7847 30.708 61.5292 30.4653 60.31C30.3941 59.9525 30.2808 59.6037 30.2081 59.2448C30.0628 58.5487 30.0846 57.8309 30.1035 57.1203C30.1224 56.4097 30.0366 55.641 30.0221 54.9202C30.0216 54.6223 30.0022 54.3248 29.964 54.0294C29.9145 53.7199 29.8186 53.4176 29.7925 53.1052C29.714 52.3118 30.0337 51.5242 29.9858 50.7279C29.9058 49.5188 28.5006 48.862 28.0298 47.7474Z" fill="#BEA35B"/>
<path d="M18.4423 47.1776C17.4135 49.9067 16.9107 52.8013 16.4079 55.6757L15.2453 62.427C14.9155 64.335 14.5842 66.2547 14.5972 68.1903C14.5972 68.7337 14.6321 69.2874 14.4897 69.812C14.3037 70.5008 13.8416 71.0748 13.4914 71.7011C12.7808 72.9801 12.5441 74.4687 12.8229 75.9051C12.9421 76.5081 13.2676 77.1926 13.8794 77.2623C14.3822 77.3175 14.8167 76.9179 15.1102 76.5052C15.7845 75.5592 16.1187 74.417 16.418 73.2923C17.3817 69.6166 18.0556 65.871 18.4336 62.0899C18.4695 61.6113 18.537 61.1356 18.6356 60.6658C18.7639 60.1815 18.9281 59.7075 19.1267 59.2475C19.5714 58.1451 20.0165 57.0426 20.4622 55.9402C21.4896 53.3928 22.5227 50.8338 23.9338 48.4768C22.5387 48.0757 21.087 47.6049 19.692 47.2082C19.2895 47.089 18.8579 47.1602 18.4423 47.1776Z" fill="#FBBEBE"/>
<path d="M20.8606 49.2519C19.8841 49.0411 18.8741 49.1065 17.8773 49.0818C17.7357 49.0921 17.5947 49.0553 17.4762 48.9772C17.2742 48.8043 17.3599 48.4802 17.4617 48.2346L17.9441 47.0721C18.0233 46.8318 18.1554 46.6123 18.3306 46.4298C18.5762 46.2119 18.9221 46.1581 19.2476 46.1189C20.3069 45.9968 21.3968 45.9561 22.4242 46.2424C23.4516 46.5286 24.4179 47.1797 24.8771 48.1431C25.0689 48.5442 25.1576 49.0499 24.9033 49.4146C24.5254 49.9566 23.6783 50.5626 23.0461 50.2662C22.289 49.9072 21.7092 49.432 20.8606 49.2519Z" fill="#BEA35B"/>
<path d="M26.0541 29.6772C25.2148 29.6682 24.3912 29.9056 23.6855 30.3601C23.0174 29.727 22.193 29.2828 21.2968 29.0729C20.4006 28.863 19.4647 28.895 18.5849 29.1657C18.4915 28.6299 18.2528 28.1301 17.8948 27.7207C17.5367 27.3114 17.0731 27.0083 16.5546 26.8445C16.036 26.6806 15.4824 26.6624 14.9542 26.7917C14.4259 26.9211 13.9434 27.193 13.5592 27.5779C13.1749 27.9627 12.9038 28.4457 12.7754 28.9742C12.647 29.5026 12.6661 30.0562 12.8308 30.5745C12.9956 31.0928 13.2995 31.5559 13.7094 31.9132C14.1193 32.2706 14.6196 32.5085 15.1555 32.6009C14.9638 33.2557 14.9029 33.9417 14.9764 34.62C15.0499 35.2983 15.2562 35.9554 15.5836 36.5539C15.911 37.1524 16.3531 37.6806 16.8847 38.1083C17.4162 38.5359 18.0268 38.8547 18.6816 39.0464C19.3363 39.2381 20.0224 39.2989 20.7006 39.2255C21.3789 39.152 22.036 38.9457 22.6346 38.6182C23.2331 38.2908 23.7612 37.8487 24.1889 37.3172C24.6166 36.7856 24.9353 36.175 25.127 35.5203C25.4335 35.583 25.7456 35.6147 26.0585 35.6148C28.1074 35.6148 29.7698 34.2851 29.7698 32.646C29.7698 31.0068 28.1002 29.6772 26.0541 29.6772Z" fill="#3F3D56"/>
<path opacity="0.1" d="M26.7912 34.1303C26.4783 34.1311 26.1661 34.0995 25.8598 34.0358C25.7142 34.5673 25.4846 35.0721 25.1797 35.5311C25.467 35.5865 25.7589 35.6147 26.0516 35.6154C27.9668 35.6154 29.5392 34.4529 29.7411 32.9648C29.0596 33.674 27.9915 34.1303 26.7912 34.1303Z" fill="black"/>
<path opacity="0.1" d="M20.8548 37.841C20.0419 37.8398 19.2407 37.6482 18.5153 37.2814C17.7899 36.9147 17.1605 36.3831 16.6776 35.7293C16.1947 35.0754 15.8717 34.3175 15.7346 33.5163C15.5974 32.7152 15.65 31.893 15.8879 31.1158C15.2003 30.9948 14.5774 30.6354 14.1285 30.1007C13.6796 29.5659 13.4336 28.8902 13.4335 28.192C13.4332 28.0136 13.4493 27.8356 13.4815 27.6602C13.119 28.0517 12.8688 28.5337 12.7572 29.0555C12.6455 29.5772 12.6765 30.1194 12.8469 30.6251C13.0173 31.1307 13.3209 31.581 13.7256 31.9287C14.1303 32.2764 14.6213 32.5086 15.1468 32.6009C14.7467 33.9145 14.883 35.3331 15.5259 36.5465C16.1688 37.76 17.266 38.6695 18.5775 39.0763C19.8891 39.4831 21.3084 39.354 22.5251 38.7173C23.7418 38.0806 24.6569 36.9881 25.0704 35.6787C24.5901 36.3481 23.9571 36.8934 23.224 37.2695C22.4909 37.6455 21.6787 37.8414 20.8548 37.841Z" fill="black"/>
<path d="M39.3043 44.5769L39.0086 44.3659C38.9877 44.351 38.9586 44.3558 38.9437 44.3767C38.9288 44.3976 38.9336 44.4267 38.9545 44.4416L39.2503 44.6526C39.2712 44.6675 39.3002 44.6626 39.3151 44.6417C39.33 44.6208 39.3252 44.5918 39.3043 44.5769Z" fill="#E6E8EC"/>
<path d="M39.4079 44.7689C39.4368 44.7689 39.4603 44.7454 39.4603 44.7165C39.4603 44.6875 39.4368 44.6641 39.4079 44.6641C39.3789 44.6641 39.3555 44.6875 39.3555 44.7165C39.3555 44.7454 39.3789 44.7689 39.4079 44.7689Z" fill="#E6E8EC"/>
</svg>
