<svg width="19" height="25" viewBox="0 0 19 25" fill="none" xmlns="http://www.w3.org/2000/svg">
<path d="M9.49963 0C4.42507 0 0.296143 4.12893 0.296143 9.204C0.296143 10.5278 0.567089 11.7917 1.10105 12.9609C3.40218 17.9963 7.81408 23.3127 9.11176 24.8219C9.20898 24.9348 9.35072 24.9997 9.49988 24.9997C9.64904 24.9997 9.79078 24.9348 9.88801 24.8219C11.1852 23.3129 15.5971 17.9968 17.899 12.9609C18.4332 11.7917 18.7039 10.5278 18.7039 9.204C18.7034 4.12893 14.5744 0 9.49963 0ZM9.49963 13.9846C6.86359 13.9846 4.71879 11.8398 4.71879 9.20374C4.71879 6.56745 6.86359 4.42265 9.49963 4.42265C12.1357 4.42265 14.2805 6.56745 14.2805 9.20374C14.2807 11.8398 12.1359 13.9846 9.49963 13.9846Z" fill="#4EBB00"/>
</svg>
