<svg width="55" height="70" viewBox="0 0 55 70" fill="none" xmlns="http://www.w3.org/2000/svg">
<g filter="url(#filter0_d)">
<path d="M27.25 0C14.4276 0 4 10.4276 4 23.25C4 39.3661 24.987 60.5391 25.8783 61.4342C26.258 61.8101 26.754 62 27.25 62C27.746 62 28.242 61.8101 28.6217 61.4342C29.513 60.5391 50.5 39.3661 50.5 23.25C50.5 10.4276 40.0724 0 27.25 0Z" fill="#565F69"/>
<path d="M5 23.25C5 10.9799 14.9799 1 27.25 1C39.5201 1 49.5 10.9799 49.5 23.25C49.5 27.0758 48.2502 31.27 46.2999 35.4681C44.3541 39.6567 41.741 43.7859 39.0844 47.4645C33.7831 54.8055 28.3682 60.2715 27.9161 60.7257C27.7297 60.909 27.4899 61 27.25 61C27.0101 61 26.7703 60.909 26.5839 60.7257C26.1318 60.2715 20.7169 54.8055 15.4156 47.4645C12.759 43.7859 10.1459 39.6567 8.20006 35.4681C6.2498 31.27 5 27.0758 5 23.25Z" stroke="white" stroke-width="2"/>
</g>
<path opacity="0.95" d="M37.6473 21.8856L28.2253 13.2832C27.8117 12.9056 27.1881 12.9056 26.7747 13.2832L17.3527 21.8857C17.0214 22.1881 16.9119 22.6542 17.0738 23.0729C17.2357 23.4917 17.6298 23.7622 18.078 23.7622H19.5829V32.3812C19.5829 32.7229 19.8594 33 20.2004 33H25.3649C25.7059 33 25.9824 32.7229 25.9824 32.3812V27.148H29.0177V32.3812C29.0177 32.7229 29.2942 33 29.6352 33H34.7994C35.1405 33 35.417 32.723 35.417 32.3812V23.7622H36.9221C37.3703 23.7622 37.7645 23.4916 37.9263 23.0729C38.088 22.6541 37.9786 22.1881 37.6473 21.8856Z" fill="white"/>
<defs>
<filter id="filter0_d" x="0" y="0" width="54.5" height="70" filterUnits="userSpaceOnUse" color-interpolation-filters="sRGB">
<feFlood flood-opacity="0" result="BackgroundImageFix"/>
<feColorMatrix in="SourceAlpha" type="matrix" values="0 0 0 0 0 0 0 0 0 0 0 0 0 0 0 0 0 0 127 0"/>
<feOffset dy="4"/>
<feGaussianBlur stdDeviation="2"/>
<feColorMatrix type="matrix" values="0 0 0 0 0.101961 0 0 0 0 0.0901961 0 0 0 0 0.25098 0 0 0 0.3 0"/>
<feBlend mode="normal" in2="BackgroundImageFix" result="effect1_dropShadow"/>
<feBlend mode="normal" in="SourceGraphic" in2="effect1_dropShadow" result="shape"/>
</filter>
</defs>
</svg>
