<svg width="18" height="18" viewBox="0 0 18 18" fill="none" xmlns="http://www.w3.org/2000/svg">
<path fill-rule="evenodd" clip-rule="evenodd" d="M9 18C13.9706 18 18 13.9706 18 9C18 4.02944 13.9706 0 9 0C4.02944 0 0 4.02944 0 9C0 13.9706 4.02944 18 9 18ZM8.06 11.578V10.794H10.02C11.3547 10.794 12.3953 10.514 13.142 9.954C13.898 9.394 14.276 8.57733 14.276 7.504C14.276 6.42133 13.898 5.6 13.142 5.04C12.3953 4.48 11.3547 4.2 10.02 4.2H5.778V11.578H4.42V12.74H5.778V14H8.06V12.74H11.084V11.578H8.06ZM11.462 6.426C11.8073 6.678 11.98 7.042 11.98 7.518C11.98 8.00333 11.8073 8.37667 11.462 8.638C11.126 8.89 10.6407 9.016 10.006 9.016H8.06V6.048H10.006C10.6407 6.048 11.126 6.174 11.462 6.426Z" fill="#42484D"/>
</svg>
