<svg width="379" height="161" viewBox="0 0 379 161" fill="none" xmlns="http://www.w3.org/2000/svg">
<path opacity="0.8" d="M89.18 86.5941H84.266V66.5741C84.266 59.6581 78.806 54.1981 71.89 54.1981C64.792 54.1981 59.696 59.6581 59.696 66.5741V86.5941H30.394L57.694 23.44C58.24 21.9841 58.604 20.5281 58.604 19.072C58.604 12.338 52.962 6.69604 46.228 6.69604C41.132 6.69604 36.764 10.154 34.762 14.704L1.092 91.8721C0.364 93.6921 0 95.3301 0 97.1501C0 103.884 5.46 109.344 12.194 109.344H59.696V118.626C59.696 125.724 64.974 131.184 71.89 131.184C78.806 131.184 84.266 125.724 84.266 118.626V109.344H89.18C96.46 109.344 100.828 103.702 100.828 98.0601C100.828 92.2361 96.46 86.5941 89.18 86.5941Z" fill="#5A5863"/>
<path opacity="0.8" d="M367.18 86.5941H362.266V66.5741C362.266 59.6581 356.806 54.1981 349.89 54.1981C342.792 54.1981 337.696 59.6581 337.696 66.5741V86.5941H308.394L335.694 23.44C336.24 21.9841 336.604 20.5281 336.604 19.072C336.604 12.338 330.962 6.69604 324.228 6.69604C319.132 6.69604 314.764 10.154 312.762 14.704L279.092 91.8721C278.364 93.6921 278 95.3301 278 97.1501C278 103.884 283.46 109.344 290.194 109.344H337.696V118.626C337.696 125.724 342.974 131.184 349.89 131.184C356.806 131.184 362.266 125.724 362.266 118.626V109.344H367.18C374.46 109.344 378.828 103.702 378.828 98.0601C378.828 92.2361 374.46 86.5941 367.18 86.5941Z" fill="#5A5863"/>
<path opacity="0.3" fill-rule="evenodd" clip-rule="evenodd" d="M223.156 95.5099C228.276 90.5066 236.493 90.4237 241.508 95.3246L280.846 133.764C285.861 138.665 285.777 146.694 280.656 151.697C275.536 156.7 267.319 156.783 262.304 151.882L222.966 113.443C217.951 108.542 218.036 100.513 223.156 95.5099Z" fill="#60CE78"/>
<path fill-rule="evenodd" clip-rule="evenodd" d="M185.088 108.153C208.611 108.153 227.68 89.5041 227.68 66.5C227.68 43.4959 208.611 24.8474 185.088 24.8474C161.565 24.8474 142.496 43.4959 142.496 66.5C142.496 89.5041 161.565 108.153 185.088 108.153ZM185.088 133C222.643 133 253.088 103.227 253.088 66.5C253.088 29.7731 222.643 -2.25428e-06 185.088 -1.45224e-06C147.533 -6.50188e-07 117.088 29.7731 117.088 66.5C117.088 103.227 147.533 133 185.088 133Z" fill="#60CE78"/>
</svg>
